<?xml version="1.0" encoding="UTF-8" standalone="no"?>
<!DOCTYPE svg PUBLIC "-//W3C//DTD SVG 1.1//EN"
 "http://www.w3.org/Graphics/SVG/1.1/DTD/svg11.dtd">
<!-- Generated by graphviz version 2.43.0 (0)
 -->
<!-- Title: Guildmaster.Core.UnitData Pages: 1 -->
<svg width="150pt" height="217pt"
 viewBox="0.00 0.00 150.00 217.00" xmlns="http://www.w3.org/2000/svg" xmlns:xlink="http://www.w3.org/1999/xlink">
<g id="graph0" class="graph" transform="scale(1 1) rotate(0) translate(4 213)">
<title>Guildmaster.Core.UnitData</title>
<!-- Node1 -->
<g id="Node000001" class="node">
<title>Node1</title>
<g id="a_Node000001"><a xlink:title="ScriptableObject с базовыми характеристиками юнита.">
<polygon fill="#999999" stroke="transparent" points="142,-124 0,-124 0,0 142,0 142,-124"/>
<text text-anchor="start" x="5" y="-112" font-family="Helvetica,sans-Serif" font-size="10.00">Guildmaster.Core.UnitData</text>
<text text-anchor="start" x="16.5" y="-97" font-family="Helvetica,sans-Serif" font-size="10.00">+</text>
<text text-anchor="start" x="42" y="-97" font-family="Helvetica,sans-Serif" font-size="10.00">DisplayName</text>
<text text-anchor="start" x="16.5" y="-82" font-family="Helvetica,sans-Serif" font-size="10.00">+</text>
<text text-anchor="start" x="42" y="-82" font-family="Helvetica,sans-Serif" font-size="10.00">BaseHealth</text>
<text text-anchor="start" x="16.5" y="-67" font-family="Helvetica,sans-Serif" font-size="10.00">+</text>
<text text-anchor="start" x="42" y="-67" font-family="Helvetica,sans-Serif" font-size="10.00">BaseAttack</text>
<text text-anchor="start" x="16.5" y="-52" font-family="Helvetica,sans-Serif" font-size="10.00">+</text>
<text text-anchor="start" x="42" y="-52" font-family="Helvetica,sans-Serif" font-size="10.00">BaseArmor</text>
<text text-anchor="start" x="16.5" y="-37" font-family="Helvetica,sans-Serif" font-size="10.00">+</text>
<text text-anchor="start" x="42" y="-37" font-family="Helvetica,sans-Serif" font-size="10.00">AttackInterval</text>
<text text-anchor="start" x="16.5" y="-22" font-family="Helvetica,sans-Serif" font-size="10.00">+</text>
<text text-anchor="start" x="42" y="-22" font-family="Helvetica,sans-Serif" font-size="10.00">AttackRange</text>
<text text-anchor="start" x="69" y="-7" font-family="Helvetica,sans-Serif" font-size="10.00"> </text>
<polygon fill="#666666" stroke="#666666" points="0,-107 0,-107 142,-107 142,-107 0,-107"/>
<polygon fill="#666666" stroke="#666666" points="0,-17 0,-17 40,-17 40,-17 0,-17"/>
<polygon fill="#666666" stroke="#666666" points="40,-17 40,-17 142,-17 142,-17 40,-17"/>
<polygon fill="none" stroke="#666666" points="0,0 0,-124 142,-124 142,0 0,0"/>
</a>
</g>
</g>
<!-- Node2 -->
<g id="Node000002" class="node">
<title>Node2</title>
<g id="a_Node000002"><a xlink:title=" ">
<polygon fill="white" stroke="transparent" points="116.5,-209 25.5,-209 25.5,-160 116.5,-160 116.5,-209"/>
<text text-anchor="start" x="31" y="-196.5" font-family="Helvetica,sans-Serif" font-size="10.00">ScriptableObject</text>
<text text-anchor="start" x="69.5" y="-181.5" font-family="Helvetica,sans-Serif" font-size="10.00"> </text>
<text text-anchor="start" x="69.5" y="-166.5" font-family="Helvetica,sans-Serif" font-size="10.00"> </text>
<polygon fill="#666666" stroke="#666666" points="26,-191.5 26,-191.5 117,-191.5 117,-191.5 26,-191.5"/>
<polygon fill="#666666" stroke="#666666" points="26,-176.5 26,-176.5 117,-176.5 117,-176.5 26,-176.5"/>
<polygon fill="none" stroke="#666666" points="25.5,-160 25.5,-209 116.5,-209 116.5,-160 25.5,-160"/>
</a>
</g>
</g>
<!-- Node2&#45;&gt;Node1 -->
<g id="edge1_Node000001_Node000002" class="edge">
<title>Node2&#45;&gt;Node1</title>
<g id="a_edge1_Node000001_Node000002"><a xlink:title=" ">
<path fill="none" stroke="#63b8ff" d="M71,-149.94C71,-141.91 71,-133.08 71,-124.23"/>
<polygon fill="none" stroke="#63b8ff" points="67.5,-149.98 71,-159.98 74.5,-149.98 67.5,-149.98"/>
</a>
</g>
</g>
</g>
</svg>
