<?xml version="1.0" encoding="UTF-8" standalone="no"?>
<!DOCTYPE svg PUBLIC "-//W3C//DTD SVG 1.1//EN"
 "http://www.w3.org/Graphics/SVG/1.1/DTD/svg11.dtd">
<!-- Generated by graphviz version 2.43.0 (0)
 -->
<!-- Title: Guildmaster.Units.BaseUnit Pages: 1 -->
<svg width="206pt" height="397pt"
 viewBox="0.00 0.00 205.50 397.00" xmlns="http://www.w3.org/2000/svg" xmlns:xlink="http://www.w3.org/1999/xlink">
<g id="graph0" class="graph" transform="scale(1 1) rotate(0) translate(4 393)">
<title>Guildmaster.Units.BaseUnit</title>
<!-- Node1 -->
<g id="Node000001" class="node">
<title>Node1</title>
<g id="a_Node000001"><a xlink:title="Базовая реализация боевой единицы.">
<polygon fill="#999999" stroke="transparent" points="170.5,-199 24.5,-199 24.5,0 170.5,0 170.5,-199"/>
<text text-anchor="start" x="29.5" y="-186.5" font-family="Helvetica,sans-Serif" font-size="10.00">Guildmaster.Units.BaseUnit</text>
<text text-anchor="start" x="42" y="-171.5" font-family="Helvetica,sans-Serif" font-size="10.00">+</text>
<text text-anchor="start" x="68.5" y="-171.5" font-family="Helvetica,sans-Serif" font-size="10.00">Id</text>
<text text-anchor="start" x="42" y="-156.5" font-family="Helvetica,sans-Serif" font-size="10.00">+</text>
<text text-anchor="start" x="68.5" y="-156.5" font-family="Helvetica,sans-Serif" font-size="10.00">DisplayName</text>
<text text-anchor="start" x="42" y="-141.5" font-family="Helvetica,sans-Serif" font-size="10.00">+</text>
<text text-anchor="start" x="68.5" y="-141.5" font-family="Helvetica,sans-Serif" font-size="10.00">CurrentHealth</text>
<text text-anchor="start" x="42" y="-126.5" font-family="Helvetica,sans-Serif" font-size="10.00">+</text>
<text text-anchor="start" x="68.5" y="-126.5" font-family="Helvetica,sans-Serif" font-size="10.00">MaxHealth</text>
<text text-anchor="start" x="42" y="-111.5" font-family="Helvetica,sans-Serif" font-size="10.00">+</text>
<text text-anchor="start" x="68.5" y="-111.5" font-family="Helvetica,sans-Serif" font-size="10.00">IsAlive</text>
<text text-anchor="start" x="42" y="-96.5" font-family="Helvetica,sans-Serif" font-size="10.00">+</text>
<text text-anchor="start" x="68.5" y="-96.5" font-family="Helvetica,sans-Serif" font-size="10.00">GridPosition</text>
<text text-anchor="start" x="42" y="-81.5" font-family="Helvetica,sans-Serif" font-size="10.00">+</text>
<text text-anchor="start" x="68.5" y="-81.5" font-family="Helvetica,sans-Serif" font-size="10.00">Initialize()</text>
<text text-anchor="start" x="42" y="-66.5" font-family="Helvetica,sans-Serif" font-size="10.00">+</text>
<text text-anchor="start" x="68.5" y="-66.5" font-family="Helvetica,sans-Serif" font-size="10.00">TakeDamage()</text>
<text text-anchor="start" x="42" y="-51.5" font-family="Helvetica,sans-Serif" font-size="10.00">+</text>
<text text-anchor="start" x="68.5" y="-51.5" font-family="Helvetica,sans-Serif" font-size="10.00">Heal()</text>
<text text-anchor="start" x="42" y="-36.5" font-family="Helvetica,sans-Serif" font-size="10.00">+</text>
<text text-anchor="start" x="68.5" y="-36.5" font-family="Helvetica,sans-Serif" font-size="10.00">Die()</text>
<text text-anchor="start" x="42" y="-21.5" font-family="Helvetica,sans-Serif" font-size="10.00">+</text>
<text text-anchor="start" x="68.5" y="-21.5" font-family="Helvetica,sans-Serif" font-size="10.00">MoveTo()</text>
<text text-anchor="start" x="42" y="-6.5" font-family="Helvetica,sans-Serif" font-size="10.00">#</text>
<text text-anchor="start" x="68.5" y="-6.5" font-family="Helvetica,sans-Serif" font-size="10.00">Awake()</text>
<polygon fill="#666666" stroke="#666666" points="24.5,-181.5 24.5,-181.5 170.5,-181.5 170.5,-181.5 24.5,-181.5"/>
<polygon fill="#666666" stroke="#666666" points="24.5,-91.5 24.5,-91.5 66.5,-91.5 66.5,-91.5 24.5,-91.5"/>
<polygon fill="#666666" stroke="#666666" points="66.5,-91.5 66.5,-91.5 170.5,-91.5 170.5,-91.5 66.5,-91.5"/>
<polygon fill="none" stroke="#666666" points="24.5,0 24.5,-199 170.5,-199 170.5,0 24.5,0"/>
</a>
</g>
</g>
<!-- Node2 -->
<g id="Node000002" class="node">
<title>Node2</title>
<g id="a_Node000002"><a xlink:title=" ">
<polygon fill="white" stroke="transparent" points="87,-336.5 0,-336.5 0,-287.5 87,-287.5 87,-336.5"/>
<text text-anchor="start" x="5.5" y="-324" font-family="Helvetica,sans-Serif" font-size="10.00">MonoBehaviour</text>
<text text-anchor="start" x="42" y="-309" font-family="Helvetica,sans-Serif" font-size="10.00"> </text>
<text text-anchor="start" x="42" y="-294" font-family="Helvetica,sans-Serif" font-size="10.00"> </text>
<polygon fill="#666666" stroke="#666666" points="0.5,-319 0.5,-319 87.5,-319 87.5,-319 0.5,-319"/>
<polygon fill="#666666" stroke="#666666" points="0.5,-304 0.5,-304 87.5,-304 87.5,-304 0.5,-304"/>
<polygon fill="none" stroke="#666666" points="0,-287.5 0,-336.5 87,-336.5 87,-287.5 0,-287.5"/>
</a>
</g>
</g>
<!-- Node2&#45;&gt;Node1 -->
<g id="edge1_Node000001_Node000002" class="edge">
<title>Node2&#45;&gt;Node1</title>
<g id="a_edge1_Node000001_Node000002"><a xlink:title=" ">
<path fill="none" stroke="#63b8ff" d="M52.11,-277.43C57.58,-256.1 64.98,-227.28 72.21,-199.1"/>
<polygon fill="none" stroke="#63b8ff" points="48.68,-276.71 49.59,-287.26 55.46,-278.45 48.68,-276.71"/>
</a>
</g>
</g>
<!-- Node3 -->
<g id="Node000003" class="node">
<title>Node3</title>
<g id="a_Node000003"><a xlink:href="interfaceGuildmaster_1_1Core_1_1IUnit.html" target="_top" xlink:title="Общий контракт для всех боевых единиц на поле боя.">
<polygon fill="white" stroke="transparent" points="197.5,-389 105.5,-389 105.5,-235 197.5,-235 197.5,-389"/>
<text text-anchor="start" x="139.5" y="-377" font-family="Helvetica,sans-Serif" font-size="10.00">IUnit</text>
<text text-anchor="start" x="109.5" y="-362" font-family="Helvetica,sans-Serif" font-size="10.00">+</text>
<text text-anchor="start" x="122.5" y="-362" font-family="Helvetica,sans-Serif" font-size="10.00">Id</text>
<text text-anchor="start" x="109.5" y="-347" font-family="Helvetica,sans-Serif" font-size="10.00">+</text>
<text text-anchor="start" x="122.5" y="-347" font-family="Helvetica,sans-Serif" font-size="10.00">DisplayName</text>
<text text-anchor="start" x="109.5" y="-332" font-family="Helvetica,sans-Serif" font-size="10.00">+</text>
<text text-anchor="start" x="122.5" y="-332" font-family="Helvetica,sans-Serif" font-size="10.00">CurrentHealth</text>
<text text-anchor="start" x="109.5" y="-317" font-family="Helvetica,sans-Serif" font-size="10.00">+</text>
<text text-anchor="start" x="122.5" y="-317" font-family="Helvetica,sans-Serif" font-size="10.00">MaxHealth</text>
<text text-anchor="start" x="109.5" y="-302" font-family="Helvetica,sans-Serif" font-size="10.00">+</text>
<text text-anchor="start" x="122.5" y="-302" font-family="Helvetica,sans-Serif" font-size="10.00">IsAlive</text>
<text text-anchor="start" x="109.5" y="-287" font-family="Helvetica,sans-Serif" font-size="10.00">+</text>
<text text-anchor="start" x="122.5" y="-287" font-family="Helvetica,sans-Serif" font-size="10.00">GridPosition</text>
<text text-anchor="start" x="109.5" y="-272" font-family="Helvetica,sans-Serif" font-size="10.00">+</text>
<text text-anchor="start" x="122.5" y="-272" font-family="Helvetica,sans-Serif" font-size="10.00">TakeDamage()</text>
<text text-anchor="start" x="109.5" y="-257" font-family="Helvetica,sans-Serif" font-size="10.00">+</text>
<text text-anchor="start" x="122.5" y="-257" font-family="Helvetica,sans-Serif" font-size="10.00">Heal()</text>
<text text-anchor="start" x="109.5" y="-242" font-family="Helvetica,sans-Serif" font-size="10.00">+</text>
<text text-anchor="start" x="122.5" y="-242" font-family="Helvetica,sans-Serif" font-size="10.00">Die()</text>
<polygon fill="#666666" stroke="#666666" points="105.5,-372 105.5,-372 197.5,-372 197.5,-372 105.5,-372"/>
<polygon fill="#666666" stroke="#666666" points="105.5,-282 105.5,-282 120.5,-282 120.5,-282 105.5,-282"/>
<polygon fill="#666666" stroke="#666666" points="120.5,-282 120.5,-282 197.5,-282 197.5,-282 120.5,-282"/>
<polygon fill="none" stroke="#666666" points="105.5,-235 105.5,-389 197.5,-389 197.5,-235 105.5,-235"/>
</a>
</g>
</g>
<!-- Node3&#45;&gt;Node1 -->
<g id="edge2_Node000001_Node000003" class="edge">
<title>Node3&#45;&gt;Node1</title>
<g id="a_edge2_Node000001_Node000003"><a xlink:title=" ">
<path fill="none" stroke="#63b8ff" d="M129.41,-224.87C127.24,-216.42 125.02,-207.79 122.83,-199.22"/>
<polygon fill="none" stroke="#63b8ff" points="126.05,-225.89 131.93,-234.71 132.83,-224.15 126.05,-225.89"/>
</a>
</g>
</g>
</g>
</svg>
