<?xml version="1.0" encoding="UTF-8" standalone="no"?>
<!DOCTYPE svg PUBLIC "-//W3C//DTD SVG 1.1//EN"
 "http://www.w3.org/Graphics/SVG/1.1/DTD/svg11.dtd">
<!-- Generated by graphviz version 2.43.0 (0)
 -->
<!-- Title: Graphical Class Hierarchy Pages: 1 -->
<svg width="324pt" height="64pt"
 viewBox="0.00 0.00 324.00 64.00" xmlns="http://www.w3.org/2000/svg" xmlns:xlink="http://www.w3.org/1999/xlink">
<g id="graph0" class="graph" transform="scale(1 1) rotate(0) translate(4 60)">
<title>Graphical Class Hierarchy</title>
<!-- Node0 -->
<g id="Node000000" class="node">
<title>Node0</title>
<g id="a_Node000000"><a xlink:href="interfaceGuildmaster_1_1Core_1_1IUnit.html" target="_top" xlink:title="Общий контракт для всех боевых единиц на поле боя.">
<polygon fill="white" stroke="#666666" points="128,-56 0,-56 0,-37 128,-37 128,-56"/>
<text text-anchor="middle" x="64" y="-44" font-family="Helvetica,sans-Serif" font-size="10.00">Guildmaster.Core.IUnit</text>
</a>
</g>
</g>
<!-- Node1 -->
<g id="Node000001" class="node">
<title>Node1</title>
<g id="a_Node000001"><a xlink:href="classGuildmaster_1_1Units_1_1BaseUnit.html" target="_top" xlink:title="Базовая реализация боевой единицы.">
<polygon fill="white" stroke="#666666" points="316,-37 164,-37 164,-18 316,-18 316,-37"/>
<text text-anchor="middle" x="240" y="-25" font-family="Helvetica,sans-Serif" font-size="10.00">Guildmaster.Units.BaseUnit</text>
</a>
</g>
</g>
<!-- Node0&#45;&gt;Node1 -->
<g id="edge1_Node000000_Node000001" class="edge">
<title>Node0&#45;&gt;Node1</title>
<g id="a_edge1_Node000000_Node000001"><a xlink:title=" ">
<path fill="none" stroke="#63b8ff" d="M138.47,-38.48C146.88,-37.56 155.47,-36.62 163.91,-35.7"/>
<polygon fill="#63b8ff" stroke="#63b8ff" points="137.87,-35.02 128.31,-39.59 138.63,-41.98 137.87,-35.02"/>
</a>
</g>
</g>
<!-- Node2 -->
<g id="Node000002" class="node">
<title>Node2</title>
<g id="a_Node000002"><a xlink:title=" ">
<polygon fill="#e0e0e0" stroke="#999999" points="110.5,-19 17.5,-19 17.5,0 110.5,0 110.5,-19"/>
<text text-anchor="middle" x="64" y="-7" font-family="Helvetica,sans-Serif" font-size="10.00">MonoBehaviour</text>
</a>
</g>
</g>
<!-- Node2&#45;&gt;Node1 -->
<g id="edge2_Node000002_Node000001" class="edge">
<title>Node2&#45;&gt;Node1</title>
<g id="a_edge2_Node000002_Node000001"><a xlink:title=" ">
<path fill="none" stroke="#63b8ff" d="M120.94,-15.29C134.65,-16.71 149.54,-18.25 163.99,-19.74"/>
<polygon fill="#63b8ff" stroke="#63b8ff" points="121.02,-11.78 110.72,-14.23 120.3,-18.74 121.02,-11.78"/>
</a>
</g>
</g>
</g>
</svg>
