<?xml version="1.0" encoding="UTF-8" standalone="no"?>
<!DOCTYPE svg PUBLIC "-//W3C//DTD SVG 1.1//EN"
 "http://www.w3.org/Graphics/SVG/1.1/DTD/svg11.dtd">
<!-- Generated by graphviz version 2.43.0 (0)
 -->
<!-- Title: Guildmaster.DevTools.ArenaDevCommands.Register Pages: 1 -->
<svg width="593pt" height="182pt"
 viewBox="0.00 0.00 593.00 182.00" xmlns="http://www.w3.org/2000/svg" xmlns:xlink="http://www.w3.org/1999/xlink">
<g id="graph0" class="graph" transform="scale(1 1) rotate(0) translate(4 178)">
<title>Guildmaster.DevTools.ArenaDevCommands.Register</title>
<!-- Node1 -->
<g id="Node000001" class="node">
<title>Node1</title>
<g id="a_Node000001"><a xlink:title="Положить команды арены в набор модуля (снимаются вместе с ним).">
<polygon fill="#999999" stroke="#666666" points="155,-102 0,-102 0,-72 155,-72 155,-102"/>
<text text-anchor="start" x="8" y="-90" font-family="Helvetica,sans-Serif" font-size="10.00">Guildmaster.DevTools.Arena</text>
<text text-anchor="middle" x="77.5" y="-79" font-family="Helvetica,sans-Serif" font-size="10.00">DevCommands.Register</text>
</a>
</g>
</g>
<!-- Node2 -->
<g id="Node000002" class="node">
<title>Node2</title>
<g id="a_Node000002"><a xlink:href="classGuildmaster_1_1DevTools_1_1ArenaDevCommands.html#a33a75604de27b10f7675aa83b3039791" target="_top" xlink:title=" ">
<polygon fill="white" stroke="#666666" points="346,-174 191,-174 191,-144 346,-144 346,-174"/>
<text text-anchor="start" x="199" y="-162" font-family="Helvetica,sans-Serif" font-size="10.00">Guildmaster.DevTools.Arena</text>
<text text-anchor="middle" x="268.5" y="-151" font-family="Helvetica,sans-Serif" font-size="10.00">DevCommands.Rush</text>
</a>
</g>
</g>
<!-- Node1&#45;&gt;Node2 -->
<g id="edge1_Node000001_Node000002" class="edge">
<title>Node1&#45;&gt;Node2</title>
<g id="a_edge1_Node000001_Node000002"><a xlink:title=" ">
<path fill="none" stroke="#63b8ff" d="M111.62,-102.16C133.85,-112.08 163.91,-125 191,-135 196.22,-136.93 201.68,-138.84 207.17,-140.69"/>
<polygon fill="#63b8ff" stroke="#63b8ff" points="206.46,-144.14 217.06,-143.96 208.66,-137.5 206.46,-144.14"/>
</a>
</g>
</g>
<!-- Node4 -->
<g id="Node000004" class="node">
<title>Node4</title>
<g id="a_Node000004"><a xlink:href="classGuildmaster_1_1DevTools_1_1ArenaDevCommands.html#af5ec3fdb9c77de9df04c79c15a35d1a4" target="_top" xlink:title=" ">
<polygon fill="white" stroke="#666666" points="346,-126 191,-126 191,-96 346,-96 346,-126"/>
<text text-anchor="start" x="199" y="-114" font-family="Helvetica,sans-Serif" font-size="10.00">Guildmaster.DevTools.Arena</text>
<text text-anchor="middle" x="268.5" y="-103" font-family="Helvetica,sans-Serif" font-size="10.00">DevCommands.Set</text>
</a>
</g>
</g>
<!-- Node1&#45;&gt;Node4 -->
<g id="edge3_Node000001_Node000004" class="edge">
<title>Node1&#45;&gt;Node4</title>
<g id="a_edge3_Node000001_Node000004"><a xlink:title=" ">
<path fill="none" stroke="#63b8ff" d="M155.1,-96.73C163.56,-97.8 172.22,-98.9 180.79,-99.99"/>
<polygon fill="#63b8ff" stroke="#63b8ff" points="180.43,-103.47 190.79,-101.26 181.31,-96.53 180.43,-103.47"/>
</a>
</g>
</g>
<!-- Node6 -->
<g id="Node000006" class="node">
<title>Node6</title>
<g id="a_Node000006"><a xlink:href="classGuildmaster_1_1DevTools_1_1ArenaDevCommands.html#afe577db3dcddf0c4cfd61e1c8bfffbca" target="_top" xlink:title=" ">
<polygon fill="white" stroke="#666666" points="346,-78 191,-78 191,-48 346,-48 346,-78"/>
<text text-anchor="start" x="199" y="-66" font-family="Helvetica,sans-Serif" font-size="10.00">Guildmaster.DevTools.Arena</text>
<text text-anchor="middle" x="268.5" y="-55" font-family="Helvetica,sans-Serif" font-size="10.00">DevCommands.Skins</text>
</a>
</g>
</g>
<!-- Node1&#45;&gt;Node6 -->
<g id="edge5_Node000001_Node000006" class="edge">
<title>Node1&#45;&gt;Node6</title>
<g id="a_edge5_Node000001_Node000006"><a xlink:title=" ">
<path fill="none" stroke="#63b8ff" d="M155.1,-77.27C163.56,-76.2 172.22,-75.1 180.79,-74.01"/>
<polygon fill="#63b8ff" stroke="#63b8ff" points="181.31,-77.47 190.79,-72.74 180.43,-70.53 181.31,-77.47"/>
</a>
</g>
</g>
<!-- Node7 -->
<g id="Node000007" class="node">
<title>Node7</title>
<g id="a_Node000007"><a xlink:href="classGuildmaster_1_1DevTools_1_1ArenaDevCommands.html#a38f419f757722c9dd030d6d196448b7a" target="_top" xlink:title=" ">
<polygon fill="white" stroke="#666666" points="346,-30 191,-30 191,0 346,0 346,-30"/>
<text text-anchor="start" x="199" y="-18" font-family="Helvetica,sans-Serif" font-size="10.00">Guildmaster.DevTools.Arena</text>
<text text-anchor="middle" x="268.5" y="-7" font-family="Helvetica,sans-Serif" font-size="10.00">DevCommands.Swap</text>
</a>
</g>
</g>
<!-- Node1&#45;&gt;Node7 -->
<g id="edge6_Node000001_Node000007" class="edge">
<title>Node1&#45;&gt;Node7</title>
<g id="a_edge6_Node000001_Node000007"><a xlink:title=" ">
<path fill="none" stroke="#63b8ff" d="M111.62,-71.84C133.85,-61.92 163.91,-49 191,-39 196.22,-37.07 201.68,-35.16 207.17,-33.31"/>
<polygon fill="#63b8ff" stroke="#63b8ff" points="208.66,-36.5 217.06,-30.04 206.46,-29.86 208.66,-36.5"/>
</a>
</g>
</g>
<!-- Node3 -->
<g id="Node000003" class="node">
<title>Node3</title>
<g id="a_Node000003"><a xlink:href="classGuildmaster_1_1Presentation_1_1Arena_1_1ArenaSkinSwapper.html#a044da18846e906c1e5459b9d006e90e8" target="_top" xlink:title="Резко ускорить текущий переход (Space).">
<polygon fill="white" stroke="#666666" points="566.5,-174 400.5,-174 400.5,-144 566.5,-144 566.5,-174"/>
<text text-anchor="start" x="408.5" y="-162" font-family="Helvetica,sans-Serif" font-size="10.00">Guildmaster.Presentation.</text>
<text text-anchor="middle" x="483.5" y="-151" font-family="Helvetica,sans-Serif" font-size="10.00">Arena.ArenaSkinSwapper.Rush</text>
</a>
</g>
</g>
<!-- Node2&#45;&gt;Node3 -->
<g id="edge2_Node000002_Node000003" class="edge">
<title>Node2&#45;&gt;Node3</title>
<g id="a_edge2_Node000002_Node000003"><a xlink:title=" ">
<path fill="none" stroke="#63b8ff" d="M346.1,-159C360.44,-159 375.57,-159 390.32,-159"/>
<polygon fill="#63b8ff" stroke="#63b8ff" points="390.47,-162.5 400.47,-159 390.47,-155.5 390.47,-162.5"/>
</a>
</g>
</g>
<!-- Node5 -->
<g id="Node000005" class="node">
<title>Node5</title>
<g id="a_Node000005"><a xlink:href="classGuildmaster_1_1Presentation_1_1Arena_1_1ArenaSkinSwapper.html#af17829699e2b1bda7669be0aea03f863" target="_top" xlink:title="Мгновенно надеть скин без анимации: загрузка сейва, первый вход в мир, dev&#45;команды.">
<polygon fill="white" stroke="#666666" points="585,-126 382,-126 382,-96 585,-96 585,-126"/>
<text text-anchor="start" x="390" y="-114" font-family="Helvetica,sans-Serif" font-size="10.00">Guildmaster.Presentation.</text>
<text text-anchor="middle" x="483.5" y="-103" font-family="Helvetica,sans-Serif" font-size="10.00">Arena.ArenaSkinSwapper.ApplyInstant</text>
</a>
</g>
</g>
<!-- Node4&#45;&gt;Node5 -->
<g id="edge4_Node000004_Node000005" class="edge">
<title>Node4&#45;&gt;Node5</title>
<g id="a_edge4_Node000004_Node000005"><a xlink:title=" ">
<path fill="none" stroke="#63b8ff" d="M346.1,-111C354.41,-111 362.99,-111 371.61,-111"/>
<polygon fill="#63b8ff" stroke="#63b8ff" points="371.73,-114.5 381.73,-111 371.73,-107.5 371.73,-114.5"/>
</a>
</g>
</g>
<!-- Node8 -->
<g id="Node000008" class="node">
<title>Node8</title>
<g id="a_Node000008"><a xlink:href="classGuildmaster_1_1Presentation_1_1Arena_1_1ArenaSkinSwapper.html#a853319b561f814e2ce97514ecd717c02" target="_top" xlink:title="Перевести арену на скин skinId .">
<polygon fill="white" stroke="#666666" points="565,-30 402,-30 402,0 565,0 565,-30"/>
<text text-anchor="start" x="410" y="-18" font-family="Helvetica,sans-Serif" font-size="10.00">Guildmaster.Presentation.</text>
<text text-anchor="middle" x="483.5" y="-7" font-family="Helvetica,sans-Serif" font-size="10.00">Arena.ArenaSkinSwapper.Play</text>
</a>
</g>
</g>
<!-- Node7&#45;&gt;Node8 -->
<g id="edge7_Node000007_Node000008" class="edge">
<title>Node7&#45;&gt;Node8</title>
<g id="a_edge7_Node000007_Node000008"><a xlink:title=" ">
<path fill="none" stroke="#63b8ff" d="M346.1,-15C360.83,-15 376.39,-15 391.52,-15"/>
<polygon fill="#63b8ff" stroke="#63b8ff" points="391.91,-18.5 401.91,-15 391.91,-11.5 391.91,-18.5"/>
</a>
</g>
</g>
</g>
</svg>
