<?xml version="1.0" encoding="UTF-8" standalone="no"?>
<!DOCTYPE svg PUBLIC "-//W3C//DTD SVG 1.1//EN"
 "http://www.w3.org/Graphics/SVG/1.1/DTD/svg11.dtd">
<!-- Generated by graphviz version 2.43.0 (0)
 -->
<!-- Title: Guildmaster.Combat.AutoAttackSystem.Tick Pages: 1 -->
<svg width="383pt" height="124pt"
 viewBox="0.00 0.00 383.00 124.00" xmlns="http://www.w3.org/2000/svg" xmlns:xlink="http://www.w3.org/1999/xlink">
<g id="graph0" class="graph" transform="scale(1 1) rotate(0) translate(4 120)">
<title>Guildmaster.Combat.AutoAttackSystem.Tick</title>
<!-- Node1 -->
<g id="Node000001" class="node">
<title>Node1</title>
<g id="a_Node000001"><a xlink:title="Обработать автоатаки всех живых юнитов за один тик.">
<polygon fill="#999999" stroke="#666666" points="174,-73 0,-73 0,-43 174,-43 174,-73"/>
<text text-anchor="start" x="8" y="-61" font-family="Helvetica,sans-Serif" font-size="10.00">Guildmaster.Combat.AutoAttack</text>
<text text-anchor="middle" x="87" y="-50" font-family="Helvetica,sans-Serif" font-size="10.00">System.Tick</text>
</a>
</g>
</g>
<!-- Node2 -->
<g id="Node000002" class="node">
<title>Node2</title>
<g id="a_Node000002"><a xlink:href="interfaceGuildmaster_1_1Combat_1_1ICombatContext.html#a5468cdcedd25be5819c524aa2be5e812" target="_top" xlink:title="Применить урон через полный пайплайн.">
<polygon fill="white" stroke="#666666" points="373,-116 212,-116 212,-86 373,-86 373,-116"/>
<text text-anchor="start" x="220" y="-104" font-family="Helvetica,sans-Serif" font-size="10.00">Guildmaster.Combat.ICombat</text>
<text text-anchor="middle" x="292.5" y="-93" font-family="Helvetica,sans-Serif" font-size="10.00">Context.DealDamage</text>
</a>
</g>
</g>
<!-- Node1&#45;&gt;Node2 -->
<g id="edge1_Node000001_Node000002" class="edge">
<title>Node1&#45;&gt;Node2</title>
<g id="a_edge1_Node000001_Node000002"><a xlink:title=" ">
<path fill="none" stroke="#63b8ff" d="M159.17,-73.04C175.75,-76.54 193.52,-80.3 210.48,-83.88"/>
<polygon fill="#63b8ff" stroke="#63b8ff" points="209.86,-87.33 220.37,-85.97 211.31,-80.48 209.86,-87.33"/>
</a>
</g>
</g>
<!-- Node3 -->
<g id="Node000003" class="node">
<title>Node3</title>
<g id="a_Node000003"><a xlink:href="classGuildmaster_1_1Combat_1_1Stats.html#ad51b23676359ca7d60f6ed64f84f560a" target="_top" xlink:title="Итоговое значение стата после всех модификаторов и клампов.">
<polygon fill="white" stroke="#666666" points="375,-67.5 210,-67.5 210,-48.5 375,-48.5 375,-67.5"/>
<text text-anchor="middle" x="292.5" y="-55.5" font-family="Helvetica,sans-Serif" font-size="10.00">Guildmaster.Combat.Stats.Get</text>
</a>
</g>
</g>
<!-- Node1&#45;&gt;Node3 -->
<g id="edge2_Node000001_Node000003" class="edge">
<title>Node1&#45;&gt;Node3</title>
<g id="a_edge2_Node000001_Node000003"><a xlink:title=" ">
<path fill="none" stroke="#63b8ff" d="M174.01,-58C182.41,-58 190.97,-58 199.43,-58"/>
<polygon fill="#63b8ff" stroke="#63b8ff" points="199.69,-61.5 209.69,-58 199.69,-54.5 199.69,-61.5"/>
</a>
</g>
</g>
<!-- Node4 -->
<g id="Node000004" class="node">
<title>Node4</title>
<g id="a_Node000004"><a xlink:href="interfaceGuildmaster_1_1Combat_1_1ICombatContext.html#af77b3fed804337cb57884a18b5bff033" target="_top" xlink:title="Создать снаряд в симуляции.">
<polygon fill="white" stroke="#666666" points="373,-30 212,-30 212,0 373,0 373,-30"/>
<text text-anchor="start" x="220" y="-18" font-family="Helvetica,sans-Serif" font-size="10.00">Guildmaster.Combat.ICombat</text>
<text text-anchor="middle" x="292.5" y="-7" font-family="Helvetica,sans-Serif" font-size="10.00">Context.SpawnProjectile</text>
</a>
</g>
</g>
<!-- Node1&#45;&gt;Node4 -->
<g id="edge3_Node000001_Node000004" class="edge">
<title>Node1&#45;&gt;Node4</title>
<g id="a_edge3_Node000001_Node000004"><a xlink:title=" ">
<path fill="none" stroke="#63b8ff" d="M159.17,-42.96C175.75,-39.46 193.52,-35.7 210.48,-32.12"/>
<polygon fill="#63b8ff" stroke="#63b8ff" points="211.31,-35.52 220.37,-30.03 209.86,-28.67 211.31,-35.52"/>
</a>
</g>
</g>
</g>
</svg>
