<?xml version="1.0" encoding="UTF-8" standalone="no"?>
<!DOCTYPE svg PUBLIC "-//W3C//DTD SVG 1.1//EN"
 "http://www.w3.org/Graphics/SVG/1.1/DTD/svg11.dtd">
<!-- Generated by graphviz version 2.43.0 (0)
 -->
<!-- Title: Guildmaster.Combat.AbilitySystem.Tick Pages: 1 -->
<svg width="549pt" height="76pt"
 viewBox="0.00 0.00 549.00 75.50" xmlns="http://www.w3.org/2000/svg" xmlns:xlink="http://www.w3.org/1999/xlink">
<g id="graph0" class="graph" transform="scale(1 1) rotate(0) translate(4 71.5)">
<title>Guildmaster.Combat.AbilitySystem.Tick</title>
<!-- Node1 -->
<g id="Node000001" class="node">
<title>Node1</title>
<g id="a_Node000001"><a xlink:title=" ">
<polygon fill="#999999" stroke="#666666" points="152,-45.5 0,-45.5 0,-15.5 152,-15.5 152,-45.5"/>
<text text-anchor="start" x="8" y="-33.5" font-family="Helvetica,sans-Serif" font-size="10.00">Guildmaster.Combat.Ability</text>
<text text-anchor="middle" x="76" y="-22.5" font-family="Helvetica,sans-Serif" font-size="10.00">System.Tick</text>
</a>
</g>
</g>
<!-- Node2 -->
<g id="Node000002" class="node">
<title>Node2</title>
<g id="a_Node000002"><a xlink:href="classGuildmaster_1_1Combat_1_1AbilitySystem.html#a0cedfa4ba0cd96a1b321dbbde5983bc8" target="_top" xlink:title="Попытаться скастовать способность abilityIndex .">
<polygon fill="white" stroke="#666666" points="340,-45.5 188,-45.5 188,-15.5 340,-15.5 340,-45.5"/>
<text text-anchor="start" x="196" y="-33.5" font-family="Helvetica,sans-Serif" font-size="10.00">Guildmaster.Combat.Ability</text>
<text text-anchor="middle" x="264" y="-22.5" font-family="Helvetica,sans-Serif" font-size="10.00">System.TryCast</text>
</a>
</g>
</g>
<!-- Node1&#45;&gt;Node2 -->
<g id="edge1_Node000001_Node000002" class="edge">
<title>Node1&#45;&gt;Node2</title>
<g id="a_edge1_Node000001_Node000002"><a xlink:title=" ">
<path fill="none" stroke="#63b8ff" d="M152.12,-30.5C160.6,-30.5 169.28,-30.5 177.87,-30.5"/>
<polygon fill="#63b8ff" stroke="#63b8ff" points="177.9,-34 187.9,-30.5 177.9,-27 177.9,-34"/>
</a>
</g>
</g>
<!-- Node3 -->
<g id="Node000003" class="node">
<title>Node3</title>
<g id="a_Node000003"><a xlink:href="interfaceGuildmaster_1_1Combat_1_1ICombatContext.html#a1c83a24b7d6d26085832b1e970cecf83" target="_top" xlink:title="Применить эффект к цели. Тело — Фаза 2; в Фазе 1 — стаб (no&#45;op).">
<polygon fill="white" stroke="#666666" points="539,-67.5 378,-67.5 378,-37.5 539,-37.5 539,-67.5"/>
<text text-anchor="start" x="386" y="-55.5" font-family="Helvetica,sans-Serif" font-size="10.00">Guildmaster.Combat.ICombat</text>
<text text-anchor="middle" x="458.5" y="-44.5" font-family="Helvetica,sans-Serif" font-size="10.00">Context.ApplyEffect</text>
</a>
</g>
</g>
<!-- Node2&#45;&gt;Node3 -->
<g id="edge2_Node000002_Node000003" class="edge">
<title>Node2&#45;&gt;Node3</title>
<g id="a_edge2_Node000002_Node000003"><a xlink:title=" ">
<path fill="none" stroke="#63b8ff" d="M340.25,-39.1C349.31,-40.14 358.63,-41.2 367.87,-42.26"/>
<polygon fill="#63b8ff" stroke="#63b8ff" points="367.52,-45.74 377.85,-43.4 368.31,-38.78 367.52,-45.74"/>
</a>
</g>
</g>
<!-- Node4 -->
<g id="Node000004" class="node">
<title>Node4</title>
<g id="a_Node000004"><a xlink:href="classGuildmaster_1_1Combat_1_1Stats.html#ad51b23676359ca7d60f6ed64f84f560a" target="_top" xlink:title="Итоговое значение стата после всех модификаторов и клампов.">
<polygon fill="white" stroke="#666666" points="541,-19 376,-19 376,0 541,0 541,-19"/>
<text text-anchor="middle" x="458.5" y="-7" font-family="Helvetica,sans-Serif" font-size="10.00">Guildmaster.Combat.Stats.Get</text>
</a>
</g>
</g>
<!-- Node2&#45;&gt;Node4 -->
<g id="edge3_Node000002_Node000004" class="edge">
<title>Node2&#45;&gt;Node4</title>
<g id="a_edge3_Node000002_Node000004"><a xlink:title=" ">
<path fill="none" stroke="#63b8ff" d="M340.25,-22.29C348.67,-21.37 357.3,-20.43 365.89,-19.49"/>
<polygon fill="#63b8ff" stroke="#63b8ff" points="366.37,-22.96 375.94,-18.4 365.61,-16 366.37,-22.96"/>
</a>
</g>
</g>
</g>
</svg>
