<?xml version="1.0" encoding="UTF-8" standalone="no"?>
<!DOCTYPE svg PUBLIC "-//W3C//DTD SVG 1.1//EN"
 "http://www.w3.org/Graphics/SVG/1.1/DTD/svg11.dtd">
<!-- Generated by graphviz version 2.43.0 (0)
 -->
<!-- Title: Guildmaster.Combat.Effects.Components.ShieldComponent Pages: 1 -->
<svg width="260pt" height="268pt"
 viewBox="0.00 0.00 259.50 268.00" xmlns="http://www.w3.org/2000/svg" xmlns:xlink="http://www.w3.org/1999/xlink">
<g id="graph0" class="graph" transform="scale(1 1) rotate(0) translate(4 264)">
<title>Guildmaster.Combat.Effects.Components.ShieldComponent</title>
<!-- Node1 -->
<g id="Node000001" class="node">
<title>Node1</title>
<g id="a_Node000001"><a xlink:title="Поглощающий щит.">
<polygon fill="#999999" stroke="transparent" points="217,-75 56,-75 56,0 217,0 217,-75"/>
<text text-anchor="start" x="61.5" y="-62.5" font-family="Helvetica,sans-Serif" font-size="10.00">Guildmaster.Combat.Effects.</text>
<text text-anchor="start" x="61.5" y="-51.5" font-family="Helvetica,sans-Serif" font-size="10.00">Components.ShieldComponent</text>
<text text-anchor="start" x="82.5" y="-36.5" font-family="Helvetica,sans-Serif" font-size="10.00">+</text>
<text text-anchor="start" x="117.5" y="-36.5" font-family="Helvetica,sans-Serif" font-size="10.00">Potency</text>
<text text-anchor="start" x="82.5" y="-21.5" font-family="Helvetica,sans-Serif" font-size="10.00">+</text>
<text text-anchor="start" x="117.5" y="-21.5" font-family="Helvetica,sans-Serif" font-size="10.00">OnApply()</text>
<text text-anchor="start" x="82.5" y="-6.5" font-family="Helvetica,sans-Serif" font-size="10.00">+</text>
<text text-anchor="start" x="117.5" y="-6.5" font-family="Helvetica,sans-Serif" font-size="10.00">OnExpire()</text>
<polygon fill="#666666" stroke="#666666" points="56.5,-46.5 56.5,-46.5 217.5,-46.5 217.5,-46.5 56.5,-46.5"/>
<polygon fill="#666666" stroke="#666666" points="56.5,-31.5 56.5,-31.5 115.5,-31.5 115.5,-31.5 56.5,-31.5"/>
<polygon fill="#666666" stroke="#666666" points="115.5,-31.5 115.5,-31.5 217.5,-31.5 217.5,-31.5 115.5,-31.5"/>
<polygon fill="none" stroke="#666666" points="56,0 56,-75 217,-75 217,0 56,0"/>
</a>
</g>
</g>
<!-- Node2 -->
<g id="Node000002" class="node">
<title>Node2</title>
<g id="a_Node000002"><a xlink:href="interfaceGuildmaster_1_1Combat_1_1Effects_1_1IRuntimeEffectComponent.html" target="_top" xlink:title="Рантайм&#45;контракт поведения эффекта.">
<polygon fill="white" stroke="transparent" points="139,-175 0,-175 0,-111 139,-111 139,-175"/>
<text text-anchor="start" x="5.5" y="-163" font-family="Helvetica,sans-Serif" font-size="10.00">IRuntimeEffectComponent</text>
<text text-anchor="start" x="68" y="-148" font-family="Helvetica,sans-Serif" font-size="10.00"> </text>
<text text-anchor="start" x="21" y="-133" font-family="Helvetica,sans-Serif" font-size="10.00">+</text>
<text text-anchor="start" x="50.5" y="-133" font-family="Helvetica,sans-Serif" font-size="10.00">OnApply()</text>
<text text-anchor="start" x="21" y="-118" font-family="Helvetica,sans-Serif" font-size="10.00">+</text>
<text text-anchor="start" x="50.5" y="-118" font-family="Helvetica,sans-Serif" font-size="10.00">OnExpire()</text>
<polygon fill="#666666" stroke="#666666" points="0.5,-158 0.5,-158 139.5,-158 139.5,-158 0.5,-158"/>
<polygon fill="#666666" stroke="#666666" points="0.5,-143 0.5,-143 139.5,-143 139.5,-143 0.5,-143"/>
<polygon fill="none" stroke="#666666" points="0,-111 0,-175 139,-175 139,-111 0,-111"/>
</a>
</g>
</g>
<!-- Node2&#45;&gt;Node1 -->
<g id="edge1_Node000001_Node000002" class="edge">
<title>Node2&#45;&gt;Node1</title>
<g id="a_edge1_Node000001_Node000002"><a xlink:title=" ">
<path fill="none" stroke="#63b8ff" d="M95.2,-102.3C100.93,-93.45 106.98,-84.1 112.63,-75.37"/>
<polygon fill="none" stroke="#63b8ff" points="92.1,-100.65 89.6,-110.95 97.97,-104.45 92.1,-100.65"/>
</a>
</g>
</g>
<!-- Node3 -->
<g id="Node000003" class="node">
<title>Node3</title>
<g id="a_Node000003"><a xlink:href="interfaceGuildmaster_1_1Data_1_1Definitions_1_1IEffectComponent.html" target="_top" xlink:title="Якорь полиморфного поведения эффекта для сериализации.">
<polygon fill="white" stroke="transparent" points="118.5,-260 20.5,-260 20.5,-211 118.5,-211 118.5,-260"/>
<text text-anchor="start" x="25.5" y="-247.5" font-family="Helvetica,sans-Serif" font-size="10.00">IEffectComponent</text>
<text text-anchor="start" x="67.5" y="-232.5" font-family="Helvetica,sans-Serif" font-size="10.00"> </text>
<text text-anchor="start" x="67.5" y="-217.5" font-family="Helvetica,sans-Serif" font-size="10.00"> </text>
<polygon fill="#666666" stroke="#666666" points="20.5,-242.5 20.5,-242.5 118.5,-242.5 118.5,-242.5 20.5,-242.5"/>
<polygon fill="#666666" stroke="#666666" points="20.5,-227.5 20.5,-227.5 118.5,-227.5 118.5,-227.5 20.5,-227.5"/>
<polygon fill="none" stroke="#666666" points="20.5,-211 20.5,-260 118.5,-260 118.5,-211 20.5,-211"/>
</a>
</g>
</g>
<!-- Node3&#45;&gt;Node2 -->
<g id="edge2_Node000002_Node000003" class="edge">
<title>Node3&#45;&gt;Node2</title>
<g id="a_edge2_Node000002_Node000003"><a xlink:title=" ">
<path fill="none" stroke="#63b8ff" d="M69.5,-200.54C69.5,-192.2 69.5,-183.31 69.5,-175.11"/>
<polygon fill="none" stroke="#63b8ff" points="66,-200.72 69.5,-210.72 73,-200.72 66,-200.72"/>
</a>
</g>
</g>
<!-- Node4 -->
<g id="Node000004" class="node">
<title>Node4</title>
<g id="a_Node000004"><a xlink:href="interfaceGuildmaster_1_1Combat_1_1Effects_1_1IScalablePotency.html" target="_top" xlink:title="Опциональный шов: компонент объявляет масштабируемую потенцию.">
<polygon fill="white" stroke="transparent" points="251.5,-167.5 157.5,-167.5 157.5,-118.5 251.5,-118.5 251.5,-167.5"/>
<text text-anchor="start" x="162.5" y="-155" font-family="Helvetica,sans-Serif" font-size="10.00">IScalablePotency</text>
<text text-anchor="start" x="169.5" y="-140" font-family="Helvetica,sans-Serif" font-size="10.00">+</text>
<text text-anchor="start" x="190.5" y="-140" font-family="Helvetica,sans-Serif" font-size="10.00">Potency</text>
<text text-anchor="start" x="202.5" y="-125" font-family="Helvetica,sans-Serif" font-size="10.00"> </text>
<polygon fill="#666666" stroke="#666666" points="157.5,-150 157.5,-150 251.5,-150 251.5,-150 157.5,-150"/>
<polygon fill="#666666" stroke="#666666" points="157.5,-135 157.5,-135 188.5,-135 188.5,-135 157.5,-135"/>
<polygon fill="#666666" stroke="#666666" points="188.5,-135 188.5,-135 251.5,-135 251.5,-135 188.5,-135"/>
<polygon fill="none" stroke="#666666" points="157.5,-118.5 157.5,-167.5 251.5,-167.5 251.5,-118.5 157.5,-118.5"/>
</a>
</g>
</g>
<!-- Node4&#45;&gt;Node1 -->
<g id="edge3_Node000001_Node000004" class="edge">
<title>Node4&#45;&gt;Node1</title>
<g id="a_edge3_Node000001_Node000004"><a xlink:title=" ">
<path fill="none" stroke="#63b8ff" d="M183.33,-109.78C176.12,-98.8 167.99,-86.43 160.56,-75.12"/>
<polygon fill="none" stroke="#63b8ff" points="180.48,-111.82 188.9,-118.26 186.33,-107.98 180.48,-111.82"/>
</a>
</g>
</g>
</g>
</svg>
