<?xml version="1.0" encoding="UTF-8" standalone="no"?>
<!DOCTYPE svg PUBLIC "-//W3C//DTD SVG 1.1//EN"
 "http://www.w3.org/Graphics/SVG/1.1/DTD/svg11.dtd">
<!-- Generated by graphviz version 2.43.0 (0)
 -->
<!-- Title: Guildmaster.Combat.Effects.Components.PeriodicDamageComponent Pages: 1 -->
<svg width="245pt" height="383pt"
 viewBox="0.00 0.00 244.50 383.00" xmlns="http://www.w3.org/2000/svg" xmlns:xlink="http://www.w3.org/1999/xlink">
<g id="graph0" class="graph" transform="scale(1 1) rotate(0) translate(4 379)">
<title>Guildmaster.Combat.Effects.Components.PeriodicDamageComponent</title>
<!-- Node1 -->
<g id="Node000001" class="node">
<title>Node1</title>
<g id="a_Node000001"><a xlink:title="Периодический урон (DoT).">
<polygon fill="#999999" stroke="transparent" points="235.5,-105 23.5,-105 23.5,0 235.5,0 235.5,-105"/>
<text text-anchor="start" x="28.5" y="-92.5" font-family="Helvetica,sans-Serif" font-size="10.00">Guildmaster.Combat.Effects.</text>
<text text-anchor="start" x="28.5" y="-81.5" font-family="Helvetica,sans-Serif" font-size="10.00">Components.PeriodicDamageComponent</text>
<text text-anchor="start" x="62" y="-66.5" font-family="Helvetica,sans-Serif" font-size="10.00">+</text>
<text text-anchor="start" x="109.5" y="-66.5" font-family="Helvetica,sans-Serif" font-size="10.00">Interval</text>
<text text-anchor="start" x="62" y="-51.5" font-family="Helvetica,sans-Serif" font-size="10.00">+</text>
<text text-anchor="start" x="109.5" y="-51.5" font-family="Helvetica,sans-Serif" font-size="10.00">Potency</text>
<text text-anchor="start" x="62" y="-36.5" font-family="Helvetica,sans-Serif" font-size="10.00">+</text>
<text text-anchor="start" x="109.5" y="-36.5" font-family="Helvetica,sans-Serif" font-size="10.00">OnApply()</text>
<text text-anchor="start" x="62" y="-21.5" font-family="Helvetica,sans-Serif" font-size="10.00">+</text>
<text text-anchor="start" x="109.5" y="-21.5" font-family="Helvetica,sans-Serif" font-size="10.00">OnExpire()</text>
<text text-anchor="start" x="62" y="-6.5" font-family="Helvetica,sans-Serif" font-size="10.00">+</text>
<text text-anchor="start" x="109.5" y="-6.5" font-family="Helvetica,sans-Serif" font-size="10.00">OnTick()</text>
<polygon fill="#666666" stroke="#666666" points="23.5,-76.5 23.5,-76.5 235.5,-76.5 235.5,-76.5 23.5,-76.5"/>
<polygon fill="#666666" stroke="#666666" points="23.5,-46.5 23.5,-46.5 107.5,-46.5 107.5,-46.5 23.5,-46.5"/>
<polygon fill="#666666" stroke="#666666" points="107.5,-46.5 107.5,-46.5 235.5,-46.5 235.5,-46.5 107.5,-46.5"/>
<polygon fill="none" stroke="#666666" points="23.5,0 23.5,-105 235.5,-105 235.5,0 23.5,0"/>
</a>
</g>
</g>
<!-- Node2 -->
<g id="Node000002" class="node">
<title>Node2</title>
<g id="a_Node000002"><a xlink:href="interfaceGuildmaster_1_1Combat_1_1Effects_1_1IPeriodicComponent.html" target="_top" xlink:title="Периодический компонент: OnTick каждые Interval секунд (DoT/HoT/реген).">
<polygon fill="white" stroke="transparent" points="124,-190 15,-190 15,-141 124,-141 124,-190"/>
<text text-anchor="start" x="20.5" y="-177.5" font-family="Helvetica,sans-Serif" font-size="10.00">IPeriodicComponent</text>
<text text-anchor="start" x="31" y="-162.5" font-family="Helvetica,sans-Serif" font-size="10.00">+</text>
<text text-anchor="start" x="55.5" y="-162.5" font-family="Helvetica,sans-Serif" font-size="10.00">Interval</text>
<text text-anchor="start" x="31" y="-147.5" font-family="Helvetica,sans-Serif" font-size="10.00">+</text>
<text text-anchor="start" x="55.5" y="-147.5" font-family="Helvetica,sans-Serif" font-size="10.00">OnTick()</text>
<polygon fill="#666666" stroke="#666666" points="15.5,-172.5 15.5,-172.5 124.5,-172.5 124.5,-172.5 15.5,-172.5"/>
<polygon fill="#666666" stroke="#666666" points="15.5,-157.5 15.5,-157.5 53.5,-157.5 53.5,-157.5 15.5,-157.5"/>
<polygon fill="#666666" stroke="#666666" points="53.5,-157.5 53.5,-157.5 124.5,-157.5 124.5,-157.5 53.5,-157.5"/>
<polygon fill="none" stroke="#666666" points="15,-141 15,-190 124,-190 124,-141 15,-141"/>
</a>
</g>
</g>
<!-- Node2&#45;&gt;Node1 -->
<g id="edge1_Node000001_Node000002" class="edge">
<title>Node2&#45;&gt;Node1</title>
<g id="a_edge1_Node000001_Node000002"><a xlink:title=" ">
<path fill="none" stroke="#63b8ff" d="M87.1,-131.94C91.62,-123.58 96.59,-114.39 101.49,-105.32"/>
<polygon fill="none" stroke="#63b8ff" points="83.9,-130.5 82.22,-140.96 90.06,-133.83 83.9,-130.5"/>
</a>
</g>
</g>
<!-- Node3 -->
<g id="Node000003" class="node">
<title>Node3</title>
<g id="a_Node000003"><a xlink:href="interfaceGuildmaster_1_1Combat_1_1Effects_1_1IRuntimeEffectComponent.html" target="_top" xlink:title="Рантайм&#45;контракт поведения эффекта.">
<polygon fill="white" stroke="transparent" points="139,-290 0,-290 0,-226 139,-226 139,-290"/>
<text text-anchor="start" x="5.5" y="-278" font-family="Helvetica,sans-Serif" font-size="10.00">IRuntimeEffectComponent</text>
<text text-anchor="start" x="68" y="-263" font-family="Helvetica,sans-Serif" font-size="10.00"> </text>
<text text-anchor="start" x="21" y="-248" font-family="Helvetica,sans-Serif" font-size="10.00">+</text>
<text text-anchor="start" x="50.5" y="-248" font-family="Helvetica,sans-Serif" font-size="10.00">OnApply()</text>
<text text-anchor="start" x="21" y="-233" font-family="Helvetica,sans-Serif" font-size="10.00">+</text>
<text text-anchor="start" x="50.5" y="-233" font-family="Helvetica,sans-Serif" font-size="10.00">OnExpire()</text>
<polygon fill="#666666" stroke="#666666" points="0.5,-273 0.5,-273 139.5,-273 139.5,-273 0.5,-273"/>
<polygon fill="#666666" stroke="#666666" points="0.5,-258 0.5,-258 139.5,-258 139.5,-258 0.5,-258"/>
<polygon fill="none" stroke="#666666" points="0,-226 0,-290 139,-290 139,-226 0,-226"/>
</a>
</g>
</g>
<!-- Node3&#45;&gt;Node2 -->
<g id="edge2_Node000002_Node000003" class="edge">
<title>Node3&#45;&gt;Node2</title>
<g id="a_edge2_Node000002_Node000003"><a xlink:title=" ">
<path fill="none" stroke="#63b8ff" d="M69.5,-215.77C69.5,-207.03 69.5,-198.09 69.5,-190.27"/>
<polygon fill="none" stroke="#63b8ff" points="66,-215.85 69.5,-225.86 73,-215.86 66,-215.85"/>
</a>
</g>
</g>
<!-- Node4 -->
<g id="Node000004" class="node">
<title>Node4</title>
<g id="a_Node000004"><a xlink:href="interfaceGuildmaster_1_1Data_1_1Definitions_1_1IEffectComponent.html" target="_top" xlink:title="Якорь полиморфного поведения эффекта для сериализации.">
<polygon fill="white" stroke="transparent" points="118.5,-375 20.5,-375 20.5,-326 118.5,-326 118.5,-375"/>
<text text-anchor="start" x="25.5" y="-362.5" font-family="Helvetica,sans-Serif" font-size="10.00">IEffectComponent</text>
<text text-anchor="start" x="67.5" y="-347.5" font-family="Helvetica,sans-Serif" font-size="10.00"> </text>
<text text-anchor="start" x="67.5" y="-332.5" font-family="Helvetica,sans-Serif" font-size="10.00"> </text>
<polygon fill="#666666" stroke="#666666" points="20.5,-357.5 20.5,-357.5 118.5,-357.5 118.5,-357.5 20.5,-357.5"/>
<polygon fill="#666666" stroke="#666666" points="20.5,-342.5 20.5,-342.5 118.5,-342.5 118.5,-342.5 20.5,-342.5"/>
<polygon fill="none" stroke="#666666" points="20.5,-326 20.5,-375 118.5,-375 118.5,-326 20.5,-326"/>
</a>
</g>
</g>
<!-- Node4&#45;&gt;Node3 -->
<g id="edge3_Node000003_Node000004" class="edge">
<title>Node4&#45;&gt;Node3</title>
<g id="a_edge3_Node000003_Node000004"><a xlink:title=" ">
<path fill="none" stroke="#63b8ff" d="M69.5,-315.54C69.5,-307.2 69.5,-298.31 69.5,-290.11"/>
<polygon fill="none" stroke="#63b8ff" points="66,-315.72 69.5,-325.72 73,-315.72 66,-315.72"/>
</a>
</g>
</g>
<!-- Node5 -->
<g id="Node000005" class="node">
<title>Node5</title>
<g id="a_Node000005"><a xlink:href="interfaceGuildmaster_1_1Combat_1_1Effects_1_1IScalablePotency.html" target="_top" xlink:title="Опциональный шов: компонент объявляет масштабируемую потенцию.">
<polygon fill="white" stroke="transparent" points="236.5,-190 142.5,-190 142.5,-141 236.5,-141 236.5,-190"/>
<text text-anchor="start" x="147.5" y="-177.5" font-family="Helvetica,sans-Serif" font-size="10.00">IScalablePotency</text>
<text text-anchor="start" x="154.5" y="-162.5" font-family="Helvetica,sans-Serif" font-size="10.00">+</text>
<text text-anchor="start" x="175.5" y="-162.5" font-family="Helvetica,sans-Serif" font-size="10.00">Potency</text>
<text text-anchor="start" x="187.5" y="-147.5" font-family="Helvetica,sans-Serif" font-size="10.00"> </text>
<polygon fill="#666666" stroke="#666666" points="142.5,-172.5 142.5,-172.5 236.5,-172.5 236.5,-172.5 142.5,-172.5"/>
<polygon fill="#666666" stroke="#666666" points="142.5,-157.5 142.5,-157.5 173.5,-157.5 173.5,-157.5 142.5,-157.5"/>
<polygon fill="#666666" stroke="#666666" points="173.5,-157.5 173.5,-157.5 236.5,-157.5 236.5,-157.5 173.5,-157.5"/>
<polygon fill="none" stroke="#666666" points="142.5,-141 142.5,-190 236.5,-190 236.5,-141 142.5,-141"/>
</a>
</g>
</g>
<!-- Node5&#45;&gt;Node1 -->
<g id="edge4_Node000001_Node000005" class="edge">
<title>Node5&#45;&gt;Node1</title>
<g id="a_edge4_Node000001_Node000005"><a xlink:title=" ">
<path fill="none" stroke="#63b8ff" d="M171.9,-131.94C167.38,-123.58 162.41,-114.39 157.51,-105.32"/>
<polygon fill="none" stroke="#63b8ff" points="168.94,-133.83 176.78,-140.96 175.1,-130.5 168.94,-133.83"/>
</a>
</g>
</g>
</g>
</svg>
