<?xml version="1.0" encoding="UTF-8" standalone="no"?>
<!DOCTYPE svg PUBLIC "-//W3C//DTD SVG 1.1//EN"
 "http://www.w3.org/Graphics/SVG/1.1/DTD/svg11.dtd">
<!-- Generated by graphviz version 2.43.0 (0)
 -->
<!-- Title: Guildmaster.Presentation.UnitView.Bind Pages: 1 -->
<svg width="531pt" height="76pt"
 viewBox="0.00 0.00 531.00 75.50" xmlns="http://www.w3.org/2000/svg" xmlns:xlink="http://www.w3.org/1999/xlink">
<g id="graph0" class="graph" transform="scale(1 1) rotate(0) translate(4 71.5)">
<title>Guildmaster.Presentation.UnitView.Bind</title>
<!-- Node1 -->
<g id="Node000001" class="node">
<title>Node1</title>
<g id="a_Node000001"><a xlink:title="Связать вид с рантайм&#45;юнитом.">
<polygon fill="#999999" stroke="#666666" points="143,-51 0,-51 0,-21 143,-21 143,-51"/>
<text text-anchor="start" x="8" y="-39" font-family="Helvetica,sans-Serif" font-size="10.00">Guildmaster.Presentation.</text>
<text text-anchor="middle" x="71.5" y="-28" font-family="Helvetica,sans-Serif" font-size="10.00">UnitView.Bind</text>
</a>
</g>
</g>
<!-- Node2 -->
<g id="Node000002" class="node">
<title>Node2</title>
<g id="a_Node000002"><a xlink:href="classGuildmaster_1_1Presentation_1_1HealthBarView.html#addca237a220d26640e8bef0b174d1134" target="_top" xlink:title="Привязать к юниту для первоначальной отрисовки.">
<polygon fill="white" stroke="#666666" points="322,-51 179,-51 179,-21 322,-21 322,-51"/>
<text text-anchor="start" x="187" y="-39" font-family="Helvetica,sans-Serif" font-size="10.00">Guildmaster.Presentation.</text>
<text text-anchor="middle" x="250.5" y="-28" font-family="Helvetica,sans-Serif" font-size="10.00">HealthBarView.Bind</text>
</a>
</g>
</g>
<!-- Node1&#45;&gt;Node2 -->
<g id="edge1_Node000001_Node000002" class="edge">
<title>Node1&#45;&gt;Node2</title>
<g id="a_edge1_Node000001_Node000002"><a xlink:title=" ">
<path fill="none" stroke="#63b8ff" d="M143.22,-36C151.57,-36 160.14,-36 168.62,-36"/>
<polygon fill="#63b8ff" stroke="#63b8ff" points="168.89,-39.5 178.89,-36 168.89,-32.5 168.89,-39.5"/>
</a>
</g>
</g>
<!-- Node3 -->
<g id="Node000003" class="node">
<title>Node3</title>
<g id="a_Node000003"><a xlink:href="classGuildmaster_1_1Combat_1_1Stats.html#ad51b23676359ca7d60f6ed64f84f560a" target="_top" xlink:title="Итоговое значение стата после всех модификаторов и клампов.">
<polygon fill="white" stroke="#666666" points="523,-67.5 358,-67.5 358,-48.5 523,-48.5 523,-67.5"/>
<text text-anchor="middle" x="440.5" y="-55.5" font-family="Helvetica,sans-Serif" font-size="10.00">Guildmaster.Combat.Stats.Get</text>
</a>
</g>
</g>
<!-- Node2&#45;&gt;Node3 -->
<g id="edge2_Node000002_Node000003" class="edge">
<title>Node2&#45;&gt;Node3</title>
<g id="a_edge2_Node000002_Node000003"><a xlink:title=" ">
<path fill="none" stroke="#63b8ff" d="M322.04,-44.25C330.5,-45.24 339.23,-46.27 347.94,-47.29"/>
<polygon fill="#63b8ff" stroke="#63b8ff" points="347.79,-50.79 358.13,-48.48 348.6,-43.84 347.79,-50.79"/>
</a>
</g>
</g>
<!-- Node4 -->
<g id="Node000004" class="node">
<title>Node4</title>
<g id="a_Node000004"><a xlink:href="classGuildmaster_1_1Presentation_1_1HealthBarView.html#ae0f426c83b1ecfeb629eb62bf7cd7598" target="_top" xlink:title="Обновить отображаемую долю HP.">
<polygon fill="white" stroke="#666666" points="512,-30 369,-30 369,0 512,0 512,-30"/>
<text text-anchor="start" x="377" y="-18" font-family="Helvetica,sans-Serif" font-size="10.00">Guildmaster.Presentation.</text>
<text text-anchor="middle" x="440.5" y="-7" font-family="Helvetica,sans-Serif" font-size="10.00">HealthBarView.UpdateBar</text>
</a>
</g>
</g>
<!-- Node2&#45;&gt;Node4 -->
<g id="edge3_Node000002_Node000004" class="edge">
<title>Node2&#45;&gt;Node4</title>
<g id="a_edge3_Node000002_Node000004"><a xlink:title=" ">
<path fill="none" stroke="#63b8ff" d="M322.04,-28.12C334,-26.78 346.51,-25.39 358.72,-24.02"/>
<polygon fill="#63b8ff" stroke="#63b8ff" points="359.33,-27.48 368.88,-22.89 358.55,-20.52 359.33,-27.48"/>
</a>
</g>
</g>
</g>
</svg>
