<?xml version="1.0" encoding="UTF-8" standalone="no"?>
<!DOCTYPE svg PUBLIC "-//W3C//DTD SVG 1.1//EN"
 "http://www.w3.org/Graphics/SVG/1.1/DTD/svg11.dtd">
<!-- Generated by graphviz version 2.43.0 (0)
 -->
<!-- Title: Guildmaster.Combat.CombatSimulation Pages: 1 -->
<svg width="160pt" height="498pt"
 viewBox="0.00 0.00 160.00 498.00" xmlns="http://www.w3.org/2000/svg" xmlns:xlink="http://www.w3.org/1999/xlink">
<g id="graph0" class="graph" transform="scale(1 1) rotate(0) translate(4 494)">
<title>Guildmaster.Combat.CombatSimulation</title>
<!-- Node1 -->
<g id="Node000001" class="node">
<title>Node1</title>
<g id="a_Node000001"><a xlink:title="Детерминированная тиковая симуляция боя.">
<polygon fill="#999999" stroke="transparent" points="152,-300 0,-300 0,0 152,0 152,-300"/>
<text text-anchor="start" x="5" y="-288" font-family="Helvetica,sans-Serif" font-size="10.00">Guildmaster.Combat.Combat</text>
<text text-anchor="start" x="49.5" y="-277" font-family="Helvetica,sans-Serif" font-size="10.00">Simulation</text>
<text text-anchor="start" x="10.5" y="-262" font-family="Helvetica,sans-Serif" font-size="10.00">+</text>
<text text-anchor="start" x="30" y="-262" font-family="Helvetica,sans-Serif" font-size="10.00">Rng</text>
<text text-anchor="start" x="10.5" y="-247" font-family="Helvetica,sans-Serif" font-size="10.00">+</text>
<text text-anchor="start" x="30" y="-247" font-family="Helvetica,sans-Serif" font-size="10.00">CurrentTick</text>
<text text-anchor="start" x="10.5" y="-232" font-family="Helvetica,sans-Serif" font-size="10.00">+</text>
<text text-anchor="start" x="30" y="-232" font-family="Helvetica,sans-Serif" font-size="10.00">ArmorK</text>
<text text-anchor="start" x="10.5" y="-217" font-family="Helvetica,sans-Serif" font-size="10.00">+</text>
<text text-anchor="start" x="30" y="-217" font-family="Helvetica,sans-Serif" font-size="10.00">Units</text>
<text text-anchor="start" x="10.5" y="-202" font-family="Helvetica,sans-Serif" font-size="10.00">+</text>
<text text-anchor="start" x="30" y="-202" font-family="Helvetica,sans-Serif" font-size="10.00">Outcome</text>
<text text-anchor="start" x="10.5" y="-187" font-family="Helvetica,sans-Serif" font-size="10.00">+</text>
<text text-anchor="start" x="30" y="-187" font-family="Helvetica,sans-Serif" font-size="10.00">IsPaused</text>
<text text-anchor="start" x="10.5" y="-172" font-family="Helvetica,sans-Serif" font-size="10.00">+</text>
<text text-anchor="start" x="30" y="-172" font-family="Helvetica,sans-Serif" font-size="10.00">CombatSimulation()</text>
<text text-anchor="start" x="10.5" y="-157" font-family="Helvetica,sans-Serif" font-size="10.00">+</text>
<text text-anchor="start" x="30" y="-157" font-family="Helvetica,sans-Serif" font-size="10.00">Tick()</text>
<text text-anchor="start" x="10.5" y="-142" font-family="Helvetica,sans-Serif" font-size="10.00">+</text>
<text text-anchor="start" x="30" y="-142" font-family="Helvetica,sans-Serif" font-size="10.00">DealDamage()</text>
<text text-anchor="start" x="10.5" y="-127" font-family="Helvetica,sans-Serif" font-size="10.00">+</text>
<text text-anchor="start" x="30" y="-127" font-family="Helvetica,sans-Serif" font-size="10.00">Heal()</text>
<text text-anchor="start" x="10.5" y="-112" font-family="Helvetica,sans-Serif" font-size="10.00">+</text>
<text text-anchor="start" x="30" y="-112" font-family="Helvetica,sans-Serif" font-size="10.00">SpawnProjectile()</text>
<text text-anchor="start" x="10.5" y="-97" font-family="Helvetica,sans-Serif" font-size="10.00">+</text>
<text text-anchor="start" x="30" y="-97" font-family="Helvetica,sans-Serif" font-size="10.00">QueryUnitsInRadius()</text>
<text text-anchor="start" x="10.5" y="-82" font-family="Helvetica,sans-Serif" font-size="10.00">+</text>
<text text-anchor="start" x="30" y="-82" font-family="Helvetica,sans-Serif" font-size="10.00">ApplyEffect()</text>
<text text-anchor="start" x="10.5" y="-67" font-family="Helvetica,sans-Serif" font-size="10.00">+</text>
<text text-anchor="start" x="30" y="-67" font-family="Helvetica,sans-Serif" font-size="10.00">Dispel()</text>
<text text-anchor="start" x="10.5" y="-52" font-family="Helvetica,sans-Serif" font-size="10.00">+</text>
<text text-anchor="start" x="30" y="-52" font-family="Helvetica,sans-Serif" font-size="10.00">SetPaused()</text>
<text text-anchor="start" x="10.5" y="-37" font-family="Helvetica,sans-Serif" font-size="10.00">+</text>
<text text-anchor="start" x="30" y="-37" font-family="Helvetica,sans-Serif" font-size="10.00">EnqueueUnitSpawn()</text>
<text text-anchor="start" x="10.5" y="-22" font-family="Helvetica,sans-Serif" font-size="10.00">+</text>
<text text-anchor="start" x="30" y="-22" font-family="Helvetica,sans-Serif" font-size="10.00">EnqueueCommand()</text>
<text text-anchor="start" x="10.5" y="-7" font-family="Helvetica,sans-Serif" font-size="10.00">+</text>
<text text-anchor="start" x="30" y="-7" font-family="Helvetica,sans-Serif" font-size="10.00">ComputeChecksum()</text>
<polygon fill="#666666" stroke="#666666" points="0,-272 0,-272 152,-272 152,-272 0,-272"/>
<polygon fill="#666666" stroke="#666666" points="0,-182 0,-182 28,-182 28,-182 0,-182"/>
<polygon fill="#666666" stroke="#666666" points="28,-182 28,-182 152,-182 152,-182 28,-182"/>
<polygon fill="none" stroke="#666666" points="0,0 0,-300 152,-300 152,0 0,0"/>
</a>
</g>
</g>
<!-- Node2 -->
<g id="Node000002" class="node">
<title>Node2</title>
<g id="a_Node000002"><a xlink:href="interfaceGuildmaster_1_1Combat_1_1ICombatContext.html" target="_top" xlink:title="Шов «логика эффектов/способностей ↔ боевой мир».">
<polygon fill="white" stroke="transparent" points="139,-490 13,-490 13,-336 139,-336 139,-490"/>
<text text-anchor="start" x="36" y="-478" font-family="Helvetica,sans-Serif" font-size="10.00">ICombatContext</text>
<text text-anchor="start" x="17" y="-463" font-family="Helvetica,sans-Serif" font-size="10.00">+</text>
<text text-anchor="start" x="30" y="-463" font-family="Helvetica,sans-Serif" font-size="10.00">Rng</text>
<text text-anchor="start" x="17" y="-448" font-family="Helvetica,sans-Serif" font-size="10.00">+</text>
<text text-anchor="start" x="30" y="-448" font-family="Helvetica,sans-Serif" font-size="10.00">CurrentTick</text>
<text text-anchor="start" x="17" y="-433" font-family="Helvetica,sans-Serif" font-size="10.00">+</text>
<text text-anchor="start" x="30" y="-433" font-family="Helvetica,sans-Serif" font-size="10.00">ArmorK</text>
<text text-anchor="start" x="17" y="-418" font-family="Helvetica,sans-Serif" font-size="10.00">+</text>
<text text-anchor="start" x="30" y="-418" font-family="Helvetica,sans-Serif" font-size="10.00">DealDamage()</text>
<text text-anchor="start" x="17" y="-403" font-family="Helvetica,sans-Serif" font-size="10.00">+</text>
<text text-anchor="start" x="30" y="-403" font-family="Helvetica,sans-Serif" font-size="10.00">Heal()</text>
<text text-anchor="start" x="17" y="-388" font-family="Helvetica,sans-Serif" font-size="10.00">+</text>
<text text-anchor="start" x="30" y="-388" font-family="Helvetica,sans-Serif" font-size="10.00">SpawnProjectile()</text>
<text text-anchor="start" x="17" y="-373" font-family="Helvetica,sans-Serif" font-size="10.00">+</text>
<text text-anchor="start" x="30" y="-373" font-family="Helvetica,sans-Serif" font-size="10.00">QueryUnitsInRadius()</text>
<text text-anchor="start" x="17" y="-358" font-family="Helvetica,sans-Serif" font-size="10.00">+</text>
<text text-anchor="start" x="30" y="-358" font-family="Helvetica,sans-Serif" font-size="10.00">ApplyEffect()</text>
<text text-anchor="start" x="17" y="-343" font-family="Helvetica,sans-Serif" font-size="10.00">+</text>
<text text-anchor="start" x="30" y="-343" font-family="Helvetica,sans-Serif" font-size="10.00">Dispel()</text>
<polygon fill="#666666" stroke="#666666" points="13,-473 13,-473 139,-473 139,-473 13,-473"/>
<polygon fill="#666666" stroke="#666666" points="13,-428 13,-428 28,-428 28,-428 13,-428"/>
<polygon fill="#666666" stroke="#666666" points="28,-428 28,-428 139,-428 139,-428 28,-428"/>
<polygon fill="none" stroke="#666666" points="13,-336 13,-490 139,-490 139,-336 13,-336"/>
</a>
</g>
</g>
<!-- Node2&#45;&gt;Node1 -->
<g id="edge1_Node000001_Node000002" class="edge">
<title>Node2&#45;&gt;Node1</title>
<g id="a_edge1_Node000001_Node000002"><a xlink:title=" ">
<path fill="none" stroke="#63b8ff" d="M76,-325.59C76,-317.41 76,-308.96 76,-300.41"/>
<polygon fill="none" stroke="#63b8ff" points="72.5,-325.81 76,-335.81 79.5,-325.81 72.5,-325.81"/>
</a>
</g>
</g>
</g>
</svg>
