<?xml version="1.0" encoding="UTF-8" standalone="no"?>
<!DOCTYPE svg PUBLIC "-//W3C//DTD SVG 1.1//EN"
 "http://www.w3.org/Graphics/SVG/1.1/DTD/svg11.dtd">
<!-- Generated by graphviz version 2.43.0 (0)
 -->
<!-- Title: Guildmaster.Core.Random.XorShiftRng.Chance Pages: 1 -->
<svg width="524pt" height="38pt"
 viewBox="0.00 0.00 524.00 38.00" xmlns="http://www.w3.org/2000/svg" xmlns:xlink="http://www.w3.org/1999/xlink">
<g id="graph0" class="graph" transform="scale(1 1) rotate(0) translate(4 34)">
<title>Guildmaster.Core.Random.XorShiftRng.Chance</title>
<!-- Node1 -->
<g id="Node000001" class="node">
<title>Node1</title>
<g id="a_Node000001"><a xlink:title="Бросок с вероятностью probability &#160;(клампится в [0, 1]).">
<polygon fill="#999999" stroke="#666666" points="148,-30 0,-30 0,0 148,0 148,-30"/>
<text text-anchor="start" x="8" y="-18" font-family="Helvetica,sans-Serif" font-size="10.00">Guildmaster.Core.Random.</text>
<text text-anchor="middle" x="74" y="-7" font-family="Helvetica,sans-Serif" font-size="10.00">XorShiftRng.Chance</text>
</a>
</g>
</g>
<!-- Node2 -->
<g id="Node000002" class="node">
<title>Node2</title>
<g id="a_Node000002"><a xlink:href="classGuildmaster_1_1Core_1_1Random_1_1XorShiftRng.html#a49fe920d86ded5ba28dc7c0dca9233d0" target="_top" xlink:title="Случайный float в полуинтервале [0, 1).">
<polygon fill="white" stroke="#666666" points="332,-30 184,-30 184,0 332,0 332,-30"/>
<text text-anchor="start" x="192" y="-18" font-family="Helvetica,sans-Serif" font-size="10.00">Guildmaster.Core.Random.</text>
<text text-anchor="middle" x="258" y="-7" font-family="Helvetica,sans-Serif" font-size="10.00">XorShiftRng.NextFloat</text>
</a>
</g>
</g>
<!-- Node1&#45;&gt;Node2 -->
<g id="edge1_Node000001_Node000002" class="edge">
<title>Node1&#45;&gt;Node2</title>
<g id="a_edge1_Node000001_Node000002"><a xlink:title=" ">
<path fill="none" stroke="#63b8ff" d="M148.24,-15C156.6,-15 165.16,-15 173.64,-15"/>
<polygon fill="#63b8ff" stroke="#63b8ff" points="173.91,-18.5 183.91,-15 173.91,-11.5 173.91,-18.5"/>
</a>
</g>
</g>
<!-- Node3 -->
<g id="Node000003" class="node">
<title>Node3</title>
<g id="a_Node000003"><a xlink:href="classGuildmaster_1_1Core_1_1Random_1_1XorShiftRng.html#af1a74306ae2468c62d4016e1e0039267" target="_top" xlink:title="Следующее 32&#45;битное беззнаковое значение. Базовая операция генератора.">
<polygon fill="white" stroke="#666666" points="516,-30 368,-30 368,0 516,0 516,-30"/>
<text text-anchor="start" x="376" y="-18" font-family="Helvetica,sans-Serif" font-size="10.00">Guildmaster.Core.Random.</text>
<text text-anchor="middle" x="442" y="-7" font-family="Helvetica,sans-Serif" font-size="10.00">XorShiftRng.NextUInt</text>
</a>
</g>
</g>
<!-- Node2&#45;&gt;Node3 -->
<g id="edge2_Node000002_Node000003" class="edge">
<title>Node2&#45;&gt;Node3</title>
<g id="a_edge2_Node000002_Node000003"><a xlink:title=" ">
<path fill="none" stroke="#63b8ff" d="M332.24,-15C340.6,-15 349.16,-15 357.64,-15"/>
<polygon fill="#63b8ff" stroke="#63b8ff" points="357.91,-18.5 367.91,-15 357.91,-11.5 357.91,-18.5"/>
</a>
</g>
</g>
</g>
</svg>
