<?xml version="1.0" encoding="UTF-8" standalone="no"?>
<!DOCTYPE svg PUBLIC "-//W3C//DTD SVG 1.1//EN"
 "http://www.w3.org/Graphics/SVG/1.1/DTD/svg11.dtd">
<!-- Generated by graphviz version 2.43.0 (0)
 -->
<!-- Title: Guildmaster.Combat.Commands.SpawnUnitCommand Pages: 1 -->
<svg width="181pt" height="253pt"
 viewBox="0.00 0.00 181.00 253.00" xmlns="http://www.w3.org/2000/svg" xmlns:xlink="http://www.w3.org/1999/xlink">

<svg id="main" version="1.1" xmlns="http://www.w3.org/2000/svg" xmlns:xlink="http://www.w3.org/1999/xlink" xml:space="preserve" onload="init(evt)">
<style type="text/css"><![CDATA[
.node, .edge {opacity: 0.7;}
.node.selected, .edge.selected {opacity: 1;}
.edge:hover path { stroke: red; }
.edge:hover polygon { stroke: red; fill: red; }
]]></style>
<script type="application/ecmascript" xlink:href="svg.min.js"/>
<svg id="graph" class="graph">
<g id="graph0" class="graph" transform="scale(1 1) rotate(0) translate(4 249)">
<title>Guildmaster.Combat.Commands.SpawnUnitCommand</title>
<!-- Node1 -->
<g id="Node000001" class="node">
<title>Node1</title>
<g id="a_Node000001"><a xlink:title="Добавляет предварительно созданного юнита в симуляцию на указанном тике.">
<polygon fill="#999999" stroke="transparent" points="173,-75 0,-75 0,0 173,0 173,-75"/>
<text text-anchor="start" x="5.5" y="-62.5" font-family="Helvetica,sans-Serif" font-size="10.00">Guildmaster.Combat.Commands.</text>
<text text-anchor="start" x="35.5" y="-51.5" font-family="Helvetica,sans-Serif" font-size="10.00">SpawnUnitCommand</text>
<text text-anchor="start" x="14.5" y="-36.5" font-family="Helvetica,sans-Serif" font-size="10.00">+</text>
<text text-anchor="start" x="37.5" y="-36.5" font-family="Helvetica,sans-Serif" font-size="10.00">TargetTick</text>
<text text-anchor="start" x="14.5" y="-21.5" font-family="Helvetica,sans-Serif" font-size="10.00">+</text>
<text text-anchor="start" x="37.5" y="-21.5" font-family="Helvetica,sans-Serif" font-size="10.00">SpawnUnitCommand()</text>
<text text-anchor="start" x="14.5" y="-6.5" font-family="Helvetica,sans-Serif" font-size="10.00">+</text>
<text text-anchor="start" x="37.5" y="-6.5" font-family="Helvetica,sans-Serif" font-size="10.00">Apply()</text>
<polygon fill="#666666" stroke="#666666" points="0.5,-46.5 0.5,-46.5 173.5,-46.5 173.5,-46.5 0.5,-46.5"/>
<polygon fill="#666666" stroke="#666666" points="0.5,-31.5 0.5,-31.5 35.5,-31.5 35.5,-31.5 0.5,-31.5"/>
<polygon fill="#666666" stroke="#666666" points="35.5,-31.5 35.5,-31.5 173.5,-31.5 173.5,-31.5 35.5,-31.5"/>
<polygon fill="none" stroke="#666666" points="0,0 0,-75 173,-75 173,0 0,0"/>
</a>
</g>
</g>
<!-- Node2 -->
<g id="Node000002" class="node">
<title>Node2</title>
<g id="a_Node000002"><a xlink:href="interfaceGuildmaster_1_1Combat_1_1ICombatCommand.html" target="_top" xlink:title="Расширяет ISimCommand слоем Combat: добавляет метод применения к симуляции.">
<polygon fill="white" stroke="transparent" points="137.5,-160 35.5,-160 35.5,-111 137.5,-111 137.5,-160"/>
<text text-anchor="start" x="40.5" y="-147.5" font-family="Helvetica,sans-Serif" font-size="10.00">ICombatCommand</text>
<text text-anchor="start" x="84.5" y="-132.5" font-family="Helvetica,sans-Serif" font-size="10.00"> </text>
<text text-anchor="start" x="50.5" y="-117.5" font-family="Helvetica,sans-Serif" font-size="10.00">+</text>
<text text-anchor="start" x="74.5" y="-117.5" font-family="Helvetica,sans-Serif" font-size="10.00">Apply()</text>
<polygon fill="#666666" stroke="#666666" points="35.5,-142.5 35.5,-142.5 137.5,-142.5 137.5,-142.5 35.5,-142.5"/>
<polygon fill="#666666" stroke="#666666" points="35.5,-127.5 35.5,-127.5 137.5,-127.5 137.5,-127.5 35.5,-127.5"/>
<polygon fill="none" stroke="#666666" points="35.5,-111 35.5,-160 137.5,-160 137.5,-111 35.5,-111"/>
</a>
</g>
</g>
<!-- Node2&#45;&gt;Node1 -->
<g id="edge1_Node000001_Node000002" class="edge">
<title>Node2&#45;&gt;Node1</title>
<g id="a_edge1_Node000001_Node000002"><a xlink:title=" ">
<path fill="none" stroke="#63b8ff" d="M86.5,-100.68C86.5,-92.38 86.5,-83.46 86.5,-75.04"/>
<polygon fill="none" stroke="#63b8ff" points="83,-100.77 86.5,-110.77 90,-100.77 83,-100.77"/>
</a>
</g>
</g>
<!-- Node3 -->
<g id="Node000003" class="node">
<title>Node3</title>
<g id="a_Node000003"><a xlink:href="interfaceGuildmaster_1_1Core_1_1Simulation_1_1ISimCommand.html" target="_top" xlink:title="Базовый контракт команды симуляции — упорядочивающий ключ для детерминированного применения на границ...">
<polygon fill="white" stroke="transparent" points="128,-245 45,-245 45,-196 128,-196 128,-245"/>
<text text-anchor="start" x="50.5" y="-232.5" font-family="Helvetica,sans-Serif" font-size="10.00">ISimCommand</text>
<text text-anchor="start" x="52" y="-217.5" font-family="Helvetica,sans-Serif" font-size="10.00">+</text>
<text text-anchor="start" x="67.5" y="-217.5" font-family="Helvetica,sans-Serif" font-size="10.00">TargetTick</text>
<text text-anchor="start" x="85" y="-202.5" font-family="Helvetica,sans-Serif" font-size="10.00"> </text>
<polygon fill="#666666" stroke="#666666" points="45.5,-227.5 45.5,-227.5 128.5,-227.5 128.5,-227.5 45.5,-227.5"/>
<polygon fill="#666666" stroke="#666666" points="45.5,-212.5 45.5,-212.5 65.5,-212.5 65.5,-212.5 45.5,-212.5"/>
<polygon fill="#666666" stroke="#666666" points="65.5,-212.5 65.5,-212.5 128.5,-212.5 128.5,-212.5 65.5,-212.5"/>
<polygon fill="none" stroke="#666666" points="45,-196 45,-245 128,-245 128,-196 45,-196"/>
</a>
</g>
</g>
<!-- Node3&#45;&gt;Node2 -->
<g id="edge2_Node000002_Node000003" class="edge">
<title>Node3&#45;&gt;Node2</title>
<g id="a_edge2_Node000002_Node000003"><a xlink:title=" ">
<path fill="none" stroke="#63b8ff" d="M86.5,-185.77C86.5,-177.17 86.5,-168.1 86.5,-160.12"/>
<polygon fill="none" stroke="#63b8ff" points="83,-185.94 86.5,-195.94 90,-185.94 83,-185.94"/>
</a>
</g>
</g>
</g>
</svg>
</svg>

<style type='text/css'>
<![CDATA[
[data-mouse-over-selected='false'] { opacity: 0.7; }
[data-mouse-over-selected='true']  { opacity: 1.0; }
]]>
</style>
<script type="application/ecmascript"><![CDATA[
document.addEventListener('DOMContentLoaded', (event) => {
  highlightEdges();
  highlightAdjacentNodes();
});
]]></script>
</svg>
