<?xml version="1.0" encoding="UTF-8" standalone="no"?>
<!DOCTYPE svg PUBLIC "-//W3C//DTD SVG 1.1//EN"
 "http://www.w3.org/Graphics/SVG/1.1/DTD/svg11.dtd">
<!-- Generated by graphviz version 2.43.0 (0)
 -->
<!-- Title: Guildmaster.Combat.Effects.Components.ThornsComponent Pages: 1 -->
<svg width="172pt" height="368pt"
 viewBox="0.00 0.00 172.00 368.00" xmlns="http://www.w3.org/2000/svg" xmlns:xlink="http://www.w3.org/1999/xlink">

<svg id="main" version="1.1" xmlns="http://www.w3.org/2000/svg" xmlns:xlink="http://www.w3.org/1999/xlink" xml:space="preserve" onload="init(evt)">
<style type="text/css"><![CDATA[
.node, .edge {opacity: 0.7;}
.node.selected, .edge.selected {opacity: 1;}
.edge:hover path { stroke: red; }
.edge:hover polygon { stroke: red; fill: red; }
]]></style>
<script type="application/ecmascript" xlink:href="svg.min.js"/>
<svg id="graph" class="graph">
<g id="graph0" class="graph" transform="scale(1 1) rotate(0) translate(4 364)">
<title>Guildmaster.Combat.Effects.Components.ThornsComponent</title>
<!-- Node1 -->
<g id="Node000001" class="node">
<title>Node1</title>
<g id="a_Node000001"><a xlink:title="Шипы: отражает долю полученного урона обратно атакующему.">
<polygon fill="#999999" stroke="transparent" points="164,-90 0,-90 0,0 164,0 164,-90"/>
<text text-anchor="start" x="5" y="-78" font-family="Helvetica,sans-Serif" font-size="10.00">Guildmaster.Combat.Effects.</text>
<text text-anchor="start" x="5" y="-67" font-family="Helvetica,sans-Serif" font-size="10.00">Components.ThornsComponent</text>
<text text-anchor="start" x="26.5" y="-52" font-family="Helvetica,sans-Serif" font-size="10.00">+</text>
<text text-anchor="start" x="62" y="-52" font-family="Helvetica,sans-Serif" font-size="10.00">Events</text>
<text text-anchor="start" x="26.5" y="-37" font-family="Helvetica,sans-Serif" font-size="10.00">+</text>
<text text-anchor="start" x="62" y="-37" font-family="Helvetica,sans-Serif" font-size="10.00">OnApply()</text>
<text text-anchor="start" x="26.5" y="-22" font-family="Helvetica,sans-Serif" font-size="10.00">+</text>
<text text-anchor="start" x="62" y="-22" font-family="Helvetica,sans-Serif" font-size="10.00">OnExpire()</text>
<text text-anchor="start" x="26.5" y="-7" font-family="Helvetica,sans-Serif" font-size="10.00">+</text>
<text text-anchor="start" x="62" y="-7" font-family="Helvetica,sans-Serif" font-size="10.00">OnEvent()</text>
<polygon fill="#666666" stroke="#666666" points="0,-62 0,-62 164,-62 164,-62 0,-62"/>
<polygon fill="#666666" stroke="#666666" points="0,-47 0,-47 60,-47 60,-47 0,-47"/>
<polygon fill="#666666" stroke="#666666" points="60,-47 60,-47 164,-47 164,-47 60,-47"/>
<polygon fill="none" stroke="#666666" points="0,0 0,-90 164,-90 164,0 0,0"/>
</a>
</g>
</g>
<!-- Node2 -->
<g id="Node000002" class="node">
<title>Node2</title>
<g id="a_Node000002"><a xlink:href="interfaceGuildmaster_1_1Combat_1_1Effects_1_1IReactiveComponent.html" target="_top" xlink:title="Реактивный компонент: реагирует на боевые события (вампиризм/шипы). Диспатч — внутренняя FIFO&#45;очередь...">
<polygon fill="white" stroke="transparent" points="138.5,-175 25.5,-175 25.5,-126 138.5,-126 138.5,-175"/>
<text text-anchor="start" x="31" y="-162.5" font-family="Helvetica,sans-Serif" font-size="10.00">IReactiveComponent</text>
<text text-anchor="start" x="40.5" y="-147.5" font-family="Helvetica,sans-Serif" font-size="10.00">+</text>
<text text-anchor="start" x="64" y="-147.5" font-family="Helvetica,sans-Serif" font-size="10.00">Events</text>
<text text-anchor="start" x="40.5" y="-132.5" font-family="Helvetica,sans-Serif" font-size="10.00">+</text>
<text text-anchor="start" x="64" y="-132.5" font-family="Helvetica,sans-Serif" font-size="10.00">OnEvent()</text>
<polygon fill="#666666" stroke="#666666" points="26,-157.5 26,-157.5 139,-157.5 139,-157.5 26,-157.5"/>
<polygon fill="#666666" stroke="#666666" points="26,-142.5 26,-142.5 62,-142.5 62,-142.5 26,-142.5"/>
<polygon fill="#666666" stroke="#666666" points="62,-142.5 62,-142.5 139,-142.5 139,-142.5 62,-142.5"/>
<polygon fill="none" stroke="#666666" points="25.5,-126 25.5,-175 138.5,-175 138.5,-126 25.5,-126"/>
</a>
</g>
</g>
<!-- Node2&#45;&gt;Node1 -->
<g id="edge1_Node000001_Node000002" class="edge">
<title>Node2&#45;&gt;Node1</title>
<g id="a_edge1_Node000001_Node000002"><a xlink:title=" ">
<path fill="none" stroke="#63b8ff" d="M82,-115.62C82,-107.56 82,-98.84 82,-90.39"/>
<polygon fill="none" stroke="#63b8ff" points="78.5,-115.75 82,-125.76 85.5,-115.76 78.5,-115.75"/>
</a>
</g>
</g>
<!-- Node3 -->
<g id="Node000003" class="node">
<title>Node3</title>
<g id="a_Node000003"><a xlink:href="interfaceGuildmaster_1_1Combat_1_1Effects_1_1IRuntimeEffectComponent.html" target="_top" xlink:title="Рантайм&#45;контракт поведения эффекта.">
<polygon fill="white" stroke="transparent" points="151.5,-275 12.5,-275 12.5,-211 151.5,-211 151.5,-275"/>
<text text-anchor="start" x="18" y="-263" font-family="Helvetica,sans-Serif" font-size="10.00">IRuntimeEffectComponent</text>
<text text-anchor="start" x="80.5" y="-248" font-family="Helvetica,sans-Serif" font-size="10.00"> </text>
<text text-anchor="start" x="33.5" y="-233" font-family="Helvetica,sans-Serif" font-size="10.00">+</text>
<text text-anchor="start" x="63" y="-233" font-family="Helvetica,sans-Serif" font-size="10.00">OnApply()</text>
<text text-anchor="start" x="33.5" y="-218" font-family="Helvetica,sans-Serif" font-size="10.00">+</text>
<text text-anchor="start" x="63" y="-218" font-family="Helvetica,sans-Serif" font-size="10.00">OnExpire()</text>
<polygon fill="#666666" stroke="#666666" points="13,-258 13,-258 152,-258 152,-258 13,-258"/>
<polygon fill="#666666" stroke="#666666" points="13,-243 13,-243 152,-243 152,-243 13,-243"/>
<polygon fill="none" stroke="#666666" points="12.5,-211 12.5,-275 151.5,-275 151.5,-211 12.5,-211"/>
</a>
</g>
</g>
<!-- Node3&#45;&gt;Node2 -->
<g id="edge2_Node000002_Node000003" class="edge">
<title>Node3&#45;&gt;Node2</title>
<g id="a_edge2_Node000002_Node000003"><a xlink:title=" ">
<path fill="none" stroke="#63b8ff" d="M82,-200.77C82,-192.03 82,-183.09 82,-175.27"/>
<polygon fill="none" stroke="#63b8ff" points="78.5,-200.85 82,-210.86 85.5,-200.86 78.5,-200.85"/>
</a>
</g>
</g>
<!-- Node4 -->
<g id="Node000004" class="node">
<title>Node4</title>
<g id="a_Node000004"><a xlink:href="interfaceGuildmaster_1_1Data_1_1Definitions_1_1IEffectComponent.html" target="_top" xlink:title="Якорь полиморфного поведения эффекта для сериализации.">
<polygon fill="white" stroke="transparent" points="131,-360 33,-360 33,-311 131,-311 131,-360"/>
<text text-anchor="start" x="38" y="-347.5" font-family="Helvetica,sans-Serif" font-size="10.00">IEffectComponent</text>
<text text-anchor="start" x="80" y="-332.5" font-family="Helvetica,sans-Serif" font-size="10.00"> </text>
<text text-anchor="start" x="80" y="-317.5" font-family="Helvetica,sans-Serif" font-size="10.00"> </text>
<polygon fill="#666666" stroke="#666666" points="33,-342.5 33,-342.5 131,-342.5 131,-342.5 33,-342.5"/>
<polygon fill="#666666" stroke="#666666" points="33,-327.5 33,-327.5 131,-327.5 131,-327.5 33,-327.5"/>
<polygon fill="none" stroke="#666666" points="33,-311 33,-360 131,-360 131,-311 33,-311"/>
</a>
</g>
</g>
<!-- Node4&#45;&gt;Node3 -->
<g id="edge3_Node000003_Node000004" class="edge">
<title>Node4&#45;&gt;Node3</title>
<g id="a_edge3_Node000003_Node000004"><a xlink:title=" ">
<path fill="none" stroke="#63b8ff" d="M82,-300.54C82,-292.2 82,-283.31 82,-275.11"/>
<polygon fill="none" stroke="#63b8ff" points="78.5,-300.72 82,-310.72 85.5,-300.72 78.5,-300.72"/>
</a>
</g>
</g>
</g>
</svg>
</svg>

<style type='text/css'>
<![CDATA[
[data-mouse-over-selected='false'] { opacity: 0.7; }
[data-mouse-over-selected='true']  { opacity: 1.0; }
]]>
</style>
<script type="application/ecmascript"><![CDATA[
document.addEventListener('DOMContentLoaded', (event) => {
  highlightEdges();
  highlightAdjacentNodes();
});
]]></script>
</svg>
