<?xml version="1.0" encoding="UTF-8" standalone="no"?>
<!DOCTYPE svg PUBLIC "-//W3C//DTD SVG 1.1//EN"
 "http://www.w3.org/Graphics/SVG/1.1/DTD/svg11.dtd">
<!-- Generated by graphviz version 2.43.0 (0)
 -->
<!-- Title: Guildmaster.Combat.RuntimeUnit Pages: 1 -->
<svg width="539pt" height="676pt"
 viewBox="0.00 0.00 539.00 676.00" xmlns="http://www.w3.org/2000/svg" xmlns:xlink="http://www.w3.org/1999/xlink">
<g id="graph0" class="graph" transform="scale(1 1) rotate(0) translate(4 672)">
<title>Guildmaster.Combat.RuntimeUnit</title>
<!-- Node1 -->
<g id="Node000001" class="node">
<title>Node1</title>
<g id="a_Node000001"><a xlink:title="Рантайм&#45;представление юнита на один бой.">
<polygon fill="#999999" stroke="transparent" points="418.5,-169 242.5,-169 242.5,0 418.5,0 418.5,-169"/>
<text text-anchor="start" x="247.5" y="-156.5" font-family="Helvetica,sans-Serif" font-size="10.00">Guildmaster.Combat.RuntimeUnit</text>
<text text-anchor="start" x="264.5" y="-141.5" font-family="Helvetica,sans-Serif" font-size="10.00">+</text>
<text text-anchor="start" x="295.5" y="-141.5" font-family="Helvetica,sans-Serif" font-size="10.00">Id</text>
<text text-anchor="start" x="264.5" y="-126.5" font-family="Helvetica,sans-Serif" font-size="10.00">+</text>
<text text-anchor="start" x="295.5" y="-126.5" font-family="Helvetica,sans-Serif" font-size="10.00">Team</text>
<text text-anchor="start" x="264.5" y="-111.5" font-family="Helvetica,sans-Serif" font-size="10.00">+</text>
<text text-anchor="start" x="295.5" y="-111.5" font-family="Helvetica,sans-Serif" font-size="10.00">CurrentHP</text>
<text text-anchor="start" x="264.5" y="-96.5" font-family="Helvetica,sans-Serif" font-size="10.00">+</text>
<text text-anchor="start" x="295.5" y="-96.5" font-family="Helvetica,sans-Serif" font-size="10.00">CurrentResource</text>
<text text-anchor="start" x="264.5" y="-81.5" font-family="Helvetica,sans-Serif" font-size="10.00">+</text>
<text text-anchor="start" x="295.5" y="-81.5" font-family="Helvetica,sans-Serif" font-size="10.00">CurrentShield</text>
<text text-anchor="start" x="264.5" y="-66.5" font-family="Helvetica,sans-Serif" font-size="10.00">+</text>
<text text-anchor="start" x="295.5" y="-66.5" font-family="Helvetica,sans-Serif" font-size="10.00">Position</text>
<text text-anchor="start" x="264.5" y="-51.5" font-family="Helvetica,sans-Serif" font-size="10.00">+</text>
<text text-anchor="start" x="295.5" y="-51.5" font-family="Helvetica,sans-Serif" font-size="10.00">PreviousPosition</text>
<text text-anchor="start" x="264.5" y="-36.5" font-family="Helvetica,sans-Serif" font-size="10.00">+</text>
<text text-anchor="start" x="295.5" y="-36.5" font-family="Helvetica,sans-Serif" font-size="10.00">AttackCooldown</text>
<text text-anchor="start" x="264.5" y="-21.5" font-family="Helvetica,sans-Serif" font-size="10.00">+</text>
<text text-anchor="start" x="295.5" y="-21.5" font-family="Helvetica,sans-Serif" font-size="10.00">IsDead</text>
<text text-anchor="start" x="328.5" y="-6.5" font-family="Helvetica,sans-Serif" font-size="10.00"> </text>
<polygon fill="#666666" stroke="#666666" points="242.5,-151.5 242.5,-151.5 418.5,-151.5 418.5,-151.5 242.5,-151.5"/>
<polygon fill="#666666" stroke="#666666" points="242.5,-16.5 242.5,-16.5 293.5,-16.5 293.5,-16.5 242.5,-16.5"/>
<polygon fill="#666666" stroke="#666666" points="293.5,-16.5 293.5,-16.5 418.5,-16.5 418.5,-16.5 293.5,-16.5"/>
<polygon fill="none" stroke="#666666" points="242.5,0 242.5,-169 418.5,-169 418.5,0 242.5,0"/>
</a>
</g>
</g>
<!-- Node2 -->
<g id="Node000002" class="node">
<title>Node2</title>
<g id="a_Node000002"><a xlink:href="classGuildmaster_1_1Combat_1_1Stats.html" target="_top" xlink:title="Рантайм стат&#45;объект юнита.">
<polygon fill="white" stroke="transparent" points="139,-554 0,-554 0,-460 139,-460 139,-554"/>
<text text-anchor="start" x="5.5" y="-542" font-family="Helvetica,sans-Serif" font-size="10.00">Guildmaster.Combat.Stats</text>
<text text-anchor="start" x="68" y="-527" font-family="Helvetica,sans-Serif" font-size="10.00"> </text>
<text text-anchor="start" x="4.5" y="-512" font-family="Helvetica,sans-Serif" font-size="10.00">+</text>
<text text-anchor="start" x="17.5" y="-512" font-family="Helvetica,sans-Serif" font-size="10.00">Stats()</text>
<text text-anchor="start" x="4.5" y="-497" font-family="Helvetica,sans-Serif" font-size="10.00">+</text>
<text text-anchor="start" x="17.5" y="-497" font-family="Helvetica,sans-Serif" font-size="10.00">Get()</text>
<text text-anchor="start" x="4.5" y="-482" font-family="Helvetica,sans-Serif" font-size="10.00">+</text>
<text text-anchor="start" x="17.5" y="-482" font-family="Helvetica,sans-Serif" font-size="10.00">AddModifiersFrom()</text>
<text text-anchor="start" x="4.5" y="-467" font-family="Helvetica,sans-Serif" font-size="10.00">+</text>
<text text-anchor="start" x="17.5" y="-467" font-family="Helvetica,sans-Serif" font-size="10.00">RemoveModifiersFrom()</text>
<polygon fill="#666666" stroke="#666666" points="0.5,-537 0.5,-537 139.5,-537 139.5,-537 0.5,-537"/>
<polygon fill="#666666" stroke="#666666" points="0.5,-522 0.5,-522 139.5,-522 139.5,-522 0.5,-522"/>
<polygon fill="none" stroke="#666666" points="0,-460 0,-554 139,-554 139,-460 0,-460"/>
</a>
</g>
</g>
<!-- Node2&#45;&gt;Node1 -->
<g id="edge1_Node000001_Node000002" class="edge">
<title>Node2&#45;&gt;Node1</title>
<g id="a_edge1_Node000001_Node000002"><a xlink:title=" ">
<path fill="none" stroke="#63b8ff" d="M45.99,-459.86C18.56,-398.87 -17.24,-290.45 31.5,-216 75.34,-149.03 161.9,-116.23 230.65,-100.28"/>
<polygon fill="none" stroke="#63b8ff" points="230.68,-100.28 235.67,-95.07 242.39,-97.68 237.4,-102.89 230.68,-100.28"/>
</a>
</g>
<text text-anchor="middle" x="50" y="-298" font-family="Helvetica,sans-Serif" font-size="10.00" fill="grey"> +Stats</text>
</g>
<!-- Node4 -->
<g id="Node000004" class="node">
<title>Node4</title>
<g id="a_Node000004"><a xlink:href="classGuildmaster_1_1Combat_1_1RuntimeUnit.html" target="_top" xlink:title="Рантайм&#45;представление юнита на один бой.">
<polygon fill="white" stroke="transparent" points="253.5,-385 77.5,-385 77.5,-216 253.5,-216 253.5,-385"/>
<text text-anchor="start" x="82.5" y="-372.5" font-family="Helvetica,sans-Serif" font-size="10.00">Guildmaster.Combat.RuntimeUnit</text>
<text text-anchor="start" x="99.5" y="-357.5" font-family="Helvetica,sans-Serif" font-size="10.00">+</text>
<text text-anchor="start" x="130.5" y="-357.5" font-family="Helvetica,sans-Serif" font-size="10.00">Id</text>
<text text-anchor="start" x="99.5" y="-342.5" font-family="Helvetica,sans-Serif" font-size="10.00">+</text>
<text text-anchor="start" x="130.5" y="-342.5" font-family="Helvetica,sans-Serif" font-size="10.00">Team</text>
<text text-anchor="start" x="99.5" y="-327.5" font-family="Helvetica,sans-Serif" font-size="10.00">+</text>
<text text-anchor="start" x="130.5" y="-327.5" font-family="Helvetica,sans-Serif" font-size="10.00">CurrentHP</text>
<text text-anchor="start" x="99.5" y="-312.5" font-family="Helvetica,sans-Serif" font-size="10.00">+</text>
<text text-anchor="start" x="130.5" y="-312.5" font-family="Helvetica,sans-Serif" font-size="10.00">CurrentResource</text>
<text text-anchor="start" x="99.5" y="-297.5" font-family="Helvetica,sans-Serif" font-size="10.00">+</text>
<text text-anchor="start" x="130.5" y="-297.5" font-family="Helvetica,sans-Serif" font-size="10.00">CurrentShield</text>
<text text-anchor="start" x="99.5" y="-282.5" font-family="Helvetica,sans-Serif" font-size="10.00">+</text>
<text text-anchor="start" x="130.5" y="-282.5" font-family="Helvetica,sans-Serif" font-size="10.00">Position</text>
<text text-anchor="start" x="99.5" y="-267.5" font-family="Helvetica,sans-Serif" font-size="10.00">+</text>
<text text-anchor="start" x="130.5" y="-267.5" font-family="Helvetica,sans-Serif" font-size="10.00">PreviousPosition</text>
<text text-anchor="start" x="99.5" y="-252.5" font-family="Helvetica,sans-Serif" font-size="10.00">+</text>
<text text-anchor="start" x="130.5" y="-252.5" font-family="Helvetica,sans-Serif" font-size="10.00">AttackCooldown</text>
<text text-anchor="start" x="99.5" y="-237.5" font-family="Helvetica,sans-Serif" font-size="10.00">+</text>
<text text-anchor="start" x="130.5" y="-237.5" font-family="Helvetica,sans-Serif" font-size="10.00">IsDead</text>
<text text-anchor="start" x="163.5" y="-222.5" font-family="Helvetica,sans-Serif" font-size="10.00"> </text>
<polygon fill="#666666" stroke="#666666" points="77.5,-367.5 77.5,-367.5 253.5,-367.5 253.5,-367.5 77.5,-367.5"/>
<polygon fill="#666666" stroke="#666666" points="77.5,-232.5 77.5,-232.5 128.5,-232.5 128.5,-232.5 77.5,-232.5"/>
<polygon fill="#666666" stroke="#666666" points="128.5,-232.5 128.5,-232.5 253.5,-232.5 253.5,-232.5 128.5,-232.5"/>
<polygon fill="none" stroke="#666666" points="77.5,-216 77.5,-385 253.5,-385 253.5,-216 77.5,-216"/>
</a>
</g>
</g>
<!-- Node2&#45;&gt;Node4 -->
<g id="edge4_Node000004_Node000002" class="edge">
<title>Node2&#45;&gt;Node4</title>
<g id="a_edge4_Node000004_Node000002"><a xlink:title=" ">
<path fill="none" stroke="#63b8ff" d="M91.16,-459.85C100.01,-441.01 110.59,-418.48 120.95,-396.41"/>
<polygon fill="none" stroke="#63b8ff" points="121.07,-396.15 120,-389.01 126.17,-385.28 127.24,-392.41 121.07,-396.15"/>
</a>
</g>
<text text-anchor="middle" x="136" y="-406" font-family="Helvetica,sans-Serif" font-size="10.00" fill="grey"> +Stats</text>
</g>
<!-- Node3 -->
<g id="Node000003" class="node">
<title>Node3</title>
<g id="a_Node000003"><a xlink:href="interfaceGuildmaster_1_1Data_1_1Stats_1_1IStatReader.html" target="_top" xlink:title="Только&#45;чтение собранных статов.">
<polygon fill="white" stroke="transparent" points="103.5,-668 35.5,-668 35.5,-619 103.5,-619 103.5,-668"/>
<text text-anchor="start" x="40.5" y="-655.5" font-family="Helvetica,sans-Serif" font-size="10.00">IStatReader</text>
<text text-anchor="start" x="67.5" y="-640.5" font-family="Helvetica,sans-Serif" font-size="10.00"> </text>
<text text-anchor="start" x="45" y="-625.5" font-family="Helvetica,sans-Serif" font-size="10.00">+</text>
<text text-anchor="start" x="63.5" y="-625.5" font-family="Helvetica,sans-Serif" font-size="10.00">Get()</text>
<polygon fill="#666666" stroke="#666666" points="35.5,-650.5 35.5,-650.5 103.5,-650.5 103.5,-650.5 35.5,-650.5"/>
<polygon fill="#666666" stroke="#666666" points="35.5,-635.5 35.5,-635.5 103.5,-635.5 103.5,-635.5 35.5,-635.5"/>
<polygon fill="none" stroke="#666666" points="35.5,-619 35.5,-668 103.5,-668 103.5,-619 35.5,-619"/>
</a>
</g>
</g>
<!-- Node3&#45;&gt;Node2 -->
<g id="edge2_Node000002_Node000003" class="edge">
<title>Node3&#45;&gt;Node2</title>
<g id="a_edge2_Node000002_Node000003"><a xlink:title=" ">
<path fill="none" stroke="#63b8ff" d="M69.5,-608.49C69.5,-591.99 69.5,-571.92 69.5,-554.07"/>
<polygon fill="none" stroke="#63b8ff" points="66,-608.76 69.5,-618.76 73,-608.76 66,-608.76"/>
</a>
</g>
</g>
<!-- Node4&#45;&gt;Node1 -->
<g id="edge3_Node000001_Node000004" class="edge">
<title>Node4&#45;&gt;Node1</title>
<g id="a_edge3_Node000001_Node000004"><a xlink:title=" ">
<path fill="none" stroke="#63b8ff" d="M230,-215.84C239.35,-203.73 249.01,-191.19 258.49,-178.89"/>
<polygon fill="none" stroke="#63b8ff" points="258.72,-178.6 259.21,-171.41 266.04,-169.1 265.55,-176.29 258.72,-178.6"/>
</a>
</g>
<text text-anchor="middle" x="286.5" y="-190" font-family="Helvetica,sans-Serif" font-size="10.00" fill="grey"> +CurrentTarget</text>
</g>
<!-- Node4&#45;&gt;Node4 -->
<g id="edge5_Node000004_Node000004" class="edge">
<title>Node4&#45;&gt;Node4</title>
<g id="a_edge5_Node000004_Node000004"><a xlink:title=" ">
<path fill="none" stroke="#63b8ff" d="M253.63,-317.7C264.43,-314.62 271.5,-308.88 271.5,-300.5 271.5,-295.52 269.01,-291.48 264.72,-288.37"/>
<polygon fill="none" stroke="#63b8ff" points="264.55,-288.29 257.43,-289.44 253.63,-283.3 260.75,-282.16 264.55,-288.29"/>
</a>
</g>
<text text-anchor="middle" x="310.5" y="-298" font-family="Helvetica,sans-Serif" font-size="10.00" fill="grey"> +CurrentTarget</text>
</g>
<!-- Node5 -->
<g id="Node000005" class="node">
<title>Node5</title>
<g id="a_Node000005"><a xlink:href="classGuildmaster_1_1Data_1_1Definitions_1_1RelicData.html" target="_top" xlink:title="«Чемпион» — стат&#45;блок и боевые категории юнита.">
<polygon fill="white" stroke="transparent" points="358,-582 203,-582 203,-432 358,-432 358,-582"/>
<text text-anchor="start" x="208.5" y="-570" font-family="Helvetica,sans-Serif" font-size="10.00">Guildmaster.Data.Definitions.</text>
<text text-anchor="start" x="257" y="-559" font-family="Helvetica,sans-Serif" font-size="10.00">RelicData</text>
<text text-anchor="start" x="219.5" y="-544" font-family="Helvetica,sans-Serif" font-size="10.00">+</text>
<text text-anchor="start" x="244.5" y="-544" font-family="Helvetica,sans-Serif" font-size="10.00">DisplayNameKey</text>
<text text-anchor="start" x="219.5" y="-529" font-family="Helvetica,sans-Serif" font-size="10.00">+</text>
<text text-anchor="start" x="244.5" y="-529" font-family="Helvetica,sans-Serif" font-size="10.00">Tags</text>
<text text-anchor="start" x="219.5" y="-514" font-family="Helvetica,sans-Serif" font-size="10.00">+</text>
<text text-anchor="start" x="244.5" y="-514" font-family="Helvetica,sans-Serif" font-size="10.00">DamageType</text>
<text text-anchor="start" x="219.5" y="-499" font-family="Helvetica,sans-Serif" font-size="10.00">+</text>
<text text-anchor="start" x="244.5" y="-499" font-family="Helvetica,sans-Serif" font-size="10.00">AttackType</text>
<text text-anchor="start" x="219.5" y="-484" font-family="Helvetica,sans-Serif" font-size="10.00">+</text>
<text text-anchor="start" x="244.5" y="-484" font-family="Helvetica,sans-Serif" font-size="10.00">ResourceType</text>
<text text-anchor="start" x="219.5" y="-469" font-family="Helvetica,sans-Serif" font-size="10.00">+</text>
<text text-anchor="start" x="244.5" y="-469" font-family="Helvetica,sans-Serif" font-size="10.00">Stats</text>
<text text-anchor="start" x="219.5" y="-454" font-family="Helvetica,sans-Serif" font-size="10.00">+</text>
<text text-anchor="start" x="244.5" y="-454" font-family="Helvetica,sans-Serif" font-size="10.00">GrantedEffects</text>
<text text-anchor="start" x="279" y="-439" font-family="Helvetica,sans-Serif" font-size="10.00"> </text>
<polygon fill="#666666" stroke="#666666" points="203.5,-554 203.5,-554 358.5,-554 358.5,-554 203.5,-554"/>
<polygon fill="#666666" stroke="#666666" points="203.5,-449 203.5,-449 242.5,-449 242.5,-449 203.5,-449"/>
<polygon fill="#666666" stroke="#666666" points="242.5,-449 242.5,-449 358.5,-449 358.5,-449 242.5,-449"/>
<polygon fill="none" stroke="#666666" points="203,-432 203,-582 358,-582 358,-432 203,-432"/>
</a>
</g>
</g>
<!-- Node5&#45;&gt;Node1 -->
<g id="edge10_Node000001_Node000005" class="edge">
<title>Node5&#45;&gt;Node1</title>
<g id="a_edge10_Node000001_Node000005"><a xlink:title=" ">
<path fill="none" stroke="#63b8ff" d="M337.54,-431.79C346.17,-417.01 353.77,-401.06 358.5,-385 378.02,-318.68 369.87,-240.86 357.44,-181.17"/>
<polygon fill="none" stroke="#63b8ff" points="357.36,-180.83 352.18,-175.82 354.82,-169.1 360,-174.12 357.36,-180.83"/>
</a>
</g>
<text text-anchor="middle" x="387.5" y="-298" font-family="Helvetica,sans-Serif" font-size="10.00" fill="grey"> +Relic</text>
</g>
<!-- Node5&#45;&gt;Node4 -->
<g id="edge6_Node000004_Node000005" class="edge">
<title>Node5&#45;&gt;Node4</title>
<g id="a_edge6_Node000004_Node000005"><a xlink:title=" ">
<path fill="none" stroke="#63b8ff" d="M238.82,-431.88C232.21,-420.12 225.29,-407.83 218.46,-395.68"/>
<polygon fill="none" stroke="#63b8ff" points="218.38,-395.53 211.95,-392.26 212.49,-385.07 218.92,-388.34 218.38,-395.53"/>
</a>
</g>
<text text-anchor="middle" x="243.5" y="-406" font-family="Helvetica,sans-Serif" font-size="10.00" fill="grey"> +Relic</text>
</g>
<!-- Node6 -->
<g id="Node000006" class="node">
<title>Node6</title>
<g id="a_Node000006"><a xlink:title=" ">
<polygon fill="white" stroke="transparent" points="413,-668 322,-668 322,-619 413,-619 413,-668"/>
<text text-anchor="start" x="327.5" y="-655.5" font-family="Helvetica,sans-Serif" font-size="10.00">ScriptableObject</text>
<text text-anchor="start" x="366" y="-640.5" font-family="Helvetica,sans-Serif" font-size="10.00"> </text>
<text text-anchor="start" x="366" y="-625.5" font-family="Helvetica,sans-Serif" font-size="10.00"> </text>
<polygon fill="#666666" stroke="#666666" points="322.5,-650.5 322.5,-650.5 413.5,-650.5 413.5,-650.5 322.5,-650.5"/>
<polygon fill="#666666" stroke="#666666" points="322.5,-635.5 322.5,-635.5 413.5,-635.5 413.5,-635.5 322.5,-635.5"/>
<polygon fill="none" stroke="#666666" points="322,-619 322,-668 413,-668 413,-619 322,-619"/>
</a>
</g>
</g>
<!-- Node6&#45;&gt;Node5 -->
<g id="edge7_Node000005_Node000006" class="edge">
<title>Node6&#45;&gt;Node5</title>
<g id="a_edge7_Node000005_Node000006"><a xlink:title=" ">
<path fill="none" stroke="#63b8ff" d="M346.61,-610.2C341.03,-601.58 334.77,-591.89 328.38,-582.01"/>
<polygon fill="none" stroke="#63b8ff" points="343.78,-612.27 352.15,-618.76 349.65,-608.47 343.78,-612.27"/>
</a>
</g>
</g>
<!-- Node7 -->
<g id="Node000007" class="node">
<title>Node7</title>
<g id="a_Node000007"><a xlink:href="classGuildmaster_1_1Data_1_1Definitions_1_1VesselData.html" target="_top" xlink:title="«Пилот» — носитель реликвии.">
<polygon fill="white" stroke="transparent" points="531,-552 376,-552 376,-462 531,-462 531,-552"/>
<text text-anchor="start" x="381.5" y="-540" font-family="Helvetica,sans-Serif" font-size="10.00">Guildmaster.Data.Definitions.</text>
<text text-anchor="start" x="426.5" y="-529" font-family="Helvetica,sans-Serif" font-size="10.00">VesselData</text>
<text text-anchor="start" x="392.5" y="-514" font-family="Helvetica,sans-Serif" font-size="10.00">+</text>
<text text-anchor="start" x="417.5" y="-514" font-family="Helvetica,sans-Serif" font-size="10.00">DisplayNameKey</text>
<text text-anchor="start" x="392.5" y="-499" font-family="Helvetica,sans-Serif" font-size="10.00">+</text>
<text text-anchor="start" x="417.5" y="-499" font-family="Helvetica,sans-Serif" font-size="10.00">Tags</text>
<text text-anchor="start" x="392.5" y="-484" font-family="Helvetica,sans-Serif" font-size="10.00">+</text>
<text text-anchor="start" x="417.5" y="-484" font-family="Helvetica,sans-Serif" font-size="10.00">TalentModifiers</text>
<text text-anchor="start" x="452" y="-469" font-family="Helvetica,sans-Serif" font-size="10.00"> </text>
<polygon fill="#666666" stroke="#666666" points="376.5,-524 376.5,-524 531.5,-524 531.5,-524 376.5,-524"/>
<polygon fill="#666666" stroke="#666666" points="376.5,-479 376.5,-479 415.5,-479 415.5,-479 376.5,-479"/>
<polygon fill="#666666" stroke="#666666" points="415.5,-479 415.5,-479 531.5,-479 531.5,-479 415.5,-479"/>
<polygon fill="none" stroke="#666666" points="376,-462 376,-552 531,-552 531,-462 376,-462"/>
</a>
</g>
</g>
<!-- Node6&#45;&gt;Node7 -->
<g id="edge9_Node000007_Node000006" class="edge">
<title>Node6&#45;&gt;Node7</title>
<g id="a_edge9_Node000007_Node000006"><a xlink:title=" ">
<path fill="none" stroke="#63b8ff" d="M388.21,-610.1C399.33,-592.72 413.19,-571.05 425.27,-552.15"/>
<polygon fill="none" stroke="#63b8ff" points="385.12,-608.45 382.68,-618.76 391.01,-612.22 385.12,-608.45"/>
</a>
</g>
</g>
<!-- Node7&#45;&gt;Node1 -->
<g id="edge11_Node000001_Node000007" class="edge">
<title>Node7&#45;&gt;Node1</title>
<g id="a_edge11_Node000001_Node000007"><a xlink:title=" ">
<path fill="none" stroke="#63b8ff" d="M452.16,-461.94C449.21,-403.94 439.76,-299.55 409.5,-216 405.12,-203.89 399.55,-191.68 393.4,-179.83"/>
<polygon fill="none" stroke="#63b8ff" points="393.3,-179.64 386.93,-176.25 387.62,-169.07 393.98,-172.46 393.3,-179.64"/>
</a>
</g>
<text text-anchor="middle" x="467" y="-298" font-family="Helvetica,sans-Serif" font-size="10.00" fill="grey"> +Vessel</text>
</g>
<!-- Node7&#45;&gt;Node4 -->
<g id="edge8_Node000004_Node000007" class="edge">
<title>Node7&#45;&gt;Node4</title>
<g id="a_edge8_Node000004_Node000007"><a xlink:title=" ">
<path fill="none" stroke="#63b8ff" d="M404.43,-461.77C392.59,-451.66 379.8,-441.2 367.5,-432 334.77,-407.53 297.54,-382.69 264.04,-361.35"/>
<polygon fill="none" stroke="#63b8ff" points="263.91,-361.27 256.7,-361.43 253.77,-354.84 260.98,-354.68 263.91,-361.27"/>
</a>
</g>
<text text-anchor="middle" x="362" y="-406" font-family="Helvetica,sans-Serif" font-size="10.00" fill="grey"> +Vessel</text>
</g>
</g>
</svg>
