<?xml version="1.0" encoding="UTF-8" standalone="no"?>
<!DOCTYPE svg PUBLIC "-//W3C//DTD SVG 1.1//EN"
 "http://www.w3.org/Graphics/SVG/1.1/DTD/svg11.dtd">
<!-- Generated by graphviz version 2.43.0 (0)
 -->
<!-- Title: Guildmaster.Combat.Stats.Get Pages: 1 -->
<svg width="571pt" height="326pt"
 viewBox="0.00 0.00 571.00 326.00" xmlns="http://www.w3.org/2000/svg" xmlns:xlink="http://www.w3.org/1999/xlink">
<g id="graph0" class="graph" transform="scale(1 1) rotate(0) translate(4 322)">
<title>Guildmaster.Combat.Stats.Get</title>
<!-- Node1 -->
<g id="Node000001" class="node">
<title>Node1</title>
<g id="a_Node000001"><a xlink:title="Итоговое значение стата после всех модификаторов и клампов.">
<polygon fill="#999999" stroke="#666666" points="563,-168.5 398,-168.5 398,-149.5 563,-149.5 563,-168.5"/>
<text text-anchor="middle" x="480.5" y="-156.5" font-family="Helvetica,sans-Serif" font-size="10.00">Guildmaster.Combat.Stats.Get</text>
</a>
</g>
</g>
<!-- Node2 -->
<g id="Node000002" class="node">
<title>Node2</title>
<g id="a_Node000002"><a xlink:href="classGuildmaster_1_1Presentation_1_1HealthBarView.html#addca237a220d26640e8bef0b174d1134" target="_top" xlink:title="Привязать к юниту для первоначальной отрисовки.">
<polygon fill="white" stroke="#666666" points="346.5,-318 203.5,-318 203.5,-288 346.5,-288 346.5,-318"/>
<text text-anchor="start" x="211.5" y="-306" font-family="Helvetica,sans-Serif" font-size="10.00">Guildmaster.Presentation.</text>
<text text-anchor="middle" x="275" y="-295" font-family="Helvetica,sans-Serif" font-size="10.00">HealthBarView.Bind</text>
</a>
</g>
</g>
<!-- Node1&#45;&gt;Node2 -->
<g id="edge1_Node000001_Node000002" class="edge">
<title>Node1&#45;&gt;Node2</title>
<g id="a_edge1_Node000001_Node000002"><a xlink:title=" ">
<path fill="none" stroke="#63b8ff" d="M466.75,-177.08C447.22,-203.44 407.35,-252.18 362,-279 356.26,-282.39 350.03,-285.32 343.62,-287.85"/>
<polygon fill="#63b8ff" stroke="#63b8ff" points="469.75,-178.91 472.79,-168.76 464.08,-174.8 469.75,-178.91"/>
</a>
</g>
</g>
<!-- Node4 -->
<g id="Node000004" class="node">
<title>Node4</title>
<g id="a_Node000004"><a xlink:href="classGuildmaster_1_1Combat_1_1RuntimeUnitFactory.html#a261369f433994727bbd075e6520ac237" target="_top" xlink:title="Создать RuntimeUnit из SO&#45;данных.">
<polygon fill="white" stroke="#666666" points="355.5,-270 194.5,-270 194.5,-240 355.5,-240 355.5,-270"/>
<text text-anchor="start" x="202.5" y="-258" font-family="Helvetica,sans-Serif" font-size="10.00">Guildmaster.Combat.Runtime</text>
<text text-anchor="middle" x="275" y="-247" font-family="Helvetica,sans-Serif" font-size="10.00">UnitFactory.Create</text>
</a>
</g>
</g>
<!-- Node1&#45;&gt;Node4 -->
<g id="edge3_Node000001_Node000004" class="edge">
<title>Node1&#45;&gt;Node4</title>
<g id="a_edge3_Node000001_Node000004"><a xlink:title=" ">
<path fill="none" stroke="#63b8ff" d="M458.16,-174.6C435.35,-190.66 397.63,-215.48 362,-231 354.33,-234.34 346.06,-237.34 337.8,-240"/>
<polygon fill="#63b8ff" stroke="#63b8ff" points="460.31,-177.37 466.42,-168.71 456.25,-171.67 460.31,-177.37"/>
</a>
</g>
</g>
<!-- Node5 -->
<g id="Node000005" class="node">
<title>Node5</title>
<g id="a_Node000005"><a xlink:href="classGuildmaster_1_1Combat_1_1CombatSimulation.html#a3edf9fdf873a5ebddd75420669bdb8c2" target="_top" xlink:title="Исцелить юнита. Не выходит за MaxHP.">
<polygon fill="white" stroke="#666666" points="354,-222 196,-222 196,-192 354,-192 354,-222"/>
<text text-anchor="start" x="204" y="-210" font-family="Helvetica,sans-Serif" font-size="10.00">Guildmaster.Combat.Combat</text>
<text text-anchor="middle" x="275" y="-199" font-family="Helvetica,sans-Serif" font-size="10.00">Simulation.Heal</text>
</a>
</g>
</g>
<!-- Node1&#45;&gt;Node5 -->
<g id="edge4_Node000001_Node000005" class="edge">
<title>Node1&#45;&gt;Node5</title>
<g id="a_edge4_Node000001_Node000005"><a xlink:title=" ">
<path fill="none" stroke="#63b8ff" d="M428.83,-170.95C401.91,-177.3 368.54,-185.17 339.86,-191.94"/>
<polygon fill="#63b8ff" stroke="#63b8ff" points="429.88,-174.3 438.81,-168.6 428.27,-167.49 429.88,-174.3"/>
</a>
</g>
</g>
<!-- Node6 -->
<g id="Node000006" class="node">
<title>Node6</title>
<g id="a_Node000006"><a xlink:href="classGuildmaster_1_1Combat_1_1MovementSystem.html#ae81eb146f149fe4cc225406250d96c06" target="_top" xlink:title="Продвинуть позиции всех живых юнитов на один тик.">
<polygon fill="white" stroke="#666666" points="361.5,-174 188.5,-174 188.5,-144 361.5,-144 361.5,-174"/>
<text text-anchor="start" x="196.5" y="-162" font-family="Helvetica,sans-Serif" font-size="10.00">Guildmaster.Combat.Movement</text>
<text text-anchor="middle" x="275" y="-151" font-family="Helvetica,sans-Serif" font-size="10.00">System.Tick</text>
</a>
</g>
</g>
<!-- Node1&#45;&gt;Node6 -->
<g id="edge5_Node000001_Node000006" class="edge">
<title>Node1&#45;&gt;Node6</title>
<g id="a_edge5_Node000001_Node000006"><a xlink:title=" ">
<path fill="none" stroke="#63b8ff" d="M387.75,-159C379.05,-159 370.25,-159 361.61,-159"/>
<polygon fill="#63b8ff" stroke="#63b8ff" points="387.9,-162.5 397.9,-159 387.9,-155.5 387.9,-162.5"/>
</a>
</g>
</g>
<!-- Node7 -->
<g id="Node000007" class="node">
<title>Node7</title>
<g id="a_Node000007"><a xlink:href="classGuildmaster_1_1Combat_1_1AutoAttackSystem.html#a0f41579d23e8074e346e93e793eb0f5b" target="_top" xlink:title="Обработать автоатаки всех живых юнитов за один тик.">
<polygon fill="white" stroke="#666666" points="362,-126 188,-126 188,-96 362,-96 362,-126"/>
<text text-anchor="start" x="196" y="-114" font-family="Helvetica,sans-Serif" font-size="10.00">Guildmaster.Combat.AutoAttack</text>
<text text-anchor="middle" x="275" y="-103" font-family="Helvetica,sans-Serif" font-size="10.00">System.Tick</text>
</a>
</g>
</g>
<!-- Node1&#45;&gt;Node7 -->
<g id="edge6_Node000001_Node000007" class="edge">
<title>Node1&#45;&gt;Node7</title>
<g id="a_edge6_Node000001_Node000007"><a xlink:title=" ">
<path fill="none" stroke="#63b8ff" d="M428.83,-147.05C401.91,-140.7 368.54,-132.83 339.86,-126.06"/>
<polygon fill="#63b8ff" stroke="#63b8ff" points="428.27,-150.51 438.81,-149.4 429.88,-143.7 428.27,-150.51"/>
</a>
</g>
</g>
<!-- Node8 -->
<g id="Node000008" class="node">
<title>Node8</title>
<g id="a_Node000008"><a xlink:href="classGuildmaster_1_1Combat_1_1AbilitySystem.html#a0cedfa4ba0cd96a1b321dbbde5983bc8" target="_top" xlink:title="Попытаться скастовать способность abilityIndex .">
<polygon fill="white" stroke="#666666" points="351,-78 199,-78 199,-48 351,-48 351,-78"/>
<text text-anchor="start" x="207" y="-66" font-family="Helvetica,sans-Serif" font-size="10.00">Guildmaster.Combat.Ability</text>
<text text-anchor="middle" x="275" y="-55" font-family="Helvetica,sans-Serif" font-size="10.00">System.TryCast</text>
</a>
</g>
</g>
<!-- Node1&#45;&gt;Node8 -->
<g id="edge7_Node000001_Node000008" class="edge">
<title>Node1&#45;&gt;Node8</title>
<g id="a_edge7_Node000001_Node000008"><a xlink:title=" ">
<path fill="none" stroke="#63b8ff" d="M458.16,-143.4C435.35,-127.34 397.63,-102.52 362,-87 354.33,-83.66 346.06,-80.66 337.8,-78"/>
<polygon fill="#63b8ff" stroke="#63b8ff" points="456.25,-146.33 466.42,-149.29 460.31,-140.63 456.25,-146.33"/>
</a>
</g>
</g>
<!-- Node10 -->
<g id="Node000010" class="node">
<title>Node10</title>
<g id="a_Node000010"><a xlink:href="classGuildmaster_1_1Presentation_1_1UnitView.html#a25961c760cc2434fa8f210178cf3e8e3" target="_top" xlink:title="Обновить интерполированную позицию.">
<polygon fill="white" stroke="#666666" points="355.5,-30 194.5,-30 194.5,0 355.5,0 355.5,-30"/>
<text text-anchor="start" x="202.5" y="-18" font-family="Helvetica,sans-Serif" font-size="10.00">Guildmaster.Presentation.</text>
<text text-anchor="middle" x="275" y="-7" font-family="Helvetica,sans-Serif" font-size="10.00">UnitView.UpdateInterpolation</text>
</a>
</g>
</g>
<!-- Node1&#45;&gt;Node10 -->
<g id="edge9_Node000001_Node000010" class="edge">
<title>Node1&#45;&gt;Node10</title>
<g id="a_edge9_Node000001_Node000010"><a xlink:title=" ">
<path fill="none" stroke="#63b8ff" d="M466.75,-140.92C447.22,-114.56 407.35,-65.82 362,-39 356.26,-35.61 350.03,-32.68 343.62,-30.15"/>
<polygon fill="#63b8ff" stroke="#63b8ff" points="464.08,-143.2 472.79,-149.24 469.75,-139.09 464.08,-143.2"/>
</a>
</g>
</g>
<!-- Node3 -->
<g id="Node000003" class="node">
<title>Node3</title>
<g id="a_Node000003"><a xlink:href="classGuildmaster_1_1Presentation_1_1UnitView.html#a255f8da9e7913276471739aea28ffe45" target="_top" xlink:title="Связать вид с рантайм&#45;юнитом.">
<polygon fill="white" stroke="#666666" points="147.5,-318 4.5,-318 4.5,-288 147.5,-288 147.5,-318"/>
<text text-anchor="start" x="12.5" y="-306" font-family="Helvetica,sans-Serif" font-size="10.00">Guildmaster.Presentation.</text>
<text text-anchor="middle" x="76" y="-295" font-family="Helvetica,sans-Serif" font-size="10.00">UnitView.Bind</text>
</a>
</g>
</g>
<!-- Node2&#45;&gt;Node3 -->
<g id="edge2_Node000002_Node000003" class="edge">
<title>Node2&#45;&gt;Node3</title>
<g id="a_edge2_Node000002_Node000003"><a xlink:title=" ">
<path fill="none" stroke="#63b8ff" d="M193.12,-303C178.07,-303 162.45,-303 147.73,-303"/>
<polygon fill="#63b8ff" stroke="#63b8ff" points="193.43,-306.5 203.43,-303 193.43,-299.5 193.43,-306.5"/>
</a>
</g>
</g>
<!-- Node9 -->
<g id="Node000009" class="node">
<title>Node9</title>
<g id="a_Node000009"><a xlink:href="classGuildmaster_1_1Combat_1_1AbilitySystem.html#aaf936034ee2d2b14afc73a060e1875f4" target="_top" xlink:title=" ">
<polygon fill="white" stroke="#666666" points="152,-78 0,-78 0,-48 152,-48 152,-78"/>
<text text-anchor="start" x="8" y="-66" font-family="Helvetica,sans-Serif" font-size="10.00">Guildmaster.Combat.Ability</text>
<text text-anchor="middle" x="76" y="-55" font-family="Helvetica,sans-Serif" font-size="10.00">System.Tick</text>
</a>
</g>
</g>
<!-- Node8&#45;&gt;Node9 -->
<g id="edge8_Node000008_Node000009" class="edge">
<title>Node8&#45;&gt;Node9</title>
<g id="a_edge8_Node000008_Node000009"><a xlink:title=" ">
<path fill="none" stroke="#63b8ff" d="M188.8,-63C176.61,-63 164.14,-63 152.16,-63"/>
<polygon fill="#63b8ff" stroke="#63b8ff" points="188.96,-66.5 198.96,-63 188.96,-59.5 188.96,-66.5"/>
</a>
</g>
</g>
</g>
</svg>
