<?xml version="1.0" encoding="UTF-8" standalone="no"?>
<!DOCTYPE svg PUBLIC "-//W3C//DTD SVG 1.1//EN"
 "http://www.w3.org/Graphics/SVG/1.1/DTD/svg11.dtd">
<!-- Generated by graphviz version 2.43.0 (0)
 -->
<!-- Title: Guildmaster.Game.Services.UnityAudioService Pages: 1 -->
<svg width="157pt" height="213pt"
 viewBox="0.00 0.00 157.00 213.00" xmlns="http://www.w3.org/2000/svg" xmlns:xlink="http://www.w3.org/1999/xlink">

<svg id="main" version="1.1" xmlns="http://www.w3.org/2000/svg" xmlns:xlink="http://www.w3.org/1999/xlink" xml:space="preserve" onload="init(evt)">
<style type="text/css"><![CDATA[
.node, .edge {opacity: 0.7;}
.node.selected, .edge.selected {opacity: 1;}
.edge:hover path { stroke: red; }
.edge:hover polygon { stroke: red; fill: red; }
]]></style>
<script type="application/ecmascript" xlink:href="svg.min.js"/>
<svg id="graph" class="graph">
<g id="graph0" class="graph" transform="scale(1 1) rotate(0) translate(4 209)">
<title>Guildmaster.Game.Services.UnityAudioService</title>
<!-- Node1 -->
<g id="Node000001" class="node">
<title>Node1</title>
<g id="a_Node000001"><a xlink:title="Заглушка IAudioService на Unity Audio.">
<polygon fill="#999999" stroke="transparent" points="149,-90 0,-90 0,0 149,0 149,-90"/>
<text text-anchor="start" x="5.5" y="-78" font-family="Helvetica,sans-Serif" font-size="10.00">Guildmaster.Game.Services.</text>
<text text-anchor="start" x="29.5" y="-67" font-family="Helvetica,sans-Serif" font-size="10.00">UnityAudioService</text>
<text text-anchor="start" x="73" y="-52" font-family="Helvetica,sans-Serif" font-size="10.00"> </text>
<text text-anchor="start" x="14" y="-37" font-family="Helvetica,sans-Serif" font-size="10.00">+</text>
<text text-anchor="start" x="36.5" y="-37" font-family="Helvetica,sans-Serif" font-size="10.00">Play()</text>
<text text-anchor="start" x="14" y="-22" font-family="Helvetica,sans-Serif" font-size="10.00">+</text>
<text text-anchor="start" x="36.5" y="-22" font-family="Helvetica,sans-Serif" font-size="10.00">Stop()</text>
<text text-anchor="start" x="14" y="-7" font-family="Helvetica,sans-Serif" font-size="10.00">+</text>
<text text-anchor="start" x="36.5" y="-7" font-family="Helvetica,sans-Serif" font-size="10.00">SetMusicVolume()</text>
<polygon fill="#666666" stroke="#666666" points="0.5,-62 0.5,-62 149.5,-62 149.5,-62 0.5,-62"/>
<polygon fill="#666666" stroke="#666666" points="0.5,-47 0.5,-47 149.5,-47 149.5,-47 0.5,-47"/>
<polygon fill="none" stroke="#666666" points="0,0 0,-90 149,-90 149,0 0,0"/>
</a>
</g>
</g>
<!-- Node2 -->
<g id="Node000002" class="node">
<title>Node2</title>
<g id="a_Node000002"><a xlink:href="interfaceGuildmaster_1_1Game_1_1Services_1_1IAudioService.html" target="_top" xlink:title="Фасад звуковой подсистемы.">
<polygon fill="white" stroke="transparent" points="129.5,-205 19.5,-205 19.5,-126 129.5,-126 129.5,-205"/>
<text text-anchor="start" x="41" y="-192.5" font-family="Helvetica,sans-Serif" font-size="10.00">IAudioService</text>
<text text-anchor="start" x="72.5" y="-177.5" font-family="Helvetica,sans-Serif" font-size="10.00"> </text>
<text text-anchor="start" x="23.5" y="-162.5" font-family="Helvetica,sans-Serif" font-size="10.00">+</text>
<text text-anchor="start" x="36.5" y="-162.5" font-family="Helvetica,sans-Serif" font-size="10.00">Play()</text>
<text text-anchor="start" x="23.5" y="-147.5" font-family="Helvetica,sans-Serif" font-size="10.00">+</text>
<text text-anchor="start" x="36.5" y="-147.5" font-family="Helvetica,sans-Serif" font-size="10.00">Stop()</text>
<text text-anchor="start" x="23.5" y="-132.5" font-family="Helvetica,sans-Serif" font-size="10.00">+</text>
<text text-anchor="start" x="36.5" y="-132.5" font-family="Helvetica,sans-Serif" font-size="10.00">SetMusicVolume()</text>
<polygon fill="#666666" stroke="#666666" points="19.5,-187.5 19.5,-187.5 129.5,-187.5 129.5,-187.5 19.5,-187.5"/>
<polygon fill="#666666" stroke="#666666" points="19.5,-172.5 19.5,-172.5 129.5,-172.5 129.5,-172.5 19.5,-172.5"/>
<polygon fill="none" stroke="#666666" points="19.5,-126 19.5,-205 129.5,-205 129.5,-126 19.5,-126"/>
</a>
</g>
</g>
<!-- Node2&#45;&gt;Node1 -->
<g id="edge1_Node000001_Node000002" class="edge">
<title>Node2&#45;&gt;Node1</title>
<g id="a_edge1_Node000001_Node000002"><a xlink:title=" ">
<path fill="none" stroke="#63b8ff" d="M74.5,-115.63C74.5,-107.21 74.5,-98.51 74.5,-90.23"/>
<polygon fill="none" stroke="#63b8ff" points="71,-115.7 74.5,-125.7 78,-115.7 71,-115.7"/>
</a>
</g>
</g>
</g>
</svg>
</svg>

<style type='text/css'>
<![CDATA[
[data-mouse-over-selected='false'] { opacity: 0.7; }
[data-mouse-over-selected='true']  { opacity: 1.0; }
]]>
</style>
<script type="application/ecmascript"><![CDATA[
document.addEventListener('DOMContentLoaded', (event) => {
  highlightEdges();
  highlightAdjacentNodes();
});
]]></script>
</svg>
