<?xml version="1.0" encoding="UTF-8" standalone="no"?>
<!DOCTYPE svg PUBLIC "-//W3C//DTD SVG 1.1//EN"
 "http://www.w3.org/Graphics/SVG/1.1/DTD/svg11.dtd">
<!-- Generated by graphviz version 2.43.0 (0)
 -->
<!-- Title: Guildmaster.Game.CombatLifetimeScope Pages: 1 -->
<svg width="192pt" height="153pt"
 viewBox="0.00 0.00 192.00 153.00" xmlns="http://www.w3.org/2000/svg" xmlns:xlink="http://www.w3.org/1999/xlink">
<g id="graph0" class="graph" transform="scale(1 1) rotate(0) translate(4 149)">
<title>Guildmaster.Game.CombatLifetimeScope</title>
<!-- Node1 -->
<g id="Node000001" class="node">
<title>Node1</title>
<g id="a_Node000001"><a xlink:title="Дочерний DI&#45;скоуп BattleScene.">
<polygon fill="#999999" stroke="transparent" points="184,-60 0,-60 0,0 184,0 184,-60"/>
<text text-anchor="start" x="5" y="-48" font-family="Helvetica,sans-Serif" font-size="10.00">Guildmaster.Game.CombatLifetime</text>
<text text-anchor="start" x="77" y="-37" font-family="Helvetica,sans-Serif" font-size="10.00">Scope</text>
<text text-anchor="start" x="90" y="-22" font-family="Helvetica,sans-Serif" font-size="10.00"> </text>
<text text-anchor="start" x="31" y="-7" font-family="Helvetica,sans-Serif" font-size="10.00">#</text>
<text text-anchor="start" x="71" y="-7" font-family="Helvetica,sans-Serif" font-size="10.00">Configure()</text>
<polygon fill="#666666" stroke="#666666" points="0,-32 0,-32 184,-32 184,-32 0,-32"/>
<polygon fill="#666666" stroke="#666666" points="0,-17 0,-17 184,-17 184,-17 0,-17"/>
<polygon fill="none" stroke="#666666" points="0,0 0,-60 184,-60 184,0 0,0"/>
</a>
</g>
</g>
<!-- Node2 -->
<g id="Node000002" class="node">
<title>Node2</title>
<g id="a_Node000002"><a xlink:title=" ">
<polygon fill="white" stroke="transparent" points="132,-145 52,-145 52,-96 132,-96 132,-145"/>
<text text-anchor="start" x="57" y="-132.5" font-family="Helvetica,sans-Serif" font-size="10.00">LifetimeScope</text>
<text text-anchor="start" x="90" y="-117.5" font-family="Helvetica,sans-Serif" font-size="10.00"> </text>
<text text-anchor="start" x="90" y="-102.5" font-family="Helvetica,sans-Serif" font-size="10.00"> </text>
<polygon fill="#666666" stroke="#666666" points="52,-127.5 52,-127.5 132,-127.5 132,-127.5 52,-127.5"/>
<polygon fill="#666666" stroke="#666666" points="52,-112.5 52,-112.5 132,-112.5 132,-112.5 52,-112.5"/>
<polygon fill="none" stroke="#666666" points="52,-96 52,-145 132,-145 132,-96 52,-96"/>
</a>
</g>
</g>
<!-- Node2&#45;&gt;Node1 -->
<g id="edge1_Node000001_Node000002" class="edge">
<title>Node2&#45;&gt;Node1</title>
<g id="a_edge1_Node000001_Node000002"><a xlink:title=" ">
<path fill="none" stroke="#63b8ff" d="M92,-85.55C92,-77.18 92,-68.28 92,-60.16"/>
<polygon fill="none" stroke="#63b8ff" points="88.5,-85.78 92,-95.78 95.5,-85.78 88.5,-85.78"/>
</a>
</g>
</g>
</g>
</svg>
