<?xml version="1.0" encoding="UTF-8" standalone="no"?>
<!DOCTYPE svg PUBLIC "-//W3C//DTD SVG 1.1//EN"
 "http://www.w3.org/Graphics/SVG/1.1/DTD/svg11.dtd">
<!-- Generated by graphviz version 2.43.0 (0)
 -->
<!-- Title: Guildmaster.Game.Session.Net.DecisionCodec.WriteVote Pages: 1 -->
<svg width="582pt" height="134pt"
 viewBox="0.00 0.00 582.00 134.00" xmlns="http://www.w3.org/2000/svg" xmlns:xlink="http://www.w3.org/1999/xlink">
<g id="graph0" class="graph" transform="scale(1 1) rotate(0) translate(4 130)">
<title>Guildmaster.Game.Session.Net.DecisionCodec.WriteVote</title>
<!-- Node1 -->
<g id="Node000001" class="node">
<title>Node1</title>
<g id="a_Node000001"><a xlink:title="Отдать свой голос: участник → хозяин.">
<polygon fill="#999999" stroke="#666666" points="160,-78 0,-78 0,-48 160,-48 160,-78"/>
<text text-anchor="start" x="8" y="-66" font-family="Helvetica,sans-Serif" font-size="10.00">Guildmaster.Game.Session.</text>
<text text-anchor="middle" x="80" y="-55" font-family="Helvetica,sans-Serif" font-size="10.00">Net.DecisionCodec.WriteVote</text>
</a>
</g>
</g>
<!-- Node2 -->
<g id="Node000002" class="node">
<title>Node2</title>
<g id="a_Node000002"><a xlink:href="classGuildmaster_1_1Net_1_1NetByteWriter.html#abac66cddf5479c1c88169b155b0851fe" target="_top" xlink:title="Начать писать заново, сохранив выделенный буфер: чанки идут потоком, мусорить нельзя.">
<polygon fill="white" stroke="#666666" points="367,-126 196,-126 196,-96 367,-96 367,-126"/>
<text text-anchor="start" x="204" y="-114" font-family="Helvetica,sans-Serif" font-size="10.00">Guildmaster.Net.NetByteWriter.</text>
<text text-anchor="middle" x="281.5" y="-103" font-family="Helvetica,sans-Serif" font-size="10.00">Reset</text>
</a>
</g>
</g>
<!-- Node1&#45;&gt;Node2 -->
<g id="edge1_Node000001_Node000002" class="edge">
<title>Node1&#45;&gt;Node2</title>
<g id="a_edge1_Node000001_Node000002"><a xlink:title=" ">
<path fill="none" stroke="#63b8ff" d="M143.58,-78.06C164.09,-82.99 187.06,-88.52 208.24,-93.61"/>
<polygon fill="#63b8ff" stroke="#63b8ff" points="207.61,-97.06 218.15,-96 209.24,-90.26 207.61,-97.06"/>
</a>
</g>
</g>
<!-- Node3 -->
<g id="Node000003" class="node">
<title>Node3</title>
<g id="a_Node000003"><a xlink:href="classGuildmaster_1_1Net_1_1NetByteWriter.html#af256f1c6c9d97a315975b2a95fdbd8e1" target="_top" xlink:title=" ">
<polygon fill="white" stroke="#666666" points="367,-78 196,-78 196,-48 367,-48 367,-78"/>
<text text-anchor="start" x="204" y="-66" font-family="Helvetica,sans-Serif" font-size="10.00">Guildmaster.Net.NetByteWriter.</text>
<text text-anchor="middle" x="281.5" y="-55" font-family="Helvetica,sans-Serif" font-size="10.00">WriteByte</text>
</a>
</g>
</g>
<!-- Node1&#45;&gt;Node3 -->
<g id="edge2_Node000001_Node000003" class="edge">
<title>Node1&#45;&gt;Node3</title>
<g id="a_edge2_Node000001_Node000003"><a xlink:title=" ">
<path fill="none" stroke="#63b8ff" d="M160.13,-63C168.58,-63 177.23,-63 185.83,-63"/>
<polygon fill="#63b8ff" stroke="#63b8ff" points="185.89,-66.5 195.89,-63 185.89,-59.5 185.89,-66.5"/>
</a>
</g>
</g>
<!-- Node4 -->
<g id="Node000004" class="node">
<title>Node4</title>
<g id="a_Node000004"><a xlink:href="classGuildmaster_1_1Net_1_1NetByteWriter.html#a783d9e388e2924706fd0549a4eeeca73" target="_top" xlink:title="Строка как длина + UTF&#45;8.">
<polygon fill="white" stroke="#666666" points="367,-30 196,-30 196,0 367,0 367,-30"/>
<text text-anchor="start" x="204" y="-18" font-family="Helvetica,sans-Serif" font-size="10.00">Guildmaster.Net.NetByteWriter.</text>
<text text-anchor="middle" x="281.5" y="-7" font-family="Helvetica,sans-Serif" font-size="10.00">WriteString</text>
</a>
</g>
</g>
<!-- Node1&#45;&gt;Node4 -->
<g id="edge3_Node000001_Node000004" class="edge">
<title>Node1&#45;&gt;Node4</title>
<g id="a_edge3_Node000001_Node000004"><a xlink:title=" ">
<path fill="none" stroke="#63b8ff" d="M143.58,-47.94C164.09,-43.01 187.06,-37.48 208.24,-32.39"/>
<polygon fill="#63b8ff" stroke="#63b8ff" points="209.24,-35.74 218.15,-30 207.61,-28.94 209.24,-35.74"/>
</a>
</g>
</g>
<!-- Node5 -->
<g id="Node000005" class="node">
<title>Node5</title>
<g id="a_Node000005"><a xlink:href="classGuildmaster_1_1Net_1_1NetByteWriter.html#ab09035f497e2a2eaebc8991801f7f3bb" target="_top" xlink:title=" ">
<polygon fill="white" stroke="#666666" points="574,-30 403,-30 403,0 574,0 574,-30"/>
<text text-anchor="start" x="411" y="-18" font-family="Helvetica,sans-Serif" font-size="10.00">Guildmaster.Net.NetByteWriter.</text>
<text text-anchor="middle" x="488.5" y="-7" font-family="Helvetica,sans-Serif" font-size="10.00">WriteUShort</text>
</a>
</g>
</g>
<!-- Node4&#45;&gt;Node5 -->
<g id="edge4_Node000004_Node000005" class="edge">
<title>Node4&#45;&gt;Node5</title>
<g id="a_edge4_Node000004_Node000005"><a xlink:title=" ">
<path fill="none" stroke="#63b8ff" d="M367.06,-15C375.55,-15 384.2,-15 392.78,-15"/>
<polygon fill="#63b8ff" stroke="#63b8ff" points="392.8,-18.5 402.8,-15 392.8,-11.5 392.8,-18.5"/>
</a>
</g>
</g>
</g>
</svg>
