<?xml version="1.0" encoding="UTF-8" standalone="no"?>
<!DOCTYPE svg PUBLIC "-//W3C//DTD SVG 1.1//EN"
 "http://www.w3.org/Graphics/SVG/1.1/DTD/svg11.dtd">
<!-- Generated by graphviz version 2.43.0 (0)
 -->
<!-- Title: Guildmaster.Combat.Effects.Components.ControlComponent Pages: 1 -->
<svg width="175pt" height="298pt"
 viewBox="0.00 0.00 175.00 298.00" xmlns="http://www.w3.org/2000/svg" xmlns:xlink="http://www.w3.org/1999/xlink">
<g id="graph0" class="graph" transform="scale(1 1) rotate(0) translate(4 294)">
<title>Guildmaster.Combat.Effects.Components.ControlComponent</title>
<!-- Node1 -->
<g id="Node000001" class="node">
<title>Node1</title>
<g id="a_Node000001"><a xlink:title="Контроль: запрещает действия носителю на время эффекта.">
<polygon fill="#999999" stroke="transparent" points="167,-105 0,-105 0,0 167,0 167,-105"/>
<text text-anchor="start" x="5.5" y="-92.5" font-family="Helvetica,sans-Serif" font-size="10.00">Guildmaster.Combat.Effects.</text>
<text text-anchor="start" x="5.5" y="-81.5" font-family="Helvetica,sans-Serif" font-size="10.00">Components.ControlComponent</text>
<text text-anchor="start" x="24.5" y="-66.5" font-family="Helvetica,sans-Serif" font-size="10.00">+</text>
<text text-anchor="start" x="57.5" y="-66.5" font-family="Helvetica,sans-Serif" font-size="10.00">PreventAct</text>
<text text-anchor="start" x="24.5" y="-51.5" font-family="Helvetica,sans-Serif" font-size="10.00">+</text>
<text text-anchor="start" x="57.5" y="-51.5" font-family="Helvetica,sans-Serif" font-size="10.00">PreventMove</text>
<text text-anchor="start" x="24.5" y="-36.5" font-family="Helvetica,sans-Serif" font-size="10.00">+</text>
<text text-anchor="start" x="57.5" y="-36.5" font-family="Helvetica,sans-Serif" font-size="10.00">PreventCast</text>
<text text-anchor="start" x="24.5" y="-21.5" font-family="Helvetica,sans-Serif" font-size="10.00">+</text>
<text text-anchor="start" x="57.5" y="-21.5" font-family="Helvetica,sans-Serif" font-size="10.00">OnApply()</text>
<text text-anchor="start" x="24.5" y="-6.5" font-family="Helvetica,sans-Serif" font-size="10.00">+</text>
<text text-anchor="start" x="57.5" y="-6.5" font-family="Helvetica,sans-Serif" font-size="10.00">OnExpire()</text>
<polygon fill="#666666" stroke="#666666" points="0.5,-76.5 0.5,-76.5 167.5,-76.5 167.5,-76.5 0.5,-76.5"/>
<polygon fill="#666666" stroke="#666666" points="0.5,-31.5 0.5,-31.5 55.5,-31.5 55.5,-31.5 0.5,-31.5"/>
<polygon fill="#666666" stroke="#666666" points="55.5,-31.5 55.5,-31.5 167.5,-31.5 167.5,-31.5 55.5,-31.5"/>
<polygon fill="none" stroke="#666666" points="0,0 0,-105 167,-105 167,0 0,0"/>
</a>
</g>
</g>
<!-- Node2 -->
<g id="Node000002" class="node">
<title>Node2</title>
<g id="a_Node000002"><a xlink:href="interfaceGuildmaster_1_1Combat_1_1Effects_1_1IRuntimeEffectComponent.html" target="_top" xlink:title="Рантайм&#45;контракт поведения эффекта.">
<polygon fill="white" stroke="transparent" points="153,-205 14,-205 14,-141 153,-141 153,-205"/>
<text text-anchor="start" x="19.5" y="-193" font-family="Helvetica,sans-Serif" font-size="10.00">IRuntimeEffectComponent</text>
<text text-anchor="start" x="82" y="-178" font-family="Helvetica,sans-Serif" font-size="10.00"> </text>
<text text-anchor="start" x="35" y="-163" font-family="Helvetica,sans-Serif" font-size="10.00">+</text>
<text text-anchor="start" x="64.5" y="-163" font-family="Helvetica,sans-Serif" font-size="10.00">OnApply()</text>
<text text-anchor="start" x="35" y="-148" font-family="Helvetica,sans-Serif" font-size="10.00">+</text>
<text text-anchor="start" x="64.5" y="-148" font-family="Helvetica,sans-Serif" font-size="10.00">OnExpire()</text>
<polygon fill="#666666" stroke="#666666" points="14.5,-188 14.5,-188 153.5,-188 153.5,-188 14.5,-188"/>
<polygon fill="#666666" stroke="#666666" points="14.5,-173 14.5,-173 153.5,-173 153.5,-173 14.5,-173"/>
<polygon fill="none" stroke="#666666" points="14,-141 14,-205 153,-205 153,-141 14,-141"/>
</a>
</g>
</g>
<!-- Node2&#45;&gt;Node1 -->
<g id="edge1_Node000001_Node000002" class="edge">
<title>Node2&#45;&gt;Node1</title>
<g id="a_edge1_Node000001_Node000002"><a xlink:title=" ">
<path fill="none" stroke="#63b8ff" d="M83.5,-130.71C83.5,-122.42 83.5,-113.62 83.5,-105.04"/>
<polygon fill="none" stroke="#63b8ff" points="80,-130.87 83.5,-140.87 87,-130.87 80,-130.87"/>
</a>
</g>
</g>
<!-- Node3 -->
<g id="Node000003" class="node">
<title>Node3</title>
<g id="a_Node000003"><a xlink:href="interfaceGuildmaster_1_1Data_1_1Definitions_1_1IEffectComponent.html" target="_top" xlink:title="Якорь полиморфного поведения эффекта для сериализации.">
<polygon fill="white" stroke="transparent" points="132.5,-290 34.5,-290 34.5,-241 132.5,-241 132.5,-290"/>
<text text-anchor="start" x="39.5" y="-277.5" font-family="Helvetica,sans-Serif" font-size="10.00">IEffectComponent</text>
<text text-anchor="start" x="81.5" y="-262.5" font-family="Helvetica,sans-Serif" font-size="10.00"> </text>
<text text-anchor="start" x="81.5" y="-247.5" font-family="Helvetica,sans-Serif" font-size="10.00"> </text>
<polygon fill="#666666" stroke="#666666" points="34.5,-272.5 34.5,-272.5 132.5,-272.5 132.5,-272.5 34.5,-272.5"/>
<polygon fill="#666666" stroke="#666666" points="34.5,-257.5 34.5,-257.5 132.5,-257.5 132.5,-257.5 34.5,-257.5"/>
<polygon fill="none" stroke="#666666" points="34.5,-241 34.5,-290 132.5,-290 132.5,-241 34.5,-241"/>
</a>
</g>
</g>
<!-- Node3&#45;&gt;Node2 -->
<g id="edge2_Node000002_Node000003" class="edge">
<title>Node3&#45;&gt;Node2</title>
<g id="a_edge2_Node000002_Node000003"><a xlink:title=" ">
<path fill="none" stroke="#63b8ff" d="M83.5,-230.54C83.5,-222.2 83.5,-213.31 83.5,-205.11"/>
<polygon fill="none" stroke="#63b8ff" points="80,-230.72 83.5,-240.72 87,-230.72 80,-230.72"/>
</a>
</g>
</g>
</g>
</svg>
