<?xml version="1.0" encoding="UTF-8" standalone="no"?>
<!DOCTYPE svg PUBLIC "-//W3C//DTD SVG 1.1//EN"
 "http://www.w3.org/Graphics/SVG/1.1/DTD/svg11.dtd">
<!-- Generated by graphviz version 2.43.0 (0)
 -->
<!-- Title: Guildmaster.Combat.Projectile Pages: 1 -->
<!--zoomable 807 -->

<svg id="main" version="1.1" xmlns="http://www.w3.org/2000/svg" xmlns:xlink="http://www.w3.org/1999/xlink" xml:space="preserve" onload="init(evt)">
<style type="text/css"><![CDATA[
.node, .edge {opacity: 0.7;}
.node.selected, .edge.selected {opacity: 1;}
.edge:hover path { stroke: red; }
.edge:hover polygon { stroke: red; fill: red; }
]]></style>

<defs>
  <circle id="rim" cx="0" cy="0" r="7"/>
  <circle id="rim2" cx="0" cy="0" r="3.5"/>
  <g id="zoomPlus">
    <use xlink:href="#rim" fill="#404040"><set attributeName="fill" to="#808080" begin="zoomplus.mouseover" end="zoomplus.mouseout"/></use>
    <path d="M-4,0h8M0,-4v8" fill="none" stroke="white" stroke-width="1.5" pointer-events="none"/>
  </g>
  <g id="zoomMin">
    <use xlink:href="#rim" fill="#404040"><set attributeName="fill" to="#808080" begin="zoomminus.mouseover" end="zoomminus.mouseout"/></use>
    <path d="M-4,0h8" fill="none" stroke="white" stroke-width="1.5" pointer-events="none"/>
  </g>
  <g id="arrowUp" transform="translate(30 24)">
    <use xlink:href="#rim"/>
    <path pointer-events="none" fill="none" stroke="white" stroke-width="1.5" d="M0,-3.0v7 M-2.5,-0.5L0,-3.0L2.5,-0.5"/>
  </g>
  <g id="arrowRight" transform="rotate(90) translate(36 -43)">
    <use xlink:href="#rim"/>
    <path pointer-events="none" fill="none" stroke="white" stroke-width="1.5" d="M0,-3.0v7 M-2.5,-0.5L0,-3.0L2.5,-0.5"/>
  </g>
  <g id="arrowDown" transform="rotate(180) translate(-30 -48)">
    <use xlink:href="#rim"/>
    <path pointer-events="none" fill="none" stroke="white" stroke-width="1.5" d="M0,-3.0v7 M-2.5,-0.5L0,-3.0L2.5,-0.5"/>
  </g>
  <g id="arrowLeft" transform="rotate(270) translate(-36 17)">
    <use xlink:href="#rim"/>
    <path pointer-events="none" fill="none" stroke="white" stroke-width="1.5" d="M0,-3.0v7 M-2.5,-0.5L0,-3.0L2.5,-0.5"/>
  </g>
  <g id="resetDef">
    <use xlink:href="#rim2" fill="#404040"><set attributeName="fill" to="#808080" begin="reset.mouseover" end="reset.mouseout"/></use>
  </g>
</defs>
<script type="application/ecmascript">
var viewWidth = 493;
var viewHeight = 807;
var sectionId = 'dynsection-0';
</script>
<script type="application/ecmascript" xlink:href="svg.min.js"/>
<svg id="graph" class="graph">
<g id="viewport">
<title>Guildmaster.Combat.Projectile</title>
<!-- Node1 -->
<g id="Node000001" class="node">
<title>Node1</title>
<g id="a_Node000001"><a xlink:title="Рантайм&#45;данные одного снаряда.">
<polygon fill="#999999" stroke="transparent" points="314.5,-184 154.5,-184 154.5,0 314.5,0 314.5,-184"/>
<text text-anchor="start" x="159.5" y="-172" font-family="Helvetica,sans-Serif" font-size="10.00">Guildmaster.Combat.Projectile</text>
<text text-anchor="start" x="171" y="-157" font-family="Helvetica,sans-Serif" font-size="10.00">+</text>
<text text-anchor="start" x="196.5" y="-157" font-family="Helvetica,sans-Serif" font-size="10.00">Id</text>
<text text-anchor="start" x="171" y="-142" font-family="Helvetica,sans-Serif" font-size="10.00">+</text>
<text text-anchor="start" x="196.5" y="-142" font-family="Helvetica,sans-Serif" font-size="10.00">Position</text>
<text text-anchor="start" x="171" y="-127" font-family="Helvetica,sans-Serif" font-size="10.00">+</text>
<text text-anchor="start" x="196.5" y="-127" font-family="Helvetica,sans-Serif" font-size="10.00">PreviousPosition</text>
<text text-anchor="start" x="171" y="-112" font-family="Helvetica,sans-Serif" font-size="10.00">+</text>
<text text-anchor="start" x="196.5" y="-112" font-family="Helvetica,sans-Serif" font-size="10.00">Velocity</text>
<text text-anchor="start" x="171" y="-97" font-family="Helvetica,sans-Serif" font-size="10.00">+</text>
<text text-anchor="start" x="196.5" y="-97" font-family="Helvetica,sans-Serif" font-size="10.00">CollisionRadius</text>
<text text-anchor="start" x="171" y="-82" font-family="Helvetica,sans-Serif" font-size="10.00">+</text>
<text text-anchor="start" x="196.5" y="-82" font-family="Helvetica,sans-Serif" font-size="10.00">RawDamage</text>
<text text-anchor="start" x="171" y="-67" font-family="Helvetica,sans-Serif" font-size="10.00">+</text>
<text text-anchor="start" x="196.5" y="-67" font-family="Helvetica,sans-Serif" font-size="10.00">DamageType</text>
<text text-anchor="start" x="171" y="-52" font-family="Helvetica,sans-Serif" font-size="10.00">+</text>
<text text-anchor="start" x="196.5" y="-52" font-family="Helvetica,sans-Serif" font-size="10.00">ArmorK</text>
<text text-anchor="start" x="171" y="-37" font-family="Helvetica,sans-Serif" font-size="10.00">+</text>
<text text-anchor="start" x="196.5" y="-37" font-family="Helvetica,sans-Serif" font-size="10.00">PiercesRemaining</text>
<text text-anchor="start" x="171" y="-22" font-family="Helvetica,sans-Serif" font-size="10.00">+</text>
<text text-anchor="start" x="196.5" y="-22" font-family="Helvetica,sans-Serif" font-size="10.00">IsAlive</text>
<text text-anchor="start" x="232.5" y="-7" font-family="Helvetica,sans-Serif" font-size="10.00"> </text>
<polygon fill="#666666" stroke="#666666" points="154.5,-167 154.5,-167 314.5,-167 314.5,-167 154.5,-167"/>
<polygon fill="#666666" stroke="#666666" points="154.5,-17 154.5,-17 194.5,-17 194.5,-17 154.5,-17"/>
<polygon fill="#666666" stroke="#666666" points="194.5,-17 194.5,-17 314.5,-17 314.5,-17 194.5,-17"/>
<polygon fill="none" stroke="#666666" points="154.5,0 154.5,-184 314.5,-184 314.5,0 154.5,0"/>
</a>
</g>
</g>
<!-- Node2 -->
<g id="Node000002" class="node">
<title>Node2</title>
<g id="a_Node000002"><a xlink:href="classGuildmaster_1_1Combat_1_1RuntimeUnit.html" target="_top" xlink:title="Рантайм&#45;представление юнита на один бой.">
<polygon fill="white" stroke="transparent" points="322.5,-501 146.5,-501 146.5,-242 322.5,-242 322.5,-501"/>
<text text-anchor="start" x="151.5" y="-488.5" font-family="Helvetica,sans-Serif" font-size="10.00">Guildmaster.Combat.RuntimeUnit</text>
<text text-anchor="start" x="168.5" y="-473.5" font-family="Helvetica,sans-Serif" font-size="10.00">+</text>
<text text-anchor="start" x="199.5" y="-473.5" font-family="Helvetica,sans-Serif" font-size="10.00">Id</text>
<text text-anchor="start" x="168.5" y="-458.5" font-family="Helvetica,sans-Serif" font-size="10.00">+</text>
<text text-anchor="start" x="199.5" y="-458.5" font-family="Helvetica,sans-Serif" font-size="10.00">Team</text>
<text text-anchor="start" x="168.5" y="-443.5" font-family="Helvetica,sans-Serif" font-size="10.00">+</text>
<text text-anchor="start" x="199.5" y="-443.5" font-family="Helvetica,sans-Serif" font-size="10.00">CurrentHP</text>
<text text-anchor="start" x="168.5" y="-428.5" font-family="Helvetica,sans-Serif" font-size="10.00">+</text>
<text text-anchor="start" x="199.5" y="-428.5" font-family="Helvetica,sans-Serif" font-size="10.00">CurrentResource</text>
<text text-anchor="start" x="168.5" y="-413.5" font-family="Helvetica,sans-Serif" font-size="10.00">+</text>
<text text-anchor="start" x="199.5" y="-413.5" font-family="Helvetica,sans-Serif" font-size="10.00">CurrentShield</text>
<text text-anchor="start" x="168.5" y="-398.5" font-family="Helvetica,sans-Serif" font-size="10.00">+</text>
<text text-anchor="start" x="199.5" y="-398.5" font-family="Helvetica,sans-Serif" font-size="10.00">Position</text>
<text text-anchor="start" x="168.5" y="-383.5" font-family="Helvetica,sans-Serif" font-size="10.00">+</text>
<text text-anchor="start" x="199.5" y="-383.5" font-family="Helvetica,sans-Serif" font-size="10.00">PreviousPosition</text>
<text text-anchor="start" x="168.5" y="-368.5" font-family="Helvetica,sans-Serif" font-size="10.00">+</text>
<text text-anchor="start" x="199.5" y="-368.5" font-family="Helvetica,sans-Serif" font-size="10.00">AttackCooldown</text>
<text text-anchor="start" x="168.5" y="-353.5" font-family="Helvetica,sans-Serif" font-size="10.00">+</text>
<text text-anchor="start" x="199.5" y="-353.5" font-family="Helvetica,sans-Serif" font-size="10.00">IsDead</text>
<text text-anchor="start" x="168.5" y="-338.5" font-family="Helvetica,sans-Serif" font-size="10.00">+</text>
<text text-anchor="start" x="199.5" y="-338.5" font-family="Helvetica,sans-Serif" font-size="10.00">ActiveEffects</text>
<text text-anchor="start" x="168.5" y="-323.5" font-family="Helvetica,sans-Serif" font-size="10.00">+</text>
<text text-anchor="start" x="199.5" y="-323.5" font-family="Helvetica,sans-Serif" font-size="10.00">EffectTagMask</text>
<text text-anchor="start" x="168.5" y="-308.5" font-family="Helvetica,sans-Serif" font-size="10.00">+</text>
<text text-anchor="start" x="199.5" y="-308.5" font-family="Helvetica,sans-Serif" font-size="10.00">Abilities</text>
<text text-anchor="start" x="168.5" y="-293.5" font-family="Helvetica,sans-Serif" font-size="10.00">+</text>
<text text-anchor="start" x="199.5" y="-293.5" font-family="Helvetica,sans-Serif" font-size="10.00">CanAct</text>
<text text-anchor="start" x="168.5" y="-278.5" font-family="Helvetica,sans-Serif" font-size="10.00">+</text>
<text text-anchor="start" x="199.5" y="-278.5" font-family="Helvetica,sans-Serif" font-size="10.00">CanMove</text>
<text text-anchor="start" x="168.5" y="-263.5" font-family="Helvetica,sans-Serif" font-size="10.00">+</text>
<text text-anchor="start" x="199.5" y="-263.5" font-family="Helvetica,sans-Serif" font-size="10.00">CanCast</text>
<text text-anchor="start" x="232.5" y="-248.5" font-family="Helvetica,sans-Serif" font-size="10.00"> </text>
<polygon fill="#666666" stroke="#666666" points="146.5,-483.5 146.5,-483.5 322.5,-483.5 322.5,-483.5 146.5,-483.5"/>
<polygon fill="#666666" stroke="#666666" points="146.5,-258.5 146.5,-258.5 197.5,-258.5 197.5,-258.5 146.5,-258.5"/>
<polygon fill="#666666" stroke="#666666" points="197.5,-258.5 197.5,-258.5 322.5,-258.5 322.5,-258.5 197.5,-258.5"/>
<polygon fill="none" stroke="#666666" points="146.5,-242 146.5,-501 322.5,-501 322.5,-242 146.5,-242"/>
</a>
</g>
</g>
<!-- Node2&#45;&gt;Node1 -->
<g id="edge1_Node000001_Node000002" class="edge">
<title>Node2&#45;&gt;Node1</title>
<g id="a_edge1_Node000001_Node000002"><a xlink:title=" ">
<path fill="none" stroke="#63b8ff" d="M234.5,-241.9C234.5,-226.73 234.5,-211.39 234.5,-196.62"/>
<polygon fill="none" stroke="#63b8ff" points="234.5,-196.37 230.5,-190.37 234.5,-184.37 238.5,-190.37 234.5,-196.37"/>
</a>
</g>
<text text-anchor="middle" x="264" y="-216" font-family="Helvetica,sans-Serif" font-size="10.00" fill="grey"> +Source</text>
<text text-anchor="middle" x="264" y="-205" font-family="Helvetica,sans-Serif" font-size="10.00" fill="grey">+TargetUnit</text>
</g>
<!-- Node2&#45;&gt;Node2 -->
<g id="edge4_Node000002_Node000002" class="edge">
<title>Node2&#45;&gt;Node2</title>
<g id="a_edge4_Node000002_Node000002"><a xlink:title=" ">
<path fill="none" stroke="#63b8ff" d="M322.63,-396.16C333.43,-391.74 340.5,-383.52 340.5,-371.5 340.5,-363.99 337.74,-357.96 333.03,-353.41"/>
<polygon fill="none" stroke="#63b8ff" points="332.78,-353.25 325.57,-353.43 322.63,-346.84 329.84,-346.67 332.78,-353.25"/>
</a>
</g>
<text text-anchor="middle" x="379.5" y="-369" font-family="Helvetica,sans-Serif" font-size="10.00" fill="grey"> +CurrentTarget</text>
</g>
<!-- Node3 -->
<g id="Node000003" class="node">
<title>Node3</title>
<g id="a_Node000003"><a xlink:href="classGuildmaster_1_1Combat_1_1Stats.html" target="_top" xlink:title="Рантайм стат&#45;объект юнита.">
<polygon fill="white" stroke="transparent" points="139,-677.5 0,-677.5 0,-583.5 139,-583.5 139,-677.5"/>
<text text-anchor="start" x="5.5" y="-665.5" font-family="Helvetica,sans-Serif" font-size="10.00">Guildmaster.Combat.Stats</text>
<text text-anchor="start" x="68" y="-650.5" font-family="Helvetica,sans-Serif" font-size="10.00"> </text>
<text text-anchor="start" x="4.5" y="-635.5" font-family="Helvetica,sans-Serif" font-size="10.00">+</text>
<text text-anchor="start" x="17.5" y="-635.5" font-family="Helvetica,sans-Serif" font-size="10.00">Stats()</text>
<text text-anchor="start" x="4.5" y="-620.5" font-family="Helvetica,sans-Serif" font-size="10.00">+</text>
<text text-anchor="start" x="17.5" y="-620.5" font-family="Helvetica,sans-Serif" font-size="10.00">Get()</text>
<text text-anchor="start" x="4.5" y="-605.5" font-family="Helvetica,sans-Serif" font-size="10.00">+</text>
<text text-anchor="start" x="17.5" y="-605.5" font-family="Helvetica,sans-Serif" font-size="10.00">AddModifiersFrom()</text>
<text text-anchor="start" x="4.5" y="-590.5" font-family="Helvetica,sans-Serif" font-size="10.00">+</text>
<text text-anchor="start" x="17.5" y="-590.5" font-family="Helvetica,sans-Serif" font-size="10.00">RemoveModifiersFrom()</text>
<polygon fill="#666666" stroke="#666666" points="0.5,-660.5 0.5,-660.5 139.5,-660.5 139.5,-660.5 0.5,-660.5"/>
<polygon fill="#666666" stroke="#666666" points="0.5,-645.5 0.5,-645.5 139.5,-645.5 139.5,-645.5 0.5,-645.5"/>
<polygon fill="none" stroke="#666666" points="0,-583.5 0,-677.5 139,-677.5 139,-583.5 0,-583.5"/>
</a>
</g>
</g>
<!-- Node3&#45;&gt;Node2 -->
<g id="edge2_Node000002_Node000003" class="edge">
<title>Node3&#45;&gt;Node2</title>
<g id="a_edge2_Node000002_Node000003"><a xlink:title=" ">
<path fill="none" stroke="#63b8ff" d="M99.19,-583.26C112.38,-562.72 128.67,-537.34 145.33,-511.39"/>
<polygon fill="none" stroke="#63b8ff" points="145.49,-511.14 145.37,-503.93 151.97,-501.04 152.1,-508.25 145.49,-511.14"/>
</a>
</g>
<text text-anchor="middle" x="156" y="-522" font-family="Helvetica,sans-Serif" font-size="10.00" fill="grey"> +Stats</text>
</g>
<!-- Node4 -->
<g id="Node000004" class="node">
<title>Node4</title>
<g id="a_Node000004"><a xlink:href="interfaceGuildmaster_1_1Data_1_1Stats_1_1IStatReader.html" target="_top" xlink:title="Только&#45;чтение собранных статов.">
<polygon fill="white" stroke="transparent" points="103.5,-799 35.5,-799 35.5,-750 103.5,-750 103.5,-799"/>
<text text-anchor="start" x="40.5" y="-786.5" font-family="Helvetica,sans-Serif" font-size="10.00">IStatReader</text>
<text text-anchor="start" x="67.5" y="-771.5" font-family="Helvetica,sans-Serif" font-size="10.00"> </text>
<text text-anchor="start" x="45" y="-756.5" font-family="Helvetica,sans-Serif" font-size="10.00">+</text>
<text text-anchor="start" x="63.5" y="-756.5" font-family="Helvetica,sans-Serif" font-size="10.00">Get()</text>
<polygon fill="#666666" stroke="#666666" points="35.5,-781.5 35.5,-781.5 103.5,-781.5 103.5,-781.5 35.5,-781.5"/>
<polygon fill="#666666" stroke="#666666" points="35.5,-766.5 35.5,-766.5 103.5,-766.5 103.5,-766.5 35.5,-766.5"/>
<polygon fill="none" stroke="#666666" points="35.5,-750 35.5,-799 103.5,-799 103.5,-750 35.5,-750"/>
</a>
</g>
</g>
<!-- Node4&#45;&gt;Node3 -->
<g id="edge3_Node000003_Node000004" class="edge">
<title>Node4&#45;&gt;Node3</title>
<g id="a_edge3_Node000003_Node000004"><a xlink:title=" ">
<path fill="none" stroke="#63b8ff" d="M69.5,-739.7C69.5,-721.18 69.5,-697.95 69.5,-677.77"/>
<polygon fill="none" stroke="#63b8ff" points="66,-739.73 69.5,-749.73 73,-739.73 66,-739.73"/>
</a>
</g>
</g>
<!-- Node5 -->
<g id="Node000005" class="node">
<title>Node5</title>
<g id="a_Node000005"><a xlink:href="classGuildmaster_1_1Data_1_1Definitions_1_1RelicData.html" target="_top" xlink:title="«Чемпион» — стат&#45;блок и боевые категории юнита.">
<polygon fill="white" stroke="transparent" points="312,-713 157,-713 157,-548 312,-548 312,-713"/>
<text text-anchor="start" x="162.5" y="-700.5" font-family="Helvetica,sans-Serif" font-size="10.00">Guildmaster.Data.Definitions.</text>
<text text-anchor="start" x="211" y="-689.5" font-family="Helvetica,sans-Serif" font-size="10.00">RelicData</text>
<text text-anchor="start" x="173.5" y="-674.5" font-family="Helvetica,sans-Serif" font-size="10.00">+</text>
<text text-anchor="start" x="198.5" y="-674.5" font-family="Helvetica,sans-Serif" font-size="10.00">DisplayNameKey</text>
<text text-anchor="start" x="173.5" y="-659.5" font-family="Helvetica,sans-Serif" font-size="10.00">+</text>
<text text-anchor="start" x="198.5" y="-659.5" font-family="Helvetica,sans-Serif" font-size="10.00">Tags</text>
<text text-anchor="start" x="173.5" y="-644.5" font-family="Helvetica,sans-Serif" font-size="10.00">+</text>
<text text-anchor="start" x="198.5" y="-644.5" font-family="Helvetica,sans-Serif" font-size="10.00">DamageType</text>
<text text-anchor="start" x="173.5" y="-629.5" font-family="Helvetica,sans-Serif" font-size="10.00">+</text>
<text text-anchor="start" x="198.5" y="-629.5" font-family="Helvetica,sans-Serif" font-size="10.00">AttackType</text>
<text text-anchor="start" x="173.5" y="-614.5" font-family="Helvetica,sans-Serif" font-size="10.00">+</text>
<text text-anchor="start" x="198.5" y="-614.5" font-family="Helvetica,sans-Serif" font-size="10.00">ResourceType</text>
<text text-anchor="start" x="173.5" y="-599.5" font-family="Helvetica,sans-Serif" font-size="10.00">+</text>
<text text-anchor="start" x="198.5" y="-599.5" font-family="Helvetica,sans-Serif" font-size="10.00">Stats</text>
<text text-anchor="start" x="173.5" y="-584.5" font-family="Helvetica,sans-Serif" font-size="10.00">+</text>
<text text-anchor="start" x="198.5" y="-584.5" font-family="Helvetica,sans-Serif" font-size="10.00">GrantedEffects</text>
<text text-anchor="start" x="173.5" y="-569.5" font-family="Helvetica,sans-Serif" font-size="10.00">+</text>
<text text-anchor="start" x="198.5" y="-569.5" font-family="Helvetica,sans-Serif" font-size="10.00">Abilities</text>
<text text-anchor="start" x="233" y="-554.5" font-family="Helvetica,sans-Serif" font-size="10.00"> </text>
<polygon fill="#666666" stroke="#666666" points="157.5,-684.5 157.5,-684.5 312.5,-684.5 312.5,-684.5 157.5,-684.5"/>
<polygon fill="#666666" stroke="#666666" points="157.5,-564.5 157.5,-564.5 196.5,-564.5 196.5,-564.5 157.5,-564.5"/>
<polygon fill="#666666" stroke="#666666" points="196.5,-564.5 196.5,-564.5 312.5,-564.5 312.5,-564.5 196.5,-564.5"/>
<polygon fill="none" stroke="#666666" points="157,-548 157,-713 312,-713 312,-548 157,-548"/>
</a>
</g>
</g>
<!-- Node5&#45;&gt;Node2 -->
<g id="edge5_Node000002_Node000005" class="edge">
<title>Node5&#45;&gt;Node2</title>
<g id="a_edge5_Node000002_Node000005"><a xlink:title=" ">
<path fill="none" stroke="#63b8ff" d="M234.5,-547.83C234.5,-536.81 234.5,-525.26 234.5,-513.57"/>
<polygon fill="none" stroke="#63b8ff" points="234.5,-513.36 230.5,-507.36 234.5,-501.36 238.5,-507.36 234.5,-513.36"/>
</a>
</g>
<text text-anchor="middle" x="252.5" y="-522" font-family="Helvetica,sans-Serif" font-size="10.00" fill="grey"> +Relic</text>
</g>
<!-- Node6 -->
<g id="Node000006" class="node">
<title>Node6</title>
<g id="a_Node000006"><a xlink:title=" ">
<polygon fill="white" stroke="transparent" points="367,-799 276,-799 276,-750 367,-750 367,-799"/>
<text text-anchor="start" x="281.5" y="-786.5" font-family="Helvetica,sans-Serif" font-size="10.00">ScriptableObject</text>
<text text-anchor="start" x="320" y="-771.5" font-family="Helvetica,sans-Serif" font-size="10.00"> </text>
<text text-anchor="start" x="320" y="-756.5" font-family="Helvetica,sans-Serif" font-size="10.00"> </text>
<polygon fill="#666666" stroke="#666666" points="276.5,-781.5 276.5,-781.5 367.5,-781.5 367.5,-781.5 276.5,-781.5"/>
<polygon fill="#666666" stroke="#666666" points="276.5,-766.5 276.5,-766.5 367.5,-766.5 367.5,-766.5 276.5,-766.5"/>
<polygon fill="none" stroke="#666666" points="276,-750 276,-799 367,-799 367,-750 276,-750"/>
</a>
</g>
</g>
<!-- Node6&#45;&gt;Node5 -->
<g id="edge6_Node000005_Node000006" class="edge">
<title>Node6&#45;&gt;Node5</title>
<g id="a_edge6_Node000005_Node000006"><a xlink:title=" ">
<path fill="none" stroke="#63b8ff" d="M301.59,-741.01C296.42,-732.56 290.6,-723.06 284.61,-713.29"/>
<polygon fill="none" stroke="#63b8ff" points="298.73,-743.03 306.94,-749.73 304.7,-739.38 298.73,-743.03"/>
</a>
</g>
</g>
<!-- Node7 -->
<g id="Node000007" class="node">
<title>Node7</title>
<g id="a_Node000007"><a xlink:href="classGuildmaster_1_1Data_1_1Definitions_1_1VesselData.html" target="_top" xlink:title="«Пилот» — носитель реликвии.">
<polygon fill="white" stroke="transparent" points="485,-675.5 330,-675.5 330,-585.5 485,-585.5 485,-675.5"/>
<text text-anchor="start" x="335.5" y="-663.5" font-family="Helvetica,sans-Serif" font-size="10.00">Guildmaster.Data.Definitions.</text>
<text text-anchor="start" x="380.5" y="-652.5" font-family="Helvetica,sans-Serif" font-size="10.00">VesselData</text>
<text text-anchor="start" x="346.5" y="-637.5" font-family="Helvetica,sans-Serif" font-size="10.00">+</text>
<text text-anchor="start" x="371.5" y="-637.5" font-family="Helvetica,sans-Serif" font-size="10.00">DisplayNameKey</text>
<text text-anchor="start" x="346.5" y="-622.5" font-family="Helvetica,sans-Serif" font-size="10.00">+</text>
<text text-anchor="start" x="371.5" y="-622.5" font-family="Helvetica,sans-Serif" font-size="10.00">Tags</text>
<text text-anchor="start" x="346.5" y="-607.5" font-family="Helvetica,sans-Serif" font-size="10.00">+</text>
<text text-anchor="start" x="371.5" y="-607.5" font-family="Helvetica,sans-Serif" font-size="10.00">TalentModifiers</text>
<text text-anchor="start" x="406" y="-592.5" font-family="Helvetica,sans-Serif" font-size="10.00"> </text>
<polygon fill="#666666" stroke="#666666" points="330.5,-647.5 330.5,-647.5 485.5,-647.5 485.5,-647.5 330.5,-647.5"/>
<polygon fill="#666666" stroke="#666666" points="330.5,-602.5 330.5,-602.5 369.5,-602.5 369.5,-602.5 330.5,-602.5"/>
<polygon fill="#666666" stroke="#666666" points="369.5,-602.5 369.5,-602.5 485.5,-602.5 485.5,-602.5 369.5,-602.5"/>
<polygon fill="none" stroke="#666666" points="330,-585.5 330,-675.5 485,-675.5 485,-585.5 330,-585.5"/>
</a>
</g>
</g>
<!-- Node6&#45;&gt;Node7 -->
<g id="edge8_Node000007_Node000006" class="edge">
<title>Node6&#45;&gt;Node7</title>
<g id="a_edge8_Node000007_Node000006"><a xlink:title=" ">
<path fill="none" stroke="#63b8ff" d="M341.19,-740.99C352.9,-721.65 367.92,-696.85 380.7,-675.74"/>
<polygon fill="none" stroke="#63b8ff" points="338.08,-739.37 335.89,-749.73 344.07,-742.99 338.08,-739.37"/>
</a>
</g>
</g>
<!-- Node7&#45;&gt;Node2 -->
<g id="edge7_Node000002_Node000007" class="edge">
<title>Node7&#45;&gt;Node2</title>
<g id="a_edge7_Node000002_Node000007"><a xlink:title=" ">
<path fill="none" stroke="#63b8ff" d="M377.76,-585.32C363.71,-564.45 346.09,-538.27 328.05,-511.47"/>
<polygon fill="none" stroke="#63b8ff" points="327.82,-511.14 321.16,-508.39 321.12,-501.18 327.79,-503.93 327.82,-511.14"/>
</a>
</g>
<text text-anchor="middle" x="358" y="-522" font-family="Helvetica,sans-Serif" font-size="10.00" fill="grey"> +Vessel</text>
</g>
</g>
</svg>

<g id="navigator" transform="translate(0 0)" fill="#404254">
  <rect fill="#f2f5e9" fill-opacity="0.5" stroke="#606060" stroke-width=".5" x="0" y="0" width="60" height="60"/>
  <use id="zoomplus" xlink:href="#zoomPlus" x="17" y="9" onmousedown="handleZoom(evt,'in')"/>
  <use id="zoomminus" xlink:href="#zoomMin" x="42" y="9" onmousedown="handleZoom(evt,'out')"/>
  <use id="reset" xlink:href="#resetDef" x="30" y="36" onmousedown="handleReset()"/>
   <use id="arrowup" xlink:href="#arrowUp" x="0" y="0" onmousedown="handlePan(0,-1)"/>
  <use id="arrowright" xlink:href="#arrowRight" x="0" y="0" onmousedown="handlePan(1,0)"/>
  <use id="arrowdown" xlink:href="#arrowDown" x="0" y="0" onmousedown="handlePan(0,1)"/>
  <use id="arrowleft" xlink:href="#arrowLeft" x="0" y="0" onmousedown="handlePan(-1,0)"/>
</g>
<svg viewBox="0 0 15 15" width="100%" height="30px" preserveAspectRatio="xMaxYMin meet">
 <g id="arrow_out" transform="scale(0.3 0.3)">
  <a xlink:href="classGuildmaster_1_1Combat_1_1Projectile__coll__graph_org.svg" target="_base">
   <rect id="button" ry="5" rx="5" y="6" x="6" height="38" width="38"
        fill="#f2f5e9" fill-opacity="0.5" stroke="#606060" stroke-width="1.0"/>
   <path id="arrow"
     d="M 11.500037,31.436501 C 11.940474,20.09759 22.043105,11.32322 32.158766,21.979434 L 37.068811,17.246167 C 37.068811,17.246167 37.088388,32 37.088388,32 L 22.160133,31.978069 C 22.160133,31.978069 26.997745,27.140456 26.997745,27.140456 C 18.528582,18.264221 13.291696,25.230495 11.500037,31.436501 z"
     style="fill:#404040;"/>
  </a>
 </g>
</svg>

<style type='text/css'>
<![CDATA[
[data-mouse-over-selected='false'] { opacity: 0.7; }
[data-mouse-over-selected='true']  { opacity: 1.0; }
]]>
</style>
<script type="application/ecmascript"><![CDATA[
document.addEventListener('DOMContentLoaded', (event) => {
  highlightEdges();
  highlightAdjacentNodes();
});
]]></script>
</svg>
