<?xml version="1.0" encoding="UTF-8" standalone="no"?>
<!DOCTYPE svg PUBLIC "-//W3C//DTD SVG 1.1//EN"
 "http://www.w3.org/Graphics/SVG/1.1/DTD/svg11.dtd">
<!-- Generated by graphviz version 2.43.0 (0)
 -->
<!-- Title: Guildmaster.Data.Definitions.ContentDefinition Pages: 1 -->
<svg width="2239pt" height="570pt"
 viewBox="0.00 0.00 2239.00 570.00" xmlns="http://www.w3.org/2000/svg" xmlns:xlink="http://www.w3.org/1999/xlink">
<g id="graph0" class="graph" transform="scale(1 1) rotate(0) translate(4 566)">
<title>Guildmaster.Data.Definitions.ContentDefinition</title>
<!-- Node1 -->
<g id="Node000001" class="node">
<title>Node1</title>
<g id="a_Node000001"><a xlink:title="Базовый класс всех контент&#45;SO: несёт канонический строковый id (domain.name), по которому связываются...">
<polygon fill="#999999" stroke="transparent" points="1193,-477 1038,-477 1038,-417 1193,-417 1193,-477"/>
<text text-anchor="start" x="1043.5" y="-465" font-family="Helvetica,sans-Serif" font-size="10.00">Guildmaster.Data.Definitions.</text>
<text text-anchor="start" x="1073" y="-454" font-family="Helvetica,sans-Serif" font-size="10.00">ContentDefinition</text>
<text text-anchor="start" x="1067.5" y="-439" font-family="Helvetica,sans-Serif" font-size="10.00">+</text>
<text text-anchor="start" x="1105.5" y="-439" font-family="Helvetica,sans-Serif" font-size="10.00">Id</text>
<text text-anchor="start" x="1067.5" y="-424" font-family="Helvetica,sans-Serif" font-size="10.00">#</text>
<text text-anchor="start" x="1105.5" y="-424" font-family="Helvetica,sans-Serif" font-size="10.00">SetId()</text>
<polygon fill="#666666" stroke="#666666" points="1038.5,-449 1038.5,-449 1193.5,-449 1193.5,-449 1038.5,-449"/>
<polygon fill="#666666" stroke="#666666" points="1038.5,-434 1038.5,-434 1103.5,-434 1103.5,-434 1038.5,-434"/>
<polygon fill="#666666" stroke="#666666" points="1103.5,-434 1103.5,-434 1193.5,-434 1193.5,-434 1103.5,-434"/>
<polygon fill="none" stroke="#666666" points="1038,-417 1038,-477 1193,-477 1193,-417 1038,-417"/>
</a>
</g>
</g>
<!-- Node3 -->
<g id="Node000003" class="node">
<title>Node3</title>
<g id="a_Node000003"><a xlink:href="classGuildmaster_1_1Data_1_1Definitions_1_1AIPresetData.html" target="_top" xlink:title="Пресет поведения AI (roadmap «2–3 пресета на архетип», вики «13» §3.2).">
<polygon fill="white" stroke="transparent" points="155,-313.5 0,-313.5 0,-238.5 155,-238.5 155,-313.5"/>
<text text-anchor="start" x="5.5" y="-301" font-family="Helvetica,sans-Serif" font-size="10.00">Guildmaster.Data.Definitions.</text>
<text text-anchor="start" x="46" y="-290" font-family="Helvetica,sans-Serif" font-size="10.00">AIPresetData</text>
<text text-anchor="start" x="20" y="-275" font-family="Helvetica,sans-Serif" font-size="10.00">+</text>
<text text-anchor="start" x="48.5" y="-275" font-family="Helvetica,sans-Serif" font-size="10.00">Profile</text>
<text text-anchor="start" x="20" y="-260" font-family="Helvetica,sans-Serif" font-size="10.00">+</text>
<text text-anchor="start" x="48.5" y="-260" font-family="Helvetica,sans-Serif" font-size="10.00">ArchetypeTags</text>
<text text-anchor="start" x="76" y="-245" font-family="Helvetica,sans-Serif" font-size="10.00"> </text>
<polygon fill="#666666" stroke="#666666" points="0.5,-285 0.5,-285 155.5,-285 155.5,-285 0.5,-285"/>
<polygon fill="#666666" stroke="#666666" points="0.5,-255 0.5,-255 46.5,-255 46.5,-255 0.5,-255"/>
<polygon fill="#666666" stroke="#666666" points="46.5,-255 46.5,-255 155.5,-255 155.5,-255 46.5,-255"/>
<polygon fill="none" stroke="#666666" points="0,-238.5 0,-313.5 155,-313.5 155,-238.5 0,-238.5"/>
</a>
</g>
</g>
<!-- Node1&#45;&gt;Node3 -->
<g id="edge2_Node000001_Node000003" class="edge">
<title>Node1&#45;&gt;Node3</title>
<g id="a_edge2_Node000001_Node000003"><a xlink:title=" ">
<path fill="none" stroke="#63b8ff" d="M1027.38,-443.93C806.08,-438.19 239.18,-419.82 163.5,-381 134.73,-366.24 111.99,-337.17 97.14,-313.51"/>
<polygon fill="none" stroke="#63b8ff" points="1027.57,-447.44 1037.66,-444.2 1027.75,-440.44 1027.57,-447.44"/>
</a>
</g>
</g>
<!-- Node4 -->
<g id="Node000004" class="node">
<title>Node4</title>
<g id="a_Node000004"><a xlink:href="classGuildmaster_1_1Data_1_1Definitions_1_1BattlePresetData.html" target="_top" xlink:title="Готовый бой (план шаг 3): вражеская сторона (EncounterData) + player&#45;ростер (PlayerSlot[]) + режим ра...">
<polygon fill="white" stroke="transparent" points="328,-336 173,-336 173,-216 328,-216 328,-336"/>
<text text-anchor="start" x="178.5" y="-324" font-family="Helvetica,sans-Serif" font-size="10.00">Guildmaster.Data.Definitions.</text>
<text text-anchor="start" x="209" y="-313" font-family="Helvetica,sans-Serif" font-size="10.00">BattlePresetData</text>
<text text-anchor="start" x="189" y="-298" font-family="Helvetica,sans-Serif" font-size="10.00">+</text>
<text text-anchor="start" x="213.5" y="-298" font-family="Helvetica,sans-Serif" font-size="10.00">Encounter</text>
<text text-anchor="start" x="189" y="-283" font-family="Helvetica,sans-Serif" font-size="10.00">+</text>
<text text-anchor="start" x="213.5" y="-283" font-family="Helvetica,sans-Serif" font-size="10.00">Roster</text>
<text text-anchor="start" x="189" y="-268" font-family="Helvetica,sans-Serif" font-size="10.00">+</text>
<text text-anchor="start" x="213.5" y="-268" font-family="Helvetica,sans-Serif" font-size="10.00">DeploymentMode</text>
<text text-anchor="start" x="189" y="-253" font-family="Helvetica,sans-Serif" font-size="10.00">+</text>
<text text-anchor="start" x="213.5" y="-253" font-family="Helvetica,sans-Serif" font-size="10.00">PartyItems</text>
<text text-anchor="start" x="189" y="-238" font-family="Helvetica,sans-Serif" font-size="10.00">+</text>
<text text-anchor="start" x="213.5" y="-238" font-family="Helvetica,sans-Serif" font-size="10.00">IsElite</text>
<text text-anchor="start" x="189" y="-223" font-family="Helvetica,sans-Serif" font-size="10.00">+</text>
<text text-anchor="start" x="213.5" y="-223" font-family="Helvetica,sans-Serif" font-size="10.00">CreateRuntime()</text>
<polygon fill="#666666" stroke="#666666" points="173.5,-308 173.5,-308 328.5,-308 328.5,-308 173.5,-308"/>
<polygon fill="#666666" stroke="#666666" points="173.5,-233 173.5,-233 211.5,-233 211.5,-233 173.5,-233"/>
<polygon fill="#666666" stroke="#666666" points="211.5,-233 211.5,-233 328.5,-233 328.5,-233 211.5,-233"/>
<polygon fill="none" stroke="#666666" points="173,-216 173,-336 328,-336 328,-216 173,-216"/>
</a>
</g>
</g>
<!-- Node1&#45;&gt;Node4 -->
<g id="edge3_Node000001_Node000004" class="edge">
<title>Node1&#45;&gt;Node4</title>
<g id="a_edge3_Node000001_Node000004"><a xlink:title=" ">
<path fill="none" stroke="#63b8ff" d="M1027.69,-442.5C836.85,-434.35 396.54,-412.38 336.5,-381 316.67,-370.64 299.67,-353.53 286.14,-336.16"/>
<polygon fill="none" stroke="#63b8ff" points="1027.55,-446 1037.69,-442.93 1027.85,-439.01 1027.55,-446"/>
</a>
</g>
</g>
<!-- Node5 -->
<g id="Node000005" class="node">
<title>Node5</title>
<g id="a_Node000005"><a xlink:href="classGuildmaster_1_1Data_1_1Definitions_1_1ConsequenceData.html" target="_top" xlink:title="Последствие боя: травма или закалка (объединяет бывш.">
<polygon fill="white" stroke="transparent" points="501,-351 346,-351 346,-201 501,-201 501,-351"/>
<text text-anchor="start" x="351.5" y="-339" font-family="Helvetica,sans-Serif" font-size="10.00">Guildmaster.Data.Definitions.</text>
<text text-anchor="start" x="379.5" y="-328" font-family="Helvetica,sans-Serif" font-size="10.00">ConsequenceData</text>
<text text-anchor="start" x="365.5" y="-313" font-family="Helvetica,sans-Serif" font-size="10.00">+</text>
<text text-anchor="start" x="393.5" y="-313" font-family="Helvetica,sans-Serif" font-size="10.00">Polarity</text>
<text text-anchor="start" x="365.5" y="-298" font-family="Helvetica,sans-Serif" font-size="10.00">+</text>
<text text-anchor="start" x="393.5" y="-298" font-family="Helvetica,sans-Serif" font-size="10.00">Mods</text>
<text text-anchor="start" x="365.5" y="-283" font-family="Helvetica,sans-Serif" font-size="10.00">+</text>
<text text-anchor="start" x="393.5" y="-283" font-family="Helvetica,sans-Serif" font-size="10.00">GrantedEffects</text>
<text text-anchor="start" x="365.5" y="-268" font-family="Helvetica,sans-Serif" font-size="10.00">+</text>
<text text-anchor="start" x="393.5" y="-268" font-family="Helvetica,sans-Serif" font-size="10.00">Severity</text>
<text text-anchor="start" x="365.5" y="-253" font-family="Helvetica,sans-Serif" font-size="10.00">+</text>
<text text-anchor="start" x="393.5" y="-253" font-family="Helvetica,sans-Serif" font-size="10.00">HealCostGold</text>
<text text-anchor="start" x="365.5" y="-238" font-family="Helvetica,sans-Serif" font-size="10.00">+</text>
<text text-anchor="start" x="393.5" y="-238" font-family="Helvetica,sans-Serif" font-size="10.00">Weight</text>
<text text-anchor="start" x="365.5" y="-223" font-family="Helvetica,sans-Serif" font-size="10.00">+</text>
<text text-anchor="start" x="393.5" y="-223" font-family="Helvetica,sans-Serif" font-size="10.00">InfoTags</text>
<text text-anchor="start" x="422" y="-208" font-family="Helvetica,sans-Serif" font-size="10.00"> </text>
<polygon fill="#666666" stroke="#666666" points="346.5,-323 346.5,-323 501.5,-323 501.5,-323 346.5,-323"/>
<polygon fill="#666666" stroke="#666666" points="346.5,-218 346.5,-218 391.5,-218 391.5,-218 346.5,-218"/>
<polygon fill="#666666" stroke="#666666" points="391.5,-218 391.5,-218 501.5,-218 501.5,-218 391.5,-218"/>
<polygon fill="none" stroke="#666666" points="346,-201 346,-351 501,-351 501,-201 346,-201"/>
</a>
</g>
</g>
<!-- Node1&#45;&gt;Node5 -->
<g id="edge4_Node000001_Node000005" class="edge">
<title>Node1&#45;&gt;Node5</title>
<g id="a_edge4_Node000001_Node000005"><a xlink:title=" ">
<path fill="none" stroke="#63b8ff" d="M1027.61,-444.63C881.71,-441.03 596.93,-428.01 509.5,-381 495.67,-373.57 483.19,-362.9 472.3,-351.2"/>
<polygon fill="none" stroke="#63b8ff" points="1027.79,-448.13 1037.87,-444.87 1027.95,-441.13 1027.79,-448.13"/>
</a>
</g>
</g>
<!-- Node6 -->
<g id="Node000006" class="node">
<title>Node6</title>
<g id="a_Node000006"><a xlink:href="classGuildmaster_1_1Data_1_1Definitions_1_1EffectData.html" target="_top" xlink:title="Иммутабельное определение таймированного эффекта: идентичность, полярность, категориальные теги,...">
<polygon fill="white" stroke="transparent" points="674,-373.5 519,-373.5 519,-178.5 674,-178.5 674,-373.5"/>
<text text-anchor="start" x="524.5" y="-361" font-family="Helvetica,sans-Serif" font-size="10.00">Guildmaster.Data.Definitions.</text>
<text text-anchor="start" x="571" y="-350" font-family="Helvetica,sans-Serif" font-size="10.00">EffectData</text>
<text text-anchor="start" x="536.5" y="-335" font-family="Helvetica,sans-Serif" font-size="10.00">+</text>
<text text-anchor="start" x="562.5" y="-335" font-family="Helvetica,sans-Serif" font-size="10.00">Polarity</text>
<text text-anchor="start" x="536.5" y="-320" font-family="Helvetica,sans-Serif" font-size="10.00">+</text>
<text text-anchor="start" x="562.5" y="-320" font-family="Helvetica,sans-Serif" font-size="10.00">Tags</text>
<text text-anchor="start" x="536.5" y="-305" font-family="Helvetica,sans-Serif" font-size="10.00">+</text>
<text text-anchor="start" x="562.5" y="-305" font-family="Helvetica,sans-Serif" font-size="10.00">BaseDuration</text>
<text text-anchor="start" x="536.5" y="-290" font-family="Helvetica,sans-Serif" font-size="10.00">+</text>
<text text-anchor="start" x="562.5" y="-290" font-family="Helvetica,sans-Serif" font-size="10.00">Stacking</text>
<text text-anchor="start" x="536.5" y="-275" font-family="Helvetica,sans-Serif" font-size="10.00">+</text>
<text text-anchor="start" x="562.5" y="-275" font-family="Helvetica,sans-Serif" font-size="10.00">MaxStacks</text>
<text text-anchor="start" x="536.5" y="-260" font-family="Helvetica,sans-Serif" font-size="10.00">+</text>
<text text-anchor="start" x="562.5" y="-260" font-family="Helvetica,sans-Serif" font-size="10.00">CleanseTier</text>
<text text-anchor="start" x="536.5" y="-245" font-family="Helvetica,sans-Serif" font-size="10.00">+</text>
<text text-anchor="start" x="562.5" y="-245" font-family="Helvetica,sans-Serif" font-size="10.00">Unremovable</text>
<text text-anchor="start" x="536.5" y="-230" font-family="Helvetica,sans-Serif" font-size="10.00">+</text>
<text text-anchor="start" x="562.5" y="-230" font-family="Helvetica,sans-Serif" font-size="10.00">Components</text>
<text text-anchor="start" x="536.5" y="-215" font-family="Helvetica,sans-Serif" font-size="10.00">+</text>
<text text-anchor="start" x="562.5" y="-215" font-family="Helvetica,sans-Serif" font-size="10.00">Icon</text>
<text text-anchor="start" x="536.5" y="-200" font-family="Helvetica,sans-Serif" font-size="10.00">+</text>
<text text-anchor="start" x="562.5" y="-200" font-family="Helvetica,sans-Serif" font-size="10.00">InfoTags</text>
<text text-anchor="start" x="536.5" y="-185" font-family="Helvetica,sans-Serif" font-size="10.00">+</text>
<text text-anchor="start" x="562.5" y="-185" font-family="Helvetica,sans-Serif" font-size="10.00">CreateRuntime()</text>
<polygon fill="#666666" stroke="#666666" points="519.5,-345 519.5,-345 674.5,-345 674.5,-345 519.5,-345"/>
<polygon fill="#666666" stroke="#666666" points="519.5,-195 519.5,-195 560.5,-195 560.5,-195 519.5,-195"/>
<polygon fill="#666666" stroke="#666666" points="560.5,-195 560.5,-195 674.5,-195 674.5,-195 560.5,-195"/>
<polygon fill="none" stroke="#666666" points="519,-178.5 519,-373.5 674,-373.5 674,-178.5 519,-178.5"/>
</a>
</g>
</g>
<!-- Node1&#45;&gt;Node6 -->
<g id="edge5_Node000001_Node000006" class="edge">
<title>Node1&#45;&gt;Node6</title>
<g id="a_edge5_Node000001_Node000006"><a xlink:title=" ">
<path fill="none" stroke="#63b8ff" d="M1027.62,-440.22C918.56,-431.79 739.94,-413.46 682.5,-381 678.52,-378.75 674.65,-376.24 670.9,-373.53"/>
<polygon fill="none" stroke="#63b8ff" points="1027.38,-443.71 1037.62,-440.98 1027.91,-436.73 1027.38,-443.71"/>
</a>
</g>
</g>
<!-- Node7 -->
<g id="Node000007" class="node">
<title>Node7</title>
<g id="a_Node000007"><a xlink:href="classGuildmaster_1_1Data_1_1Definitions_1_1EncounterData.html" target="_top" xlink:title="Состав боя (вражеская сторона): кто и где стоит из врагов (вики «13» §3.3, «10» §3).">
<polygon fill="white" stroke="transparent" points="847,-321 692,-321 692,-231 847,-231 847,-321"/>
<text text-anchor="start" x="697.5" y="-309" font-family="Helvetica,sans-Serif" font-size="10.00">Guildmaster.Data.Definitions.</text>
<text text-anchor="start" x="733.5" y="-298" font-family="Helvetica,sans-Serif" font-size="10.00">EncounterData</text>
<text text-anchor="start" x="720.5" y="-283" font-family="Helvetica,sans-Serif" font-size="10.00">+</text>
<text text-anchor="start" x="757.5" y="-283" font-family="Helvetica,sans-Serif" font-size="10.00">Tier</text>
<text text-anchor="start" x="720.5" y="-268" font-family="Helvetica,sans-Serif" font-size="10.00">+</text>
<text text-anchor="start" x="757.5" y="-268" font-family="Helvetica,sans-Serif" font-size="10.00">Units</text>
<text text-anchor="start" x="720.5" y="-253" font-family="Helvetica,sans-Serif" font-size="10.00">+</text>
<text text-anchor="start" x="757.5" y="-253" font-family="Helvetica,sans-Serif" font-size="10.00">ArenaId</text>
<text text-anchor="start" x="768" y="-238" font-family="Helvetica,sans-Serif" font-size="10.00"> </text>
<polygon fill="#666666" stroke="#666666" points="692.5,-293 692.5,-293 847.5,-293 847.5,-293 692.5,-293"/>
<polygon fill="#666666" stroke="#666666" points="692.5,-248 692.5,-248 755.5,-248 755.5,-248 692.5,-248"/>
<polygon fill="#666666" stroke="#666666" points="755.5,-248 755.5,-248 847.5,-248 847.5,-248 755.5,-248"/>
<polygon fill="none" stroke="#666666" points="692,-231 692,-321 847,-321 847,-231 692,-231"/>
</a>
</g>
</g>
<!-- Node1&#45;&gt;Node7 -->
<g id="edge6_Node000001_Node000007" class="edge">
<title>Node1&#45;&gt;Node7</title>
<g id="a_edge6_Node000001_Node000007"><a xlink:title=" ">
<path fill="none" stroke="#63b8ff" d="M1027.87,-438.03C974.71,-429.95 907.36,-413.69 855.5,-381 831.72,-366.01 811.33,-342.22 796.39,-321.18"/>
<polygon fill="none" stroke="#63b8ff" points="1027.56,-441.52 1037.96,-439.49 1028.57,-434.59 1027.56,-441.52"/>
</a>
</g>
</g>
<!-- Node8 -->
<g id="Node000008" class="node">
<title>Node8</title>
<g id="a_Node000008"><a xlink:href="classGuildmaster_1_1Data_1_1Definitions_1_1GuildmasterData.html" target="_top" xlink:title="Гильдмастер (GDD 4, вики «13» §3.2): начальные заклинания, пассивный бонус гильдии,...">
<polygon fill="white" stroke="transparent" points="1020,-351 865,-351 865,-201 1020,-201 1020,-351"/>
<text text-anchor="start" x="870.5" y="-339" font-family="Helvetica,sans-Serif" font-size="10.00">Guildmaster.Data.Definitions.</text>
<text text-anchor="start" x="901" y="-328" font-family="Helvetica,sans-Serif" font-size="10.00">GuildmasterData</text>
<text text-anchor="start" x="883.5" y="-313" font-family="Helvetica,sans-Serif" font-size="10.00">+</text>
<text text-anchor="start" x="910.5" y="-313" font-family="Helvetica,sans-Serif" font-size="10.00">Spells</text>
<text text-anchor="start" x="883.5" y="-298" font-family="Helvetica,sans-Serif" font-size="10.00">+</text>
<text text-anchor="start" x="910.5" y="-298" font-family="Helvetica,sans-Serif" font-size="10.00">Mods</text>
<text text-anchor="start" x="883.5" y="-283" font-family="Helvetica,sans-Serif" font-size="10.00">+</text>
<text text-anchor="start" x="910.5" y="-283" font-family="Helvetica,sans-Serif" font-size="10.00">UniqueEffects</text>
<text text-anchor="start" x="883.5" y="-268" font-family="Helvetica,sans-Serif" font-size="10.00">+</text>
<text text-anchor="start" x="910.5" y="-268" font-family="Helvetica,sans-Serif" font-size="10.00">StartingRelicIds</text>
<text text-anchor="start" x="883.5" y="-253" font-family="Helvetica,sans-Serif" font-size="10.00">+</text>
<text text-anchor="start" x="910.5" y="-253" font-family="Helvetica,sans-Serif" font-size="10.00">StartingGold</text>
<text text-anchor="start" x="883.5" y="-238" font-family="Helvetica,sans-Serif" font-size="10.00">+</text>
<text text-anchor="start" x="910.5" y="-238" font-family="Helvetica,sans-Serif" font-size="10.00">Portrait</text>
<text text-anchor="start" x="883.5" y="-223" font-family="Helvetica,sans-Serif" font-size="10.00">+</text>
<text text-anchor="start" x="910.5" y="-223" font-family="Helvetica,sans-Serif" font-size="10.00">InfoTags</text>
<text text-anchor="start" x="941" y="-208" font-family="Helvetica,sans-Serif" font-size="10.00"> </text>
<polygon fill="#666666" stroke="#666666" points="865.5,-323 865.5,-323 1020.5,-323 1020.5,-323 865.5,-323"/>
<polygon fill="#666666" stroke="#666666" points="865.5,-218 865.5,-218 908.5,-218 908.5,-218 865.5,-218"/>
<polygon fill="#666666" stroke="#666666" points="908.5,-218 908.5,-218 1020.5,-218 1020.5,-218 908.5,-218"/>
<polygon fill="none" stroke="#666666" points="865,-201 865,-351 1020,-351 1020,-201 865,-201"/>
</a>
</g>
</g>
<!-- Node1&#45;&gt;Node8 -->
<g id="edge7_Node000001_Node000008" class="edge">
<title>Node1&#45;&gt;Node8</title>
<g id="a_edge7_Node000001_Node000008"><a xlink:title=" ">
<path fill="none" stroke="#63b8ff" d="M1064,-410.69C1051.9,-401.55 1039.37,-391.35 1028.5,-381 1018.83,-371.79 1009.2,-361.53 1000.07,-351.14"/>
<polygon fill="none" stroke="#63b8ff" points="1062.17,-413.69 1072.28,-416.84 1066.34,-408.07 1062.17,-413.69"/>
</a>
</g>
</g>
<!-- Node9 -->
<g id="Node000009" class="node">
<title>Node9</title>
<g id="a_Node000009"><a xlink:href="classGuildmaster_1_1Data_1_1Definitions_1_1ItemData.html" target="_top" xlink:title="Предмет двух скоупов в одном типе (вики «13» §3.2): ItemScope.Vessel — на персонажа (до N слотов,...">
<polygon fill="white" stroke="transparent" points="1193,-366 1038,-366 1038,-186 1193,-186 1193,-366"/>
<text text-anchor="start" x="1043.5" y="-354" font-family="Helvetica,sans-Serif" font-size="10.00">Guildmaster.Data.Definitions.</text>
<text text-anchor="start" x="1093" y="-343" font-family="Helvetica,sans-Serif" font-size="10.00">ItemData</text>
<text text-anchor="start" x="1057.5" y="-328" font-family="Helvetica,sans-Serif" font-size="10.00">+</text>
<text text-anchor="start" x="1085.5" y="-328" font-family="Helvetica,sans-Serif" font-size="10.00">Scope</text>
<text text-anchor="start" x="1057.5" y="-313" font-family="Helvetica,sans-Serif" font-size="10.00">+</text>
<text text-anchor="start" x="1085.5" y="-313" font-family="Helvetica,sans-Serif" font-size="10.00">Mods</text>
<text text-anchor="start" x="1057.5" y="-298" font-family="Helvetica,sans-Serif" font-size="10.00">+</text>
<text text-anchor="start" x="1085.5" y="-298" font-family="Helvetica,sans-Serif" font-size="10.00">GrantedEffects</text>
<text text-anchor="start" x="1057.5" y="-283" font-family="Helvetica,sans-Serif" font-size="10.00">+</text>
<text text-anchor="start" x="1085.5" y="-283" font-family="Helvetica,sans-Serif" font-size="10.00">ActiveAbility</text>
<text text-anchor="start" x="1057.5" y="-268" font-family="Helvetica,sans-Serif" font-size="10.00">+</text>
<text text-anchor="start" x="1085.5" y="-268" font-family="Helvetica,sans-Serif" font-size="10.00">Charges</text>
<text text-anchor="start" x="1057.5" y="-253" font-family="Helvetica,sans-Serif" font-size="10.00">+</text>
<text text-anchor="start" x="1085.5" y="-253" font-family="Helvetica,sans-Serif" font-size="10.00">Cost</text>
<text text-anchor="start" x="1057.5" y="-238" font-family="Helvetica,sans-Serif" font-size="10.00">+</text>
<text text-anchor="start" x="1085.5" y="-238" font-family="Helvetica,sans-Serif" font-size="10.00">ShopWeight</text>
<text text-anchor="start" x="1057.5" y="-223" font-family="Helvetica,sans-Serif" font-size="10.00">+</text>
<text text-anchor="start" x="1085.5" y="-223" font-family="Helvetica,sans-Serif" font-size="10.00">Icon</text>
<text text-anchor="start" x="1057.5" y="-208" font-family="Helvetica,sans-Serif" font-size="10.00">+</text>
<text text-anchor="start" x="1085.5" y="-208" font-family="Helvetica,sans-Serif" font-size="10.00">InfoTags</text>
<text text-anchor="start" x="1114" y="-193" font-family="Helvetica,sans-Serif" font-size="10.00"> </text>
<polygon fill="#666666" stroke="#666666" points="1038.5,-338 1038.5,-338 1193.5,-338 1193.5,-338 1038.5,-338"/>
<polygon fill="#666666" stroke="#666666" points="1038.5,-203 1038.5,-203 1083.5,-203 1083.5,-203 1038.5,-203"/>
<polygon fill="#666666" stroke="#666666" points="1083.5,-203 1083.5,-203 1193.5,-203 1193.5,-203 1083.5,-203"/>
<polygon fill="none" stroke="#666666" points="1038,-186 1038,-366 1193,-366 1193,-186 1038,-186"/>
</a>
</g>
</g>
<!-- Node1&#45;&gt;Node9 -->
<g id="edge8_Node000001_Node000009" class="edge">
<title>Node1&#45;&gt;Node9</title>
<g id="a_edge8_Node000001_Node000009"><a xlink:title=" ">
<path fill="none" stroke="#63b8ff" d="M1115.5,-406.72C1115.5,-394.52 1115.5,-380.53 1115.5,-366.36"/>
<polygon fill="none" stroke="#63b8ff" points="1112,-406.95 1115.5,-416.95 1119,-406.95 1112,-406.95"/>
</a>
</g>
</g>
<!-- Node10 -->
<g id="Node000010" class="node">
<title>Node10</title>
<g id="a_Node000010"><a xlink:href="classGuildmaster_1_1Data_1_1Definitions_1_1RunModifierData.html" target="_top" xlink:title="Модификатор забега (заготовка ascension/pact, вики «13» §3.2).">
<polygon fill="white" stroke="transparent" points="1366,-343.5 1211,-343.5 1211,-208.5 1366,-208.5 1366,-343.5"/>
<text text-anchor="start" x="1216.5" y="-331" font-family="Helvetica,sans-Serif" font-size="10.00">Guildmaster.Data.Definitions.</text>
<text text-anchor="start" x="1248" y="-320" font-family="Helvetica,sans-Serif" font-size="10.00">RunModifierData</text>
<text text-anchor="start" x="1230.5" y="-305" font-family="Helvetica,sans-Serif" font-size="10.00">+</text>
<text text-anchor="start" x="1258.5" y="-305" font-family="Helvetica,sans-Serif" font-size="10.00">Target</text>
<text text-anchor="start" x="1230.5" y="-290" font-family="Helvetica,sans-Serif" font-size="10.00">+</text>
<text text-anchor="start" x="1258.5" y="-290" font-family="Helvetica,sans-Serif" font-size="10.00">Mods</text>
<text text-anchor="start" x="1230.5" y="-275" font-family="Helvetica,sans-Serif" font-size="10.00">+</text>
<text text-anchor="start" x="1258.5" y="-275" font-family="Helvetica,sans-Serif" font-size="10.00">GrantedEffects</text>
<text text-anchor="start" x="1230.5" y="-260" font-family="Helvetica,sans-Serif" font-size="10.00">+</text>
<text text-anchor="start" x="1258.5" y="-260" font-family="Helvetica,sans-Serif" font-size="10.00">RewardMult</text>
<text text-anchor="start" x="1230.5" y="-245" font-family="Helvetica,sans-Serif" font-size="10.00">+</text>
<text text-anchor="start" x="1258.5" y="-245" font-family="Helvetica,sans-Serif" font-size="10.00">Tier</text>
<text text-anchor="start" x="1230.5" y="-230" font-family="Helvetica,sans-Serif" font-size="10.00">+</text>
<text text-anchor="start" x="1258.5" y="-230" font-family="Helvetica,sans-Serif" font-size="10.00">InfoTags</text>
<text text-anchor="start" x="1287" y="-215" font-family="Helvetica,sans-Serif" font-size="10.00"> </text>
<polygon fill="#666666" stroke="#666666" points="1211.5,-315 1211.5,-315 1366.5,-315 1366.5,-315 1211.5,-315"/>
<polygon fill="#666666" stroke="#666666" points="1211.5,-225 1211.5,-225 1256.5,-225 1256.5,-225 1211.5,-225"/>
<polygon fill="#666666" stroke="#666666" points="1256.5,-225 1256.5,-225 1366.5,-225 1366.5,-225 1256.5,-225"/>
<polygon fill="none" stroke="#666666" points="1211,-208.5 1211,-343.5 1366,-343.5 1366,-208.5 1211,-208.5"/>
</a>
</g>
</g>
<!-- Node1&#45;&gt;Node10 -->
<g id="edge9_Node000001_Node000010" class="edge">
<title>Node1&#45;&gt;Node10</title>
<g id="a_edge9_Node000001_Node000010"><a xlink:title=" ">
<path fill="none" stroke="#63b8ff" d="M1166.34,-410.58C1178.31,-401.44 1190.71,-391.27 1201.5,-381 1213.52,-369.56 1225.52,-356.53 1236.6,-343.66"/>
<polygon fill="none" stroke="#63b8ff" points="1164.05,-407.93 1158.16,-416.73 1168.26,-413.53 1164.05,-407.93"/>
</a>
</g>
</g>
<!-- Node11 -->
<g id="Node000011" class="node">
<title>Node11</title>
<g id="a_Node000011"><a xlink:href="classGuildmaster_1_1Data_1_1Definitions_1_1TagData.html" target="_top" xlink:title="Информационный тег для тултипов/фильтров (вики «13» §3.0): чисто UI&#45;слой, НЕ путать с боевыми EffectT...">
<polygon fill="white" stroke="transparent" points="1539,-313.5 1384,-313.5 1384,-238.5 1539,-238.5 1539,-313.5"/>
<text text-anchor="start" x="1389.5" y="-301" font-family="Helvetica,sans-Serif" font-size="10.00">Guildmaster.Data.Definitions.</text>
<text text-anchor="start" x="1442" y="-290" font-family="Helvetica,sans-Serif" font-size="10.00">TagData</text>
<text text-anchor="start" x="1410.5" y="-275" font-family="Helvetica,sans-Serif" font-size="10.00">+</text>
<text text-anchor="start" x="1445.5" y="-275" font-family="Helvetica,sans-Serif" font-size="10.00">Category</text>
<text text-anchor="start" x="1410.5" y="-260" font-family="Helvetica,sans-Serif" font-size="10.00">+</text>
<text text-anchor="start" x="1445.5" y="-260" font-family="Helvetica,sans-Serif" font-size="10.00">Icon</text>
<text text-anchor="start" x="1460" y="-245" font-family="Helvetica,sans-Serif" font-size="10.00"> </text>
<polygon fill="#666666" stroke="#666666" points="1384.5,-285 1384.5,-285 1539.5,-285 1539.5,-285 1384.5,-285"/>
<polygon fill="#666666" stroke="#666666" points="1384.5,-255 1384.5,-255 1443.5,-255 1443.5,-255 1384.5,-255"/>
<polygon fill="#666666" stroke="#666666" points="1443.5,-255 1443.5,-255 1539.5,-255 1539.5,-255 1443.5,-255"/>
<polygon fill="none" stroke="#666666" points="1384,-238.5 1384,-313.5 1539,-313.5 1539,-238.5 1384,-238.5"/>
</a>
</g>
</g>
<!-- Node1&#45;&gt;Node11 -->
<g id="edge10_Node000001_Node000011" class="edge">
<title>Node1&#45;&gt;Node11</title>
<g id="a_edge10_Node000001_Node000011"><a xlink:title=" ">
<path fill="none" stroke="#63b8ff" d="M1203.3,-437.77C1256.14,-429.6 1322.93,-413.33 1374.5,-381 1401.32,-364.18 1423.98,-336.33 1439.44,-313.68"/>
<polygon fill="none" stroke="#63b8ff" points="1202.64,-434.33 1193.26,-439.25 1203.67,-441.25 1202.64,-434.33"/>
</a>
</g>
</g>
<!-- Node12 -->
<g id="Node000012" class="node">
<title>Node12</title>
<g id="a_Node000012"><a xlink:href="classGuildmaster_1_1Data_1_1Definitions_1_1TextEventData.html" target="_top" xlink:title="Текстовый ивент карты в стиле Slay the Spire (план 11 §3.4, GDD 7 «Риск&#45;ивент»): заголовок,...">
<polygon fill="white" stroke="transparent" points="1712,-336 1557,-336 1557,-216 1712,-216 1712,-336"/>
<text text-anchor="start" x="1562.5" y="-324" font-family="Helvetica,sans-Serif" font-size="10.00">Guildmaster.Data.Definitions.</text>
<text text-anchor="start" x="1599" y="-313" font-family="Helvetica,sans-Serif" font-size="10.00">TextEventData</text>
<text text-anchor="start" x="1572.5" y="-298" font-family="Helvetica,sans-Serif" font-size="10.00">+</text>
<text text-anchor="start" x="1596.5" y="-298" font-family="Helvetica,sans-Serif" font-size="10.00">Image</text>
<text text-anchor="start" x="1572.5" y="-283" font-family="Helvetica,sans-Serif" font-size="10.00">+</text>
<text text-anchor="start" x="1596.5" y="-283" font-family="Helvetica,sans-Serif" font-size="10.00">Choices</text>
<text text-anchor="start" x="1572.5" y="-268" font-family="Helvetica,sans-Serif" font-size="10.00">+</text>
<text text-anchor="start" x="1596.5" y="-268" font-family="Helvetica,sans-Serif" font-size="10.00">TitleKey</text>
<text text-anchor="start" x="1572.5" y="-253" font-family="Helvetica,sans-Serif" font-size="10.00">+</text>
<text text-anchor="start" x="1596.5" y="-253" font-family="Helvetica,sans-Serif" font-size="10.00">BodyKey</text>
<text text-anchor="start" x="1572.5" y="-238" font-family="Helvetica,sans-Serif" font-size="10.00">+</text>
<text text-anchor="start" x="1596.5" y="-238" font-family="Helvetica,sans-Serif" font-size="10.00">ChoiceLabelKey()</text>
<text text-anchor="start" x="1572.5" y="-223" font-family="Helvetica,sans-Serif" font-size="10.00">+</text>
<text text-anchor="start" x="1596.5" y="-223" font-family="Helvetica,sans-Serif" font-size="10.00">ChoiceResultKey()</text>
<polygon fill="#666666" stroke="#666666" points="1557.5,-308 1557.5,-308 1712.5,-308 1712.5,-308 1557.5,-308"/>
<polygon fill="#666666" stroke="#666666" points="1557.5,-248 1557.5,-248 1594.5,-248 1594.5,-248 1557.5,-248"/>
<polygon fill="#666666" stroke="#666666" points="1594.5,-248 1594.5,-248 1712.5,-248 1712.5,-248 1594.5,-248"/>
<polygon fill="none" stroke="#666666" points="1557,-216 1557,-336 1712,-336 1712,-216 1557,-216"/>
</a>
</g>
</g>
<!-- Node1&#45;&gt;Node12 -->
<g id="edge11_Node000001_Node000012" class="edge">
<title>Node1&#45;&gt;Node12</title>
<g id="a_edge11_Node000001_Node000012"><a xlink:title=" ">
<path fill="none" stroke="#63b8ff" d="M1203.15,-440.15C1311.93,-431.64 1490.11,-413.24 1547.5,-381 1566.79,-370.16 1583.65,-353.26 1597.25,-336.21"/>
<polygon fill="none" stroke="#63b8ff" points="1202.88,-436.66 1193.17,-440.92 1203.41,-443.64 1202.88,-436.66"/>
</a>
</g>
</g>
<!-- Node13 -->
<g id="Node000013" class="node">
<title>Node13</title>
<g id="a_Node000013"><a xlink:href="classGuildmaster_1_1Data_1_1Definitions_1_1TraitData.html" target="_top" xlink:title="Трейт «Сосуда» (бывш.">
<polygon fill="white" stroke="transparent" points="1885,-343.5 1730,-343.5 1730,-208.5 1885,-208.5 1885,-343.5"/>
<text text-anchor="start" x="1735.5" y="-331" font-family="Helvetica,sans-Serif" font-size="10.00">Guildmaster.Data.Definitions.</text>
<text text-anchor="start" x="1785.5" y="-320" font-family="Helvetica,sans-Serif" font-size="10.00">TraitData</text>
<text text-anchor="start" x="1748" y="-305" font-family="Helvetica,sans-Serif" font-size="10.00">+</text>
<text text-anchor="start" x="1774.5" y="-305" font-family="Helvetica,sans-Serif" font-size="10.00">Polarity</text>
<text text-anchor="start" x="1748" y="-290" font-family="Helvetica,sans-Serif" font-size="10.00">+</text>
<text text-anchor="start" x="1774.5" y="-290" font-family="Helvetica,sans-Serif" font-size="10.00">Mods</text>
<text text-anchor="start" x="1748" y="-275" font-family="Helvetica,sans-Serif" font-size="10.00">+</text>
<text text-anchor="start" x="1774.5" y="-275" font-family="Helvetica,sans-Serif" font-size="10.00">GrantedEffects</text>
<text text-anchor="start" x="1748" y="-260" font-family="Helvetica,sans-Serif" font-size="10.00">+</text>
<text text-anchor="start" x="1774.5" y="-260" font-family="Helvetica,sans-Serif" font-size="10.00">SelectionWeight</text>
<text text-anchor="start" x="1748" y="-245" font-family="Helvetica,sans-Serif" font-size="10.00">+</text>
<text text-anchor="start" x="1774.5" y="-245" font-family="Helvetica,sans-Serif" font-size="10.00">ExclusiveGroup</text>
<text text-anchor="start" x="1748" y="-230" font-family="Helvetica,sans-Serif" font-size="10.00">+</text>
<text text-anchor="start" x="1774.5" y="-230" font-family="Helvetica,sans-Serif" font-size="10.00">InfoTags</text>
<text text-anchor="start" x="1806" y="-215" font-family="Helvetica,sans-Serif" font-size="10.00"> </text>
<polygon fill="#666666" stroke="#666666" points="1730.5,-315 1730.5,-315 1885.5,-315 1885.5,-315 1730.5,-315"/>
<polygon fill="#666666" stroke="#666666" points="1730.5,-225 1730.5,-225 1772.5,-225 1772.5,-225 1730.5,-225"/>
<polygon fill="#666666" stroke="#666666" points="1772.5,-225 1772.5,-225 1885.5,-225 1885.5,-225 1772.5,-225"/>
<polygon fill="none" stroke="#666666" points="1730,-208.5 1730,-343.5 1885,-343.5 1885,-208.5 1730,-208.5"/>
</a>
</g>
</g>
<!-- Node1&#45;&gt;Node13 -->
<g id="edge12_Node000001_Node000013" class="edge">
<title>Node1&#45;&gt;Node13</title>
<g id="a_edge12_Node000001_Node000013"><a xlink:title=" ">
<path fill="none" stroke="#63b8ff" d="M1203.51,-444.55C1349.2,-440.84 1633.14,-427.66 1720.5,-381 1737.32,-372.02 1752.2,-358.31 1764.7,-343.76"/>
<polygon fill="none" stroke="#63b8ff" points="1203.17,-441.06 1193.26,-444.8 1203.34,-448.06 1203.17,-441.06"/>
</a>
</g>
</g>
<!-- Node14 -->
<g id="Node000014" class="node">
<title>Node14</title>
<g id="a_Node000014"><a xlink:href="classGuildmaster_1_1Data_1_1Definitions_1_1UnitData.html" target="_top" xlink:title="Общий боевой кит всего, что выходит на арену (вики «13» §3.1).">
<polygon fill="white" stroke="transparent" points="2058,-381 1903,-381 1903,-171 2058,-171 2058,-381"/>
<text text-anchor="start" x="1908.5" y="-369" font-family="Helvetica,sans-Serif" font-size="10.00">Guildmaster.Data.Definitions.</text>
<text text-anchor="start" x="1959" y="-358" font-family="Helvetica,sans-Serif" font-size="10.00">UnitData</text>
<text text-anchor="start" x="1919" y="-343" font-family="Helvetica,sans-Serif" font-size="10.00">+</text>
<text text-anchor="start" x="1943.5" y="-343" font-family="Helvetica,sans-Serif" font-size="10.00">DamageSchool</text>
<text text-anchor="start" x="1919" y="-328" font-family="Helvetica,sans-Serif" font-size="10.00">+</text>
<text text-anchor="start" x="1943.5" y="-328" font-family="Helvetica,sans-Serif" font-size="10.00">Affinity</text>
<text text-anchor="start" x="1919" y="-313" font-family="Helvetica,sans-Serif" font-size="10.00">+</text>
<text text-anchor="start" x="1943.5" y="-313" font-family="Helvetica,sans-Serif" font-size="10.00">CreatureType</text>
<text text-anchor="start" x="1919" y="-298" font-family="Helvetica,sans-Serif" font-size="10.00">+</text>
<text text-anchor="start" x="1943.5" y="-298" font-family="Helvetica,sans-Serif" font-size="10.00">AttackType</text>
<text text-anchor="start" x="1919" y="-283" font-family="Helvetica,sans-Serif" font-size="10.00">+</text>
<text text-anchor="start" x="1943.5" y="-283" font-family="Helvetica,sans-Serif" font-size="10.00">ResourceType</text>
<text text-anchor="start" x="1919" y="-268" font-family="Helvetica,sans-Serif" font-size="10.00">+</text>
<text text-anchor="start" x="1943.5" y="-268" font-family="Helvetica,sans-Serif" font-size="10.00">Visual</text>
<text text-anchor="start" x="1919" y="-253" font-family="Helvetica,sans-Serif" font-size="10.00">+</text>
<text text-anchor="start" x="1943.5" y="-253" font-family="Helvetica,sans-Serif" font-size="10.00">ViewPrefab</text>
<text text-anchor="start" x="1919" y="-238" font-family="Helvetica,sans-Serif" font-size="10.00">+</text>
<text text-anchor="start" x="1943.5" y="-238" font-family="Helvetica,sans-Serif" font-size="10.00">AutoAttackShape</text>
<text text-anchor="start" x="1919" y="-223" font-family="Helvetica,sans-Serif" font-size="10.00">+</text>
<text text-anchor="start" x="1943.5" y="-223" font-family="Helvetica,sans-Serif" font-size="10.00">AutoAttackWidth</text>
<text text-anchor="start" x="1919" y="-208" font-family="Helvetica,sans-Serif" font-size="10.00">+</text>
<text text-anchor="start" x="1943.5" y="-208" font-family="Helvetica,sans-Serif" font-size="10.00">AutoAttackEffects</text>
<text text-anchor="start" x="1943.5" y="-193" font-family="Helvetica,sans-Serif" font-size="10.00">and 11 more...</text>
<text text-anchor="start" x="1979" y="-178" font-family="Helvetica,sans-Serif" font-size="10.00"> </text>
<polygon fill="#666666" stroke="#666666" points="1903.5,-353 1903.5,-353 2058.5,-353 2058.5,-353 1903.5,-353"/>
<polygon fill="#666666" stroke="#666666" points="1903.5,-188 1903.5,-188 1941.5,-188 1941.5,-188 1903.5,-188"/>
<polygon fill="#666666" stroke="#666666" points="1941.5,-188 1941.5,-188 2058.5,-188 2058.5,-188 1941.5,-188"/>
<polygon fill="none" stroke="#666666" points="1903,-171 1903,-381 2058,-381 2058,-171 1903,-171"/>
</a>
</g>
</g>
<!-- Node1&#45;&gt;Node14 -->
<g id="edge13_Node000001_Node000014" class="edge">
<title>Node1&#45;&gt;Node14</title>
<g id="a_edge13_Node000001_Node000014"><a xlink:title=" ">
<path fill="none" stroke="#63b8ff" d="M1203.47,-442.46C1394.19,-434.24 1833.48,-412.15 1893.5,-381 1896.74,-379.32 1899.9,-377.46 1902.99,-375.45"/>
<polygon fill="none" stroke="#63b8ff" points="1203.04,-438.97 1193.2,-442.9 1203.34,-445.97 1203.04,-438.97"/>
</a>
</g>
</g>
<!-- Node17 -->
<g id="Node000017" class="node">
<title>Node17</title>
<g id="a_Node000017"><a xlink:href="classGuildmaster_1_1Data_1_1Definitions_1_1VesselData.html" target="_top" xlink:title="«Пилот» — носитель реликвии.">
<polygon fill="white" stroke="transparent" points="2231,-313.5 2076,-313.5 2076,-238.5 2231,-238.5 2231,-313.5"/>
<text text-anchor="start" x="2081.5" y="-301" font-family="Helvetica,sans-Serif" font-size="10.00">Guildmaster.Data.Definitions.</text>
<text text-anchor="start" x="2126.5" y="-290" font-family="Helvetica,sans-Serif" font-size="10.00">VesselData</text>
<text text-anchor="start" x="2097" y="-275" font-family="Helvetica,sans-Serif" font-size="10.00">+</text>
<text text-anchor="start" x="2126.5" y="-275" font-family="Helvetica,sans-Serif" font-size="10.00">Tags</text>
<text text-anchor="start" x="2097" y="-260" font-family="Helvetica,sans-Serif" font-size="10.00">+</text>
<text text-anchor="start" x="2126.5" y="-260" font-family="Helvetica,sans-Serif" font-size="10.00">PerkModifiers</text>
<text text-anchor="start" x="2152" y="-245" font-family="Helvetica,sans-Serif" font-size="10.00"> </text>
<polygon fill="#666666" stroke="#666666" points="2076.5,-285 2076.5,-285 2231.5,-285 2231.5,-285 2076.5,-285"/>
<polygon fill="#666666" stroke="#666666" points="2076.5,-255 2076.5,-255 2124.5,-255 2124.5,-255 2076.5,-255"/>
<polygon fill="#666666" stroke="#666666" points="2124.5,-255 2124.5,-255 2231.5,-255 2231.5,-255 2124.5,-255"/>
<polygon fill="none" stroke="#666666" points="2076,-238.5 2076,-313.5 2231,-313.5 2231,-238.5 2076,-238.5"/>
</a>
</g>
</g>
<!-- Node1&#45;&gt;Node17 -->
<g id="edge16_Node000001_Node000017" class="edge">
<title>Node1&#45;&gt;Node17</title>
<g id="a_edge16_Node000001_Node000017"><a xlink:title=" ">
<path fill="none" stroke="#63b8ff" d="M1203.51,-443.9C1424.55,-438.09 1990.79,-419.57 2066.5,-381 2095.45,-366.25 2118.47,-337.18 2133.54,-313.52"/>
<polygon fill="none" stroke="#63b8ff" points="1203.16,-440.41 1193.25,-444.17 1203.34,-447.41 1203.16,-440.41"/>
</a>
</g>
</g>
<!-- Node2 -->
<g id="Node000002" class="node">
<title>Node2</title>
<g id="a_Node000002"><a xlink:title=" ">
<polygon fill="white" stroke="transparent" points="1161,-562 1070,-562 1070,-513 1161,-513 1161,-562"/>
<text text-anchor="start" x="1075.5" y="-549.5" font-family="Helvetica,sans-Serif" font-size="10.00">ScriptableObject</text>
<text text-anchor="start" x="1114" y="-534.5" font-family="Helvetica,sans-Serif" font-size="10.00"> </text>
<text text-anchor="start" x="1114" y="-519.5" font-family="Helvetica,sans-Serif" font-size="10.00"> </text>
<polygon fill="#666666" stroke="#666666" points="1070.5,-544.5 1070.5,-544.5 1161.5,-544.5 1161.5,-544.5 1070.5,-544.5"/>
<polygon fill="#666666" stroke="#666666" points="1070.5,-529.5 1070.5,-529.5 1161.5,-529.5 1161.5,-529.5 1070.5,-529.5"/>
<polygon fill="none" stroke="#666666" points="1070,-513 1070,-562 1161,-562 1161,-513 1070,-513"/>
</a>
</g>
</g>
<!-- Node2&#45;&gt;Node1 -->
<g id="edge1_Node000001_Node000002" class="edge">
<title>Node2&#45;&gt;Node1</title>
<g id="a_edge1_Node000001_Node000002"><a xlink:title=" ">
<path fill="none" stroke="#63b8ff" d="M1115.5,-502.55C1115.5,-494.18 1115.5,-485.28 1115.5,-477.16"/>
<polygon fill="none" stroke="#63b8ff" points="1112,-502.78 1115.5,-512.78 1119,-502.78 1112,-502.78"/>
</a>
</g>
</g>
<!-- Node15 -->
<g id="Node000015" class="node">
<title>Node15</title>
<g id="a_Node000015"><a xlink:href="classGuildmaster_1_1Data_1_1Definitions_1_1EnemyData.html" target="_top" xlink:title="Вражеский юнит: боевой кит (UnitData) + мета врага (очки опасности, награда).">
<polygon fill="white" stroke="transparent" points="1969,-105 1814,-105 1814,-30 1969,-30 1969,-105"/>
<text text-anchor="start" x="1819.5" y="-92.5" font-family="Helvetica,sans-Serif" font-size="10.00">Guildmaster.Data.Definitions.</text>
<text text-anchor="start" x="1863" y="-81.5" font-family="Helvetica,sans-Serif" font-size="10.00">EnemyData</text>
<text text-anchor="start" x="1836.5" y="-66.5" font-family="Helvetica,sans-Serif" font-size="10.00">+</text>
<text text-anchor="start" x="1867.5" y="-66.5" font-family="Helvetica,sans-Serif" font-size="10.00">ThreatPoints</text>
<text text-anchor="start" x="1836.5" y="-51.5" font-family="Helvetica,sans-Serif" font-size="10.00">+</text>
<text text-anchor="start" x="1867.5" y="-51.5" font-family="Helvetica,sans-Serif" font-size="10.00">GoldBounty</text>
<text text-anchor="start" x="1890" y="-36.5" font-family="Helvetica,sans-Serif" font-size="10.00"> </text>
<polygon fill="#666666" stroke="#666666" points="1814.5,-76.5 1814.5,-76.5 1969.5,-76.5 1969.5,-76.5 1814.5,-76.5"/>
<polygon fill="#666666" stroke="#666666" points="1814.5,-46.5 1814.5,-46.5 1865.5,-46.5 1865.5,-46.5 1814.5,-46.5"/>
<polygon fill="#666666" stroke="#666666" points="1865.5,-46.5 1865.5,-46.5 1969.5,-46.5 1969.5,-46.5 1865.5,-46.5"/>
<polygon fill="none" stroke="#666666" points="1814,-30 1814,-105 1969,-105 1969,-30 1814,-30"/>
</a>
</g>
</g>
<!-- Node14&#45;&gt;Node15 -->
<g id="edge14_Node000014_Node000015" class="edge">
<title>Node14&#45;&gt;Node15</title>
<g id="a_edge14_Node000014_Node000015"><a xlink:title=" ">
<path fill="none" stroke="#63b8ff" d="M1931.55,-161.43C1922.75,-141.01 1914.18,-121.13 1907.25,-105.03"/>
<polygon fill="none" stroke="#63b8ff" points="1928.44,-163.04 1935.61,-170.84 1934.87,-160.27 1928.44,-163.04"/>
</a>
</g>
</g>
<!-- Node16 -->
<g id="Node000016" class="node">
<title>Node16</title>
<g id="a_Node000016"><a xlink:href="classGuildmaster_1_1Data_1_1Definitions_1_1RelicData.html" target="_top" xlink:title="«Чемпион» — реликвия игрока: боевой кит (UnitData) + мета забега (редкость, нагрузка на забег,...">
<polygon fill="white" stroke="transparent" points="2152,-135 1987,-135 1987,0 2152,0 2152,-135"/>
<text text-anchor="start" x="1997.5" y="-122.5" font-family="Helvetica,sans-Serif" font-size="10.00">Guildmaster.Data.Definitions.</text>
<text text-anchor="start" x="2046" y="-111.5" font-family="Helvetica,sans-Serif" font-size="10.00">RelicData</text>
<text text-anchor="start" x="1991.5" y="-96.5" font-family="Helvetica,sans-Serif" font-size="10.00">+</text>
<text text-anchor="start" x="2004.5" y="-96.5" font-family="Helvetica,sans-Serif" font-size="10.00">Tags</text>
<text text-anchor="start" x="1991.5" y="-81.5" font-family="Helvetica,sans-Serif" font-size="10.00">+</text>
<text text-anchor="start" x="2004.5" y="-81.5" font-family="Helvetica,sans-Serif" font-size="10.00">KitPower</text>
<text text-anchor="start" x="1991.5" y="-66.5" font-family="Helvetica,sans-Serif" font-size="10.00">+</text>
<text text-anchor="start" x="2004.5" y="-66.5" font-family="Helvetica,sans-Serif" font-size="10.00">DropRarity</text>
<text text-anchor="start" x="1991.5" y="-51.5" font-family="Helvetica,sans-Serif" font-size="10.00">+</text>
<text text-anchor="start" x="2004.5" y="-51.5" font-family="Helvetica,sans-Serif" font-size="10.00">RunEffects</text>
<text text-anchor="start" x="1991.5" y="-36.5" font-family="Helvetica,sans-Serif" font-size="10.00">+</text>
<text text-anchor="start" x="2004.5" y="-36.5" font-family="Helvetica,sans-Serif" font-size="10.00">AltAiPresets</text>
<text text-anchor="start" x="1991.5" y="-21.5" font-family="Helvetica,sans-Serif" font-size="10.00">+</text>
<text text-anchor="start" x="2004.5" y="-21.5" font-family="Helvetica,sans-Serif" font-size="10.00">CanUseExtendedDeployment</text>
<text text-anchor="start" x="2068" y="-6.5" font-family="Helvetica,sans-Serif" font-size="10.00"> </text>
<polygon fill="#666666" stroke="#666666" points="1987.5,-106.5 1987.5,-106.5 2152.5,-106.5 2152.5,-106.5 1987.5,-106.5"/>
<polygon fill="#666666" stroke="#666666" points="1987.5,-16.5 1987.5,-16.5 2002.5,-16.5 2002.5,-16.5 1987.5,-16.5"/>
<polygon fill="#666666" stroke="#666666" points="2002.5,-16.5 2002.5,-16.5 2152.5,-16.5 2152.5,-16.5 2002.5,-16.5"/>
<polygon fill="none" stroke="#666666" points="1987,0 1987,-135 2152,-135 2152,0 1987,0"/>
</a>
</g>
</g>
<!-- Node14&#45;&gt;Node16 -->
<g id="edge15_Node000014_Node000016" class="edge">
<title>Node14&#45;&gt;Node16</title>
<g id="a_edge15_Node000014_Node000016"><a xlink:title=" ">
<path fill="none" stroke="#63b8ff" d="M2029.43,-161.48C2033.29,-152.51 2037.11,-143.66 2040.76,-135.18"/>
<polygon fill="none" stroke="#63b8ff" points="2026.13,-160.27 2025.39,-170.84 2032.56,-163.04 2026.13,-160.27"/>
</a>
</g>
</g>
</g>
</svg>
