<?xml version="1.0" encoding="UTF-8" standalone="no"?>
<!DOCTYPE svg PUBLIC "-//W3C//DTD SVG 1.1//EN"
 "http://www.w3.org/Graphics/SVG/1.1/DTD/svg11.dtd">
<!-- Generated by graphviz version 2.43.0 (0)
 -->
<!-- Title: Guildmaster.Game.Services.JsonFileSaveServiceBase.TryLoad&lt; T &gt; Pages: 1 -->
<svg width="415pt" height="152pt"
 viewBox="0.00 0.00 415.00 152.00" xmlns="http://www.w3.org/2000/svg" xmlns:xlink="http://www.w3.org/1999/xlink">

<svg id="main" version="1.1" xmlns="http://www.w3.org/2000/svg" xmlns:xlink="http://www.w3.org/1999/xlink" xml:space="preserve" onload="init(evt)">
<style type="text/css"><![CDATA[
.node, .edge {opacity: 0.7;}
.node.selected, .edge.selected {opacity: 1;}
.edge:hover path { stroke: red; }
.edge:hover polygon { stroke: red; fill: red; }
]]></style>
<script type="application/ecmascript" xlink:href="svg.min.js"/>
<svg id="graph" class="graph">
<g id="graph0" class="graph" transform="scale(1 1) rotate(0) translate(4 148)">
<title>Guildmaster.Game.Services.JsonFileSaveServiceBase.TryLoad&lt; T &gt;</title>
<!-- Node1 -->
<g id="Node000001" class="node">
<title>Node1</title>
<g id="a_Node000001"><a xlink:title="Загрузить значение по ключу.">
<polygon fill="#999999" stroke="#666666" points="207,-78 0,-78 0,-48 207,-48 207,-78"/>
<text text-anchor="start" x="8" y="-66" font-family="Helvetica,sans-Serif" font-size="10.00">Guildmaster.Game.Services.</text>
<text text-anchor="middle" x="103.5" y="-55" font-family="Helvetica,sans-Serif" font-size="10.00">JsonFileSaveServiceBase.TryLoad&lt; T &gt;</text>
</a>
</g>
</g>
<!-- Node2 -->
<g id="Node000002" class="node">
<title>Node2</title>
<g id="a_Node000002"><a xlink:href="structGuildmaster_1_1Core_1_1Persistence_1_1SaveLoadResult.html#ad13e72b8cf071c2fffa9680f57d8f7b8" target="_top" xlink:title=" ">
<polygon fill="white" stroke="#666666" points="407,-144 243,-144 243,-114 407,-114 407,-144"/>
<text text-anchor="start" x="251" y="-132" font-family="Helvetica,sans-Serif" font-size="10.00">Guildmaster.Core.Persistence.</text>
<text text-anchor="middle" x="325" y="-121" font-family="Helvetica,sans-Serif" font-size="10.00">SaveLoadResult.Corrupted</text>
</a>
</g>
</g>
<!-- Node1&#45;&gt;Node2 -->
<g id="edge1_Node000001_Node000002" class="edge">
<title>Node1&#45;&gt;Node2</title>
<g id="a_edge1_Node000001_Node000002"><a xlink:title=" ">
<path fill="none" stroke="#63b8ff" d="M153.83,-78.04C180.27,-86.08 213.4,-96.13 243,-105 249.51,-106.95 256.32,-108.98 263.11,-111"/>
<polygon fill="#63b8ff" stroke="#63b8ff" points="262.42,-114.45 273,-113.94 264.41,-107.74 262.42,-114.45"/>
</a>
</g>
</g>
<!-- Node3 -->
<g id="Node000003" class="node">
<title>Node3</title>
<g id="a_Node000003"><a xlink:href="classGuildmaster_1_1Game_1_1Services_1_1JsonFileSaveServiceBase.html#a1bb318fb80055081d8fc88ca97608df8" target="_top" xlink:title="Ключи первого уровня под указанным префиксом — без него не собрать список профилей и гильдий.">
<polygon fill="white" stroke="#666666" points="404,-78 246,-78 246,-48 404,-48 404,-78"/>
<text text-anchor="start" x="254" y="-66" font-family="Helvetica,sans-Serif" font-size="10.00">Guildmaster.Game.Services.</text>
<text text-anchor="middle" x="325" y="-55" font-family="Helvetica,sans-Serif" font-size="10.00">JsonFileSaveServiceBase.List</text>
</a>
</g>
</g>
<!-- Node1&#45;&gt;Node3 -->
<g id="edge2_Node000001_Node000003" class="edge">
<title>Node1&#45;&gt;Node3</title>
<g id="a_edge2_Node000001_Node000003"><a xlink:title=" ">
<path fill="none" stroke="#63b8ff" d="M207.18,-63C216.69,-63 226.26,-63 235.62,-63"/>
<polygon fill="#63b8ff" stroke="#63b8ff" points="235.68,-66.5 245.68,-63 235.68,-59.5 235.68,-66.5"/>
</a>
</g>
</g>
<!-- Node4 -->
<g id="Node000004" class="node">
<title>Node4</title>
<g id="a_Node000004"><a xlink:href="structGuildmaster_1_1Core_1_1Persistence_1_1SaveLoadResult.html#ad6d607b888e06058e0a7d0244793007f" target="_top" xlink:title=" ">
<polygon fill="white" stroke="#666666" points="407,-30 243,-30 243,0 407,0 407,-30"/>
<text text-anchor="start" x="251" y="-18" font-family="Helvetica,sans-Serif" font-size="10.00">Guildmaster.Core.Persistence.</text>
<text text-anchor="middle" x="325" y="-7" font-family="Helvetica,sans-Serif" font-size="10.00">SaveLoadResult.Missing</text>
</a>
</g>
</g>
<!-- Node1&#45;&gt;Node4 -->
<g id="edge4_Node000001_Node000004" class="edge">
<title>Node1&#45;&gt;Node4</title>
<g id="a_edge4_Node000001_Node000004"><a xlink:title=" ">
<path fill="none" stroke="#63b8ff" d="M173.35,-47.94C196.23,-42.94 221.88,-37.33 245.44,-32.18"/>
<polygon fill="#63b8ff" stroke="#63b8ff" points="246.37,-35.56 255.4,-30 244.88,-28.72 246.37,-35.56"/>
</a>
</g>
</g>
<!-- Node3&#45;&gt;Node3 -->
<g id="edge3_Node000003_Node000003" class="edge">
<title>Node3&#45;&gt;Node3</title>
<g id="a_edge3_Node000003_Node000003"><a xlink:title=" ">
<path fill="none" stroke="#63b8ff" d="M286.33,-78.28C277.73,-87.41 290.62,-96 325,-96 345.41,-96 358.25,-92.97 363.51,-88.6"/>
<polygon fill="#63b8ff" stroke="#63b8ff" points="367.01,-88.33 363.67,-78.28 360.01,-88.22 367.01,-88.33"/>
</a>
</g>
</g>
</g>
</svg>
</svg>

<style type='text/css'>
<![CDATA[
[data-mouse-over-selected='false'] { opacity: 0.7; }
[data-mouse-over-selected='true']  { opacity: 1.0; }
]]>
</style>
<script type="application/ecmascript"><![CDATA[
document.addEventListener('DOMContentLoaded', (event) => {
  highlightEdges();
  highlightAdjacentNodes();
});
]]></script>
</svg>
