<?xml version="1.0" encoding="UTF-8" standalone="no"?>
<!DOCTYPE svg PUBLIC "-//W3C//DTD SVG 1.1//EN"
 "http://www.w3.org/Graphics/SVG/1.1/DTD/svg11.dtd">
<!-- Generated by graphviz version 2.43.0 (0)
 -->
<!-- Title: Guildmaster.Combat.Effects.Components.LifestealComponent Pages: 1 -->
<svg width="181pt" height="368pt"
 viewBox="0.00 0.00 181.00 368.00" xmlns="http://www.w3.org/2000/svg" xmlns:xlink="http://www.w3.org/1999/xlink">
<g id="graph0" class="graph" transform="scale(1 1) rotate(0) translate(4 364)">
<title>Guildmaster.Combat.Effects.Components.LifestealComponent</title>
<!-- Node1 -->
<g id="Node000001" class="node">
<title>Node1</title>
<g id="a_Node000001"><a xlink:title="Вампиризм: исцеляет носителя на долю нанесённого им урона.">
<polygon fill="#999999" stroke="transparent" points="173,-90 0,-90 0,0 173,0 173,-90"/>
<text text-anchor="start" x="5.5" y="-78" font-family="Helvetica,sans-Serif" font-size="10.00">Guildmaster.Combat.Effects.</text>
<text text-anchor="start" x="5.5" y="-67" font-family="Helvetica,sans-Serif" font-size="10.00">Components.LifestealComponent</text>
<text text-anchor="start" x="29.5" y="-52" font-family="Helvetica,sans-Serif" font-size="10.00">+</text>
<text text-anchor="start" x="67.5" y="-52" font-family="Helvetica,sans-Serif" font-size="10.00">Events</text>
<text text-anchor="start" x="29.5" y="-37" font-family="Helvetica,sans-Serif" font-size="10.00">+</text>
<text text-anchor="start" x="67.5" y="-37" font-family="Helvetica,sans-Serif" font-size="10.00">OnApply()</text>
<text text-anchor="start" x="29.5" y="-22" font-family="Helvetica,sans-Serif" font-size="10.00">+</text>
<text text-anchor="start" x="67.5" y="-22" font-family="Helvetica,sans-Serif" font-size="10.00">OnExpire()</text>
<text text-anchor="start" x="29.5" y="-7" font-family="Helvetica,sans-Serif" font-size="10.00">+</text>
<text text-anchor="start" x="67.5" y="-7" font-family="Helvetica,sans-Serif" font-size="10.00">OnEvent()</text>
<polygon fill="#666666" stroke="#666666" points="0.5,-62 0.5,-62 173.5,-62 173.5,-62 0.5,-62"/>
<polygon fill="#666666" stroke="#666666" points="0.5,-47 0.5,-47 65.5,-47 65.5,-47 0.5,-47"/>
<polygon fill="#666666" stroke="#666666" points="65.5,-47 65.5,-47 173.5,-47 173.5,-47 65.5,-47"/>
<polygon fill="none" stroke="#666666" points="0,0 0,-90 173,-90 173,0 0,0"/>
</a>
</g>
</g>
<!-- Node2 -->
<g id="Node000002" class="node">
<title>Node2</title>
<g id="a_Node000002"><a xlink:href="interfaceGuildmaster_1_1Combat_1_1Effects_1_1IReactiveComponent.html" target="_top" xlink:title="Реактивный компонент: реагирует на боевые события (вампиризм/шипы). Диспатч — внутренняя FIFO&#45;очередь...">
<polygon fill="white" stroke="transparent" points="143,-175 30,-175 30,-126 143,-126 143,-175"/>
<text text-anchor="start" x="35.5" y="-162.5" font-family="Helvetica,sans-Serif" font-size="10.00">IReactiveComponent</text>
<text text-anchor="start" x="45" y="-147.5" font-family="Helvetica,sans-Serif" font-size="10.00">+</text>
<text text-anchor="start" x="68.5" y="-147.5" font-family="Helvetica,sans-Serif" font-size="10.00">Events</text>
<text text-anchor="start" x="45" y="-132.5" font-family="Helvetica,sans-Serif" font-size="10.00">+</text>
<text text-anchor="start" x="68.5" y="-132.5" font-family="Helvetica,sans-Serif" font-size="10.00">OnEvent()</text>
<polygon fill="#666666" stroke="#666666" points="30.5,-157.5 30.5,-157.5 143.5,-157.5 143.5,-157.5 30.5,-157.5"/>
<polygon fill="#666666" stroke="#666666" points="30.5,-142.5 30.5,-142.5 66.5,-142.5 66.5,-142.5 30.5,-142.5"/>
<polygon fill="#666666" stroke="#666666" points="66.5,-142.5 66.5,-142.5 143.5,-142.5 143.5,-142.5 66.5,-142.5"/>
<polygon fill="none" stroke="#666666" points="30,-126 30,-175 143,-175 143,-126 30,-126"/>
</a>
</g>
</g>
<!-- Node2&#45;&gt;Node1 -->
<g id="edge1_Node000001_Node000002" class="edge">
<title>Node2&#45;&gt;Node1</title>
<g id="a_edge1_Node000001_Node000002"><a xlink:title=" ">
<path fill="none" stroke="#63b8ff" d="M86.5,-115.62C86.5,-107.56 86.5,-98.84 86.5,-90.39"/>
<polygon fill="none" stroke="#63b8ff" points="83,-115.75 86.5,-125.76 90,-115.76 83,-115.75"/>
</a>
</g>
</g>
<!-- Node3 -->
<g id="Node000003" class="node">
<title>Node3</title>
<g id="a_Node000003"><a xlink:href="interfaceGuildmaster_1_1Combat_1_1Effects_1_1IRuntimeEffectComponent.html" target="_top" xlink:title="Рантайм&#45;контракт поведения эффекта.">
<polygon fill="white" stroke="transparent" points="156,-275 17,-275 17,-211 156,-211 156,-275"/>
<text text-anchor="start" x="22.5" y="-263" font-family="Helvetica,sans-Serif" font-size="10.00">IRuntimeEffectComponent</text>
<text text-anchor="start" x="85" y="-248" font-family="Helvetica,sans-Serif" font-size="10.00"> </text>
<text text-anchor="start" x="38" y="-233" font-family="Helvetica,sans-Serif" font-size="10.00">+</text>
<text text-anchor="start" x="67.5" y="-233" font-family="Helvetica,sans-Serif" font-size="10.00">OnApply()</text>
<text text-anchor="start" x="38" y="-218" font-family="Helvetica,sans-Serif" font-size="10.00">+</text>
<text text-anchor="start" x="67.5" y="-218" font-family="Helvetica,sans-Serif" font-size="10.00">OnExpire()</text>
<polygon fill="#666666" stroke="#666666" points="17.5,-258 17.5,-258 156.5,-258 156.5,-258 17.5,-258"/>
<polygon fill="#666666" stroke="#666666" points="17.5,-243 17.5,-243 156.5,-243 156.5,-243 17.5,-243"/>
<polygon fill="none" stroke="#666666" points="17,-211 17,-275 156,-275 156,-211 17,-211"/>
</a>
</g>
</g>
<!-- Node3&#45;&gt;Node2 -->
<g id="edge2_Node000002_Node000003" class="edge">
<title>Node3&#45;&gt;Node2</title>
<g id="a_edge2_Node000002_Node000003"><a xlink:title=" ">
<path fill="none" stroke="#63b8ff" d="M86.5,-200.77C86.5,-192.03 86.5,-183.09 86.5,-175.27"/>
<polygon fill="none" stroke="#63b8ff" points="83,-200.85 86.5,-210.86 90,-200.86 83,-200.85"/>
</a>
</g>
</g>
<!-- Node4 -->
<g id="Node000004" class="node">
<title>Node4</title>
<g id="a_Node000004"><a xlink:href="interfaceGuildmaster_1_1Data_1_1Definitions_1_1IEffectComponent.html" target="_top" xlink:title="Якорь полиморфного поведения эффекта для сериализации.">
<polygon fill="white" stroke="transparent" points="135.5,-360 37.5,-360 37.5,-311 135.5,-311 135.5,-360"/>
<text text-anchor="start" x="42.5" y="-347.5" font-family="Helvetica,sans-Serif" font-size="10.00">IEffectComponent</text>
<text text-anchor="start" x="84.5" y="-332.5" font-family="Helvetica,sans-Serif" font-size="10.00"> </text>
<text text-anchor="start" x="84.5" y="-317.5" font-family="Helvetica,sans-Serif" font-size="10.00"> </text>
<polygon fill="#666666" stroke="#666666" points="37.5,-342.5 37.5,-342.5 135.5,-342.5 135.5,-342.5 37.5,-342.5"/>
<polygon fill="#666666" stroke="#666666" points="37.5,-327.5 37.5,-327.5 135.5,-327.5 135.5,-327.5 37.5,-327.5"/>
<polygon fill="none" stroke="#666666" points="37.5,-311 37.5,-360 135.5,-360 135.5,-311 37.5,-311"/>
</a>
</g>
</g>
<!-- Node4&#45;&gt;Node3 -->
<g id="edge3_Node000003_Node000004" class="edge">
<title>Node4&#45;&gt;Node3</title>
<g id="a_edge3_Node000003_Node000004"><a xlink:title=" ">
<path fill="none" stroke="#63b8ff" d="M86.5,-300.54C86.5,-292.2 86.5,-283.31 86.5,-275.11"/>
<polygon fill="none" stroke="#63b8ff" points="83,-300.72 86.5,-310.72 90,-300.72 83,-300.72"/>
</a>
</g>
</g>
</g>
</svg>
