<?xml version="1.0" encoding="UTF-8" standalone="no"?>
<!DOCTYPE svg PUBLIC "-//W3C//DTD SVG 1.1//EN"
 "http://www.w3.org/Graphics/SVG/1.1/DTD/svg11.dtd">
<!-- Generated by graphviz version 2.43.0 (0)
 -->
<!-- Title: Guildmaster.Combat.Abilities.AbilityRuntime Pages: 1 -->
<svg width="165pt" height="250pt"
 viewBox="0.00 0.00 165.00 250.00" xmlns="http://www.w3.org/2000/svg" xmlns:xlink="http://www.w3.org/1999/xlink">
<g id="graph0" class="graph" transform="scale(1 1) rotate(0) translate(4 246)">
<title>Guildmaster.Combat.Abilities.AbilityRuntime</title>
<!-- Node1 -->
<g id="Node000001" class="node">
<title>Node1</title>
<g id="a_Node000001"><a xlink:title="Рантайм&#45;состояние одной активной способности на юните (POCO, один бой): таймер кулдауна.">
<polygon fill="#999999" stroke="transparent" points="157,-75 0,-75 0,0 157,0 157,-75"/>
<text text-anchor="start" x="5.5" y="-62.5" font-family="Helvetica,sans-Serif" font-size="10.00">Guildmaster.Combat.Abilities.</text>
<text text-anchor="start" x="42.5" y="-51.5" font-family="Helvetica,sans-Serif" font-size="10.00">AbilityRuntime</text>
<text text-anchor="start" x="13" y="-36.5" font-family="Helvetica,sans-Serif" font-size="10.00">+</text>
<text text-anchor="start" x="34.5" y="-36.5" font-family="Helvetica,sans-Serif" font-size="10.00">CooldownRemaining</text>
<text text-anchor="start" x="13" y="-21.5" font-family="Helvetica,sans-Serif" font-size="10.00">+</text>
<text text-anchor="start" x="34.5" y="-21.5" font-family="Helvetica,sans-Serif" font-size="10.00">IsReady</text>
<text text-anchor="start" x="13" y="-6.5" font-family="Helvetica,sans-Serif" font-size="10.00">+</text>
<text text-anchor="start" x="34.5" y="-6.5" font-family="Helvetica,sans-Serif" font-size="10.00">AbilityRuntime()</text>
<polygon fill="#666666" stroke="#666666" points="0.5,-46.5 0.5,-46.5 157.5,-46.5 157.5,-46.5 0.5,-46.5"/>
<polygon fill="#666666" stroke="#666666" points="0.5,-16.5 0.5,-16.5 32.5,-16.5 32.5,-16.5 0.5,-16.5"/>
<polygon fill="#666666" stroke="#666666" points="32.5,-16.5 32.5,-16.5 157.5,-16.5 157.5,-16.5 32.5,-16.5"/>
<polygon fill="none" stroke="#666666" points="0,0 0,-75 157,-75 157,0 0,0"/>
</a>
</g>
</g>
<!-- Node2 -->
<g id="Node000002" class="node">
<title>Node2</title>
<g id="a_Node000002"><a xlink:href="classGuildmaster_1_1Data_1_1Definitions_1_1AbilityData.html" target="_top" xlink:title="Определение активной способности реликвии: эффекты при касте, кулдаун, стоимость ресурса,...">
<polygon fill="white" stroke="transparent" points="156,-242 1,-242 1,-122 156,-122 156,-242"/>
<text text-anchor="start" x="6.5" y="-230" font-family="Helvetica,sans-Serif" font-size="10.00">Guildmaster.Data.Definitions.</text>
<text text-anchor="start" x="51.5" y="-219" font-family="Helvetica,sans-Serif" font-size="10.00">AbilityData</text>
<text text-anchor="start" x="20.5" y="-204" font-family="Helvetica,sans-Serif" font-size="10.00">+</text>
<text text-anchor="start" x="48.5" y="-204" font-family="Helvetica,sans-Serif" font-size="10.00">Id</text>
<text text-anchor="start" x="20.5" y="-189" font-family="Helvetica,sans-Serif" font-size="10.00">+</text>
<text text-anchor="start" x="48.5" y="-189" font-family="Helvetica,sans-Serif" font-size="10.00">Effects</text>
<text text-anchor="start" x="20.5" y="-174" font-family="Helvetica,sans-Serif" font-size="10.00">+</text>
<text text-anchor="start" x="48.5" y="-174" font-family="Helvetica,sans-Serif" font-size="10.00">BaseCooldown</text>
<text text-anchor="start" x="20.5" y="-159" font-family="Helvetica,sans-Serif" font-size="10.00">+</text>
<text text-anchor="start" x="48.5" y="-159" font-family="Helvetica,sans-Serif" font-size="10.00">ResourceCost</text>
<text text-anchor="start" x="20.5" y="-144" font-family="Helvetica,sans-Serif" font-size="10.00">+</text>
<text text-anchor="start" x="48.5" y="-144" font-family="Helvetica,sans-Serif" font-size="10.00">TargetMode</text>
<text text-anchor="start" x="77" y="-129" font-family="Helvetica,sans-Serif" font-size="10.00"> </text>
<polygon fill="#666666" stroke="#666666" points="1.5,-214 1.5,-214 156.5,-214 156.5,-214 1.5,-214"/>
<polygon fill="#666666" stroke="#666666" points="1.5,-139 1.5,-139 46.5,-139 46.5,-139 1.5,-139"/>
<polygon fill="#666666" stroke="#666666" points="46.5,-139 46.5,-139 156.5,-139 156.5,-139 46.5,-139"/>
<polygon fill="none" stroke="#666666" points="1,-122 1,-242 156,-242 156,-122 1,-122"/>
</a>
</g>
</g>
<!-- Node2&#45;&gt;Node1 -->
<g id="edge1_Node000001_Node000002" class="edge">
<title>Node2&#45;&gt;Node1</title>
<g id="a_edge1_Node000001_Node000002"><a xlink:title=" ">
<path fill="none" stroke="#63b8ff" d="M78.5,-121.81C78.5,-110.36 78.5,-98.49 78.5,-87.42"/>
<polygon fill="none" stroke="#63b8ff" points="78.5,-87.32 74.5,-81.32 78.5,-75.32 82.5,-81.32 78.5,-87.32"/>
</a>
</g>
<text text-anchor="middle" x="96" y="-96" font-family="Helvetica,sans-Serif" font-size="10.00" fill="grey"> +Data</text>
</g>
</g>
</svg>
