<?xml version="1.0" encoding="UTF-8" standalone="no"?>
<!DOCTYPE svg PUBLIC "-//W3C//DTD SVG 1.1//EN"
 "http://www.w3.org/Graphics/SVG/1.1/DTD/svg11.dtd">
<!-- Generated by graphviz version 2.43.0 (0)
 -->
<!-- Title: Guildmaster.Data.Definitions.EffectData Pages: 1 -->
<svg width="163pt" height="273pt"
 viewBox="0.00 0.00 163.00 273.00" xmlns="http://www.w3.org/2000/svg" xmlns:xlink="http://www.w3.org/1999/xlink">
<g id="graph0" class="graph" transform="scale(1 1) rotate(0) translate(4 269)">
<title>Guildmaster.Data.Definitions.EffectData</title>
<!-- Node1 -->
<g id="Node000001" class="node">
<title>Node1</title>
<g id="a_Node000001"><a xlink:title="Иммутабельное определение таймированного эффекта: идентичность, полярность, категориальные теги,...">
<polygon fill="#999999" stroke="transparent" points="155,-180 0,-180 0,0 155,0 155,-180"/>
<text text-anchor="start" x="5.5" y="-168" font-family="Helvetica,sans-Serif" font-size="10.00">Guildmaster.Data.Definitions.</text>
<text text-anchor="start" x="52" y="-157" font-family="Helvetica,sans-Serif" font-size="10.00">EffectData</text>
<text text-anchor="start" x="21" y="-142" font-family="Helvetica,sans-Serif" font-size="10.00">+</text>
<text text-anchor="start" x="50.5" y="-142" font-family="Helvetica,sans-Serif" font-size="10.00">Id</text>
<text text-anchor="start" x="21" y="-127" font-family="Helvetica,sans-Serif" font-size="10.00">+</text>
<text text-anchor="start" x="50.5" y="-127" font-family="Helvetica,sans-Serif" font-size="10.00">Polarity</text>
<text text-anchor="start" x="21" y="-112" font-family="Helvetica,sans-Serif" font-size="10.00">+</text>
<text text-anchor="start" x="50.5" y="-112" font-family="Helvetica,sans-Serif" font-size="10.00">Tags</text>
<text text-anchor="start" x="21" y="-97" font-family="Helvetica,sans-Serif" font-size="10.00">+</text>
<text text-anchor="start" x="50.5" y="-97" font-family="Helvetica,sans-Serif" font-size="10.00">BaseDuration</text>
<text text-anchor="start" x="21" y="-82" font-family="Helvetica,sans-Serif" font-size="10.00">+</text>
<text text-anchor="start" x="50.5" y="-82" font-family="Helvetica,sans-Serif" font-size="10.00">Stacking</text>
<text text-anchor="start" x="21" y="-67" font-family="Helvetica,sans-Serif" font-size="10.00">+</text>
<text text-anchor="start" x="50.5" y="-67" font-family="Helvetica,sans-Serif" font-size="10.00">MaxStacks</text>
<text text-anchor="start" x="21" y="-52" font-family="Helvetica,sans-Serif" font-size="10.00">+</text>
<text text-anchor="start" x="50.5" y="-52" font-family="Helvetica,sans-Serif" font-size="10.00">CleanseTier</text>
<text text-anchor="start" x="21" y="-37" font-family="Helvetica,sans-Serif" font-size="10.00">+</text>
<text text-anchor="start" x="50.5" y="-37" font-family="Helvetica,sans-Serif" font-size="10.00">Unremovable</text>
<text text-anchor="start" x="21" y="-22" font-family="Helvetica,sans-Serif" font-size="10.00">+</text>
<text text-anchor="start" x="50.5" y="-22" font-family="Helvetica,sans-Serif" font-size="10.00">Components</text>
<text text-anchor="start" x="76" y="-7" font-family="Helvetica,sans-Serif" font-size="10.00"> </text>
<polygon fill="#666666" stroke="#666666" points="0.5,-152 0.5,-152 155.5,-152 155.5,-152 0.5,-152"/>
<polygon fill="#666666" stroke="#666666" points="0.5,-17 0.5,-17 48.5,-17 48.5,-17 0.5,-17"/>
<polygon fill="#666666" stroke="#666666" points="48.5,-17 48.5,-17 155.5,-17 155.5,-17 48.5,-17"/>
<polygon fill="none" stroke="#666666" points="0,0 0,-180 155,-180 155,0 0,0"/>
</a>
</g>
</g>
<!-- Node2 -->
<g id="Node000002" class="node">
<title>Node2</title>
<g id="a_Node000002"><a xlink:title=" ">
<polygon fill="white" stroke="transparent" points="123,-265 32,-265 32,-216 123,-216 123,-265"/>
<text text-anchor="start" x="37.5" y="-252.5" font-family="Helvetica,sans-Serif" font-size="10.00">ScriptableObject</text>
<text text-anchor="start" x="76" y="-237.5" font-family="Helvetica,sans-Serif" font-size="10.00"> </text>
<text text-anchor="start" x="76" y="-222.5" font-family="Helvetica,sans-Serif" font-size="10.00"> </text>
<polygon fill="#666666" stroke="#666666" points="32.5,-247.5 32.5,-247.5 123.5,-247.5 123.5,-247.5 32.5,-247.5"/>
<polygon fill="#666666" stroke="#666666" points="32.5,-232.5 32.5,-232.5 123.5,-232.5 123.5,-232.5 32.5,-232.5"/>
<polygon fill="none" stroke="#666666" points="32,-216 32,-265 123,-265 123,-216 32,-216"/>
</a>
</g>
</g>
<!-- Node2&#45;&gt;Node1 -->
<g id="edge1_Node000001_Node000002" class="edge">
<title>Node2&#45;&gt;Node1</title>
<g id="a_edge1_Node000001_Node000002"><a xlink:title=" ">
<path fill="none" stroke="#63b8ff" d="M77.5,-205.81C77.5,-197.92 77.5,-189.14 77.5,-180.06"/>
<polygon fill="none" stroke="#63b8ff" points="74,-205.97 77.5,-215.97 81,-205.97 74,-205.97"/>
</a>
</g>
</g>
</g>
</svg>
