<?xml version="1.0" encoding="UTF-8" standalone="no"?>
<!DOCTYPE svg PUBLIC "-//W3C//DTD SVG 1.1//EN"
 "http://www.w3.org/Graphics/SVG/1.1/DTD/svg11.dtd">
<!-- Generated by graphviz version 2.43.0 (0)
 -->
<!-- Title: Guildmaster.Game.BattleSetupBuilder Pages: 1 -->
<svg width="170pt" height="83pt"
 viewBox="0.00 0.00 170.00 83.00" xmlns="http://www.w3.org/2000/svg" xmlns:xlink="http://www.w3.org/1999/xlink">
<g id="graph0" class="graph" transform="scale(1 1) rotate(0) translate(4 79)">
<title>Guildmaster.Game.BattleSetupBuilder</title>
<!-- Node1 -->
<g id="Node000001" class="node">
<title>Node1</title>
<g id="a_Node000001"><a xlink:title="Минимальный строитель начального состояния боя для Фазы 1: принимает массивы SO реликвий/сосудов и пе...">
<polygon fill="#999999" stroke="transparent" points="162,-75 0,-75 0,0 162,0 162,-75"/>
<text text-anchor="start" x="5" y="-62.5" font-family="Helvetica,sans-Serif" font-size="10.00">Guildmaster.Game.BattleSetup</text>
<text text-anchor="start" x="63.5" y="-51.5" font-family="Helvetica,sans-Serif" font-size="10.00">Builder</text>
<text text-anchor="start" x="79" y="-36.5" font-family="Helvetica,sans-Serif" font-size="10.00"> </text>
<text text-anchor="start" x="14" y="-21.5" font-family="Helvetica,sans-Serif" font-size="10.00">+</text>
<text text-anchor="start" x="37" y="-21.5" font-family="Helvetica,sans-Serif" font-size="10.00">BattleSetupBuilder()</text>
<text text-anchor="start" x="14" y="-6.5" font-family="Helvetica,sans-Serif" font-size="10.00">+</text>
<text text-anchor="start" x="37" y="-6.5" font-family="Helvetica,sans-Serif" font-size="10.00">SetupTestBattle()</text>
<polygon fill="#666666" stroke="#666666" points="0,-46.5 0,-46.5 162,-46.5 162,-46.5 0,-46.5"/>
<polygon fill="#666666" stroke="#666666" points="0,-31.5 0,-31.5 162,-31.5 162,-31.5 0,-31.5"/>
<polygon fill="none" stroke="#666666" points="0,0 0,-75 162,-75 162,0 0,0"/>
</a>
</g>
</g>
</g>
</svg>
