<?xml version="1.0" encoding="UTF-8" standalone="no"?>
<!DOCTYPE svg PUBLIC "-//W3C//DTD SVG 1.1//EN"
 "http://www.w3.org/Graphics/SVG/1.1/DTD/svg11.dtd">
<!-- Generated by graphviz version 2.43.0 (0)
 -->
<!-- Title: Guildmaster.DevTools.GuildmasterCommands Pages: 1 -->
<svg width="188pt" height="228pt"
 viewBox="0.00 0.00 188.00 228.00" xmlns="http://www.w3.org/2000/svg" xmlns:xlink="http://www.w3.org/1999/xlink">
<g id="graph0" class="graph" transform="scale(1 1) rotate(0) translate(4 224)">
<title>Guildmaster.DevTools.GuildmasterCommands</title>
<!-- Node1 -->
<g id="Node000001" class="node">
<title>Node1</title>
<g id="a_Node000001"><a xlink:title="Набор отладочных команд Quantum Console для Фазы 1 (вики «10» §9).">
<polygon fill="#999999" stroke="transparent" points="180,-135 0,-135 0,0 180,0 180,-135"/>
<text text-anchor="start" x="5" y="-122.5" font-family="Helvetica,sans-Serif" font-size="10.00">Guildmaster.DevTools.Guildmaster</text>
<text text-anchor="start" x="62" y="-111.5" font-family="Helvetica,sans-Serif" font-size="10.00">Commands</text>
<text text-anchor="start" x="88" y="-96.5" font-family="Helvetica,sans-Serif" font-size="10.00"> </text>
<text text-anchor="start" x="19.5" y="-81.5" font-family="Helvetica,sans-Serif" font-size="10.00">+</text>
<text text-anchor="start" x="48" y="-81.5" font-family="Helvetica,sans-Serif" font-size="10.00">Construct()</text>
<text text-anchor="start" x="19.5" y="-66.5" font-family="Helvetica,sans-Serif" font-size="10.00">+</text>
<text text-anchor="start" x="48" y="-66.5" font-family="Helvetica,sans-Serif" font-size="10.00">SetRngSeed()</text>
<text text-anchor="start" x="19.5" y="-51.5" font-family="Helvetica,sans-Serif" font-size="10.00">+</text>
<text text-anchor="start" x="48" y="-51.5" font-family="Helvetica,sans-Serif" font-size="10.00">SpawnBattle()</text>
<text text-anchor="start" x="19.5" y="-36.5" font-family="Helvetica,sans-Serif" font-size="10.00">+</text>
<text text-anchor="start" x="48" y="-36.5" font-family="Helvetica,sans-Serif" font-size="10.00">SetHp()</text>
<text text-anchor="start" x="19.5" y="-21.5" font-family="Helvetica,sans-Serif" font-size="10.00">+</text>
<text text-anchor="start" x="48" y="-21.5" font-family="Helvetica,sans-Serif" font-size="10.00">SkipBattle()</text>
<text text-anchor="start" x="19.5" y="-6.5" font-family="Helvetica,sans-Serif" font-size="10.00">+</text>
<text text-anchor="start" x="48" y="-6.5" font-family="Helvetica,sans-Serif" font-size="10.00">ToggleDebugDraw()</text>
<polygon fill="#666666" stroke="#666666" points="0,-106.5 0,-106.5 180,-106.5 180,-106.5 0,-106.5"/>
<polygon fill="#666666" stroke="#666666" points="0,-91.5 0,-91.5 180,-91.5 180,-91.5 0,-91.5"/>
<polygon fill="none" stroke="#666666" points="0,0 0,-135 180,-135 180,0 0,0"/>
</a>
</g>
</g>
<!-- Node2 -->
<g id="Node000002" class="node">
<title>Node2</title>
<g id="a_Node000002"><a xlink:title=" ">
<polygon fill="white" stroke="transparent" points="133.5,-220 46.5,-220 46.5,-171 133.5,-171 133.5,-220"/>
<text text-anchor="start" x="52" y="-207.5" font-family="Helvetica,sans-Serif" font-size="10.00">MonoBehaviour</text>
<text text-anchor="start" x="88.5" y="-192.5" font-family="Helvetica,sans-Serif" font-size="10.00"> </text>
<text text-anchor="start" x="88.5" y="-177.5" font-family="Helvetica,sans-Serif" font-size="10.00"> </text>
<polygon fill="#666666" stroke="#666666" points="47,-202.5 47,-202.5 134,-202.5 134,-202.5 47,-202.5"/>
<polygon fill="#666666" stroke="#666666" points="47,-187.5 47,-187.5 134,-187.5 134,-187.5 47,-187.5"/>
<polygon fill="none" stroke="#666666" points="46.5,-171 46.5,-220 133.5,-220 133.5,-171 46.5,-171"/>
</a>
</g>
</g>
<!-- Node2&#45;&gt;Node1 -->
<g id="edge1_Node000001_Node000002" class="edge">
<title>Node2&#45;&gt;Node1</title>
<g id="a_edge1_Node000001_Node000002"><a xlink:title=" ">
<path fill="none" stroke="#63b8ff" d="M90,-160.56C90,-152.65 90,-143.96 90,-135.17"/>
<polygon fill="none" stroke="#63b8ff" points="86.5,-160.8 90,-170.8 93.5,-160.8 86.5,-160.8"/>
</a>
</g>
</g>
</g>
</svg>
