<?xml version="1.0" encoding="UTF-8" standalone="no"?>
<!DOCTYPE svg PUBLIC "-//W3C//DTD SVG 1.1//EN"
 "http://www.w3.org/Graphics/SVG/1.1/DTD/svg11.dtd">
<!-- Generated by graphviz version 2.43.0 (0)
 -->
<!-- Title: Guildmaster.Data.Definitions.RelicData Pages: 1 -->
<svg width="163pt" height="243pt"
 viewBox="0.00 0.00 163.00 243.00" xmlns="http://www.w3.org/2000/svg" xmlns:xlink="http://www.w3.org/1999/xlink">
<g id="graph0" class="graph" transform="scale(1 1) rotate(0) translate(4 239)">
<title>Guildmaster.Data.Definitions.RelicData</title>
<!-- Node1 -->
<g id="Node000001" class="node">
<title>Node1</title>
<g id="a_Node000001"><a xlink:title="«Чемпион» — стат&#45;блок и боевые категории юнита.">
<polygon fill="#999999" stroke="transparent" points="155,-150 0,-150 0,0 155,0 155,-150"/>
<text text-anchor="start" x="5.5" y="-138" font-family="Helvetica,sans-Serif" font-size="10.00">Guildmaster.Data.Definitions.</text>
<text text-anchor="start" x="54" y="-127" font-family="Helvetica,sans-Serif" font-size="10.00">RelicData</text>
<text text-anchor="start" x="16.5" y="-112" font-family="Helvetica,sans-Serif" font-size="10.00">+</text>
<text text-anchor="start" x="41.5" y="-112" font-family="Helvetica,sans-Serif" font-size="10.00">DisplayNameKey</text>
<text text-anchor="start" x="16.5" y="-97" font-family="Helvetica,sans-Serif" font-size="10.00">+</text>
<text text-anchor="start" x="41.5" y="-97" font-family="Helvetica,sans-Serif" font-size="10.00">Tags</text>
<text text-anchor="start" x="16.5" y="-82" font-family="Helvetica,sans-Serif" font-size="10.00">+</text>
<text text-anchor="start" x="41.5" y="-82" font-family="Helvetica,sans-Serif" font-size="10.00">DamageType</text>
<text text-anchor="start" x="16.5" y="-67" font-family="Helvetica,sans-Serif" font-size="10.00">+</text>
<text text-anchor="start" x="41.5" y="-67" font-family="Helvetica,sans-Serif" font-size="10.00">AttackType</text>
<text text-anchor="start" x="16.5" y="-52" font-family="Helvetica,sans-Serif" font-size="10.00">+</text>
<text text-anchor="start" x="41.5" y="-52" font-family="Helvetica,sans-Serif" font-size="10.00">ResourceType</text>
<text text-anchor="start" x="16.5" y="-37" font-family="Helvetica,sans-Serif" font-size="10.00">+</text>
<text text-anchor="start" x="41.5" y="-37" font-family="Helvetica,sans-Serif" font-size="10.00">Stats</text>
<text text-anchor="start" x="16.5" y="-22" font-family="Helvetica,sans-Serif" font-size="10.00">+</text>
<text text-anchor="start" x="41.5" y="-22" font-family="Helvetica,sans-Serif" font-size="10.00">GrantedEffects</text>
<text text-anchor="start" x="76" y="-7" font-family="Helvetica,sans-Serif" font-size="10.00"> </text>
<polygon fill="#666666" stroke="#666666" points="0.5,-122 0.5,-122 155.5,-122 155.5,-122 0.5,-122"/>
<polygon fill="#666666" stroke="#666666" points="0.5,-17 0.5,-17 39.5,-17 39.5,-17 0.5,-17"/>
<polygon fill="#666666" stroke="#666666" points="39.5,-17 39.5,-17 155.5,-17 155.5,-17 39.5,-17"/>
<polygon fill="none" stroke="#666666" points="0,0 0,-150 155,-150 155,0 0,0"/>
</a>
</g>
</g>
<!-- Node2 -->
<g id="Node000002" class="node">
<title>Node2</title>
<g id="a_Node000002"><a xlink:title=" ">
<polygon fill="white" stroke="transparent" points="123,-235 32,-235 32,-186 123,-186 123,-235"/>
<text text-anchor="start" x="37.5" y="-222.5" font-family="Helvetica,sans-Serif" font-size="10.00">ScriptableObject</text>
<text text-anchor="start" x="76" y="-207.5" font-family="Helvetica,sans-Serif" font-size="10.00"> </text>
<text text-anchor="start" x="76" y="-192.5" font-family="Helvetica,sans-Serif" font-size="10.00"> </text>
<polygon fill="#666666" stroke="#666666" points="32.5,-217.5 32.5,-217.5 123.5,-217.5 123.5,-217.5 32.5,-217.5"/>
<polygon fill="#666666" stroke="#666666" points="32.5,-202.5 32.5,-202.5 123.5,-202.5 123.5,-202.5 32.5,-202.5"/>
<polygon fill="none" stroke="#666666" points="32,-186 32,-235 123,-235 123,-186 32,-186"/>
</a>
</g>
</g>
<!-- Node2&#45;&gt;Node1 -->
<g id="edge1_Node000001_Node000002" class="edge">
<title>Node2&#45;&gt;Node1</title>
<g id="a_edge1_Node000001_Node000002"><a xlink:title=" ">
<path fill="none" stroke="#63b8ff" d="M77.5,-175.69C77.5,-167.75 77.5,-158.98 77.5,-150.03"/>
<polygon fill="none" stroke="#63b8ff" points="74,-175.94 77.5,-185.94 81,-175.94 74,-175.94"/>
</a>
</g>
</g>
</g>
</svg>
