<?xml version="1.0" encoding="UTF-8" standalone="no"?>
<!DOCTYPE svg PUBLIC "-//W3C//DTD SVG 1.1//EN"
 "http://www.w3.org/Graphics/SVG/1.1/DTD/svg11.dtd">
<!-- Generated by graphviz version 2.43.0 (0)
 -->
<!-- Title: Guildmaster.Game.Services.ProfileService Pages: 1 -->
<!--zoomable 663 -->

<svg id="main" version="1.1" xmlns="http://www.w3.org/2000/svg" xmlns:xlink="http://www.w3.org/1999/xlink" xml:space="preserve" onload="init(evt)">
<style type="text/css"><![CDATA[
.node, .edge {opacity: 0.7;}
.node.selected, .edge.selected {opacity: 1;}
.edge:hover path { stroke: red; }
.edge:hover polygon { stroke: red; fill: red; }
]]></style>

<defs>
  <circle id="rim" cx="0" cy="0" r="7"/>
  <circle id="rim2" cx="0" cy="0" r="3.5"/>
  <g id="zoomPlus">
    <use xlink:href="#rim" fill="#404040"><set attributeName="fill" to="#808080" begin="zoomplus.mouseover" end="zoomplus.mouseout"/></use>
    <path d="M-4,0h8M0,-4v8" fill="none" stroke="white" stroke-width="1.5" pointer-events="none"/>
  </g>
  <g id="zoomMin">
    <use xlink:href="#rim" fill="#404040"><set attributeName="fill" to="#808080" begin="zoomminus.mouseover" end="zoomminus.mouseout"/></use>
    <path d="M-4,0h8" fill="none" stroke="white" stroke-width="1.5" pointer-events="none"/>
  </g>
  <g id="arrowUp" transform="translate(30 24)">
    <use xlink:href="#rim"/>
    <path pointer-events="none" fill="none" stroke="white" stroke-width="1.5" d="M0,-3.0v7 M-2.5,-0.5L0,-3.0L2.5,-0.5"/>
  </g>
  <g id="arrowRight" transform="rotate(90) translate(36 -43)">
    <use xlink:href="#rim"/>
    <path pointer-events="none" fill="none" stroke="white" stroke-width="1.5" d="M0,-3.0v7 M-2.5,-0.5L0,-3.0L2.5,-0.5"/>
  </g>
  <g id="arrowDown" transform="rotate(180) translate(-30 -48)">
    <use xlink:href="#rim"/>
    <path pointer-events="none" fill="none" stroke="white" stroke-width="1.5" d="M0,-3.0v7 M-2.5,-0.5L0,-3.0L2.5,-0.5"/>
  </g>
  <g id="arrowLeft" transform="rotate(270) translate(-36 17)">
    <use xlink:href="#rim"/>
    <path pointer-events="none" fill="none" stroke="white" stroke-width="1.5" d="M0,-3.0v7 M-2.5,-0.5L0,-3.0L2.5,-0.5"/>
  </g>
  <g id="resetDef">
    <use xlink:href="#rim2" fill="#404040"><set attributeName="fill" to="#808080" begin="reset.mouseover" end="reset.mouseout"/></use>
  </g>
</defs>
<script type="application/ecmascript">
var viewWidth = 206;
var viewHeight = 663;
var sectionId = 'dynsection-0';
</script>
<script type="application/ecmascript" xlink:href="svg.min.js"/>
<svg id="graph" class="graph">
<g id="viewport">
<title>Guildmaster.Game.Services.ProfileService</title>
<!-- Node1 -->
<g id="Node000001" class="node">
<title>Node1</title>
<g id="a_Node000001"><a xlink:title="Реализация IProfileService поверх ISaveService.">
<polygon fill="#999999" stroke="transparent" points="189.5,-330 40.5,-330 40.5,0 189.5,0 189.5,-330"/>
<text text-anchor="start" x="46" y="-318" font-family="Helvetica,sans-Serif" font-size="10.00">Guildmaster.Game.Services.</text>
<text text-anchor="start" x="82" y="-307" font-family="Helvetica,sans-Serif" font-size="10.00">ProfileService</text>
<text text-anchor="start" x="51.5" y="-292" font-family="Helvetica,sans-Serif" font-size="10.00">+</text>
<text text-anchor="start" x="71" y="-292" font-family="Helvetica,sans-Serif" font-size="10.00">Profiles</text>
<text text-anchor="start" x="51.5" y="-277" font-family="Helvetica,sans-Serif" font-size="10.00">+</text>
<text text-anchor="start" x="71" y="-277" font-family="Helvetica,sans-Serif" font-size="10.00">Guilds</text>
<text text-anchor="start" x="51.5" y="-262" font-family="Helvetica,sans-Serif" font-size="10.00">+</text>
<text text-anchor="start" x="71" y="-262" font-family="Helvetica,sans-Serif" font-size="10.00">ActiveProfile</text>
<text text-anchor="start" x="51.5" y="-247" font-family="Helvetica,sans-Serif" font-size="10.00">+</text>
<text text-anchor="start" x="71" y="-247" font-family="Helvetica,sans-Serif" font-size="10.00">ActiveGuild</text>
<text text-anchor="start" x="51.5" y="-232" font-family="Helvetica,sans-Serif" font-size="10.00">+</text>
<text text-anchor="start" x="71" y="-232" font-family="Helvetica,sans-Serif" font-size="10.00">HasActiveProfile</text>
<text text-anchor="start" x="51.5" y="-217" font-family="Helvetica,sans-Serif" font-size="10.00">+</text>
<text text-anchor="start" x="71" y="-217" font-family="Helvetica,sans-Serif" font-size="10.00">Identity</text>
<text text-anchor="start" x="51.5" y="-202" font-family="Helvetica,sans-Serif" font-size="10.00">+</text>
<text text-anchor="start" x="71" y="-202" font-family="Helvetica,sans-Serif" font-size="10.00">ProfilesFull</text>
<text text-anchor="start" x="51.5" y="-187" font-family="Helvetica,sans-Serif" font-size="10.00">+</text>
<text text-anchor="start" x="71" y="-187" font-family="Helvetica,sans-Serif" font-size="10.00">GuildsFull</text>
<text text-anchor="start" x="51.5" y="-172" font-family="Helvetica,sans-Serif" font-size="10.00">+</text>
<text text-anchor="start" x="71" y="-172" font-family="Helvetica,sans-Serif" font-size="10.00">RunKey</text>
<text text-anchor="start" x="51.5" y="-157" font-family="Helvetica,sans-Serif" font-size="10.00">+</text>
<text text-anchor="start" x="71" y="-157" font-family="Helvetica,sans-Serif" font-size="10.00">ProfileService()</text>
<text text-anchor="start" x="51.5" y="-142" font-family="Helvetica,sans-Serif" font-size="10.00">+</text>
<text text-anchor="start" x="71" y="-142" font-family="Helvetica,sans-Serif" font-size="10.00">Initialize()</text>
<text text-anchor="start" x="51.5" y="-127" font-family="Helvetica,sans-Serif" font-size="10.00">+</text>
<text text-anchor="start" x="71" y="-127" font-family="Helvetica,sans-Serif" font-size="10.00">CreateProfile()</text>
<text text-anchor="start" x="51.5" y="-112" font-family="Helvetica,sans-Serif" font-size="10.00">+</text>
<text text-anchor="start" x="71" y="-112" font-family="Helvetica,sans-Serif" font-size="10.00">SaveIdentity()</text>
<text text-anchor="start" x="51.5" y="-97" font-family="Helvetica,sans-Serif" font-size="10.00">+</text>
<text text-anchor="start" x="71" y="-97" font-family="Helvetica,sans-Serif" font-size="10.00">SelectProfile()</text>
<text text-anchor="start" x="51.5" y="-82" font-family="Helvetica,sans-Serif" font-size="10.00">+</text>
<text text-anchor="start" x="71" y="-82" font-family="Helvetica,sans-Serif" font-size="10.00">DeleteProfile()</text>
<text text-anchor="start" x="51.5" y="-67" font-family="Helvetica,sans-Serif" font-size="10.00">+</text>
<text text-anchor="start" x="71" y="-67" font-family="Helvetica,sans-Serif" font-size="10.00">CreateGuild()</text>
<text text-anchor="start" x="51.5" y="-52" font-family="Helvetica,sans-Serif" font-size="10.00">+</text>
<text text-anchor="start" x="71" y="-52" font-family="Helvetica,sans-Serif" font-size="10.00">SelectGuild()</text>
<text text-anchor="start" x="51.5" y="-37" font-family="Helvetica,sans-Serif" font-size="10.00">+</text>
<text text-anchor="start" x="71" y="-37" font-family="Helvetica,sans-Serif" font-size="10.00">DeleteGuild()</text>
<text text-anchor="start" x="51.5" y="-22" font-family="Helvetica,sans-Serif" font-size="10.00">+</text>
<text text-anchor="start" x="71" y="-22" font-family="Helvetica,sans-Serif" font-size="10.00">AddPlayedTime()</text>
<text text-anchor="start" x="51.5" y="-7" font-family="Helvetica,sans-Serif" font-size="10.00">+</text>
<text text-anchor="start" x="71" y="-7" font-family="Helvetica,sans-Serif" font-size="10.00">RecordRunFinished()</text>
<polygon fill="#666666" stroke="#666666" points="41,-302 41,-302 190,-302 190,-302 41,-302"/>
<polygon fill="#666666" stroke="#666666" points="41,-167 41,-167 69,-167 69,-167 41,-167"/>
<polygon fill="#666666" stroke="#666666" points="69,-167 69,-167 190,-167 190,-167 69,-167"/>
<polygon fill="none" stroke="#666666" points="40.5,0 40.5,-330 189.5,-330 189.5,0 40.5,0"/>
</a>
</g>
</g>
<!-- Node2 -->
<g id="Node000002" class="node">
<title>Node2</title>
<g id="a_Node000002"><a xlink:href="interfaceGuildmaster_1_1Core_1_1Persistence_1_1IProfileService.html" target="_top" xlink:title="Владелец иерархии сохранений: профиль → гильдии → забег (ТЗ [[save&#45;system]] §3).">
<polygon fill="white" stroke="transparent" points="122,-655 0,-655 0,-366 122,-366 122,-655"/>
<text text-anchor="start" x="26" y="-642.5" font-family="Helvetica,sans-Serif" font-size="10.00">IProfileService</text>
<text text-anchor="start" x="4" y="-627.5" font-family="Helvetica,sans-Serif" font-size="10.00">+</text>
<text text-anchor="start" x="17" y="-627.5" font-family="Helvetica,sans-Serif" font-size="10.00">Profiles</text>
<text text-anchor="start" x="4" y="-612.5" font-family="Helvetica,sans-Serif" font-size="10.00">+</text>
<text text-anchor="start" x="17" y="-612.5" font-family="Helvetica,sans-Serif" font-size="10.00">ActiveProfile</text>
<text text-anchor="start" x="4" y="-597.5" font-family="Helvetica,sans-Serif" font-size="10.00">+</text>
<text text-anchor="start" x="17" y="-597.5" font-family="Helvetica,sans-Serif" font-size="10.00">Guilds</text>
<text text-anchor="start" x="4" y="-582.5" font-family="Helvetica,sans-Serif" font-size="10.00">+</text>
<text text-anchor="start" x="17" y="-582.5" font-family="Helvetica,sans-Serif" font-size="10.00">ActiveGuild</text>
<text text-anchor="start" x="4" y="-567.5" font-family="Helvetica,sans-Serif" font-size="10.00">+</text>
<text text-anchor="start" x="17" y="-567.5" font-family="Helvetica,sans-Serif" font-size="10.00">ProfilesFull</text>
<text text-anchor="start" x="4" y="-552.5" font-family="Helvetica,sans-Serif" font-size="10.00">+</text>
<text text-anchor="start" x="17" y="-552.5" font-family="Helvetica,sans-Serif" font-size="10.00">GuildsFull</text>
<text text-anchor="start" x="4" y="-537.5" font-family="Helvetica,sans-Serif" font-size="10.00">+</text>
<text text-anchor="start" x="17" y="-537.5" font-family="Helvetica,sans-Serif" font-size="10.00">RunKey</text>
<text text-anchor="start" x="4" y="-522.5" font-family="Helvetica,sans-Serif" font-size="10.00">+</text>
<text text-anchor="start" x="17" y="-522.5" font-family="Helvetica,sans-Serif" font-size="10.00">HasActiveProfile</text>
<text text-anchor="start" x="4" y="-507.5" font-family="Helvetica,sans-Serif" font-size="10.00">+</text>
<text text-anchor="start" x="17" y="-507.5" font-family="Helvetica,sans-Serif" font-size="10.00">Identity</text>
<text text-anchor="start" x="4" y="-492.5" font-family="Helvetica,sans-Serif" font-size="10.00">+</text>
<text text-anchor="start" x="17" y="-492.5" font-family="Helvetica,sans-Serif" font-size="10.00">CreateProfile()</text>
<text text-anchor="start" x="4" y="-477.5" font-family="Helvetica,sans-Serif" font-size="10.00">+</text>
<text text-anchor="start" x="17" y="-477.5" font-family="Helvetica,sans-Serif" font-size="10.00">SaveIdentity()</text>
<text text-anchor="start" x="4" y="-462.5" font-family="Helvetica,sans-Serif" font-size="10.00">+</text>
<text text-anchor="start" x="17" y="-462.5" font-family="Helvetica,sans-Serif" font-size="10.00">AddPlayedTime()</text>
<text text-anchor="start" x="4" y="-447.5" font-family="Helvetica,sans-Serif" font-size="10.00">+</text>
<text text-anchor="start" x="17" y="-447.5" font-family="Helvetica,sans-Serif" font-size="10.00">RecordRunFinished()</text>
<text text-anchor="start" x="4" y="-432.5" font-family="Helvetica,sans-Serif" font-size="10.00">+</text>
<text text-anchor="start" x="17" y="-432.5" font-family="Helvetica,sans-Serif" font-size="10.00">SelectProfile()</text>
<text text-anchor="start" x="4" y="-417.5" font-family="Helvetica,sans-Serif" font-size="10.00">+</text>
<text text-anchor="start" x="17" y="-417.5" font-family="Helvetica,sans-Serif" font-size="10.00">DeleteProfile()</text>
<text text-anchor="start" x="4" y="-402.5" font-family="Helvetica,sans-Serif" font-size="10.00">+</text>
<text text-anchor="start" x="17" y="-402.5" font-family="Helvetica,sans-Serif" font-size="10.00">CreateGuild()</text>
<text text-anchor="start" x="4" y="-387.5" font-family="Helvetica,sans-Serif" font-size="10.00">+</text>
<text text-anchor="start" x="17" y="-387.5" font-family="Helvetica,sans-Serif" font-size="10.00">SelectGuild()</text>
<text text-anchor="start" x="4" y="-372.5" font-family="Helvetica,sans-Serif" font-size="10.00">+</text>
<text text-anchor="start" x="17" y="-372.5" font-family="Helvetica,sans-Serif" font-size="10.00">DeleteGuild()</text>
<polygon fill="#666666" stroke="#666666" points="0,-637.5 0,-637.5 122,-637.5 122,-637.5 0,-637.5"/>
<polygon fill="#666666" stroke="#666666" points="0,-502.5 0,-502.5 15,-502.5 15,-502.5 0,-502.5"/>
<polygon fill="#666666" stroke="#666666" points="15,-502.5 15,-502.5 122,-502.5 122,-502.5 15,-502.5"/>
<polygon fill="none" stroke="#666666" points="0,-366 0,-655 122,-655 122,-366 0,-366"/>
</a>
</g>
</g>
<!-- Node2&#45;&gt;Node1 -->
<g id="edge1_Node000001_Node000002" class="edge">
<title>Node2&#45;&gt;Node1</title>
<g id="a_edge1_Node000001_Node000002"><a xlink:title=" ">
<path fill="none" stroke="#63b8ff" d="M85.15,-355.85C86.49,-347.33 87.84,-338.76 89.19,-330.2"/>
<polygon fill="none" stroke="#63b8ff" points="81.68,-355.39 83.59,-365.82 88.6,-356.48 81.68,-355.39"/>
</a>
</g>
</g>
<!-- Node3 -->
<g id="Node000003" class="node">
<title>Node3</title>
<g id="a_Node000003"><a xlink:title=" ">
<polygon fill="white" stroke="transparent" points="198,-535 140,-535 140,-486 198,-486 198,-535"/>
<text text-anchor="start" x="145" y="-522.5" font-family="Helvetica,sans-Serif" font-size="10.00">IStartable</text>
<text text-anchor="start" x="167" y="-507.5" font-family="Helvetica,sans-Serif" font-size="10.00"> </text>
<text text-anchor="start" x="167" y="-492.5" font-family="Helvetica,sans-Serif" font-size="10.00"> </text>
<polygon fill="#666666" stroke="#666666" points="140,-517.5 140,-517.5 198,-517.5 198,-517.5 140,-517.5"/>
<polygon fill="#666666" stroke="#666666" points="140,-502.5 140,-502.5 198,-502.5 198,-502.5 140,-502.5"/>
<polygon fill="none" stroke="#666666" points="140,-486 140,-535 198,-535 198,-486 140,-486"/>
</a>
</g>
</g>
<!-- Node3&#45;&gt;Node1 -->
<g id="edge2_Node000001_Node000003" class="edge">
<title>Node3&#45;&gt;Node1</title>
<g id="a_edge2_Node000001_Node000003"><a xlink:title=" ">
<path fill="none" stroke="#63b8ff" d="M163.72,-475.93C158.31,-441.53 149.49,-385.4 140.83,-330.3"/>
<polygon fill="none" stroke="#63b8ff" points="160.28,-476.55 165.29,-485.89 167.19,-475.47 160.28,-476.55"/>
</a>
</g>
</g>
</g>
</svg>

<g id="navigator" transform="translate(0 0)" fill="#404254">
  <rect fill="#f2f5e9" fill-opacity="0.5" stroke="#606060" stroke-width=".5" x="0" y="0" width="60" height="60"/>
  <use id="zoomplus" xlink:href="#zoomPlus" x="17" y="9" onmousedown="handleZoom(evt,'in')"/>
  <use id="zoomminus" xlink:href="#zoomMin" x="42" y="9" onmousedown="handleZoom(evt,'out')"/>
  <use id="reset" xlink:href="#resetDef" x="30" y="36" onmousedown="handleReset()"/>
   <use id="arrowup" xlink:href="#arrowUp" x="0" y="0" onmousedown="handlePan(0,-1)"/>
  <use id="arrowright" xlink:href="#arrowRight" x="0" y="0" onmousedown="handlePan(1,0)"/>
  <use id="arrowdown" xlink:href="#arrowDown" x="0" y="0" onmousedown="handlePan(0,1)"/>
  <use id="arrowleft" xlink:href="#arrowLeft" x="0" y="0" onmousedown="handlePan(-1,0)"/>
</g>
<svg viewBox="0 0 15 15" width="100%" height="30px" preserveAspectRatio="xMaxYMin meet">
 <g id="arrow_out" transform="scale(0.3 0.3)">
  <a xlink:href="classGuildmaster_1_1Game_1_1Services_1_1ProfileService__inherit__graph_org.svg" target="_base">
   <rect id="button" ry="5" rx="5" y="6" x="6" height="38" width="38"
        fill="#f2f5e9" fill-opacity="0.5" stroke="#606060" stroke-width="1.0"/>
   <path id="arrow"
     d="M 11.500037,31.436501 C 11.940474,20.09759 22.043105,11.32322 32.158766,21.979434 L 37.068811,17.246167 C 37.068811,17.246167 37.088388,32 37.088388,32 L 22.160133,31.978069 C 22.160133,31.978069 26.997745,27.140456 26.997745,27.140456 C 18.528582,18.264221 13.291696,25.230495 11.500037,31.436501 z"
     style="fill:#404040;"/>
  </a>
 </g>
</svg>

<style type='text/css'>
<![CDATA[
[data-mouse-over-selected='false'] { opacity: 0.7; }
[data-mouse-over-selected='true']  { opacity: 1.0; }
]]>
</style>
<script type="application/ecmascript"><![CDATA[
document.addEventListener('DOMContentLoaded', (event) => {
  highlightEdges();
  highlightAdjacentNodes();
});
]]></script>
</svg>
