<?xml version="1.0" encoding="UTF-8" standalone="no"?>
<!DOCTYPE svg PUBLIC "-//W3C//DTD SVG 1.1//EN"
 "http://www.w3.org/Graphics/SVG/1.1/DTD/svg11.dtd">
<!-- Generated by graphviz version 2.43.0 (0)
 -->
<!-- Title: Guildmaster.Presentation.HealthBarView.UpdateBar Pages: 1 -->
<svg width="527pt" height="86pt"
 viewBox="0.00 0.00 527.00 86.00" xmlns="http://www.w3.org/2000/svg" xmlns:xlink="http://www.w3.org/1999/xlink">
<g id="graph0" class="graph" transform="scale(1 1) rotate(0) translate(4 82)">
<title>Guildmaster.Presentation.HealthBarView.UpdateBar</title>
<!-- Node1 -->
<g id="Node000001" class="node">
<title>Node1</title>
<g id="a_Node000001"><a xlink:title="Обновить отображаемую долю HP.">
<polygon fill="#999999" stroke="#666666" points="519,-54 376,-54 376,-24 519,-24 519,-54"/>
<text text-anchor="start" x="384" y="-42" font-family="Helvetica,sans-Serif" font-size="10.00">Guildmaster.Presentation.</text>
<text text-anchor="middle" x="447.5" y="-31" font-family="Helvetica,sans-Serif" font-size="10.00">HealthBarView.UpdateBar</text>
</a>
</g>
</g>
<!-- Node2 -->
<g id="Node000002" class="node">
<title>Node2</title>
<g id="a_Node000002"><a xlink:href="classGuildmaster_1_1Presentation_1_1HealthBarView.html#addca237a220d26640e8bef0b174d1134" target="_top" xlink:title="Привязать к юниту для первоначальной отрисовки.">
<polygon fill="white" stroke="#666666" points="331,-78 188,-78 188,-48 331,-48 331,-78"/>
<text text-anchor="start" x="196" y="-66" font-family="Helvetica,sans-Serif" font-size="10.00">Guildmaster.Presentation.</text>
<text text-anchor="middle" x="259.5" y="-55" font-family="Helvetica,sans-Serif" font-size="10.00">HealthBarView.Bind</text>
</a>
</g>
</g>
<!-- Node1&#45;&gt;Node2 -->
<g id="edge1_Node000001_Node000002" class="edge">
<title>Node1&#45;&gt;Node2</title>
<g id="a_edge1_Node000001_Node000002"><a xlink:title=" ">
<path fill="none" stroke="#63b8ff" d="M365.82,-49.41C354.24,-50.9 342.4,-52.43 331.04,-53.9"/>
<polygon fill="#63b8ff" stroke="#63b8ff" points="366.45,-52.86 375.92,-48.11 365.55,-45.92 366.45,-52.86"/>
</a>
</g>
</g>
<!-- Node4 -->
<g id="Node000004" class="node">
<title>Node4</title>
<g id="a_Node000004"><a xlink:href="classGuildmaster_1_1Presentation_1_1UnitView.html#a25961c760cc2434fa8f210178cf3e8e3" target="_top" xlink:title="Обновить интерполированную позицию.">
<polygon fill="white" stroke="#666666" points="340,-30 179,-30 179,0 340,0 340,-30"/>
<text text-anchor="start" x="187" y="-18" font-family="Helvetica,sans-Serif" font-size="10.00">Guildmaster.Presentation.</text>
<text text-anchor="middle" x="259.5" y="-7" font-family="Helvetica,sans-Serif" font-size="10.00">UnitView.UpdateInterpolation</text>
</a>
</g>
</g>
<!-- Node1&#45;&gt;Node4 -->
<g id="edge3_Node000001_Node000004" class="edge">
<title>Node1&#45;&gt;Node4</title>
<g id="a_edge3_Node000001_Node000004"><a xlink:title=" ">
<path fill="none" stroke="#63b8ff" d="M365.93,-28.6C357.35,-27.5 348.63,-26.37 340.06,-25.27"/>
<polygon fill="#63b8ff" stroke="#63b8ff" points="365.55,-32.08 375.92,-29.89 366.45,-25.14 365.55,-32.08"/>
</a>
</g>
</g>
<!-- Node3 -->
<g id="Node000003" class="node">
<title>Node3</title>
<g id="a_Node000003"><a xlink:href="classGuildmaster_1_1Presentation_1_1UnitView.html#a255f8da9e7913276471739aea28ffe45" target="_top" xlink:title="Связать вид с рантайм&#45;юнитом.">
<polygon fill="white" stroke="#666666" points="143,-78 0,-78 0,-48 143,-48 143,-78"/>
<text text-anchor="start" x="8" y="-66" font-family="Helvetica,sans-Serif" font-size="10.00">Guildmaster.Presentation.</text>
<text text-anchor="middle" x="71.5" y="-55" font-family="Helvetica,sans-Serif" font-size="10.00">UnitView.Bind</text>
</a>
</g>
</g>
<!-- Node2&#45;&gt;Node3 -->
<g id="edge2_Node000002_Node000003" class="edge">
<title>Node2&#45;&gt;Node3</title>
<g id="a_edge2_Node000002_Node000003"><a xlink:title=" ">
<path fill="none" stroke="#63b8ff" d="M177.82,-63C166.24,-63 154.4,-63 143.04,-63"/>
<polygon fill="#63b8ff" stroke="#63b8ff" points="177.92,-66.5 187.92,-63 177.92,-59.5 177.92,-66.5"/>
</a>
</g>
</g>
</g>
</svg>
