<?xml version="1.0" encoding="UTF-8" standalone="no"?>
<!DOCTYPE svg PUBLIC "-//W3C//DTD SVG 1.1//EN"
 "http://www.w3.org/Graphics/SVG/1.1/DTD/svg11.dtd">
<!-- Generated by graphviz version 2.43.0 (0)
 -->
<!-- Title: Guildmaster.Combat.CombatSimulation Pages: 1 -->
<svg width="160pt" height="468pt"
 viewBox="0.00 0.00 160.00 468.00" xmlns="http://www.w3.org/2000/svg" xmlns:xlink="http://www.w3.org/1999/xlink">
<g id="graph0" class="graph" transform="scale(1 1) rotate(0) translate(4 464)">
<title>Guildmaster.Combat.CombatSimulation</title>
<!-- Node1 -->
<g id="Node000001" class="node">
<title>Node1</title>
<g id="a_Node000001"><a xlink:title="Детерминированная тиковая симуляция боя.">
<polygon fill="#999999" stroke="transparent" points="152,-285 0,-285 0,0 152,0 152,-285"/>
<text text-anchor="start" x="5" y="-272.5" font-family="Helvetica,sans-Serif" font-size="10.00">Guildmaster.Combat.Combat</text>
<text text-anchor="start" x="49.5" y="-261.5" font-family="Helvetica,sans-Serif" font-size="10.00">Simulation</text>
<text text-anchor="start" x="10.5" y="-246.5" font-family="Helvetica,sans-Serif" font-size="10.00">+</text>
<text text-anchor="start" x="30" y="-246.5" font-family="Helvetica,sans-Serif" font-size="10.00">Rng</text>
<text text-anchor="start" x="10.5" y="-231.5" font-family="Helvetica,sans-Serif" font-size="10.00">+</text>
<text text-anchor="start" x="30" y="-231.5" font-family="Helvetica,sans-Serif" font-size="10.00">CurrentTick</text>
<text text-anchor="start" x="10.5" y="-216.5" font-family="Helvetica,sans-Serif" font-size="10.00">+</text>
<text text-anchor="start" x="30" y="-216.5" font-family="Helvetica,sans-Serif" font-size="10.00">ArmorK</text>
<text text-anchor="start" x="10.5" y="-201.5" font-family="Helvetica,sans-Serif" font-size="10.00">+</text>
<text text-anchor="start" x="30" y="-201.5" font-family="Helvetica,sans-Serif" font-size="10.00">Units</text>
<text text-anchor="start" x="10.5" y="-186.5" font-family="Helvetica,sans-Serif" font-size="10.00">+</text>
<text text-anchor="start" x="30" y="-186.5" font-family="Helvetica,sans-Serif" font-size="10.00">Outcome</text>
<text text-anchor="start" x="10.5" y="-171.5" font-family="Helvetica,sans-Serif" font-size="10.00">+</text>
<text text-anchor="start" x="30" y="-171.5" font-family="Helvetica,sans-Serif" font-size="10.00">IsPaused</text>
<text text-anchor="start" x="10.5" y="-156.5" font-family="Helvetica,sans-Serif" font-size="10.00">+</text>
<text text-anchor="start" x="30" y="-156.5" font-family="Helvetica,sans-Serif" font-size="10.00">CombatSimulation()</text>
<text text-anchor="start" x="10.5" y="-141.5" font-family="Helvetica,sans-Serif" font-size="10.00">+</text>
<text text-anchor="start" x="30" y="-141.5" font-family="Helvetica,sans-Serif" font-size="10.00">Tick()</text>
<text text-anchor="start" x="10.5" y="-126.5" font-family="Helvetica,sans-Serif" font-size="10.00">+</text>
<text text-anchor="start" x="30" y="-126.5" font-family="Helvetica,sans-Serif" font-size="10.00">DealDamage()</text>
<text text-anchor="start" x="10.5" y="-111.5" font-family="Helvetica,sans-Serif" font-size="10.00">+</text>
<text text-anchor="start" x="30" y="-111.5" font-family="Helvetica,sans-Serif" font-size="10.00">Heal()</text>
<text text-anchor="start" x="10.5" y="-96.5" font-family="Helvetica,sans-Serif" font-size="10.00">+</text>
<text text-anchor="start" x="30" y="-96.5" font-family="Helvetica,sans-Serif" font-size="10.00">SpawnProjectile()</text>
<text text-anchor="start" x="10.5" y="-81.5" font-family="Helvetica,sans-Serif" font-size="10.00">+</text>
<text text-anchor="start" x="30" y="-81.5" font-family="Helvetica,sans-Serif" font-size="10.00">QueryUnitsInRadius()</text>
<text text-anchor="start" x="10.5" y="-66.5" font-family="Helvetica,sans-Serif" font-size="10.00">+</text>
<text text-anchor="start" x="30" y="-66.5" font-family="Helvetica,sans-Serif" font-size="10.00">ApplyEffect()</text>
<text text-anchor="start" x="10.5" y="-51.5" font-family="Helvetica,sans-Serif" font-size="10.00">+</text>
<text text-anchor="start" x="30" y="-51.5" font-family="Helvetica,sans-Serif" font-size="10.00">SetPaused()</text>
<text text-anchor="start" x="10.5" y="-36.5" font-family="Helvetica,sans-Serif" font-size="10.00">+</text>
<text text-anchor="start" x="30" y="-36.5" font-family="Helvetica,sans-Serif" font-size="10.00">EnqueueUnitSpawn()</text>
<text text-anchor="start" x="10.5" y="-21.5" font-family="Helvetica,sans-Serif" font-size="10.00">+</text>
<text text-anchor="start" x="30" y="-21.5" font-family="Helvetica,sans-Serif" font-size="10.00">EnqueueCommand()</text>
<text text-anchor="start" x="10.5" y="-6.5" font-family="Helvetica,sans-Serif" font-size="10.00">+</text>
<text text-anchor="start" x="30" y="-6.5" font-family="Helvetica,sans-Serif" font-size="10.00">ComputeChecksum()</text>
<polygon fill="#666666" stroke="#666666" points="0,-256.5 0,-256.5 152,-256.5 152,-256.5 0,-256.5"/>
<polygon fill="#666666" stroke="#666666" points="0,-166.5 0,-166.5 28,-166.5 28,-166.5 0,-166.5"/>
<polygon fill="#666666" stroke="#666666" points="28,-166.5 28,-166.5 152,-166.5 152,-166.5 28,-166.5"/>
<polygon fill="none" stroke="#666666" points="0,0 0,-285 152,-285 152,0 0,0"/>
</a>
</g>
</g>
<!-- Node2 -->
<g id="Node000002" class="node">
<title>Node2</title>
<g id="a_Node000002"><a xlink:href="interfaceGuildmaster_1_1Combat_1_1ICombatContext.html" target="_top" xlink:title="Шов «логика эффектов/способностей ↔ боевой мир».">
<polygon fill="white" stroke="transparent" points="139,-460 13,-460 13,-321 139,-321 139,-460"/>
<text text-anchor="start" x="36" y="-447.5" font-family="Helvetica,sans-Serif" font-size="10.00">ICombatContext</text>
<text text-anchor="start" x="17" y="-432.5" font-family="Helvetica,sans-Serif" font-size="10.00">+</text>
<text text-anchor="start" x="30" y="-432.5" font-family="Helvetica,sans-Serif" font-size="10.00">Rng</text>
<text text-anchor="start" x="17" y="-417.5" font-family="Helvetica,sans-Serif" font-size="10.00">+</text>
<text text-anchor="start" x="30" y="-417.5" font-family="Helvetica,sans-Serif" font-size="10.00">CurrentTick</text>
<text text-anchor="start" x="17" y="-402.5" font-family="Helvetica,sans-Serif" font-size="10.00">+</text>
<text text-anchor="start" x="30" y="-402.5" font-family="Helvetica,sans-Serif" font-size="10.00">ArmorK</text>
<text text-anchor="start" x="17" y="-387.5" font-family="Helvetica,sans-Serif" font-size="10.00">+</text>
<text text-anchor="start" x="30" y="-387.5" font-family="Helvetica,sans-Serif" font-size="10.00">DealDamage()</text>
<text text-anchor="start" x="17" y="-372.5" font-family="Helvetica,sans-Serif" font-size="10.00">+</text>
<text text-anchor="start" x="30" y="-372.5" font-family="Helvetica,sans-Serif" font-size="10.00">Heal()</text>
<text text-anchor="start" x="17" y="-357.5" font-family="Helvetica,sans-Serif" font-size="10.00">+</text>
<text text-anchor="start" x="30" y="-357.5" font-family="Helvetica,sans-Serif" font-size="10.00">SpawnProjectile()</text>
<text text-anchor="start" x="17" y="-342.5" font-family="Helvetica,sans-Serif" font-size="10.00">+</text>
<text text-anchor="start" x="30" y="-342.5" font-family="Helvetica,sans-Serif" font-size="10.00">QueryUnitsInRadius()</text>
<text text-anchor="start" x="17" y="-327.5" font-family="Helvetica,sans-Serif" font-size="10.00">+</text>
<text text-anchor="start" x="30" y="-327.5" font-family="Helvetica,sans-Serif" font-size="10.00">ApplyEffect()</text>
<polygon fill="#666666" stroke="#666666" points="13,-442.5 13,-442.5 139,-442.5 139,-442.5 13,-442.5"/>
<polygon fill="#666666" stroke="#666666" points="13,-397.5 13,-397.5 28,-397.5 28,-397.5 13,-397.5"/>
<polygon fill="#666666" stroke="#666666" points="28,-397.5 28,-397.5 139,-397.5 139,-397.5 28,-397.5"/>
<polygon fill="none" stroke="#666666" points="13,-321 13,-460 139,-460 139,-321 13,-321"/>
</a>
</g>
</g>
<!-- Node2&#45;&gt;Node1 -->
<g id="edge1_Node000001_Node000002" class="edge">
<title>Node2&#45;&gt;Node1</title>
<g id="a_edge1_Node000001_Node000002"><a xlink:title=" ">
<path fill="none" stroke="#63b8ff" d="M76,-310.93C76,-302.55 76,-293.86 76,-285.04"/>
<polygon fill="none" stroke="#63b8ff" points="72.5,-310.98 76,-320.98 79.5,-310.98 72.5,-310.98"/>
</a>
</g>
</g>
</g>
</svg>
