<?xml version="1.0" encoding="UTF-8" standalone="no"?>
<!DOCTYPE svg PUBLIC "-//W3C//DTD SVG 1.1//EN"
 "http://www.w3.org/Graphics/SVG/1.1/DTD/svg11.dtd">
<!-- Generated by graphviz version 2.43.0 (0)
 -->
<!-- Title: Guildmaster.Guild.GuildState Pages: 1 -->
<svg width="160pt" height="237pt"
 viewBox="0.00 0.00 160.00 237.00" xmlns="http://www.w3.org/2000/svg" xmlns:xlink="http://www.w3.org/1999/xlink">
<g id="graph0" class="graph" transform="scale(1 1) rotate(0) translate(4 233)">
<title>Guildmaster.Guild.GuildState</title>
<!-- Node1 -->
<g id="Node000001" class="node">
<title>Node1</title>
<g id="a_Node000001"><a xlink:title="Гильдия — дом игрока и одновременно слот сохранения (ТЗ [[save&#45;system]] §3): отдельной сущности «слот...">
<polygon fill="#999999" stroke="transparent" points="152,-229 0,-229 0,0 152,0 152,-229"/>
<text text-anchor="start" x="5" y="-216.5" font-family="Helvetica,sans-Serif" font-size="10.00">Guildmaster.Guild.GuildState</text>
<text text-anchor="start" x="8.5" y="-201.5" font-family="Helvetica,sans-Serif" font-size="10.00">+</text>
<text text-anchor="start" x="26" y="-201.5" font-family="Helvetica,sans-Serif" font-size="10.00">Id</text>
<text text-anchor="start" x="8.5" y="-186.5" font-family="Helvetica,sans-Serif" font-size="10.00">+</text>
<text text-anchor="start" x="26" y="-186.5" font-family="Helvetica,sans-Serif" font-size="10.00">Name</text>
<text text-anchor="start" x="8.5" y="-171.5" font-family="Helvetica,sans-Serif" font-size="10.00">+</text>
<text text-anchor="start" x="26" y="-171.5" font-family="Helvetica,sans-Serif" font-size="10.00">EmblemId</text>
<text text-anchor="start" x="8.5" y="-156.5" font-family="Helvetica,sans-Serif" font-size="10.00">+</text>
<text text-anchor="start" x="26" y="-156.5" font-family="Helvetica,sans-Serif" font-size="10.00">EmblemColorIndex</text>
<text text-anchor="start" x="8.5" y="-141.5" font-family="Helvetica,sans-Serif" font-size="10.00">+</text>
<text text-anchor="start" x="26" y="-141.5" font-family="Helvetica,sans-Serif" font-size="10.00">CreatedUtc</text>
<text text-anchor="start" x="8.5" y="-126.5" font-family="Helvetica,sans-Serif" font-size="10.00">+</text>
<text text-anchor="start" x="26" y="-126.5" font-family="Helvetica,sans-Serif" font-size="10.00">Currency</text>
<text text-anchor="start" x="8.5" y="-111.5" font-family="Helvetica,sans-Serif" font-size="10.00">+</text>
<text text-anchor="start" x="26" y="-111.5" font-family="Helvetica,sans-Serif" font-size="10.00">RosterCapacity</text>
<text text-anchor="start" x="8.5" y="-96.5" font-family="Helvetica,sans-Serif" font-size="10.00">+</text>
<text text-anchor="start" x="26" y="-96.5" font-family="Helvetica,sans-Serif" font-size="10.00">Roster</text>
<text text-anchor="start" x="8.5" y="-81.5" font-family="Helvetica,sans-Serif" font-size="10.00">+</text>
<text text-anchor="start" x="26" y="-81.5" font-family="Helvetica,sans-Serif" font-size="10.00">Ascension</text>
<text text-anchor="start" x="8.5" y="-66.5" font-family="Helvetica,sans-Serif" font-size="10.00">+</text>
<text text-anchor="start" x="26" y="-66.5" font-family="Helvetica,sans-Serif" font-size="10.00">MaxAscensionReached</text>
<text text-anchor="start" x="8.5" y="-51.5" font-family="Helvetica,sans-Serif" font-size="10.00">+</text>
<text text-anchor="start" x="26" y="-51.5" font-family="Helvetica,sans-Serif" font-size="10.00">VeteranDeaths</text>
<text text-anchor="start" x="8.5" y="-36.5" font-family="Helvetica,sans-Serif" font-size="10.00">+</text>
<text text-anchor="start" x="26" y="-36.5" font-family="Helvetica,sans-Serif" font-size="10.00">Upgrades</text>
<text text-anchor="start" x="8.5" y="-21.5" font-family="Helvetica,sans-Serif" font-size="10.00">+</text>
<text text-anchor="start" x="26" y="-21.5" font-family="Helvetica,sans-Serif" font-size="10.00">CompletedCampaigns</text>
<text text-anchor="start" x="74" y="-6.5" font-family="Helvetica,sans-Serif" font-size="10.00"> </text>
<polygon fill="#666666" stroke="#666666" points="0,-211.5 0,-211.5 152,-211.5 152,-211.5 0,-211.5"/>
<polygon fill="#666666" stroke="#666666" points="0,-16.5 0,-16.5 24,-16.5 24,-16.5 0,-16.5"/>
<polygon fill="#666666" stroke="#666666" points="24,-16.5 24,-16.5 152,-16.5 152,-16.5 24,-16.5"/>
<polygon fill="none" stroke="#666666" points="0,0 0,-229 152,-229 152,0 0,0"/>
</a>
</g>
</g>
</g>
</svg>
