<?xml version="1.0" encoding="UTF-8" standalone="no"?>
<!DOCTYPE svg PUBLIC "-//W3C//DTD SVG 1.1//EN"
 "http://www.w3.org/Graphics/SVG/1.1/DTD/svg11.dtd">
<!-- Generated by graphviz version 2.43.0 (0)
 -->
<!-- Title: Guildmaster.Combat.Effects.RuntimeEffect Pages: 1 -->
<svg width="568pt" height="916pt"
 viewBox="0.00 0.00 568.00 916.00" xmlns="http://www.w3.org/2000/svg" xmlns:xlink="http://www.w3.org/1999/xlink">
<g id="graph0" class="graph" transform="scale(1 1) rotate(0) translate(4 912)">
<title>Guildmaster.Combat.Effects.RuntimeEffect</title>
<!-- Node1 -->
<g id="Node000001" class="node">
<title>Node1</title>
<g id="a_Node000001"><a xlink:title="Экземпляр эффекта на конкретном юните (POCO, живёт один бой).">
<polygon fill="#999999" stroke="transparent" points="180.5,-135 30.5,-135 30.5,0 180.5,0 180.5,-135"/>
<text text-anchor="start" x="35.5" y="-122.5" font-family="Helvetica,sans-Serif" font-size="10.00">Guildmaster.Combat.Effects.</text>
<text text-anchor="start" x="70.5" y="-111.5" font-family="Helvetica,sans-Serif" font-size="10.00">RuntimeEffect</text>
<text text-anchor="start" x="45.5" y="-96.5" font-family="Helvetica,sans-Serif" font-size="10.00">+</text>
<text text-anchor="start" x="69.5" y="-96.5" font-family="Helvetica,sans-Serif" font-size="10.00">RemainingTicks</text>
<text text-anchor="start" x="45.5" y="-81.5" font-family="Helvetica,sans-Serif" font-size="10.00">+</text>
<text text-anchor="start" x="69.5" y="-81.5" font-family="Helvetica,sans-Serif" font-size="10.00">FullDurationTicks</text>
<text text-anchor="start" x="45.5" y="-66.5" font-family="Helvetica,sans-Serif" font-size="10.00">+</text>
<text text-anchor="start" x="69.5" y="-66.5" font-family="Helvetica,sans-Serif" font-size="10.00">Stacks</text>
<text text-anchor="start" x="45.5" y="-51.5" font-family="Helvetica,sans-Serif" font-size="10.00">+</text>
<text text-anchor="start" x="69.5" y="-51.5" font-family="Helvetica,sans-Serif" font-size="10.00">ScaledPotency</text>
<text text-anchor="start" x="45.5" y="-36.5" font-family="Helvetica,sans-Serif" font-size="10.00">+</text>
<text text-anchor="start" x="69.5" y="-36.5" font-family="Helvetica,sans-Serif" font-size="10.00">PeriodicTicks</text>
<text text-anchor="start" x="45.5" y="-21.5" font-family="Helvetica,sans-Serif" font-size="10.00">+</text>
<text text-anchor="start" x="69.5" y="-21.5" font-family="Helvetica,sans-Serif" font-size="10.00">IsPermanent</text>
<text text-anchor="start" x="103.5" y="-6.5" font-family="Helvetica,sans-Serif" font-size="10.00"> </text>
<polygon fill="#666666" stroke="#666666" points="30.5,-106.5 30.5,-106.5 180.5,-106.5 180.5,-106.5 30.5,-106.5"/>
<polygon fill="#666666" stroke="#666666" points="30.5,-16.5 30.5,-16.5 67.5,-16.5 67.5,-16.5 30.5,-16.5"/>
<polygon fill="#666666" stroke="#666666" points="67.5,-16.5 67.5,-16.5 180.5,-16.5 180.5,-16.5 67.5,-16.5"/>
<polygon fill="none" stroke="#666666" points="30.5,0 30.5,-135 180.5,-135 180.5,0 30.5,0"/>
</a>
</g>
</g>
<!-- Node2 -->
<g id="Node000002" class="node">
<title>Node2</title>
<g id="a_Node000002"><a xlink:href="classGuildmaster_1_1Data_1_1Definitions_1_1EffectData.html" target="_top" xlink:title="Иммутабельное определение таймированного эффекта: идентичность, полярность, категориальные теги,...">
<polygon fill="white" stroke="transparent" points="155,-639 0,-639 0,-459 155,-459 155,-639"/>
<text text-anchor="start" x="5.5" y="-627" font-family="Helvetica,sans-Serif" font-size="10.00">Guildmaster.Data.Definitions.</text>
<text text-anchor="start" x="52" y="-616" font-family="Helvetica,sans-Serif" font-size="10.00">EffectData</text>
<text text-anchor="start" x="21" y="-601" font-family="Helvetica,sans-Serif" font-size="10.00">+</text>
<text text-anchor="start" x="50.5" y="-601" font-family="Helvetica,sans-Serif" font-size="10.00">Id</text>
<text text-anchor="start" x="21" y="-586" font-family="Helvetica,sans-Serif" font-size="10.00">+</text>
<text text-anchor="start" x="50.5" y="-586" font-family="Helvetica,sans-Serif" font-size="10.00">Polarity</text>
<text text-anchor="start" x="21" y="-571" font-family="Helvetica,sans-Serif" font-size="10.00">+</text>
<text text-anchor="start" x="50.5" y="-571" font-family="Helvetica,sans-Serif" font-size="10.00">Tags</text>
<text text-anchor="start" x="21" y="-556" font-family="Helvetica,sans-Serif" font-size="10.00">+</text>
<text text-anchor="start" x="50.5" y="-556" font-family="Helvetica,sans-Serif" font-size="10.00">BaseDuration</text>
<text text-anchor="start" x="21" y="-541" font-family="Helvetica,sans-Serif" font-size="10.00">+</text>
<text text-anchor="start" x="50.5" y="-541" font-family="Helvetica,sans-Serif" font-size="10.00">Stacking</text>
<text text-anchor="start" x="21" y="-526" font-family="Helvetica,sans-Serif" font-size="10.00">+</text>
<text text-anchor="start" x="50.5" y="-526" font-family="Helvetica,sans-Serif" font-size="10.00">MaxStacks</text>
<text text-anchor="start" x="21" y="-511" font-family="Helvetica,sans-Serif" font-size="10.00">+</text>
<text text-anchor="start" x="50.5" y="-511" font-family="Helvetica,sans-Serif" font-size="10.00">CleanseTier</text>
<text text-anchor="start" x="21" y="-496" font-family="Helvetica,sans-Serif" font-size="10.00">+</text>
<text text-anchor="start" x="50.5" y="-496" font-family="Helvetica,sans-Serif" font-size="10.00">Unremovable</text>
<text text-anchor="start" x="21" y="-481" font-family="Helvetica,sans-Serif" font-size="10.00">+</text>
<text text-anchor="start" x="50.5" y="-481" font-family="Helvetica,sans-Serif" font-size="10.00">Components</text>
<text text-anchor="start" x="76" y="-466" font-family="Helvetica,sans-Serif" font-size="10.00"> </text>
<polygon fill="#666666" stroke="#666666" points="0.5,-611 0.5,-611 155.5,-611 155.5,-611 0.5,-611"/>
<polygon fill="#666666" stroke="#666666" points="0.5,-476 0.5,-476 48.5,-476 48.5,-476 0.5,-476"/>
<polygon fill="#666666" stroke="#666666" points="48.5,-476 48.5,-476 155.5,-476 155.5,-476 48.5,-476"/>
<polygon fill="none" stroke="#666666" points="0,-459 0,-639 155,-639 155,-459 0,-459"/>
</a>
</g>
</g>
<!-- Node2&#45;&gt;Node1 -->
<g id="edge1_Node000001_Node000002" class="edge">
<title>Node2&#45;&gt;Node1</title>
<g id="a_edge1_Node000001_Node000002"><a xlink:title=" ">
<path fill="none" stroke="#63b8ff" d="M82.7,-458.93C87.93,-369.4 95.91,-232.71 100.91,-147.09"/>
<polygon fill="none" stroke="#63b8ff" points="100.91,-147.07 97.27,-140.85 101.61,-135.09 105.25,-141.32 100.91,-147.07"/>
</a>
</g>
<text text-anchor="middle" x="113" y="-309" font-family="Helvetica,sans-Serif" font-size="10.00" fill="grey"> +Def</text>
</g>
<!-- Node3 -->
<g id="Node000003" class="node">
<title>Node3</title>
<g id="a_Node000003"><a xlink:title=" ">
<polygon fill="white" stroke="transparent" points="198,-908 107,-908 107,-859 198,-859 198,-908"/>
<text text-anchor="start" x="112.5" y="-895.5" font-family="Helvetica,sans-Serif" font-size="10.00">ScriptableObject</text>
<text text-anchor="start" x="151" y="-880.5" font-family="Helvetica,sans-Serif" font-size="10.00"> </text>
<text text-anchor="start" x="151" y="-865.5" font-family="Helvetica,sans-Serif" font-size="10.00"> </text>
<polygon fill="#666666" stroke="#666666" points="107.5,-890.5 107.5,-890.5 198.5,-890.5 198.5,-890.5 107.5,-890.5"/>
<polygon fill="#666666" stroke="#666666" points="107.5,-875.5 107.5,-875.5 198.5,-875.5 198.5,-875.5 107.5,-875.5"/>
<polygon fill="none" stroke="#666666" points="107,-859 107,-908 198,-908 198,-859 107,-859"/>
</a>
</g>
</g>
<!-- Node3&#45;&gt;Node2 -->
<g id="edge2_Node000002_Node000003" class="edge">
<title>Node3&#45;&gt;Node2</title>
<g id="a_edge2_Node000002_Node000003"><a xlink:title=" ">
<path fill="none" stroke="#63b8ff" d="M98.11,-856.49C85.09,-847.49 72.84,-836.04 65.5,-822 36.33,-766.18 40.77,-694.78 51.75,-639.14"/>
<polygon fill="none" stroke="#63b8ff" points="96.44,-859.57 106.74,-862.05 100.23,-853.69 96.44,-859.57"/>
</a>
</g>
</g>
<!-- Node7 -->
<g id="Node000007" class="node">
<title>Node7</title>
<g id="a_Node000007"><a xlink:href="classGuildmaster_1_1Data_1_1Definitions_1_1RelicData.html" target="_top" xlink:title="«Чемпион» — стат&#45;блок и боевые категории юнита.">
<polygon fill="white" stroke="transparent" points="230,-822 75,-822 75,-657 230,-657 230,-822"/>
<text text-anchor="start" x="80.5" y="-809.5" font-family="Helvetica,sans-Serif" font-size="10.00">Guildmaster.Data.Definitions.</text>
<text text-anchor="start" x="129" y="-798.5" font-family="Helvetica,sans-Serif" font-size="10.00">RelicData</text>
<text text-anchor="start" x="91.5" y="-783.5" font-family="Helvetica,sans-Serif" font-size="10.00">+</text>
<text text-anchor="start" x="116.5" y="-783.5" font-family="Helvetica,sans-Serif" font-size="10.00">DisplayNameKey</text>
<text text-anchor="start" x="91.5" y="-768.5" font-family="Helvetica,sans-Serif" font-size="10.00">+</text>
<text text-anchor="start" x="116.5" y="-768.5" font-family="Helvetica,sans-Serif" font-size="10.00">Tags</text>
<text text-anchor="start" x="91.5" y="-753.5" font-family="Helvetica,sans-Serif" font-size="10.00">+</text>
<text text-anchor="start" x="116.5" y="-753.5" font-family="Helvetica,sans-Serif" font-size="10.00">DamageType</text>
<text text-anchor="start" x="91.5" y="-738.5" font-family="Helvetica,sans-Serif" font-size="10.00">+</text>
<text text-anchor="start" x="116.5" y="-738.5" font-family="Helvetica,sans-Serif" font-size="10.00">AttackType</text>
<text text-anchor="start" x="91.5" y="-723.5" font-family="Helvetica,sans-Serif" font-size="10.00">+</text>
<text text-anchor="start" x="116.5" y="-723.5" font-family="Helvetica,sans-Serif" font-size="10.00">ResourceType</text>
<text text-anchor="start" x="91.5" y="-708.5" font-family="Helvetica,sans-Serif" font-size="10.00">+</text>
<text text-anchor="start" x="116.5" y="-708.5" font-family="Helvetica,sans-Serif" font-size="10.00">Stats</text>
<text text-anchor="start" x="91.5" y="-693.5" font-family="Helvetica,sans-Serif" font-size="10.00">+</text>
<text text-anchor="start" x="116.5" y="-693.5" font-family="Helvetica,sans-Serif" font-size="10.00">GrantedEffects</text>
<text text-anchor="start" x="91.5" y="-678.5" font-family="Helvetica,sans-Serif" font-size="10.00">+</text>
<text text-anchor="start" x="116.5" y="-678.5" font-family="Helvetica,sans-Serif" font-size="10.00">Abilities</text>
<text text-anchor="start" x="151" y="-663.5" font-family="Helvetica,sans-Serif" font-size="10.00"> </text>
<polygon fill="#666666" stroke="#666666" points="75.5,-793.5 75.5,-793.5 230.5,-793.5 230.5,-793.5 75.5,-793.5"/>
<polygon fill="#666666" stroke="#666666" points="75.5,-673.5 75.5,-673.5 114.5,-673.5 114.5,-673.5 75.5,-673.5"/>
<polygon fill="#666666" stroke="#666666" points="114.5,-673.5 114.5,-673.5 230.5,-673.5 230.5,-673.5 114.5,-673.5"/>
<polygon fill="none" stroke="#666666" points="75,-657 75,-822 230,-822 230,-657 75,-657"/>
</a>
</g>
</g>
<!-- Node3&#45;&gt;Node7 -->
<g id="edge8_Node000007_Node000003" class="edge">
<title>Node3&#45;&gt;Node7</title>
<g id="a_edge8_Node000007_Node000003"><a xlink:title=" ">
<path fill="none" stroke="#63b8ff" d="M152.5,-848.65C152.5,-840.55 152.5,-831.54 152.5,-822.29"/>
<polygon fill="none" stroke="#63b8ff" points="149,-848.73 152.5,-858.73 156,-848.73 149,-848.73"/>
</a>
</g>
</g>
<!-- Node8 -->
<g id="Node000008" class="node">
<title>Node8</title>
<g id="a_Node000008"><a xlink:href="classGuildmaster_1_1Data_1_1Definitions_1_1VesselData.html" target="_top" xlink:title="«Пилот» — носитель реликвии.">
<polygon fill="white" stroke="transparent" points="403,-784.5 248,-784.5 248,-694.5 403,-694.5 403,-784.5"/>
<text text-anchor="start" x="253.5" y="-772.5" font-family="Helvetica,sans-Serif" font-size="10.00">Guildmaster.Data.Definitions.</text>
<text text-anchor="start" x="298.5" y="-761.5" font-family="Helvetica,sans-Serif" font-size="10.00">VesselData</text>
<text text-anchor="start" x="264.5" y="-746.5" font-family="Helvetica,sans-Serif" font-size="10.00">+</text>
<text text-anchor="start" x="289.5" y="-746.5" font-family="Helvetica,sans-Serif" font-size="10.00">DisplayNameKey</text>
<text text-anchor="start" x="264.5" y="-731.5" font-family="Helvetica,sans-Serif" font-size="10.00">+</text>
<text text-anchor="start" x="289.5" y="-731.5" font-family="Helvetica,sans-Serif" font-size="10.00">Tags</text>
<text text-anchor="start" x="264.5" y="-716.5" font-family="Helvetica,sans-Serif" font-size="10.00">+</text>
<text text-anchor="start" x="289.5" y="-716.5" font-family="Helvetica,sans-Serif" font-size="10.00">TalentModifiers</text>
<text text-anchor="start" x="324" y="-701.5" font-family="Helvetica,sans-Serif" font-size="10.00"> </text>
<polygon fill="#666666" stroke="#666666" points="248.5,-756.5 248.5,-756.5 403.5,-756.5 403.5,-756.5 248.5,-756.5"/>
<polygon fill="#666666" stroke="#666666" points="248.5,-711.5 248.5,-711.5 287.5,-711.5 287.5,-711.5 248.5,-711.5"/>
<polygon fill="#666666" stroke="#666666" points="287.5,-711.5 287.5,-711.5 403.5,-711.5 403.5,-711.5 287.5,-711.5"/>
<polygon fill="none" stroke="#666666" points="248,-694.5 248,-784.5 403,-784.5 403,-694.5 248,-694.5"/>
</a>
</g>
</g>
<!-- Node3&#45;&gt;Node8 -->
<g id="edge10_Node000008_Node000003" class="edge">
<title>Node3&#45;&gt;Node8</title>
<g id="a_edge10_Node000008_Node000003"><a xlink:title=" ">
<path fill="none" stroke="#63b8ff" d="M196.79,-853.11C210.46,-843.57 225.37,-832.68 238.5,-822 252.63,-810.51 267.32,-797.28 280.53,-784.88"/>
<polygon fill="none" stroke="#63b8ff" points="194.7,-850.29 188.47,-858.85 198.68,-856.05 194.7,-850.29"/>
</a>
</g>
</g>
<!-- Node4 -->
<g id="Node000004" class="node">
<title>Node4</title>
<g id="a_Node000004"><a xlink:href="classGuildmaster_1_1Combat_1_1RuntimeUnit.html" target="_top" xlink:title="Рантайм&#45;представление юнита на один бой.">
<polygon fill="white" stroke="transparent" points="348.5,-441 172.5,-441 172.5,-182 348.5,-182 348.5,-441"/>
<text text-anchor="start" x="177.5" y="-428.5" font-family="Helvetica,sans-Serif" font-size="10.00">Guildmaster.Combat.RuntimeUnit</text>
<text text-anchor="start" x="194.5" y="-413.5" font-family="Helvetica,sans-Serif" font-size="10.00">+</text>
<text text-anchor="start" x="225.5" y="-413.5" font-family="Helvetica,sans-Serif" font-size="10.00">Id</text>
<text text-anchor="start" x="194.5" y="-398.5" font-family="Helvetica,sans-Serif" font-size="10.00">+</text>
<text text-anchor="start" x="225.5" y="-398.5" font-family="Helvetica,sans-Serif" font-size="10.00">Team</text>
<text text-anchor="start" x="194.5" y="-383.5" font-family="Helvetica,sans-Serif" font-size="10.00">+</text>
<text text-anchor="start" x="225.5" y="-383.5" font-family="Helvetica,sans-Serif" font-size="10.00">CurrentHP</text>
<text text-anchor="start" x="194.5" y="-368.5" font-family="Helvetica,sans-Serif" font-size="10.00">+</text>
<text text-anchor="start" x="225.5" y="-368.5" font-family="Helvetica,sans-Serif" font-size="10.00">CurrentResource</text>
<text text-anchor="start" x="194.5" y="-353.5" font-family="Helvetica,sans-Serif" font-size="10.00">+</text>
<text text-anchor="start" x="225.5" y="-353.5" font-family="Helvetica,sans-Serif" font-size="10.00">CurrentShield</text>
<text text-anchor="start" x="194.5" y="-338.5" font-family="Helvetica,sans-Serif" font-size="10.00">+</text>
<text text-anchor="start" x="225.5" y="-338.5" font-family="Helvetica,sans-Serif" font-size="10.00">Position</text>
<text text-anchor="start" x="194.5" y="-323.5" font-family="Helvetica,sans-Serif" font-size="10.00">+</text>
<text text-anchor="start" x="225.5" y="-323.5" font-family="Helvetica,sans-Serif" font-size="10.00">PreviousPosition</text>
<text text-anchor="start" x="194.5" y="-308.5" font-family="Helvetica,sans-Serif" font-size="10.00">+</text>
<text text-anchor="start" x="225.5" y="-308.5" font-family="Helvetica,sans-Serif" font-size="10.00">AttackCooldown</text>
<text text-anchor="start" x="194.5" y="-293.5" font-family="Helvetica,sans-Serif" font-size="10.00">+</text>
<text text-anchor="start" x="225.5" y="-293.5" font-family="Helvetica,sans-Serif" font-size="10.00">IsDead</text>
<text text-anchor="start" x="194.5" y="-278.5" font-family="Helvetica,sans-Serif" font-size="10.00">+</text>
<text text-anchor="start" x="225.5" y="-278.5" font-family="Helvetica,sans-Serif" font-size="10.00">ActiveEffects</text>
<text text-anchor="start" x="194.5" y="-263.5" font-family="Helvetica,sans-Serif" font-size="10.00">+</text>
<text text-anchor="start" x="225.5" y="-263.5" font-family="Helvetica,sans-Serif" font-size="10.00">EffectTagMask</text>
<text text-anchor="start" x="194.5" y="-248.5" font-family="Helvetica,sans-Serif" font-size="10.00">+</text>
<text text-anchor="start" x="225.5" y="-248.5" font-family="Helvetica,sans-Serif" font-size="10.00">Abilities</text>
<text text-anchor="start" x="194.5" y="-233.5" font-family="Helvetica,sans-Serif" font-size="10.00">+</text>
<text text-anchor="start" x="225.5" y="-233.5" font-family="Helvetica,sans-Serif" font-size="10.00">CanAct</text>
<text text-anchor="start" x="194.5" y="-218.5" font-family="Helvetica,sans-Serif" font-size="10.00">+</text>
<text text-anchor="start" x="225.5" y="-218.5" font-family="Helvetica,sans-Serif" font-size="10.00">CanMove</text>
<text text-anchor="start" x="194.5" y="-203.5" font-family="Helvetica,sans-Serif" font-size="10.00">+</text>
<text text-anchor="start" x="225.5" y="-203.5" font-family="Helvetica,sans-Serif" font-size="10.00">CanCast</text>
<text text-anchor="start" x="258.5" y="-188.5" font-family="Helvetica,sans-Serif" font-size="10.00"> </text>
<polygon fill="#666666" stroke="#666666" points="172.5,-423.5 172.5,-423.5 348.5,-423.5 348.5,-423.5 172.5,-423.5"/>
<polygon fill="#666666" stroke="#666666" points="172.5,-198.5 172.5,-198.5 223.5,-198.5 223.5,-198.5 172.5,-198.5"/>
<polygon fill="#666666" stroke="#666666" points="223.5,-198.5 223.5,-198.5 348.5,-198.5 348.5,-198.5 223.5,-198.5"/>
<polygon fill="none" stroke="#666666" points="172.5,-182 172.5,-441 348.5,-441 348.5,-182 172.5,-182"/>
</a>
</g>
</g>
<!-- Node4&#45;&gt;Node1 -->
<g id="edge3_Node000001_Node000004" class="edge">
<title>Node4&#45;&gt;Node1</title>
<g id="a_edge3_Node000001_Node000004"><a xlink:title=" ">
<path fill="none" stroke="#63b8ff" d="M178.01,-181.71C170.15,-169.43 162.36,-157.27 154.96,-145.72"/>
<polygon fill="none" stroke="#63b8ff" points="154.76,-145.41 148.15,-142.51 148.29,-135.3 154.89,-138.2 154.76,-145.41"/>
</a>
</g>
<text text-anchor="middle" x="188" y="-156" font-family="Helvetica,sans-Serif" font-size="10.00" fill="grey"> +Source</text>
</g>
<!-- Node4&#45;&gt;Node4 -->
<g id="edge6_Node000004_Node000004" class="edge">
<title>Node4&#45;&gt;Node4</title>
<g id="a_edge6_Node000004_Node000004"><a xlink:title=" ">
<path fill="none" stroke="#63b8ff" d="M348.63,-336.16C359.43,-331.74 366.5,-323.52 366.5,-311.5 366.5,-303.99 363.74,-297.96 359.03,-293.41"/>
<polygon fill="none" stroke="#63b8ff" points="358.78,-293.25 351.57,-293.43 348.63,-286.84 355.84,-286.67 358.78,-293.25"/>
</a>
</g>
<text text-anchor="middle" x="405.5" y="-309" font-family="Helvetica,sans-Serif" font-size="10.00" fill="grey"> +CurrentTarget</text>
</g>
<!-- Node5 -->
<g id="Node000005" class="node">
<title>Node5</title>
<g id="a_Node000005"><a xlink:href="classGuildmaster_1_1Combat_1_1Stats.html" target="_top" xlink:title="Рантайм стат&#45;объект юнита.">
<polygon fill="white" stroke="transparent" points="560,-786.5 421,-786.5 421,-692.5 560,-692.5 560,-786.5"/>
<text text-anchor="start" x="426.5" y="-774.5" font-family="Helvetica,sans-Serif" font-size="10.00">Guildmaster.Combat.Stats</text>
<text text-anchor="start" x="489" y="-759.5" font-family="Helvetica,sans-Serif" font-size="10.00"> </text>
<text text-anchor="start" x="425.5" y="-744.5" font-family="Helvetica,sans-Serif" font-size="10.00">+</text>
<text text-anchor="start" x="438.5" y="-744.5" font-family="Helvetica,sans-Serif" font-size="10.00">Stats()</text>
<text text-anchor="start" x="425.5" y="-729.5" font-family="Helvetica,sans-Serif" font-size="10.00">+</text>
<text text-anchor="start" x="438.5" y="-729.5" font-family="Helvetica,sans-Serif" font-size="10.00">Get()</text>
<text text-anchor="start" x="425.5" y="-714.5" font-family="Helvetica,sans-Serif" font-size="10.00">+</text>
<text text-anchor="start" x="438.5" y="-714.5" font-family="Helvetica,sans-Serif" font-size="10.00">AddModifiersFrom()</text>
<text text-anchor="start" x="425.5" y="-699.5" font-family="Helvetica,sans-Serif" font-size="10.00">+</text>
<text text-anchor="start" x="438.5" y="-699.5" font-family="Helvetica,sans-Serif" font-size="10.00">RemoveModifiersFrom()</text>
<polygon fill="#666666" stroke="#666666" points="421.5,-769.5 421.5,-769.5 560.5,-769.5 560.5,-769.5 421.5,-769.5"/>
<polygon fill="#666666" stroke="#666666" points="421.5,-754.5 421.5,-754.5 560.5,-754.5 560.5,-754.5 421.5,-754.5"/>
<polygon fill="none" stroke="#666666" points="421,-692.5 421,-786.5 560,-786.5 560,-692.5 421,-692.5"/>
</a>
</g>
</g>
<!-- Node5&#45;&gt;Node4 -->
<g id="edge4_Node000004_Node000005" class="edge">
<title>Node5&#45;&gt;Node4</title>
<g id="a_edge4_Node000004_Node000005"><a xlink:title=" ">
<path fill="none" stroke="#63b8ff" d="M470.99,-692.49C446.61,-636.26 402.59,-538.76 357.5,-459 356.16,-456.63 354.79,-454.24 353.4,-451.85"/>
<polygon fill="none" stroke="#63b8ff" points="353.28,-451.64 346.79,-448.5 347.2,-441.3 353.69,-444.44 353.28,-451.64"/>
</a>
</g>
<text text-anchor="middle" x="464" y="-546.5" font-family="Helvetica,sans-Serif" font-size="10.00" fill="grey"> +Stats</text>
</g>
<!-- Node6 -->
<g id="Node000006" class="node">
<title>Node6</title>
<g id="a_Node000006"><a xlink:href="interfaceGuildmaster_1_1Data_1_1Stats_1_1IStatReader.html" target="_top" xlink:title="Только&#45;чтение собранных статов.">
<polygon fill="white" stroke="transparent" points="524.5,-908 456.5,-908 456.5,-859 524.5,-859 524.5,-908"/>
<text text-anchor="start" x="461.5" y="-895.5" font-family="Helvetica,sans-Serif" font-size="10.00">IStatReader</text>
<text text-anchor="start" x="488.5" y="-880.5" font-family="Helvetica,sans-Serif" font-size="10.00"> </text>
<text text-anchor="start" x="466" y="-865.5" font-family="Helvetica,sans-Serif" font-size="10.00">+</text>
<text text-anchor="start" x="484.5" y="-865.5" font-family="Helvetica,sans-Serif" font-size="10.00">Get()</text>
<polygon fill="#666666" stroke="#666666" points="456.5,-890.5 456.5,-890.5 524.5,-890.5 524.5,-890.5 456.5,-890.5"/>
<polygon fill="#666666" stroke="#666666" points="456.5,-875.5 456.5,-875.5 524.5,-875.5 524.5,-875.5 456.5,-875.5"/>
<polygon fill="none" stroke="#666666" points="456.5,-859 456.5,-908 524.5,-908 524.5,-859 456.5,-859"/>
</a>
</g>
</g>
<!-- Node6&#45;&gt;Node5 -->
<g id="edge5_Node000005_Node000006" class="edge">
<title>Node6&#45;&gt;Node5</title>
<g id="a_edge5_Node000005_Node000006"><a xlink:title=" ">
<path fill="none" stroke="#63b8ff" d="M490.5,-848.7C490.5,-830.18 490.5,-806.95 490.5,-786.77"/>
<polygon fill="none" stroke="#63b8ff" points="487,-848.73 490.5,-858.73 494,-848.73 487,-848.73"/>
</a>
</g>
</g>
<!-- Node7&#45;&gt;Node4 -->
<g id="edge7_Node000004_Node000007" class="edge">
<title>Node7&#45;&gt;Node4</title>
<g id="a_edge7_Node000004_Node000007"><a xlink:title=" ">
<path fill="none" stroke="#63b8ff" d="M173.2,-656.87C187.79,-599.32 207.7,-520.78 224.82,-453.24"/>
<polygon fill="none" stroke="#63b8ff" points="224.92,-452.83 222.52,-446.04 227.87,-441.2 230.27,-448 224.92,-452.83"/>
</a>
</g>
<text text-anchor="middle" x="240.5" y="-546.5" font-family="Helvetica,sans-Serif" font-size="10.00" fill="grey"> +Relic</text>
</g>
<!-- Node8&#45;&gt;Node4 -->
<g id="edge9_Node000004_Node000008" class="edge">
<title>Node8&#45;&gt;Node4</title>
<g id="a_edge9_Node000004_Node000008"><a xlink:title=" ">
<path fill="none" stroke="#63b8ff" d="M318.73,-694.12C310.09,-637.49 294.73,-536.86 281.96,-453.14"/>
<polygon fill="none" stroke="#63b8ff" points="281.95,-453.05 277.09,-447.72 280.14,-441.19 284.99,-446.51 281.95,-453.05"/>
</a>
</g>
<text text-anchor="middle" x="332" y="-546.5" font-family="Helvetica,sans-Serif" font-size="10.00" fill="grey"> +Vessel</text>
</g>
</g>
</svg>
