<?xml version="1.0" encoding="UTF-8" standalone="no"?>
<!DOCTYPE svg PUBLIC "-//W3C//DTD SVG 1.1//EN"
 "http://www.w3.org/Graphics/SVG/1.1/DTD/svg11.dtd">
<!-- Generated by graphviz version 2.43.0 (0)
 -->
<!-- Title: Guildmaster.Combat.Stats.Get Pages: 1 -->
<svg width="562pt" height="278pt"
 viewBox="0.00 0.00 562.00 278.00" xmlns="http://www.w3.org/2000/svg" xmlns:xlink="http://www.w3.org/1999/xlink">
<g id="graph0" class="graph" transform="scale(1 1) rotate(0) translate(4 274)">
<title>Guildmaster.Combat.Stats.Get</title>
<!-- Node1 -->
<g id="Node000001" class="node">
<title>Node1</title>
<g id="a_Node000001"><a xlink:title="Итоговое значение стата после всех модификаторов и клампов.">
<polygon fill="#999999" stroke="#666666" points="554,-144.5 389,-144.5 389,-125.5 554,-125.5 554,-144.5"/>
<text text-anchor="middle" x="471.5" y="-132.5" font-family="Helvetica,sans-Serif" font-size="10.00">Guildmaster.Combat.Stats.Get</text>
</a>
</g>
</g>
<!-- Node2 -->
<g id="Node000002" class="node">
<title>Node2</title>
<g id="a_Node000002"><a xlink:href="classGuildmaster_1_1Presentation_1_1HealthBarView.html#addca237a220d26640e8bef0b174d1134" target="_top" xlink:title="Привязать к юниту для первоначальной отрисовки.">
<polygon fill="white" stroke="#666666" points="337.5,-270 194.5,-270 194.5,-240 337.5,-240 337.5,-270"/>
<text text-anchor="start" x="202.5" y="-258" font-family="Helvetica,sans-Serif" font-size="10.00">Guildmaster.Presentation.</text>
<text text-anchor="middle" x="266" y="-247" font-family="Helvetica,sans-Serif" font-size="10.00">HealthBarView.Bind</text>
</a>
</g>
</g>
<!-- Node1&#45;&gt;Node2 -->
<g id="edge1_Node000001_Node000002" class="edge">
<title>Node1&#45;&gt;Node2</title>
<g id="a_edge1_Node000001_Node000002"><a xlink:title=" ">
<path fill="none" stroke="#63b8ff" d="M454.18,-152.15C432.85,-173.59 393.43,-210.02 353,-231 346.53,-234.36 339.54,-237.29 332.44,-239.84"/>
<polygon fill="#63b8ff" stroke="#63b8ff" points="456.94,-154.32 461.43,-144.73 451.94,-149.43 456.94,-154.32"/>
</a>
</g>
</g>
<!-- Node4 -->
<g id="Node000004" class="node">
<title>Node4</title>
<g id="a_Node000004"><a xlink:href="classGuildmaster_1_1Combat_1_1RuntimeUnitFactory.html#a261369f433994727bbd075e6520ac237" target="_top" xlink:title="Создать RuntimeUnit из SO&#45;данных.">
<polygon fill="white" stroke="#666666" points="346.5,-222 185.5,-222 185.5,-192 346.5,-192 346.5,-222"/>
<text text-anchor="start" x="193.5" y="-210" font-family="Helvetica,sans-Serif" font-size="10.00">Guildmaster.Combat.Runtime</text>
<text text-anchor="middle" x="266" y="-199" font-family="Helvetica,sans-Serif" font-size="10.00">UnitFactory.Create</text>
</a>
</g>
</g>
<!-- Node1&#45;&gt;Node4 -->
<g id="edge3_Node000001_Node000004" class="edge">
<title>Node1&#45;&gt;Node4</title>
<g id="a_edge3_Node000001_Node000004"><a xlink:title=" ">
<path fill="none" stroke="#63b8ff" d="M439.7,-148.73C416.21,-158.91 382.92,-172.75 353,-183 343.91,-186.11 334.18,-189.13 324.65,-191.91"/>
<polygon fill="#63b8ff" stroke="#63b8ff" points="441.37,-151.82 449.13,-144.6 438.56,-145.4 441.37,-151.82"/>
</a>
</g>
</g>
<!-- Node5 -->
<g id="Node000005" class="node">
<title>Node5</title>
<g id="a_Node000005"><a xlink:href="classGuildmaster_1_1Combat_1_1CombatSimulation.html#a3edf9fdf873a5ebddd75420669bdb8c2" target="_top" xlink:title="Исцелить юнита. Не выходит за MaxHP.">
<polygon fill="white" stroke="#666666" points="345,-174 187,-174 187,-144 345,-144 345,-174"/>
<text text-anchor="start" x="195" y="-162" font-family="Helvetica,sans-Serif" font-size="10.00">Guildmaster.Combat.Combat</text>
<text text-anchor="middle" x="266" y="-151" font-family="Helvetica,sans-Serif" font-size="10.00">Simulation.Heal</text>
</a>
</g>
</g>
<!-- Node1&#45;&gt;Node5 -->
<g id="edge4_Node000001_Node000005" class="edge">
<title>Node1&#45;&gt;Node5</title>
<g id="a_edge4_Node000001_Node000005"><a xlink:title=" ">
<path fill="none" stroke="#63b8ff" d="M379.74,-145.7C368.25,-147.06 356.57,-148.44 345.3,-149.77"/>
<polygon fill="#63b8ff" stroke="#63b8ff" points="380.26,-149.17 389.78,-144.52 379.44,-142.22 380.26,-149.17"/>
</a>
</g>
</g>
<!-- Node6 -->
<g id="Node000006" class="node">
<title>Node6</title>
<g id="a_Node000006"><a xlink:href="classGuildmaster_1_1Combat_1_1MovementSystem.html#ae81eb146f149fe4cc225406250d96c06" target="_top" xlink:title="Продвинуть позиции всех живых юнитов на один тик.">
<polygon fill="white" stroke="#666666" points="352.5,-126 179.5,-126 179.5,-96 352.5,-96 352.5,-126"/>
<text text-anchor="start" x="187.5" y="-114" font-family="Helvetica,sans-Serif" font-size="10.00">Guildmaster.Combat.Movement</text>
<text text-anchor="middle" x="266" y="-103" font-family="Helvetica,sans-Serif" font-size="10.00">System.Tick</text>
</a>
</g>
</g>
<!-- Node1&#45;&gt;Node6 -->
<g id="edge5_Node000001_Node000006" class="edge">
<title>Node1&#45;&gt;Node6</title>
<g id="a_edge5_Node000001_Node000006"><a xlink:title=" ">
<path fill="none" stroke="#63b8ff" d="M379.69,-124.29C370.69,-123.23 361.58,-122.15 352.64,-121.1"/>
<polygon fill="#63b8ff" stroke="#63b8ff" points="379.44,-127.78 389.78,-125.48 380.26,-120.83 379.44,-127.78"/>
</a>
</g>
</g>
<!-- Node7 -->
<g id="Node000007" class="node">
<title>Node7</title>
<g id="a_Node000007"><a xlink:href="classGuildmaster_1_1Combat_1_1AutoAttackSystem.html#a0f41579d23e8074e346e93e793eb0f5b" target="_top" xlink:title="Обработать автоатаки всех живых юнитов за один тик.">
<polygon fill="white" stroke="#666666" points="353,-78 179,-78 179,-48 353,-48 353,-78"/>
<text text-anchor="start" x="187" y="-66" font-family="Helvetica,sans-Serif" font-size="10.00">Guildmaster.Combat.AutoAttack</text>
<text text-anchor="middle" x="266" y="-55" font-family="Helvetica,sans-Serif" font-size="10.00">System.Tick</text>
</a>
</g>
</g>
<!-- Node1&#45;&gt;Node7 -->
<g id="edge6_Node000001_Node000007" class="edge">
<title>Node1&#45;&gt;Node7</title>
<g id="a_edge6_Node000001_Node000007"><a xlink:title=" ">
<path fill="none" stroke="#63b8ff" d="M439.7,-121.27C416.21,-111.09 382.92,-97.25 353,-87 343.91,-83.89 334.18,-80.87 324.65,-78.09"/>
<polygon fill="#63b8ff" stroke="#63b8ff" points="438.56,-124.6 449.13,-125.4 441.37,-118.18 438.56,-124.6"/>
</a>
</g>
</g>
<!-- Node8 -->
<g id="Node000008" class="node">
<title>Node8</title>
<g id="a_Node000008"><a xlink:href="classGuildmaster_1_1Presentation_1_1UnitView.html#a25961c760cc2434fa8f210178cf3e8e3" target="_top" xlink:title="Обновить интерполированную позицию.">
<polygon fill="white" stroke="#666666" points="346.5,-30 185.5,-30 185.5,0 346.5,0 346.5,-30"/>
<text text-anchor="start" x="193.5" y="-18" font-family="Helvetica,sans-Serif" font-size="10.00">Guildmaster.Presentation.</text>
<text text-anchor="middle" x="266" y="-7" font-family="Helvetica,sans-Serif" font-size="10.00">UnitView.UpdateInterpolation</text>
</a>
</g>
</g>
<!-- Node1&#45;&gt;Node8 -->
<g id="edge7_Node000001_Node000008" class="edge">
<title>Node1&#45;&gt;Node8</title>
<g id="a_edge7_Node000001_Node000008"><a xlink:title=" ">
<path fill="none" stroke="#63b8ff" d="M454.18,-117.85C432.85,-96.41 393.43,-59.98 353,-39 346.53,-35.64 339.54,-32.71 332.44,-30.16"/>
<polygon fill="#63b8ff" stroke="#63b8ff" points="451.94,-120.57 461.43,-125.27 456.94,-115.68 451.94,-120.57"/>
</a>
</g>
</g>
<!-- Node3 -->
<g id="Node000003" class="node">
<title>Node3</title>
<g id="a_Node000003"><a xlink:href="classGuildmaster_1_1Presentation_1_1UnitView.html#a255f8da9e7913276471739aea28ffe45" target="_top" xlink:title="Связать вид с рантайм&#45;юнитом.">
<polygon fill="white" stroke="#666666" points="143,-270 0,-270 0,-240 143,-240 143,-270"/>
<text text-anchor="start" x="8" y="-258" font-family="Helvetica,sans-Serif" font-size="10.00">Guildmaster.Presentation.</text>
<text text-anchor="middle" x="71.5" y="-247" font-family="Helvetica,sans-Serif" font-size="10.00">UnitView.Bind</text>
</a>
</g>
</g>
<!-- Node2&#45;&gt;Node3 -->
<g id="edge2_Node000002_Node000003" class="edge">
<title>Node2&#45;&gt;Node3</title>
<g id="a_edge2_Node000002_Node000003"><a xlink:title=" ">
<path fill="none" stroke="#63b8ff" d="M184.09,-255C170.47,-255 156.42,-255 143.08,-255"/>
<polygon fill="#63b8ff" stroke="#63b8ff" points="184.41,-258.5 194.41,-255 184.41,-251.5 184.41,-258.5"/>
</a>
</g>
</g>
</g>
</svg>
