<?xml version="1.0" encoding="UTF-8" standalone="no"?>
<!DOCTYPE svg PUBLIC "-//W3C//DTD SVG 1.1//EN"
 "http://www.w3.org/Graphics/SVG/1.1/DTD/svg11.dtd">
<!-- Generated by graphviz version 2.43.0 (0)
 -->
<!-- Title: Guildmaster.Data.Definitions.VesselData Pages: 1 -->
<svg width="163pt" height="183pt"
 viewBox="0.00 0.00 163.00 183.00" xmlns="http://www.w3.org/2000/svg" xmlns:xlink="http://www.w3.org/1999/xlink">
<g id="graph0" class="graph" transform="scale(1 1) rotate(0) translate(4 179)">
<title>Guildmaster.Data.Definitions.VesselData</title>
<!-- Node1 -->
<g id="Node000001" class="node">
<title>Node1</title>
<g id="a_Node000001"><a xlink:title="«Пилот» — носитель реликвии.">
<polygon fill="#999999" stroke="transparent" points="155,-90 0,-90 0,0 155,0 155,-90"/>
<text text-anchor="start" x="5.5" y="-78" font-family="Helvetica,sans-Serif" font-size="10.00">Guildmaster.Data.Definitions.</text>
<text text-anchor="start" x="50.5" y="-67" font-family="Helvetica,sans-Serif" font-size="10.00">VesselData</text>
<text text-anchor="start" x="16.5" y="-52" font-family="Helvetica,sans-Serif" font-size="10.00">+</text>
<text text-anchor="start" x="41.5" y="-52" font-family="Helvetica,sans-Serif" font-size="10.00">DisplayNameKey</text>
<text text-anchor="start" x="16.5" y="-37" font-family="Helvetica,sans-Serif" font-size="10.00">+</text>
<text text-anchor="start" x="41.5" y="-37" font-family="Helvetica,sans-Serif" font-size="10.00">Tags</text>
<text text-anchor="start" x="16.5" y="-22" font-family="Helvetica,sans-Serif" font-size="10.00">+</text>
<text text-anchor="start" x="41.5" y="-22" font-family="Helvetica,sans-Serif" font-size="10.00">TalentModifiers</text>
<text text-anchor="start" x="76" y="-7" font-family="Helvetica,sans-Serif" font-size="10.00"> </text>
<polygon fill="#666666" stroke="#666666" points="0.5,-62 0.5,-62 155.5,-62 155.5,-62 0.5,-62"/>
<polygon fill="#666666" stroke="#666666" points="0.5,-17 0.5,-17 39.5,-17 39.5,-17 0.5,-17"/>
<polygon fill="#666666" stroke="#666666" points="39.5,-17 39.5,-17 155.5,-17 155.5,-17 39.5,-17"/>
<polygon fill="none" stroke="#666666" points="0,0 0,-90 155,-90 155,0 0,0"/>
</a>
</g>
</g>
<!-- Node2 -->
<g id="Node000002" class="node">
<title>Node2</title>
<g id="a_Node000002"><a xlink:title=" ">
<polygon fill="white" stroke="transparent" points="123,-175 32,-175 32,-126 123,-126 123,-175"/>
<text text-anchor="start" x="37.5" y="-162.5" font-family="Helvetica,sans-Serif" font-size="10.00">ScriptableObject</text>
<text text-anchor="start" x="76" y="-147.5" font-family="Helvetica,sans-Serif" font-size="10.00"> </text>
<text text-anchor="start" x="76" y="-132.5" font-family="Helvetica,sans-Serif" font-size="10.00"> </text>
<polygon fill="#666666" stroke="#666666" points="32.5,-157.5 32.5,-157.5 123.5,-157.5 123.5,-157.5 32.5,-157.5"/>
<polygon fill="#666666" stroke="#666666" points="32.5,-142.5 32.5,-142.5 123.5,-142.5 123.5,-142.5 32.5,-142.5"/>
<polygon fill="none" stroke="#666666" points="32,-126 32,-175 123,-175 123,-126 32,-126"/>
</a>
</g>
</g>
<!-- Node2&#45;&gt;Node1 -->
<g id="edge1_Node000001_Node000002" class="edge">
<title>Node2&#45;&gt;Node1</title>
<g id="a_edge1_Node000001_Node000002"><a xlink:title=" ">
<path fill="none" stroke="#63b8ff" d="M77.5,-115.62C77.5,-107.56 77.5,-98.84 77.5,-90.39"/>
<polygon fill="none" stroke="#63b8ff" points="74,-115.75 77.5,-125.76 81,-115.76 74,-115.75"/>
</a>
</g>
</g>
</g>
</svg>
