<?xml version="1.0" encoding="UTF-8" standalone="no"?>
<!DOCTYPE svg PUBLIC "-//W3C//DTD SVG 1.1//EN"
 "http://www.w3.org/Graphics/SVG/1.1/DTD/svg11.dtd">
<!-- Generated by graphviz version 2.43.0 (0)
 -->
<!-- Title: Guildmaster.Core.Random.XorShiftRng Pages: 1 -->
<svg width="150pt" height="318pt"
 viewBox="0.00 0.00 150.00 318.00" xmlns="http://www.w3.org/2000/svg" xmlns:xlink="http://www.w3.org/1999/xlink">
<g id="graph0" class="graph" transform="scale(1 1) rotate(0) translate(4 314)">
<title>Guildmaster.Core.Random.XorShiftRng</title>
<!-- Node1 -->
<g id="Node000001" class="node">
<title>Node1</title>
<g id="a_Node000001"><a xlink:title="Детерминированный PRNG (xorshift128).">
<polygon fill="#999999" stroke="transparent" points="142,-150 0,-150 0,0 142,0 142,-150"/>
<text text-anchor="start" x="5" y="-138" font-family="Helvetica,sans-Serif" font-size="10.00">Guildmaster.Core.Random.</text>
<text text-anchor="start" x="42" y="-127" font-family="Helvetica,sans-Serif" font-size="10.00">XorShiftRng</text>
<text text-anchor="start" x="69" y="-112" font-family="Helvetica,sans-Serif" font-size="10.00"> </text>
<text text-anchor="start" x="18" y="-97" font-family="Helvetica,sans-Serif" font-size="10.00">+</text>
<text text-anchor="start" x="45" y="-97" font-family="Helvetica,sans-Serif" font-size="10.00">XorShiftRng()</text>
<text text-anchor="start" x="18" y="-82" font-family="Helvetica,sans-Serif" font-size="10.00">+</text>
<text text-anchor="start" x="45" y="-82" font-family="Helvetica,sans-Serif" font-size="10.00">NextUInt()</text>
<text text-anchor="start" x="18" y="-67" font-family="Helvetica,sans-Serif" font-size="10.00">+</text>
<text text-anchor="start" x="45" y="-67" font-family="Helvetica,sans-Serif" font-size="10.00">NextInt()</text>
<text text-anchor="start" x="18" y="-52" font-family="Helvetica,sans-Serif" font-size="10.00">+</text>
<text text-anchor="start" x="45" y="-52" font-family="Helvetica,sans-Serif" font-size="10.00">NextFloat()</text>
<text text-anchor="start" x="18" y="-37" font-family="Helvetica,sans-Serif" font-size="10.00">+</text>
<text text-anchor="start" x="45" y="-37" font-family="Helvetica,sans-Serif" font-size="10.00">NextFloat()</text>
<text text-anchor="start" x="18" y="-22" font-family="Helvetica,sans-Serif" font-size="10.00">+</text>
<text text-anchor="start" x="45" y="-22" font-family="Helvetica,sans-Serif" font-size="10.00">Chance()</text>
<text text-anchor="start" x="18" y="-7" font-family="Helvetica,sans-Serif" font-size="10.00">+</text>
<text text-anchor="start" x="45" y="-7" font-family="Helvetica,sans-Serif" font-size="10.00">Snapshot()</text>
<polygon fill="#666666" stroke="#666666" points="0,-122 0,-122 142,-122 142,-122 0,-122"/>
<polygon fill="#666666" stroke="#666666" points="0,-107 0,-107 142,-107 142,-107 0,-107"/>
<polygon fill="none" stroke="#666666" points="0,0 0,-150 142,-150 142,0 0,0"/>
</a>
</g>
</g>
<!-- Node2 -->
<g id="Node000002" class="node">
<title>Node2</title>
<g id="a_Node000002"><a xlink:href="interfaceGuildmaster_1_1Core_1_1Random_1_1IRngService.html" target="_top" xlink:title="Детерминированный источник случайности симуляции.">
<polygon fill="white" stroke="transparent" points="109.5,-310 32.5,-310 32.5,-186 109.5,-186 109.5,-310"/>
<text text-anchor="start" x="42.5" y="-298" font-family="Helvetica,sans-Serif" font-size="10.00">IRngService</text>
<text text-anchor="start" x="69.5" y="-283" font-family="Helvetica,sans-Serif" font-size="10.00"> </text>
<text text-anchor="start" x="37" y="-268" font-family="Helvetica,sans-Serif" font-size="10.00">+</text>
<text text-anchor="start" x="50" y="-268" font-family="Helvetica,sans-Serif" font-size="10.00">NextUInt()</text>
<text text-anchor="start" x="37" y="-253" font-family="Helvetica,sans-Serif" font-size="10.00">+</text>
<text text-anchor="start" x="50" y="-253" font-family="Helvetica,sans-Serif" font-size="10.00">NextInt()</text>
<text text-anchor="start" x="37" y="-238" font-family="Helvetica,sans-Serif" font-size="10.00">+</text>
<text text-anchor="start" x="50" y="-238" font-family="Helvetica,sans-Serif" font-size="10.00">NextFloat()</text>
<text text-anchor="start" x="37" y="-223" font-family="Helvetica,sans-Serif" font-size="10.00">+</text>
<text text-anchor="start" x="50" y="-223" font-family="Helvetica,sans-Serif" font-size="10.00">NextFloat()</text>
<text text-anchor="start" x="37" y="-208" font-family="Helvetica,sans-Serif" font-size="10.00">+</text>
<text text-anchor="start" x="50" y="-208" font-family="Helvetica,sans-Serif" font-size="10.00">Chance()</text>
<text text-anchor="start" x="37" y="-193" font-family="Helvetica,sans-Serif" font-size="10.00">+</text>
<text text-anchor="start" x="50" y="-193" font-family="Helvetica,sans-Serif" font-size="10.00">Snapshot()</text>
<polygon fill="#666666" stroke="#666666" points="33,-293 33,-293 110,-293 110,-293 33,-293"/>
<polygon fill="#666666" stroke="#666666" points="33,-278 33,-278 110,-278 110,-278 33,-278"/>
<polygon fill="none" stroke="#666666" points="32.5,-186 32.5,-310 109.5,-310 109.5,-186 32.5,-186"/>
</a>
</g>
</g>
<!-- Node2&#45;&gt;Node1 -->
<g id="edge1_Node000001_Node000002" class="edge">
<title>Node2&#45;&gt;Node1</title>
<g id="a_edge1_Node000001_Node000002"><a xlink:title=" ">
<path fill="none" stroke="#63b8ff" d="M71,-175.64C71,-167.26 71,-158.69 71,-150.26"/>
<polygon fill="none" stroke="#63b8ff" points="67.5,-175.75 71,-185.75 74.5,-175.75 67.5,-175.75"/>
</a>
</g>
</g>
</g>
</svg>
