<?xml version="1.0" encoding="UTF-8" standalone="no"?>
<!DOCTYPE svg PUBLIC "-//W3C//DTD SVG 1.1//EN"
 "http://www.w3.org/Graphics/SVG/1.1/DTD/svg11.dtd">
<!-- Generated by graphviz version 2.43.0 (0)
 -->
<!-- Title: Guildmaster.Combat.Effects.Components.ConcealmentComponent Pages: 1 -->
<svg width="204pt" height="368pt"
 viewBox="0.00 0.00 204.00 368.00" xmlns="http://www.w3.org/2000/svg" xmlns:xlink="http://www.w3.org/1999/xlink">
<g id="graph0" class="graph" transform="scale(1 1) rotate(0) translate(4 364)">
<title>Guildmaster.Combat.Effects.Components.ConcealmentComponent</title>
<!-- Node1 -->
<g id="Node000001" class="node">
<title>Node1</title>
<g id="a_Node000001"><a xlink:title="Маскировка (дизайн Макса 2026&#45;07&#45;30, числа и правила 2026&#45;07&#45;31): пока эффект висит,...">
<polygon fill="#999999" stroke="transparent" points="196,-90 0,-90 0,0 196,0 196,-90"/>
<text text-anchor="start" x="5" y="-78" font-family="Helvetica,sans-Serif" font-size="10.00">Guildmaster.Combat.Effects.</text>
<text text-anchor="start" x="5" y="-67" font-family="Helvetica,sans-Serif" font-size="10.00">Components.ConcealmentComponent</text>
<text text-anchor="start" x="28" y="-52" font-family="Helvetica,sans-Serif" font-size="10.00">+</text>
<text text-anchor="start" x="65" y="-52" font-family="Helvetica,sans-Serif" font-size="10.00">Tier</text>
<text text-anchor="start" x="28" y="-37" font-family="Helvetica,sans-Serif" font-size="10.00">+</text>
<text text-anchor="start" x="65" y="-37" font-family="Helvetica,sans-Serif" font-size="10.00">OnApply()</text>
<text text-anchor="start" x="28" y="-22" font-family="Helvetica,sans-Serif" font-size="10.00">+</text>
<text text-anchor="start" x="65" y="-22" font-family="Helvetica,sans-Serif" font-size="10.00">OnExpire()</text>
<text text-anchor="start" x="28" y="-7" font-family="Helvetica,sans-Serif" font-size="10.00">+</text>
<text text-anchor="start" x="65" y="-7" font-family="Helvetica,sans-Serif" font-size="10.00">OnPreDamage()</text>
<polygon fill="#666666" stroke="#666666" points="0,-62 0,-62 196,-62 196,-62 0,-62"/>
<polygon fill="#666666" stroke="#666666" points="0,-47 0,-47 63,-47 63,-47 0,-47"/>
<polygon fill="#666666" stroke="#666666" points="63,-47 63,-47 196,-47 196,-47 63,-47"/>
<polygon fill="none" stroke="#666666" points="0,0 0,-90 196,-90 196,0 0,0"/>
</a>
</g>
</g>
<!-- Node2 -->
<g id="Node000002" class="node">
<title>Node2</title>
<g id="a_Node000002"><a xlink:href="interfaceGuildmaster_1_1Combat_1_1Effects_1_1IPreDamageComponent.html" target="_top" xlink:title="Синхронный перехват ДО вычета HP (§9.3): вызывается из EffectSystem.RunPreDamage перед DamagePipeline...">
<polygon fill="white" stroke="transparent" points="161.5,-175 34.5,-175 34.5,-126 161.5,-126 161.5,-175"/>
<text text-anchor="start" x="40" y="-162.5" font-family="Helvetica,sans-Serif" font-size="10.00">IPreDamageComponent</text>
<text text-anchor="start" x="96.5" y="-147.5" font-family="Helvetica,sans-Serif" font-size="10.00"> </text>
<text text-anchor="start" x="45.5" y="-132.5" font-family="Helvetica,sans-Serif" font-size="10.00">+</text>
<text text-anchor="start" x="65" y="-132.5" font-family="Helvetica,sans-Serif" font-size="10.00">OnPreDamage()</text>
<polygon fill="#666666" stroke="#666666" points="35,-157.5 35,-157.5 162,-157.5 162,-157.5 35,-157.5"/>
<polygon fill="#666666" stroke="#666666" points="35,-142.5 35,-142.5 162,-142.5 162,-142.5 35,-142.5"/>
<polygon fill="none" stroke="#666666" points="34.5,-126 34.5,-175 161.5,-175 161.5,-126 34.5,-126"/>
</a>
</g>
</g>
<!-- Node2&#45;&gt;Node1 -->
<g id="edge1_Node000001_Node000002" class="edge">
<title>Node2&#45;&gt;Node1</title>
<g id="a_edge1_Node000001_Node000002"><a xlink:title=" ">
<path fill="none" stroke="#63b8ff" d="M98,-115.62C98,-107.56 98,-98.84 98,-90.39"/>
<polygon fill="none" stroke="#63b8ff" points="94.5,-115.75 98,-125.76 101.5,-115.76 94.5,-115.75"/>
</a>
</g>
</g>
<!-- Node3 -->
<g id="Node000003" class="node">
<title>Node3</title>
<g id="a_Node000003"><a xlink:href="interfaceGuildmaster_1_1Combat_1_1Effects_1_1IRuntimeEffectComponent.html" target="_top" xlink:title="Рантайм&#45;контракт поведения эффекта.">
<polygon fill="white" stroke="transparent" points="167.5,-275 28.5,-275 28.5,-211 167.5,-211 167.5,-275"/>
<text text-anchor="start" x="34" y="-263" font-family="Helvetica,sans-Serif" font-size="10.00">IRuntimeEffectComponent</text>
<text text-anchor="start" x="96.5" y="-248" font-family="Helvetica,sans-Serif" font-size="10.00"> </text>
<text text-anchor="start" x="49.5" y="-233" font-family="Helvetica,sans-Serif" font-size="10.00">+</text>
<text text-anchor="start" x="79" y="-233" font-family="Helvetica,sans-Serif" font-size="10.00">OnApply()</text>
<text text-anchor="start" x="49.5" y="-218" font-family="Helvetica,sans-Serif" font-size="10.00">+</text>
<text text-anchor="start" x="79" y="-218" font-family="Helvetica,sans-Serif" font-size="10.00">OnExpire()</text>
<polygon fill="#666666" stroke="#666666" points="29,-258 29,-258 168,-258 168,-258 29,-258"/>
<polygon fill="#666666" stroke="#666666" points="29,-243 29,-243 168,-243 168,-243 29,-243"/>
<polygon fill="none" stroke="#666666" points="28.5,-211 28.5,-275 167.5,-275 167.5,-211 28.5,-211"/>
</a>
</g>
</g>
<!-- Node3&#45;&gt;Node2 -->
<g id="edge2_Node000002_Node000003" class="edge">
<title>Node3&#45;&gt;Node2</title>
<g id="a_edge2_Node000002_Node000003"><a xlink:title=" ">
<path fill="none" stroke="#63b8ff" d="M98,-200.77C98,-192.03 98,-183.09 98,-175.27"/>
<polygon fill="none" stroke="#63b8ff" points="94.5,-200.85 98,-210.86 101.5,-200.86 94.5,-200.85"/>
</a>
</g>
</g>
<!-- Node4 -->
<g id="Node000004" class="node">
<title>Node4</title>
<g id="a_Node000004"><a xlink:href="interfaceGuildmaster_1_1Data_1_1Definitions_1_1IEffectComponent.html" target="_top" xlink:title="Якорь полиморфного поведения эффекта для сериализации.">
<polygon fill="white" stroke="transparent" points="147,-360 49,-360 49,-311 147,-311 147,-360"/>
<text text-anchor="start" x="54" y="-347.5" font-family="Helvetica,sans-Serif" font-size="10.00">IEffectComponent</text>
<text text-anchor="start" x="96" y="-332.5" font-family="Helvetica,sans-Serif" font-size="10.00"> </text>
<text text-anchor="start" x="96" y="-317.5" font-family="Helvetica,sans-Serif" font-size="10.00"> </text>
<polygon fill="#666666" stroke="#666666" points="49,-342.5 49,-342.5 147,-342.5 147,-342.5 49,-342.5"/>
<polygon fill="#666666" stroke="#666666" points="49,-327.5 49,-327.5 147,-327.5 147,-327.5 49,-327.5"/>
<polygon fill="none" stroke="#666666" points="49,-311 49,-360 147,-360 147,-311 49,-311"/>
</a>
</g>
</g>
<!-- Node4&#45;&gt;Node3 -->
<g id="edge3_Node000003_Node000004" class="edge">
<title>Node4&#45;&gt;Node3</title>
<g id="a_edge3_Node000003_Node000004"><a xlink:title=" ">
<path fill="none" stroke="#63b8ff" d="M98,-300.54C98,-292.2 98,-283.31 98,-275.11"/>
<polygon fill="none" stroke="#63b8ff" points="94.5,-300.72 98,-310.72 101.5,-300.72 94.5,-300.72"/>
</a>
</g>
</g>
</g>
</svg>
