<?xml version="1.0" encoding="UTF-8" standalone="no"?>
<!DOCTYPE svg PUBLIC "-//W3C//DTD SVG 1.1//EN"
 "http://www.w3.org/Graphics/SVG/1.1/DTD/svg11.dtd">
<!-- Generated by graphviz version 2.43.0 (0)
 -->
<!-- Title: Guildmaster.Game.Session.Net.RunStateBroadcast Pages: 1 -->
<svg width="155pt" height="198pt"
 viewBox="0.00 0.00 155.00 198.00" xmlns="http://www.w3.org/2000/svg" xmlns:xlink="http://www.w3.org/1999/xlink">

<svg id="main" version="1.1" xmlns="http://www.w3.org/2000/svg" xmlns:xlink="http://www.w3.org/1999/xlink" xml:space="preserve" onload="init(evt)">
<style type="text/css"><![CDATA[
.node, .edge {opacity: 0.7;}
.node.selected, .edge.selected {opacity: 1;}
.edge:hover path { stroke: red; }
.edge:hover polygon { stroke: red; fill: red; }
]]></style>
<script type="application/ecmascript" xlink:href="svg.min.js"/>
<svg id="graph" class="graph">
<g id="graph0" class="graph" transform="scale(1 1) rotate(0) translate(4 194)">
<title>Guildmaster.Game.Session.Net.RunStateBroadcast</title>
<!-- Node1 -->
<g id="Node000001" class="node">
<title>Node1</title>
<g id="a_Node000001"><a xlink:title="Владельческая половина коопа на уровне забега: раздаёт гостям состояние снимком и принимает от них ин...">
<polygon fill="#999999" stroke="transparent" points="146,-105 0,-105 0,0 146,0 146,-105"/>
<text text-anchor="start" x="5" y="-92.5" font-family="Helvetica,sans-Serif" font-size="10.00">Guildmaster.Game.Session.</text>
<text text-anchor="start" x="16" y="-81.5" font-family="Helvetica,sans-Serif" font-size="10.00">Net.RunStateBroadcast</text>
<text text-anchor="start" x="10" y="-66.5" font-family="Helvetica,sans-Serif" font-size="10.00">+</text>
<text text-anchor="start" x="29" y="-66.5" font-family="Helvetica,sans-Serif" font-size="10.00">SnapshotsSent</text>
<text text-anchor="start" x="10" y="-51.5" font-family="Helvetica,sans-Serif" font-size="10.00">+</text>
<text text-anchor="start" x="29" y="-51.5" font-family="Helvetica,sans-Serif" font-size="10.00">IntentsAccepted</text>
<text text-anchor="start" x="10" y="-36.5" font-family="Helvetica,sans-Serif" font-size="10.00">+</text>
<text text-anchor="start" x="29" y="-36.5" font-family="Helvetica,sans-Serif" font-size="10.00">RunStateBroadcast()</text>
<text text-anchor="start" x="10" y="-21.5" font-family="Helvetica,sans-Serif" font-size="10.00">+</text>
<text text-anchor="start" x="29" y="-21.5" font-family="Helvetica,sans-Serif" font-size="10.00">Tick()</text>
<text text-anchor="start" x="10" y="-6.5" font-family="Helvetica,sans-Serif" font-size="10.00">+</text>
<text text-anchor="start" x="29" y="-6.5" font-family="Helvetica,sans-Serif" font-size="10.00">Dispose()</text>
<polygon fill="#666666" stroke="#666666" points="0,-76.5 0,-76.5 146,-76.5 146,-76.5 0,-76.5"/>
<polygon fill="#666666" stroke="#666666" points="0,-46.5 0,-46.5 27,-46.5 27,-46.5 0,-46.5"/>
<polygon fill="#666666" stroke="#666666" points="27,-46.5 27,-46.5 146,-46.5 146,-46.5 27,-46.5"/>
<polygon fill="none" stroke="#666666" points="0,0 0,-105 146,-105 146,0 0,0"/>
</a>
</g>
</g>
<!-- Node2 -->
<g id="Node000002" class="node">
<title>Node2</title>
<g id="a_Node000002"><a xlink:title=" ">
<polygon fill="white" stroke="transparent" points="61,-190 7,-190 7,-141 61,-141 61,-190"/>
<text text-anchor="start" x="12" y="-177.5" font-family="Helvetica,sans-Serif" font-size="10.00">ITickable</text>
<text text-anchor="start" x="32" y="-162.5" font-family="Helvetica,sans-Serif" font-size="10.00"> </text>
<text text-anchor="start" x="32" y="-147.5" font-family="Helvetica,sans-Serif" font-size="10.00"> </text>
<polygon fill="#666666" stroke="#666666" points="7,-172.5 7,-172.5 61,-172.5 61,-172.5 7,-172.5"/>
<polygon fill="#666666" stroke="#666666" points="7,-157.5 7,-157.5 61,-157.5 61,-157.5 7,-157.5"/>
<polygon fill="none" stroke="#666666" points="7,-141 7,-190 61,-190 61,-141 7,-141"/>
</a>
</g>
</g>
<!-- Node2&#45;&gt;Node1 -->
<g id="edge1_Node000001_Node000002" class="edge">
<title>Node2&#45;&gt;Node1</title>
<g id="a_edge1_Node000001_Node000002"><a xlink:title=" ">
<path fill="none" stroke="#63b8ff" d="M45.63,-131.4C48.52,-123.19 51.68,-114.19 54.79,-105.32"/>
<polygon fill="none" stroke="#63b8ff" points="42.28,-130.36 42.27,-140.96 48.89,-132.69 42.28,-130.36"/>
</a>
</g>
</g>
<!-- Node3 -->
<g id="Node000003" class="node">
<title>Node3</title>
<g id="a_Node000003"><a xlink:title=" ">
<polygon fill="white" stroke="transparent" points="147,-190 79,-190 79,-141 147,-141 147,-190"/>
<text text-anchor="start" x="84" y="-177.5" font-family="Helvetica,sans-Serif" font-size="10.00">IDisposable</text>
<text text-anchor="start" x="111" y="-162.5" font-family="Helvetica,sans-Serif" font-size="10.00"> </text>
<text text-anchor="start" x="111" y="-147.5" font-family="Helvetica,sans-Serif" font-size="10.00"> </text>
<polygon fill="#666666" stroke="#666666" points="79,-172.5 79,-172.5 147,-172.5 147,-172.5 79,-172.5"/>
<polygon fill="#666666" stroke="#666666" points="79,-157.5 79,-157.5 147,-157.5 147,-157.5 79,-157.5"/>
<polygon fill="none" stroke="#666666" points="79,-141 79,-190 147,-190 147,-141 79,-141"/>
</a>
</g>
</g>
<!-- Node3&#45;&gt;Node1 -->
<g id="edge2_Node000001_Node000003" class="edge">
<title>Node3&#45;&gt;Node1</title>
<g id="a_edge2_Node000001_Node000003"><a xlink:title=" ">
<path fill="none" stroke="#63b8ff" d="M101.07,-131.4C98.11,-123.19 94.87,-114.19 91.68,-105.32"/>
<polygon fill="none" stroke="#63b8ff" points="97.83,-132.74 104.52,-140.96 104.42,-130.37 97.83,-132.74"/>
</a>
</g>
</g>
</g>
</svg>
</svg>

<style type='text/css'>
<![CDATA[
[data-mouse-over-selected='false'] { opacity: 0.7; }
[data-mouse-over-selected='true']  { opacity: 1.0; }
]]>
</style>
<script type="application/ecmascript"><![CDATA[
document.addEventListener('DOMContentLoaded', (event) => {
  highlightEdges();
  highlightAdjacentNodes();
});
]]></script>
</svg>
