<?xml version="1.0" encoding="UTF-8" standalone="no"?>
<!DOCTYPE svg PUBLIC "-//W3C//DTD SVG 1.1//EN"
 "http://www.w3.org/Graphics/SVG/1.1/DTD/svg11.dtd">
<!-- Generated by graphviz version 2.43.0 (0)
 -->
<!-- Title: Guildmaster.Core.Random.XorShiftRng.NextUInt Pages: 1 -->
<svg width="524pt" height="110pt"
 viewBox="0.00 0.00 524.00 110.00" xmlns="http://www.w3.org/2000/svg" xmlns:xlink="http://www.w3.org/1999/xlink">
<g id="graph0" class="graph" transform="scale(1 1) rotate(0) translate(4 106)">
<title>Guildmaster.Core.Random.XorShiftRng.NextUInt</title>
<!-- Node1 -->
<g id="Node000001" class="node">
<title>Node1</title>
<g id="a_Node000001"><a xlink:title="Следующее 32&#45;битное беззнаковое значение. Базовая операция генератора.">
<polygon fill="#999999" stroke="#666666" points="516,-54 368,-54 368,-24 516,-24 516,-54"/>
<text text-anchor="start" x="376" y="-42" font-family="Helvetica,sans-Serif" font-size="10.00">Guildmaster.Core.Random.</text>
<text text-anchor="middle" x="442" y="-31" font-family="Helvetica,sans-Serif" font-size="10.00">XorShiftRng.NextUInt</text>
</a>
</g>
</g>
<!-- Node2 -->
<g id="Node000002" class="node">
<title>Node2</title>
<g id="a_Node000002"><a xlink:href="classGuildmaster_1_1Core_1_1Random_1_1XorShiftRng.html#a49fe920d86ded5ba28dc7c0dca9233d0" target="_top" xlink:title="Случайный float в полуинтервале [0, 1).">
<polygon fill="white" stroke="#666666" points="332,-78 184,-78 184,-48 332,-48 332,-78"/>
<text text-anchor="start" x="192" y="-66" font-family="Helvetica,sans-Serif" font-size="10.00">Guildmaster.Core.Random.</text>
<text text-anchor="middle" x="258" y="-55" font-family="Helvetica,sans-Serif" font-size="10.00">XorShiftRng.NextFloat</text>
</a>
</g>
</g>
<!-- Node1&#45;&gt;Node2 -->
<g id="edge1_Node000001_Node000002" class="edge">
<title>Node1&#45;&gt;Node2</title>
<g id="a_edge1_Node000001_Node000002"><a xlink:title=" ">
<path fill="none" stroke="#63b8ff" d="M357.76,-49.98C349.2,-51.11 340.54,-52.25 332.09,-53.36"/>
<polygon fill="#63b8ff" stroke="#63b8ff" points="358.3,-53.44 367.76,-48.66 357.39,-46.5 358.3,-53.44"/>
</a>
</g>
</g>
<!-- Node5 -->
<g id="Node000005" class="node">
<title>Node5</title>
<g id="a_Node000005"><a xlink:href="classGuildmaster_1_1Core_1_1Random_1_1XorShiftRng.html#a0f6c4dd3c968a04245f5e459d7c8946d" target="_top" xlink:title="Случайное целое в полуинтервале [minInclusive, maxExclusive).">
<polygon fill="white" stroke="#666666" points="332,-30 184,-30 184,0 332,0 332,-30"/>
<text text-anchor="start" x="192" y="-18" font-family="Helvetica,sans-Serif" font-size="10.00">Guildmaster.Core.Random.</text>
<text text-anchor="middle" x="258" y="-7" font-family="Helvetica,sans-Serif" font-size="10.00">XorShiftRng.NextInt</text>
</a>
</g>
</g>
<!-- Node1&#45;&gt;Node5 -->
<g id="edge4_Node000001_Node000005" class="edge">
<title>Node1&#45;&gt;Node5</title>
<g id="a_edge4_Node000001_Node000005"><a xlink:title=" ">
<path fill="none" stroke="#63b8ff" d="M357.76,-28.02C349.2,-26.89 340.54,-25.75 332.09,-24.64"/>
<polygon fill="#63b8ff" stroke="#63b8ff" points="357.39,-31.5 367.76,-29.34 358.3,-24.56 357.39,-31.5"/>
</a>
</g>
</g>
<!-- Node3 -->
<g id="Node000003" class="node">
<title>Node3</title>
<g id="a_Node000003"><a xlink:href="classGuildmaster_1_1Core_1_1Random_1_1XorShiftRng.html#a9745484bda472de96319ad3300fbda04" target="_top" xlink:title="Бросок с вероятностью probability &#160;(клампится в [0, 1]).">
<polygon fill="white" stroke="#666666" points="148,-102 0,-102 0,-72 148,-72 148,-102"/>
<text text-anchor="start" x="8" y="-90" font-family="Helvetica,sans-Serif" font-size="10.00">Guildmaster.Core.Random.</text>
<text text-anchor="middle" x="74" y="-79" font-family="Helvetica,sans-Serif" font-size="10.00">XorShiftRng.Chance</text>
</a>
</g>
</g>
<!-- Node2&#45;&gt;Node3 -->
<g id="edge2_Node000002_Node000003" class="edge">
<title>Node2&#45;&gt;Node3</title>
<g id="a_edge2_Node000002_Node000003"><a xlink:title=" ">
<path fill="none" stroke="#63b8ff" d="M173.76,-73.98C165.2,-75.11 156.54,-76.25 148.09,-77.36"/>
<polygon fill="#63b8ff" stroke="#63b8ff" points="174.3,-77.44 183.76,-72.66 173.39,-70.5 174.3,-77.44"/>
</a>
</g>
</g>
<!-- Node4 -->
<g id="Node000004" class="node">
<title>Node4</title>
<g id="a_Node000004"><a xlink:href="classGuildmaster_1_1Core_1_1Random_1_1XorShiftRng.html#ad27d26ac527e0a02ecd473997c2e7206" target="_top" xlink:title="Случайный float в полуинтервале [minInclusive, maxExclusive).">
<polygon fill="white" stroke="#666666" points="148,-54 0,-54 0,-24 148,-24 148,-54"/>
<text text-anchor="start" x="8" y="-42" font-family="Helvetica,sans-Serif" font-size="10.00">Guildmaster.Core.Random.</text>
<text text-anchor="middle" x="74" y="-31" font-family="Helvetica,sans-Serif" font-size="10.00">XorShiftRng.NextFloat</text>
</a>
</g>
</g>
<!-- Node2&#45;&gt;Node4 -->
<g id="edge3_Node000002_Node000004" class="edge">
<title>Node2&#45;&gt;Node4</title>
<g id="a_edge3_Node000002_Node000004"><a xlink:title=" ">
<path fill="none" stroke="#63b8ff" d="M173.76,-52.02C165.2,-50.89 156.54,-49.75 148.09,-48.64"/>
<polygon fill="#63b8ff" stroke="#63b8ff" points="173.39,-55.5 183.76,-53.34 174.3,-48.56 173.39,-55.5"/>
</a>
</g>
</g>
</g>
</svg>
