<?xml version="1.0" encoding="UTF-8" standalone="no"?>
<!DOCTYPE svg PUBLIC "-//W3C//DTD SVG 1.1//EN"
 "http://www.w3.org/Graphics/SVG/1.1/DTD/svg11.dtd">
<!-- Generated by graphviz version 2.43.0 (0)
 -->
<!-- Title: Guildmaster.Combat.Effects.Components.DispelComponent Pages: 1 -->
<svg width="170pt" height="268pt"
 viewBox="0.00 0.00 170.00 268.00" xmlns="http://www.w3.org/2000/svg" xmlns:xlink="http://www.w3.org/1999/xlink">

<svg id="main" version="1.1" xmlns="http://www.w3.org/2000/svg" xmlns:xlink="http://www.w3.org/1999/xlink" xml:space="preserve" onload="init(evt)">
<style type="text/css"><![CDATA[
.node, .edge {opacity: 0.7;}
.node.selected, .edge.selected {opacity: 1;}
.edge:hover path { stroke: red; }
.edge:hover polygon { stroke: red; fill: red; }
]]></style>
<script type="application/ecmascript" xlink:href="svg.min.js"/>
<svg id="graph" class="graph">
<g id="graph0" class="graph" transform="scale(1 1) rotate(0) translate(4 264)">
<title>Guildmaster.Combat.Effects.Components.DispelComponent</title>
<!-- Node1 -->
<g id="Node000001" class="node">
<title>Node1</title>
<g id="a_Node000001"><a xlink:title="Диспел: при наложении снимает с носителя подходящие эффекты (вики «6» §5.4).">
<polygon fill="#999999" stroke="transparent" points="162,-75 0,-75 0,0 162,0 162,-75"/>
<text text-anchor="start" x="5" y="-62.5" font-family="Helvetica,sans-Serif" font-size="10.00">Guildmaster.Combat.Effects.</text>
<text text-anchor="start" x="5" y="-51.5" font-family="Helvetica,sans-Serif" font-size="10.00">Components.DispelComponent</text>
<text text-anchor="start" x="79" y="-36.5" font-family="Helvetica,sans-Serif" font-size="10.00"> </text>
<text text-anchor="start" x="26" y="-21.5" font-family="Helvetica,sans-Serif" font-size="10.00">+</text>
<text text-anchor="start" x="61" y="-21.5" font-family="Helvetica,sans-Serif" font-size="10.00">OnApply()</text>
<text text-anchor="start" x="26" y="-6.5" font-family="Helvetica,sans-Serif" font-size="10.00">+</text>
<text text-anchor="start" x="61" y="-6.5" font-family="Helvetica,sans-Serif" font-size="10.00">OnExpire()</text>
<polygon fill="#666666" stroke="#666666" points="0,-46.5 0,-46.5 162,-46.5 162,-46.5 0,-46.5"/>
<polygon fill="#666666" stroke="#666666" points="0,-31.5 0,-31.5 162,-31.5 162,-31.5 0,-31.5"/>
<polygon fill="none" stroke="#666666" points="0,0 0,-75 162,-75 162,0 0,0"/>
</a>
</g>
</g>
<!-- Node2 -->
<g id="Node000002" class="node">
<title>Node2</title>
<g id="a_Node000002"><a xlink:href="interfaceGuildmaster_1_1Combat_1_1Effects_1_1IRuntimeEffectComponent.html" target="_top" xlink:title="Рантайм&#45;контракт поведения эффекта.">
<polygon fill="white" stroke="transparent" points="150.5,-175 11.5,-175 11.5,-111 150.5,-111 150.5,-175"/>
<text text-anchor="start" x="17" y="-163" font-family="Helvetica,sans-Serif" font-size="10.00">IRuntimeEffectComponent</text>
<text text-anchor="start" x="79.5" y="-148" font-family="Helvetica,sans-Serif" font-size="10.00"> </text>
<text text-anchor="start" x="32.5" y="-133" font-family="Helvetica,sans-Serif" font-size="10.00">+</text>
<text text-anchor="start" x="62" y="-133" font-family="Helvetica,sans-Serif" font-size="10.00">OnApply()</text>
<text text-anchor="start" x="32.5" y="-118" font-family="Helvetica,sans-Serif" font-size="10.00">+</text>
<text text-anchor="start" x="62" y="-118" font-family="Helvetica,sans-Serif" font-size="10.00">OnExpire()</text>
<polygon fill="#666666" stroke="#666666" points="12,-158 12,-158 151,-158 151,-158 12,-158"/>
<polygon fill="#666666" stroke="#666666" points="12,-143 12,-143 151,-143 151,-143 12,-143"/>
<polygon fill="none" stroke="#666666" points="11.5,-111 11.5,-175 150.5,-175 150.5,-111 11.5,-111"/>
</a>
</g>
</g>
<!-- Node2&#45;&gt;Node1 -->
<g id="edge1_Node000001_Node000002" class="edge">
<title>Node2&#45;&gt;Node1</title>
<g id="a_edge1_Node000001_Node000002"><a xlink:title=" ">
<path fill="none" stroke="#63b8ff" d="M81,-100.92C81,-92.48 81,-83.65 81,-75.37"/>
<polygon fill="none" stroke="#63b8ff" points="77.5,-100.95 81,-110.95 84.5,-100.95 77.5,-100.95"/>
</a>
</g>
</g>
<!-- Node3 -->
<g id="Node000003" class="node">
<title>Node3</title>
<g id="a_Node000003"><a xlink:href="interfaceGuildmaster_1_1Data_1_1Definitions_1_1IEffectComponent.html" target="_top" xlink:title="Якорь полиморфного поведения эффекта для сериализации.">
<polygon fill="white" stroke="transparent" points="130,-260 32,-260 32,-211 130,-211 130,-260"/>
<text text-anchor="start" x="37" y="-247.5" font-family="Helvetica,sans-Serif" font-size="10.00">IEffectComponent</text>
<text text-anchor="start" x="79" y="-232.5" font-family="Helvetica,sans-Serif" font-size="10.00"> </text>
<text text-anchor="start" x="79" y="-217.5" font-family="Helvetica,sans-Serif" font-size="10.00"> </text>
<polygon fill="#666666" stroke="#666666" points="32,-242.5 32,-242.5 130,-242.5 130,-242.5 32,-242.5"/>
<polygon fill="#666666" stroke="#666666" points="32,-227.5 32,-227.5 130,-227.5 130,-227.5 32,-227.5"/>
<polygon fill="none" stroke="#666666" points="32,-211 32,-260 130,-260 130,-211 32,-211"/>
</a>
</g>
</g>
<!-- Node3&#45;&gt;Node2 -->
<g id="edge2_Node000002_Node000003" class="edge">
<title>Node3&#45;&gt;Node2</title>
<g id="a_edge2_Node000002_Node000003"><a xlink:title=" ">
<path fill="none" stroke="#63b8ff" d="M81,-200.54C81,-192.2 81,-183.31 81,-175.11"/>
<polygon fill="none" stroke="#63b8ff" points="77.5,-200.72 81,-210.72 84.5,-200.72 77.5,-200.72"/>
</a>
</g>
</g>
</g>
</svg>
</svg>

<style type='text/css'>
<![CDATA[
[data-mouse-over-selected='false'] { opacity: 0.7; }
[data-mouse-over-selected='true']  { opacity: 1.0; }
]]>
</style>
<script type="application/ecmascript"><![CDATA[
document.addEventListener('DOMContentLoaded', (event) => {
  highlightEdges();
  highlightAdjacentNodes();
});
]]></script>
</svg>
