<?xml version="1.0" encoding="UTF-8" standalone="no"?>
<!DOCTYPE svg PUBLIC "-//W3C//DTD SVG 1.1//EN"
 "http://www.w3.org/Graphics/SVG/1.1/DTD/svg11.dtd">
<!-- Generated by graphviz version 2.43.0 (0)
 -->
<!-- Title: /home/runner/work/Guildmaster&#45;Autobattler/Guildmaster&#45;Autobattler/Assets/_Project/Scripts/Combat Pages: 1 -->
<!--zoomable 94 -->

<svg id="main" version="1.1" xmlns="http://www.w3.org/2000/svg" xmlns:xlink="http://www.w3.org/1999/xlink" xml:space="preserve" onload="init(evt)">
<style type="text/css"><![CDATA[
.node, .edge {opacity: 0.7;}
.node.selected, .edge.selected {opacity: 1;}
.edge:hover path { stroke: red; }
.edge:hover polygon { stroke: red; fill: red; }
]]></style>

<defs>
  <circle id="rim" cx="0" cy="0" r="7"/>
  <circle id="rim2" cx="0" cy="0" r="3.5"/>
  <g id="zoomPlus">
    <use xlink:href="#rim" fill="#404040"><set attributeName="fill" to="#808080" begin="zoomplus.mouseover" end="zoomplus.mouseout"/></use>
    <path d="M-4,0h8M0,-4v8" fill="none" stroke="white" stroke-width="1.5" pointer-events="none"/>
  </g>
  <g id="zoomMin">
    <use xlink:href="#rim" fill="#404040"><set attributeName="fill" to="#808080" begin="zoomminus.mouseover" end="zoomminus.mouseout"/></use>
    <path d="M-4,0h8" fill="none" stroke="white" stroke-width="1.5" pointer-events="none"/>
  </g>
  <g id="arrowUp" transform="translate(30 24)">
    <use xlink:href="#rim"/>
    <path pointer-events="none" fill="none" stroke="white" stroke-width="1.5" d="M0,-3.0v7 M-2.5,-0.5L0,-3.0L2.5,-0.5"/>
  </g>
  <g id="arrowRight" transform="rotate(90) translate(36 -43)">
    <use xlink:href="#rim"/>
    <path pointer-events="none" fill="none" stroke="white" stroke-width="1.5" d="M0,-3.0v7 M-2.5,-0.5L0,-3.0L2.5,-0.5"/>
  </g>
  <g id="arrowDown" transform="rotate(180) translate(-30 -48)">
    <use xlink:href="#rim"/>
    <path pointer-events="none" fill="none" stroke="white" stroke-width="1.5" d="M0,-3.0v7 M-2.5,-0.5L0,-3.0L2.5,-0.5"/>
  </g>
  <g id="arrowLeft" transform="rotate(270) translate(-36 17)">
    <use xlink:href="#rim"/>
    <path pointer-events="none" fill="none" stroke="white" stroke-width="1.5" d="M0,-3.0v7 M-2.5,-0.5L0,-3.0L2.5,-0.5"/>
  </g>
  <g id="resetDef">
    <use xlink:href="#rim2" fill="#404040"><set attributeName="fill" to="#808080" begin="reset.mouseover" end="reset.mouseout"/></use>
  </g>
</defs>
<script type="application/ecmascript">
var viewWidth = 771;
var viewHeight = 94;
var sectionId = 'dynsection-0';
</script>
<script type="application/ecmascript" xlink:href="svg.min.js"/>
<svg id="graph" class="graph">
<g id="viewport">
<title>/home/runner/work/Guildmaster&#45;Autobattler/Guildmaster&#45;Autobattler/Assets/_Project/Scripts/Combat</title>
<g id="clust1" class="cluster">
<title>clusterdir_860f14a42753bbe44e0d26e0f40689a7</title>
<g id="a_clust1"><a xlink:href="dir_860f14a42753bbe44e0d26e0f40689a7.html" target="_top" xlink:title="Scripts">
<polygon fill="#edf0f7" stroke="#7f7f7f" stroke-dasharray="5,2" points="8,-8 8,-78 755,-78 755,-8 8,-8"/>
<text text-anchor="middle" x="381.5" y="-66" font-family="Helvetica,sans-Serif" font-size="10.00">Scripts</text>
</a>
</g>
</g>
<g id="clust2" class="cluster">
<title>clusterdir_d99206649dda55290c93cd96e1da529d</title>
<g id="a_clust2"><a xlink:href="dir_d99206649dda55290c93cd96e1da529d.html" target="_top">
<polygon fill="#edf0f7" stroke="#404040" stroke-width="2" points="16,-16 16,-51 747,-51 747,-16 16,-16"/>
</a>
</g>
</g>
<!-- dir_d99206649dda55290c93cd96e1da529d -->
<g id="node1" class="node">
<title>dir_d99206649dda55290c93cd96e1da529d</title>
<text text-anchor="middle" x="711" y="-31" font-family="Helvetica,sans-Serif" font-size="10.00">Combat</text>
</g>
<!-- dir_908918f16232b615d41264349df61667 -->
<g id="node2" class="node">
<title>dir_908918f16232b615d41264349df61667</title>
<g id="a_node2"><a xlink:href="dir_908918f16232b615d41264349df61667.html" target="_top" xlink:title="Abilities">
<polygon fill="#a2b4d6" stroke="#404040" points="665,-43 609,-43 609,-24 665,-24 665,-43"/>
<text text-anchor="middle" x="637" y="-31" font-family="Helvetica,sans-Serif" font-size="10.00">Abilities</text>
</a>
</g>
</g>
<!-- dir_f92eef9efc405f9dd6a09a857d45c7a8 -->
<g id="node3" class="node">
<title>dir_f92eef9efc405f9dd6a09a857d45c7a8</title>
<g id="a_node3"><a xlink:href="dir_f92eef9efc405f9dd6a09a857d45c7a8.html" target="_top" xlink:title="Commands">
<polygon fill="#a2b4d6" stroke="#404040" points="591,-43 519,-43 519,-24 591,-24 591,-43"/>
<text text-anchor="middle" x="555" y="-31" font-family="Helvetica,sans-Serif" font-size="10.00">Commands</text>
</a>
</g>
</g>
<!-- dir_e80b8e8cd9ca7f79e523b9f9f230605f -->
<g id="node4" class="node">
<title>dir_e80b8e8cd9ca7f79e523b9f9f230605f</title>
<g id="a_node4"><a xlink:href="dir_e80b8e8cd9ca7f79e523b9f9f230605f.html" target="_top" xlink:title="Damage">
<polygon fill="#a2b4d6" stroke="#404040" points="501,-43 443,-43 443,-24 501,-24 501,-43"/>
<text text-anchor="middle" x="472" y="-31" font-family="Helvetica,sans-Serif" font-size="10.00">Damage</text>
</a>
</g>
</g>
<!-- dir_779d45bb6b17da5ef87df72129400af4 -->
<g id="node5" class="node">
<title>dir_779d45bb6b17da5ef87df72129400af4</title>
<g id="a_node5"><a xlink:href="dir_779d45bb6b17da5ef87df72129400af4.html" target="_top" xlink:title="Effects">
<polygon fill="#a2b4d6" stroke="#404040" points="425,-43 375,-43 375,-24 425,-24 425,-43"/>
<text text-anchor="middle" x="400" y="-31" font-family="Helvetica,sans-Serif" font-size="10.00">Effects</text>
</a>
</g>
</g>
<!-- dir_cf6ede57dbaa08d91a9064c82ed1b093 -->
<g id="node6" class="node">
<title>dir_cf6ede57dbaa08d91a9064c82ed1b093</title>
<g id="a_node6"><a xlink:href="dir_cf6ede57dbaa08d91a9064c82ed1b093.html" target="_top" xlink:title="Projectiles">
<polygon fill="#a2b4d6" stroke="#404040" points="357,-43 289,-43 289,-24 357,-24 357,-43"/>
<text text-anchor="middle" x="323" y="-31" font-family="Helvetica,sans-Serif" font-size="10.00">Projectiles</text>
</a>
</g>
</g>
<!-- dir_7cafc53fe972ffb89190ae9876e56a52 -->
<g id="node7" class="node">
<title>dir_7cafc53fe972ffb89190ae9876e56a52</title>
<g id="a_node7"><a xlink:href="dir_7cafc53fe972ffb89190ae9876e56a52.html" target="_top" xlink:title="Spatial">
<polygon fill="#a2b4d6" stroke="#404040" points="271,-43 221,-43 221,-24 271,-24 271,-43"/>
<text text-anchor="middle" x="246" y="-31" font-family="Helvetica,sans-Serif" font-size="10.00">Spatial</text>
</a>
</g>
</g>
<!-- dir_bcc092637ff898cce985bff9089478a3 -->
<g id="node8" class="node">
<title>dir_bcc092637ff898cce985bff9089478a3</title>
<g id="a_node8"><a xlink:href="dir_bcc092637ff898cce985bff9089478a3.html" target="_top" xlink:title="Stats">
<polygon fill="#a2b4d6" stroke="#404040" points="202.5,-43 161.5,-43 161.5,-24 202.5,-24 202.5,-43"/>
<text text-anchor="middle" x="182" y="-31" font-family="Helvetica,sans-Serif" font-size="10.00">Stats</text>
</a>
</g>
</g>
<!-- dir_b1358c9c8208c44d84f14715b5e7022c -->
<g id="node9" class="node">
<title>dir_b1358c9c8208c44d84f14715b5e7022c</title>
<g id="a_node9"><a xlink:href="dir_b1358c9c8208c44d84f14715b5e7022c.html" target="_top" xlink:title="Systems">
<polygon fill="#a2b4d6" stroke="#404040" points="143.5,-43 84.5,-43 84.5,-24 143.5,-24 143.5,-43"/>
<text text-anchor="middle" x="114" y="-31" font-family="Helvetica,sans-Serif" font-size="10.00">Systems</text>
</a>
</g>
</g>
<!-- dir_2d1f8d64b5b7dc090b910ae3fd54dc94 -->
<g id="node10" class="node">
<title>dir_2d1f8d64b5b7dc090b910ae3fd54dc94</title>
<g id="a_node10"><a xlink:href="dir_2d1f8d64b5b7dc090b910ae3fd54dc94.html" target="_top" xlink:title="Units">
<polygon fill="#a2b4d6" stroke="#404040" points="66,-43 24,-43 24,-24 66,-24 66,-43"/>
<text text-anchor="middle" x="45" y="-31" font-family="Helvetica,sans-Serif" font-size="10.00">Units</text>
</a>
</g>
</g>
</g>
</svg>

<g id="navigator" transform="translate(0 0)" fill="#404254">
  <rect fill="#f2f5e9" fill-opacity="0.5" stroke="#606060" stroke-width=".5" x="0" y="0" width="60" height="60"/>
  <use id="zoomplus" xlink:href="#zoomPlus" x="17" y="9" onmousedown="handleZoom(evt,'in')"/>
  <use id="zoomminus" xlink:href="#zoomMin" x="42" y="9" onmousedown="handleZoom(evt,'out')"/>
  <use id="reset" xlink:href="#resetDef" x="30" y="36" onmousedown="handleReset()"/>
   <use id="arrowup" xlink:href="#arrowUp" x="0" y="0" onmousedown="handlePan(0,-1)"/>
  <use id="arrowright" xlink:href="#arrowRight" x="0" y="0" onmousedown="handlePan(1,0)"/>
  <use id="arrowdown" xlink:href="#arrowDown" x="0" y="0" onmousedown="handlePan(0,1)"/>
  <use id="arrowleft" xlink:href="#arrowLeft" x="0" y="0" onmousedown="handlePan(-1,0)"/>
</g>
<svg viewBox="0 0 15 15" width="100%" height="30px" preserveAspectRatio="xMaxYMin meet">
 <g id="arrow_out" transform="scale(0.3 0.3)">
  <a xlink:href="dir_d99206649dda55290c93cd96e1da529d_dep_org.svg" target="_base">
   <rect id="button" ry="5" rx="5" y="6" x="6" height="38" width="38"
        fill="#f2f5e9" fill-opacity="0.5" stroke="#606060" stroke-width="1.0"/>
   <path id="arrow"
     d="M 11.500037,31.436501 C 11.940474,20.09759 22.043105,11.32322 32.158766,21.979434 L 37.068811,17.246167 C 37.068811,17.246167 37.088388,32 37.088388,32 L 22.160133,31.978069 C 22.160133,31.978069 26.997745,27.140456 26.997745,27.140456 C 18.528582,18.264221 13.291696,25.230495 11.500037,31.436501 z"
     style="fill:#404040;"/>
  </a>
 </g>
</svg>

<style type='text/css'>
<![CDATA[
[data-mouse-over-selected='false'] { opacity: 0.7; }
[data-mouse-over-selected='true']  { opacity: 1.0; }
]]>
</style>
<script type="application/ecmascript"><![CDATA[
document.addEventListener('DOMContentLoaded', (event) => {
  highlightEdges();
  highlightAdjacentNodes();
});
]]></script>
</svg>
