<?xml version="1.0" encoding="UTF-8" standalone="no"?>
<!DOCTYPE svg PUBLIC "-//W3C//DTD SVG 1.1//EN"
 "http://www.w3.org/Graphics/SVG/1.1/DTD/svg11.dtd">
<!-- Generated by graphviz version 2.43.0 (0)
 -->
<!-- Title: /home/runner/work/Guildmaster&#45;Autobattler/Guildmaster&#45;Autobattler/Assets/_Project/Scripts Pages: 1 -->
<!--zoomable 94 -->

<svg id="main" version="1.1" xmlns="http://www.w3.org/2000/svg" xmlns:xlink="http://www.w3.org/1999/xlink" xml:space="preserve" onload="init(evt)">
<style type="text/css"><![CDATA[
.node, .edge {opacity: 0.7;}
.node.selected, .edge.selected {opacity: 1;}
.edge:hover path { stroke: red; }
.edge:hover polygon { stroke: red; fill: red; }
]]></style>

<defs>
  <circle id="rim" cx="0" cy="0" r="7"/>
  <circle id="rim2" cx="0" cy="0" r="3.5"/>
  <g id="zoomPlus">
    <use xlink:href="#rim" fill="#404040"><set attributeName="fill" to="#808080" begin="zoomplus.mouseover" end="zoomplus.mouseout"/></use>
    <path d="M-4,0h8M0,-4v8" fill="none" stroke="white" stroke-width="1.5" pointer-events="none"/>
  </g>
  <g id="zoomMin">
    <use xlink:href="#rim" fill="#404040"><set attributeName="fill" to="#808080" begin="zoomminus.mouseover" end="zoomminus.mouseout"/></use>
    <path d="M-4,0h8" fill="none" stroke="white" stroke-width="1.5" pointer-events="none"/>
  </g>
  <g id="arrowUp" transform="translate(30 24)">
    <use xlink:href="#rim"/>
    <path pointer-events="none" fill="none" stroke="white" stroke-width="1.5" d="M0,-3.0v7 M-2.5,-0.5L0,-3.0L2.5,-0.5"/>
  </g>
  <g id="arrowRight" transform="rotate(90) translate(36 -43)">
    <use xlink:href="#rim"/>
    <path pointer-events="none" fill="none" stroke="white" stroke-width="1.5" d="M0,-3.0v7 M-2.5,-0.5L0,-3.0L2.5,-0.5"/>
  </g>
  <g id="arrowDown" transform="rotate(180) translate(-30 -48)">
    <use xlink:href="#rim"/>
    <path pointer-events="none" fill="none" stroke="white" stroke-width="1.5" d="M0,-3.0v7 M-2.5,-0.5L0,-3.0L2.5,-0.5"/>
  </g>
  <g id="arrowLeft" transform="rotate(270) translate(-36 17)">
    <use xlink:href="#rim"/>
    <path pointer-events="none" fill="none" stroke="white" stroke-width="1.5" d="M0,-3.0v7 M-2.5,-0.5L0,-3.0L2.5,-0.5"/>
  </g>
  <g id="resetDef">
    <use xlink:href="#rim2" fill="#404040"><set attributeName="fill" to="#808080" begin="reset.mouseover" end="reset.mouseout"/></use>
  </g>
</defs>
<script type="application/ecmascript">
var viewWidth = 587;
var viewHeight = 94;
var sectionId = 'dynsection-0';
</script>
<script type="application/ecmascript" xlink:href="svg.min.js"/>
<svg id="graph" class="graph">
<g id="viewport">
<title>/home/runner/work/Guildmaster&#45;Autobattler/Guildmaster&#45;Autobattler/Assets/_Project/Scripts</title>
<g id="clust1" class="cluster">
<title>clusterdir_a1bc300b05678a6de8ea3a33feb6fb14</title>
<g id="a_clust1"><a xlink:href="dir_a1bc300b05678a6de8ea3a33feb6fb14.html" target="_top" xlink:title="_Project">
<polygon fill="#edf0f7" stroke="#7f7f7f" stroke-dasharray="5,2" points="8,-8 8,-78 571,-78 571,-8 8,-8"/>
<text text-anchor="middle" x="289.5" y="-66" font-family="Helvetica,sans-Serif" font-size="10.00">_Project</text>
</a>
</g>
</g>
<g id="clust2" class="cluster">
<title>clusterdir_860f14a42753bbe44e0d26e0f40689a7</title>
<g id="a_clust2"><a xlink:href="dir_860f14a42753bbe44e0d26e0f40689a7.html" target="_top">
<polygon fill="#edf0f7" stroke="#404040" stroke-width="2" points="16,-16 16,-51 563,-51 563,-16 16,-16"/>
</a>
</g>
</g>
<!-- dir_860f14a42753bbe44e0d26e0f40689a7 -->
<g id="node1" class="node">
<title>dir_860f14a42753bbe44e0d26e0f40689a7</title>
<text text-anchor="middle" x="530" y="-31" font-family="Helvetica,sans-Serif" font-size="10.00">Scripts</text>
</g>
<!-- dir_d99206649dda55290c93cd96e1da529d -->
<g id="node2" class="node">
<title>dir_d99206649dda55290c93cd96e1da529d</title>
<g id="a_node2"><a xlink:href="dir_d99206649dda55290c93cd96e1da529d.html" target="_top" xlink:title="Combat">
<polygon fill="#a2b4d6" stroke="#404040" points="486.5,-43 431.5,-43 431.5,-24 486.5,-24 486.5,-43"/>
<text text-anchor="middle" x="459" y="-31" font-family="Helvetica,sans-Serif" font-size="10.00">Combat</text>
</a>
</g>
</g>
<!-- dir_17ebcc8b2f92f5f2036aadaf06f9fb72 -->
<g id="node3" class="node">
<title>dir_17ebcc8b2f92f5f2036aadaf06f9fb72</title>
<g id="a_node3"><a xlink:href="dir_17ebcc8b2f92f5f2036aadaf06f9fb72.html" target="_top" xlink:title="Core">
<polygon fill="#a2b4d6" stroke="#404040" points="413.5,-43 374.5,-43 374.5,-24 413.5,-24 413.5,-43"/>
<text text-anchor="middle" x="394" y="-31" font-family="Helvetica,sans-Serif" font-size="10.00">Core</text>
</a>
</g>
</g>
<!-- dir_f981a3ff40d3531226b4cd0ff8a1cdfe -->
<g id="node4" class="node">
<title>dir_f981a3ff40d3531226b4cd0ff8a1cdfe</title>
<g id="a_node4"><a xlink:href="dir_f981a3ff40d3531226b4cd0ff8a1cdfe.html" target="_top" xlink:title="Data">
<polygon fill="#a2b4d6" stroke="#404040" points="356,-43 316,-43 316,-24 356,-24 356,-43"/>
<text text-anchor="middle" x="336" y="-31" font-family="Helvetica,sans-Serif" font-size="10.00">Data</text>
</a>
</g>
</g>
<!-- dir_25f72b7e4bd8bccd4e0b9b06eef35bc3 -->
<g id="node5" class="node">
<title>dir_25f72b7e4bd8bccd4e0b9b06eef35bc3</title>
<g id="a_node5"><a xlink:href="dir_25f72b7e4bd8bccd4e0b9b06eef35bc3.html" target="_top" xlink:title="DevTools">
<polygon fill="#a2b4d6" stroke="#404040" points="297.5,-43 236.5,-43 236.5,-24 297.5,-24 297.5,-43"/>
<text text-anchor="middle" x="267" y="-31" font-family="Helvetica,sans-Serif" font-size="10.00">DevTools</text>
</a>
</g>
</g>
<!-- dir_2f29ab2b9a8f78205faf1e69f20a0b8f -->
<g id="node6" class="node">
<title>dir_2f29ab2b9a8f78205faf1e69f20a0b8f</title>
<g id="a_node6"><a xlink:href="dir_2f29ab2b9a8f78205faf1e69f20a0b8f.html" target="_top" xlink:title="Game">
<polygon fill="#a2b4d6" stroke="#404040" points="218,-43 172,-43 172,-24 218,-24 218,-43"/>
<text text-anchor="middle" x="195" y="-31" font-family="Helvetica,sans-Serif" font-size="10.00">Game</text>
</a>
</g>
</g>
<!-- dir_bccbb44daddaeb23cfbbe0d32baa83cb -->
<g id="node7" class="node">
<title>dir_bccbb44daddaeb23cfbbe0d32baa83cb</title>
<g id="a_node7"><a xlink:href="dir_bccbb44daddaeb23cfbbe0d32baa83cb.html" target="_top" xlink:title="Net">
<polygon fill="#a2b4d6" stroke="#404040" points="154,-43 120,-43 120,-24 154,-24 154,-43"/>
<text text-anchor="middle" x="137" y="-31" font-family="Helvetica,sans-Serif" font-size="10.00">Net</text>
</a>
</g>
</g>
<!-- dir_9c4489f7376784a5a639cc520f6e7ee8 -->
<g id="node8" class="node">
<title>dir_9c4489f7376784a5a639cc520f6e7ee8</title>
<g id="a_node8"><a xlink:href="dir_9c4489f7376784a5a639cc520f6e7ee8.html" target="_top" xlink:title="Presentation">
<polygon fill="#a2b4d6" stroke="#404040" points="102,-43 24,-43 24,-24 102,-24 102,-43"/>
<text text-anchor="middle" x="63" y="-31" font-family="Helvetica,sans-Serif" font-size="10.00">Presentation</text>
</a>
</g>
</g>
</g>
</svg>

<g id="navigator" transform="translate(0 0)" fill="#404254">
  <rect fill="#f2f5e9" fill-opacity="0.5" stroke="#606060" stroke-width=".5" x="0" y="0" width="60" height="60"/>
  <use id="zoomplus" xlink:href="#zoomPlus" x="17" y="9" onmousedown="handleZoom(evt,'in')"/>
  <use id="zoomminus" xlink:href="#zoomMin" x="42" y="9" onmousedown="handleZoom(evt,'out')"/>
  <use id="reset" xlink:href="#resetDef" x="30" y="36" onmousedown="handleReset()"/>
   <use id="arrowup" xlink:href="#arrowUp" x="0" y="0" onmousedown="handlePan(0,-1)"/>
  <use id="arrowright" xlink:href="#arrowRight" x="0" y="0" onmousedown="handlePan(1,0)"/>
  <use id="arrowdown" xlink:href="#arrowDown" x="0" y="0" onmousedown="handlePan(0,1)"/>
  <use id="arrowleft" xlink:href="#arrowLeft" x="0" y="0" onmousedown="handlePan(-1,0)"/>
</g>
<svg viewBox="0 0 15 15" width="100%" height="30px" preserveAspectRatio="xMaxYMin meet">
 <g id="arrow_out" transform="scale(0.3 0.3)">
  <a xlink:href="dir_860f14a42753bbe44e0d26e0f40689a7_dep_org.svg" target="_base">
   <rect id="button" ry="5" rx="5" y="6" x="6" height="38" width="38"
        fill="#f2f5e9" fill-opacity="0.5" stroke="#606060" stroke-width="1.0"/>
   <path id="arrow"
     d="M 11.500037,31.436501 C 11.940474,20.09759 22.043105,11.32322 32.158766,21.979434 L 37.068811,17.246167 C 37.068811,17.246167 37.088388,32 37.088388,32 L 22.160133,31.978069 C 22.160133,31.978069 26.997745,27.140456 26.997745,27.140456 C 18.528582,18.264221 13.291696,25.230495 11.500037,31.436501 z"
     style="fill:#404040;"/>
  </a>
 </g>
</svg>

<style type='text/css'>
<![CDATA[
[data-mouse-over-selected='false'] { opacity: 0.7; }
[data-mouse-over-selected='true']  { opacity: 1.0; }
]]>
</style>
<script type="application/ecmascript"><![CDATA[
document.addEventListener('DOMContentLoaded', (event) => {
  highlightEdges();
  highlightAdjacentNodes();
});
]]></script>
</svg>
