<?xml version="1.0" encoding="UTF-8" standalone="no"?>
<!DOCTYPE svg PUBLIC "-//W3C//DTD SVG 1.1//EN"
 "http://www.w3.org/Graphics/SVG/1.1/DTD/svg11.dtd">
<!-- Generated by graphviz version 2.43.0 (0)
 -->
<!-- Title: Graphical Class Hierarchy Pages: 1 -->
<svg width="325pt" height="412pt"
 viewBox="0.00 0.00 325.00 412.00" xmlns="http://www.w3.org/2000/svg" xmlns:xlink="http://www.w3.org/1999/xlink">
<g id="graph0" class="graph" transform="scale(1 1) rotate(0) translate(4 408)">
<title>Graphical Class Hierarchy</title>
<!-- Node0 -->
<g id="Node000000" class="node">
<title>Node0</title>
<g id="a_Node000000"><a xlink:title=" ">
<polygon fill="#e0e0e0" stroke="#999999" points="93,-216.5 0,-216.5 0,-197.5 93,-197.5 93,-216.5"/>
<text text-anchor="middle" x="46.5" y="-204.5" font-family="Helvetica,sans-Serif" font-size="10.00">MonoBehaviour</text>
</a>
</g>
</g>
<!-- Node1 -->
<g id="Node000001" class="node">
<title>Node1</title>
<g id="a_Node000001"><a xlink:href="classGuildmaster_1_1DevTools_1_1GuildmasterCommands.html" target="_top" xlink:title="Набор отладочных команд Quantum Console для Фазы 1 (вики «10» §9).">
<polygon fill="white" stroke="#666666" points="316,-404 130,-404 130,-374 316,-374 316,-404"/>
<text text-anchor="start" x="138" y="-392" font-family="Helvetica,sans-Serif" font-size="10.00">Guildmaster.DevTools.Guildmaster</text>
<text text-anchor="middle" x="223" y="-381" font-family="Helvetica,sans-Serif" font-size="10.00">Commands</text>
</a>
</g>
</g>
<!-- Node0&#45;&gt;Node1 -->
<g id="edge12_Node000000_Node000001" class="edge">
<title>Node0&#45;&gt;Node1</title>
<g id="a_edge12_Node000000_Node000001"><a xlink:title=" ">
<path fill="none" stroke="#63b8ff" d="M52,-226.5C60.79,-260.07 83.48,-328.68 129,-365 133.3,-368.43 138.04,-371.38 143.03,-373.91"/>
<polygon fill="#63b8ff" stroke="#63b8ff" points="55.34,-225.42 49.54,-216.55 48.55,-227.1 55.34,-225.42"/>
</a>
</g>
</g>
<!-- Node2 -->
<g id="Node000002" class="node">
<title>Node2</title>
<g id="a_Node000002"><a xlink:href="classGuildmaster_1_1Game_1_1GameBootstrap.html" target="_top" xlink:title="Точка старта: поднимает RootLifetimeScope и запускает GameFlow.BootAsync.">
<polygon fill="white" stroke="#666666" points="317,-355.5 129,-355.5 129,-336.5 317,-336.5 317,-355.5"/>
<text text-anchor="middle" x="223" y="-343.5" font-family="Helvetica,sans-Serif" font-size="10.00">Guildmaster.Game.GameBootstrap</text>
</a>
</g>
</g>
<!-- Node0&#45;&gt;Node2 -->
<g id="edge13_Node000000_Node000002" class="edge">
<title>Node0&#45;&gt;Node2</title>
<g id="a_edge13_Node000000_Node000002"><a xlink:title=" ">
<path fill="none" stroke="#63b8ff" d="M54.96,-226.16C66.53,-253.18 91.44,-301.97 129,-327 134.76,-330.84 141.13,-333.93 147.76,-336.41"/>
<polygon fill="#63b8ff" stroke="#63b8ff" points="58.1,-224.58 51.06,-216.65 51.62,-227.24 58.1,-224.58"/>
</a>
</g>
</g>
<!-- Node3 -->
<g id="Node000003" class="node">
<title>Node3</title>
<g id="a_Node000003"><a xlink:href="classGuildmaster_1_1Net_1_1FacepunchTransportBootstrap.html" target="_top" xlink:title="Инициализирует Steam через Facepunch.Steamworks и Netcode for GameObjects.">
<polygon fill="white" stroke="#666666" points="298,-318 148,-318 148,-288 298,-288 298,-318"/>
<text text-anchor="start" x="156" y="-306" font-family="Helvetica,sans-Serif" font-size="10.00">Guildmaster.Net.Facepunch</text>
<text text-anchor="middle" x="223" y="-295" font-family="Helvetica,sans-Serif" font-size="10.00">TransportBootstrap</text>
</a>
</g>
</g>
<!-- Node0&#45;&gt;Node3 -->
<g id="edge14_Node000000_Node000003" class="edge">
<title>Node0&#45;&gt;Node3</title>
<g id="a_edge14_Node000000_Node000003"><a xlink:title=" ">
<path fill="none" stroke="#63b8ff" d="M62.49,-224.3C77.66,-240.74 102.59,-264.98 129,-279 135.48,-282.44 142.48,-285.41 149.63,-287.96"/>
<polygon fill="#63b8ff" stroke="#63b8ff" points="64.78,-221.61 55.49,-216.51 59.57,-226.29 64.78,-221.61"/>
</a>
</g>
</g>
<!-- Node4 -->
<g id="Node000004" class="node">
<title>Node4</title>
<g id="a_Node000004"><a xlink:href="classGuildmaster_1_1Presentation_1_1CombatDebugDraw.html" target="_top" xlink:title="Debug&#45;слой боя на базе Shapes: spatial hash сетка, радиусы атак, снаряды.">
<polygon fill="white" stroke="#666666" points="294.5,-270 151.5,-270 151.5,-240 294.5,-240 294.5,-270"/>
<text text-anchor="start" x="159.5" y="-258" font-family="Helvetica,sans-Serif" font-size="10.00">Guildmaster.Presentation.</text>
<text text-anchor="middle" x="223" y="-247" font-family="Helvetica,sans-Serif" font-size="10.00">CombatDebugDraw</text>
</a>
</g>
</g>
<!-- Node0&#45;&gt;Node4 -->
<g id="edge15_Node000000_Node000004" class="edge">
<title>Node0&#45;&gt;Node4</title>
<g id="a_edge15_Node000000_Node000004"><a xlink:title=" ">
<path fill="none" stroke="#63b8ff" d="M89.08,-219.54C101.86,-223.31 115.99,-227.41 129,-231 139.77,-233.97 151.27,-237.04 162.39,-239.93"/>
<polygon fill="#63b8ff" stroke="#63b8ff" points="89.75,-216.09 79.17,-216.6 87.76,-222.8 89.75,-216.09"/>
</a>
</g>
</g>
<!-- Node5 -->
<g id="Node000005" class="node">
<title>Node5</title>
<g id="a_Node000005"><a xlink:href="classGuildmaster_1_1Presentation_1_1CombatPresenter.html" target="_top" xlink:title="Мост «симуляция → презентация».">
<polygon fill="white" stroke="#666666" points="294.5,-222 151.5,-222 151.5,-192 294.5,-192 294.5,-222"/>
<text text-anchor="start" x="159.5" y="-210" font-family="Helvetica,sans-Serif" font-size="10.00">Guildmaster.Presentation.</text>
<text text-anchor="middle" x="223" y="-199" font-family="Helvetica,sans-Serif" font-size="10.00">CombatPresenter</text>
</a>
</g>
</g>
<!-- Node0&#45;&gt;Node5 -->
<g id="edge16_Node000000_Node000005" class="edge">
<title>Node0&#45;&gt;Node5</title>
<g id="a_edge16_Node000000_Node000005"><a xlink:title=" ">
<path fill="none" stroke="#63b8ff" d="M103.63,-207C118.86,-207 135.55,-207 151.46,-207"/>
<polygon fill="#63b8ff" stroke="#63b8ff" points="103.35,-203.5 93.35,-207 103.35,-210.5 103.35,-203.5"/>
</a>
</g>
</g>
<!-- Node6 -->
<g id="Node000006" class="node">
<title>Node6</title>
<g id="a_Node000006"><a xlink:href="classGuildmaster_1_1Presentation_1_1DamageNumber.html" target="_top" xlink:title="Один всплывающий элемент урона: базовый UI Text + цвет и альфа.">
<polygon fill="white" stroke="#666666" points="294.5,-174 151.5,-174 151.5,-144 294.5,-144 294.5,-174"/>
<text text-anchor="start" x="159.5" y="-162" font-family="Helvetica,sans-Serif" font-size="10.00">Guildmaster.Presentation.</text>
<text text-anchor="middle" x="223" y="-151" font-family="Helvetica,sans-Serif" font-size="10.00">DamageNumber</text>
</a>
</g>
</g>
<!-- Node0&#45;&gt;Node6 -->
<g id="edge17_Node000000_Node000006" class="edge">
<title>Node0&#45;&gt;Node6</title>
<g id="a_edge17_Node000000_Node000006"><a xlink:title=" ">
<path fill="none" stroke="#63b8ff" d="M89.08,-194.46C101.86,-190.69 115.99,-186.59 129,-183 139.77,-180.03 151.27,-176.96 162.39,-174.07"/>
<polygon fill="#63b8ff" stroke="#63b8ff" points="87.76,-191.2 79.17,-197.4 89.75,-197.91 87.76,-191.2"/>
</a>
</g>
</g>
<!-- Node7 -->
<g id="Node000007" class="node">
<title>Node7</title>
<g id="a_Node000007"><a xlink:href="classGuildmaster_1_1Presentation_1_1DamageNumberSpawner.html" target="_top" xlink:title="Всплывающие числа урона.">
<polygon fill="white" stroke="#666666" points="294.5,-126 151.5,-126 151.5,-96 294.5,-96 294.5,-126"/>
<text text-anchor="start" x="159.5" y="-114" font-family="Helvetica,sans-Serif" font-size="10.00">Guildmaster.Presentation.</text>
<text text-anchor="middle" x="223" y="-103" font-family="Helvetica,sans-Serif" font-size="10.00">DamageNumberSpawner</text>
</a>
</g>
</g>
<!-- Node0&#45;&gt;Node7 -->
<g id="edge18_Node000000_Node000007" class="edge">
<title>Node0&#45;&gt;Node7</title>
<g id="a_edge18_Node000000_Node000007"><a xlink:title=" ">
<path fill="none" stroke="#63b8ff" d="M62.49,-189.7C77.66,-173.26 102.59,-149.02 129,-135 135.92,-131.32 143.44,-128.19 151.09,-125.52"/>
<polygon fill="#63b8ff" stroke="#63b8ff" points="59.57,-187.71 55.49,-197.49 64.78,-192.39 59.57,-187.71"/>
</a>
</g>
</g>
<!-- Node8 -->
<g id="Node000008" class="node">
<title>Node8</title>
<g id="a_Node000008"><a xlink:href="classGuildmaster_1_1Presentation_1_1HealthBarView.html" target="_top" xlink:title="HP&#45;бар через масштаб fill&#45;объекта, без сторонних зависимостей.">
<polygon fill="white" stroke="#666666" points="294.5,-78 151.5,-78 151.5,-48 294.5,-48 294.5,-78"/>
<text text-anchor="start" x="159.5" y="-66" font-family="Helvetica,sans-Serif" font-size="10.00">Guildmaster.Presentation.</text>
<text text-anchor="middle" x="223" y="-55" font-family="Helvetica,sans-Serif" font-size="10.00">HealthBarView</text>
</a>
</g>
</g>
<!-- Node0&#45;&gt;Node8 -->
<g id="edge19_Node000000_Node000008" class="edge">
<title>Node0&#45;&gt;Node8</title>
<g id="a_edge19_Node000000_Node000008"><a xlink:title=" ">
<path fill="none" stroke="#63b8ff" d="M55.14,-188.1C66.92,-161.39 92.09,-112.98 129,-87 135.68,-82.3 143.21,-78.51 151.02,-75.47"/>
<polygon fill="#63b8ff" stroke="#63b8ff" points="51.84,-186.91 51.16,-197.48 58.28,-189.64 51.84,-186.91"/>
</a>
</g>
</g>
<!-- Node9 -->
<g id="Node000009" class="node">
<title>Node9</title>
<g id="a_Node000009"><a xlink:href="classGuildmaster_1_1Presentation_1_1UnitView.html" target="_top" xlink:title="World&#45;space визуальное представление RuntimeUnit.">
<polygon fill="white" stroke="#666666" points="294.5,-30 151.5,-30 151.5,0 294.5,0 294.5,-30"/>
<text text-anchor="start" x="159.5" y="-18" font-family="Helvetica,sans-Serif" font-size="10.00">Guildmaster.Presentation.</text>
<text text-anchor="middle" x="223" y="-7" font-family="Helvetica,sans-Serif" font-size="10.00">UnitView</text>
</a>
</g>
</g>
<!-- Node0&#45;&gt;Node9 -->
<g id="edge20_Node000000_Node000009" class="edge">
<title>Node0&#45;&gt;Node9</title>
<g id="a_edge20_Node000000_Node000009"><a xlink:title=" ">
<path fill="none" stroke="#63b8ff" d="M51.4,-187.26C59.44,-151.96 81.23,-78.09 129,-39 135.58,-33.61 143.23,-29.42 151.26,-26.16"/>
<polygon fill="#63b8ff" stroke="#63b8ff" points="47.93,-186.76 49.26,-197.27 54.78,-188.22 47.93,-186.76"/>
</a>
</g>
</g>
</g>
</svg>
