<?xml version="1.0" encoding="UTF-8" standalone="no"?>
<!DOCTYPE svg PUBLIC "-//W3C//DTD SVG 1.1//EN"
 "http://www.w3.org/Graphics/SVG/1.1/DTD/svg11.dtd">
<!-- Generated by graphviz version 2.43.0 (0)
 -->
<!-- Title: Graphical Class Hierarchy Pages: 1 -->
<svg width="342pt" height="76pt"
 viewBox="0.00 0.00 342.00 75.50" xmlns="http://www.w3.org/2000/svg" xmlns:xlink="http://www.w3.org/1999/xlink">
<g id="graph0" class="graph" transform="scale(1 1) rotate(0) translate(4 71.5)">
<title>Graphical Class Hierarchy</title>
<!-- Node0 -->
<g id="Node000000" class="node">
<title>Node0</title>
<g id="a_Node000000"><a xlink:title=" ">
<polygon fill="#e0e0e0" stroke="#999999" points="107,-40 0,-40 0,-21 107,-21 107,-40"/>
<text text-anchor="middle" x="53.5" y="-28" font-family="Helvetica,sans-Serif" font-size="10.00">NetworkBehaviour</text>
</a>
</g>
</g>
<!-- Node1 -->
<g id="Node000001" class="node">
<title>Node1</title>
<g id="a_Node000001"><a xlink:href="classGuildmaster_1_1Net_1_1NetworkCommandRelay.html" target="_top" xlink:title="Host&#45;authoritative реле команд симуляции.">
<polygon fill="white" stroke="#666666" points="334,-67.5 143,-67.5 143,-37.5 334,-37.5 334,-67.5"/>
<text text-anchor="start" x="151" y="-55.5" font-family="Helvetica,sans-Serif" font-size="10.00">Guildmaster.Net.NetworkCommand</text>
<text text-anchor="middle" x="238.5" y="-44.5" font-family="Helvetica,sans-Serif" font-size="10.00">Relay</text>
</a>
</g>
</g>
<!-- Node0&#45;&gt;Node1 -->
<g id="edge21_Node000000_Node000001" class="edge">
<title>Node0&#45;&gt;Node1</title>
<g id="a_edge21_Node000000_Node000001"><a xlink:title=" ">
<path fill="none" stroke="#63b8ff" d="M117.62,-38.09C125.83,-39.08 134.37,-40.1 142.96,-41.13"/>
<polygon fill="#63b8ff" stroke="#63b8ff" points="117.78,-34.58 107.43,-36.86 116.94,-41.53 117.78,-34.58"/>
</a>
</g>
</g>
<!-- Node2 -->
<g id="Node000002" class="node">
<title>Node2</title>
<g id="a_Node000002"><a xlink:href="classGuildmaster_1_1Net_1_1SimSyncProbe.html" target="_top" xlink:title="Периодически проверяет checksum симуляции между хостом и клиентами.">
<polygon fill="white" stroke="#666666" points="323,-19 154,-19 154,0 323,0 323,-19"/>
<text text-anchor="middle" x="238.5" y="-7" font-family="Helvetica,sans-Serif" font-size="10.00">Guildmaster.Net.SimSyncProbe</text>
</a>
</g>
</g>
<!-- Node0&#45;&gt;Node2 -->
<g id="edge22_Node000000_Node000002" class="edge">
<title>Node0&#45;&gt;Node2</title>
<g id="a_edge22_Node000000_Node000002"><a xlink:title=" ">
<path fill="none" stroke="#63b8ff" d="M117.71,-23.25C129.63,-21.88 142.27,-20.43 154.69,-19"/>
<polygon fill="#63b8ff" stroke="#63b8ff" points="116.97,-19.81 107.43,-24.43 117.77,-26.76 116.97,-19.81"/>
</a>
</g>
</g>
</g>
</svg>
