<?xml version="1.0" encoding="UTF-8" standalone="no"?>
<!DOCTYPE svg PUBLIC "-//W3C//DTD SVG 1.1//EN"
 "http://www.w3.org/Graphics/SVG/1.1/DTD/svg11.dtd">
<!-- Generated by graphviz version 2.43.0 (0)
 -->
<!-- Title: Graphical Class Hierarchy Pages: 1 -->
<svg width="302pt" height="182pt"
 viewBox="0.00 0.00 302.00 182.00" xmlns="http://www.w3.org/2000/svg" xmlns:xlink="http://www.w3.org/1999/xlink">
<g id="graph0" class="graph" transform="scale(1 1) rotate(0) translate(4 178)">
<title>Graphical Class Hierarchy</title>
<!-- Node0 -->
<g id="Node000000" class="node">
<title>Node0</title>
<g id="a_Node000000"><a xlink:title=" ">
<polygon fill="#e0e0e0" stroke="#999999" points="97,-96.5 0,-96.5 0,-77.5 97,-77.5 97,-96.5"/>
<text text-anchor="middle" x="48.5" y="-84.5" font-family="Helvetica,sans-Serif" font-size="10.00">ScriptableObject</text>
</a>
</g>
</g>
<!-- Node1 -->
<g id="Node000001" class="node">
<title>Node1</title>
<g id="a_Node000001"><a xlink:href="classGuildmaster_1_1Data_1_1Definitions_1_1EffectData.html" target="_top" xlink:title="Иммутабельное определение таймированного эффекта: идентичность, полярность, категориальные теги,...">
<polygon fill="white" stroke="#666666" points="294,-174 133,-174 133,-144 294,-144 294,-174"/>
<text text-anchor="start" x="141" y="-162" font-family="Helvetica,sans-Serif" font-size="10.00">Guildmaster.Data.Definitions.</text>
<text text-anchor="middle" x="213.5" y="-151" font-family="Helvetica,sans-Serif" font-size="10.00">EffectData</text>
</a>
</g>
</g>
<!-- Node0&#45;&gt;Node1 -->
<g id="edge37_Node000000_Node000001" class="edge">
<title>Node0&#45;&gt;Node1</title>
<g id="a_edge37_Node000000_Node000001"><a xlink:title=" ">
<path fill="none" stroke="#63b8ff" d="M72.59,-102.19C88.95,-112.48 111.7,-125.81 133,-135 140.55,-138.26 148.67,-141.25 156.75,-143.94"/>
<polygon fill="#63b8ff" stroke="#63b8ff" points="74.07,-98.98 63.76,-96.55 70.3,-104.88 74.07,-98.98"/>
</a>
</g>
</g>
<!-- Node2 -->
<g id="Node000002" class="node">
<title>Node2</title>
<g id="a_Node000002"><a xlink:href="classGuildmaster_1_1Data_1_1Definitions_1_1RelicData.html" target="_top" xlink:title="«Чемпион» — стат&#45;блок и боевые категории юнита.">
<polygon fill="white" stroke="#666666" points="294,-126 133,-126 133,-96 294,-96 294,-126"/>
<text text-anchor="start" x="141" y="-114" font-family="Helvetica,sans-Serif" font-size="10.00">Guildmaster.Data.Definitions.</text>
<text text-anchor="middle" x="213.5" y="-103" font-family="Helvetica,sans-Serif" font-size="10.00">RelicData</text>
</a>
</g>
</g>
<!-- Node0&#45;&gt;Node2 -->
<g id="edge38_Node000000_Node000002" class="edge">
<title>Node0&#45;&gt;Node2</title>
<g id="a_edge38_Node000000_Node000002"><a xlink:title=" ">
<path fill="none" stroke="#63b8ff" d="M107.1,-95.48C115.48,-96.72 124.24,-98 132.96,-99.29"/>
<polygon fill="#63b8ff" stroke="#63b8ff" points="107.49,-92 97.08,-94.01 106.47,-98.93 107.49,-92"/>
</a>
</g>
</g>
<!-- Node3 -->
<g id="Node000003" class="node">
<title>Node3</title>
<g id="a_Node000003"><a xlink:href="classGuildmaster_1_1Data_1_1Definitions_1_1StatsConfig.html" target="_top" xlink:title="Глобальный шаблон стат&#45;системы: дефолты статов + тюнинг&#45;константы пайплайна (armor&#45;константа,...">
<polygon fill="white" stroke="#666666" points="294,-78 133,-78 133,-48 294,-48 294,-78"/>
<text text-anchor="start" x="141" y="-66" font-family="Helvetica,sans-Serif" font-size="10.00">Guildmaster.Data.Definitions.</text>
<text text-anchor="middle" x="213.5" y="-55" font-family="Helvetica,sans-Serif" font-size="10.00">StatsConfig</text>
</a>
</g>
</g>
<!-- Node0&#45;&gt;Node3 -->
<g id="edge39_Node000000_Node000003" class="edge">
<title>Node0&#45;&gt;Node3</title>
<g id="a_edge39_Node000000_Node000003"><a xlink:title=" ">
<path fill="none" stroke="#63b8ff" d="M107.1,-78.52C115.48,-77.28 124.24,-76 132.96,-74.71"/>
<polygon fill="#63b8ff" stroke="#63b8ff" points="106.47,-75.07 97.08,-79.99 107.49,-82 106.47,-75.07"/>
</a>
</g>
</g>
<!-- Node4 -->
<g id="Node000004" class="node">
<title>Node4</title>
<g id="a_Node000004"><a xlink:href="classGuildmaster_1_1Data_1_1Definitions_1_1VesselData.html" target="_top" xlink:title="«Пилот» — носитель реликвии.">
<polygon fill="white" stroke="#666666" points="294,-30 133,-30 133,0 294,0 294,-30"/>
<text text-anchor="start" x="141" y="-18" font-family="Helvetica,sans-Serif" font-size="10.00">Guildmaster.Data.Definitions.</text>
<text text-anchor="middle" x="213.5" y="-7" font-family="Helvetica,sans-Serif" font-size="10.00">VesselData</text>
</a>
</g>
</g>
<!-- Node0&#45;&gt;Node4 -->
<g id="edge40_Node000000_Node000004" class="edge">
<title>Node0&#45;&gt;Node4</title>
<g id="a_edge40_Node000000_Node000004"><a xlink:title=" ">
<path fill="none" stroke="#63b8ff" d="M72.59,-71.81C88.95,-61.52 111.7,-48.19 133,-39 140.55,-35.74 148.67,-32.75 156.75,-30.06"/>
<polygon fill="#63b8ff" stroke="#63b8ff" points="70.3,-69.12 63.76,-77.45 74.07,-75.02 70.3,-69.12"/>
</a>
</g>
</g>
</g>
</svg>
