<?xml version="1.0" encoding="UTF-8" standalone="no"?>
<!DOCTYPE svg PUBLIC "-//W3C//DTD SVG 1.1//EN"
 "http://www.w3.org/Graphics/SVG/1.1/DTD/svg11.dtd">
<!-- Generated by graphviz version 2.43.0 (0)
 -->
<!-- Title: Graphical Class Hierarchy Pages: 1 -->
<svg width="320pt" height="86pt"
 viewBox="0.00 0.00 320.00 86.00" xmlns="http://www.w3.org/2000/svg" xmlns:xlink="http://www.w3.org/1999/xlink">
<g id="graph0" class="graph" transform="scale(1 1) rotate(0) translate(4 82)">
<title>Graphical Class Hierarchy</title>
<!-- Node0 -->
<g id="Node000000" class="node">
<title>Node0</title>
<g id="a_Node000000"><a xlink:title=" ">
<polygon fill="#e0e0e0" stroke="#999999" points="86,-48.5 0,-48.5 0,-29.5 86,-29.5 86,-48.5"/>
<text text-anchor="middle" x="43" y="-36.5" font-family="Helvetica,sans-Serif" font-size="10.00">LifetimeScope</text>
</a>
</g>
</g>
<!-- Node1 -->
<g id="Node000001" class="node">
<title>Node1</title>
<g id="a_Node000001"><a xlink:href="classGuildmaster_1_1Game_1_1CombatLifetimeScope.html" target="_top" xlink:title="Дочерний DI&#45;скоуп BattleScene.">
<polygon fill="white" stroke="#666666" points="312,-78 122,-78 122,-48 312,-48 312,-78"/>
<text text-anchor="start" x="130" y="-66" font-family="Helvetica,sans-Serif" font-size="10.00">Guildmaster.Game.CombatLifetime</text>
<text text-anchor="middle" x="217" y="-55" font-family="Helvetica,sans-Serif" font-size="10.00">Scope</text>
</a>
</g>
</g>
<!-- Node0&#45;&gt;Node1 -->
<g id="edge10_Node000000_Node000001" class="edge">
<title>Node0&#45;&gt;Node1</title>
<g id="a_edge10_Node000000_Node000001"><a xlink:title=" ">
<path fill="none" stroke="#63b8ff" d="M96.13,-46.27C104.3,-47.41 112.95,-48.62 121.72,-49.85"/>
<polygon fill="#63b8ff" stroke="#63b8ff" points="96.46,-42.79 86.08,-44.87 95.5,-49.72 96.46,-42.79"/>
</a>
</g>
</g>
<!-- Node2 -->
<g id="Node000002" class="node">
<title>Node2</title>
<g id="a_Node000002"><a xlink:href="classGuildmaster_1_1Game_1_1RootLifetimeScope.html" target="_top" xlink:title="Корневой DI&#45;скоуп, живёт всю сессию вместе с CoreScene.">
<polygon fill="white" stroke="#666666" points="304,-30 130,-30 130,0 304,0 304,-30"/>
<text text-anchor="start" x="138" y="-18" font-family="Helvetica,sans-Serif" font-size="10.00">Guildmaster.Game.RootLifetime</text>
<text text-anchor="middle" x="217" y="-7" font-family="Helvetica,sans-Serif" font-size="10.00">Scope</text>
</a>
</g>
</g>
<!-- Node0&#45;&gt;Node2 -->
<g id="edge11_Node000000_Node000002" class="edge">
<title>Node0&#45;&gt;Node2</title>
<g id="a_edge11_Node000000_Node000002"><a xlink:title=" ">
<path fill="none" stroke="#63b8ff" d="M96.07,-31.73C106.79,-30.24 118.35,-28.63 129.91,-27.01"/>
<polygon fill="#63b8ff" stroke="#63b8ff" points="95.5,-28.28 86.08,-33.13 96.46,-35.21 95.5,-28.28"/>
</a>
</g>
</g>
</g>
</svg>
