<?xml version="1.0" encoding="UTF-8" standalone="no"?>
<!DOCTYPE svg PUBLIC "-//W3C//DTD SVG 1.1//EN"
 "http://www.w3.org/Graphics/SVG/1.1/DTD/svg11.dtd">
<!-- Generated by graphviz version 2.43.0 (0)
 -->
<!-- Title: Graphical Class Hierarchy Pages: 1 -->
<svg width="580pt" height="134pt"
 viewBox="0.00 0.00 580.00 134.00" xmlns="http://www.w3.org/2000/svg" xmlns:xlink="http://www.w3.org/1999/xlink">
<g id="graph0" class="graph" transform="scale(1 1) rotate(0) translate(4 130)">
<title>Graphical Class Hierarchy</title>
<!-- Node0 -->
<g id="Node000000" class="node">
<title>Node0</title>
<g id="a_Node000000"><a xlink:href="interfaceGuildmaster_1_1Core_1_1Simulation_1_1ISimCommand.html" target="_top" xlink:title="Базовый контракт команды симуляции — упорядочивающий ключ для детерминированного применения на границ...">
<polygon fill="white" stroke="#666666" points="160,-78 0,-78 0,-48 160,-48 160,-78"/>
<text text-anchor="start" x="8" y="-66" font-family="Helvetica,sans-Serif" font-size="10.00">Guildmaster.Core.Simulation.</text>
<text text-anchor="middle" x="80" y="-55" font-family="Helvetica,sans-Serif" font-size="10.00">ISimCommand</text>
</a>
</g>
</g>
<!-- Node1 -->
<g id="Node000001" class="node">
<title>Node1</title>
<g id="a_Node000001"><a xlink:href="interfaceGuildmaster_1_1Combat_1_1ICombatCommand.html" target="_top" xlink:title="Расширяет ISimCommand слоем Combat: добавляет метод применения к симуляции.">
<polygon fill="white" stroke="#666666" points="357,-78 196,-78 196,-48 357,-48 357,-78"/>
<text text-anchor="start" x="204" y="-66" font-family="Helvetica,sans-Serif" font-size="10.00">Guildmaster.Combat.ICombat</text>
<text text-anchor="middle" x="276.5" y="-55" font-family="Helvetica,sans-Serif" font-size="10.00">Command</text>
</a>
</g>
</g>
<!-- Node0&#45;&gt;Node1 -->
<g id="edge3_Node000000_Node000001" class="edge">
<title>Node0&#45;&gt;Node1</title>
<g id="a_edge3_Node000000_Node000001"><a xlink:title=" ">
<path fill="none" stroke="#63b8ff" d="M170.12,-63C178.69,-63 187.35,-63 195.83,-63"/>
<polygon fill="#63b8ff" stroke="#63b8ff" points="170.11,-59.5 160.11,-63 170.11,-66.5 170.11,-59.5"/>
</a>
</g>
</g>
<!-- Node2 -->
<g id="Node000002" class="node">
<title>Node2</title>
<g id="a_Node000002"><a xlink:href="classGuildmaster_1_1Combat_1_1Commands_1_1PauseCommand.html" target="_top" xlink:title="Ставит симуляцию боя на паузу на указанном тике.">
<polygon fill="white" stroke="#666666" points="572,-126 393,-126 393,-96 572,-96 572,-126"/>
<text text-anchor="start" x="401" y="-114" font-family="Helvetica,sans-Serif" font-size="10.00">Guildmaster.Combat.Commands.</text>
<text text-anchor="middle" x="482.5" y="-103" font-family="Helvetica,sans-Serif" font-size="10.00">PauseCommand</text>
</a>
</g>
</g>
<!-- Node1&#45;&gt;Node2 -->
<g id="edge4_Node000001_Node000002" class="edge">
<title>Node1&#45;&gt;Node2</title>
<g id="a_edge4_Node000001_Node000002"><a xlink:title=" ">
<path fill="none" stroke="#63b8ff" d="M351.33,-80.37C373.08,-85.49 396.68,-91.04 417.74,-96"/>
<polygon fill="#63b8ff" stroke="#63b8ff" points="352.02,-76.94 341.49,-78.06 350.42,-83.75 352.02,-76.94"/>
</a>
</g>
</g>
<!-- Node3 -->
<g id="Node000003" class="node">
<title>Node3</title>
<g id="a_Node000003"><a xlink:href="classGuildmaster_1_1Combat_1_1Commands_1_1ResumeCommand.html" target="_top" xlink:title="Снимает симуляцию боя с паузы на указанном тике.">
<polygon fill="white" stroke="#666666" points="572,-78 393,-78 393,-48 572,-48 572,-78"/>
<text text-anchor="start" x="401" y="-66" font-family="Helvetica,sans-Serif" font-size="10.00">Guildmaster.Combat.Commands.</text>
<text text-anchor="middle" x="482.5" y="-55" font-family="Helvetica,sans-Serif" font-size="10.00">ResumeCommand</text>
</a>
</g>
</g>
<!-- Node1&#45;&gt;Node3 -->
<g id="edge5_Node000001_Node000003" class="edge">
<title>Node1&#45;&gt;Node3</title>
<g id="a_edge5_Node000001_Node000003"><a xlink:title=" ">
<path fill="none" stroke="#63b8ff" d="M367.41,-63C375.8,-63 384.3,-63 392.69,-63"/>
<polygon fill="#63b8ff" stroke="#63b8ff" points="367.25,-59.5 357.25,-63 367.25,-66.5 367.25,-59.5"/>
</a>
</g>
</g>
<!-- Node4 -->
<g id="Node000004" class="node">
<title>Node4</title>
<g id="a_Node000004"><a xlink:href="classGuildmaster_1_1Combat_1_1Commands_1_1SpawnUnitCommand.html" target="_top" xlink:title="Добавляет предварительно созданного юнита в симуляцию на указанном тике.">
<polygon fill="white" stroke="#666666" points="572,-30 393,-30 393,0 572,0 572,-30"/>
<text text-anchor="start" x="401" y="-18" font-family="Helvetica,sans-Serif" font-size="10.00">Guildmaster.Combat.Commands.</text>
<text text-anchor="middle" x="482.5" y="-7" font-family="Helvetica,sans-Serif" font-size="10.00">SpawnUnitCommand</text>
</a>
</g>
</g>
<!-- Node1&#45;&gt;Node4 -->
<g id="edge6_Node000001_Node000004" class="edge">
<title>Node1&#45;&gt;Node4</title>
<g id="a_edge6_Node000001_Node000004"><a xlink:title=" ">
<path fill="none" stroke="#63b8ff" d="M351.33,-45.63C373.08,-40.51 396.68,-34.96 417.74,-30"/>
<polygon fill="#63b8ff" stroke="#63b8ff" points="350.42,-42.25 341.49,-47.94 352.02,-49.06 350.42,-42.25"/>
</a>
</g>
</g>
</g>
</svg>
