<?xml version="1.0" encoding="UTF-8" standalone="no"?>
<!DOCTYPE svg PUBLIC "-//W3C//DTD SVG 1.1//EN"
 "http://www.w3.org/Graphics/SVG/1.1/DTD/svg11.dtd">
<!-- Generated by graphviz version 2.43.0 (0)
 -->
<!-- Title: Graphical Class Hierarchy Pages: 1 -->
<svg width="848pt" height="344pt"
 viewBox="0.00 0.00 848.00 343.94" xmlns="http://www.w3.org/2000/svg" xmlns:xlink="http://www.w3.org/1999/xlink">
<g id="graph0" class="graph" transform="scale(1 1) rotate(0) translate(4 339.94)">
<title>Graphical Class Hierarchy</title>
<!-- Node0 -->
<g id="Node000000" class="node">
<title>Node0</title>
<g id="a_Node000000"><a xlink:href="interfaceGuildmaster_1_1Data_1_1Definitions_1_1IEffectComponent.html" target="_top" xlink:title="Якорь полиморфного поведения эффекта для сериализации.">
<polygon fill="white" stroke="#666666" points="161,-191.94 0,-191.94 0,-161.94 161,-161.94 161,-191.94"/>
<text text-anchor="start" x="8" y="-179.94" font-family="Helvetica,sans-Serif" font-size="10.00">Guildmaster.Data.Definitions.</text>
<text text-anchor="middle" x="80.5" y="-168.94" font-family="Helvetica,sans-Serif" font-size="10.00">IEffectComponent</text>
</a>
</g>
</g>
<!-- Node1 -->
<g id="Node000001" class="node">
<title>Node1</title>
<g id="a_Node000001"><a xlink:href="interfaceGuildmaster_1_1Combat_1_1Effects_1_1IRuntimeEffectComponent.html" target="_top" xlink:title="Рантайм&#45;контракт поведения эффекта.">
<polygon fill="white" stroke="#666666" points="353,-191.94 197,-191.94 197,-161.94 353,-161.94 353,-191.94"/>
<text text-anchor="start" x="205" y="-179.94" font-family="Helvetica,sans-Serif" font-size="10.00">Guildmaster.Combat.Effects.</text>
<text text-anchor="middle" x="275" y="-168.94" font-family="Helvetica,sans-Serif" font-size="10.00">IRuntimeEffectComponent</text>
</a>
</g>
</g>
<!-- Node0&#45;&gt;Node1 -->
<g id="edge7_Node000000_Node000001" class="edge">
<title>Node0&#45;&gt;Node1</title>
<g id="a_edge7_Node000000_Node000001"><a xlink:title=" ">
<path fill="none" stroke="#63b8ff" d="M171.2,-176.94C179.77,-176.94 188.41,-176.94 196.85,-176.94"/>
<polygon fill="#63b8ff" stroke="#63b8ff" points="171.19,-173.44 161.19,-176.94 171.19,-180.44 171.19,-173.44"/>
</a>
</g>
</g>
<!-- Node2 -->
<g id="Node000002" class="node">
<title>Node2</title>
<g id="a_Node000002"><a xlink:href="classGuildmaster_1_1Combat_1_1Effects_1_1Components_1_1ControlComponent.html" target="_top" xlink:title="Контроль: запрещает действия носителю на время эффекта.">
<polygon fill="white" stroke="#666666" points="574,-167.94 401,-167.94 401,-137.94 574,-137.94 574,-167.94"/>
<text text-anchor="start" x="409" y="-155.94" font-family="Helvetica,sans-Serif" font-size="10.00">Guildmaster.Combat.Effects.</text>
<text text-anchor="middle" x="487.5" y="-144.94" font-family="Helvetica,sans-Serif" font-size="10.00">Components.ControlComponent</text>
</a>
</g>
</g>
<!-- Node1&#45;&gt;Node2 -->
<g id="edge8_Node000001_Node000002" class="edge">
<title>Node1&#45;&gt;Node2</title>
<g id="a_edge8_Node000001_Node000002"><a xlink:title=" ">
<path fill="none" stroke="#63b8ff" d="M363.46,-166.97C375.81,-165.56 388.49,-164.11 400.8,-162.71"/>
<polygon fill="#63b8ff" stroke="#63b8ff" points="362.73,-163.53 353.19,-168.14 363.52,-170.48 362.73,-163.53"/>
</a>
</g>
</g>
<!-- Node3 -->
<g id="Node000003" class="node">
<title>Node3</title>
<g id="a_Node000003"><a xlink:href="classGuildmaster_1_1Combat_1_1Effects_1_1Components_1_1DispelComponent.html" target="_top" xlink:title="Диспел: при наложении снимает с носителя подходящие эффекты (вики «6» §5.4).">
<polygon fill="white" stroke="#666666" points="571.5,-119.94 403.5,-119.94 403.5,-89.94 571.5,-89.94 571.5,-119.94"/>
<text text-anchor="start" x="411.5" y="-107.94" font-family="Helvetica,sans-Serif" font-size="10.00">Guildmaster.Combat.Effects.</text>
<text text-anchor="middle" x="487.5" y="-96.94" font-family="Helvetica,sans-Serif" font-size="10.00">Components.DispelComponent</text>
</a>
</g>
</g>
<!-- Node1&#45;&gt;Node3 -->
<g id="edge9_Node000001_Node000003" class="edge">
<title>Node1&#45;&gt;Node3</title>
<g id="a_edge9_Node000001_Node000003"><a xlink:title=" ">
<path fill="none" stroke="#63b8ff" d="M316.96,-157.66C338.15,-148.17 364.62,-137.06 389,-128.94 398.68,-125.72 409.02,-122.71 419.22,-120"/>
<polygon fill="#63b8ff" stroke="#63b8ff" points="315.29,-154.58 307.62,-161.89 318.17,-160.95 315.29,-154.58"/>
</a>
</g>
</g>
<!-- Node4 -->
<g id="Node000004" class="node">
<title>Node4</title>
<g id="a_Node000004"><a xlink:href="classGuildmaster_1_1Combat_1_1Effects_1_1Components_1_1ShieldComponent.html" target="_top" xlink:title="Поглощающий щит.">
<polygon fill="white" stroke="#666666" points="814.5,-39.94 647.5,-39.94 647.5,-9.94 814.5,-9.94 814.5,-39.94"/>
<text text-anchor="start" x="655.5" y="-27.94" font-family="Helvetica,sans-Serif" font-size="10.00">Guildmaster.Combat.Effects.</text>
<text text-anchor="middle" x="731" y="-16.94" font-family="Helvetica,sans-Serif" font-size="10.00">Components.ShieldComponent</text>
</a>
</g>
</g>
<!-- Node1&#45;&gt;Node4 -->
<g id="edge10_Node000001_Node000004" class="edge">
<title>Node1&#45;&gt;Node4</title>
<g id="a_edge10_Node000001_Node000004"><a xlink:title=" ">
<path fill="none" stroke="#63b8ff" d="M286.88,-152.26C303.4,-118.26 338.32,-58.33 389,-32.94 474.51,9.9 587.84,1.87 659.86,-9.89"/>
<polygon fill="#63b8ff" stroke="#63b8ff" points="283.62,-150.97 282.54,-161.51 289.96,-153.95 283.62,-150.97"/>
</a>
</g>
</g>
<!-- Node9 -->
<g id="Node000009" class="node">
<title>Node9</title>
<g id="a_Node000009"><a xlink:href="classGuildmaster_1_1Combat_1_1Effects_1_1Components_1_1StatModifierComponent.html" target="_top" xlink:title="Накладывает стат&#45;модификаторы на носителя на время жизни эффекта.">
<polygon fill="white" stroke="#666666" points="586,-263.94 389,-263.94 389,-233.94 586,-233.94 586,-263.94"/>
<text text-anchor="start" x="397" y="-251.94" font-family="Helvetica,sans-Serif" font-size="10.00">Guildmaster.Combat.Effects.</text>
<text text-anchor="middle" x="487.5" y="-240.94" font-family="Helvetica,sans-Serif" font-size="10.00">Components.StatModifierComponent</text>
</a>
</g>
</g>
<!-- Node1&#45;&gt;Node9 -->
<g id="edge11_Node000001_Node000009" class="edge">
<title>Node1&#45;&gt;Node9</title>
<g id="a_edge11_Node000001_Node000009"><a xlink:title=" ">
<path fill="none" stroke="#63b8ff" d="M316.96,-196.21C338.15,-205.7 364.62,-216.82 389,-224.94 398.68,-228.16 409.02,-231.16 419.22,-233.88"/>
<polygon fill="#63b8ff" stroke="#63b8ff" points="318.17,-192.92 307.62,-191.98 315.29,-199.3 318.17,-192.92"/>
</a>
</g>
</g>
<!-- Node7 -->
<g id="Node000007" class="node">
<title>Node7</title>
<g id="a_Node000007"><a xlink:href="interfaceGuildmaster_1_1Combat_1_1Effects_1_1IPeriodicComponent.html" target="_top" xlink:title="Периодический компонент: OnTick каждые Interval секунд (DoT/HoT/реген).">
<polygon fill="white" stroke="#666666" points="565.5,-215.94 409.5,-215.94 409.5,-185.94 565.5,-185.94 565.5,-215.94"/>
<text text-anchor="start" x="417.5" y="-203.94" font-family="Helvetica,sans-Serif" font-size="10.00">Guildmaster.Combat.Effects.</text>
<text text-anchor="middle" x="487.5" y="-192.94" font-family="Helvetica,sans-Serif" font-size="10.00">IPeriodicComponent</text>
</a>
</g>
</g>
<!-- Node1&#45;&gt;Node7 -->
<g id="edge12_Node000001_Node000007" class="edge">
<title>Node1&#45;&gt;Node7</title>
<g id="a_edge12_Node000001_Node000007"><a xlink:title=" ">
<path fill="none" stroke="#63b8ff" d="M363.16,-186.88C378.47,-188.62 394.31,-190.43 409.32,-192.14"/>
<polygon fill="#63b8ff" stroke="#63b8ff" points="363.52,-183.39 353.19,-185.74 362.73,-190.35 363.52,-183.39"/>
</a>
</g>
</g>
<!-- Node10 -->
<g id="Node000010" class="node">
<title>Node10</title>
<g id="a_Node000010"><a xlink:href="interfaceGuildmaster_1_1Combat_1_1Effects_1_1IReactiveComponent.html" target="_top" xlink:title="Реактивный компонент: реагирует на боевые события (вампиризм/шипы). Диспатч — внутренняя FIFO&#45;очередь...">
<polygon fill="white" stroke="#666666" points="565.5,-311.94 409.5,-311.94 409.5,-281.94 565.5,-281.94 565.5,-311.94"/>
<text text-anchor="start" x="417.5" y="-299.94" font-family="Helvetica,sans-Serif" font-size="10.00">Guildmaster.Combat.Effects.</text>
<text text-anchor="middle" x="487.5" y="-288.94" font-family="Helvetica,sans-Serif" font-size="10.00">IReactiveComponent</text>
</a>
</g>
</g>
<!-- Node1&#45;&gt;Node10 -->
<g id="edge15_Node000001_Node000010" class="edge">
<title>Node1&#45;&gt;Node10</title>
<g id="a_edge15_Node000001_Node000010"><a xlink:title=" ">
<path fill="none" stroke="#63b8ff" d="M296.51,-199.64C317.61,-221.61 352.46,-254.25 389,-272.94 395.75,-276.39 403.02,-279.36 410.44,-281.92"/>
<polygon fill="#63b8ff" stroke="#63b8ff" points="298.79,-196.95 289.39,-192.07 293.7,-201.75 298.79,-196.95"/>
</a>
</g>
</g>
<!-- Node6 -->
<g id="Node000006" class="node">
<title>Node6</title>
<g id="a_Node000006"><a xlink:href="classGuildmaster_1_1Combat_1_1Effects_1_1Components_1_1PeriodicDamageComponent.html" target="_top" xlink:title="Периодический урон (DoT).">
<polygon fill="white" stroke="#666666" points="840,-110.94 622,-110.94 622,-80.94 840,-80.94 840,-110.94"/>
<text text-anchor="start" x="630" y="-98.94" font-family="Helvetica,sans-Serif" font-size="10.00">Guildmaster.Combat.Effects.</text>
<text text-anchor="middle" x="731" y="-87.94" font-family="Helvetica,sans-Serif" font-size="10.00">Components.PeriodicDamageComponent</text>
</a>
</g>
</g>
<!-- Node7&#45;&gt;Node6 -->
<g id="edge13_Node000007_Node000006" class="edge">
<title>Node7&#45;&gt;Node6</title>
<g id="a_edge13_Node000007_Node000006"><a xlink:title=" ">
<path fill="none" stroke="#63b8ff" d="M569.05,-182.96C574.85,-181.1 580.55,-179.1 586,-176.94 631.34,-158.99 679.96,-129.16 707.52,-111.14"/>
<polygon fill="#63b8ff" stroke="#63b8ff" points="567.8,-179.68 559.25,-185.94 569.83,-186.38 567.8,-179.68"/>
</a>
</g>
</g>
<!-- Node8 -->
<g id="Node000008" class="node">
<title>Node8</title>
<g id="a_Node000008"><a xlink:href="classGuildmaster_1_1Combat_1_1Effects_1_1Components_1_1PeriodicHealComponent.html" target="_top" xlink:title="Периодическое исцеление (HoT).">
<polygon fill="white" stroke="#666666" points="830.5,-203.94 631.5,-203.94 631.5,-173.94 830.5,-173.94 830.5,-203.94"/>
<text text-anchor="start" x="639.5" y="-191.94" font-family="Helvetica,sans-Serif" font-size="10.00">Guildmaster.Combat.Effects.</text>
<text text-anchor="middle" x="731" y="-180.94" font-family="Helvetica,sans-Serif" font-size="10.00">Components.PeriodicHealComponent</text>
</a>
</g>
</g>
<!-- Node7&#45;&gt;Node8 -->
<g id="edge14_Node000007_Node000008" class="edge">
<title>Node7&#45;&gt;Node8</title>
<g id="a_edge14_Node000007_Node000008"><a xlink:title=" ">
<path fill="none" stroke="#63b8ff" d="M575.73,-196.6C593.71,-195.71 612.77,-194.76 631.13,-193.85"/>
<polygon fill="#63b8ff" stroke="#63b8ff" points="575.39,-193.12 565.58,-197.11 575.74,-200.11 575.39,-193.12"/>
</a>
</g>
</g>
<!-- Node11 -->
<g id="Node000011" class="node">
<title>Node11</title>
<g id="a_Node000011"><a xlink:href="classGuildmaster_1_1Combat_1_1Effects_1_1Components_1_1LifestealComponent.html" target="_top" xlink:title="Вампиризм: исцеляет носителя на долю нанесённого им урона.">
<polygon fill="white" stroke="#666666" points="820.5,-287.94 641.5,-287.94 641.5,-257.94 820.5,-257.94 820.5,-287.94"/>
<text text-anchor="start" x="649.5" y="-275.94" font-family="Helvetica,sans-Serif" font-size="10.00">Guildmaster.Combat.Effects.</text>
<text text-anchor="middle" x="731" y="-264.94" font-family="Helvetica,sans-Serif" font-size="10.00">Components.LifestealComponent</text>
</a>
</g>
</g>
<!-- Node10&#45;&gt;Node11 -->
<g id="edge16_Node000010_Node000011" class="edge">
<title>Node10&#45;&gt;Node11</title>
<g id="a_edge16_Node000010_Node000011"><a xlink:title=" ">
<path fill="none" stroke="#63b8ff" d="M575.62,-288.28C597.04,-286.15 619.99,-283.87 641.47,-281.74"/>
<polygon fill="#63b8ff" stroke="#63b8ff" points="575.18,-284.81 565.58,-289.28 575.87,-291.77 575.18,-284.81"/>
</a>
</g>
</g>
<!-- Node12 -->
<g id="Node000012" class="node">
<title>Node12</title>
<g id="a_Node000012"><a xlink:href="classGuildmaster_1_1Combat_1_1Effects_1_1Components_1_1ThornsComponent.html" target="_top" xlink:title="Шипы: отражает долю полученного урона обратно атакующему.">
<polygon fill="white" stroke="#666666" points="816,-335.94 646,-335.94 646,-305.94 816,-305.94 816,-335.94"/>
<text text-anchor="start" x="654" y="-323.94" font-family="Helvetica,sans-Serif" font-size="10.00">Guildmaster.Combat.Effects.</text>
<text text-anchor="middle" x="731" y="-312.94" font-family="Helvetica,sans-Serif" font-size="10.00">Components.ThornsComponent</text>
</a>
</g>
</g>
<!-- Node10&#45;&gt;Node12 -->
<g id="edge17_Node000010_Node000012" class="edge">
<title>Node10&#45;&gt;Node12</title>
<g id="a_edge17_Node000010_Node000012"><a xlink:title=" ">
<path fill="none" stroke="#63b8ff" d="M575.59,-305.59C598.43,-307.86 623.02,-310.31 645.71,-312.56"/>
<polygon fill="#63b8ff" stroke="#63b8ff" points="575.87,-302.1 565.58,-304.6 575.18,-309.07 575.87,-302.1"/>
</a>
</g>
</g>
<!-- Node5 -->
<g id="Node000005" class="node">
<title>Node5</title>
<g id="a_Node000005"><a xlink:href="interfaceGuildmaster_1_1Combat_1_1Effects_1_1IScalablePotency.html" target="_top" xlink:title="Опциональный шов: компонент объявляет масштабируемую потенцию.">
<polygon fill="white" stroke="#666666" points="565.5,-71.94 409.5,-71.94 409.5,-41.94 565.5,-41.94 565.5,-71.94"/>
<text text-anchor="start" x="417.5" y="-59.94" font-family="Helvetica,sans-Serif" font-size="10.00">Guildmaster.Combat.Effects.</text>
<text text-anchor="middle" x="487.5" y="-48.94" font-family="Helvetica,sans-Serif" font-size="10.00">IScalablePotency</text>
</a>
</g>
</g>
<!-- Node5&#45;&gt;Node4 -->
<g id="edge20_Node000005_Node000004" class="edge">
<title>Node5&#45;&gt;Node4</title>
<g id="a_edge20_Node000005_Node000004"><a xlink:title=" ">
<path fill="none" stroke="#63b8ff" d="M575.5,-45.41C598.93,-42.31 624.21,-38.96 647.4,-35.88"/>
<polygon fill="#63b8ff" stroke="#63b8ff" points="575.03,-41.94 565.58,-46.72 575.95,-48.88 575.03,-41.94"/>
</a>
</g>
</g>
<!-- Node5&#45;&gt;Node6 -->
<g id="edge18_Node000005_Node000006" class="edge">
<title>Node5&#45;&gt;Node6</title>
<g id="a_edge18_Node000005_Node000006"><a xlink:title=" ">
<path fill="none" stroke="#63b8ff" d="M575.53,-70.99C595.41,-74.2 616.62,-77.63 636.75,-80.88"/>
<polygon fill="#63b8ff" stroke="#63b8ff" points="576.01,-67.52 565.58,-69.39 574.89,-74.43 576.01,-67.52"/>
</a>
</g>
</g>
<!-- Node5&#45;&gt;Node8 -->
<g id="edge19_Node000005_Node000008" class="edge">
<title>Node5&#45;&gt;Node8</title>
<g id="a_edge19_Node000005_Node000008"><a xlink:title=" ">
<path fill="none" stroke="#63b8ff" d="M575.08,-75.27C578.85,-76.99 582.51,-78.88 586,-80.94 606.31,-92.93 603.91,-104.8 622,-119.94 647.25,-141.08 679.4,-160.83 702.04,-173.74"/>
<polygon fill="#63b8ff" stroke="#63b8ff" points="576.1,-71.9 565.52,-71.31 573.42,-78.37 576.1,-71.9"/>
</a>
</g>
</g>
</g>
</svg>
