<?xml version="1.0" encoding="UTF-8" standalone="no"?>
<!DOCTYPE svg PUBLIC "-//W3C//DTD SVG 1.1//EN"
 "http://www.w3.org/Graphics/SVG/1.1/DTD/svg11.dtd">
<!-- Generated by graphviz version 2.43.0 (0)
 -->
<!-- Title: Guildmaster.Game.Services.IAudioService Pages: 1 -->
<svg width="157pt" height="224pt"
 viewBox="0.00 0.00 157.00 224.00" xmlns="http://www.w3.org/2000/svg" xmlns:xlink="http://www.w3.org/1999/xlink">
<g id="graph0" class="graph" transform="scale(1 1) rotate(0) translate(4 220)">
<title>Guildmaster.Game.Services.IAudioService</title>
<!-- Node1 -->
<g id="Node000001" class="node">
<title>Node1</title>
<g id="a_Node000001"><a xlink:title="Фасад звуковой подсистемы.">
<polygon fill="#999999" stroke="transparent" points="149,-216 0,-216 0,-126 149,-126 149,-216"/>
<text text-anchor="start" x="5.5" y="-204" font-family="Helvetica,sans-Serif" font-size="10.00">Guildmaster.Game.Services.</text>
<text text-anchor="start" x="41.5" y="-193" font-family="Helvetica,sans-Serif" font-size="10.00">IAudioService</text>
<text text-anchor="start" x="73" y="-178" font-family="Helvetica,sans-Serif" font-size="10.00"> </text>
<text text-anchor="start" x="14" y="-163" font-family="Helvetica,sans-Serif" font-size="10.00">+</text>
<text text-anchor="start" x="36.5" y="-163" font-family="Helvetica,sans-Serif" font-size="10.00">Play()</text>
<text text-anchor="start" x="14" y="-148" font-family="Helvetica,sans-Serif" font-size="10.00">+</text>
<text text-anchor="start" x="36.5" y="-148" font-family="Helvetica,sans-Serif" font-size="10.00">Stop()</text>
<text text-anchor="start" x="14" y="-133" font-family="Helvetica,sans-Serif" font-size="10.00">+</text>
<text text-anchor="start" x="36.5" y="-133" font-family="Helvetica,sans-Serif" font-size="10.00">SetMusicVolume()</text>
<polygon fill="#666666" stroke="#666666" points="0.5,-188 0.5,-188 149.5,-188 149.5,-188 0.5,-188"/>
<polygon fill="#666666" stroke="#666666" points="0.5,-173 0.5,-173 149.5,-173 149.5,-173 0.5,-173"/>
<polygon fill="none" stroke="#666666" points="0,-126 0,-216 149,-216 149,-126 0,-126"/>
</a>
</g>
</g>
<!-- Node2 -->
<g id="Node000002" class="node">
<title>Node2</title>
<g id="a_Node000002"><a xlink:href="classGuildmaster_1_1Game_1_1Services_1_1UnityAudioService.html" target="_top" xlink:title="Заглушка IAudioService на Unity Audio.">
<polygon fill="white" stroke="transparent" points="149,-90 0,-90 0,0 149,0 149,-90"/>
<text text-anchor="start" x="5.5" y="-78" font-family="Helvetica,sans-Serif" font-size="10.00">Guildmaster.Game.Services.</text>
<text text-anchor="start" x="29.5" y="-67" font-family="Helvetica,sans-Serif" font-size="10.00">UnityAudioService</text>
<text text-anchor="start" x="73" y="-52" font-family="Helvetica,sans-Serif" font-size="10.00"> </text>
<text text-anchor="start" x="14" y="-37" font-family="Helvetica,sans-Serif" font-size="10.00">+</text>
<text text-anchor="start" x="36.5" y="-37" font-family="Helvetica,sans-Serif" font-size="10.00">Play()</text>
<text text-anchor="start" x="14" y="-22" font-family="Helvetica,sans-Serif" font-size="10.00">+</text>
<text text-anchor="start" x="36.5" y="-22" font-family="Helvetica,sans-Serif" font-size="10.00">Stop()</text>
<text text-anchor="start" x="14" y="-7" font-family="Helvetica,sans-Serif" font-size="10.00">+</text>
<text text-anchor="start" x="36.5" y="-7" font-family="Helvetica,sans-Serif" font-size="10.00">SetMusicVolume()</text>
<polygon fill="#666666" stroke="#666666" points="0.5,-62 0.5,-62 149.5,-62 149.5,-62 0.5,-62"/>
<polygon fill="#666666" stroke="#666666" points="0.5,-47 0.5,-47 149.5,-47 149.5,-47 0.5,-47"/>
<polygon fill="none" stroke="#666666" points="0,0 0,-90 149,-90 149,0 0,0"/>
</a>
</g>
</g>
<!-- Node1&#45;&gt;Node2 -->
<g id="edge1_Node000001_Node000002" class="edge">
<title>Node1&#45;&gt;Node2</title>
<g id="a_edge1_Node000001_Node000002"><a xlink:title=" ">
<path fill="none" stroke="#63b8ff" d="M74.5,-115.73C74.5,-107.25 74.5,-98.57 74.5,-90.34"/>
<polygon fill="none" stroke="#63b8ff" points="71,-115.93 74.5,-125.93 78,-115.93 71,-115.93"/>
</a>
</g>
</g>
</g>
</svg>
