<?xml version="1.0" encoding="UTF-8" standalone="no"?>
<!DOCTYPE svg PUBLIC "-//W3C//DTD SVG 1.1//EN"
 "http://www.w3.org/Graphics/SVG/1.1/DTD/svg11.dtd">
<!-- Generated by graphviz version 2.43.0 (0)
 -->
<!-- Title: Guildmaster.Combat.Effects.IReactiveComponent Pages: 1 -->
<svg width="364pt" height="379pt"
 viewBox="0.00 0.00 363.50 379.00" xmlns="http://www.w3.org/2000/svg" xmlns:xlink="http://www.w3.org/1999/xlink">

<svg id="main" version="1.1" xmlns="http://www.w3.org/2000/svg" xmlns:xlink="http://www.w3.org/1999/xlink" xml:space="preserve" onload="init(evt)">
<style type="text/css"><![CDATA[
.node, .edge {opacity: 0.7;}
.node.selected, .edge.selected {opacity: 1;}
.edge:hover path { stroke: red; }
.edge:hover polygon { stroke: red; fill: red; }
]]></style>
<script type="application/ecmascript" xlink:href="svg.min.js"/>
<svg id="graph" class="graph">
<g id="graph0" class="graph" transform="scale(1 1) rotate(0) translate(4 375)">
<title>Guildmaster.Combat.Effects.IReactiveComponent</title>
<!-- Node1 -->
<g id="Node000001" class="node">
<title>Node1</title>
<g id="a_Node000001"><a xlink:title="Реактивный компонент: реагирует на боевые события (вампиризм/шипы). Диспатч — внутренняя FIFO&#45;очередь...">
<polygon fill="#999999" stroke="transparent" points="254.5,-186 104.5,-186 104.5,-126 254.5,-126 254.5,-186"/>
<text text-anchor="start" x="109.5" y="-174" font-family="Helvetica,sans-Serif" font-size="10.00">Guildmaster.Combat.Effects.</text>
<text text-anchor="start" x="128" y="-163" font-family="Helvetica,sans-Serif" font-size="10.00">IReactiveComponent</text>
<text text-anchor="start" x="128.5" y="-148" font-family="Helvetica,sans-Serif" font-size="10.00">+</text>
<text text-anchor="start" x="161.5" y="-148" font-family="Helvetica,sans-Serif" font-size="10.00">Events</text>
<text text-anchor="start" x="128.5" y="-133" font-family="Helvetica,sans-Serif" font-size="10.00">+</text>
<text text-anchor="start" x="161.5" y="-133" font-family="Helvetica,sans-Serif" font-size="10.00">OnEvent()</text>
<polygon fill="#666666" stroke="#666666" points="104.5,-158 104.5,-158 254.5,-158 254.5,-158 104.5,-158"/>
<polygon fill="#666666" stroke="#666666" points="104.5,-143 104.5,-143 159.5,-143 159.5,-143 104.5,-143"/>
<polygon fill="#666666" stroke="#666666" points="159.5,-143 159.5,-143 254.5,-143 254.5,-143 159.5,-143"/>
<polygon fill="none" stroke="#666666" points="104.5,-126 104.5,-186 254.5,-186 254.5,-126 104.5,-126"/>
</a>
</g>
</g>
<!-- Node4 -->
<g id="Node000004" class="node">
<title>Node4</title>
<g id="a_Node000004"><a xlink:href="classGuildmaster_1_1Combat_1_1Effects_1_1Components_1_1LifestealComponent.html" target="_top" xlink:title="Вампиризм: исцеляет носителя на долю нанесённого им урона.">
<polygon fill="white" stroke="transparent" points="173,-90 0,-90 0,0 173,0 173,-90"/>
<text text-anchor="start" x="5.5" y="-78" font-family="Helvetica,sans-Serif" font-size="10.00">Guildmaster.Combat.Effects.</text>
<text text-anchor="start" x="5.5" y="-67" font-family="Helvetica,sans-Serif" font-size="10.00">Components.LifestealComponent</text>
<text text-anchor="start" x="29.5" y="-52" font-family="Helvetica,sans-Serif" font-size="10.00">+</text>
<text text-anchor="start" x="67.5" y="-52" font-family="Helvetica,sans-Serif" font-size="10.00">Events</text>
<text text-anchor="start" x="29.5" y="-37" font-family="Helvetica,sans-Serif" font-size="10.00">+</text>
<text text-anchor="start" x="67.5" y="-37" font-family="Helvetica,sans-Serif" font-size="10.00">OnApply()</text>
<text text-anchor="start" x="29.5" y="-22" font-family="Helvetica,sans-Serif" font-size="10.00">+</text>
<text text-anchor="start" x="67.5" y="-22" font-family="Helvetica,sans-Serif" font-size="10.00">OnExpire()</text>
<text text-anchor="start" x="29.5" y="-7" font-family="Helvetica,sans-Serif" font-size="10.00">+</text>
<text text-anchor="start" x="67.5" y="-7" font-family="Helvetica,sans-Serif" font-size="10.00">OnEvent()</text>
<polygon fill="#666666" stroke="#666666" points="0.5,-62 0.5,-62 173.5,-62 173.5,-62 0.5,-62"/>
<polygon fill="#666666" stroke="#666666" points="0.5,-47 0.5,-47 65.5,-47 65.5,-47 0.5,-47"/>
<polygon fill="#666666" stroke="#666666" points="65.5,-47 65.5,-47 173.5,-47 173.5,-47 65.5,-47"/>
<polygon fill="none" stroke="#666666" points="0,0 0,-90 173,-90 173,0 0,0"/>
</a>
</g>
</g>
<!-- Node1&#45;&gt;Node4 -->
<g id="edge3_Node000001_Node000004" class="edge">
<title>Node1&#45;&gt;Node4</title>
<g id="a_edge3_Node000001_Node000004"><a xlink:title=" ">
<path fill="none" stroke="#63b8ff" d="M148.01,-118.09C140.33,-109.09 132.03,-99.36 124.09,-90.06"/>
<polygon fill="none" stroke="#63b8ff" points="145.42,-120.45 154.58,-125.79 150.75,-115.91 145.42,-120.45"/>
</a>
</g>
</g>
<!-- Node5 -->
<g id="Node000005" class="node">
<title>Node5</title>
<g id="a_Node000005"><a xlink:href="classGuildmaster_1_1Combat_1_1Effects_1_1Components_1_1ThornsComponent.html" target="_top" xlink:title="Шипы: отражает долю полученного урона обратно атакующему.">
<polygon fill="white" stroke="transparent" points="355.5,-90 191.5,-90 191.5,0 355.5,0 355.5,-90"/>
<text text-anchor="start" x="196.5" y="-78" font-family="Helvetica,sans-Serif" font-size="10.00">Guildmaster.Combat.Effects.</text>
<text text-anchor="start" x="196.5" y="-67" font-family="Helvetica,sans-Serif" font-size="10.00">Components.ThornsComponent</text>
<text text-anchor="start" x="218" y="-52" font-family="Helvetica,sans-Serif" font-size="10.00">+</text>
<text text-anchor="start" x="253.5" y="-52" font-family="Helvetica,sans-Serif" font-size="10.00">Events</text>
<text text-anchor="start" x="218" y="-37" font-family="Helvetica,sans-Serif" font-size="10.00">+</text>
<text text-anchor="start" x="253.5" y="-37" font-family="Helvetica,sans-Serif" font-size="10.00">OnApply()</text>
<text text-anchor="start" x="218" y="-22" font-family="Helvetica,sans-Serif" font-size="10.00">+</text>
<text text-anchor="start" x="253.5" y="-22" font-family="Helvetica,sans-Serif" font-size="10.00">OnExpire()</text>
<text text-anchor="start" x="218" y="-7" font-family="Helvetica,sans-Serif" font-size="10.00">+</text>
<text text-anchor="start" x="253.5" y="-7" font-family="Helvetica,sans-Serif" font-size="10.00">OnEvent()</text>
<polygon fill="#666666" stroke="#666666" points="191.5,-62 191.5,-62 355.5,-62 355.5,-62 191.5,-62"/>
<polygon fill="#666666" stroke="#666666" points="191.5,-47 191.5,-47 251.5,-47 251.5,-47 191.5,-47"/>
<polygon fill="#666666" stroke="#666666" points="251.5,-47 251.5,-47 355.5,-47 355.5,-47 251.5,-47"/>
<polygon fill="none" stroke="#666666" points="191.5,0 191.5,-90 355.5,-90 355.5,0 191.5,0"/>
</a>
</g>
</g>
<!-- Node1&#45;&gt;Node5 -->
<g id="edge4_Node000001_Node000005" class="edge">
<title>Node1&#45;&gt;Node5</title>
<g id="a_edge4_Node000001_Node000005"><a xlink:title=" ">
<path fill="none" stroke="#63b8ff" d="M211.33,-118.09C219.1,-109.09 227.48,-99.36 235.5,-90.06"/>
<polygon fill="none" stroke="#63b8ff" points="208.57,-115.93 204.69,-125.79 213.87,-120.5 208.57,-115.93"/>
</a>
</g>
</g>
<!-- Node2 -->
<g id="Node000002" class="node">
<title>Node2</title>
<g id="a_Node000002"><a xlink:href="interfaceGuildmaster_1_1Combat_1_1Effects_1_1IRuntimeEffectComponent.html" target="_top" xlink:title="Рантайм&#45;контракт поведения эффекта.">
<polygon fill="white" stroke="transparent" points="249,-286 110,-286 110,-222 249,-222 249,-286"/>
<text text-anchor="start" x="115.5" y="-274" font-family="Helvetica,sans-Serif" font-size="10.00">IRuntimeEffectComponent</text>
<text text-anchor="start" x="178" y="-259" font-family="Helvetica,sans-Serif" font-size="10.00"> </text>
<text text-anchor="start" x="131" y="-244" font-family="Helvetica,sans-Serif" font-size="10.00">+</text>
<text text-anchor="start" x="160.5" y="-244" font-family="Helvetica,sans-Serif" font-size="10.00">OnApply()</text>
<text text-anchor="start" x="131" y="-229" font-family="Helvetica,sans-Serif" font-size="10.00">+</text>
<text text-anchor="start" x="160.5" y="-229" font-family="Helvetica,sans-Serif" font-size="10.00">OnExpire()</text>
<polygon fill="#666666" stroke="#666666" points="110.5,-269 110.5,-269 249.5,-269 249.5,-269 110.5,-269"/>
<polygon fill="#666666" stroke="#666666" points="110.5,-254 110.5,-254 249.5,-254 249.5,-254 110.5,-254"/>
<polygon fill="none" stroke="#666666" points="110,-222 110,-286 249,-286 249,-222 110,-222"/>
</a>
</g>
</g>
<!-- Node2&#45;&gt;Node1 -->
<g id="edge1_Node000001_Node000002" class="edge">
<title>Node2&#45;&gt;Node1</title>
<g id="a_edge1_Node000001_Node000002"><a xlink:title=" ">
<path fill="none" stroke="#63b8ff" d="M179.5,-211.57C179.5,-202.97 179.5,-194.09 179.5,-186.06"/>
<polygon fill="none" stroke="#63b8ff" points="176,-211.83 179.5,-221.83 183,-211.83 176,-211.83"/>
</a>
</g>
</g>
<!-- Node3 -->
<g id="Node000003" class="node">
<title>Node3</title>
<g id="a_Node000003"><a xlink:href="interfaceGuildmaster_1_1Data_1_1Definitions_1_1IEffectComponent.html" target="_top" xlink:title="Якорь полиморфного поведения эффекта для сериализации.">
<polygon fill="white" stroke="transparent" points="228.5,-371 130.5,-371 130.5,-322 228.5,-322 228.5,-371"/>
<text text-anchor="start" x="135.5" y="-358.5" font-family="Helvetica,sans-Serif" font-size="10.00">IEffectComponent</text>
<text text-anchor="start" x="177.5" y="-343.5" font-family="Helvetica,sans-Serif" font-size="10.00"> </text>
<text text-anchor="start" x="177.5" y="-328.5" font-family="Helvetica,sans-Serif" font-size="10.00"> </text>
<polygon fill="#666666" stroke="#666666" points="130.5,-353.5 130.5,-353.5 228.5,-353.5 228.5,-353.5 130.5,-353.5"/>
<polygon fill="#666666" stroke="#666666" points="130.5,-338.5 130.5,-338.5 228.5,-338.5 228.5,-338.5 130.5,-338.5"/>
<polygon fill="none" stroke="#666666" points="130.5,-322 130.5,-371 228.5,-371 228.5,-322 130.5,-322"/>
</a>
</g>
</g>
<!-- Node3&#45;&gt;Node2 -->
<g id="edge2_Node000002_Node000003" class="edge">
<title>Node3&#45;&gt;Node2</title>
<g id="a_edge2_Node000002_Node000003"><a xlink:title=" ">
<path fill="none" stroke="#63b8ff" d="M179.5,-311.54C179.5,-303.2 179.5,-294.31 179.5,-286.11"/>
<polygon fill="none" stroke="#63b8ff" points="176,-311.72 179.5,-321.72 183,-311.72 176,-311.72"/>
</a>
</g>
</g>
</g>
</svg>
</svg>

<style type='text/css'>
<![CDATA[
[data-mouse-over-selected='false'] { opacity: 0.7; }
[data-mouse-over-selected='true']  { opacity: 1.0; }
]]>
</style>
<script type="application/ecmascript"><![CDATA[
document.addEventListener('DOMContentLoaded', (event) => {
  highlightEdges();
  highlightAdjacentNodes();
});
]]></script>
</svg>
