<?xml version="1.0" encoding="UTF-8" standalone="no"?>
<!DOCTYPE svg PUBLIC "-//W3C//DTD SVG 1.1//EN"
 "http://www.w3.org/Graphics/SVG/1.1/DTD/svg11.dtd">
<!-- Generated by graphviz version 2.43.0 (0)
 -->
<!-- Title: Guildmaster.Core.Simulation.ISimCommand Pages: 1 -->
<!--zoomable 275 -->

<svg id="main" version="1.1" xmlns="http://www.w3.org/2000/svg" xmlns:xlink="http://www.w3.org/1999/xlink" xml:space="preserve" onload="init(evt)">
<style type="text/css"><![CDATA[
.node, .edge {opacity: 0.7;}
.node.selected, .edge.selected {opacity: 1;}
.edge:hover path { stroke: red; }
.edge:hover polygon { stroke: red; fill: red; }
]]></style>

<defs>
  <circle id="rim" cx="0" cy="0" r="7"/>
  <circle id="rim2" cx="0" cy="0" r="3.5"/>
  <g id="zoomPlus">
    <use xlink:href="#rim" fill="#404040"><set attributeName="fill" to="#808080" begin="zoomplus.mouseover" end="zoomplus.mouseout"/></use>
    <path d="M-4,0h8M0,-4v8" fill="none" stroke="white" stroke-width="1.5" pointer-events="none"/>
  </g>
  <g id="zoomMin">
    <use xlink:href="#rim" fill="#404040"><set attributeName="fill" to="#808080" begin="zoomminus.mouseover" end="zoomminus.mouseout"/></use>
    <path d="M-4,0h8" fill="none" stroke="white" stroke-width="1.5" pointer-events="none"/>
  </g>
  <g id="arrowUp" transform="translate(30 24)">
    <use xlink:href="#rim"/>
    <path pointer-events="none" fill="none" stroke="white" stroke-width="1.5" d="M0,-3.0v7 M-2.5,-0.5L0,-3.0L2.5,-0.5"/>
  </g>
  <g id="arrowRight" transform="rotate(90) translate(36 -43)">
    <use xlink:href="#rim"/>
    <path pointer-events="none" fill="none" stroke="white" stroke-width="1.5" d="M0,-3.0v7 M-2.5,-0.5L0,-3.0L2.5,-0.5"/>
  </g>
  <g id="arrowDown" transform="rotate(180) translate(-30 -48)">
    <use xlink:href="#rim"/>
    <path pointer-events="none" fill="none" stroke="white" stroke-width="1.5" d="M0,-3.0v7 M-2.5,-0.5L0,-3.0L2.5,-0.5"/>
  </g>
  <g id="arrowLeft" transform="rotate(270) translate(-36 17)">
    <use xlink:href="#rim"/>
    <path pointer-events="none" fill="none" stroke="white" stroke-width="1.5" d="M0,-3.0v7 M-2.5,-0.5L0,-3.0L2.5,-0.5"/>
  </g>
  <g id="resetDef">
    <use xlink:href="#rim2" fill="#404040"><set attributeName="fill" to="#808080" begin="reset.mouseover" end="reset.mouseout"/></use>
  </g>
</defs>
<script type="application/ecmascript">
var viewWidth = 563;
var viewHeight = 275;
var sectionId = 'dynsection-0';
</script>
<script type="application/ecmascript" xlink:href="svg.min.js"/>
<svg id="graph" class="graph">
<g id="viewport">
<title>Guildmaster.Core.Simulation.ISimCommand</title>
<!-- Node1 -->
<g id="Node000001" class="node">
<title>Node1</title>
<g id="a_Node000001"><a xlink:title="Базовый контракт команды симуляции — упорядочивающий ключ для детерминированного применения на границ...">
<polygon fill="#999999" stroke="transparent" points="354.5,-267 200.5,-267 200.5,-207 354.5,-207 354.5,-267"/>
<text text-anchor="start" x="205.5" y="-255" font-family="Helvetica,sans-Serif" font-size="10.00">Guildmaster.Core.Simulation.</text>
<text text-anchor="start" x="241" y="-244" font-family="Helvetica,sans-Serif" font-size="10.00">ISimCommand</text>
<text text-anchor="start" x="225" y="-229" font-family="Helvetica,sans-Serif" font-size="10.00">+</text>
<text text-anchor="start" x="258.5" y="-229" font-family="Helvetica,sans-Serif" font-size="10.00">TargetTick</text>
<text text-anchor="start" x="275.5" y="-214" font-family="Helvetica,sans-Serif" font-size="10.00"> </text>
<polygon fill="#666666" stroke="#666666" points="200.5,-239 200.5,-239 354.5,-239 354.5,-239 200.5,-239"/>
<polygon fill="#666666" stroke="#666666" points="200.5,-224 200.5,-224 256.5,-224 256.5,-224 200.5,-224"/>
<polygon fill="#666666" stroke="#666666" points="256.5,-224 256.5,-224 354.5,-224 354.5,-224 256.5,-224"/>
<polygon fill="none" stroke="#666666" points="200.5,-207 200.5,-267 354.5,-267 354.5,-207 200.5,-207"/>
</a>
</g>
</g>
<!-- Node2 -->
<g id="Node000002" class="node">
<title>Node2</title>
<g id="a_Node000002"><a xlink:href="interfaceGuildmaster_1_1Combat_1_1ICombatCommand.html" target="_top" xlink:title="Расширяет ISimCommand слоем Combat: добавляет метод применения к симуляции.">
<polygon fill="white" stroke="transparent" points="355,-171 200,-171 200,-111 355,-111 355,-171"/>
<text text-anchor="start" x="205.5" y="-159" font-family="Helvetica,sans-Serif" font-size="10.00">Guildmaster.Combat.ICombat</text>
<text text-anchor="start" x="252.5" y="-148" font-family="Helvetica,sans-Serif" font-size="10.00">Command</text>
<text text-anchor="start" x="276" y="-133" font-family="Helvetica,sans-Serif" font-size="10.00"> </text>
<text text-anchor="start" x="229" y="-118" font-family="Helvetica,sans-Serif" font-size="10.00">+</text>
<text text-anchor="start" x="266.5" y="-118" font-family="Helvetica,sans-Serif" font-size="10.00">Apply()</text>
<polygon fill="#666666" stroke="#666666" points="200.5,-143 200.5,-143 355.5,-143 355.5,-143 200.5,-143"/>
<polygon fill="#666666" stroke="#666666" points="200.5,-128 200.5,-128 355.5,-128 355.5,-128 200.5,-128"/>
<polygon fill="none" stroke="#666666" points="200,-111 200,-171 355,-171 355,-111 200,-111"/>
</a>
</g>
</g>
<!-- Node1&#45;&gt;Node2 -->
<g id="edge1_Node000001_Node000002" class="edge">
<title>Node1&#45;&gt;Node2</title>
<g id="a_edge1_Node000001_Node000002"><a xlink:title=" ">
<path fill="none" stroke="#63b8ff" d="M277.5,-196.63C277.5,-188.11 277.5,-179.25 277.5,-171.21"/>
<polygon fill="none" stroke="#63b8ff" points="274,-196.77 277.5,-206.77 281,-196.77 274,-196.77"/>
</a>
</g>
</g>
<!-- Node3 -->
<g id="Node000003" class="node">
<title>Node3</title>
<g id="a_Node000003"><a xlink:href="classGuildmaster_1_1Combat_1_1Commands_1_1PauseCommand.html" target="_top" xlink:title="Ставит симуляцию боя на паузу на указанном тике.">
<polygon fill="white" stroke="transparent" points="173,-75 0,-75 0,0 173,0 173,-75"/>
<text text-anchor="start" x="5.5" y="-62.5" font-family="Helvetica,sans-Serif" font-size="10.00">Guildmaster.Combat.Commands.</text>
<text text-anchor="start" x="47.5" y="-51.5" font-family="Helvetica,sans-Serif" font-size="10.00">PauseCommand</text>
<text text-anchor="start" x="20.5" y="-36.5" font-family="Helvetica,sans-Serif" font-size="10.00">+</text>
<text text-anchor="start" x="49.5" y="-36.5" font-family="Helvetica,sans-Serif" font-size="10.00">TargetTick</text>
<text text-anchor="start" x="20.5" y="-21.5" font-family="Helvetica,sans-Serif" font-size="10.00">+</text>
<text text-anchor="start" x="49.5" y="-21.5" font-family="Helvetica,sans-Serif" font-size="10.00">PauseCommand()</text>
<text text-anchor="start" x="20.5" y="-6.5" font-family="Helvetica,sans-Serif" font-size="10.00">+</text>
<text text-anchor="start" x="49.5" y="-6.5" font-family="Helvetica,sans-Serif" font-size="10.00">Apply()</text>
<polygon fill="#666666" stroke="#666666" points="0.5,-46.5 0.5,-46.5 173.5,-46.5 173.5,-46.5 0.5,-46.5"/>
<polygon fill="#666666" stroke="#666666" points="0.5,-31.5 0.5,-31.5 47.5,-31.5 47.5,-31.5 0.5,-31.5"/>
<polygon fill="#666666" stroke="#666666" points="47.5,-31.5 47.5,-31.5 173.5,-31.5 173.5,-31.5 47.5,-31.5"/>
<polygon fill="none" stroke="#666666" points="0,0 0,-75 173,-75 173,0 0,0"/>
</a>
</g>
</g>
<!-- Node2&#45;&gt;Node3 -->
<g id="edge2_Node000002_Node000003" class="edge">
<title>Node2&#45;&gt;Node3</title>
<g id="a_edge2_Node000002_Node000003"><a xlink:title=" ">
<path fill="none" stroke="#63b8ff" d="M213.71,-106.1C194.92,-96.11 174.28,-85.15 155.2,-75.01"/>
<polygon fill="none" stroke="#63b8ff" points="212.29,-109.31 222.77,-110.91 215.58,-103.13 212.29,-109.31"/>
</a>
</g>
</g>
<!-- Node4 -->
<g id="Node000004" class="node">
<title>Node4</title>
<g id="a_Node000004"><a xlink:href="classGuildmaster_1_1Combat_1_1Commands_1_1ResumeCommand.html" target="_top" xlink:title="Снимает симуляцию боя с паузы на указанном тике.">
<polygon fill="white" stroke="transparent" points="364,-75 191,-75 191,0 364,0 364,-75"/>
<text text-anchor="start" x="196.5" y="-62.5" font-family="Helvetica,sans-Serif" font-size="10.00">Guildmaster.Combat.Commands.</text>
<text text-anchor="start" x="232.5" y="-51.5" font-family="Helvetica,sans-Serif" font-size="10.00">ResumeCommand</text>
<text text-anchor="start" x="209" y="-36.5" font-family="Helvetica,sans-Serif" font-size="10.00">+</text>
<text text-anchor="start" x="235.5" y="-36.5" font-family="Helvetica,sans-Serif" font-size="10.00">TargetTick</text>
<text text-anchor="start" x="209" y="-21.5" font-family="Helvetica,sans-Serif" font-size="10.00">+</text>
<text text-anchor="start" x="235.5" y="-21.5" font-family="Helvetica,sans-Serif" font-size="10.00">ResumeCommand()</text>
<text text-anchor="start" x="209" y="-6.5" font-family="Helvetica,sans-Serif" font-size="10.00">+</text>
<text text-anchor="start" x="235.5" y="-6.5" font-family="Helvetica,sans-Serif" font-size="10.00">Apply()</text>
<polygon fill="#666666" stroke="#666666" points="191.5,-46.5 191.5,-46.5 364.5,-46.5 364.5,-46.5 191.5,-46.5"/>
<polygon fill="#666666" stroke="#666666" points="191.5,-31.5 191.5,-31.5 233.5,-31.5 233.5,-31.5 191.5,-31.5"/>
<polygon fill="#666666" stroke="#666666" points="233.5,-31.5 233.5,-31.5 364.5,-31.5 364.5,-31.5 233.5,-31.5"/>
<polygon fill="none" stroke="#666666" points="191,0 191,-75 364,-75 364,0 191,0"/>
</a>
</g>
</g>
<!-- Node2&#45;&gt;Node4 -->
<g id="edge3_Node000002_Node000004" class="edge">
<title>Node2&#45;&gt;Node4</title>
<g id="a_edge3_Node000002_Node000004"><a xlink:title=" ">
<path fill="none" stroke="#63b8ff" d="M277.5,-100.9C277.5,-92.45 277.5,-83.55 277.5,-75.19"/>
<polygon fill="none" stroke="#63b8ff" points="274,-100.91 277.5,-110.91 281,-100.91 274,-100.91"/>
</a>
</g>
</g>
<!-- Node5 -->
<g id="Node000005" class="node">
<title>Node5</title>
<g id="a_Node000005"><a xlink:href="classGuildmaster_1_1Combat_1_1Commands_1_1SpawnUnitCommand.html" target="_top" xlink:title="Добавляет предварительно созданного юнита в симуляцию на указанном тике.">
<polygon fill="white" stroke="transparent" points="555,-75 382,-75 382,0 555,0 555,-75"/>
<text text-anchor="start" x="387.5" y="-62.5" font-family="Helvetica,sans-Serif" font-size="10.00">Guildmaster.Combat.Commands.</text>
<text text-anchor="start" x="417.5" y="-51.5" font-family="Helvetica,sans-Serif" font-size="10.00">SpawnUnitCommand</text>
<text text-anchor="start" x="396.5" y="-36.5" font-family="Helvetica,sans-Serif" font-size="10.00">+</text>
<text text-anchor="start" x="419.5" y="-36.5" font-family="Helvetica,sans-Serif" font-size="10.00">TargetTick</text>
<text text-anchor="start" x="396.5" y="-21.5" font-family="Helvetica,sans-Serif" font-size="10.00">+</text>
<text text-anchor="start" x="419.5" y="-21.5" font-family="Helvetica,sans-Serif" font-size="10.00">SpawnUnitCommand()</text>
<text text-anchor="start" x="396.5" y="-6.5" font-family="Helvetica,sans-Serif" font-size="10.00">+</text>
<text text-anchor="start" x="419.5" y="-6.5" font-family="Helvetica,sans-Serif" font-size="10.00">Apply()</text>
<polygon fill="#666666" stroke="#666666" points="382.5,-46.5 382.5,-46.5 555.5,-46.5 555.5,-46.5 382.5,-46.5"/>
<polygon fill="#666666" stroke="#666666" points="382.5,-31.5 382.5,-31.5 417.5,-31.5 417.5,-31.5 382.5,-31.5"/>
<polygon fill="#666666" stroke="#666666" points="417.5,-31.5 417.5,-31.5 555.5,-31.5 555.5,-31.5 417.5,-31.5"/>
<polygon fill="none" stroke="#666666" points="382,0 382,-75 555,-75 555,0 382,0"/>
</a>
</g>
</g>
<!-- Node2&#45;&gt;Node5 -->
<g id="edge4_Node000002_Node000005" class="edge">
<title>Node2&#45;&gt;Node5</title>
<g id="a_edge4_Node000002_Node000005"><a xlink:title=" ">
<path fill="none" stroke="#63b8ff" d="M341.29,-106.1C360.08,-96.11 380.72,-85.15 399.8,-75.01"/>
<polygon fill="none" stroke="#63b8ff" points="339.42,-103.13 332.23,-110.91 342.71,-109.31 339.42,-103.13"/>
</a>
</g>
</g>
</g>
</svg>

<g id="navigator" transform="translate(0 0)" fill="#404254">
  <rect fill="#f2f5e9" fill-opacity="0.5" stroke="#606060" stroke-width=".5" x="0" y="0" width="60" height="60"/>
  <use id="zoomplus" xlink:href="#zoomPlus" x="17" y="9" onmousedown="handleZoom(evt,'in')"/>
  <use id="zoomminus" xlink:href="#zoomMin" x="42" y="9" onmousedown="handleZoom(evt,'out')"/>
  <use id="reset" xlink:href="#resetDef" x="30" y="36" onmousedown="handleReset()"/>
   <use id="arrowup" xlink:href="#arrowUp" x="0" y="0" onmousedown="handlePan(0,-1)"/>
  <use id="arrowright" xlink:href="#arrowRight" x="0" y="0" onmousedown="handlePan(1,0)"/>
  <use id="arrowdown" xlink:href="#arrowDown" x="0" y="0" onmousedown="handlePan(0,1)"/>
  <use id="arrowleft" xlink:href="#arrowLeft" x="0" y="0" onmousedown="handlePan(-1,0)"/>
</g>
<svg viewBox="0 0 15 15" width="100%" height="30px" preserveAspectRatio="xMaxYMin meet">
 <g id="arrow_out" transform="scale(0.3 0.3)">
  <a xlink:href="interfaceGuildmaster_1_1Core_1_1Simulation_1_1ISimCommand__inherit__graph_org.svg" target="_base">
   <rect id="button" ry="5" rx="5" y="6" x="6" height="38" width="38"
        fill="#f2f5e9" fill-opacity="0.5" stroke="#606060" stroke-width="1.0"/>
   <path id="arrow"
     d="M 11.500037,31.436501 C 11.940474,20.09759 22.043105,11.32322 32.158766,21.979434 L 37.068811,17.246167 C 37.068811,17.246167 37.088388,32 37.088388,32 L 22.160133,31.978069 C 22.160133,31.978069 26.997745,27.140456 26.997745,27.140456 C 18.528582,18.264221 13.291696,25.230495 11.500037,31.436501 z"
     style="fill:#404040;"/>
  </a>
 </g>
</svg>

<style type='text/css'>
<![CDATA[
[data-mouse-over-selected='false'] { opacity: 0.7; }
[data-mouse-over-selected='true']  { opacity: 1.0; }
]]>
</style>
<script type="application/ecmascript"><![CDATA[
document.addEventListener('DOMContentLoaded', (event) => {
  highlightEdges();
  highlightAdjacentNodes();
});
]]></script>
</svg>
