<?xml version="1.0" encoding="UTF-8" standalone="no"?>
<!DOCTYPE svg PUBLIC "-//W3C//DTD SVG 1.1//EN"
 "http://www.w3.org/Graphics/SVG/1.1/DTD/svg11.dtd">
<!-- Generated by graphviz version 2.43.0 (0)
 -->
<!-- Title: Guildmaster.Core.IUnit Pages: 1 -->
<svg width="154pt" height="397pt"
 viewBox="0.00 0.00 154.00 397.00" xmlns="http://www.w3.org/2000/svg" xmlns:xlink="http://www.w3.org/1999/xlink">

<svg id="main" version="1.1" xmlns="http://www.w3.org/2000/svg" xmlns:xlink="http://www.w3.org/1999/xlink" xml:space="preserve" onload="init(evt)">
<style type="text/css"><![CDATA[
.node, .edge {opacity: 0.7;}
.node.selected, .edge.selected {opacity: 1;}
.edge:hover path { stroke: red; }
.edge:hover polygon { stroke: red; fill: red; }
]]></style>
<script type="application/ecmascript" xlink:href="svg.min.js"/>
<svg id="graph" class="graph">
<g id="graph0" class="graph" transform="scale(1 1) rotate(0) translate(4 393)">
<title>Guildmaster.Core.IUnit</title>
<!-- Node1 -->
<g id="Node000001" class="node">
<title>Node1</title>
<g id="a_Node000001"><a xlink:title="Общий контракт для всех боевых единиц на поле боя.">
<polygon fill="#999999" stroke="transparent" points="134,-389 12,-389 12,-235 134,-235 134,-389"/>
<text text-anchor="start" x="17" y="-377" font-family="Helvetica,sans-Serif" font-size="10.00">Guildmaster.Core.IUnit</text>
<text text-anchor="start" x="23.5" y="-362" font-family="Helvetica,sans-Serif" font-size="10.00">+</text>
<text text-anchor="start" x="44" y="-362" font-family="Helvetica,sans-Serif" font-size="10.00">Id</text>
<text text-anchor="start" x="23.5" y="-347" font-family="Helvetica,sans-Serif" font-size="10.00">+</text>
<text text-anchor="start" x="44" y="-347" font-family="Helvetica,sans-Serif" font-size="10.00">DisplayName</text>
<text text-anchor="start" x="23.5" y="-332" font-family="Helvetica,sans-Serif" font-size="10.00">+</text>
<text text-anchor="start" x="44" y="-332" font-family="Helvetica,sans-Serif" font-size="10.00">CurrentHealth</text>
<text text-anchor="start" x="23.5" y="-317" font-family="Helvetica,sans-Serif" font-size="10.00">+</text>
<text text-anchor="start" x="44" y="-317" font-family="Helvetica,sans-Serif" font-size="10.00">MaxHealth</text>
<text text-anchor="start" x="23.5" y="-302" font-family="Helvetica,sans-Serif" font-size="10.00">+</text>
<text text-anchor="start" x="44" y="-302" font-family="Helvetica,sans-Serif" font-size="10.00">IsAlive</text>
<text text-anchor="start" x="23.5" y="-287" font-family="Helvetica,sans-Serif" font-size="10.00">+</text>
<text text-anchor="start" x="44" y="-287" font-family="Helvetica,sans-Serif" font-size="10.00">GridPosition</text>
<text text-anchor="start" x="23.5" y="-272" font-family="Helvetica,sans-Serif" font-size="10.00">+</text>
<text text-anchor="start" x="44" y="-272" font-family="Helvetica,sans-Serif" font-size="10.00">TakeDamage()</text>
<text text-anchor="start" x="23.5" y="-257" font-family="Helvetica,sans-Serif" font-size="10.00">+</text>
<text text-anchor="start" x="44" y="-257" font-family="Helvetica,sans-Serif" font-size="10.00">Heal()</text>
<text text-anchor="start" x="23.5" y="-242" font-family="Helvetica,sans-Serif" font-size="10.00">+</text>
<text text-anchor="start" x="44" y="-242" font-family="Helvetica,sans-Serif" font-size="10.00">Die()</text>
<polygon fill="#666666" stroke="#666666" points="12,-372 12,-372 134,-372 134,-372 12,-372"/>
<polygon fill="#666666" stroke="#666666" points="12,-282 12,-282 42,-282 42,-282 12,-282"/>
<polygon fill="#666666" stroke="#666666" points="42,-282 42,-282 134,-282 134,-282 42,-282"/>
<polygon fill="none" stroke="#666666" points="12,-235 12,-389 134,-389 134,-235 12,-235"/>
</a>
</g>
</g>
<!-- Node2 -->
<g id="Node000002" class="node">
<title>Node2</title>
<g id="a_Node000002"><a xlink:href="classGuildmaster_1_1Units_1_1BaseUnit.html" target="_top" xlink:title="Базовая реализация боевой единицы.">
<polygon fill="white" stroke="transparent" points="146,-199 0,-199 0,0 146,0 146,-199"/>
<text text-anchor="start" x="5" y="-186.5" font-family="Helvetica,sans-Serif" font-size="10.00">Guildmaster.Units.BaseUnit</text>
<text text-anchor="start" x="17.5" y="-171.5" font-family="Helvetica,sans-Serif" font-size="10.00">+</text>
<text text-anchor="start" x="44" y="-171.5" font-family="Helvetica,sans-Serif" font-size="10.00">Id</text>
<text text-anchor="start" x="17.5" y="-156.5" font-family="Helvetica,sans-Serif" font-size="10.00">+</text>
<text text-anchor="start" x="44" y="-156.5" font-family="Helvetica,sans-Serif" font-size="10.00">DisplayName</text>
<text text-anchor="start" x="17.5" y="-141.5" font-family="Helvetica,sans-Serif" font-size="10.00">+</text>
<text text-anchor="start" x="44" y="-141.5" font-family="Helvetica,sans-Serif" font-size="10.00">CurrentHealth</text>
<text text-anchor="start" x="17.5" y="-126.5" font-family="Helvetica,sans-Serif" font-size="10.00">+</text>
<text text-anchor="start" x="44" y="-126.5" font-family="Helvetica,sans-Serif" font-size="10.00">MaxHealth</text>
<text text-anchor="start" x="17.5" y="-111.5" font-family="Helvetica,sans-Serif" font-size="10.00">+</text>
<text text-anchor="start" x="44" y="-111.5" font-family="Helvetica,sans-Serif" font-size="10.00">IsAlive</text>
<text text-anchor="start" x="17.5" y="-96.5" font-family="Helvetica,sans-Serif" font-size="10.00">+</text>
<text text-anchor="start" x="44" y="-96.5" font-family="Helvetica,sans-Serif" font-size="10.00">GridPosition</text>
<text text-anchor="start" x="17.5" y="-81.5" font-family="Helvetica,sans-Serif" font-size="10.00">+</text>
<text text-anchor="start" x="44" y="-81.5" font-family="Helvetica,sans-Serif" font-size="10.00">Initialize()</text>
<text text-anchor="start" x="17.5" y="-66.5" font-family="Helvetica,sans-Serif" font-size="10.00">+</text>
<text text-anchor="start" x="44" y="-66.5" font-family="Helvetica,sans-Serif" font-size="10.00">TakeDamage()</text>
<text text-anchor="start" x="17.5" y="-51.5" font-family="Helvetica,sans-Serif" font-size="10.00">+</text>
<text text-anchor="start" x="44" y="-51.5" font-family="Helvetica,sans-Serif" font-size="10.00">Heal()</text>
<text text-anchor="start" x="17.5" y="-36.5" font-family="Helvetica,sans-Serif" font-size="10.00">+</text>
<text text-anchor="start" x="44" y="-36.5" font-family="Helvetica,sans-Serif" font-size="10.00">Die()</text>
<text text-anchor="start" x="17.5" y="-21.5" font-family="Helvetica,sans-Serif" font-size="10.00">+</text>
<text text-anchor="start" x="44" y="-21.5" font-family="Helvetica,sans-Serif" font-size="10.00">MoveTo()</text>
<text text-anchor="start" x="17.5" y="-6.5" font-family="Helvetica,sans-Serif" font-size="10.00">#</text>
<text text-anchor="start" x="44" y="-6.5" font-family="Helvetica,sans-Serif" font-size="10.00">Awake()</text>
<polygon fill="#666666" stroke="#666666" points="0,-181.5 0,-181.5 146,-181.5 146,-181.5 0,-181.5"/>
<polygon fill="#666666" stroke="#666666" points="0,-91.5 0,-91.5 42,-91.5 42,-91.5 0,-91.5"/>
<polygon fill="#666666" stroke="#666666" points="42,-91.5 42,-91.5 146,-91.5 146,-91.5 42,-91.5"/>
<polygon fill="none" stroke="#666666" points="0,0 0,-199 146,-199 146,0 0,0"/>
</a>
</g>
</g>
<!-- Node1&#45;&gt;Node2 -->
<g id="edge1_Node000001_Node000002" class="edge">
<title>Node1&#45;&gt;Node2</title>
<g id="a_edge1_Node000001_Node000002"><a xlink:title=" ">
<path fill="none" stroke="#63b8ff" d="M73,-224.6C73,-216.23 73,-207.7 73,-199.22"/>
<polygon fill="none" stroke="#63b8ff" points="69.5,-224.71 73,-234.71 76.5,-224.71 69.5,-224.71"/>
</a>
</g>
</g>
</g>
</svg>
</svg>

<style type='text/css'>
<![CDATA[
[data-mouse-over-selected='false'] { opacity: 0.7; }
[data-mouse-over-selected='true']  { opacity: 1.0; }
]]>
</style>
<script type="application/ecmascript"><![CDATA[
document.addEventListener('DOMContentLoaded', (event) => {
  highlightEdges();
  highlightAdjacentNodes();
});
]]></script>
</svg>
