<?xml version="1.0" encoding="UTF-8" standalone="no"?>
<!DOCTYPE svg PUBLIC "-//W3C//DTD SVG 1.1//EN"
 "http://www.w3.org/Graphics/SVG/1.1/DTD/svg11.dtd">
<!-- Generated by graphviz version 2.43.0 (0)
 -->
<!-- Title: Guildmaster.Combat.Effects.IPeriodicComponent Pages: 1 -->
<svg width="432pt" height="394pt"
 viewBox="0.00 0.00 431.50 394.00" xmlns="http://www.w3.org/2000/svg" xmlns:xlink="http://www.w3.org/1999/xlink">
<g id="graph0" class="graph" transform="scale(1 1) rotate(0) translate(4 390)">
<title>Guildmaster.Combat.Effects.IPeriodicComponent</title>
<!-- Node1 -->
<g id="Node000001" class="node">
<title>Node1</title>
<g id="a_Node000001"><a xlink:title="Периодический компонент: OnTick каждые Interval секунд (DoT/HoT/реген).">
<polygon fill="#999999" stroke="transparent" points="291,-201 141,-201 141,-141 291,-141 291,-201"/>
<text text-anchor="start" x="146" y="-189" font-family="Helvetica,sans-Serif" font-size="10.00">Guildmaster.Combat.Effects.</text>
<text text-anchor="start" x="166.5" y="-178" font-family="Helvetica,sans-Serif" font-size="10.00">IPeriodicComponent</text>
<text text-anchor="start" x="166.5" y="-163" font-family="Helvetica,sans-Serif" font-size="10.00">+</text>
<text text-anchor="start" x="201" y="-163" font-family="Helvetica,sans-Serif" font-size="10.00">Interval</text>
<text text-anchor="start" x="166.5" y="-148" font-family="Helvetica,sans-Serif" font-size="10.00">+</text>
<text text-anchor="start" x="201" y="-148" font-family="Helvetica,sans-Serif" font-size="10.00">OnTick()</text>
<polygon fill="#666666" stroke="#666666" points="141,-173 141,-173 291,-173 291,-173 141,-173"/>
<polygon fill="#666666" stroke="#666666" points="141,-158 141,-158 199,-158 199,-158 141,-158"/>
<polygon fill="#666666" stroke="#666666" points="199,-158 199,-158 291,-158 291,-158 199,-158"/>
<polygon fill="none" stroke="#666666" points="141,-141 141,-201 291,-201 291,-141 141,-141"/>
</a>
</g>
</g>
<!-- Node4 -->
<g id="Node000004" class="node">
<title>Node4</title>
<g id="a_Node000004"><a xlink:href="classGuildmaster_1_1Combat_1_1Effects_1_1Components_1_1PeriodicDamageComponent.html" target="_top" xlink:title="Периодический урон (DoT).">
<polygon fill="white" stroke="transparent" points="212,-105 0,-105 0,0 212,0 212,-105"/>
<text text-anchor="start" x="5" y="-92.5" font-family="Helvetica,sans-Serif" font-size="10.00">Guildmaster.Combat.Effects.</text>
<text text-anchor="start" x="5" y="-81.5" font-family="Helvetica,sans-Serif" font-size="10.00">Components.PeriodicDamageComponent</text>
<text text-anchor="start" x="38.5" y="-66.5" font-family="Helvetica,sans-Serif" font-size="10.00">+</text>
<text text-anchor="start" x="86" y="-66.5" font-family="Helvetica,sans-Serif" font-size="10.00">Interval</text>
<text text-anchor="start" x="38.5" y="-51.5" font-family="Helvetica,sans-Serif" font-size="10.00">+</text>
<text text-anchor="start" x="86" y="-51.5" font-family="Helvetica,sans-Serif" font-size="10.00">Potency</text>
<text text-anchor="start" x="38.5" y="-36.5" font-family="Helvetica,sans-Serif" font-size="10.00">+</text>
<text text-anchor="start" x="86" y="-36.5" font-family="Helvetica,sans-Serif" font-size="10.00">OnApply()</text>
<text text-anchor="start" x="38.5" y="-21.5" font-family="Helvetica,sans-Serif" font-size="10.00">+</text>
<text text-anchor="start" x="86" y="-21.5" font-family="Helvetica,sans-Serif" font-size="10.00">OnExpire()</text>
<text text-anchor="start" x="38.5" y="-6.5" font-family="Helvetica,sans-Serif" font-size="10.00">+</text>
<text text-anchor="start" x="86" y="-6.5" font-family="Helvetica,sans-Serif" font-size="10.00">OnTick()</text>
<polygon fill="#666666" stroke="#666666" points="0,-76.5 0,-76.5 212,-76.5 212,-76.5 0,-76.5"/>
<polygon fill="#666666" stroke="#666666" points="0,-46.5 0,-46.5 84,-46.5 84,-46.5 0,-46.5"/>
<polygon fill="#666666" stroke="#666666" points="84,-46.5 84,-46.5 212,-46.5 212,-46.5 84,-46.5"/>
<polygon fill="none" stroke="#666666" points="0,0 0,-105 212,-105 212,0 0,0"/>
</a>
</g>
</g>
<!-- Node1&#45;&gt;Node4 -->
<g id="edge3_Node000001_Node000004" class="edge">
<title>Node1&#45;&gt;Node4</title>
<g id="a_edge3_Node000001_Node000004"><a xlink:title=" ">
<path fill="none" stroke="#63b8ff" d="M181.62,-133.59C173.17,-124.63 163.95,-114.87 154.95,-105.34"/>
<polygon fill="none" stroke="#63b8ff" points="179.12,-136.03 188.53,-140.9 184.21,-131.23 179.12,-136.03"/>
</a>
</g>
</g>
<!-- Node5 -->
<g id="Node000005" class="node">
<title>Node5</title>
<g id="a_Node000005"><a xlink:href="classGuildmaster_1_1Combat_1_1Effects_1_1Components_1_1PeriodicHealComponent.html" target="_top" xlink:title="Периодическое исцеление (HoT).">
<polygon fill="white" stroke="transparent" points="423.5,-105 230.5,-105 230.5,0 423.5,0 423.5,-105"/>
<text text-anchor="start" x="236" y="-92.5" font-family="Helvetica,sans-Serif" font-size="10.00">Guildmaster.Combat.Effects.</text>
<text text-anchor="start" x="236" y="-81.5" font-family="Helvetica,sans-Serif" font-size="10.00">Components.PeriodicHealComponent</text>
<text text-anchor="start" x="265" y="-66.5" font-family="Helvetica,sans-Serif" font-size="10.00">+</text>
<text text-anchor="start" x="308" y="-66.5" font-family="Helvetica,sans-Serif" font-size="10.00">Interval</text>
<text text-anchor="start" x="265" y="-51.5" font-family="Helvetica,sans-Serif" font-size="10.00">+</text>
<text text-anchor="start" x="308" y="-51.5" font-family="Helvetica,sans-Serif" font-size="10.00">Potency</text>
<text text-anchor="start" x="265" y="-36.5" font-family="Helvetica,sans-Serif" font-size="10.00">+</text>
<text text-anchor="start" x="308" y="-36.5" font-family="Helvetica,sans-Serif" font-size="10.00">OnApply()</text>
<text text-anchor="start" x="265" y="-21.5" font-family="Helvetica,sans-Serif" font-size="10.00">+</text>
<text text-anchor="start" x="308" y="-21.5" font-family="Helvetica,sans-Serif" font-size="10.00">OnExpire()</text>
<text text-anchor="start" x="265" y="-6.5" font-family="Helvetica,sans-Serif" font-size="10.00">+</text>
<text text-anchor="start" x="308" y="-6.5" font-family="Helvetica,sans-Serif" font-size="10.00">OnTick()</text>
<polygon fill="#666666" stroke="#666666" points="231,-76.5 231,-76.5 424,-76.5 424,-76.5 231,-76.5"/>
<polygon fill="#666666" stroke="#666666" points="231,-46.5 231,-46.5 306,-46.5 306,-46.5 231,-46.5"/>
<polygon fill="#666666" stroke="#666666" points="306,-46.5 306,-46.5 424,-46.5 424,-46.5 306,-46.5"/>
<polygon fill="none" stroke="#666666" points="230.5,0 230.5,-105 423.5,-105 423.5,0 230.5,0"/>
</a>
</g>
</g>
<!-- Node1&#45;&gt;Node5 -->
<g id="edge4_Node000001_Node000005" class="edge">
<title>Node1&#45;&gt;Node5</title>
<g id="a_edge4_Node000001_Node000005"><a xlink:title=" ">
<path fill="none" stroke="#63b8ff" d="M250.69,-133.59C259.22,-124.63 268.53,-114.87 277.61,-105.34"/>
<polygon fill="none" stroke="#63b8ff" points="248.09,-131.25 243.72,-140.9 253.16,-136.08 248.09,-131.25"/>
</a>
</g>
</g>
<!-- Node2 -->
<g id="Node000002" class="node">
<title>Node2</title>
<g id="a_Node000002"><a xlink:href="interfaceGuildmaster_1_1Combat_1_1Effects_1_1IRuntimeEffectComponent.html" target="_top" xlink:title="Рантайм&#45;контракт поведения эффекта.">
<polygon fill="white" stroke="transparent" points="285.5,-301 146.5,-301 146.5,-237 285.5,-237 285.5,-301"/>
<text text-anchor="start" x="152" y="-289" font-family="Helvetica,sans-Serif" font-size="10.00">IRuntimeEffectComponent</text>
<text text-anchor="start" x="214.5" y="-274" font-family="Helvetica,sans-Serif" font-size="10.00"> </text>
<text text-anchor="start" x="167.5" y="-259" font-family="Helvetica,sans-Serif" font-size="10.00">+</text>
<text text-anchor="start" x="197" y="-259" font-family="Helvetica,sans-Serif" font-size="10.00">OnApply()</text>
<text text-anchor="start" x="167.5" y="-244" font-family="Helvetica,sans-Serif" font-size="10.00">+</text>
<text text-anchor="start" x="197" y="-244" font-family="Helvetica,sans-Serif" font-size="10.00">OnExpire()</text>
<polygon fill="#666666" stroke="#666666" points="147,-284 147,-284 286,-284 286,-284 147,-284"/>
<polygon fill="#666666" stroke="#666666" points="147,-269 147,-269 286,-269 286,-269 147,-269"/>
<polygon fill="none" stroke="#666666" points="146.5,-237 146.5,-301 285.5,-301 285.5,-237 146.5,-237"/>
</a>
</g>
</g>
<!-- Node2&#45;&gt;Node1 -->
<g id="edge1_Node000001_Node000002" class="edge">
<title>Node2&#45;&gt;Node1</title>
<g id="a_edge1_Node000001_Node000002"><a xlink:title=" ">
<path fill="none" stroke="#63b8ff" d="M216,-226.57C216,-217.97 216,-209.09 216,-201.06"/>
<polygon fill="none" stroke="#63b8ff" points="212.5,-226.83 216,-236.83 219.5,-226.83 212.5,-226.83"/>
</a>
</g>
</g>
<!-- Node3 -->
<g id="Node000003" class="node">
<title>Node3</title>
<g id="a_Node000003"><a xlink:href="interfaceGuildmaster_1_1Data_1_1Definitions_1_1IEffectComponent.html" target="_top" xlink:title="Якорь полиморфного поведения эффекта для сериализации.">
<polygon fill="white" stroke="transparent" points="265,-386 167,-386 167,-337 265,-337 265,-386"/>
<text text-anchor="start" x="172" y="-373.5" font-family="Helvetica,sans-Serif" font-size="10.00">IEffectComponent</text>
<text text-anchor="start" x="214" y="-358.5" font-family="Helvetica,sans-Serif" font-size="10.00"> </text>
<text text-anchor="start" x="214" y="-343.5" font-family="Helvetica,sans-Serif" font-size="10.00"> </text>
<polygon fill="#666666" stroke="#666666" points="167,-368.5 167,-368.5 265,-368.5 265,-368.5 167,-368.5"/>
<polygon fill="#666666" stroke="#666666" points="167,-353.5 167,-353.5 265,-353.5 265,-353.5 167,-353.5"/>
<polygon fill="none" stroke="#666666" points="167,-337 167,-386 265,-386 265,-337 167,-337"/>
</a>
</g>
</g>
<!-- Node3&#45;&gt;Node2 -->
<g id="edge2_Node000002_Node000003" class="edge">
<title>Node3&#45;&gt;Node2</title>
<g id="a_edge2_Node000002_Node000003"><a xlink:title=" ">
<path fill="none" stroke="#63b8ff" d="M216,-326.54C216,-318.2 216,-309.31 216,-301.11"/>
<polygon fill="none" stroke="#63b8ff" points="212.5,-326.72 216,-336.72 219.5,-326.72 212.5,-326.72"/>
</a>
</g>
</g>
</g>
</svg>
