<?xml version="1.0" encoding="UTF-8" standalone="no"?>
<!DOCTYPE svg PUBLIC "-//W3C//DTD SVG 1.1//EN"
 "http://www.w3.org/Graphics/SVG/1.1/DTD/svg11.dtd">
<!-- Generated by graphviz version 2.43.0 (0)
 -->
<!-- Title: Guildmaster.Combat.Effects.IReactiveComponent Pages: 1 -->
<svg width="158pt" height="253pt"
 viewBox="0.00 0.00 158.00 253.00" xmlns="http://www.w3.org/2000/svg" xmlns:xlink="http://www.w3.org/1999/xlink">
<g id="graph0" class="graph" transform="scale(1 1) rotate(0) translate(4 249)">
<title>Guildmaster.Combat.Effects.IReactiveComponent</title>
<!-- Node1 -->
<g id="Node000001" class="node">
<title>Node1</title>
<g id="a_Node000001"><a xlink:title="Реактивный компонент: реагирует на боевые события (вампиризм/шипы). Диспатч — внутренняя FIFO&#45;очередь...">
<polygon fill="#999999" stroke="transparent" points="150,-60 0,-60 0,0 150,0 150,-60"/>
<text text-anchor="start" x="5" y="-48" font-family="Helvetica,sans-Serif" font-size="10.00">Guildmaster.Combat.Effects.</text>
<text text-anchor="start" x="23.5" y="-37" font-family="Helvetica,sans-Serif" font-size="10.00">IReactiveComponent</text>
<text text-anchor="start" x="24" y="-22" font-family="Helvetica,sans-Serif" font-size="10.00">+</text>
<text text-anchor="start" x="57" y="-22" font-family="Helvetica,sans-Serif" font-size="10.00">Events</text>
<text text-anchor="start" x="24" y="-7" font-family="Helvetica,sans-Serif" font-size="10.00">+</text>
<text text-anchor="start" x="57" y="-7" font-family="Helvetica,sans-Serif" font-size="10.00">OnEvent()</text>
<polygon fill="#666666" stroke="#666666" points="0,-32 0,-32 150,-32 150,-32 0,-32"/>
<polygon fill="#666666" stroke="#666666" points="0,-17 0,-17 55,-17 55,-17 0,-17"/>
<polygon fill="#666666" stroke="#666666" points="55,-17 55,-17 150,-17 150,-17 55,-17"/>
<polygon fill="none" stroke="#666666" points="0,0 0,-60 150,-60 150,0 0,0"/>
</a>
</g>
</g>
<!-- Node2 -->
<g id="Node000002" class="node">
<title>Node2</title>
<g id="a_Node000002"><a xlink:href="interfaceGuildmaster_1_1Combat_1_1Effects_1_1IRuntimeEffectComponent.html" target="_top" xlink:title="Рантайм&#45;контракт поведения эффекта.">
<polygon fill="white" stroke="transparent" points="144.5,-160 5.5,-160 5.5,-96 144.5,-96 144.5,-160"/>
<text text-anchor="start" x="11" y="-148" font-family="Helvetica,sans-Serif" font-size="10.00">IRuntimeEffectComponent</text>
<text text-anchor="start" x="73.5" y="-133" font-family="Helvetica,sans-Serif" font-size="10.00"> </text>
<text text-anchor="start" x="26.5" y="-118" font-family="Helvetica,sans-Serif" font-size="10.00">+</text>
<text text-anchor="start" x="56" y="-118" font-family="Helvetica,sans-Serif" font-size="10.00">OnApply()</text>
<text text-anchor="start" x="26.5" y="-103" font-family="Helvetica,sans-Serif" font-size="10.00">+</text>
<text text-anchor="start" x="56" y="-103" font-family="Helvetica,sans-Serif" font-size="10.00">OnExpire()</text>
<polygon fill="#666666" stroke="#666666" points="6,-143 6,-143 145,-143 145,-143 6,-143"/>
<polygon fill="#666666" stroke="#666666" points="6,-128 6,-128 145,-128 145,-128 6,-128"/>
<polygon fill="none" stroke="#666666" points="5.5,-96 5.5,-160 144.5,-160 144.5,-96 5.5,-96"/>
</a>
</g>
</g>
<!-- Node2&#45;&gt;Node1 -->
<g id="edge1_Node000001_Node000002" class="edge">
<title>Node2&#45;&gt;Node1</title>
<g id="a_edge1_Node000001_Node000002"><a xlink:title=" ">
<path fill="none" stroke="#63b8ff" d="M75,-85.57C75,-76.97 75,-68.09 75,-60.06"/>
<polygon fill="none" stroke="#63b8ff" points="71.5,-85.83 75,-95.83 78.5,-85.83 71.5,-85.83"/>
</a>
</g>
</g>
<!-- Node3 -->
<g id="Node000003" class="node">
<title>Node3</title>
<g id="a_Node000003"><a xlink:href="interfaceGuildmaster_1_1Data_1_1Definitions_1_1IEffectComponent.html" target="_top" xlink:title="Якорь полиморфного поведения эффекта для сериализации.">
<polygon fill="white" stroke="transparent" points="124,-245 26,-245 26,-196 124,-196 124,-245"/>
<text text-anchor="start" x="31" y="-232.5" font-family="Helvetica,sans-Serif" font-size="10.00">IEffectComponent</text>
<text text-anchor="start" x="73" y="-217.5" font-family="Helvetica,sans-Serif" font-size="10.00"> </text>
<text text-anchor="start" x="73" y="-202.5" font-family="Helvetica,sans-Serif" font-size="10.00"> </text>
<polygon fill="#666666" stroke="#666666" points="26,-227.5 26,-227.5 124,-227.5 124,-227.5 26,-227.5"/>
<polygon fill="#666666" stroke="#666666" points="26,-212.5 26,-212.5 124,-212.5 124,-212.5 26,-212.5"/>
<polygon fill="none" stroke="#666666" points="26,-196 26,-245 124,-245 124,-196 26,-196"/>
</a>
</g>
</g>
<!-- Node3&#45;&gt;Node2 -->
<g id="edge2_Node000002_Node000003" class="edge">
<title>Node3&#45;&gt;Node2</title>
<g id="a_edge2_Node000002_Node000003"><a xlink:title=" ">
<path fill="none" stroke="#63b8ff" d="M75,-185.54C75,-177.2 75,-168.31 75,-160.11"/>
<polygon fill="none" stroke="#63b8ff" points="71.5,-185.72 75,-195.72 78.5,-185.72 71.5,-185.72"/>
</a>
</g>
</g>
</g>
</svg>
