<?xml version="1.0" encoding="UTF-8" standalone="no"?>
<!DOCTYPE svg PUBLIC "-//W3C//DTD SVG 1.1//EN"
 "http://www.w3.org/Graphics/SVG/1.1/DTD/svg11.dtd">
<!-- Generated by graphviz version 2.43.0 (0)
 -->
<!-- Title: Guildmaster.Combat.Effects.IScalablePotency Pages: 1 -->
<svg width="611pt" height="209pt"
 viewBox="0.00 0.00 610.50 209.00" xmlns="http://www.w3.org/2000/svg" xmlns:xlink="http://www.w3.org/1999/xlink">
<g id="graph0" class="graph" transform="scale(1 1) rotate(0) translate(4 205)">
<title>Guildmaster.Combat.Effects.IScalablePotency</title>
<!-- Node1 -->
<g id="Node000001" class="node">
<title>Node1</title>
<g id="a_Node000001"><a xlink:title="Опциональный шов: компонент объявляет масштабируемую потенцию.">
<polygon fill="#999999" stroke="transparent" points="402,-201 252,-201 252,-141 402,-141 402,-201"/>
<text text-anchor="start" x="257" y="-189" font-family="Helvetica,sans-Serif" font-size="10.00">Guildmaster.Combat.Effects.</text>
<text text-anchor="start" x="285" y="-178" font-family="Helvetica,sans-Serif" font-size="10.00">IScalablePotency</text>
<text text-anchor="start" x="278" y="-163" font-family="Helvetica,sans-Serif" font-size="10.00">+</text>
<text text-anchor="start" x="313" y="-163" font-family="Helvetica,sans-Serif" font-size="10.00">Potency</text>
<text text-anchor="start" x="325" y="-148" font-family="Helvetica,sans-Serif" font-size="10.00"> </text>
<polygon fill="#666666" stroke="#666666" points="252,-173 252,-173 402,-173 402,-173 252,-173"/>
<polygon fill="#666666" stroke="#666666" points="252,-158 252,-158 311,-158 311,-158 252,-158"/>
<polygon fill="#666666" stroke="#666666" points="311,-158 311,-158 402,-158 402,-158 311,-158"/>
<polygon fill="none" stroke="#666666" points="252,-141 252,-201 402,-201 402,-141 252,-141"/>
</a>
</g>
</g>
<!-- Node2 -->
<g id="Node000002" class="node">
<title>Node2</title>
<g id="a_Node000002"><a xlink:href="classGuildmaster_1_1Combat_1_1Effects_1_1Components_1_1PeriodicDamageComponent.html" target="_top" xlink:title="Периодический урон (DoT).">
<polygon fill="white" stroke="transparent" points="212,-105 0,-105 0,0 212,0 212,-105"/>
<text text-anchor="start" x="5" y="-92.5" font-family="Helvetica,sans-Serif" font-size="10.00">Guildmaster.Combat.Effects.</text>
<text text-anchor="start" x="5" y="-81.5" font-family="Helvetica,sans-Serif" font-size="10.00">Components.PeriodicDamageComponent</text>
<text text-anchor="start" x="38.5" y="-66.5" font-family="Helvetica,sans-Serif" font-size="10.00">+</text>
<text text-anchor="start" x="86" y="-66.5" font-family="Helvetica,sans-Serif" font-size="10.00">Interval</text>
<text text-anchor="start" x="38.5" y="-51.5" font-family="Helvetica,sans-Serif" font-size="10.00">+</text>
<text text-anchor="start" x="86" y="-51.5" font-family="Helvetica,sans-Serif" font-size="10.00">Potency</text>
<text text-anchor="start" x="38.5" y="-36.5" font-family="Helvetica,sans-Serif" font-size="10.00">+</text>
<text text-anchor="start" x="86" y="-36.5" font-family="Helvetica,sans-Serif" font-size="10.00">OnApply()</text>
<text text-anchor="start" x="38.5" y="-21.5" font-family="Helvetica,sans-Serif" font-size="10.00">+</text>
<text text-anchor="start" x="86" y="-21.5" font-family="Helvetica,sans-Serif" font-size="10.00">OnExpire()</text>
<text text-anchor="start" x="38.5" y="-6.5" font-family="Helvetica,sans-Serif" font-size="10.00">+</text>
<text text-anchor="start" x="86" y="-6.5" font-family="Helvetica,sans-Serif" font-size="10.00">OnTick()</text>
<polygon fill="#666666" stroke="#666666" points="0,-76.5 0,-76.5 212,-76.5 212,-76.5 0,-76.5"/>
<polygon fill="#666666" stroke="#666666" points="0,-46.5 0,-46.5 84,-46.5 84,-46.5 0,-46.5"/>
<polygon fill="#666666" stroke="#666666" points="84,-46.5 84,-46.5 212,-46.5 212,-46.5 84,-46.5"/>
<polygon fill="none" stroke="#666666" points="0,0 0,-105 212,-105 212,0 0,0"/>
</a>
</g>
</g>
<!-- Node1&#45;&gt;Node2 -->
<g id="edge1_Node000001_Node000002" class="edge">
<title>Node1&#45;&gt;Node2</title>
<g id="a_edge1_Node000001_Node000002"><a xlink:title=" ">
<path fill="none" stroke="#63b8ff" d="M262.93,-136.22C244.47,-126.5 223.91,-115.66 203.91,-105.11"/>
<polygon fill="none" stroke="#63b8ff" points="261.32,-139.34 271.8,-140.9 264.59,-133.14 261.32,-139.34"/>
</a>
</g>
</g>
<!-- Node3 -->
<g id="Node000003" class="node">
<title>Node3</title>
<g id="a_Node000003"><a xlink:href="classGuildmaster_1_1Combat_1_1Effects_1_1Components_1_1PeriodicHealComponent.html" target="_top" xlink:title="Периодическое исцеление (HoT).">
<polygon fill="white" stroke="transparent" points="423.5,-105 230.5,-105 230.5,0 423.5,0 423.5,-105"/>
<text text-anchor="start" x="236" y="-92.5" font-family="Helvetica,sans-Serif" font-size="10.00">Guildmaster.Combat.Effects.</text>
<text text-anchor="start" x="236" y="-81.5" font-family="Helvetica,sans-Serif" font-size="10.00">Components.PeriodicHealComponent</text>
<text text-anchor="start" x="265" y="-66.5" font-family="Helvetica,sans-Serif" font-size="10.00">+</text>
<text text-anchor="start" x="308" y="-66.5" font-family="Helvetica,sans-Serif" font-size="10.00">Interval</text>
<text text-anchor="start" x="265" y="-51.5" font-family="Helvetica,sans-Serif" font-size="10.00">+</text>
<text text-anchor="start" x="308" y="-51.5" font-family="Helvetica,sans-Serif" font-size="10.00">Potency</text>
<text text-anchor="start" x="265" y="-36.5" font-family="Helvetica,sans-Serif" font-size="10.00">+</text>
<text text-anchor="start" x="308" y="-36.5" font-family="Helvetica,sans-Serif" font-size="10.00">OnApply()</text>
<text text-anchor="start" x="265" y="-21.5" font-family="Helvetica,sans-Serif" font-size="10.00">+</text>
<text text-anchor="start" x="308" y="-21.5" font-family="Helvetica,sans-Serif" font-size="10.00">OnExpire()</text>
<text text-anchor="start" x="265" y="-6.5" font-family="Helvetica,sans-Serif" font-size="10.00">+</text>
<text text-anchor="start" x="308" y="-6.5" font-family="Helvetica,sans-Serif" font-size="10.00">OnTick()</text>
<polygon fill="#666666" stroke="#666666" points="231,-76.5 231,-76.5 424,-76.5 424,-76.5 231,-76.5"/>
<polygon fill="#666666" stroke="#666666" points="231,-46.5 231,-46.5 306,-46.5 306,-46.5 231,-46.5"/>
<polygon fill="#666666" stroke="#666666" points="306,-46.5 306,-46.5 424,-46.5 424,-46.5 306,-46.5"/>
<polygon fill="none" stroke="#666666" points="230.5,0 230.5,-105 423.5,-105 423.5,0 230.5,0"/>
</a>
</g>
</g>
<!-- Node1&#45;&gt;Node3 -->
<g id="edge2_Node000001_Node000003" class="edge">
<title>Node1&#45;&gt;Node3</title>
<g id="a_edge2_Node000001_Node000003"><a xlink:title=" ">
<path fill="none" stroke="#63b8ff" d="M327,-130.88C327,-122.68 327,-113.92 327,-105.34"/>
<polygon fill="none" stroke="#63b8ff" points="323.5,-130.9 327,-140.9 330.5,-130.9 323.5,-130.9"/>
</a>
</g>
</g>
<!-- Node4 -->
<g id="Node000004" class="node">
<title>Node4</title>
<g id="a_Node000004"><a xlink:href="classGuildmaster_1_1Combat_1_1Effects_1_1Components_1_1ShieldComponent.html" target="_top" xlink:title="Поглощающий щит.">
<polygon fill="white" stroke="transparent" points="602.5,-90 441.5,-90 441.5,-15 602.5,-15 602.5,-90"/>
<text text-anchor="start" x="447" y="-77.5" font-family="Helvetica,sans-Serif" font-size="10.00">Guildmaster.Combat.Effects.</text>
<text text-anchor="start" x="447" y="-66.5" font-family="Helvetica,sans-Serif" font-size="10.00">Components.ShieldComponent</text>
<text text-anchor="start" x="468" y="-51.5" font-family="Helvetica,sans-Serif" font-size="10.00">+</text>
<text text-anchor="start" x="503" y="-51.5" font-family="Helvetica,sans-Serif" font-size="10.00">Potency</text>
<text text-anchor="start" x="468" y="-36.5" font-family="Helvetica,sans-Serif" font-size="10.00">+</text>
<text text-anchor="start" x="503" y="-36.5" font-family="Helvetica,sans-Serif" font-size="10.00">OnApply()</text>
<text text-anchor="start" x="468" y="-21.5" font-family="Helvetica,sans-Serif" font-size="10.00">+</text>
<text text-anchor="start" x="503" y="-21.5" font-family="Helvetica,sans-Serif" font-size="10.00">OnExpire()</text>
<polygon fill="#666666" stroke="#666666" points="442,-61.5 442,-61.5 603,-61.5 603,-61.5 442,-61.5"/>
<polygon fill="#666666" stroke="#666666" points="442,-46.5 442,-46.5 501,-46.5 501,-46.5 442,-46.5"/>
<polygon fill="#666666" stroke="#666666" points="501,-46.5 501,-46.5 603,-46.5 603,-46.5 501,-46.5"/>
<polygon fill="none" stroke="#666666" points="441.5,-15 441.5,-90 602.5,-90 602.5,-15 441.5,-15"/>
</a>
</g>
</g>
<!-- Node1&#45;&gt;Node4 -->
<g id="edge3_Node000001_Node000004" class="edge">
<title>Node1&#45;&gt;Node4</title>
<g id="a_edge3_Node000001_Node000004"><a xlink:title=" ">
<path fill="none" stroke="#63b8ff" d="M384.35,-135.74C408.33,-121.41 436.24,-104.73 460.64,-90.16"/>
<polygon fill="none" stroke="#63b8ff" points="382.49,-132.77 375.7,-140.9 386.08,-138.78 382.49,-132.77"/>
</a>
</g>
</g>
</g>
</svg>
