<?xml version="1.0" encoding="UTF-8" standalone="no"?>
<!DOCTYPE svg PUBLIC "-//W3C//DTD SVG 1.1//EN"
 "http://www.w3.org/Graphics/SVG/1.1/DTD/svg11.dtd">
<!-- Generated by graphviz version 2.43.0 (0)
 -->
<!-- Title: Guildmaster.Combat.ICombatContext Pages: 1 -->
<svg width="163pt" height="509pt"
 viewBox="0.00 0.00 163.00 509.00" xmlns="http://www.w3.org/2000/svg" xmlns:xlink="http://www.w3.org/1999/xlink">
<g id="graph0" class="graph" transform="scale(1 1) rotate(0) translate(4 505)">
<title>Guildmaster.Combat.ICombatContext</title>
<!-- Node1 -->
<g id="Node000001" class="node">
<title>Node1</title>
<g id="a_Node000001"><a xlink:title="Шов «логика эффектов/способностей ↔ боевой мир».">
<polygon fill="#999999" stroke="transparent" points="155,-501 0,-501 0,-336 155,-336 155,-501"/>
<text text-anchor="start" x="5.5" y="-488.5" font-family="Helvetica,sans-Serif" font-size="10.00">Guildmaster.Combat.ICombat</text>
<text text-anchor="start" x="58.5" y="-477.5" font-family="Helvetica,sans-Serif" font-size="10.00">Context</text>
<text text-anchor="start" x="11.5" y="-462.5" font-family="Helvetica,sans-Serif" font-size="10.00">+</text>
<text text-anchor="start" x="31.5" y="-462.5" font-family="Helvetica,sans-Serif" font-size="10.00">Rng</text>
<text text-anchor="start" x="11.5" y="-447.5" font-family="Helvetica,sans-Serif" font-size="10.00">+</text>
<text text-anchor="start" x="31.5" y="-447.5" font-family="Helvetica,sans-Serif" font-size="10.00">CurrentTick</text>
<text text-anchor="start" x="11.5" y="-432.5" font-family="Helvetica,sans-Serif" font-size="10.00">+</text>
<text text-anchor="start" x="31.5" y="-432.5" font-family="Helvetica,sans-Serif" font-size="10.00">ArmorK</text>
<text text-anchor="start" x="11.5" y="-417.5" font-family="Helvetica,sans-Serif" font-size="10.00">+</text>
<text text-anchor="start" x="31.5" y="-417.5" font-family="Helvetica,sans-Serif" font-size="10.00">DealDamage()</text>
<text text-anchor="start" x="11.5" y="-402.5" font-family="Helvetica,sans-Serif" font-size="10.00">+</text>
<text text-anchor="start" x="31.5" y="-402.5" font-family="Helvetica,sans-Serif" font-size="10.00">Heal()</text>
<text text-anchor="start" x="11.5" y="-387.5" font-family="Helvetica,sans-Serif" font-size="10.00">+</text>
<text text-anchor="start" x="31.5" y="-387.5" font-family="Helvetica,sans-Serif" font-size="10.00">SpawnProjectile()</text>
<text text-anchor="start" x="11.5" y="-372.5" font-family="Helvetica,sans-Serif" font-size="10.00">+</text>
<text text-anchor="start" x="31.5" y="-372.5" font-family="Helvetica,sans-Serif" font-size="10.00">QueryUnitsInRadius()</text>
<text text-anchor="start" x="11.5" y="-357.5" font-family="Helvetica,sans-Serif" font-size="10.00">+</text>
<text text-anchor="start" x="31.5" y="-357.5" font-family="Helvetica,sans-Serif" font-size="10.00">ApplyEffect()</text>
<text text-anchor="start" x="11.5" y="-342.5" font-family="Helvetica,sans-Serif" font-size="10.00">+</text>
<text text-anchor="start" x="31.5" y="-342.5" font-family="Helvetica,sans-Serif" font-size="10.00">Dispel()</text>
<polygon fill="#666666" stroke="#666666" points="0.5,-472.5 0.5,-472.5 155.5,-472.5 155.5,-472.5 0.5,-472.5"/>
<polygon fill="#666666" stroke="#666666" points="0.5,-427.5 0.5,-427.5 29.5,-427.5 29.5,-427.5 0.5,-427.5"/>
<polygon fill="#666666" stroke="#666666" points="29.5,-427.5 29.5,-427.5 155.5,-427.5 155.5,-427.5 29.5,-427.5"/>
<polygon fill="none" stroke="#666666" points="0,-336 0,-501 155,-501 155,-336 0,-336"/>
</a>
</g>
</g>
<!-- Node2 -->
<g id="Node000002" class="node">
<title>Node2</title>
<g id="a_Node000002"><a xlink:href="classGuildmaster_1_1Combat_1_1CombatSimulation.html" target="_top" xlink:title="Детерминированная тиковая симуляция боя.">
<polygon fill="white" stroke="transparent" points="153.5,-300 1.5,-300 1.5,0 153.5,0 153.5,-300"/>
<text text-anchor="start" x="6.5" y="-288" font-family="Helvetica,sans-Serif" font-size="10.00">Guildmaster.Combat.Combat</text>
<text text-anchor="start" x="51" y="-277" font-family="Helvetica,sans-Serif" font-size="10.00">Simulation</text>
<text text-anchor="start" x="12" y="-262" font-family="Helvetica,sans-Serif" font-size="10.00">+</text>
<text text-anchor="start" x="31.5" y="-262" font-family="Helvetica,sans-Serif" font-size="10.00">Rng</text>
<text text-anchor="start" x="12" y="-247" font-family="Helvetica,sans-Serif" font-size="10.00">+</text>
<text text-anchor="start" x="31.5" y="-247" font-family="Helvetica,sans-Serif" font-size="10.00">CurrentTick</text>
<text text-anchor="start" x="12" y="-232" font-family="Helvetica,sans-Serif" font-size="10.00">+</text>
<text text-anchor="start" x="31.5" y="-232" font-family="Helvetica,sans-Serif" font-size="10.00">ArmorK</text>
<text text-anchor="start" x="12" y="-217" font-family="Helvetica,sans-Serif" font-size="10.00">+</text>
<text text-anchor="start" x="31.5" y="-217" font-family="Helvetica,sans-Serif" font-size="10.00">Units</text>
<text text-anchor="start" x="12" y="-202" font-family="Helvetica,sans-Serif" font-size="10.00">+</text>
<text text-anchor="start" x="31.5" y="-202" font-family="Helvetica,sans-Serif" font-size="10.00">Outcome</text>
<text text-anchor="start" x="12" y="-187" font-family="Helvetica,sans-Serif" font-size="10.00">+</text>
<text text-anchor="start" x="31.5" y="-187" font-family="Helvetica,sans-Serif" font-size="10.00">IsPaused</text>
<text text-anchor="start" x="12" y="-172" font-family="Helvetica,sans-Serif" font-size="10.00">+</text>
<text text-anchor="start" x="31.5" y="-172" font-family="Helvetica,sans-Serif" font-size="10.00">CombatSimulation()</text>
<text text-anchor="start" x="12" y="-157" font-family="Helvetica,sans-Serif" font-size="10.00">+</text>
<text text-anchor="start" x="31.5" y="-157" font-family="Helvetica,sans-Serif" font-size="10.00">Tick()</text>
<text text-anchor="start" x="12" y="-142" font-family="Helvetica,sans-Serif" font-size="10.00">+</text>
<text text-anchor="start" x="31.5" y="-142" font-family="Helvetica,sans-Serif" font-size="10.00">DealDamage()</text>
<text text-anchor="start" x="12" y="-127" font-family="Helvetica,sans-Serif" font-size="10.00">+</text>
<text text-anchor="start" x="31.5" y="-127" font-family="Helvetica,sans-Serif" font-size="10.00">Heal()</text>
<text text-anchor="start" x="12" y="-112" font-family="Helvetica,sans-Serif" font-size="10.00">+</text>
<text text-anchor="start" x="31.5" y="-112" font-family="Helvetica,sans-Serif" font-size="10.00">SpawnProjectile()</text>
<text text-anchor="start" x="12" y="-97" font-family="Helvetica,sans-Serif" font-size="10.00">+</text>
<text text-anchor="start" x="31.5" y="-97" font-family="Helvetica,sans-Serif" font-size="10.00">QueryUnitsInRadius()</text>
<text text-anchor="start" x="12" y="-82" font-family="Helvetica,sans-Serif" font-size="10.00">+</text>
<text text-anchor="start" x="31.5" y="-82" font-family="Helvetica,sans-Serif" font-size="10.00">ApplyEffect()</text>
<text text-anchor="start" x="12" y="-67" font-family="Helvetica,sans-Serif" font-size="10.00">+</text>
<text text-anchor="start" x="31.5" y="-67" font-family="Helvetica,sans-Serif" font-size="10.00">Dispel()</text>
<text text-anchor="start" x="12" y="-52" font-family="Helvetica,sans-Serif" font-size="10.00">+</text>
<text text-anchor="start" x="31.5" y="-52" font-family="Helvetica,sans-Serif" font-size="10.00">SetPaused()</text>
<text text-anchor="start" x="12" y="-37" font-family="Helvetica,sans-Serif" font-size="10.00">+</text>
<text text-anchor="start" x="31.5" y="-37" font-family="Helvetica,sans-Serif" font-size="10.00">EnqueueUnitSpawn()</text>
<text text-anchor="start" x="12" y="-22" font-family="Helvetica,sans-Serif" font-size="10.00">+</text>
<text text-anchor="start" x="31.5" y="-22" font-family="Helvetica,sans-Serif" font-size="10.00">EnqueueCommand()</text>
<text text-anchor="start" x="12" y="-7" font-family="Helvetica,sans-Serif" font-size="10.00">+</text>
<text text-anchor="start" x="31.5" y="-7" font-family="Helvetica,sans-Serif" font-size="10.00">ComputeChecksum()</text>
<polygon fill="#666666" stroke="#666666" points="1.5,-272 1.5,-272 153.5,-272 153.5,-272 1.5,-272"/>
<polygon fill="#666666" stroke="#666666" points="1.5,-182 1.5,-182 29.5,-182 29.5,-182 1.5,-182"/>
<polygon fill="#666666" stroke="#666666" points="29.5,-182 29.5,-182 153.5,-182 153.5,-182 29.5,-182"/>
<polygon fill="none" stroke="#666666" points="1.5,0 1.5,-300 153.5,-300 153.5,0 1.5,0"/>
</a>
</g>
</g>
<!-- Node1&#45;&gt;Node2 -->
<g id="edge1_Node000001_Node000002" class="edge">
<title>Node1&#45;&gt;Node2</title>
<g id="a_edge1_Node000001_Node000002"><a xlink:title=" ">
<path fill="none" stroke="#63b8ff" d="M77.5,-325.5C77.5,-317.32 77.5,-308.91 77.5,-300.41"/>
<polygon fill="none" stroke="#63b8ff" points="74,-325.73 77.5,-335.73 81,-325.73 74,-325.73"/>
</a>
</g>
</g>
</g>
</svg>
