<?xml version="1.0" encoding="UTF-8" standalone="no"?>
<!DOCTYPE svg PUBLIC "-//W3C//DTD SVG 1.1//EN"
 "http://www.w3.org/Graphics/SVG/1.1/DTD/svg11.dtd">
<!-- Generated by graphviz version 2.43.0 (0)
 -->
<!-- Title: Guildmaster.Combat.ICombatContext Pages: 1 -->
<svg width="163pt" height="554pt"
 viewBox="0.00 0.00 163.00 554.00" xmlns="http://www.w3.org/2000/svg" xmlns:xlink="http://www.w3.org/1999/xlink">
<g id="graph0" class="graph" transform="scale(1 1) rotate(0) translate(4 550)">
<title>Guildmaster.Combat.ICombatContext</title>
<!-- Node1 -->
<g id="Node000001" class="node">
<title>Node1</title>
<g id="a_Node000001"><a xlink:title="Шов «логика эффектов/способностей ↔ боевой мир».">
<polygon fill="#999999" stroke="transparent" points="155,-546 0,-546 0,-321 155,-321 155,-546"/>
<text text-anchor="start" x="5.5" y="-533.5" font-family="Helvetica,sans-Serif" font-size="10.00">Guildmaster.Combat.ICombat</text>
<text text-anchor="start" x="58.5" y="-522.5" font-family="Helvetica,sans-Serif" font-size="10.00">Context</text>
<text text-anchor="start" x="7" y="-507.5" font-family="Helvetica,sans-Serif" font-size="10.00">+</text>
<text text-anchor="start" x="22.5" y="-507.5" font-family="Helvetica,sans-Serif" font-size="10.00">Rng</text>
<text text-anchor="start" x="7" y="-492.5" font-family="Helvetica,sans-Serif" font-size="10.00">+</text>
<text text-anchor="start" x="22.5" y="-492.5" font-family="Helvetica,sans-Serif" font-size="10.00">CurrentTick</text>
<text text-anchor="start" x="7" y="-477.5" font-family="Helvetica,sans-Serif" font-size="10.00">+</text>
<text text-anchor="start" x="22.5" y="-477.5" font-family="Helvetica,sans-Serif" font-size="10.00">ArmorK</text>
<text text-anchor="start" x="7" y="-462.5" font-family="Helvetica,sans-Serif" font-size="10.00">+</text>
<text text-anchor="start" x="22.5" y="-462.5" font-family="Helvetica,sans-Serif" font-size="10.00">DealDamage()</text>
<text text-anchor="start" x="7" y="-447.5" font-family="Helvetica,sans-Serif" font-size="10.00">+</text>
<text text-anchor="start" x="22.5" y="-447.5" font-family="Helvetica,sans-Serif" font-size="10.00">Heal()</text>
<text text-anchor="start" x="7" y="-432.5" font-family="Helvetica,sans-Serif" font-size="10.00">+</text>
<text text-anchor="start" x="22.5" y="-432.5" font-family="Helvetica,sans-Serif" font-size="10.00">SpawnProjectile()</text>
<text text-anchor="start" x="7" y="-417.5" font-family="Helvetica,sans-Serif" font-size="10.00">+</text>
<text text-anchor="start" x="22.5" y="-417.5" font-family="Helvetica,sans-Serif" font-size="10.00">QueryUnitsInRadius()</text>
<text text-anchor="start" x="7" y="-402.5" font-family="Helvetica,sans-Serif" font-size="10.00">+</text>
<text text-anchor="start" x="22.5" y="-402.5" font-family="Helvetica,sans-Serif" font-size="10.00">QueryUnitsInLine()</text>
<text text-anchor="start" x="7" y="-387.5" font-family="Helvetica,sans-Serif" font-size="10.00">+</text>
<text text-anchor="start" x="22.5" y="-387.5" font-family="Helvetica,sans-Serif" font-size="10.00">ApplyEffect()</text>
<text text-anchor="start" x="7" y="-372.5" font-family="Helvetica,sans-Serif" font-size="10.00">+</text>
<text text-anchor="start" x="22.5" y="-372.5" font-family="Helvetica,sans-Serif" font-size="10.00">ReportAreaHit()</text>
<text text-anchor="start" x="7" y="-357.5" font-family="Helvetica,sans-Serif" font-size="10.00">+</text>
<text text-anchor="start" x="22.5" y="-357.5" font-family="Helvetica,sans-Serif" font-size="10.00">Dispel()</text>
<text text-anchor="start" x="7" y="-342.5" font-family="Helvetica,sans-Serif" font-size="10.00">+</text>
<text text-anchor="start" x="22.5" y="-342.5" font-family="Helvetica,sans-Serif" font-size="10.00">NotifyAttackStarted()</text>
<text text-anchor="start" x="7" y="-327.5" font-family="Helvetica,sans-Serif" font-size="10.00">+</text>
<text text-anchor="start" x="22.5" y="-327.5" font-family="Helvetica,sans-Serif" font-size="10.00">NotifyAttackInterrupted()</text>
<polygon fill="#666666" stroke="#666666" points="0.5,-517.5 0.5,-517.5 155.5,-517.5 155.5,-517.5 0.5,-517.5"/>
<polygon fill="#666666" stroke="#666666" points="0.5,-472.5 0.5,-472.5 20.5,-472.5 20.5,-472.5 0.5,-472.5"/>
<polygon fill="#666666" stroke="#666666" points="20.5,-472.5 20.5,-472.5 155.5,-472.5 155.5,-472.5 20.5,-472.5"/>
<polygon fill="none" stroke="#666666" points="0,-321 0,-546 155,-546 155,-321 0,-321"/>
</a>
</g>
</g>
<!-- Node2 -->
<g id="Node000002" class="node">
<title>Node2</title>
<g id="a_Node000002"><a xlink:href="classGuildmaster_1_1Combat_1_1CombatSimulation.html" target="_top" xlink:title="Детерминированная тиковая симуляция боя.">
<polygon fill="white" stroke="transparent" points="153.5,-285 1.5,-285 1.5,0 153.5,0 153.5,-285"/>
<text text-anchor="start" x="6.5" y="-272.5" font-family="Helvetica,sans-Serif" font-size="10.00">Guildmaster.Combat.Combat</text>
<text text-anchor="start" x="51" y="-261.5" font-family="Helvetica,sans-Serif" font-size="10.00">Simulation</text>
<text text-anchor="start" x="12" y="-246.5" font-family="Helvetica,sans-Serif" font-size="10.00">+</text>
<text text-anchor="start" x="31.5" y="-246.5" font-family="Helvetica,sans-Serif" font-size="10.00">Rng</text>
<text text-anchor="start" x="12" y="-231.5" font-family="Helvetica,sans-Serif" font-size="10.00">+</text>
<text text-anchor="start" x="31.5" y="-231.5" font-family="Helvetica,sans-Serif" font-size="10.00">CurrentTick</text>
<text text-anchor="start" x="12" y="-216.5" font-family="Helvetica,sans-Serif" font-size="10.00">+</text>
<text text-anchor="start" x="31.5" y="-216.5" font-family="Helvetica,sans-Serif" font-size="10.00">ArmorK</text>
<text text-anchor="start" x="12" y="-201.5" font-family="Helvetica,sans-Serif" font-size="10.00">+</text>
<text text-anchor="start" x="31.5" y="-201.5" font-family="Helvetica,sans-Serif" font-size="10.00">Units</text>
<text text-anchor="start" x="12" y="-186.5" font-family="Helvetica,sans-Serif" font-size="10.00">+</text>
<text text-anchor="start" x="31.5" y="-186.5" font-family="Helvetica,sans-Serif" font-size="10.00">Outcome</text>
<text text-anchor="start" x="12" y="-171.5" font-family="Helvetica,sans-Serif" font-size="10.00">+</text>
<text text-anchor="start" x="31.5" y="-171.5" font-family="Helvetica,sans-Serif" font-size="10.00">IsPaused</text>
<text text-anchor="start" x="12" y="-156.5" font-family="Helvetica,sans-Serif" font-size="10.00">+</text>
<text text-anchor="start" x="31.5" y="-156.5" font-family="Helvetica,sans-Serif" font-size="10.00">CombatSimulation()</text>
<text text-anchor="start" x="12" y="-141.5" font-family="Helvetica,sans-Serif" font-size="10.00">+</text>
<text text-anchor="start" x="31.5" y="-141.5" font-family="Helvetica,sans-Serif" font-size="10.00">Tick()</text>
<text text-anchor="start" x="12" y="-126.5" font-family="Helvetica,sans-Serif" font-size="10.00">+</text>
<text text-anchor="start" x="31.5" y="-126.5" font-family="Helvetica,sans-Serif" font-size="10.00">DealDamage()</text>
<text text-anchor="start" x="12" y="-111.5" font-family="Helvetica,sans-Serif" font-size="10.00">+</text>
<text text-anchor="start" x="31.5" y="-111.5" font-family="Helvetica,sans-Serif" font-size="10.00">Heal()</text>
<text text-anchor="start" x="12" y="-96.5" font-family="Helvetica,sans-Serif" font-size="10.00">+</text>
<text text-anchor="start" x="31.5" y="-96.5" font-family="Helvetica,sans-Serif" font-size="10.00">SpawnProjectile()</text>
<text text-anchor="start" x="12" y="-81.5" font-family="Helvetica,sans-Serif" font-size="10.00">+</text>
<text text-anchor="start" x="31.5" y="-81.5" font-family="Helvetica,sans-Serif" font-size="10.00">QueryUnitsInRadius()</text>
<text text-anchor="start" x="12" y="-66.5" font-family="Helvetica,sans-Serif" font-size="10.00">+</text>
<text text-anchor="start" x="31.5" y="-66.5" font-family="Helvetica,sans-Serif" font-size="10.00">QueryUnitsInLine()</text>
<text text-anchor="start" x="12" y="-51.5" font-family="Helvetica,sans-Serif" font-size="10.00">+</text>
<text text-anchor="start" x="31.5" y="-51.5" font-family="Helvetica,sans-Serif" font-size="10.00">ApplyEffect()</text>
<text text-anchor="start" x="12" y="-36.5" font-family="Helvetica,sans-Serif" font-size="10.00">+</text>
<text text-anchor="start" x="31.5" y="-36.5" font-family="Helvetica,sans-Serif" font-size="10.00">ReportAreaHit()</text>
<text text-anchor="start" x="12" y="-21.5" font-family="Helvetica,sans-Serif" font-size="10.00">+</text>
<text text-anchor="start" x="31.5" y="-21.5" font-family="Helvetica,sans-Serif" font-size="10.00">NotifyAttackStarted()</text>
<text text-anchor="start" x="31.5" y="-6.5" font-family="Helvetica,sans-Serif" font-size="10.00">and 6 more...</text>
<polygon fill="#666666" stroke="#666666" points="1.5,-256.5 1.5,-256.5 153.5,-256.5 153.5,-256.5 1.5,-256.5"/>
<polygon fill="#666666" stroke="#666666" points="1.5,-166.5 1.5,-166.5 29.5,-166.5 29.5,-166.5 1.5,-166.5"/>
<polygon fill="#666666" stroke="#666666" points="29.5,-166.5 29.5,-166.5 153.5,-166.5 153.5,-166.5 29.5,-166.5"/>
<polygon fill="none" stroke="#666666" points="1.5,0 1.5,-285 153.5,-285 153.5,0 1.5,0"/>
</a>
</g>
</g>
<!-- Node1&#45;&gt;Node2 -->
<g id="edge1_Node000001_Node000002" class="edge">
<title>Node1&#45;&gt;Node2</title>
<g id="a_edge1_Node000001_Node000002"><a xlink:title=" ">
<path fill="none" stroke="#63b8ff" d="M77.5,-310.64C77.5,-302.3 77.5,-293.85 77.5,-285.41"/>
<polygon fill="none" stroke="#63b8ff" points="74,-310.77 77.5,-320.77 81,-310.77 74,-310.77"/>
</a>
</g>
</g>
</g>
</svg>
