<?xml version="1.0" encoding="UTF-8" standalone="no"?>
<!DOCTYPE svg PUBLIC "-//W3C//DTD SVG 1.1//EN"
 "http://www.w3.org/Graphics/SVG/1.1/DTD/svg11.dtd">
<!-- Generated by graphviz version 2.43.0 (0)
 -->
<!-- Title: Guildmaster.Combat.ICombatCommand Pages: 1 -->
<svg width="563pt" height="264pt"
 viewBox="0.00 0.00 563.00 264.00" xmlns="http://www.w3.org/2000/svg" xmlns:xlink="http://www.w3.org/1999/xlink">
<g id="graph0" class="graph" transform="scale(1 1) rotate(0) translate(4 260)">
<title>Guildmaster.Combat.ICombatCommand</title>
<!-- Node1 -->
<g id="Node000001" class="node">
<title>Node1</title>
<g id="a_Node000001"><a xlink:title="Расширяет ISimCommand слоем Combat: добавляет метод применения к симуляции.">
<polygon fill="#999999" stroke="transparent" points="355,-171 200,-171 200,-111 355,-111 355,-171"/>
<text text-anchor="start" x="205.5" y="-159" font-family="Helvetica,sans-Serif" font-size="10.00">Guildmaster.Combat.ICombat</text>
<text text-anchor="start" x="252.5" y="-148" font-family="Helvetica,sans-Serif" font-size="10.00">Command</text>
<text text-anchor="start" x="276" y="-133" font-family="Helvetica,sans-Serif" font-size="10.00"> </text>
<text text-anchor="start" x="229" y="-118" font-family="Helvetica,sans-Serif" font-size="10.00">+</text>
<text text-anchor="start" x="266.5" y="-118" font-family="Helvetica,sans-Serif" font-size="10.00">Apply()</text>
<polygon fill="#666666" stroke="#666666" points="200.5,-143 200.5,-143 355.5,-143 355.5,-143 200.5,-143"/>
<polygon fill="#666666" stroke="#666666" points="200.5,-128 200.5,-128 355.5,-128 355.5,-128 200.5,-128"/>
<polygon fill="none" stroke="#666666" points="200,-111 200,-171 355,-171 355,-111 200,-111"/>
</a>
</g>
</g>
<!-- Node3 -->
<g id="Node000003" class="node">
<title>Node3</title>
<g id="a_Node000003"><a xlink:href="classGuildmaster_1_1Combat_1_1Commands_1_1PauseCommand.html" target="_top" xlink:title="Ставит симуляцию боя на паузу на указанном тике.">
<polygon fill="white" stroke="transparent" points="173,-75 0,-75 0,0 173,0 173,-75"/>
<text text-anchor="start" x="5.5" y="-62.5" font-family="Helvetica,sans-Serif" font-size="10.00">Guildmaster.Combat.Commands.</text>
<text text-anchor="start" x="47.5" y="-51.5" font-family="Helvetica,sans-Serif" font-size="10.00">PauseCommand</text>
<text text-anchor="start" x="20.5" y="-36.5" font-family="Helvetica,sans-Serif" font-size="10.00">+</text>
<text text-anchor="start" x="49.5" y="-36.5" font-family="Helvetica,sans-Serif" font-size="10.00">TargetTick</text>
<text text-anchor="start" x="20.5" y="-21.5" font-family="Helvetica,sans-Serif" font-size="10.00">+</text>
<text text-anchor="start" x="49.5" y="-21.5" font-family="Helvetica,sans-Serif" font-size="10.00">PauseCommand()</text>
<text text-anchor="start" x="20.5" y="-6.5" font-family="Helvetica,sans-Serif" font-size="10.00">+</text>
<text text-anchor="start" x="49.5" y="-6.5" font-family="Helvetica,sans-Serif" font-size="10.00">Apply()</text>
<polygon fill="#666666" stroke="#666666" points="0.5,-46.5 0.5,-46.5 173.5,-46.5 173.5,-46.5 0.5,-46.5"/>
<polygon fill="#666666" stroke="#666666" points="0.5,-31.5 0.5,-31.5 47.5,-31.5 47.5,-31.5 0.5,-31.5"/>
<polygon fill="#666666" stroke="#666666" points="47.5,-31.5 47.5,-31.5 173.5,-31.5 173.5,-31.5 47.5,-31.5"/>
<polygon fill="none" stroke="#666666" points="0,0 0,-75 173,-75 173,0 0,0"/>
</a>
</g>
</g>
<!-- Node1&#45;&gt;Node3 -->
<g id="edge2_Node000001_Node000003" class="edge">
<title>Node1&#45;&gt;Node3</title>
<g id="a_edge2_Node000001_Node000003"><a xlink:title=" ">
<path fill="none" stroke="#63b8ff" d="M213.71,-106.1C194.92,-96.11 174.28,-85.15 155.2,-75.01"/>
<polygon fill="none" stroke="#63b8ff" points="212.29,-109.31 222.77,-110.91 215.58,-103.13 212.29,-109.31"/>
</a>
</g>
</g>
<!-- Node4 -->
<g id="Node000004" class="node">
<title>Node4</title>
<g id="a_Node000004"><a xlink:href="classGuildmaster_1_1Combat_1_1Commands_1_1ResumeCommand.html" target="_top" xlink:title="Снимает симуляцию боя с паузы на указанном тике.">
<polygon fill="white" stroke="transparent" points="364,-75 191,-75 191,0 364,0 364,-75"/>
<text text-anchor="start" x="196.5" y="-62.5" font-family="Helvetica,sans-Serif" font-size="10.00">Guildmaster.Combat.Commands.</text>
<text text-anchor="start" x="232.5" y="-51.5" font-family="Helvetica,sans-Serif" font-size="10.00">ResumeCommand</text>
<text text-anchor="start" x="209" y="-36.5" font-family="Helvetica,sans-Serif" font-size="10.00">+</text>
<text text-anchor="start" x="235.5" y="-36.5" font-family="Helvetica,sans-Serif" font-size="10.00">TargetTick</text>
<text text-anchor="start" x="209" y="-21.5" font-family="Helvetica,sans-Serif" font-size="10.00">+</text>
<text text-anchor="start" x="235.5" y="-21.5" font-family="Helvetica,sans-Serif" font-size="10.00">ResumeCommand()</text>
<text text-anchor="start" x="209" y="-6.5" font-family="Helvetica,sans-Serif" font-size="10.00">+</text>
<text text-anchor="start" x="235.5" y="-6.5" font-family="Helvetica,sans-Serif" font-size="10.00">Apply()</text>
<polygon fill="#666666" stroke="#666666" points="191.5,-46.5 191.5,-46.5 364.5,-46.5 364.5,-46.5 191.5,-46.5"/>
<polygon fill="#666666" stroke="#666666" points="191.5,-31.5 191.5,-31.5 233.5,-31.5 233.5,-31.5 191.5,-31.5"/>
<polygon fill="#666666" stroke="#666666" points="233.5,-31.5 233.5,-31.5 364.5,-31.5 364.5,-31.5 233.5,-31.5"/>
<polygon fill="none" stroke="#666666" points="191,0 191,-75 364,-75 364,0 191,0"/>
</a>
</g>
</g>
<!-- Node1&#45;&gt;Node4 -->
<g id="edge3_Node000001_Node000004" class="edge">
<title>Node1&#45;&gt;Node4</title>
<g id="a_edge3_Node000001_Node000004"><a xlink:title=" ">
<path fill="none" stroke="#63b8ff" d="M277.5,-100.9C277.5,-92.45 277.5,-83.55 277.5,-75.19"/>
<polygon fill="none" stroke="#63b8ff" points="274,-100.91 277.5,-110.91 281,-100.91 274,-100.91"/>
</a>
</g>
</g>
<!-- Node5 -->
<g id="Node000005" class="node">
<title>Node5</title>
<g id="a_Node000005"><a xlink:href="classGuildmaster_1_1Combat_1_1Commands_1_1SpawnUnitCommand.html" target="_top" xlink:title="Добавляет предварительно созданного юнита в симуляцию на указанном тике.">
<polygon fill="white" stroke="transparent" points="555,-75 382,-75 382,0 555,0 555,-75"/>
<text text-anchor="start" x="387.5" y="-62.5" font-family="Helvetica,sans-Serif" font-size="10.00">Guildmaster.Combat.Commands.</text>
<text text-anchor="start" x="417.5" y="-51.5" font-family="Helvetica,sans-Serif" font-size="10.00">SpawnUnitCommand</text>
<text text-anchor="start" x="396.5" y="-36.5" font-family="Helvetica,sans-Serif" font-size="10.00">+</text>
<text text-anchor="start" x="419.5" y="-36.5" font-family="Helvetica,sans-Serif" font-size="10.00">TargetTick</text>
<text text-anchor="start" x="396.5" y="-21.5" font-family="Helvetica,sans-Serif" font-size="10.00">+</text>
<text text-anchor="start" x="419.5" y="-21.5" font-family="Helvetica,sans-Serif" font-size="10.00">SpawnUnitCommand()</text>
<text text-anchor="start" x="396.5" y="-6.5" font-family="Helvetica,sans-Serif" font-size="10.00">+</text>
<text text-anchor="start" x="419.5" y="-6.5" font-family="Helvetica,sans-Serif" font-size="10.00">Apply()</text>
<polygon fill="#666666" stroke="#666666" points="382.5,-46.5 382.5,-46.5 555.5,-46.5 555.5,-46.5 382.5,-46.5"/>
<polygon fill="#666666" stroke="#666666" points="382.5,-31.5 382.5,-31.5 417.5,-31.5 417.5,-31.5 382.5,-31.5"/>
<polygon fill="#666666" stroke="#666666" points="417.5,-31.5 417.5,-31.5 555.5,-31.5 555.5,-31.5 417.5,-31.5"/>
<polygon fill="none" stroke="#666666" points="382,0 382,-75 555,-75 555,0 382,0"/>
</a>
</g>
</g>
<!-- Node1&#45;&gt;Node5 -->
<g id="edge4_Node000001_Node000005" class="edge">
<title>Node1&#45;&gt;Node5</title>
<g id="a_edge4_Node000001_Node000005"><a xlink:title=" ">
<path fill="none" stroke="#63b8ff" d="M341.29,-106.1C360.08,-96.11 380.72,-85.15 399.8,-75.01"/>
<polygon fill="none" stroke="#63b8ff" points="339.42,-103.13 332.23,-110.91 342.71,-109.31 339.42,-103.13"/>
</a>
</g>
</g>
<!-- Node2 -->
<g id="Node000002" class="node">
<title>Node2</title>
<g id="a_Node000002"><a xlink:href="interfaceGuildmaster_1_1Core_1_1Simulation_1_1ISimCommand.html" target="_top" xlink:title="Базовый контракт команды симуляции — упорядочивающий ключ для детерминированного применения на границ...">
<polygon fill="white" stroke="transparent" points="319,-256 236,-256 236,-207 319,-207 319,-256"/>
<text text-anchor="start" x="241.5" y="-243.5" font-family="Helvetica,sans-Serif" font-size="10.00">ISimCommand</text>
<text text-anchor="start" x="243" y="-228.5" font-family="Helvetica,sans-Serif" font-size="10.00">+</text>
<text text-anchor="start" x="258.5" y="-228.5" font-family="Helvetica,sans-Serif" font-size="10.00">TargetTick</text>
<text text-anchor="start" x="276" y="-213.5" font-family="Helvetica,sans-Serif" font-size="10.00"> </text>
<polygon fill="#666666" stroke="#666666" points="236.5,-238.5 236.5,-238.5 319.5,-238.5 319.5,-238.5 236.5,-238.5"/>
<polygon fill="#666666" stroke="#666666" points="236.5,-223.5 236.5,-223.5 256.5,-223.5 256.5,-223.5 236.5,-223.5"/>
<polygon fill="#666666" stroke="#666666" points="256.5,-223.5 256.5,-223.5 319.5,-223.5 319.5,-223.5 256.5,-223.5"/>
<polygon fill="none" stroke="#666666" points="236,-207 236,-256 319,-256 319,-207 236,-207"/>
</a>
</g>
</g>
<!-- Node2&#45;&gt;Node1 -->
<g id="edge1_Node000001_Node000002" class="edge">
<title>Node2&#45;&gt;Node1</title>
<g id="a_edge1_Node000001_Node000002"><a xlink:title=" ">
<path fill="none" stroke="#63b8ff" d="M277.5,-196.55C277.5,-188.18 277.5,-179.28 277.5,-171.16"/>
<polygon fill="none" stroke="#63b8ff" points="274,-196.78 277.5,-206.78 281,-196.78 274,-196.78"/>
</a>
</g>
</g>
</g>
</svg>
