<?xml version="1.0" encoding="UTF-8" standalone="no"?>
<!DOCTYPE svg PUBLIC "-//W3C//DTD SVG 1.1//EN"
 "http://www.w3.org/Graphics/SVG/1.1/DTD/svg11.dtd">
<!-- Generated by graphviz version 2.43.0 (0)
 -->
<!-- Title: Guildmaster.Data.Definitions.IEffectComponent Pages: 1 -->
<svg width="1308pt" height="461pt"
 viewBox="0.00 0.00 1307.50 461.00" xmlns="http://www.w3.org/2000/svg" xmlns:xlink="http://www.w3.org/1999/xlink">
<g id="graph0" class="graph" transform="scale(1 1) rotate(0) translate(4 457)">
<title>Guildmaster.Data.Definitions.IEffectComponent</title>
<!-- Node1 -->
<g id="Node000001" class="node">
<title>Node1</title>
<g id="a_Node000001"><a xlink:title="Якорь полиморфного поведения эффекта для сериализации.">
<polygon fill="#999999" stroke="transparent" points="621,-453 466,-453 466,-393 621,-393 621,-453"/>
<text text-anchor="start" x="471.5" y="-441" font-family="Helvetica,sans-Serif" font-size="10.00">Guildmaster.Data.Definitions.</text>
<text text-anchor="start" x="500" y="-430" font-family="Helvetica,sans-Serif" font-size="10.00">IEffectComponent</text>
<text text-anchor="start" x="542" y="-415" font-family="Helvetica,sans-Serif" font-size="10.00"> </text>
<text text-anchor="start" x="542" y="-400" font-family="Helvetica,sans-Serif" font-size="10.00"> </text>
<polygon fill="#666666" stroke="#666666" points="466.5,-425 466.5,-425 621.5,-425 621.5,-425 466.5,-425"/>
<polygon fill="#666666" stroke="#666666" points="466.5,-410 466.5,-410 621.5,-410 621.5,-410 466.5,-410"/>
<polygon fill="none" stroke="#666666" points="466,-393 466,-453 621,-453 621,-393 466,-393"/>
</a>
</g>
</g>
<!-- Node2 -->
<g id="Node000002" class="node">
<title>Node2</title>
<g id="a_Node000002"><a xlink:href="interfaceGuildmaster_1_1Combat_1_1Effects_1_1IRuntimeEffectComponent.html" target="_top" xlink:title="Рантайм&#45;контракт поведения эффекта.">
<polygon fill="white" stroke="transparent" points="618.5,-357 468.5,-357 468.5,-282 618.5,-282 618.5,-357"/>
<text text-anchor="start" x="473.5" y="-344.5" font-family="Helvetica,sans-Serif" font-size="10.00">Guildmaster.Combat.Effects.</text>
<text text-anchor="start" x="479" y="-333.5" font-family="Helvetica,sans-Serif" font-size="10.00">IRuntimeEffectComponent</text>
<text text-anchor="start" x="541.5" y="-318.5" font-family="Helvetica,sans-Serif" font-size="10.00"> </text>
<text text-anchor="start" x="491.5" y="-303.5" font-family="Helvetica,sans-Serif" font-size="10.00">+</text>
<text text-anchor="start" x="523.5" y="-303.5" font-family="Helvetica,sans-Serif" font-size="10.00">OnApply()</text>
<text text-anchor="start" x="491.5" y="-288.5" font-family="Helvetica,sans-Serif" font-size="10.00">+</text>
<text text-anchor="start" x="523.5" y="-288.5" font-family="Helvetica,sans-Serif" font-size="10.00">OnExpire()</text>
<polygon fill="#666666" stroke="#666666" points="468.5,-328.5 468.5,-328.5 618.5,-328.5 618.5,-328.5 468.5,-328.5"/>
<polygon fill="#666666" stroke="#666666" points="468.5,-313.5 468.5,-313.5 618.5,-313.5 618.5,-313.5 468.5,-313.5"/>
<polygon fill="none" stroke="#666666" points="468.5,-282 468.5,-357 618.5,-357 618.5,-282 468.5,-282"/>
</a>
</g>
</g>
<!-- Node1&#45;&gt;Node2 -->
<g id="edge1_Node000001_Node000002" class="edge">
<title>Node1&#45;&gt;Node2</title>
<g id="a_edge1_Node000001_Node000002"><a xlink:title=" ">
<path fill="none" stroke="#63b8ff" d="M543.5,-382.9C543.5,-374.45 543.5,-365.55 543.5,-357.19"/>
<polygon fill="none" stroke="#63b8ff" points="540,-382.91 543.5,-392.91 547,-382.91 540,-382.91"/>
</a>
</g>
</g>
<!-- Node3 -->
<g id="Node000003" class="node">
<title>Node3</title>
<g id="a_Node000003"><a xlink:href="classGuildmaster_1_1Combat_1_1Effects_1_1Components_1_1ControlComponent.html" target="_top" xlink:title="Контроль: запрещает действия носителю на время эффекта.">
<polygon fill="white" stroke="transparent" points="167,-246 0,-246 0,-141 167,-141 167,-246"/>
<text text-anchor="start" x="5.5" y="-233.5" font-family="Helvetica,sans-Serif" font-size="10.00">Guildmaster.Combat.Effects.</text>
<text text-anchor="start" x="5.5" y="-222.5" font-family="Helvetica,sans-Serif" font-size="10.00">Components.ControlComponent</text>
<text text-anchor="start" x="24.5" y="-207.5" font-family="Helvetica,sans-Serif" font-size="10.00">+</text>
<text text-anchor="start" x="57.5" y="-207.5" font-family="Helvetica,sans-Serif" font-size="10.00">PreventAct</text>
<text text-anchor="start" x="24.5" y="-192.5" font-family="Helvetica,sans-Serif" font-size="10.00">+</text>
<text text-anchor="start" x="57.5" y="-192.5" font-family="Helvetica,sans-Serif" font-size="10.00">PreventMove</text>
<text text-anchor="start" x="24.5" y="-177.5" font-family="Helvetica,sans-Serif" font-size="10.00">+</text>
<text text-anchor="start" x="57.5" y="-177.5" font-family="Helvetica,sans-Serif" font-size="10.00">PreventCast</text>
<text text-anchor="start" x="24.5" y="-162.5" font-family="Helvetica,sans-Serif" font-size="10.00">+</text>
<text text-anchor="start" x="57.5" y="-162.5" font-family="Helvetica,sans-Serif" font-size="10.00">OnApply()</text>
<text text-anchor="start" x="24.5" y="-147.5" font-family="Helvetica,sans-Serif" font-size="10.00">+</text>
<text text-anchor="start" x="57.5" y="-147.5" font-family="Helvetica,sans-Serif" font-size="10.00">OnExpire()</text>
<polygon fill="#666666" stroke="#666666" points="0.5,-217.5 0.5,-217.5 167.5,-217.5 167.5,-217.5 0.5,-217.5"/>
<polygon fill="#666666" stroke="#666666" points="0.5,-172.5 0.5,-172.5 55.5,-172.5 55.5,-172.5 0.5,-172.5"/>
<polygon fill="#666666" stroke="#666666" points="55.5,-172.5 55.5,-172.5 167.5,-172.5 167.5,-172.5 55.5,-172.5"/>
<polygon fill="none" stroke="#666666" points="0,-141 0,-246 167,-246 167,-141 0,-141"/>
</a>
</g>
</g>
<!-- Node2&#45;&gt;Node3 -->
<g id="edge2_Node000002_Node000003" class="edge">
<title>Node2&#45;&gt;Node3</title>
<g id="a_edge2_Node000002_Node000003"><a xlink:title=" ">
<path fill="none" stroke="#63b8ff" d="M458.23,-309.28C382.52,-299.31 269.76,-280.08 176.5,-246 173.38,-244.86 170.24,-243.63 167.09,-242.32"/>
<polygon fill="none" stroke="#63b8ff" points="457.83,-312.76 468.2,-310.56 458.73,-305.81 457.83,-312.76"/>
</a>
</g>
</g>
<!-- Node4 -->
<g id="Node000004" class="node">
<title>Node4</title>
<g id="a_Node000004"><a xlink:href="classGuildmaster_1_1Combat_1_1Effects_1_1Components_1_1DispelComponent.html" target="_top" xlink:title="Диспел: при наложении снимает с носителя подходящие эффекты (вики «6» §5.4).">
<polygon fill="white" stroke="transparent" points="347.5,-231 185.5,-231 185.5,-156 347.5,-156 347.5,-231"/>
<text text-anchor="start" x="190.5" y="-218.5" font-family="Helvetica,sans-Serif" font-size="10.00">Guildmaster.Combat.Effects.</text>
<text text-anchor="start" x="190.5" y="-207.5" font-family="Helvetica,sans-Serif" font-size="10.00">Components.DispelComponent</text>
<text text-anchor="start" x="264.5" y="-192.5" font-family="Helvetica,sans-Serif" font-size="10.00"> </text>
<text text-anchor="start" x="211.5" y="-177.5" font-family="Helvetica,sans-Serif" font-size="10.00">+</text>
<text text-anchor="start" x="246.5" y="-177.5" font-family="Helvetica,sans-Serif" font-size="10.00">OnApply()</text>
<text text-anchor="start" x="211.5" y="-162.5" font-family="Helvetica,sans-Serif" font-size="10.00">+</text>
<text text-anchor="start" x="246.5" y="-162.5" font-family="Helvetica,sans-Serif" font-size="10.00">OnExpire()</text>
<polygon fill="#666666" stroke="#666666" points="185.5,-202.5 185.5,-202.5 347.5,-202.5 347.5,-202.5 185.5,-202.5"/>
<polygon fill="#666666" stroke="#666666" points="185.5,-187.5 185.5,-187.5 347.5,-187.5 347.5,-187.5 185.5,-187.5"/>
<polygon fill="none" stroke="#666666" points="185.5,-156 185.5,-231 347.5,-231 347.5,-156 185.5,-156"/>
</a>
</g>
</g>
<!-- Node2&#45;&gt;Node4 -->
<g id="edge3_Node000002_Node000004" class="edge">
<title>Node2&#45;&gt;Node4</title>
<g id="a_edge3_Node000002_Node000004"><a xlink:title=" ">
<path fill="none" stroke="#63b8ff" d="M458.78,-288.73C426.33,-276.53 389.26,-261.61 356.5,-246 347.07,-241.51 337.3,-236.41 327.82,-231.2"/>
<polygon fill="none" stroke="#63b8ff" points="457.66,-292.04 468.25,-292.26 460.1,-285.49 457.66,-292.04"/>
</a>
</g>
</g>
<!-- Node5 -->
<g id="Node000005" class="node">
<title>Node5</title>
<g id="a_Node000005"><a xlink:href="classGuildmaster_1_1Combat_1_1Effects_1_1Components_1_1ShieldComponent.html" target="_top" xlink:title="Поглощающий щит.">
<polygon fill="white" stroke="transparent" points="527,-231 366,-231 366,-156 527,-156 527,-231"/>
<text text-anchor="start" x="371.5" y="-218.5" font-family="Helvetica,sans-Serif" font-size="10.00">Guildmaster.Combat.Effects.</text>
<text text-anchor="start" x="371.5" y="-207.5" font-family="Helvetica,sans-Serif" font-size="10.00">Components.ShieldComponent</text>
<text text-anchor="start" x="392.5" y="-192.5" font-family="Helvetica,sans-Serif" font-size="10.00">+</text>
<text text-anchor="start" x="427.5" y="-192.5" font-family="Helvetica,sans-Serif" font-size="10.00">Potency</text>
<text text-anchor="start" x="392.5" y="-177.5" font-family="Helvetica,sans-Serif" font-size="10.00">+</text>
<text text-anchor="start" x="427.5" y="-177.5" font-family="Helvetica,sans-Serif" font-size="10.00">OnApply()</text>
<text text-anchor="start" x="392.5" y="-162.5" font-family="Helvetica,sans-Serif" font-size="10.00">+</text>
<text text-anchor="start" x="427.5" y="-162.5" font-family="Helvetica,sans-Serif" font-size="10.00">OnExpire()</text>
<polygon fill="#666666" stroke="#666666" points="366.5,-202.5 366.5,-202.5 527.5,-202.5 527.5,-202.5 366.5,-202.5"/>
<polygon fill="#666666" stroke="#666666" points="366.5,-187.5 366.5,-187.5 425.5,-187.5 425.5,-187.5 366.5,-187.5"/>
<polygon fill="#666666" stroke="#666666" points="425.5,-187.5 425.5,-187.5 527.5,-187.5 527.5,-187.5 425.5,-187.5"/>
<polygon fill="none" stroke="#666666" points="366,-156 366,-231 527,-231 527,-156 366,-156"/>
</a>
</g>
</g>
<!-- Node2&#45;&gt;Node5 -->
<g id="edge4_Node000002_Node000005" class="edge">
<title>Node2&#45;&gt;Node5</title>
<g id="a_edge4_Node000002_Node000005"><a xlink:title=" ">
<path fill="none" stroke="#63b8ff" d="M508.61,-273.89C497.65,-259.89 485.69,-244.59 475.21,-231.2"/>
<polygon fill="none" stroke="#63b8ff" points="506,-276.25 514.92,-281.97 511.52,-271.93 506,-276.25"/>
</a>
</g>
</g>
<!-- Node6 -->
<g id="Node000006" class="node">
<title>Node6</title>
<g id="a_Node000006"><a xlink:href="classGuildmaster_1_1Combat_1_1Effects_1_1Components_1_1StatModifierComponent.html" target="_top" xlink:title="Накладывает стат&#45;модификаторы на носителя на время жизни эффекта.">
<polygon fill="white" stroke="transparent" points="736,-231 545,-231 545,-156 736,-156 736,-231"/>
<text text-anchor="start" x="550.5" y="-218.5" font-family="Helvetica,sans-Serif" font-size="10.00">Guildmaster.Combat.Effects.</text>
<text text-anchor="start" x="550.5" y="-207.5" font-family="Helvetica,sans-Serif" font-size="10.00">Components.StatModifierComponent</text>
<text text-anchor="start" x="639" y="-192.5" font-family="Helvetica,sans-Serif" font-size="10.00"> </text>
<text text-anchor="start" x="579" y="-177.5" font-family="Helvetica,sans-Serif" font-size="10.00">+</text>
<text text-anchor="start" x="621.5" y="-177.5" font-family="Helvetica,sans-Serif" font-size="10.00">OnApply()</text>
<text text-anchor="start" x="579" y="-162.5" font-family="Helvetica,sans-Serif" font-size="10.00">+</text>
<text text-anchor="start" x="621.5" y="-162.5" font-family="Helvetica,sans-Serif" font-size="10.00">OnExpire()</text>
<polygon fill="#666666" stroke="#666666" points="545.5,-202.5 545.5,-202.5 736.5,-202.5 736.5,-202.5 545.5,-202.5"/>
<polygon fill="#666666" stroke="#666666" points="545.5,-187.5 545.5,-187.5 736.5,-187.5 736.5,-187.5 545.5,-187.5"/>
<polygon fill="none" stroke="#666666" points="545,-156 545,-231 736,-231 736,-156 545,-156"/>
</a>
</g>
</g>
<!-- Node2&#45;&gt;Node6 -->
<g id="edge5_Node000002_Node000006" class="edge">
<title>Node2&#45;&gt;Node6</title>
<g id="a_edge5_Node000002_Node000006"><a xlink:title=" ">
<path fill="none" stroke="#63b8ff" d="M578.39,-273.89C589.35,-259.89 601.31,-244.59 611.79,-231.2"/>
<polygon fill="none" stroke="#63b8ff" points="575.48,-271.93 572.08,-281.97 581,-276.25 575.48,-271.93"/>
</a>
</g>
</g>
<!-- Node7 -->
<g id="Node000007" class="node">
<title>Node7</title>
<g id="a_Node000007"><a xlink:href="interfaceGuildmaster_1_1Combat_1_1Effects_1_1IPeriodicComponent.html" target="_top" xlink:title="Периодический компонент: OnTick каждые Interval секунд (DoT/HoT/реген).">
<polygon fill="white" stroke="transparent" points="904.5,-223.5 754.5,-223.5 754.5,-163.5 904.5,-163.5 904.5,-223.5"/>
<text text-anchor="start" x="759.5" y="-211.5" font-family="Helvetica,sans-Serif" font-size="10.00">Guildmaster.Combat.Effects.</text>
<text text-anchor="start" x="780" y="-200.5" font-family="Helvetica,sans-Serif" font-size="10.00">IPeriodicComponent</text>
<text text-anchor="start" x="780" y="-185.5" font-family="Helvetica,sans-Serif" font-size="10.00">+</text>
<text text-anchor="start" x="814.5" y="-185.5" font-family="Helvetica,sans-Serif" font-size="10.00">Interval</text>
<text text-anchor="start" x="780" y="-170.5" font-family="Helvetica,sans-Serif" font-size="10.00">+</text>
<text text-anchor="start" x="814.5" y="-170.5" font-family="Helvetica,sans-Serif" font-size="10.00">OnTick()</text>
<polygon fill="#666666" stroke="#666666" points="754.5,-195.5 754.5,-195.5 904.5,-195.5 904.5,-195.5 754.5,-195.5"/>
<polygon fill="#666666" stroke="#666666" points="754.5,-180.5 754.5,-180.5 812.5,-180.5 812.5,-180.5 754.5,-180.5"/>
<polygon fill="#666666" stroke="#666666" points="812.5,-180.5 812.5,-180.5 904.5,-180.5 904.5,-180.5 812.5,-180.5"/>
<polygon fill="none" stroke="#666666" points="754.5,-163.5 754.5,-223.5 904.5,-223.5 904.5,-163.5 754.5,-163.5"/>
</a>
</g>
</g>
<!-- Node2&#45;&gt;Node7 -->
<g id="edge6_Node000002_Node000007" class="edge">
<title>Node2&#45;&gt;Node7</title>
<g id="a_edge6_Node000002_Node000007"><a xlink:title=" ">
<path fill="none" stroke="#63b8ff" d="M628.52,-292.02C664.91,-279.62 707.47,-263.68 744.5,-246 758.05,-239.53 772.2,-231.51 784.99,-223.74"/>
<polygon fill="none" stroke="#63b8ff" points="627.28,-288.74 618.92,-295.26 629.51,-295.38 627.28,-288.74"/>
</a>
</g>
</g>
<!-- Node10 -->
<g id="Node000010" class="node">
<title>Node10</title>
<g id="a_Node000010"><a xlink:href="interfaceGuildmaster_1_1Combat_1_1Effects_1_1IReactiveComponent.html" target="_top" xlink:title="Реактивный компонент: реагирует на боевые события (вампиризм/шипы). Диспатч — внутренняя FIFO&#45;очередь...">
<polygon fill="white" stroke="transparent" points="1105.5,-223.5 955.5,-223.5 955.5,-163.5 1105.5,-163.5 1105.5,-223.5"/>
<text text-anchor="start" x="960.5" y="-211.5" font-family="Helvetica,sans-Serif" font-size="10.00">Guildmaster.Combat.Effects.</text>
<text text-anchor="start" x="979" y="-200.5" font-family="Helvetica,sans-Serif" font-size="10.00">IReactiveComponent</text>
<text text-anchor="start" x="979.5" y="-185.5" font-family="Helvetica,sans-Serif" font-size="10.00">+</text>
<text text-anchor="start" x="1012.5" y="-185.5" font-family="Helvetica,sans-Serif" font-size="10.00">Events</text>
<text text-anchor="start" x="979.5" y="-170.5" font-family="Helvetica,sans-Serif" font-size="10.00">+</text>
<text text-anchor="start" x="1012.5" y="-170.5" font-family="Helvetica,sans-Serif" font-size="10.00">OnEvent()</text>
<polygon fill="#666666" stroke="#666666" points="955.5,-195.5 955.5,-195.5 1105.5,-195.5 1105.5,-195.5 955.5,-195.5"/>
<polygon fill="#666666" stroke="#666666" points="955.5,-180.5 955.5,-180.5 1010.5,-180.5 1010.5,-180.5 955.5,-180.5"/>
<polygon fill="#666666" stroke="#666666" points="1010.5,-180.5 1010.5,-180.5 1105.5,-180.5 1105.5,-180.5 1010.5,-180.5"/>
<polygon fill="none" stroke="#666666" points="955.5,-163.5 955.5,-223.5 1105.5,-223.5 1105.5,-163.5 955.5,-163.5"/>
</a>
</g>
</g>
<!-- Node2&#45;&gt;Node10 -->
<g id="edge9_Node000002_Node000010" class="edge">
<title>Node2&#45;&gt;Node10</title>
<g id="a_edge9_Node000002_Node000010"><a xlink:title=" ">
<path fill="none" stroke="#63b8ff" d="M628.75,-307.27C704.62,-296 818.02,-275.96 913.5,-246 932.77,-239.95 953.12,-231.7 971.36,-223.57"/>
<polygon fill="none" stroke="#63b8ff" points="628.15,-303.82 618.77,-308.74 629.17,-310.75 628.15,-303.82"/>
</a>
</g>
</g>
<!-- Node8 -->
<g id="Node000008" class="node">
<title>Node8</title>
<g id="a_Node000008"><a xlink:href="classGuildmaster_1_1Combat_1_1Effects_1_1Components_1_1PeriodicDamageComponent.html" target="_top" xlink:title="Периодический урон (DoT).">
<polygon fill="white" stroke="transparent" points="714.5,-105 502.5,-105 502.5,0 714.5,0 714.5,-105"/>
<text text-anchor="start" x="507.5" y="-92.5" font-family="Helvetica,sans-Serif" font-size="10.00">Guildmaster.Combat.Effects.</text>
<text text-anchor="start" x="507.5" y="-81.5" font-family="Helvetica,sans-Serif" font-size="10.00">Components.PeriodicDamageComponent</text>
<text text-anchor="start" x="541" y="-66.5" font-family="Helvetica,sans-Serif" font-size="10.00">+</text>
<text text-anchor="start" x="588.5" y="-66.5" font-family="Helvetica,sans-Serif" font-size="10.00">Interval</text>
<text text-anchor="start" x="541" y="-51.5" font-family="Helvetica,sans-Serif" font-size="10.00">+</text>
<text text-anchor="start" x="588.5" y="-51.5" font-family="Helvetica,sans-Serif" font-size="10.00">Potency</text>
<text text-anchor="start" x="541" y="-36.5" font-family="Helvetica,sans-Serif" font-size="10.00">+</text>
<text text-anchor="start" x="588.5" y="-36.5" font-family="Helvetica,sans-Serif" font-size="10.00">OnApply()</text>
<text text-anchor="start" x="541" y="-21.5" font-family="Helvetica,sans-Serif" font-size="10.00">+</text>
<text text-anchor="start" x="588.5" y="-21.5" font-family="Helvetica,sans-Serif" font-size="10.00">OnExpire()</text>
<text text-anchor="start" x="541" y="-6.5" font-family="Helvetica,sans-Serif" font-size="10.00">+</text>
<text text-anchor="start" x="588.5" y="-6.5" font-family="Helvetica,sans-Serif" font-size="10.00">OnTick()</text>
<polygon fill="#666666" stroke="#666666" points="502.5,-76.5 502.5,-76.5 714.5,-76.5 714.5,-76.5 502.5,-76.5"/>
<polygon fill="#666666" stroke="#666666" points="502.5,-46.5 502.5,-46.5 586.5,-46.5 586.5,-46.5 502.5,-46.5"/>
<polygon fill="#666666" stroke="#666666" points="586.5,-46.5 586.5,-46.5 714.5,-46.5 714.5,-46.5 586.5,-46.5"/>
<polygon fill="none" stroke="#666666" points="502.5,0 502.5,-105 714.5,-105 714.5,0 502.5,0"/>
</a>
</g>
</g>
<!-- Node7&#45;&gt;Node8 -->
<g id="edge7_Node000007_Node000008" class="edge">
<title>Node7&#45;&gt;Node8</title>
<g id="a_edge7_Node000007_Node000008"><a xlink:title=" ">
<path fill="none" stroke="#63b8ff" d="M774.44,-157.87C749.08,-141.92 718.48,-122.67 690.49,-105.07"/>
<polygon fill="none" stroke="#63b8ff" points="772.84,-161 783.17,-163.36 776.57,-155.07 772.84,-161"/>
</a>
</g>
</g>
<!-- Node9 -->
<g id="Node000009" class="node">
<title>Node9</title>
<g id="a_Node000009"><a xlink:href="classGuildmaster_1_1Combat_1_1Effects_1_1Components_1_1PeriodicHealComponent.html" target="_top" xlink:title="Периодическое исцеление (HoT).">
<polygon fill="white" stroke="transparent" points="926,-105 733,-105 733,0 926,0 926,-105"/>
<text text-anchor="start" x="738.5" y="-92.5" font-family="Helvetica,sans-Serif" font-size="10.00">Guildmaster.Combat.Effects.</text>
<text text-anchor="start" x="738.5" y="-81.5" font-family="Helvetica,sans-Serif" font-size="10.00">Components.PeriodicHealComponent</text>
<text text-anchor="start" x="767.5" y="-66.5" font-family="Helvetica,sans-Serif" font-size="10.00">+</text>
<text text-anchor="start" x="810.5" y="-66.5" font-family="Helvetica,sans-Serif" font-size="10.00">Interval</text>
<text text-anchor="start" x="767.5" y="-51.5" font-family="Helvetica,sans-Serif" font-size="10.00">+</text>
<text text-anchor="start" x="810.5" y="-51.5" font-family="Helvetica,sans-Serif" font-size="10.00">Potency</text>
<text text-anchor="start" x="767.5" y="-36.5" font-family="Helvetica,sans-Serif" font-size="10.00">+</text>
<text text-anchor="start" x="810.5" y="-36.5" font-family="Helvetica,sans-Serif" font-size="10.00">OnApply()</text>
<text text-anchor="start" x="767.5" y="-21.5" font-family="Helvetica,sans-Serif" font-size="10.00">+</text>
<text text-anchor="start" x="810.5" y="-21.5" font-family="Helvetica,sans-Serif" font-size="10.00">OnExpire()</text>
<text text-anchor="start" x="767.5" y="-6.5" font-family="Helvetica,sans-Serif" font-size="10.00">+</text>
<text text-anchor="start" x="810.5" y="-6.5" font-family="Helvetica,sans-Serif" font-size="10.00">OnTick()</text>
<polygon fill="#666666" stroke="#666666" points="733.5,-76.5 733.5,-76.5 926.5,-76.5 926.5,-76.5 733.5,-76.5"/>
<polygon fill="#666666" stroke="#666666" points="733.5,-46.5 733.5,-46.5 808.5,-46.5 808.5,-46.5 733.5,-46.5"/>
<polygon fill="#666666" stroke="#666666" points="808.5,-46.5 808.5,-46.5 926.5,-46.5 926.5,-46.5 808.5,-46.5"/>
<polygon fill="none" stroke="#666666" points="733,0 733,-105 926,-105 926,0 733,0"/>
</a>
</g>
</g>
<!-- Node7&#45;&gt;Node9 -->
<g id="edge8_Node000007_Node000009" class="edge">
<title>Node7&#45;&gt;Node9</title>
<g id="a_edge8_Node000007_Node000009"><a xlink:title=" ">
<path fill="none" stroke="#63b8ff" d="M829.5,-152.97C829.5,-138.07 829.5,-120.9 829.5,-105.07"/>
<polygon fill="none" stroke="#63b8ff" points="826,-153.36 829.5,-163.36 833,-153.36 826,-153.36"/>
</a>
</g>
</g>
<!-- Node11 -->
<g id="Node000011" class="node">
<title>Node11</title>
<g id="a_Node000011"><a xlink:href="classGuildmaster_1_1Combat_1_1Effects_1_1Components_1_1LifestealComponent.html" target="_top" xlink:title="Вампиризм: исцеляет носителя на долю нанесённого им урона.">
<polygon fill="white" stroke="transparent" points="1117,-97.5 944,-97.5 944,-7.5 1117,-7.5 1117,-97.5"/>
<text text-anchor="start" x="949.5" y="-85.5" font-family="Helvetica,sans-Serif" font-size="10.00">Guildmaster.Combat.Effects.</text>
<text text-anchor="start" x="949.5" y="-74.5" font-family="Helvetica,sans-Serif" font-size="10.00">Components.LifestealComponent</text>
<text text-anchor="start" x="973.5" y="-59.5" font-family="Helvetica,sans-Serif" font-size="10.00">+</text>
<text text-anchor="start" x="1011.5" y="-59.5" font-family="Helvetica,sans-Serif" font-size="10.00">Events</text>
<text text-anchor="start" x="973.5" y="-44.5" font-family="Helvetica,sans-Serif" font-size="10.00">+</text>
<text text-anchor="start" x="1011.5" y="-44.5" font-family="Helvetica,sans-Serif" font-size="10.00">OnApply()</text>
<text text-anchor="start" x="973.5" y="-29.5" font-family="Helvetica,sans-Serif" font-size="10.00">+</text>
<text text-anchor="start" x="1011.5" y="-29.5" font-family="Helvetica,sans-Serif" font-size="10.00">OnExpire()</text>
<text text-anchor="start" x="973.5" y="-14.5" font-family="Helvetica,sans-Serif" font-size="10.00">+</text>
<text text-anchor="start" x="1011.5" y="-14.5" font-family="Helvetica,sans-Serif" font-size="10.00">OnEvent()</text>
<polygon fill="#666666" stroke="#666666" points="944.5,-69.5 944.5,-69.5 1117.5,-69.5 1117.5,-69.5 944.5,-69.5"/>
<polygon fill="#666666" stroke="#666666" points="944.5,-54.5 944.5,-54.5 1009.5,-54.5 1009.5,-54.5 944.5,-54.5"/>
<polygon fill="#666666" stroke="#666666" points="1009.5,-54.5 1009.5,-54.5 1117.5,-54.5 1117.5,-54.5 1009.5,-54.5"/>
<polygon fill="none" stroke="#666666" points="944,-7.5 944,-97.5 1117,-97.5 1117,-7.5 944,-7.5"/>
</a>
</g>
</g>
<!-- Node10&#45;&gt;Node11 -->
<g id="edge10_Node000010_Node000011" class="edge">
<title>Node10&#45;&gt;Node11</title>
<g id="a_edge10_Node000010_Node000011"><a xlink:title=" ">
<path fill="none" stroke="#63b8ff" d="M1030.5,-153.05C1030.5,-135.78 1030.5,-115.44 1030.5,-97.67"/>
<polygon fill="none" stroke="#63b8ff" points="1027,-153.36 1030.5,-163.36 1034,-153.36 1027,-153.36"/>
</a>
</g>
</g>
<!-- Node12 -->
<g id="Node000012" class="node">
<title>Node12</title>
<g id="a_Node000012"><a xlink:href="classGuildmaster_1_1Combat_1_1Effects_1_1Components_1_1ThornsComponent.html" target="_top" xlink:title="Шипы: отражает долю полученного урона обратно атакующему.">
<polygon fill="white" stroke="transparent" points="1299.5,-97.5 1135.5,-97.5 1135.5,-7.5 1299.5,-7.5 1299.5,-97.5"/>
<text text-anchor="start" x="1140.5" y="-85.5" font-family="Helvetica,sans-Serif" font-size="10.00">Guildmaster.Combat.Effects.</text>
<text text-anchor="start" x="1140.5" y="-74.5" font-family="Helvetica,sans-Serif" font-size="10.00">Components.ThornsComponent</text>
<text text-anchor="start" x="1162" y="-59.5" font-family="Helvetica,sans-Serif" font-size="10.00">+</text>
<text text-anchor="start" x="1197.5" y="-59.5" font-family="Helvetica,sans-Serif" font-size="10.00">Events</text>
<text text-anchor="start" x="1162" y="-44.5" font-family="Helvetica,sans-Serif" font-size="10.00">+</text>
<text text-anchor="start" x="1197.5" y="-44.5" font-family="Helvetica,sans-Serif" font-size="10.00">OnApply()</text>
<text text-anchor="start" x="1162" y="-29.5" font-family="Helvetica,sans-Serif" font-size="10.00">+</text>
<text text-anchor="start" x="1197.5" y="-29.5" font-family="Helvetica,sans-Serif" font-size="10.00">OnExpire()</text>
<text text-anchor="start" x="1162" y="-14.5" font-family="Helvetica,sans-Serif" font-size="10.00">+</text>
<text text-anchor="start" x="1197.5" y="-14.5" font-family="Helvetica,sans-Serif" font-size="10.00">OnEvent()</text>
<polygon fill="#666666" stroke="#666666" points="1135.5,-69.5 1135.5,-69.5 1299.5,-69.5 1299.5,-69.5 1135.5,-69.5"/>
<polygon fill="#666666" stroke="#666666" points="1135.5,-54.5 1135.5,-54.5 1195.5,-54.5 1195.5,-54.5 1135.5,-54.5"/>
<polygon fill="#666666" stroke="#666666" points="1195.5,-54.5 1195.5,-54.5 1299.5,-54.5 1299.5,-54.5 1195.5,-54.5"/>
<polygon fill="none" stroke="#666666" points="1135.5,-7.5 1135.5,-97.5 1299.5,-97.5 1299.5,-7.5 1135.5,-7.5"/>
</a>
</g>
</g>
<!-- Node10&#45;&gt;Node12 -->
<g id="edge11_Node000010_Node000012" class="edge">
<title>Node10&#45;&gt;Node12</title>
<g id="a_edge11_Node000010_Node000012"><a xlink:title=" ">
<path fill="none" stroke="#63b8ff" d="M1077.74,-157.38C1102.13,-139.25 1132.14,-116.95 1158.08,-97.67"/>
<polygon fill="none" stroke="#63b8ff" points="1075.64,-154.59 1069.7,-163.36 1079.82,-160.2 1075.64,-154.59"/>
</a>
</g>
</g>
</g>
</svg>
