<?xml version="1.0" encoding="UTF-8" standalone="no"?>
<!DOCTYPE svg PUBLIC "-//W3C//DTD SVG 1.1//EN"
 "http://www.w3.org/Graphics/SVG/1.1/DTD/svg11.dtd">
<!-- Generated by graphviz version 2.43.0 (0)
 -->
<!-- Title: Guildmaster.Combat.Effects.EffectContext Pages: 1 -->
<!--zoomable 1098 -->

<svg id="main" version="1.1" xmlns="http://www.w3.org/2000/svg" xmlns:xlink="http://www.w3.org/1999/xlink" xml:space="preserve" onload="init(evt)">
<style type="text/css"><![CDATA[
.node, .edge {opacity: 0.7;}
.node.selected, .edge.selected {opacity: 1;}
.edge:hover path { stroke: red; }
.edge:hover polygon { stroke: red; fill: red; }
]]></style>

<defs>
  <circle id="rim" cx="0" cy="0" r="7"/>
  <circle id="rim2" cx="0" cy="0" r="3.5"/>
  <g id="zoomPlus">
    <use xlink:href="#rim" fill="#404040"><set attributeName="fill" to="#808080" begin="zoomplus.mouseover" end="zoomplus.mouseout"/></use>
    <path d="M-4,0h8M0,-4v8" fill="none" stroke="white" stroke-width="1.5" pointer-events="none"/>
  </g>
  <g id="zoomMin">
    <use xlink:href="#rim" fill="#404040"><set attributeName="fill" to="#808080" begin="zoomminus.mouseover" end="zoomminus.mouseout"/></use>
    <path d="M-4,0h8" fill="none" stroke="white" stroke-width="1.5" pointer-events="none"/>
  </g>
  <g id="arrowUp" transform="translate(30 24)">
    <use xlink:href="#rim"/>
    <path pointer-events="none" fill="none" stroke="white" stroke-width="1.5" d="M0,-3.0v7 M-2.5,-0.5L0,-3.0L2.5,-0.5"/>
  </g>
  <g id="arrowRight" transform="rotate(90) translate(36 -43)">
    <use xlink:href="#rim"/>
    <path pointer-events="none" fill="none" stroke="white" stroke-width="1.5" d="M0,-3.0v7 M-2.5,-0.5L0,-3.0L2.5,-0.5"/>
  </g>
  <g id="arrowDown" transform="rotate(180) translate(-30 -48)">
    <use xlink:href="#rim"/>
    <path pointer-events="none" fill="none" stroke="white" stroke-width="1.5" d="M0,-3.0v7 M-2.5,-0.5L0,-3.0L2.5,-0.5"/>
  </g>
  <g id="arrowLeft" transform="rotate(270) translate(-36 17)">
    <use xlink:href="#rim"/>
    <path pointer-events="none" fill="none" stroke="white" stroke-width="1.5" d="M0,-3.0v7 M-2.5,-0.5L0,-3.0L2.5,-0.5"/>
  </g>
  <g id="resetDef">
    <use xlink:href="#rim2" fill="#404040"><set attributeName="fill" to="#808080" begin="reset.mouseover" end="reset.mouseout"/></use>
  </g>
</defs>
<script type="application/ecmascript">
var viewWidth = 568;
var viewHeight = 1098;
var sectionId = 'dynsection-0';
</script>
<script type="application/ecmascript" xlink:href="svg.min.js"/>
<svg id="graph" class="graph">
<g id="viewport">
<title>Guildmaster.Combat.Effects.EffectContext</title>
<!-- Node1 -->
<g id="Node000001" class="node">
<title>Node1</title>
<g id="a_Node000001"><a xlink:title="Контекст, передаваемый компоненту эффекта (in).">
<polygon fill="#999999" stroke="transparent" points="335.5,-105 185.5,-105 185.5,0 335.5,0 335.5,-105"/>
<text text-anchor="start" x="190.5" y="-92.5" font-family="Helvetica,sans-Serif" font-size="10.00">Guildmaster.Combat.Effects.</text>
<text text-anchor="start" x="227" y="-81.5" font-family="Helvetica,sans-Serif" font-size="10.00">EffectContext</text>
<text text-anchor="start" x="203" y="-66.5" font-family="Helvetica,sans-Serif" font-size="10.00">+</text>
<text text-anchor="start" x="229.5" y="-66.5" font-family="Helvetica,sans-Serif" font-size="10.00">Potency</text>
<text text-anchor="start" x="203" y="-51.5" font-family="Helvetica,sans-Serif" font-size="10.00">+</text>
<text text-anchor="start" x="229.5" y="-51.5" font-family="Helvetica,sans-Serif" font-size="10.00">Dt</text>
<text text-anchor="start" x="203" y="-36.5" font-family="Helvetica,sans-Serif" font-size="10.00">+</text>
<text text-anchor="start" x="229.5" y="-36.5" font-family="Helvetica,sans-Serif" font-size="10.00">Rng</text>
<text text-anchor="start" x="203" y="-21.5" font-family="Helvetica,sans-Serif" font-size="10.00">+</text>
<text text-anchor="start" x="229.5" y="-21.5" font-family="Helvetica,sans-Serif" font-size="10.00">Stacks</text>
<text text-anchor="start" x="203" y="-6.5" font-family="Helvetica,sans-Serif" font-size="10.00">+</text>
<text text-anchor="start" x="229.5" y="-6.5" font-family="Helvetica,sans-Serif" font-size="10.00">EffectContext()</text>
<polygon fill="#666666" stroke="#666666" points="185.5,-76.5 185.5,-76.5 335.5,-76.5 335.5,-76.5 185.5,-76.5"/>
<polygon fill="#666666" stroke="#666666" points="185.5,-16.5 185.5,-16.5 227.5,-16.5 227.5,-16.5 185.5,-16.5"/>
<polygon fill="#666666" stroke="#666666" points="227.5,-16.5 227.5,-16.5 335.5,-16.5 335.5,-16.5 227.5,-16.5"/>
<polygon fill="none" stroke="#666666" points="185.5,0 185.5,-105 335.5,-105 335.5,0 185.5,0"/>
</a>
</g>
</g>
<!-- Node2 -->
<g id="Node000002" class="node">
<title>Node2</title>
<g id="a_Node000002"><a xlink:href="classGuildmaster_1_1Combat_1_1RuntimeUnit.html" target="_top" xlink:title="Рантайм&#45;представление юнита на один бой.">
<polygon fill="white" stroke="transparent" points="348.5,-623 172.5,-623 172.5,-364 348.5,-364 348.5,-623"/>
<text text-anchor="start" x="177.5" y="-610.5" font-family="Helvetica,sans-Serif" font-size="10.00">Guildmaster.Combat.RuntimeUnit</text>
<text text-anchor="start" x="194.5" y="-595.5" font-family="Helvetica,sans-Serif" font-size="10.00">+</text>
<text text-anchor="start" x="225.5" y="-595.5" font-family="Helvetica,sans-Serif" font-size="10.00">Id</text>
<text text-anchor="start" x="194.5" y="-580.5" font-family="Helvetica,sans-Serif" font-size="10.00">+</text>
<text text-anchor="start" x="225.5" y="-580.5" font-family="Helvetica,sans-Serif" font-size="10.00">Team</text>
<text text-anchor="start" x="194.5" y="-565.5" font-family="Helvetica,sans-Serif" font-size="10.00">+</text>
<text text-anchor="start" x="225.5" y="-565.5" font-family="Helvetica,sans-Serif" font-size="10.00">CurrentHP</text>
<text text-anchor="start" x="194.5" y="-550.5" font-family="Helvetica,sans-Serif" font-size="10.00">+</text>
<text text-anchor="start" x="225.5" y="-550.5" font-family="Helvetica,sans-Serif" font-size="10.00">CurrentResource</text>
<text text-anchor="start" x="194.5" y="-535.5" font-family="Helvetica,sans-Serif" font-size="10.00">+</text>
<text text-anchor="start" x="225.5" y="-535.5" font-family="Helvetica,sans-Serif" font-size="10.00">CurrentShield</text>
<text text-anchor="start" x="194.5" y="-520.5" font-family="Helvetica,sans-Serif" font-size="10.00">+</text>
<text text-anchor="start" x="225.5" y="-520.5" font-family="Helvetica,sans-Serif" font-size="10.00">Position</text>
<text text-anchor="start" x="194.5" y="-505.5" font-family="Helvetica,sans-Serif" font-size="10.00">+</text>
<text text-anchor="start" x="225.5" y="-505.5" font-family="Helvetica,sans-Serif" font-size="10.00">PreviousPosition</text>
<text text-anchor="start" x="194.5" y="-490.5" font-family="Helvetica,sans-Serif" font-size="10.00">+</text>
<text text-anchor="start" x="225.5" y="-490.5" font-family="Helvetica,sans-Serif" font-size="10.00">AttackCooldown</text>
<text text-anchor="start" x="194.5" y="-475.5" font-family="Helvetica,sans-Serif" font-size="10.00">+</text>
<text text-anchor="start" x="225.5" y="-475.5" font-family="Helvetica,sans-Serif" font-size="10.00">IsDead</text>
<text text-anchor="start" x="194.5" y="-460.5" font-family="Helvetica,sans-Serif" font-size="10.00">+</text>
<text text-anchor="start" x="225.5" y="-460.5" font-family="Helvetica,sans-Serif" font-size="10.00">ActiveEffects</text>
<text text-anchor="start" x="194.5" y="-445.5" font-family="Helvetica,sans-Serif" font-size="10.00">+</text>
<text text-anchor="start" x="225.5" y="-445.5" font-family="Helvetica,sans-Serif" font-size="10.00">EffectTagMask</text>
<text text-anchor="start" x="194.5" y="-430.5" font-family="Helvetica,sans-Serif" font-size="10.00">+</text>
<text text-anchor="start" x="225.5" y="-430.5" font-family="Helvetica,sans-Serif" font-size="10.00">Abilities</text>
<text text-anchor="start" x="194.5" y="-415.5" font-family="Helvetica,sans-Serif" font-size="10.00">+</text>
<text text-anchor="start" x="225.5" y="-415.5" font-family="Helvetica,sans-Serif" font-size="10.00">CanAct</text>
<text text-anchor="start" x="194.5" y="-400.5" font-family="Helvetica,sans-Serif" font-size="10.00">+</text>
<text text-anchor="start" x="225.5" y="-400.5" font-family="Helvetica,sans-Serif" font-size="10.00">CanMove</text>
<text text-anchor="start" x="194.5" y="-385.5" font-family="Helvetica,sans-Serif" font-size="10.00">+</text>
<text text-anchor="start" x="225.5" y="-385.5" font-family="Helvetica,sans-Serif" font-size="10.00">CanCast</text>
<text text-anchor="start" x="258.5" y="-370.5" font-family="Helvetica,sans-Serif" font-size="10.00"> </text>
<polygon fill="#666666" stroke="#666666" points="172.5,-605.5 172.5,-605.5 348.5,-605.5 348.5,-605.5 172.5,-605.5"/>
<polygon fill="#666666" stroke="#666666" points="172.5,-380.5 172.5,-380.5 223.5,-380.5 223.5,-380.5 172.5,-380.5"/>
<polygon fill="#666666" stroke="#666666" points="223.5,-380.5 223.5,-380.5 348.5,-380.5 348.5,-380.5 223.5,-380.5"/>
<polygon fill="none" stroke="#666666" points="172.5,-364 172.5,-623 348.5,-623 348.5,-364 172.5,-364"/>
</a>
</g>
</g>
<!-- Node2&#45;&gt;Node1 -->
<g id="edge1_Node000001_Node000002" class="edge">
<title>Node2&#45;&gt;Node1</title>
<g id="a_edge1_Node000001_Node000002"><a xlink:title=" ">
<path fill="none" stroke="#63b8ff" d="M260.5,-363.75C260.5,-282.75 260.5,-181.74 260.5,-117.42"/>
<polygon fill="none" stroke="#63b8ff" points="260.5,-117.06 256.5,-111.06 260.5,-105.06 264.5,-111.06 260.5,-117.06"/>
</a>
</g>
<text text-anchor="middle" x="283" y="-237.5" font-family="Helvetica,sans-Serif" font-size="10.00" fill="grey"> +Source</text>
<text text-anchor="middle" x="283" y="-226.5" font-family="Helvetica,sans-Serif" font-size="10.00" fill="grey">+Target</text>
</g>
<!-- Node2&#45;&gt;Node2 -->
<g id="edge4_Node000002_Node000002" class="edge">
<title>Node2&#45;&gt;Node2</title>
<g id="a_edge4_Node000002_Node000002"><a xlink:title=" ">
<path fill="none" stroke="#63b8ff" d="M348.63,-518.16C359.43,-513.74 366.5,-505.52 366.5,-493.5 366.5,-485.99 363.74,-479.96 359.03,-475.41"/>
<polygon fill="none" stroke="#63b8ff" points="358.78,-475.25 351.57,-475.43 348.63,-468.84 355.84,-468.67 358.78,-475.25"/>
</a>
</g>
<text text-anchor="middle" x="405.5" y="-491" font-family="Helvetica,sans-Serif" font-size="10.00" fill="grey"> +CurrentTarget</text>
</g>
<!-- Node9 -->
<g id="Node000009" class="node">
<title>Node9</title>
<g id="a_Node000009"><a xlink:href="classGuildmaster_1_1Combat_1_1Effects_1_1RuntimeEffect.html" target="_top" xlink:title="Экземпляр эффекта на конкретном юните (POCO, живёт один бой).">
<polygon fill="white" stroke="transparent" points="224.5,-302 74.5,-302 74.5,-167 224.5,-167 224.5,-302"/>
<text text-anchor="start" x="79.5" y="-289.5" font-family="Helvetica,sans-Serif" font-size="10.00">Guildmaster.Combat.Effects.</text>
<text text-anchor="start" x="114.5" y="-278.5" font-family="Helvetica,sans-Serif" font-size="10.00">RuntimeEffect</text>
<text text-anchor="start" x="89.5" y="-263.5" font-family="Helvetica,sans-Serif" font-size="10.00">+</text>
<text text-anchor="start" x="113.5" y="-263.5" font-family="Helvetica,sans-Serif" font-size="10.00">RemainingTicks</text>
<text text-anchor="start" x="89.5" y="-248.5" font-family="Helvetica,sans-Serif" font-size="10.00">+</text>
<text text-anchor="start" x="113.5" y="-248.5" font-family="Helvetica,sans-Serif" font-size="10.00">FullDurationTicks</text>
<text text-anchor="start" x="89.5" y="-233.5" font-family="Helvetica,sans-Serif" font-size="10.00">+</text>
<text text-anchor="start" x="113.5" y="-233.5" font-family="Helvetica,sans-Serif" font-size="10.00">Stacks</text>
<text text-anchor="start" x="89.5" y="-218.5" font-family="Helvetica,sans-Serif" font-size="10.00">+</text>
<text text-anchor="start" x="113.5" y="-218.5" font-family="Helvetica,sans-Serif" font-size="10.00">ScaledPotency</text>
<text text-anchor="start" x="89.5" y="-203.5" font-family="Helvetica,sans-Serif" font-size="10.00">+</text>
<text text-anchor="start" x="113.5" y="-203.5" font-family="Helvetica,sans-Serif" font-size="10.00">PeriodicTicks</text>
<text text-anchor="start" x="89.5" y="-188.5" font-family="Helvetica,sans-Serif" font-size="10.00">+</text>
<text text-anchor="start" x="113.5" y="-188.5" font-family="Helvetica,sans-Serif" font-size="10.00">IsPermanent</text>
<text text-anchor="start" x="147.5" y="-173.5" font-family="Helvetica,sans-Serif" font-size="10.00"> </text>
<polygon fill="#666666" stroke="#666666" points="74.5,-273.5 74.5,-273.5 224.5,-273.5 224.5,-273.5 74.5,-273.5"/>
<polygon fill="#666666" stroke="#666666" points="74.5,-183.5 74.5,-183.5 111.5,-183.5 111.5,-183.5 74.5,-183.5"/>
<polygon fill="#666666" stroke="#666666" points="111.5,-183.5 111.5,-183.5 224.5,-183.5 224.5,-183.5 111.5,-183.5"/>
<polygon fill="none" stroke="#666666" points="74.5,-167 74.5,-302 224.5,-302 224.5,-167 74.5,-167"/>
</a>
</g>
</g>
<!-- Node2&#45;&gt;Node9 -->
<g id="edge13_Node000009_Node000002" class="edge">
<title>Node2&#45;&gt;Node9</title>
<g id="a_edge13_Node000009_Node000002"><a xlink:title=" ">
<path fill="none" stroke="#63b8ff" d="M204.84,-363.62C197.44,-346.49 190.04,-329.37 183.18,-313.47"/>
<polygon fill="none" stroke="#63b8ff" points="183.04,-313.15 176.98,-309.22 178.28,-302.13 184.33,-306.05 183.04,-313.15"/>
</a>
</g>
<text text-anchor="middle" x="218" y="-338" font-family="Helvetica,sans-Serif" font-size="10.00" fill="grey"> +Source</text>
</g>
<!-- Node3 -->
<g id="Node000003" class="node">
<title>Node3</title>
<g id="a_Node000003"><a xlink:href="classGuildmaster_1_1Combat_1_1Stats.html" target="_top" xlink:title="Рантайм стат&#45;объект юнита.">
<polygon fill="white" stroke="transparent" points="560,-968.5 421,-968.5 421,-874.5 560,-874.5 560,-968.5"/>
<text text-anchor="start" x="426.5" y="-956.5" font-family="Helvetica,sans-Serif" font-size="10.00">Guildmaster.Combat.Stats</text>
<text text-anchor="start" x="489" y="-941.5" font-family="Helvetica,sans-Serif" font-size="10.00"> </text>
<text text-anchor="start" x="425.5" y="-926.5" font-family="Helvetica,sans-Serif" font-size="10.00">+</text>
<text text-anchor="start" x="438.5" y="-926.5" font-family="Helvetica,sans-Serif" font-size="10.00">Stats()</text>
<text text-anchor="start" x="425.5" y="-911.5" font-family="Helvetica,sans-Serif" font-size="10.00">+</text>
<text text-anchor="start" x="438.5" y="-911.5" font-family="Helvetica,sans-Serif" font-size="10.00">Get()</text>
<text text-anchor="start" x="425.5" y="-896.5" font-family="Helvetica,sans-Serif" font-size="10.00">+</text>
<text text-anchor="start" x="438.5" y="-896.5" font-family="Helvetica,sans-Serif" font-size="10.00">AddModifiersFrom()</text>
<text text-anchor="start" x="425.5" y="-881.5" font-family="Helvetica,sans-Serif" font-size="10.00">+</text>
<text text-anchor="start" x="438.5" y="-881.5" font-family="Helvetica,sans-Serif" font-size="10.00">RemoveModifiersFrom()</text>
<polygon fill="#666666" stroke="#666666" points="421.5,-951.5 421.5,-951.5 560.5,-951.5 560.5,-951.5 421.5,-951.5"/>
<polygon fill="#666666" stroke="#666666" points="421.5,-936.5 421.5,-936.5 560.5,-936.5 560.5,-936.5 421.5,-936.5"/>
<polygon fill="none" stroke="#666666" points="421,-874.5 421,-968.5 560,-968.5 560,-874.5 421,-874.5"/>
</a>
</g>
</g>
<!-- Node3&#45;&gt;Node2 -->
<g id="edge2_Node000002_Node000003" class="edge">
<title>Node3&#45;&gt;Node2</title>
<g id="a_edge2_Node000002_Node000003"><a xlink:title=" ">
<path fill="none" stroke="#63b8ff" d="M470.99,-874.49C446.61,-818.26 402.59,-720.76 357.5,-641 356.16,-638.63 354.79,-636.24 353.4,-633.85"/>
<polygon fill="none" stroke="#63b8ff" points="353.28,-633.64 346.79,-630.5 347.2,-623.3 353.69,-626.44 353.28,-633.64"/>
</a>
</g>
<text text-anchor="middle" x="464" y="-728.5" font-family="Helvetica,sans-Serif" font-size="10.00" fill="grey"> +Stats</text>
</g>
<!-- Node4 -->
<g id="Node000004" class="node">
<title>Node4</title>
<g id="a_Node000004"><a xlink:href="interfaceGuildmaster_1_1Data_1_1Stats_1_1IStatReader.html" target="_top" xlink:title="Только&#45;чтение собранных статов.">
<polygon fill="white" stroke="transparent" points="524.5,-1090 456.5,-1090 456.5,-1041 524.5,-1041 524.5,-1090"/>
<text text-anchor="start" x="461.5" y="-1077.5" font-family="Helvetica,sans-Serif" font-size="10.00">IStatReader</text>
<text text-anchor="start" x="488.5" y="-1062.5" font-family="Helvetica,sans-Serif" font-size="10.00"> </text>
<text text-anchor="start" x="466" y="-1047.5" font-family="Helvetica,sans-Serif" font-size="10.00">+</text>
<text text-anchor="start" x="484.5" y="-1047.5" font-family="Helvetica,sans-Serif" font-size="10.00">Get()</text>
<polygon fill="#666666" stroke="#666666" points="456.5,-1072.5 456.5,-1072.5 524.5,-1072.5 524.5,-1072.5 456.5,-1072.5"/>
<polygon fill="#666666" stroke="#666666" points="456.5,-1057.5 456.5,-1057.5 524.5,-1057.5 524.5,-1057.5 456.5,-1057.5"/>
<polygon fill="none" stroke="#666666" points="456.5,-1041 456.5,-1090 524.5,-1090 524.5,-1041 456.5,-1041"/>
</a>
</g>
</g>
<!-- Node4&#45;&gt;Node3 -->
<g id="edge3_Node000003_Node000004" class="edge">
<title>Node4&#45;&gt;Node3</title>
<g id="a_edge3_Node000003_Node000004"><a xlink:title=" ">
<path fill="none" stroke="#63b8ff" d="M490.5,-1030.7C490.5,-1012.18 490.5,-988.95 490.5,-968.77"/>
<polygon fill="none" stroke="#63b8ff" points="487,-1030.73 490.5,-1040.73 494,-1030.73 487,-1030.73"/>
</a>
</g>
</g>
<!-- Node5 -->
<g id="Node000005" class="node">
<title>Node5</title>
<g id="a_Node000005"><a xlink:href="classGuildmaster_1_1Data_1_1Definitions_1_1RelicData.html" target="_top" xlink:title="«Чемпион» — стат&#45;блок и боевые категории юнита.">
<polygon fill="white" stroke="transparent" points="230,-1004 75,-1004 75,-839 230,-839 230,-1004"/>
<text text-anchor="start" x="80.5" y="-991.5" font-family="Helvetica,sans-Serif" font-size="10.00">Guildmaster.Data.Definitions.</text>
<text text-anchor="start" x="129" y="-980.5" font-family="Helvetica,sans-Serif" font-size="10.00">RelicData</text>
<text text-anchor="start" x="91.5" y="-965.5" font-family="Helvetica,sans-Serif" font-size="10.00">+</text>
<text text-anchor="start" x="116.5" y="-965.5" font-family="Helvetica,sans-Serif" font-size="10.00">DisplayNameKey</text>
<text text-anchor="start" x="91.5" y="-950.5" font-family="Helvetica,sans-Serif" font-size="10.00">+</text>
<text text-anchor="start" x="116.5" y="-950.5" font-family="Helvetica,sans-Serif" font-size="10.00">Tags</text>
<text text-anchor="start" x="91.5" y="-935.5" font-family="Helvetica,sans-Serif" font-size="10.00">+</text>
<text text-anchor="start" x="116.5" y="-935.5" font-family="Helvetica,sans-Serif" font-size="10.00">DamageType</text>
<text text-anchor="start" x="91.5" y="-920.5" font-family="Helvetica,sans-Serif" font-size="10.00">+</text>
<text text-anchor="start" x="116.5" y="-920.5" font-family="Helvetica,sans-Serif" font-size="10.00">AttackType</text>
<text text-anchor="start" x="91.5" y="-905.5" font-family="Helvetica,sans-Serif" font-size="10.00">+</text>
<text text-anchor="start" x="116.5" y="-905.5" font-family="Helvetica,sans-Serif" font-size="10.00">ResourceType</text>
<text text-anchor="start" x="91.5" y="-890.5" font-family="Helvetica,sans-Serif" font-size="10.00">+</text>
<text text-anchor="start" x="116.5" y="-890.5" font-family="Helvetica,sans-Serif" font-size="10.00">Stats</text>
<text text-anchor="start" x="91.5" y="-875.5" font-family="Helvetica,sans-Serif" font-size="10.00">+</text>
<text text-anchor="start" x="116.5" y="-875.5" font-family="Helvetica,sans-Serif" font-size="10.00">GrantedEffects</text>
<text text-anchor="start" x="91.5" y="-860.5" font-family="Helvetica,sans-Serif" font-size="10.00">+</text>
<text text-anchor="start" x="116.5" y="-860.5" font-family="Helvetica,sans-Serif" font-size="10.00">Abilities</text>
<text text-anchor="start" x="151" y="-845.5" font-family="Helvetica,sans-Serif" font-size="10.00"> </text>
<polygon fill="#666666" stroke="#666666" points="75.5,-975.5 75.5,-975.5 230.5,-975.5 230.5,-975.5 75.5,-975.5"/>
<polygon fill="#666666" stroke="#666666" points="75.5,-855.5 75.5,-855.5 114.5,-855.5 114.5,-855.5 75.5,-855.5"/>
<polygon fill="#666666" stroke="#666666" points="114.5,-855.5 114.5,-855.5 230.5,-855.5 230.5,-855.5 114.5,-855.5"/>
<polygon fill="none" stroke="#666666" points="75,-839 75,-1004 230,-1004 230,-839 75,-839"/>
</a>
</g>
</g>
<!-- Node5&#45;&gt;Node2 -->
<g id="edge5_Node000002_Node000005" class="edge">
<title>Node5&#45;&gt;Node2</title>
<g id="a_edge5_Node000002_Node000005"><a xlink:title=" ">
<path fill="none" stroke="#63b8ff" d="M173.2,-838.87C187.79,-781.32 207.7,-702.78 224.82,-635.24"/>
<polygon fill="none" stroke="#63b8ff" points="224.92,-634.83 222.52,-628.04 227.87,-623.2 230.27,-630 224.92,-634.83"/>
</a>
</g>
<text text-anchor="middle" x="240.5" y="-728.5" font-family="Helvetica,sans-Serif" font-size="10.00" fill="grey"> +Relic</text>
</g>
<!-- Node6 -->
<g id="Node000006" class="node">
<title>Node6</title>
<g id="a_Node000006"><a xlink:title=" ">
<polygon fill="white" stroke="transparent" points="198,-1090 107,-1090 107,-1041 198,-1041 198,-1090"/>
<text text-anchor="start" x="112.5" y="-1077.5" font-family="Helvetica,sans-Serif" font-size="10.00">ScriptableObject</text>
<text text-anchor="start" x="151" y="-1062.5" font-family="Helvetica,sans-Serif" font-size="10.00"> </text>
<text text-anchor="start" x="151" y="-1047.5" font-family="Helvetica,sans-Serif" font-size="10.00"> </text>
<polygon fill="#666666" stroke="#666666" points="107.5,-1072.5 107.5,-1072.5 198.5,-1072.5 198.5,-1072.5 107.5,-1072.5"/>
<polygon fill="#666666" stroke="#666666" points="107.5,-1057.5 107.5,-1057.5 198.5,-1057.5 198.5,-1057.5 107.5,-1057.5"/>
<polygon fill="none" stroke="#666666" points="107,-1041 107,-1090 198,-1090 198,-1041 107,-1041"/>
</a>
</g>
</g>
<!-- Node6&#45;&gt;Node5 -->
<g id="edge6_Node000005_Node000006" class="edge">
<title>Node6&#45;&gt;Node5</title>
<g id="a_edge6_Node000005_Node000006"><a xlink:title=" ">
<path fill="none" stroke="#63b8ff" d="M152.5,-1030.65C152.5,-1022.55 152.5,-1013.54 152.5,-1004.29"/>
<polygon fill="none" stroke="#63b8ff" points="149,-1030.73 152.5,-1040.73 156,-1030.73 149,-1030.73"/>
</a>
</g>
</g>
<!-- Node7 -->
<g id="Node000007" class="node">
<title>Node7</title>
<g id="a_Node000007"><a xlink:href="classGuildmaster_1_1Data_1_1Definitions_1_1VesselData.html" target="_top" xlink:title="«Пилот» — носитель реликвии.">
<polygon fill="white" stroke="transparent" points="403,-966.5 248,-966.5 248,-876.5 403,-876.5 403,-966.5"/>
<text text-anchor="start" x="253.5" y="-954.5" font-family="Helvetica,sans-Serif" font-size="10.00">Guildmaster.Data.Definitions.</text>
<text text-anchor="start" x="298.5" y="-943.5" font-family="Helvetica,sans-Serif" font-size="10.00">VesselData</text>
<text text-anchor="start" x="264.5" y="-928.5" font-family="Helvetica,sans-Serif" font-size="10.00">+</text>
<text text-anchor="start" x="289.5" y="-928.5" font-family="Helvetica,sans-Serif" font-size="10.00">DisplayNameKey</text>
<text text-anchor="start" x="264.5" y="-913.5" font-family="Helvetica,sans-Serif" font-size="10.00">+</text>
<text text-anchor="start" x="289.5" y="-913.5" font-family="Helvetica,sans-Serif" font-size="10.00">Tags</text>
<text text-anchor="start" x="264.5" y="-898.5" font-family="Helvetica,sans-Serif" font-size="10.00">+</text>
<text text-anchor="start" x="289.5" y="-898.5" font-family="Helvetica,sans-Serif" font-size="10.00">TalentModifiers</text>
<text text-anchor="start" x="324" y="-883.5" font-family="Helvetica,sans-Serif" font-size="10.00"> </text>
<polygon fill="#666666" stroke="#666666" points="248.5,-938.5 248.5,-938.5 403.5,-938.5 403.5,-938.5 248.5,-938.5"/>
<polygon fill="#666666" stroke="#666666" points="248.5,-893.5 248.5,-893.5 287.5,-893.5 287.5,-893.5 248.5,-893.5"/>
<polygon fill="#666666" stroke="#666666" points="287.5,-893.5 287.5,-893.5 403.5,-893.5 403.5,-893.5 287.5,-893.5"/>
<polygon fill="none" stroke="#666666" points="248,-876.5 248,-966.5 403,-966.5 403,-876.5 248,-876.5"/>
</a>
</g>
</g>
<!-- Node6&#45;&gt;Node7 -->
<g id="edge8_Node000007_Node000006" class="edge">
<title>Node6&#45;&gt;Node7</title>
<g id="a_edge8_Node000007_Node000006"><a xlink:title=" ">
<path fill="none" stroke="#63b8ff" d="M196.79,-1035.11C210.46,-1025.57 225.37,-1014.68 238.5,-1004 252.63,-992.51 267.32,-979.28 280.53,-966.88"/>
<polygon fill="none" stroke="#63b8ff" points="194.7,-1032.29 188.47,-1040.85 198.68,-1038.05 194.7,-1032.29"/>
</a>
</g>
</g>
<!-- Node10 -->
<g id="Node000010" class="node">
<title>Node10</title>
<g id="a_Node000010"><a xlink:href="classGuildmaster_1_1Data_1_1Definitions_1_1EffectData.html" target="_top" xlink:title="Иммутабельное определение таймированного эффекта: идентичность, полярность, категориальные теги,...">
<polygon fill="white" stroke="transparent" points="155,-821 0,-821 0,-641 155,-641 155,-821"/>
<text text-anchor="start" x="5.5" y="-809" font-family="Helvetica,sans-Serif" font-size="10.00">Guildmaster.Data.Definitions.</text>
<text text-anchor="start" x="52" y="-798" font-family="Helvetica,sans-Serif" font-size="10.00">EffectData</text>
<text text-anchor="start" x="21" y="-783" font-family="Helvetica,sans-Serif" font-size="10.00">+</text>
<text text-anchor="start" x="50.5" y="-783" font-family="Helvetica,sans-Serif" font-size="10.00">Id</text>
<text text-anchor="start" x="21" y="-768" font-family="Helvetica,sans-Serif" font-size="10.00">+</text>
<text text-anchor="start" x="50.5" y="-768" font-family="Helvetica,sans-Serif" font-size="10.00">Polarity</text>
<text text-anchor="start" x="21" y="-753" font-family="Helvetica,sans-Serif" font-size="10.00">+</text>
<text text-anchor="start" x="50.5" y="-753" font-family="Helvetica,sans-Serif" font-size="10.00">Tags</text>
<text text-anchor="start" x="21" y="-738" font-family="Helvetica,sans-Serif" font-size="10.00">+</text>
<text text-anchor="start" x="50.5" y="-738" font-family="Helvetica,sans-Serif" font-size="10.00">BaseDuration</text>
<text text-anchor="start" x="21" y="-723" font-family="Helvetica,sans-Serif" font-size="10.00">+</text>
<text text-anchor="start" x="50.5" y="-723" font-family="Helvetica,sans-Serif" font-size="10.00">Stacking</text>
<text text-anchor="start" x="21" y="-708" font-family="Helvetica,sans-Serif" font-size="10.00">+</text>
<text text-anchor="start" x="50.5" y="-708" font-family="Helvetica,sans-Serif" font-size="10.00">MaxStacks</text>
<text text-anchor="start" x="21" y="-693" font-family="Helvetica,sans-Serif" font-size="10.00">+</text>
<text text-anchor="start" x="50.5" y="-693" font-family="Helvetica,sans-Serif" font-size="10.00">CleanseTier</text>
<text text-anchor="start" x="21" y="-678" font-family="Helvetica,sans-Serif" font-size="10.00">+</text>
<text text-anchor="start" x="50.5" y="-678" font-family="Helvetica,sans-Serif" font-size="10.00">Unremovable</text>
<text text-anchor="start" x="21" y="-663" font-family="Helvetica,sans-Serif" font-size="10.00">+</text>
<text text-anchor="start" x="50.5" y="-663" font-family="Helvetica,sans-Serif" font-size="10.00">Components</text>
<text text-anchor="start" x="76" y="-648" font-family="Helvetica,sans-Serif" font-size="10.00"> </text>
<polygon fill="#666666" stroke="#666666" points="0.5,-793 0.5,-793 155.5,-793 155.5,-793 0.5,-793"/>
<polygon fill="#666666" stroke="#666666" points="0.5,-658 0.5,-658 48.5,-658 48.5,-658 0.5,-658"/>
<polygon fill="#666666" stroke="#666666" points="48.5,-658 48.5,-658 155.5,-658 155.5,-658 48.5,-658"/>
<polygon fill="none" stroke="#666666" points="0,-641 0,-821 155,-821 155,-641 0,-641"/>
</a>
</g>
</g>
<!-- Node6&#45;&gt;Node10 -->
<g id="edge12_Node000010_Node000006" class="edge">
<title>Node6&#45;&gt;Node10</title>
<g id="a_edge12_Node000010_Node000006"><a xlink:title=" ">
<path fill="none" stroke="#63b8ff" d="M98.11,-1038.49C85.09,-1029.49 72.84,-1018.04 65.5,-1004 36.33,-948.18 40.77,-876.78 51.75,-821.14"/>
<polygon fill="none" stroke="#63b8ff" points="96.44,-1041.57 106.74,-1044.05 100.23,-1035.69 96.44,-1041.57"/>
</a>
</g>
</g>
<!-- Node7&#45;&gt;Node2 -->
<g id="edge7_Node000002_Node000007" class="edge">
<title>Node7&#45;&gt;Node2</title>
<g id="a_edge7_Node000002_Node000007"><a xlink:title=" ">
<path fill="none" stroke="#63b8ff" d="M318.73,-876.12C310.09,-819.49 294.73,-718.86 281.96,-635.14"/>
<polygon fill="none" stroke="#63b8ff" points="281.95,-635.05 277.09,-629.72 280.14,-623.19 284.99,-628.51 281.95,-635.05"/>
</a>
</g>
<text text-anchor="middle" x="332" y="-728.5" font-family="Helvetica,sans-Serif" font-size="10.00" fill="grey"> +Vessel</text>
</g>
<!-- Node8 -->
<g id="Node000008" class="node">
<title>Node8</title>
<g id="a_Node000008"><a xlink:href="interfaceGuildmaster_1_1Combat_1_1ICombatContext.html" target="_top" xlink:title="Шов «логика эффектов/способностей ↔ боевой мир».">
<polygon fill="white" stroke="transparent" points="479,-317 324,-317 324,-152 479,-152 479,-317"/>
<text text-anchor="start" x="329.5" y="-304.5" font-family="Helvetica,sans-Serif" font-size="10.00">Guildmaster.Combat.ICombat</text>
<text text-anchor="start" x="382.5" y="-293.5" font-family="Helvetica,sans-Serif" font-size="10.00">Context</text>
<text text-anchor="start" x="335.5" y="-278.5" font-family="Helvetica,sans-Serif" font-size="10.00">+</text>
<text text-anchor="start" x="355.5" y="-278.5" font-family="Helvetica,sans-Serif" font-size="10.00">Rng</text>
<text text-anchor="start" x="335.5" y="-263.5" font-family="Helvetica,sans-Serif" font-size="10.00">+</text>
<text text-anchor="start" x="355.5" y="-263.5" font-family="Helvetica,sans-Serif" font-size="10.00">CurrentTick</text>
<text text-anchor="start" x="335.5" y="-248.5" font-family="Helvetica,sans-Serif" font-size="10.00">+</text>
<text text-anchor="start" x="355.5" y="-248.5" font-family="Helvetica,sans-Serif" font-size="10.00">ArmorK</text>
<text text-anchor="start" x="335.5" y="-233.5" font-family="Helvetica,sans-Serif" font-size="10.00">+</text>
<text text-anchor="start" x="355.5" y="-233.5" font-family="Helvetica,sans-Serif" font-size="10.00">DealDamage()</text>
<text text-anchor="start" x="335.5" y="-218.5" font-family="Helvetica,sans-Serif" font-size="10.00">+</text>
<text text-anchor="start" x="355.5" y="-218.5" font-family="Helvetica,sans-Serif" font-size="10.00">Heal()</text>
<text text-anchor="start" x="335.5" y="-203.5" font-family="Helvetica,sans-Serif" font-size="10.00">+</text>
<text text-anchor="start" x="355.5" y="-203.5" font-family="Helvetica,sans-Serif" font-size="10.00">SpawnProjectile()</text>
<text text-anchor="start" x="335.5" y="-188.5" font-family="Helvetica,sans-Serif" font-size="10.00">+</text>
<text text-anchor="start" x="355.5" y="-188.5" font-family="Helvetica,sans-Serif" font-size="10.00">QueryUnitsInRadius()</text>
<text text-anchor="start" x="335.5" y="-173.5" font-family="Helvetica,sans-Serif" font-size="10.00">+</text>
<text text-anchor="start" x="355.5" y="-173.5" font-family="Helvetica,sans-Serif" font-size="10.00">ApplyEffect()</text>
<text text-anchor="start" x="335.5" y="-158.5" font-family="Helvetica,sans-Serif" font-size="10.00">+</text>
<text text-anchor="start" x="355.5" y="-158.5" font-family="Helvetica,sans-Serif" font-size="10.00">Dispel()</text>
<polygon fill="#666666" stroke="#666666" points="324.5,-288.5 324.5,-288.5 479.5,-288.5 479.5,-288.5 324.5,-288.5"/>
<polygon fill="#666666" stroke="#666666" points="324.5,-243.5 324.5,-243.5 353.5,-243.5 353.5,-243.5 324.5,-243.5"/>
<polygon fill="#666666" stroke="#666666" points="353.5,-243.5 353.5,-243.5 479.5,-243.5 479.5,-243.5 353.5,-243.5"/>
<polygon fill="none" stroke="#666666" points="324,-152 324,-317 479,-317 479,-152 324,-152"/>
</a>
</g>
</g>
<!-- Node8&#45;&gt;Node1 -->
<g id="edge9_Node000001_Node000008" class="edge">
<title>Node8&#45;&gt;Node1</title>
<g id="a_edge9_Node000001_Node000008"><a xlink:title=" ">
<path fill="none" stroke="#63b8ff" d="M337.6,-151.93C327.87,-139.5 317.96,-126.86 308.64,-114.96"/>
<polygon fill="none" stroke="#63b8ff" points="308.36,-114.6 301.52,-112.35 300.96,-105.16 307.81,-107.41 308.36,-114.6"/>
</a>
</g>
<text text-anchor="middle" x="347.5" y="-126" font-family="Helvetica,sans-Serif" font-size="10.00" fill="grey"> +Combat</text>
</g>
<!-- Node9&#45;&gt;Node1 -->
<g id="edge10_Node000001_Node000009" class="edge">
<title>Node9&#45;&gt;Node1</title>
<g id="a_edge10_Node000001_Node000009"><a xlink:title=" ">
<path fill="none" stroke="#63b8ff" d="M181.31,-166.94C189.06,-152.18 197.67,-136.83 206.5,-123 208.16,-120.41 209.88,-117.79 211.66,-115.18"/>
<polygon fill="none" stroke="#63b8ff" points="211.84,-114.93 212.02,-107.72 218.74,-105.12 218.56,-112.33 211.84,-114.93"/>
</a>
</g>
<text text-anchor="middle" x="226.5" y="-126" font-family="Helvetica,sans-Serif" font-size="10.00" fill="grey"> +Effect</text>
</g>
<!-- Node10&#45;&gt;Node9 -->
<g id="edge11_Node000009_Node000010" class="edge">
<title>Node10&#45;&gt;Node9</title>
<g id="a_edge11_Node000009_Node000010"><a xlink:title=" ">
<path fill="none" stroke="#63b8ff" d="M90.5,-640.74C104.05,-547.65 125.09,-403.15 138.04,-314.2"/>
<polygon fill="none" stroke="#63b8ff" points="138.05,-314.17 134.95,-307.65 139.77,-302.29 142.87,-308.81 138.05,-314.17"/>
</a>
</g>
<text text-anchor="middle" x="145" y="-491" font-family="Helvetica,sans-Serif" font-size="10.00" fill="grey"> +Def</text>
</g>
</g>
</svg>

<g id="navigator" transform="translate(0 0)" fill="#404254">
  <rect fill="#f2f5e9" fill-opacity="0.5" stroke="#606060" stroke-width=".5" x="0" y="0" width="60" height="60"/>
  <use id="zoomplus" xlink:href="#zoomPlus" x="17" y="9" onmousedown="handleZoom(evt,'in')"/>
  <use id="zoomminus" xlink:href="#zoomMin" x="42" y="9" onmousedown="handleZoom(evt,'out')"/>
  <use id="reset" xlink:href="#resetDef" x="30" y="36" onmousedown="handleReset()"/>
   <use id="arrowup" xlink:href="#arrowUp" x="0" y="0" onmousedown="handlePan(0,-1)"/>
  <use id="arrowright" xlink:href="#arrowRight" x="0" y="0" onmousedown="handlePan(1,0)"/>
  <use id="arrowdown" xlink:href="#arrowDown" x="0" y="0" onmousedown="handlePan(0,1)"/>
  <use id="arrowleft" xlink:href="#arrowLeft" x="0" y="0" onmousedown="handlePan(-1,0)"/>
</g>
<svg viewBox="0 0 15 15" width="100%" height="30px" preserveAspectRatio="xMaxYMin meet">
 <g id="arrow_out" transform="scale(0.3 0.3)">
  <a xlink:href="structGuildmaster_1_1Combat_1_1Effects_1_1EffectContext__coll__graph_org.svg" target="_base">
   <rect id="button" ry="5" rx="5" y="6" x="6" height="38" width="38"
        fill="#f2f5e9" fill-opacity="0.5" stroke="#606060" stroke-width="1.0"/>
   <path id="arrow"
     d="M 11.500037,31.436501 C 11.940474,20.09759 22.043105,11.32322 32.158766,21.979434 L 37.068811,17.246167 C 37.068811,17.246167 37.088388,32 37.088388,32 L 22.160133,31.978069 C 22.160133,31.978069 26.997745,27.140456 26.997745,27.140456 C 18.528582,18.264221 13.291696,25.230495 11.500037,31.436501 z"
     style="fill:#404040;"/>
  </a>
 </g>
</svg>

<style type='text/css'>
<![CDATA[
[data-mouse-over-selected='false'] { opacity: 0.7; }
[data-mouse-over-selected='true']  { opacity: 1.0; }
]]>
</style>
<script type="application/ecmascript"><![CDATA[
document.addEventListener('DOMContentLoaded', (event) => {
  highlightEdges();
  highlightAdjacentNodes();
});
]]></script>
</svg>
