<?xml version="1.0" encoding="UTF-8" standalone="no"?>
<!DOCTYPE svg PUBLIC "-//W3C//DTD SVG 1.1//EN"
 "http://www.w3.org/Graphics/SVG/1.1/DTD/svg11.dtd">
<!-- Generated by graphviz version 2.43.0 (0)
 -->
<!-- Title: Guildmaster.Data.Definitions.ActivityChangedEvent Pages: 1 -->
<svg width="182pt" height="462pt"
 viewBox="0.00 0.00 182.00 462.00" xmlns="http://www.w3.org/2000/svg" xmlns:xlink="http://www.w3.org/1999/xlink">
<g id="graph0" class="graph" transform="scale(1 1) rotate(0) translate(4 458)">
<title>Guildmaster.Data.Definitions.ActivityChangedEvent</title>
<!-- Node1 -->
<g id="Node000001" class="node">
<title>Node1</title>
<g id="a_Node000001"><a xlink:title="Мероприятие открылось или закрылось.">
<polygon fill="#999999" stroke="transparent" points="164.5,-60 9.5,-60 9.5,0 164.5,0 164.5,-60"/>
<text text-anchor="start" x="15" y="-48" font-family="Helvetica,sans-Serif" font-size="10.00">Guildmaster.Data.Definitions.</text>
<text text-anchor="start" x="33" y="-37" font-family="Helvetica,sans-Serif" font-size="10.00">ActivityChangedEvent</text>
<text text-anchor="start" x="18.5" y="-22" font-family="Helvetica,sans-Serif" font-size="10.00">+</text>
<text text-anchor="start" x="36" y="-22" font-family="Helvetica,sans-Serif" font-size="10.00">IsOpen</text>
<text text-anchor="start" x="18.5" y="-7" font-family="Helvetica,sans-Serif" font-size="10.00">+</text>
<text text-anchor="start" x="36" y="-7" font-family="Helvetica,sans-Serif" font-size="10.00">ActivityChangedEvent()</text>
<polygon fill="#666666" stroke="#666666" points="10,-32 10,-32 165,-32 165,-32 10,-32"/>
<polygon fill="#666666" stroke="#666666" points="10,-17 10,-17 34,-17 34,-17 10,-17"/>
<polygon fill="#666666" stroke="#666666" points="34,-17 34,-17 165,-17 165,-17 34,-17"/>
<polygon fill="none" stroke="#666666" points="9.5,0 9.5,-60 164.5,-60 164.5,0 9.5,0"/>
</a>
</g>
</g>
<!-- Node2 -->
<g id="Node000002" class="node">
<title>Node2</title>
<g id="a_Node000002"><a xlink:href="structGuildmaster_1_1Data_1_1Definitions_1_1ActivitySetup.html" target="_top" xlink:title="С чем открыто мероприятие: вид плюс ограничения площадки.">
<polygon fill="white" stroke="transparent" points="164.5,-302 9.5,-302 9.5,-107 164.5,-107 164.5,-302"/>
<text text-anchor="start" x="15" y="-289.5" font-family="Helvetica,sans-Serif" font-size="10.00">Guildmaster.Data.Definitions.</text>
<text text-anchor="start" x="54.5" y="-278.5" font-family="Helvetica,sans-Serif" font-size="10.00">ActivitySetup</text>
<text text-anchor="start" x="22.5" y="-263.5" font-family="Helvetica,sans-Serif" font-size="10.00">+</text>
<text text-anchor="start" x="44" y="-263.5" font-family="Helvetica,sans-Serif" font-size="10.00">Kind</text>
<text text-anchor="start" x="22.5" y="-248.5" font-family="Helvetica,sans-Serif" font-size="10.00">+</text>
<text text-anchor="start" x="44" y="-248.5" font-family="Helvetica,sans-Serif" font-size="10.00">HideOpponent</text>
<text text-anchor="start" x="22.5" y="-233.5" font-family="Helvetica,sans-Serif" font-size="10.00">+</text>
<text text-anchor="start" x="44" y="-233.5" font-family="Helvetica,sans-Serif" font-size="10.00">Opposition</text>
<text text-anchor="start" x="22.5" y="-218.5" font-family="Helvetica,sans-Serif" font-size="10.00">+</text>
<text text-anchor="start" x="44" y="-218.5" font-family="Helvetica,sans-Serif" font-size="10.00">IsOpen</text>
<text text-anchor="start" x="22.5" y="-203.5" font-family="Helvetica,sans-Serif" font-size="10.00">+</text>
<text text-anchor="start" x="44" y="-203.5" font-family="Helvetica,sans-Serif" font-size="10.00">SidesAreDealt</text>
<text text-anchor="start" x="22.5" y="-188.5" font-family="Helvetica,sans-Serif" font-size="10.00">+</text>
<text text-anchor="start" x="44" y="-188.5" font-family="Helvetica,sans-Serif" font-size="10.00">Campaign</text>
<text text-anchor="start" x="22.5" y="-173.5" font-family="Helvetica,sans-Serif" font-size="10.00">+</text>
<text text-anchor="start" x="44" y="-173.5" font-family="Helvetica,sans-Serif" font-size="10.00">ProvingGrounds</text>
<text text-anchor="start" x="22.5" y="-158.5" font-family="Helvetica,sans-Serif" font-size="10.00">+</text>
<text text-anchor="start" x="44" y="-158.5" font-family="Helvetica,sans-Serif" font-size="10.00">Pvp</text>
<text text-anchor="start" x="22.5" y="-143.5" font-family="Helvetica,sans-Serif" font-size="10.00">+</text>
<text text-anchor="start" x="44" y="-143.5" font-family="Helvetica,sans-Serif" font-size="10.00">ActivitySetup()</text>
<text text-anchor="start" x="22.5" y="-128.5" font-family="Helvetica,sans-Serif" font-size="10.00">+</text>
<text text-anchor="start" x="44" y="-128.5" font-family="Helvetica,sans-Serif" font-size="10.00">MayCommandSide()</text>
<text text-anchor="start" x="22.5" y="-113.5" font-family="Helvetica,sans-Serif" font-size="10.00">+</text>
<text text-anchor="start" x="44" y="-113.5" font-family="Helvetica,sans-Serif" font-size="10.00">GroundsWith()</text>
<polygon fill="#666666" stroke="#666666" points="10,-273.5 10,-273.5 165,-273.5 165,-273.5 10,-273.5"/>
<polygon fill="#666666" stroke="#666666" points="10,-153.5 10,-153.5 42,-153.5 42,-153.5 10,-153.5"/>
<polygon fill="#666666" stroke="#666666" points="42,-153.5 42,-153.5 165,-153.5 165,-153.5 42,-153.5"/>
<polygon fill="none" stroke="#666666" points="9.5,-107 9.5,-302 164.5,-302 164.5,-107 9.5,-107"/>
</a>
</g>
</g>
<!-- Node2&#45;&gt;Node1 -->
<g id="edge1_Node000001_Node000002" class="edge">
<title>Node2&#45;&gt;Node1</title>
<g id="a_edge1_Node000001_Node000002"><a xlink:title=" ">
<path fill="none" stroke="#63b8ff" d="M87,-106.91C87,-94.76 87,-82.89 87,-72.28"/>
<polygon fill="none" stroke="#63b8ff" points="87,-72.02 83,-66.02 87,-60.02 91,-66.02 87,-72.02"/>
</a>
</g>
<text text-anchor="middle" x="107" y="-81" font-family="Helvetica,sans-Serif" font-size="10.00" fill="grey"> +Setup</text>
</g>
<!-- Node3 -->
<g id="Node000003" class="node">
<title>Node3</title>
<g id="a_Node000003"><a xlink:href="structGuildmaster_1_1Data_1_1Definitions_1_1ProvingGroundsSetupRequest.html" target="_top" xlink:title="Заказ состава Ристалища: кто встаёт на площадку вместо расклада из ProvingGroundsConfig.">
<polygon fill="white" stroke="transparent" points="174,-454 0,-454 0,-349 174,-349 174,-454"/>
<text text-anchor="start" x="14.5" y="-441.5" font-family="Helvetica,sans-Serif" font-size="10.00">Guildmaster.Data.Definitions.</text>
<text text-anchor="start" x="14.5" y="-430.5" font-family="Helvetica,sans-Serif" font-size="10.00">ProvingGroundsSetupRequest</text>
<text text-anchor="start" x="4" y="-415.5" font-family="Helvetica,sans-Serif" font-size="10.00">+</text>
<text text-anchor="start" x="17" y="-415.5" font-family="Helvetica,sans-Serif" font-size="10.00">Squad</text>
<text text-anchor="start" x="4" y="-400.5" font-family="Helvetica,sans-Serif" font-size="10.00">+</text>
<text text-anchor="start" x="17" y="-400.5" font-family="Helvetica,sans-Serif" font-size="10.00">Opponents</text>
<text text-anchor="start" x="4" y="-385.5" font-family="Helvetica,sans-Serif" font-size="10.00">+</text>
<text text-anchor="start" x="17" y="-385.5" font-family="Helvetica,sans-Serif" font-size="10.00">Source</text>
<text text-anchor="start" x="4" y="-370.5" font-family="Helvetica,sans-Serif" font-size="10.00">+</text>
<text text-anchor="start" x="17" y="-370.5" font-family="Helvetica,sans-Serif" font-size="10.00">HasContent</text>
<text text-anchor="start" x="4" y="-355.5" font-family="Helvetica,sans-Serif" font-size="10.00">+</text>
<text text-anchor="start" x="17" y="-355.5" font-family="Helvetica,sans-Serif" font-size="10.00">ProvingGroundsSetupRequest()</text>
<polygon fill="#666666" stroke="#666666" points="0,-425.5 0,-425.5 174,-425.5 174,-425.5 0,-425.5"/>
<polygon fill="#666666" stroke="#666666" points="0,-365.5 0,-365.5 15,-365.5 15,-365.5 0,-365.5"/>
<polygon fill="#666666" stroke="#666666" points="15,-365.5 15,-365.5 174,-365.5 174,-365.5 15,-365.5"/>
<polygon fill="none" stroke="#666666" points="0,-349 0,-454 174,-454 174,-349 0,-349"/>
</a>
</g>
</g>
<!-- Node3&#45;&gt;Node2 -->
<g id="edge2_Node000002_Node000003" class="edge">
<title>Node3&#45;&gt;Node2</title>
<g id="a_edge2_Node000002_Node000003"><a xlink:title=" ">
<path fill="none" stroke="#63b8ff" d="M87,-348.76C87,-337.92 87,-326.12 87,-314.08"/>
<polygon fill="none" stroke="#63b8ff" points="87,-314 83,-308 87,-302 91,-308 87,-314"/>
</a>
</g>
<text text-anchor="middle" x="108.5" y="-323" font-family="Helvetica,sans-Serif" font-size="10.00" fill="grey"> +Roster</text>
</g>
</g>
</svg>
