<?xml version="1.0" encoding="UTF-8" standalone="no"?>
<!DOCTYPE svg PUBLIC "-//W3C//DTD SVG 1.1//EN"
 "http://www.w3.org/Graphics/SVG/1.1/DTD/svg11.dtd">
<!-- Generated by graphviz version 2.43.0 (0)
 -->
<!-- Title: Guildmaster.Combat.Effects.DispelRequest Pages: 1 -->
<svg width="493pt" height="717pt"
 viewBox="0.00 0.00 493.00 717.00" xmlns="http://www.w3.org/2000/svg" xmlns:xlink="http://www.w3.org/1999/xlink">
<g id="graph0" class="graph" transform="scale(1 1) rotate(0) translate(4 713)">
<title>Guildmaster.Combat.Effects.DispelRequest</title>
<!-- Node1 -->
<g id="Node000001" class="node">
<title>Node1</title>
<g id="a_Node000001"><a xlink:title="Запрос на снятие эффектов с цели.">
<polygon fill="#999999" stroke="transparent" points="309.5,-105 159.5,-105 159.5,0 309.5,0 309.5,-105"/>
<text text-anchor="start" x="164.5" y="-92.5" font-family="Helvetica,sans-Serif" font-size="10.00">Guildmaster.Combat.Effects.</text>
<text text-anchor="start" x="199" y="-81.5" font-family="Helvetica,sans-Serif" font-size="10.00">DispelRequest</text>
<text text-anchor="start" x="176" y="-66.5" font-family="Helvetica,sans-Serif" font-size="10.00">+</text>
<text text-anchor="start" x="201.5" y="-66.5" font-family="Helvetica,sans-Serif" font-size="10.00">Polarity</text>
<text text-anchor="start" x="176" y="-51.5" font-family="Helvetica,sans-Serif" font-size="10.00">+</text>
<text text-anchor="start" x="201.5" y="-51.5" font-family="Helvetica,sans-Serif" font-size="10.00">Tags</text>
<text text-anchor="start" x="176" y="-36.5" font-family="Helvetica,sans-Serif" font-size="10.00">+</text>
<text text-anchor="start" x="201.5" y="-36.5" font-family="Helvetica,sans-Serif" font-size="10.00">DispelPower</text>
<text text-anchor="start" x="176" y="-21.5" font-family="Helvetica,sans-Serif" font-size="10.00">+</text>
<text text-anchor="start" x="201.5" y="-21.5" font-family="Helvetica,sans-Serif" font-size="10.00">MaxCount</text>
<text text-anchor="start" x="176" y="-6.5" font-family="Helvetica,sans-Serif" font-size="10.00">+</text>
<text text-anchor="start" x="201.5" y="-6.5" font-family="Helvetica,sans-Serif" font-size="10.00">DispelRequest()</text>
<polygon fill="#666666" stroke="#666666" points="159.5,-76.5 159.5,-76.5 309.5,-76.5 309.5,-76.5 159.5,-76.5"/>
<polygon fill="#666666" stroke="#666666" points="159.5,-16.5 159.5,-16.5 199.5,-16.5 199.5,-16.5 159.5,-16.5"/>
<polygon fill="#666666" stroke="#666666" points="199.5,-16.5 199.5,-16.5 309.5,-16.5 309.5,-16.5 199.5,-16.5"/>
<polygon fill="none" stroke="#666666" points="159.5,0 159.5,-105 309.5,-105 309.5,0 159.5,0"/>
</a>
</g>
</g>
<!-- Node2 -->
<g id="Node000002" class="node">
<title>Node2</title>
<g id="a_Node000002"><a xlink:href="classGuildmaster_1_1Combat_1_1RuntimeUnit.html" target="_top" xlink:title="Рантайм&#45;представление юнита на один бой.">
<polygon fill="white" stroke="transparent" points="322.5,-411 146.5,-411 146.5,-152 322.5,-152 322.5,-411"/>
<text text-anchor="start" x="151.5" y="-398.5" font-family="Helvetica,sans-Serif" font-size="10.00">Guildmaster.Combat.RuntimeUnit</text>
<text text-anchor="start" x="168.5" y="-383.5" font-family="Helvetica,sans-Serif" font-size="10.00">+</text>
<text text-anchor="start" x="199.5" y="-383.5" font-family="Helvetica,sans-Serif" font-size="10.00">Id</text>
<text text-anchor="start" x="168.5" y="-368.5" font-family="Helvetica,sans-Serif" font-size="10.00">+</text>
<text text-anchor="start" x="199.5" y="-368.5" font-family="Helvetica,sans-Serif" font-size="10.00">Team</text>
<text text-anchor="start" x="168.5" y="-353.5" font-family="Helvetica,sans-Serif" font-size="10.00">+</text>
<text text-anchor="start" x="199.5" y="-353.5" font-family="Helvetica,sans-Serif" font-size="10.00">CurrentHP</text>
<text text-anchor="start" x="168.5" y="-338.5" font-family="Helvetica,sans-Serif" font-size="10.00">+</text>
<text text-anchor="start" x="199.5" y="-338.5" font-family="Helvetica,sans-Serif" font-size="10.00">CurrentResource</text>
<text text-anchor="start" x="168.5" y="-323.5" font-family="Helvetica,sans-Serif" font-size="10.00">+</text>
<text text-anchor="start" x="199.5" y="-323.5" font-family="Helvetica,sans-Serif" font-size="10.00">CurrentShield</text>
<text text-anchor="start" x="168.5" y="-308.5" font-family="Helvetica,sans-Serif" font-size="10.00">+</text>
<text text-anchor="start" x="199.5" y="-308.5" font-family="Helvetica,sans-Serif" font-size="10.00">Position</text>
<text text-anchor="start" x="168.5" y="-293.5" font-family="Helvetica,sans-Serif" font-size="10.00">+</text>
<text text-anchor="start" x="199.5" y="-293.5" font-family="Helvetica,sans-Serif" font-size="10.00">PreviousPosition</text>
<text text-anchor="start" x="168.5" y="-278.5" font-family="Helvetica,sans-Serif" font-size="10.00">+</text>
<text text-anchor="start" x="199.5" y="-278.5" font-family="Helvetica,sans-Serif" font-size="10.00">AttackCooldown</text>
<text text-anchor="start" x="168.5" y="-263.5" font-family="Helvetica,sans-Serif" font-size="10.00">+</text>
<text text-anchor="start" x="199.5" y="-263.5" font-family="Helvetica,sans-Serif" font-size="10.00">IsDead</text>
<text text-anchor="start" x="168.5" y="-248.5" font-family="Helvetica,sans-Serif" font-size="10.00">+</text>
<text text-anchor="start" x="199.5" y="-248.5" font-family="Helvetica,sans-Serif" font-size="10.00">ActiveEffects</text>
<text text-anchor="start" x="168.5" y="-233.5" font-family="Helvetica,sans-Serif" font-size="10.00">+</text>
<text text-anchor="start" x="199.5" y="-233.5" font-family="Helvetica,sans-Serif" font-size="10.00">EffectTagMask</text>
<text text-anchor="start" x="168.5" y="-218.5" font-family="Helvetica,sans-Serif" font-size="10.00">+</text>
<text text-anchor="start" x="199.5" y="-218.5" font-family="Helvetica,sans-Serif" font-size="10.00">Abilities</text>
<text text-anchor="start" x="168.5" y="-203.5" font-family="Helvetica,sans-Serif" font-size="10.00">+</text>
<text text-anchor="start" x="199.5" y="-203.5" font-family="Helvetica,sans-Serif" font-size="10.00">CanAct</text>
<text text-anchor="start" x="168.5" y="-188.5" font-family="Helvetica,sans-Serif" font-size="10.00">+</text>
<text text-anchor="start" x="199.5" y="-188.5" font-family="Helvetica,sans-Serif" font-size="10.00">CanMove</text>
<text text-anchor="start" x="168.5" y="-173.5" font-family="Helvetica,sans-Serif" font-size="10.00">+</text>
<text text-anchor="start" x="199.5" y="-173.5" font-family="Helvetica,sans-Serif" font-size="10.00">CanCast</text>
<text text-anchor="start" x="232.5" y="-158.5" font-family="Helvetica,sans-Serif" font-size="10.00"> </text>
<polygon fill="#666666" stroke="#666666" points="146.5,-393.5 146.5,-393.5 322.5,-393.5 322.5,-393.5 146.5,-393.5"/>
<polygon fill="#666666" stroke="#666666" points="146.5,-168.5 146.5,-168.5 197.5,-168.5 197.5,-168.5 146.5,-168.5"/>
<polygon fill="#666666" stroke="#666666" points="197.5,-168.5 197.5,-168.5 322.5,-168.5 322.5,-168.5 197.5,-168.5"/>
<polygon fill="none" stroke="#666666" points="146.5,-152 146.5,-411 322.5,-411 322.5,-152 146.5,-152"/>
</a>
</g>
</g>
<!-- Node2&#45;&gt;Node1 -->
<g id="edge1_Node000001_Node000002" class="edge">
<title>Node2&#45;&gt;Node1</title>
<g id="a_edge1_Node000001_Node000002"><a xlink:title=" ">
<path fill="none" stroke="#63b8ff" d="M234.5,-151.75C234.5,-139.95 234.5,-128.38 234.5,-117.55"/>
<polygon fill="none" stroke="#63b8ff" points="234.5,-117.22 230.5,-111.22 234.5,-105.22 238.5,-111.22 234.5,-117.22"/>
</a>
</g>
<text text-anchor="middle" x="255.5" y="-126" font-family="Helvetica,sans-Serif" font-size="10.00" fill="grey"> +Target</text>
</g>
<!-- Node2&#45;&gt;Node2 -->
<g id="edge4_Node000002_Node000002" class="edge">
<title>Node2&#45;&gt;Node2</title>
<g id="a_edge4_Node000002_Node000002"><a xlink:title=" ">
<path fill="none" stroke="#63b8ff" d="M322.63,-306.16C333.43,-301.74 340.5,-293.52 340.5,-281.5 340.5,-273.99 337.74,-267.96 333.03,-263.41"/>
<polygon fill="none" stroke="#63b8ff" points="332.78,-263.25 325.57,-263.43 322.63,-256.84 329.84,-256.67 332.78,-263.25"/>
</a>
</g>
<text text-anchor="middle" x="379.5" y="-279" font-family="Helvetica,sans-Serif" font-size="10.00" fill="grey"> +CurrentTarget</text>
</g>
<!-- Node3 -->
<g id="Node000003" class="node">
<title>Node3</title>
<g id="a_Node000003"><a xlink:href="classGuildmaster_1_1Combat_1_1Stats.html" target="_top" xlink:title="Рантайм стат&#45;объект юнита.">
<polygon fill="white" stroke="transparent" points="139,-587.5 0,-587.5 0,-493.5 139,-493.5 139,-587.5"/>
<text text-anchor="start" x="5.5" y="-575.5" font-family="Helvetica,sans-Serif" font-size="10.00">Guildmaster.Combat.Stats</text>
<text text-anchor="start" x="68" y="-560.5" font-family="Helvetica,sans-Serif" font-size="10.00"> </text>
<text text-anchor="start" x="4.5" y="-545.5" font-family="Helvetica,sans-Serif" font-size="10.00">+</text>
<text text-anchor="start" x="17.5" y="-545.5" font-family="Helvetica,sans-Serif" font-size="10.00">Stats()</text>
<text text-anchor="start" x="4.5" y="-530.5" font-family="Helvetica,sans-Serif" font-size="10.00">+</text>
<text text-anchor="start" x="17.5" y="-530.5" font-family="Helvetica,sans-Serif" font-size="10.00">Get()</text>
<text text-anchor="start" x="4.5" y="-515.5" font-family="Helvetica,sans-Serif" font-size="10.00">+</text>
<text text-anchor="start" x="17.5" y="-515.5" font-family="Helvetica,sans-Serif" font-size="10.00">AddModifiersFrom()</text>
<text text-anchor="start" x="4.5" y="-500.5" font-family="Helvetica,sans-Serif" font-size="10.00">+</text>
<text text-anchor="start" x="17.5" y="-500.5" font-family="Helvetica,sans-Serif" font-size="10.00">RemoveModifiersFrom()</text>
<polygon fill="#666666" stroke="#666666" points="0.5,-570.5 0.5,-570.5 139.5,-570.5 139.5,-570.5 0.5,-570.5"/>
<polygon fill="#666666" stroke="#666666" points="0.5,-555.5 0.5,-555.5 139.5,-555.5 139.5,-555.5 0.5,-555.5"/>
<polygon fill="none" stroke="#666666" points="0,-493.5 0,-587.5 139,-587.5 139,-493.5 0,-493.5"/>
</a>
</g>
</g>
<!-- Node3&#45;&gt;Node2 -->
<g id="edge2_Node000002_Node000003" class="edge">
<title>Node3&#45;&gt;Node2</title>
<g id="a_edge2_Node000002_Node000003"><a xlink:title=" ">
<path fill="none" stroke="#63b8ff" d="M99.19,-493.26C112.38,-472.72 128.67,-447.34 145.33,-421.39"/>
<polygon fill="none" stroke="#63b8ff" points="145.49,-421.14 145.37,-413.93 151.97,-411.04 152.1,-418.25 145.49,-421.14"/>
</a>
</g>
<text text-anchor="middle" x="156" y="-432" font-family="Helvetica,sans-Serif" font-size="10.00" fill="grey"> +Stats</text>
</g>
<!-- Node4 -->
<g id="Node000004" class="node">
<title>Node4</title>
<g id="a_Node000004"><a xlink:href="interfaceGuildmaster_1_1Data_1_1Stats_1_1IStatReader.html" target="_top" xlink:title="Только&#45;чтение собранных статов.">
<polygon fill="white" stroke="transparent" points="103.5,-709 35.5,-709 35.5,-660 103.5,-660 103.5,-709"/>
<text text-anchor="start" x="40.5" y="-696.5" font-family="Helvetica,sans-Serif" font-size="10.00">IStatReader</text>
<text text-anchor="start" x="67.5" y="-681.5" font-family="Helvetica,sans-Serif" font-size="10.00"> </text>
<text text-anchor="start" x="45" y="-666.5" font-family="Helvetica,sans-Serif" font-size="10.00">+</text>
<text text-anchor="start" x="63.5" y="-666.5" font-family="Helvetica,sans-Serif" font-size="10.00">Get()</text>
<polygon fill="#666666" stroke="#666666" points="35.5,-691.5 35.5,-691.5 103.5,-691.5 103.5,-691.5 35.5,-691.5"/>
<polygon fill="#666666" stroke="#666666" points="35.5,-676.5 35.5,-676.5 103.5,-676.5 103.5,-676.5 35.5,-676.5"/>
<polygon fill="none" stroke="#666666" points="35.5,-660 35.5,-709 103.5,-709 103.5,-660 35.5,-660"/>
</a>
</g>
</g>
<!-- Node4&#45;&gt;Node3 -->
<g id="edge3_Node000003_Node000004" class="edge">
<title>Node4&#45;&gt;Node3</title>
<g id="a_edge3_Node000003_Node000004"><a xlink:title=" ">
<path fill="none" stroke="#63b8ff" d="M69.5,-649.7C69.5,-631.18 69.5,-607.95 69.5,-587.77"/>
<polygon fill="none" stroke="#63b8ff" points="66,-649.73 69.5,-659.73 73,-649.73 66,-649.73"/>
</a>
</g>
</g>
<!-- Node5 -->
<g id="Node000005" class="node">
<title>Node5</title>
<g id="a_Node000005"><a xlink:href="classGuildmaster_1_1Data_1_1Definitions_1_1RelicData.html" target="_top" xlink:title="«Чемпион» — стат&#45;блок и боевые категории юнита.">
<polygon fill="white" stroke="transparent" points="312,-623 157,-623 157,-458 312,-458 312,-623"/>
<text text-anchor="start" x="162.5" y="-610.5" font-family="Helvetica,sans-Serif" font-size="10.00">Guildmaster.Data.Definitions.</text>
<text text-anchor="start" x="211" y="-599.5" font-family="Helvetica,sans-Serif" font-size="10.00">RelicData</text>
<text text-anchor="start" x="173.5" y="-584.5" font-family="Helvetica,sans-Serif" font-size="10.00">+</text>
<text text-anchor="start" x="198.5" y="-584.5" font-family="Helvetica,sans-Serif" font-size="10.00">DisplayNameKey</text>
<text text-anchor="start" x="173.5" y="-569.5" font-family="Helvetica,sans-Serif" font-size="10.00">+</text>
<text text-anchor="start" x="198.5" y="-569.5" font-family="Helvetica,sans-Serif" font-size="10.00">Tags</text>
<text text-anchor="start" x="173.5" y="-554.5" font-family="Helvetica,sans-Serif" font-size="10.00">+</text>
<text text-anchor="start" x="198.5" y="-554.5" font-family="Helvetica,sans-Serif" font-size="10.00">DamageType</text>
<text text-anchor="start" x="173.5" y="-539.5" font-family="Helvetica,sans-Serif" font-size="10.00">+</text>
<text text-anchor="start" x="198.5" y="-539.5" font-family="Helvetica,sans-Serif" font-size="10.00">AttackType</text>
<text text-anchor="start" x="173.5" y="-524.5" font-family="Helvetica,sans-Serif" font-size="10.00">+</text>
<text text-anchor="start" x="198.5" y="-524.5" font-family="Helvetica,sans-Serif" font-size="10.00">ResourceType</text>
<text text-anchor="start" x="173.5" y="-509.5" font-family="Helvetica,sans-Serif" font-size="10.00">+</text>
<text text-anchor="start" x="198.5" y="-509.5" font-family="Helvetica,sans-Serif" font-size="10.00">Stats</text>
<text text-anchor="start" x="173.5" y="-494.5" font-family="Helvetica,sans-Serif" font-size="10.00">+</text>
<text text-anchor="start" x="198.5" y="-494.5" font-family="Helvetica,sans-Serif" font-size="10.00">GrantedEffects</text>
<text text-anchor="start" x="173.5" y="-479.5" font-family="Helvetica,sans-Serif" font-size="10.00">+</text>
<text text-anchor="start" x="198.5" y="-479.5" font-family="Helvetica,sans-Serif" font-size="10.00">Abilities</text>
<text text-anchor="start" x="233" y="-464.5" font-family="Helvetica,sans-Serif" font-size="10.00"> </text>
<polygon fill="#666666" stroke="#666666" points="157.5,-594.5 157.5,-594.5 312.5,-594.5 312.5,-594.5 157.5,-594.5"/>
<polygon fill="#666666" stroke="#666666" points="157.5,-474.5 157.5,-474.5 196.5,-474.5 196.5,-474.5 157.5,-474.5"/>
<polygon fill="#666666" stroke="#666666" points="196.5,-474.5 196.5,-474.5 312.5,-474.5 312.5,-474.5 196.5,-474.5"/>
<polygon fill="none" stroke="#666666" points="157,-458 157,-623 312,-623 312,-458 157,-458"/>
</a>
</g>
</g>
<!-- Node5&#45;&gt;Node2 -->
<g id="edge5_Node000002_Node000005" class="edge">
<title>Node5&#45;&gt;Node2</title>
<g id="a_edge5_Node000002_Node000005"><a xlink:title=" ">
<path fill="none" stroke="#63b8ff" d="M234.5,-457.83C234.5,-446.81 234.5,-435.26 234.5,-423.57"/>
<polygon fill="none" stroke="#63b8ff" points="234.5,-423.36 230.5,-417.36 234.5,-411.36 238.5,-417.36 234.5,-423.36"/>
</a>
</g>
<text text-anchor="middle" x="252.5" y="-432" font-family="Helvetica,sans-Serif" font-size="10.00" fill="grey"> +Relic</text>
</g>
<!-- Node6 -->
<g id="Node000006" class="node">
<title>Node6</title>
<g id="a_Node000006"><a xlink:title=" ">
<polygon fill="white" stroke="transparent" points="367,-709 276,-709 276,-660 367,-660 367,-709"/>
<text text-anchor="start" x="281.5" y="-696.5" font-family="Helvetica,sans-Serif" font-size="10.00">ScriptableObject</text>
<text text-anchor="start" x="320" y="-681.5" font-family="Helvetica,sans-Serif" font-size="10.00"> </text>
<text text-anchor="start" x="320" y="-666.5" font-family="Helvetica,sans-Serif" font-size="10.00"> </text>
<polygon fill="#666666" stroke="#666666" points="276.5,-691.5 276.5,-691.5 367.5,-691.5 367.5,-691.5 276.5,-691.5"/>
<polygon fill="#666666" stroke="#666666" points="276.5,-676.5 276.5,-676.5 367.5,-676.5 367.5,-676.5 276.5,-676.5"/>
<polygon fill="none" stroke="#666666" points="276,-660 276,-709 367,-709 367,-660 276,-660"/>
</a>
</g>
</g>
<!-- Node6&#45;&gt;Node5 -->
<g id="edge6_Node000005_Node000006" class="edge">
<title>Node6&#45;&gt;Node5</title>
<g id="a_edge6_Node000005_Node000006"><a xlink:title=" ">
<path fill="none" stroke="#63b8ff" d="M301.59,-651.01C296.42,-642.56 290.6,-633.06 284.61,-623.29"/>
<polygon fill="none" stroke="#63b8ff" points="298.73,-653.03 306.94,-659.73 304.7,-649.38 298.73,-653.03"/>
</a>
</g>
</g>
<!-- Node7 -->
<g id="Node000007" class="node">
<title>Node7</title>
<g id="a_Node000007"><a xlink:href="classGuildmaster_1_1Data_1_1Definitions_1_1VesselData.html" target="_top" xlink:title="«Пилот» — носитель реликвии.">
<polygon fill="white" stroke="transparent" points="485,-585.5 330,-585.5 330,-495.5 485,-495.5 485,-585.5"/>
<text text-anchor="start" x="335.5" y="-573.5" font-family="Helvetica,sans-Serif" font-size="10.00">Guildmaster.Data.Definitions.</text>
<text text-anchor="start" x="380.5" y="-562.5" font-family="Helvetica,sans-Serif" font-size="10.00">VesselData</text>
<text text-anchor="start" x="346.5" y="-547.5" font-family="Helvetica,sans-Serif" font-size="10.00">+</text>
<text text-anchor="start" x="371.5" y="-547.5" font-family="Helvetica,sans-Serif" font-size="10.00">DisplayNameKey</text>
<text text-anchor="start" x="346.5" y="-532.5" font-family="Helvetica,sans-Serif" font-size="10.00">+</text>
<text text-anchor="start" x="371.5" y="-532.5" font-family="Helvetica,sans-Serif" font-size="10.00">Tags</text>
<text text-anchor="start" x="346.5" y="-517.5" font-family="Helvetica,sans-Serif" font-size="10.00">+</text>
<text text-anchor="start" x="371.5" y="-517.5" font-family="Helvetica,sans-Serif" font-size="10.00">TalentModifiers</text>
<text text-anchor="start" x="406" y="-502.5" font-family="Helvetica,sans-Serif" font-size="10.00"> </text>
<polygon fill="#666666" stroke="#666666" points="330.5,-557.5 330.5,-557.5 485.5,-557.5 485.5,-557.5 330.5,-557.5"/>
<polygon fill="#666666" stroke="#666666" points="330.5,-512.5 330.5,-512.5 369.5,-512.5 369.5,-512.5 330.5,-512.5"/>
<polygon fill="#666666" stroke="#666666" points="369.5,-512.5 369.5,-512.5 485.5,-512.5 485.5,-512.5 369.5,-512.5"/>
<polygon fill="none" stroke="#666666" points="330,-495.5 330,-585.5 485,-585.5 485,-495.5 330,-495.5"/>
</a>
</g>
</g>
<!-- Node6&#45;&gt;Node7 -->
<g id="edge8_Node000007_Node000006" class="edge">
<title>Node6&#45;&gt;Node7</title>
<g id="a_edge8_Node000007_Node000006"><a xlink:title=" ">
<path fill="none" stroke="#63b8ff" d="M341.19,-650.99C352.9,-631.65 367.92,-606.85 380.7,-585.74"/>
<polygon fill="none" stroke="#63b8ff" points="338.08,-649.37 335.89,-659.73 344.07,-652.99 338.08,-649.37"/>
</a>
</g>
</g>
<!-- Node7&#45;&gt;Node2 -->
<g id="edge7_Node000002_Node000007" class="edge">
<title>Node7&#45;&gt;Node2</title>
<g id="a_edge7_Node000002_Node000007"><a xlink:title=" ">
<path fill="none" stroke="#63b8ff" d="M377.76,-495.32C363.71,-474.45 346.09,-448.27 328.05,-421.47"/>
<polygon fill="none" stroke="#63b8ff" points="327.82,-421.14 321.16,-418.39 321.12,-411.18 327.79,-413.93 327.82,-421.14"/>
</a>
</g>
<text text-anchor="middle" x="358" y="-432" font-family="Helvetica,sans-Serif" font-size="10.00" fill="grey"> +Vessel</text>
</g>
</g>
</svg>
