<?xml version="1.0" encoding="UTF-8" standalone="no"?>
<!DOCTYPE svg PUBLIC "-//W3C//DTD SVG 1.1//EN"
 "http://www.w3.org/Graphics/SVG/1.1/DTD/svg11.dtd">
<!-- Generated by graphviz version 2.43.0 (0)
 -->
<!-- Title: Guildmaster.Data.Stats.ScalableValue Pages: 1 -->
<svg width="194pt" height="194pt"
 viewBox="0.00 0.00 194.00 194.00" xmlns="http://www.w3.org/2000/svg" xmlns:xlink="http://www.w3.org/1999/xlink">

<svg id="main" version="1.1" xmlns="http://www.w3.org/2000/svg" xmlns:xlink="http://www.w3.org/1999/xlink" xml:space="preserve" onload="init(evt)">
<style type="text/css"><![CDATA[
.node, .edge {opacity: 0.7;}
.node.selected, .edge.selected {opacity: 1;}
.edge:hover path { stroke: red; }
.edge:hover polygon { stroke: red; fill: red; }
]]></style>
<script type="application/ecmascript" xlink:href="svg.min.js"/>
<svg id="graph" class="graph">
<g id="graph0" class="graph" transform="scale(1 1) rotate(0) translate(4 190)">
<title>Guildmaster.Data.Stats.ScalableValue</title>
<!-- Node1 -->
<g id="Node000001" class="node">
<title>Node1</title>
<g id="a_Node000001"><a xlink:title="Величина, масштабируемая от статов источника: Base + Σ(reader.Get(term.Stat) × term....">
<polygon fill="#999999" stroke="transparent" points="177,-75 9,-75 9,0 177,0 177,-75"/>
<text text-anchor="start" x="14" y="-62.5" font-family="Helvetica,sans-Serif" font-size="10.00">Guildmaster.Data.Stats.Scalable</text>
<text text-anchor="start" x="79" y="-51.5" font-family="Helvetica,sans-Serif" font-size="10.00">Value</text>
<text text-anchor="start" x="30.5" y="-36.5" font-family="Helvetica,sans-Serif" font-size="10.00">+</text>
<text text-anchor="start" x="61" y="-36.5" font-family="Helvetica,sans-Serif" font-size="10.00">Base</text>
<text text-anchor="start" x="30.5" y="-21.5" font-family="Helvetica,sans-Serif" font-size="10.00">+</text>
<text text-anchor="start" x="61" y="-21.5" font-family="Helvetica,sans-Serif" font-size="10.00">ScalableValue()</text>
<text text-anchor="start" x="30.5" y="-6.5" font-family="Helvetica,sans-Serif" font-size="10.00">+</text>
<text text-anchor="start" x="61" y="-6.5" font-family="Helvetica,sans-Serif" font-size="10.00">Resolve()</text>
<polygon fill="#666666" stroke="#666666" points="9,-46.5 9,-46.5 177,-46.5 177,-46.5 9,-46.5"/>
<polygon fill="#666666" stroke="#666666" points="9,-31.5 9,-31.5 59,-31.5 59,-31.5 9,-31.5"/>
<polygon fill="#666666" stroke="#666666" points="59,-31.5 59,-31.5 177,-31.5 177,-31.5 59,-31.5"/>
<polygon fill="none" stroke="#666666" points="9,0 9,-75 177,-75 177,0 9,0"/>
</a>
</g>
</g>
<!-- Node2 -->
<g id="Node000002" class="node">
<title>Node2</title>
<g id="a_Node000002"><a xlink:href="structGuildmaster_1_1Data_1_1Stats_1_1ScalingTerm.html" target="_top" xlink:title="Одно слагаемое масштабирования: доля Ratio от стата Stat.">
<polygon fill="white" stroke="transparent" points="186,-186 0,-186 0,-122 186,-122 186,-186"/>
<text text-anchor="start" x="5" y="-174" font-family="Helvetica,sans-Serif" font-size="10.00">Guildmaster.Data.Stats.ScalingTerm</text>
<text text-anchor="start" x="28.5" y="-159" font-family="Helvetica,sans-Serif" font-size="10.00">+</text>
<text text-anchor="start" x="66" y="-159" font-family="Helvetica,sans-Serif" font-size="10.00">Stat</text>
<text text-anchor="start" x="28.5" y="-144" font-family="Helvetica,sans-Serif" font-size="10.00">+</text>
<text text-anchor="start" x="66" y="-144" font-family="Helvetica,sans-Serif" font-size="10.00">Ratio</text>
<text text-anchor="start" x="28.5" y="-129" font-family="Helvetica,sans-Serif" font-size="10.00">+</text>
<text text-anchor="start" x="66" y="-129" font-family="Helvetica,sans-Serif" font-size="10.00">ScalingTerm()</text>
<polygon fill="#666666" stroke="#666666" points="0,-169 0,-169 186,-169 186,-169 0,-169"/>
<polygon fill="#666666" stroke="#666666" points="0,-139 0,-139 64,-139 64,-139 0,-139"/>
<polygon fill="#666666" stroke="#666666" points="64,-139 64,-139 186,-139 186,-139 64,-139"/>
<polygon fill="none" stroke="#666666" points="0,-122 0,-186 186,-186 186,-122 0,-122"/>
</a>
</g>
</g>
<!-- Node2&#45;&gt;Node1 -->
<g id="edge1_Node000001_Node000002" class="edge">
<title>Node2&#45;&gt;Node1</title>
<g id="a_edge1_Node000001_Node000002"><a xlink:title=" ">
<path fill="none" stroke="#63b8ff" d="M93,-121.71C93,-111.11 93,-99.01 93,-87.37"/>
<polygon fill="none" stroke="#63b8ff" points="93,-87.02 89,-81.02 93,-75.02 97,-81.02 93,-87.02"/>
</a>
</g>
<text text-anchor="middle" x="119" y="-96" font-family="Helvetica,sans-Serif" font-size="10.00" fill="grey"> +Scalings</text>
</g>
</g>
</svg>
</svg>

<style type='text/css'>
<![CDATA[
[data-mouse-over-selected='false'] { opacity: 0.7; }
[data-mouse-over-selected='true']  { opacity: 1.0; }
]]>
</style>
<script type="application/ecmascript"><![CDATA[
document.addEventListener('DOMContentLoaded', (event) => {
  highlightEdges();
  highlightAdjacentNodes();
});
]]></script>
</svg>
