<?xml version="1.0" encoding="UTF-8" standalone="no"?>
<!DOCTYPE svg PUBLIC "-//W3C//DTD SVG 1.1//EN"
 "http://www.w3.org/Graphics/SVG/1.1/DTD/svg11.dtd">
<!-- Generated by graphviz version 2.43.0 (0)
 -->
<!-- Title: Guildmaster.Data.Stats.ScalingTerm Pages: 1 -->
<svg width="194pt" height="72pt"
 viewBox="0.00 0.00 194.00 72.00" xmlns="http://www.w3.org/2000/svg" xmlns:xlink="http://www.w3.org/1999/xlink">
<g id="graph0" class="graph" transform="scale(1 1) rotate(0) translate(4 68)">
<title>Guildmaster.Data.Stats.ScalingTerm</title>
<!-- Node1 -->
<g id="Node000001" class="node">
<title>Node1</title>
<g id="a_Node000001"><a xlink:title="Одно слагаемое масштабирования: доля Ratio от стата Stat.">
<polygon fill="#999999" stroke="transparent" points="186,-64 0,-64 0,0 186,0 186,-64"/>
<text text-anchor="start" x="5" y="-52" font-family="Helvetica,sans-Serif" font-size="10.00">Guildmaster.Data.Stats.ScalingTerm</text>
<text text-anchor="start" x="28.5" y="-37" font-family="Helvetica,sans-Serif" font-size="10.00">+</text>
<text text-anchor="start" x="66" y="-37" font-family="Helvetica,sans-Serif" font-size="10.00">Stat</text>
<text text-anchor="start" x="28.5" y="-22" font-family="Helvetica,sans-Serif" font-size="10.00">+</text>
<text text-anchor="start" x="66" y="-22" font-family="Helvetica,sans-Serif" font-size="10.00">Ratio</text>
<text text-anchor="start" x="28.5" y="-7" font-family="Helvetica,sans-Serif" font-size="10.00">+</text>
<text text-anchor="start" x="66" y="-7" font-family="Helvetica,sans-Serif" font-size="10.00">ScalingTerm()</text>
<polygon fill="#666666" stroke="#666666" points="0,-47 0,-47 186,-47 186,-47 0,-47"/>
<polygon fill="#666666" stroke="#666666" points="0,-17 0,-17 64,-17 64,-17 0,-17"/>
<polygon fill="#666666" stroke="#666666" points="64,-17 64,-17 186,-17 186,-17 64,-17"/>
<polygon fill="none" stroke="#666666" points="0,0 0,-64 186,-64 186,0 0,0"/>
</a>
</g>
</g>
</g>
</svg>
