<?xml version="1.0" encoding="UTF-8" standalone="no"?>
<!DOCTYPE svg PUBLIC "-//W3C//DTD SVG 1.1//EN"
 "http://www.w3.org/Graphics/SVG/1.1/DTD/svg11.dtd">
<!-- Generated by graphviz version 2.43.0 (0)
 -->
<!-- Title: Guildmaster.Presentation.UnitDiedEvent Pages: 1 -->
<!--zoomable 567 -->

<svg id="main" version="1.1" xmlns="http://www.w3.org/2000/svg" xmlns:xlink="http://www.w3.org/1999/xlink" xml:space="preserve" onload="init(evt)">
<style type="text/css"><![CDATA[
.node, .edge {opacity: 0.7;}
.node.selected, .edge.selected {opacity: 1;}
.edge:hover path { stroke: red; }
.edge:hover polygon { stroke: red; fill: red; }
]]></style>

<defs>
  <circle id="rim" cx="0" cy="0" r="7"/>
  <circle id="rim2" cx="0" cy="0" r="3.5"/>
  <g id="zoomPlus">
    <use xlink:href="#rim" fill="#404040"><set attributeName="fill" to="#808080" begin="zoomplus.mouseover" end="zoomplus.mouseout"/></use>
    <path d="M-4,0h8M0,-4v8" fill="none" stroke="white" stroke-width="1.5" pointer-events="none"/>
  </g>
  <g id="zoomMin">
    <use xlink:href="#rim" fill="#404040"><set attributeName="fill" to="#808080" begin="zoomminus.mouseover" end="zoomminus.mouseout"/></use>
    <path d="M-4,0h8" fill="none" stroke="white" stroke-width="1.5" pointer-events="none"/>
  </g>
  <g id="arrowUp" transform="translate(30 24)">
    <use xlink:href="#rim"/>
    <path pointer-events="none" fill="none" stroke="white" stroke-width="1.5" d="M0,-3.0v7 M-2.5,-0.5L0,-3.0L2.5,-0.5"/>
  </g>
  <g id="arrowRight" transform="rotate(90) translate(36 -43)">
    <use xlink:href="#rim"/>
    <path pointer-events="none" fill="none" stroke="white" stroke-width="1.5" d="M0,-3.0v7 M-2.5,-0.5L0,-3.0L2.5,-0.5"/>
  </g>
  <g id="arrowDown" transform="rotate(180) translate(-30 -48)">
    <use xlink:href="#rim"/>
    <path pointer-events="none" fill="none" stroke="white" stroke-width="1.5" d="M0,-3.0v7 M-2.5,-0.5L0,-3.0L2.5,-0.5"/>
  </g>
  <g id="arrowLeft" transform="rotate(270) translate(-36 17)">
    <use xlink:href="#rim"/>
    <path pointer-events="none" fill="none" stroke="white" stroke-width="1.5" d="M0,-3.0v7 M-2.5,-0.5L0,-3.0L2.5,-0.5"/>
  </g>
  <g id="resetDef">
    <use xlink:href="#rim2" fill="#404040"><set attributeName="fill" to="#808080" begin="reset.mouseover" end="reset.mouseout"/></use>
  </g>
</defs>
<script type="application/ecmascript">
var viewWidth = 493;
var viewHeight = 567;
var sectionId = 'dynsection-0';
</script>
<script type="application/ecmascript" xlink:href="svg.min.js"/>
<svg id="graph" class="graph">
<g id="viewport">
<title>Guildmaster.Presentation.UnitDiedEvent</title>
<!-- Node1 -->
<g id="Node000001" class="node">
<title>Node1</title>
<g id="a_Node000001"><a xlink:title=" ">
<polygon fill="#999999" stroke="transparent" points="303,-60 166,-60 166,0 303,0 303,-60"/>
<text text-anchor="start" x="171.5" y="-48" font-family="Helvetica,sans-Serif" font-size="10.00">Guildmaster.Presentation.</text>
<text text-anchor="start" x="199.5" y="-37" font-family="Helvetica,sans-Serif" font-size="10.00">UnitDiedEvent</text>
<text text-anchor="start" x="233" y="-22" font-family="Helvetica,sans-Serif" font-size="10.00"> </text>
<text text-anchor="start" x="179.5" y="-7" font-family="Helvetica,sans-Serif" font-size="10.00">+</text>
<text text-anchor="start" x="201.5" y="-7" font-family="Helvetica,sans-Serif" font-size="10.00">UnitDiedEvent()</text>
<polygon fill="#666666" stroke="#666666" points="166.5,-32 166.5,-32 303.5,-32 303.5,-32 166.5,-32"/>
<polygon fill="#666666" stroke="#666666" points="166.5,-17 166.5,-17 303.5,-17 303.5,-17 166.5,-17"/>
<polygon fill="none" stroke="#666666" points="166,0 166,-60 303,-60 303,0 166,0"/>
</a>
</g>
</g>
<!-- Node2 -->
<g id="Node000002" class="node">
<title>Node2</title>
<g id="a_Node000002"><a xlink:href="classGuildmaster_1_1Combat_1_1RuntimeUnit.html" target="_top" xlink:title="Рантайм&#45;представление юнита на один бой.">
<polygon fill="white" stroke="transparent" points="322.5,-276 146.5,-276 146.5,-107 322.5,-107 322.5,-276"/>
<text text-anchor="start" x="151.5" y="-263.5" font-family="Helvetica,sans-Serif" font-size="10.00">Guildmaster.Combat.RuntimeUnit</text>
<text text-anchor="start" x="168.5" y="-248.5" font-family="Helvetica,sans-Serif" font-size="10.00">+</text>
<text text-anchor="start" x="199.5" y="-248.5" font-family="Helvetica,sans-Serif" font-size="10.00">Id</text>
<text text-anchor="start" x="168.5" y="-233.5" font-family="Helvetica,sans-Serif" font-size="10.00">+</text>
<text text-anchor="start" x="199.5" y="-233.5" font-family="Helvetica,sans-Serif" font-size="10.00">Team</text>
<text text-anchor="start" x="168.5" y="-218.5" font-family="Helvetica,sans-Serif" font-size="10.00">+</text>
<text text-anchor="start" x="199.5" y="-218.5" font-family="Helvetica,sans-Serif" font-size="10.00">CurrentHP</text>
<text text-anchor="start" x="168.5" y="-203.5" font-family="Helvetica,sans-Serif" font-size="10.00">+</text>
<text text-anchor="start" x="199.5" y="-203.5" font-family="Helvetica,sans-Serif" font-size="10.00">CurrentResource</text>
<text text-anchor="start" x="168.5" y="-188.5" font-family="Helvetica,sans-Serif" font-size="10.00">+</text>
<text text-anchor="start" x="199.5" y="-188.5" font-family="Helvetica,sans-Serif" font-size="10.00">CurrentShield</text>
<text text-anchor="start" x="168.5" y="-173.5" font-family="Helvetica,sans-Serif" font-size="10.00">+</text>
<text text-anchor="start" x="199.5" y="-173.5" font-family="Helvetica,sans-Serif" font-size="10.00">Position</text>
<text text-anchor="start" x="168.5" y="-158.5" font-family="Helvetica,sans-Serif" font-size="10.00">+</text>
<text text-anchor="start" x="199.5" y="-158.5" font-family="Helvetica,sans-Serif" font-size="10.00">PreviousPosition</text>
<text text-anchor="start" x="168.5" y="-143.5" font-family="Helvetica,sans-Serif" font-size="10.00">+</text>
<text text-anchor="start" x="199.5" y="-143.5" font-family="Helvetica,sans-Serif" font-size="10.00">AttackCooldown</text>
<text text-anchor="start" x="168.5" y="-128.5" font-family="Helvetica,sans-Serif" font-size="10.00">+</text>
<text text-anchor="start" x="199.5" y="-128.5" font-family="Helvetica,sans-Serif" font-size="10.00">IsDead</text>
<text text-anchor="start" x="232.5" y="-113.5" font-family="Helvetica,sans-Serif" font-size="10.00"> </text>
<polygon fill="#666666" stroke="#666666" points="146.5,-258.5 146.5,-258.5 322.5,-258.5 322.5,-258.5 146.5,-258.5"/>
<polygon fill="#666666" stroke="#666666" points="146.5,-123.5 146.5,-123.5 197.5,-123.5 197.5,-123.5 146.5,-123.5"/>
<polygon fill="#666666" stroke="#666666" points="197.5,-123.5 197.5,-123.5 322.5,-123.5 322.5,-123.5 197.5,-123.5"/>
<polygon fill="none" stroke="#666666" points="146.5,-107 146.5,-276 322.5,-276 322.5,-107 146.5,-107"/>
</a>
</g>
</g>
<!-- Node2&#45;&gt;Node1 -->
<g id="edge1_Node000001_Node000002" class="edge">
<title>Node2&#45;&gt;Node1</title>
<g id="a_edge1_Node000001_Node000002"><a xlink:title=" ">
<path fill="none" stroke="#63b8ff" d="M234.5,-106.55C234.5,-94.7 234.5,-82.98 234.5,-72.43"/>
<polygon fill="none" stroke="#63b8ff" points="234.5,-72.22 230.5,-66.22 234.5,-60.22 238.5,-66.22 234.5,-72.22"/>
</a>
</g>
<text text-anchor="middle" x="250.5" y="-81" font-family="Helvetica,sans-Serif" font-size="10.00" fill="grey"> +Unit</text>
</g>
<!-- Node2&#45;&gt;Node2 -->
<g id="edge4_Node000002_Node000002" class="edge">
<title>Node2&#45;&gt;Node2</title>
<g id="a_edge4_Node000002_Node000002"><a xlink:title=" ">
<path fill="none" stroke="#63b8ff" d="M322.63,-209.02C333.43,-205.88 340.5,-200.04 340.5,-191.5 340.5,-186.43 338.01,-182.31 333.72,-179.14"/>
<polygon fill="none" stroke="#63b8ff" points="333.51,-179.04 326.38,-180.14 322.63,-173.98 329.76,-172.89 333.51,-179.04"/>
</a>
</g>
<text text-anchor="middle" x="379.5" y="-189" font-family="Helvetica,sans-Serif" font-size="10.00" fill="grey"> +CurrentTarget</text>
</g>
<!-- Node3 -->
<g id="Node000003" class="node">
<title>Node3</title>
<g id="a_Node000003"><a xlink:href="classGuildmaster_1_1Combat_1_1Stats.html" target="_top" xlink:title="Рантайм стат&#45;объект юнита.">
<polygon fill="white" stroke="transparent" points="139,-445 0,-445 0,-351 139,-351 139,-445"/>
<text text-anchor="start" x="5.5" y="-433" font-family="Helvetica,sans-Serif" font-size="10.00">Guildmaster.Combat.Stats</text>
<text text-anchor="start" x="68" y="-418" font-family="Helvetica,sans-Serif" font-size="10.00"> </text>
<text text-anchor="start" x="4.5" y="-403" font-family="Helvetica,sans-Serif" font-size="10.00">+</text>
<text text-anchor="start" x="17.5" y="-403" font-family="Helvetica,sans-Serif" font-size="10.00">Stats()</text>
<text text-anchor="start" x="4.5" y="-388" font-family="Helvetica,sans-Serif" font-size="10.00">+</text>
<text text-anchor="start" x="17.5" y="-388" font-family="Helvetica,sans-Serif" font-size="10.00">Get()</text>
<text text-anchor="start" x="4.5" y="-373" font-family="Helvetica,sans-Serif" font-size="10.00">+</text>
<text text-anchor="start" x="17.5" y="-373" font-family="Helvetica,sans-Serif" font-size="10.00">AddModifiersFrom()</text>
<text text-anchor="start" x="4.5" y="-358" font-family="Helvetica,sans-Serif" font-size="10.00">+</text>
<text text-anchor="start" x="17.5" y="-358" font-family="Helvetica,sans-Serif" font-size="10.00">RemoveModifiersFrom()</text>
<polygon fill="#666666" stroke="#666666" points="0.5,-428 0.5,-428 139.5,-428 139.5,-428 0.5,-428"/>
<polygon fill="#666666" stroke="#666666" points="0.5,-413 0.5,-413 139.5,-413 139.5,-413 0.5,-413"/>
<polygon fill="none" stroke="#666666" points="0,-351 0,-445 139,-445 139,-351 0,-351"/>
</a>
</g>
</g>
<!-- Node3&#45;&gt;Node2 -->
<g id="edge2_Node000002_Node000003" class="edge">
<title>Node3&#45;&gt;Node2</title>
<g id="a_edge2_Node000002_Node000003"><a xlink:title=" ">
<path fill="none" stroke="#63b8ff" d="M106.73,-350.85C122.29,-331.58 140.95,-308.45 159.14,-285.9"/>
<polygon fill="none" stroke="#63b8ff" points="159.37,-285.62 160.02,-278.44 166.9,-276.28 166.25,-283.46 159.37,-285.62"/>
</a>
</g>
<text text-anchor="middle" x="171" y="-297" font-family="Helvetica,sans-Serif" font-size="10.00" fill="grey"> +Stats</text>
</g>
<!-- Node4 -->
<g id="Node000004" class="node">
<title>Node4</title>
<g id="a_Node000004"><a xlink:href="interfaceGuildmaster_1_1Data_1_1Stats_1_1IStatReader.html" target="_top" xlink:title="Только&#45;чтение собранных статов.">
<polygon fill="white" stroke="transparent" points="103.5,-559 35.5,-559 35.5,-510 103.5,-510 103.5,-559"/>
<text text-anchor="start" x="40.5" y="-546.5" font-family="Helvetica,sans-Serif" font-size="10.00">IStatReader</text>
<text text-anchor="start" x="67.5" y="-531.5" font-family="Helvetica,sans-Serif" font-size="10.00"> </text>
<text text-anchor="start" x="45" y="-516.5" font-family="Helvetica,sans-Serif" font-size="10.00">+</text>
<text text-anchor="start" x="63.5" y="-516.5" font-family="Helvetica,sans-Serif" font-size="10.00">Get()</text>
<polygon fill="#666666" stroke="#666666" points="35.5,-541.5 35.5,-541.5 103.5,-541.5 103.5,-541.5 35.5,-541.5"/>
<polygon fill="#666666" stroke="#666666" points="35.5,-526.5 35.5,-526.5 103.5,-526.5 103.5,-526.5 35.5,-526.5"/>
<polygon fill="none" stroke="#666666" points="35.5,-510 35.5,-559 103.5,-559 103.5,-510 35.5,-510"/>
</a>
</g>
</g>
<!-- Node4&#45;&gt;Node3 -->
<g id="edge3_Node000003_Node000004" class="edge">
<title>Node4&#45;&gt;Node3</title>
<g id="a_edge3_Node000003_Node000004"><a xlink:title=" ">
<path fill="none" stroke="#63b8ff" d="M69.5,-499.49C69.5,-482.99 69.5,-462.92 69.5,-445.07"/>
<polygon fill="none" stroke="#63b8ff" points="66,-499.76 69.5,-509.76 73,-499.76 66,-499.76"/>
</a>
</g>
</g>
<!-- Node5 -->
<g id="Node000005" class="node">
<title>Node5</title>
<g id="a_Node000005"><a xlink:href="classGuildmaster_1_1Data_1_1Definitions_1_1RelicData.html" target="_top" xlink:title="«Чемпион» — стат&#45;блок и боевые категории юнита.">
<polygon fill="white" stroke="transparent" points="312,-473 157,-473 157,-323 312,-323 312,-473"/>
<text text-anchor="start" x="162.5" y="-461" font-family="Helvetica,sans-Serif" font-size="10.00">Guildmaster.Data.Definitions.</text>
<text text-anchor="start" x="211" y="-450" font-family="Helvetica,sans-Serif" font-size="10.00">RelicData</text>
<text text-anchor="start" x="173.5" y="-435" font-family="Helvetica,sans-Serif" font-size="10.00">+</text>
<text text-anchor="start" x="198.5" y="-435" font-family="Helvetica,sans-Serif" font-size="10.00">DisplayNameKey</text>
<text text-anchor="start" x="173.5" y="-420" font-family="Helvetica,sans-Serif" font-size="10.00">+</text>
<text text-anchor="start" x="198.5" y="-420" font-family="Helvetica,sans-Serif" font-size="10.00">Tags</text>
<text text-anchor="start" x="173.5" y="-405" font-family="Helvetica,sans-Serif" font-size="10.00">+</text>
<text text-anchor="start" x="198.5" y="-405" font-family="Helvetica,sans-Serif" font-size="10.00">DamageType</text>
<text text-anchor="start" x="173.5" y="-390" font-family="Helvetica,sans-Serif" font-size="10.00">+</text>
<text text-anchor="start" x="198.5" y="-390" font-family="Helvetica,sans-Serif" font-size="10.00">AttackType</text>
<text text-anchor="start" x="173.5" y="-375" font-family="Helvetica,sans-Serif" font-size="10.00">+</text>
<text text-anchor="start" x="198.5" y="-375" font-family="Helvetica,sans-Serif" font-size="10.00">ResourceType</text>
<text text-anchor="start" x="173.5" y="-360" font-family="Helvetica,sans-Serif" font-size="10.00">+</text>
<text text-anchor="start" x="198.5" y="-360" font-family="Helvetica,sans-Serif" font-size="10.00">Stats</text>
<text text-anchor="start" x="173.5" y="-345" font-family="Helvetica,sans-Serif" font-size="10.00">+</text>
<text text-anchor="start" x="198.5" y="-345" font-family="Helvetica,sans-Serif" font-size="10.00">GrantedEffects</text>
<text text-anchor="start" x="233" y="-330" font-family="Helvetica,sans-Serif" font-size="10.00"> </text>
<polygon fill="#666666" stroke="#666666" points="157.5,-445 157.5,-445 312.5,-445 312.5,-445 157.5,-445"/>
<polygon fill="#666666" stroke="#666666" points="157.5,-340 157.5,-340 196.5,-340 196.5,-340 157.5,-340"/>
<polygon fill="#666666" stroke="#666666" points="196.5,-340 196.5,-340 312.5,-340 312.5,-340 196.5,-340"/>
<polygon fill="none" stroke="#666666" points="157,-323 157,-473 312,-473 312,-323 157,-323"/>
</a>
</g>
</g>
<!-- Node5&#45;&gt;Node2 -->
<g id="edge5_Node000002_Node000005" class="edge">
<title>Node5&#45;&gt;Node2</title>
<g id="a_edge5_Node000002_Node000005"><a xlink:title=" ">
<path fill="none" stroke="#63b8ff" d="M234.5,-322.88C234.5,-311.6 234.5,-299.82 234.5,-288.16"/>
<polygon fill="none" stroke="#63b8ff" points="234.5,-288.07 230.5,-282.07 234.5,-276.07 238.5,-282.07 234.5,-288.07"/>
</a>
</g>
<text text-anchor="middle" x="252.5" y="-297" font-family="Helvetica,sans-Serif" font-size="10.00" fill="grey"> +Relic</text>
</g>
<!-- Node6 -->
<g id="Node000006" class="node">
<title>Node6</title>
<g id="a_Node000006"><a xlink:title=" ">
<polygon fill="white" stroke="transparent" points="367,-559 276,-559 276,-510 367,-510 367,-559"/>
<text text-anchor="start" x="281.5" y="-546.5" font-family="Helvetica,sans-Serif" font-size="10.00">ScriptableObject</text>
<text text-anchor="start" x="320" y="-531.5" font-family="Helvetica,sans-Serif" font-size="10.00"> </text>
<text text-anchor="start" x="320" y="-516.5" font-family="Helvetica,sans-Serif" font-size="10.00"> </text>
<polygon fill="#666666" stroke="#666666" points="276.5,-541.5 276.5,-541.5 367.5,-541.5 367.5,-541.5 276.5,-541.5"/>
<polygon fill="#666666" stroke="#666666" points="276.5,-526.5 276.5,-526.5 367.5,-526.5 367.5,-526.5 276.5,-526.5"/>
<polygon fill="none" stroke="#666666" points="276,-510 276,-559 367,-559 367,-510 276,-510"/>
</a>
</g>
</g>
<!-- Node6&#45;&gt;Node5 -->
<g id="edge6_Node000005_Node000006" class="edge">
<title>Node6&#45;&gt;Node5</title>
<g id="a_edge6_Node000005_Node000006"><a xlink:title=" ">
<path fill="none" stroke="#63b8ff" d="M300.61,-501.2C295.03,-492.58 288.77,-482.89 282.38,-473.01"/>
<polygon fill="none" stroke="#63b8ff" points="297.78,-503.27 306.15,-509.76 303.65,-499.47 297.78,-503.27"/>
</a>
</g>
</g>
<!-- Node7 -->
<g id="Node000007" class="node">
<title>Node7</title>
<g id="a_Node000007"><a xlink:href="classGuildmaster_1_1Data_1_1Definitions_1_1VesselData.html" target="_top" xlink:title="«Пилот» — носитель реликвии.">
<polygon fill="white" stroke="transparent" points="485,-443 330,-443 330,-353 485,-353 485,-443"/>
<text text-anchor="start" x="335.5" y="-431" font-family="Helvetica,sans-Serif" font-size="10.00">Guildmaster.Data.Definitions.</text>
<text text-anchor="start" x="380.5" y="-420" font-family="Helvetica,sans-Serif" font-size="10.00">VesselData</text>
<text text-anchor="start" x="346.5" y="-405" font-family="Helvetica,sans-Serif" font-size="10.00">+</text>
<text text-anchor="start" x="371.5" y="-405" font-family="Helvetica,sans-Serif" font-size="10.00">DisplayNameKey</text>
<text text-anchor="start" x="346.5" y="-390" font-family="Helvetica,sans-Serif" font-size="10.00">+</text>
<text text-anchor="start" x="371.5" y="-390" font-family="Helvetica,sans-Serif" font-size="10.00">Tags</text>
<text text-anchor="start" x="346.5" y="-375" font-family="Helvetica,sans-Serif" font-size="10.00">+</text>
<text text-anchor="start" x="371.5" y="-375" font-family="Helvetica,sans-Serif" font-size="10.00">TalentModifiers</text>
<text text-anchor="start" x="406" y="-360" font-family="Helvetica,sans-Serif" font-size="10.00"> </text>
<polygon fill="#666666" stroke="#666666" points="330.5,-415 330.5,-415 485.5,-415 485.5,-415 330.5,-415"/>
<polygon fill="#666666" stroke="#666666" points="330.5,-370 330.5,-370 369.5,-370 369.5,-370 330.5,-370"/>
<polygon fill="#666666" stroke="#666666" points="369.5,-370 369.5,-370 485.5,-370 485.5,-370 369.5,-370"/>
<polygon fill="none" stroke="#666666" points="330,-353 330,-443 485,-443 485,-353 330,-353"/>
</a>
</g>
</g>
<!-- Node6&#45;&gt;Node7 -->
<g id="edge8_Node000007_Node000006" class="edge">
<title>Node6&#45;&gt;Node7</title>
<g id="a_edge8_Node000007_Node000006"><a xlink:title=" ">
<path fill="none" stroke="#63b8ff" d="M342.21,-501.1C353.33,-483.72 367.19,-462.05 379.27,-443.15"/>
<polygon fill="none" stroke="#63b8ff" points="339.12,-499.45 336.68,-509.76 345.01,-503.22 339.12,-499.45"/>
</a>
</g>
</g>
<!-- Node7&#45;&gt;Node2 -->
<g id="edge7_Node000002_Node000007" class="edge">
<title>Node7&#45;&gt;Node2</title>
<g id="a_edge7_Node000002_Node000007"><a xlink:title=" ">
<path fill="none" stroke="#63b8ff" d="M370.17,-352.88C353.43,-333.08 332.99,-308.93 313.12,-285.44"/>
<polygon fill="none" stroke="#63b8ff" points="313,-285.29 306.07,-283.29 305.25,-276.13 312.18,-278.13 313,-285.29"/>
</a>
</g>
<text text-anchor="middle" x="348" y="-297" font-family="Helvetica,sans-Serif" font-size="10.00" fill="grey"> +Vessel</text>
</g>
</g>
</svg>

<g id="navigator" transform="translate(0 0)" fill="#404254">
  <rect fill="#f2f5e9" fill-opacity="0.5" stroke="#606060" stroke-width=".5" x="0" y="0" width="60" height="60"/>
  <use id="zoomplus" xlink:href="#zoomPlus" x="17" y="9" onmousedown="handleZoom(evt,'in')"/>
  <use id="zoomminus" xlink:href="#zoomMin" x="42" y="9" onmousedown="handleZoom(evt,'out')"/>
  <use id="reset" xlink:href="#resetDef" x="30" y="36" onmousedown="handleReset()"/>
   <use id="arrowup" xlink:href="#arrowUp" x="0" y="0" onmousedown="handlePan(0,-1)"/>
  <use id="arrowright" xlink:href="#arrowRight" x="0" y="0" onmousedown="handlePan(1,0)"/>
  <use id="arrowdown" xlink:href="#arrowDown" x="0" y="0" onmousedown="handlePan(0,1)"/>
  <use id="arrowleft" xlink:href="#arrowLeft" x="0" y="0" onmousedown="handlePan(-1,0)"/>
</g>
<svg viewBox="0 0 15 15" width="100%" height="30px" preserveAspectRatio="xMaxYMin meet">
 <g id="arrow_out" transform="scale(0.3 0.3)">
  <a xlink:href="structGuildmaster_1_1Presentation_1_1UnitDiedEvent__coll__graph_org.svg" target="_base">
   <rect id="button" ry="5" rx="5" y="6" x="6" height="38" width="38"
        fill="#f2f5e9" fill-opacity="0.5" stroke="#606060" stroke-width="1.0"/>
   <path id="arrow"
     d="M 11.500037,31.436501 C 11.940474,20.09759 22.043105,11.32322 32.158766,21.979434 L 37.068811,17.246167 C 37.068811,17.246167 37.088388,32 37.088388,32 L 22.160133,31.978069 C 22.160133,31.978069 26.997745,27.140456 26.997745,27.140456 C 18.528582,18.264221 13.291696,25.230495 11.500037,31.436501 z"
     style="fill:#404040;"/>
  </a>
 </g>
</svg>

<style type='text/css'>
<![CDATA[
[data-mouse-over-selected='false'] { opacity: 0.7; }
[data-mouse-over-selected='true']  { opacity: 1.0; }
]]>
</style>
<script type="application/ecmascript"><![CDATA[
document.addEventListener('DOMContentLoaded', (event) => {
  highlightEdges();
  highlightAdjacentNodes();
});
]]></script>
</svg>
