<?xml version="1.0" encoding="UTF-8" standalone="no"?>
<!DOCTYPE svg PUBLIC "-//W3C//DTD SVG 1.1//EN"
 "http://www.w3.org/Graphics/SVG/1.1/DTD/svg11.dtd">
<!-- Generated by graphviz version 2.43.0 (0)
 -->
<!-- Title: Guildmaster.Presentation.DamageDealtEvent Pages: 1 -->
<!--zoomable 683 -->

<svg id="main" version="1.1" xmlns="http://www.w3.org/2000/svg" xmlns:xlink="http://www.w3.org/1999/xlink" xml:space="preserve" onload="init(evt)">
<style type="text/css"><![CDATA[
.node, .edge {opacity: 0.7;}
.node.selected, .edge.selected {opacity: 1;}
.edge:hover path { stroke: red; }
.edge:hover polygon { stroke: red; fill: red; }
]]></style>

<defs>
  <circle id="rim" cx="0" cy="0" r="7"/>
  <circle id="rim2" cx="0" cy="0" r="3.5"/>
  <g id="zoomPlus">
    <use xlink:href="#rim" fill="#404040"><set attributeName="fill" to="#808080" begin="zoomplus.mouseover" end="zoomplus.mouseout"/></use>
    <path d="M-4,0h8M0,-4v8" fill="none" stroke="white" stroke-width="1.5" pointer-events="none"/>
  </g>
  <g id="zoomMin">
    <use xlink:href="#rim" fill="#404040"><set attributeName="fill" to="#808080" begin="zoomminus.mouseover" end="zoomminus.mouseout"/></use>
    <path d="M-4,0h8" fill="none" stroke="white" stroke-width="1.5" pointer-events="none"/>
  </g>
  <g id="arrowUp" transform="translate(30 24)">
    <use xlink:href="#rim"/>
    <path pointer-events="none" fill="none" stroke="white" stroke-width="1.5" d="M0,-3.0v7 M-2.5,-0.5L0,-3.0L2.5,-0.5"/>
  </g>
  <g id="arrowRight" transform="rotate(90) translate(36 -43)">
    <use xlink:href="#rim"/>
    <path pointer-events="none" fill="none" stroke="white" stroke-width="1.5" d="M0,-3.0v7 M-2.5,-0.5L0,-3.0L2.5,-0.5"/>
  </g>
  <g id="arrowDown" transform="rotate(180) translate(-30 -48)">
    <use xlink:href="#rim"/>
    <path pointer-events="none" fill="none" stroke="white" stroke-width="1.5" d="M0,-3.0v7 M-2.5,-0.5L0,-3.0L2.5,-0.5"/>
  </g>
  <g id="arrowLeft" transform="rotate(270) translate(-36 17)">
    <use xlink:href="#rim"/>
    <path pointer-events="none" fill="none" stroke="white" stroke-width="1.5" d="M0,-3.0v7 M-2.5,-0.5L0,-3.0L2.5,-0.5"/>
  </g>
  <g id="resetDef">
    <use xlink:href="#rim2" fill="#404040"><set attributeName="fill" to="#808080" begin="reset.mouseover" end="reset.mouseout"/></use>
  </g>
</defs>
<script type="application/ecmascript">
var viewWidth = 600;
var viewHeight = 683;
var sectionId = 'dynsection-0';
</script>
<script type="application/ecmascript" xlink:href="svg.min.js"/>
<svg id="graph" class="graph">
<g id="viewport">
<title>Guildmaster.Presentation.DamageDealtEvent</title>
<!-- Node1 -->
<g id="Node000001" class="node">
<title>Node1</title>
<g id="a_Node000001"><a xlink:title=" ">
<polygon fill="#999999" stroke="transparent" points="443,-60 306,-60 306,0 443,0 443,-60"/>
<text text-anchor="start" x="311.5" y="-48" font-family="Helvetica,sans-Serif" font-size="10.00">Guildmaster.Presentation.</text>
<text text-anchor="start" x="327" y="-37" font-family="Helvetica,sans-Serif" font-size="10.00">DamageDealtEvent</text>
<text text-anchor="start" x="373" y="-22" font-family="Helvetica,sans-Serif" font-size="10.00"> </text>
<text text-anchor="start" x="313.5" y="-7" font-family="Helvetica,sans-Serif" font-size="10.00">+</text>
<text text-anchor="start" x="329.5" y="-7" font-family="Helvetica,sans-Serif" font-size="10.00">DamageDealtEvent()</text>
<polygon fill="#666666" stroke="#666666" points="306.5,-32 306.5,-32 443.5,-32 443.5,-32 306.5,-32"/>
<polygon fill="#666666" stroke="#666666" points="306.5,-17 306.5,-17 443.5,-17 443.5,-17 306.5,-17"/>
<polygon fill="none" stroke="#666666" points="306,0 306,-60 443,-60 443,0 306,0"/>
</a>
</g>
</g>
<!-- Node2 -->
<g id="Node000002" class="node">
<title>Node2</title>
<g id="a_Node000002"><a xlink:href="classGuildmaster_1_1Combat_1_1RuntimeUnit.html" target="_top" xlink:title="Рантайм&#45;представление юнита на один бой.">
<polygon fill="white" stroke="transparent" points="322.5,-377 146.5,-377 146.5,-118 322.5,-118 322.5,-377"/>
<text text-anchor="start" x="151.5" y="-364.5" font-family="Helvetica,sans-Serif" font-size="10.00">Guildmaster.Combat.RuntimeUnit</text>
<text text-anchor="start" x="168.5" y="-349.5" font-family="Helvetica,sans-Serif" font-size="10.00">+</text>
<text text-anchor="start" x="199.5" y="-349.5" font-family="Helvetica,sans-Serif" font-size="10.00">Id</text>
<text text-anchor="start" x="168.5" y="-334.5" font-family="Helvetica,sans-Serif" font-size="10.00">+</text>
<text text-anchor="start" x="199.5" y="-334.5" font-family="Helvetica,sans-Serif" font-size="10.00">Team</text>
<text text-anchor="start" x="168.5" y="-319.5" font-family="Helvetica,sans-Serif" font-size="10.00">+</text>
<text text-anchor="start" x="199.5" y="-319.5" font-family="Helvetica,sans-Serif" font-size="10.00">CurrentHP</text>
<text text-anchor="start" x="168.5" y="-304.5" font-family="Helvetica,sans-Serif" font-size="10.00">+</text>
<text text-anchor="start" x="199.5" y="-304.5" font-family="Helvetica,sans-Serif" font-size="10.00">CurrentResource</text>
<text text-anchor="start" x="168.5" y="-289.5" font-family="Helvetica,sans-Serif" font-size="10.00">+</text>
<text text-anchor="start" x="199.5" y="-289.5" font-family="Helvetica,sans-Serif" font-size="10.00">CurrentShield</text>
<text text-anchor="start" x="168.5" y="-274.5" font-family="Helvetica,sans-Serif" font-size="10.00">+</text>
<text text-anchor="start" x="199.5" y="-274.5" font-family="Helvetica,sans-Serif" font-size="10.00">Position</text>
<text text-anchor="start" x="168.5" y="-259.5" font-family="Helvetica,sans-Serif" font-size="10.00">+</text>
<text text-anchor="start" x="199.5" y="-259.5" font-family="Helvetica,sans-Serif" font-size="10.00">PreviousPosition</text>
<text text-anchor="start" x="168.5" y="-244.5" font-family="Helvetica,sans-Serif" font-size="10.00">+</text>
<text text-anchor="start" x="199.5" y="-244.5" font-family="Helvetica,sans-Serif" font-size="10.00">AttackCooldown</text>
<text text-anchor="start" x="168.5" y="-229.5" font-family="Helvetica,sans-Serif" font-size="10.00">+</text>
<text text-anchor="start" x="199.5" y="-229.5" font-family="Helvetica,sans-Serif" font-size="10.00">IsDead</text>
<text text-anchor="start" x="168.5" y="-214.5" font-family="Helvetica,sans-Serif" font-size="10.00">+</text>
<text text-anchor="start" x="199.5" y="-214.5" font-family="Helvetica,sans-Serif" font-size="10.00">ActiveEffects</text>
<text text-anchor="start" x="168.5" y="-199.5" font-family="Helvetica,sans-Serif" font-size="10.00">+</text>
<text text-anchor="start" x="199.5" y="-199.5" font-family="Helvetica,sans-Serif" font-size="10.00">EffectTagMask</text>
<text text-anchor="start" x="168.5" y="-184.5" font-family="Helvetica,sans-Serif" font-size="10.00">+</text>
<text text-anchor="start" x="199.5" y="-184.5" font-family="Helvetica,sans-Serif" font-size="10.00">Abilities</text>
<text text-anchor="start" x="168.5" y="-169.5" font-family="Helvetica,sans-Serif" font-size="10.00">+</text>
<text text-anchor="start" x="199.5" y="-169.5" font-family="Helvetica,sans-Serif" font-size="10.00">CanAct</text>
<text text-anchor="start" x="168.5" y="-154.5" font-family="Helvetica,sans-Serif" font-size="10.00">+</text>
<text text-anchor="start" x="199.5" y="-154.5" font-family="Helvetica,sans-Serif" font-size="10.00">CanMove</text>
<text text-anchor="start" x="168.5" y="-139.5" font-family="Helvetica,sans-Serif" font-size="10.00">+</text>
<text text-anchor="start" x="199.5" y="-139.5" font-family="Helvetica,sans-Serif" font-size="10.00">CanCast</text>
<text text-anchor="start" x="232.5" y="-124.5" font-family="Helvetica,sans-Serif" font-size="10.00"> </text>
<polygon fill="#666666" stroke="#666666" points="146.5,-359.5 146.5,-359.5 322.5,-359.5 322.5,-359.5 146.5,-359.5"/>
<polygon fill="#666666" stroke="#666666" points="146.5,-134.5 146.5,-134.5 197.5,-134.5 197.5,-134.5 146.5,-134.5"/>
<polygon fill="#666666" stroke="#666666" points="197.5,-134.5 197.5,-134.5 322.5,-134.5 322.5,-134.5 197.5,-134.5"/>
<polygon fill="none" stroke="#666666" points="146.5,-118 146.5,-377 322.5,-377 322.5,-118 146.5,-118"/>
</a>
</g>
</g>
<!-- Node2&#45;&gt;Node1 -->
<g id="edge1_Node000001_Node000002" class="edge">
<title>Node2&#45;&gt;Node1</title>
<g id="a_edge1_Node000001_Node000002"><a xlink:title=" ">
<path fill="none" stroke="#63b8ff" d="M318.16,-117.72C329.33,-100.53 340.02,-84.08 349.02,-70.22"/>
<polygon fill="none" stroke="#63b8ff" points="349.02,-70.22 348.94,-63.01 355.56,-60.15 355.65,-67.36 349.02,-70.22"/>
</a>
</g>
<text text-anchor="middle" x="364" y="-92" font-family="Helvetica,sans-Serif" font-size="10.00" fill="grey"> +Source</text>
<text text-anchor="middle" x="364" y="-81" font-family="Helvetica,sans-Serif" font-size="10.00" fill="grey">+Target</text>
</g>
<!-- Node2&#45;&gt;Node2 -->
<g id="edge4_Node000002_Node000002" class="edge">
<title>Node2&#45;&gt;Node2</title>
<g id="a_edge4_Node000002_Node000002"><a xlink:title=" ">
<path fill="none" stroke="#63b8ff" d="M322.63,-272.16C333.43,-267.74 340.5,-259.52 340.5,-247.5 340.5,-239.99 337.74,-233.96 333.03,-229.41"/>
<polygon fill="none" stroke="#63b8ff" points="332.78,-229.25 325.57,-229.43 322.63,-222.84 329.84,-222.67 332.78,-229.25"/>
</a>
</g>
<text text-anchor="middle" x="379.5" y="-245" font-family="Helvetica,sans-Serif" font-size="10.00" fill="grey"> +CurrentTarget</text>
</g>
<!-- Node3 -->
<g id="Node000003" class="node">
<title>Node3</title>
<g id="a_Node000003"><a xlink:href="classGuildmaster_1_1Combat_1_1Stats.html" target="_top" xlink:title="Рантайм стат&#45;объект юнита.">
<polygon fill="white" stroke="transparent" points="139,-553.5 0,-553.5 0,-459.5 139,-459.5 139,-553.5"/>
<text text-anchor="start" x="5.5" y="-541.5" font-family="Helvetica,sans-Serif" font-size="10.00">Guildmaster.Combat.Stats</text>
<text text-anchor="start" x="68" y="-526.5" font-family="Helvetica,sans-Serif" font-size="10.00"> </text>
<text text-anchor="start" x="4.5" y="-511.5" font-family="Helvetica,sans-Serif" font-size="10.00">+</text>
<text text-anchor="start" x="17.5" y="-511.5" font-family="Helvetica,sans-Serif" font-size="10.00">Stats()</text>
<text text-anchor="start" x="4.5" y="-496.5" font-family="Helvetica,sans-Serif" font-size="10.00">+</text>
<text text-anchor="start" x="17.5" y="-496.5" font-family="Helvetica,sans-Serif" font-size="10.00">Get()</text>
<text text-anchor="start" x="4.5" y="-481.5" font-family="Helvetica,sans-Serif" font-size="10.00">+</text>
<text text-anchor="start" x="17.5" y="-481.5" font-family="Helvetica,sans-Serif" font-size="10.00">AddModifiersFrom()</text>
<text text-anchor="start" x="4.5" y="-466.5" font-family="Helvetica,sans-Serif" font-size="10.00">+</text>
<text text-anchor="start" x="17.5" y="-466.5" font-family="Helvetica,sans-Serif" font-size="10.00">RemoveModifiersFrom()</text>
<polygon fill="#666666" stroke="#666666" points="0.5,-536.5 0.5,-536.5 139.5,-536.5 139.5,-536.5 0.5,-536.5"/>
<polygon fill="#666666" stroke="#666666" points="0.5,-521.5 0.5,-521.5 139.5,-521.5 139.5,-521.5 0.5,-521.5"/>
<polygon fill="none" stroke="#666666" points="0,-459.5 0,-553.5 139,-553.5 139,-459.5 0,-459.5"/>
</a>
</g>
</g>
<!-- Node3&#45;&gt;Node2 -->
<g id="edge2_Node000002_Node000003" class="edge">
<title>Node3&#45;&gt;Node2</title>
<g id="a_edge2_Node000002_Node000003"><a xlink:title=" ">
<path fill="none" stroke="#63b8ff" d="M99.19,-459.26C112.38,-438.72 128.67,-413.34 145.33,-387.39"/>
<polygon fill="none" stroke="#63b8ff" points="145.49,-387.14 145.37,-379.93 151.97,-377.04 152.1,-384.25 145.49,-387.14"/>
</a>
</g>
<text text-anchor="middle" x="156" y="-398" font-family="Helvetica,sans-Serif" font-size="10.00" fill="grey"> +Stats</text>
</g>
<!-- Node4 -->
<g id="Node000004" class="node">
<title>Node4</title>
<g id="a_Node000004"><a xlink:href="interfaceGuildmaster_1_1Data_1_1Stats_1_1IStatReader.html" target="_top" xlink:title="Только&#45;чтение собранных статов.">
<polygon fill="white" stroke="transparent" points="103.5,-675 35.5,-675 35.5,-626 103.5,-626 103.5,-675"/>
<text text-anchor="start" x="40.5" y="-662.5" font-family="Helvetica,sans-Serif" font-size="10.00">IStatReader</text>
<text text-anchor="start" x="67.5" y="-647.5" font-family="Helvetica,sans-Serif" font-size="10.00"> </text>
<text text-anchor="start" x="45" y="-632.5" font-family="Helvetica,sans-Serif" font-size="10.00">+</text>
<text text-anchor="start" x="63.5" y="-632.5" font-family="Helvetica,sans-Serif" font-size="10.00">Get()</text>
<polygon fill="#666666" stroke="#666666" points="35.5,-657.5 35.5,-657.5 103.5,-657.5 103.5,-657.5 35.5,-657.5"/>
<polygon fill="#666666" stroke="#666666" points="35.5,-642.5 35.5,-642.5 103.5,-642.5 103.5,-642.5 35.5,-642.5"/>
<polygon fill="none" stroke="#666666" points="35.5,-626 35.5,-675 103.5,-675 103.5,-626 35.5,-626"/>
</a>
</g>
</g>
<!-- Node4&#45;&gt;Node3 -->
<g id="edge3_Node000003_Node000004" class="edge">
<title>Node4&#45;&gt;Node3</title>
<g id="a_edge3_Node000003_Node000004"><a xlink:title=" ">
<path fill="none" stroke="#63b8ff" d="M69.5,-615.7C69.5,-597.18 69.5,-573.95 69.5,-553.77"/>
<polygon fill="none" stroke="#63b8ff" points="66,-615.73 69.5,-625.73 73,-615.73 66,-615.73"/>
</a>
</g>
</g>
<!-- Node5 -->
<g id="Node000005" class="node">
<title>Node5</title>
<g id="a_Node000005"><a xlink:href="classGuildmaster_1_1Data_1_1Definitions_1_1RelicData.html" target="_top" xlink:title="«Чемпион» — стат&#45;блок и боевые категории юнита.">
<polygon fill="white" stroke="transparent" points="312,-589 157,-589 157,-424 312,-424 312,-589"/>
<text text-anchor="start" x="162.5" y="-576.5" font-family="Helvetica,sans-Serif" font-size="10.00">Guildmaster.Data.Definitions.</text>
<text text-anchor="start" x="211" y="-565.5" font-family="Helvetica,sans-Serif" font-size="10.00">RelicData</text>
<text text-anchor="start" x="173.5" y="-550.5" font-family="Helvetica,sans-Serif" font-size="10.00">+</text>
<text text-anchor="start" x="198.5" y="-550.5" font-family="Helvetica,sans-Serif" font-size="10.00">DisplayNameKey</text>
<text text-anchor="start" x="173.5" y="-535.5" font-family="Helvetica,sans-Serif" font-size="10.00">+</text>
<text text-anchor="start" x="198.5" y="-535.5" font-family="Helvetica,sans-Serif" font-size="10.00">Tags</text>
<text text-anchor="start" x="173.5" y="-520.5" font-family="Helvetica,sans-Serif" font-size="10.00">+</text>
<text text-anchor="start" x="198.5" y="-520.5" font-family="Helvetica,sans-Serif" font-size="10.00">DamageType</text>
<text text-anchor="start" x="173.5" y="-505.5" font-family="Helvetica,sans-Serif" font-size="10.00">+</text>
<text text-anchor="start" x="198.5" y="-505.5" font-family="Helvetica,sans-Serif" font-size="10.00">AttackType</text>
<text text-anchor="start" x="173.5" y="-490.5" font-family="Helvetica,sans-Serif" font-size="10.00">+</text>
<text text-anchor="start" x="198.5" y="-490.5" font-family="Helvetica,sans-Serif" font-size="10.00">ResourceType</text>
<text text-anchor="start" x="173.5" y="-475.5" font-family="Helvetica,sans-Serif" font-size="10.00">+</text>
<text text-anchor="start" x="198.5" y="-475.5" font-family="Helvetica,sans-Serif" font-size="10.00">Stats</text>
<text text-anchor="start" x="173.5" y="-460.5" font-family="Helvetica,sans-Serif" font-size="10.00">+</text>
<text text-anchor="start" x="198.5" y="-460.5" font-family="Helvetica,sans-Serif" font-size="10.00">GrantedEffects</text>
<text text-anchor="start" x="173.5" y="-445.5" font-family="Helvetica,sans-Serif" font-size="10.00">+</text>
<text text-anchor="start" x="198.5" y="-445.5" font-family="Helvetica,sans-Serif" font-size="10.00">Abilities</text>
<text text-anchor="start" x="233" y="-430.5" font-family="Helvetica,sans-Serif" font-size="10.00"> </text>
<polygon fill="#666666" stroke="#666666" points="157.5,-560.5 157.5,-560.5 312.5,-560.5 312.5,-560.5 157.5,-560.5"/>
<polygon fill="#666666" stroke="#666666" points="157.5,-440.5 157.5,-440.5 196.5,-440.5 196.5,-440.5 157.5,-440.5"/>
<polygon fill="#666666" stroke="#666666" points="196.5,-440.5 196.5,-440.5 312.5,-440.5 312.5,-440.5 196.5,-440.5"/>
<polygon fill="none" stroke="#666666" points="157,-424 157,-589 312,-589 312,-424 157,-424"/>
</a>
</g>
</g>
<!-- Node5&#45;&gt;Node2 -->
<g id="edge5_Node000002_Node000005" class="edge">
<title>Node5&#45;&gt;Node2</title>
<g id="a_edge5_Node000002_Node000005"><a xlink:title=" ">
<path fill="none" stroke="#63b8ff" d="M234.5,-423.83C234.5,-412.81 234.5,-401.26 234.5,-389.57"/>
<polygon fill="none" stroke="#63b8ff" points="234.5,-389.36 230.5,-383.36 234.5,-377.36 238.5,-383.36 234.5,-389.36"/>
</a>
</g>
<text text-anchor="middle" x="252.5" y="-398" font-family="Helvetica,sans-Serif" font-size="10.00" fill="grey"> +Relic</text>
</g>
<!-- Node6 -->
<g id="Node000006" class="node">
<title>Node6</title>
<g id="a_Node000006"><a xlink:title=" ">
<polygon fill="white" stroke="transparent" points="367,-675 276,-675 276,-626 367,-626 367,-675"/>
<text text-anchor="start" x="281.5" y="-662.5" font-family="Helvetica,sans-Serif" font-size="10.00">ScriptableObject</text>
<text text-anchor="start" x="320" y="-647.5" font-family="Helvetica,sans-Serif" font-size="10.00"> </text>
<text text-anchor="start" x="320" y="-632.5" font-family="Helvetica,sans-Serif" font-size="10.00"> </text>
<polygon fill="#666666" stroke="#666666" points="276.5,-657.5 276.5,-657.5 367.5,-657.5 367.5,-657.5 276.5,-657.5"/>
<polygon fill="#666666" stroke="#666666" points="276.5,-642.5 276.5,-642.5 367.5,-642.5 367.5,-642.5 276.5,-642.5"/>
<polygon fill="none" stroke="#666666" points="276,-626 276,-675 367,-675 367,-626 276,-626"/>
</a>
</g>
</g>
<!-- Node6&#45;&gt;Node5 -->
<g id="edge6_Node000005_Node000006" class="edge">
<title>Node6&#45;&gt;Node5</title>
<g id="a_edge6_Node000005_Node000006"><a xlink:title=" ">
<path fill="none" stroke="#63b8ff" d="M301.59,-617.01C296.42,-608.56 290.6,-599.06 284.61,-589.29"/>
<polygon fill="none" stroke="#63b8ff" points="298.73,-619.03 306.94,-625.73 304.7,-615.38 298.73,-619.03"/>
</a>
</g>
</g>
<!-- Node7 -->
<g id="Node000007" class="node">
<title>Node7</title>
<g id="a_Node000007"><a xlink:href="classGuildmaster_1_1Data_1_1Definitions_1_1VesselData.html" target="_top" xlink:title="«Пилот» — носитель реликвии.">
<polygon fill="white" stroke="transparent" points="485,-551.5 330,-551.5 330,-461.5 485,-461.5 485,-551.5"/>
<text text-anchor="start" x="335.5" y="-539.5" font-family="Helvetica,sans-Serif" font-size="10.00">Guildmaster.Data.Definitions.</text>
<text text-anchor="start" x="380.5" y="-528.5" font-family="Helvetica,sans-Serif" font-size="10.00">VesselData</text>
<text text-anchor="start" x="346.5" y="-513.5" font-family="Helvetica,sans-Serif" font-size="10.00">+</text>
<text text-anchor="start" x="371.5" y="-513.5" font-family="Helvetica,sans-Serif" font-size="10.00">DisplayNameKey</text>
<text text-anchor="start" x="346.5" y="-498.5" font-family="Helvetica,sans-Serif" font-size="10.00">+</text>
<text text-anchor="start" x="371.5" y="-498.5" font-family="Helvetica,sans-Serif" font-size="10.00">Tags</text>
<text text-anchor="start" x="346.5" y="-483.5" font-family="Helvetica,sans-Serif" font-size="10.00">+</text>
<text text-anchor="start" x="371.5" y="-483.5" font-family="Helvetica,sans-Serif" font-size="10.00">TalentModifiers</text>
<text text-anchor="start" x="406" y="-468.5" font-family="Helvetica,sans-Serif" font-size="10.00"> </text>
<polygon fill="#666666" stroke="#666666" points="330.5,-523.5 330.5,-523.5 485.5,-523.5 485.5,-523.5 330.5,-523.5"/>
<polygon fill="#666666" stroke="#666666" points="330.5,-478.5 330.5,-478.5 369.5,-478.5 369.5,-478.5 330.5,-478.5"/>
<polygon fill="#666666" stroke="#666666" points="369.5,-478.5 369.5,-478.5 485.5,-478.5 485.5,-478.5 369.5,-478.5"/>
<polygon fill="none" stroke="#666666" points="330,-461.5 330,-551.5 485,-551.5 485,-461.5 330,-461.5"/>
</a>
</g>
</g>
<!-- Node6&#45;&gt;Node7 -->
<g id="edge8_Node000007_Node000006" class="edge">
<title>Node6&#45;&gt;Node7</title>
<g id="a_edge8_Node000007_Node000006"><a xlink:title=" ">
<path fill="none" stroke="#63b8ff" d="M341.19,-616.99C352.9,-597.65 367.92,-572.85 380.7,-551.74"/>
<polygon fill="none" stroke="#63b8ff" points="338.08,-615.37 335.89,-625.73 344.07,-618.99 338.08,-615.37"/>
</a>
</g>
</g>
<!-- Node7&#45;&gt;Node2 -->
<g id="edge7_Node000002_Node000007" class="edge">
<title>Node7&#45;&gt;Node2</title>
<g id="a_edge7_Node000002_Node000007"><a xlink:title=" ">
<path fill="none" stroke="#63b8ff" d="M377.76,-461.32C363.71,-440.45 346.09,-414.27 328.05,-387.47"/>
<polygon fill="none" stroke="#63b8ff" points="327.82,-387.14 321.16,-384.39 321.12,-377.18 327.79,-379.93 327.82,-387.14"/>
</a>
</g>
<text text-anchor="middle" x="358" y="-398" font-family="Helvetica,sans-Serif" font-size="10.00" fill="grey"> +Vessel</text>
</g>
<!-- Node8 -->
<g id="Node000008" class="node">
<title>Node8</title>
<g id="a_Node000008"><a xlink:href="structGuildmaster_1_1Combat_1_1DamageResult.html" target="_top" xlink:title="Результат пайплайна урона после применения к цели.">
<polygon fill="white" stroke="transparent" points="592,-300 437,-300 437,-195 592,-195 592,-300"/>
<text text-anchor="start" x="442.5" y="-287.5" font-family="Helvetica,sans-Serif" font-size="10.00">Guildmaster.Combat.Damage</text>
<text text-anchor="start" x="499.5" y="-276.5" font-family="Helvetica,sans-Serif" font-size="10.00">Result</text>
<text text-anchor="start" x="455" y="-261.5" font-family="Helvetica,sans-Serif" font-size="10.00">+</text>
<text text-anchor="start" x="481.5" y="-261.5" font-family="Helvetica,sans-Serif" font-size="10.00">HpDamage</text>
<text text-anchor="start" x="455" y="-246.5" font-family="Helvetica,sans-Serif" font-size="10.00">+</text>
<text text-anchor="start" x="481.5" y="-246.5" font-family="Helvetica,sans-Serif" font-size="10.00">ShieldDamage</text>
<text text-anchor="start" x="455" y="-231.5" font-family="Helvetica,sans-Serif" font-size="10.00">+</text>
<text text-anchor="start" x="481.5" y="-231.5" font-family="Helvetica,sans-Serif" font-size="10.00">KilledTarget</text>
<text text-anchor="start" x="455" y="-216.5" font-family="Helvetica,sans-Serif" font-size="10.00">+</text>
<text text-anchor="start" x="481.5" y="-216.5" font-family="Helvetica,sans-Serif" font-size="10.00">TotalDamage</text>
<text text-anchor="start" x="455" y="-201.5" font-family="Helvetica,sans-Serif" font-size="10.00">+</text>
<text text-anchor="start" x="481.5" y="-201.5" font-family="Helvetica,sans-Serif" font-size="10.00">DamageResult()</text>
<polygon fill="#666666" stroke="#666666" points="437.5,-271.5 437.5,-271.5 592.5,-271.5 592.5,-271.5 437.5,-271.5"/>
<polygon fill="#666666" stroke="#666666" points="437.5,-211.5 437.5,-211.5 479.5,-211.5 479.5,-211.5 437.5,-211.5"/>
<polygon fill="#666666" stroke="#666666" points="479.5,-211.5 479.5,-211.5 592.5,-211.5 592.5,-211.5 479.5,-211.5"/>
<polygon fill="none" stroke="#666666" points="437,-195 437,-300 592,-300 592,-195 437,-195"/>
</a>
</g>
</g>
<!-- Node8&#45;&gt;Node1 -->
<g id="edge9_Node000001_Node000008" class="edge">
<title>Node8&#45;&gt;Node1</title>
<g id="a_edge9_Node000001_Node000008"><a xlink:title=" ">
<path fill="none" stroke="#63b8ff" d="M480.97,-194.88C456.11,-156.63 422.75,-105.28 400.04,-70.32"/>
<polygon fill="none" stroke="#63b8ff" points="399.9,-70.09 393.27,-67.24 393.36,-60.03 399.98,-62.88 399.9,-70.09"/>
</a>
</g>
<text text-anchor="middle" x="438" y="-86.5" font-family="Helvetica,sans-Serif" font-size="10.00" fill="grey"> +Result</text>
</g>
</g>
</svg>

<g id="navigator" transform="translate(0 0)" fill="#404254">
  <rect fill="#f2f5e9" fill-opacity="0.5" stroke="#606060" stroke-width=".5" x="0" y="0" width="60" height="60"/>
  <use id="zoomplus" xlink:href="#zoomPlus" x="17" y="9" onmousedown="handleZoom(evt,'in')"/>
  <use id="zoomminus" xlink:href="#zoomMin" x="42" y="9" onmousedown="handleZoom(evt,'out')"/>
  <use id="reset" xlink:href="#resetDef" x="30" y="36" onmousedown="handleReset()"/>
   <use id="arrowup" xlink:href="#arrowUp" x="0" y="0" onmousedown="handlePan(0,-1)"/>
  <use id="arrowright" xlink:href="#arrowRight" x="0" y="0" onmousedown="handlePan(1,0)"/>
  <use id="arrowdown" xlink:href="#arrowDown" x="0" y="0" onmousedown="handlePan(0,1)"/>
  <use id="arrowleft" xlink:href="#arrowLeft" x="0" y="0" onmousedown="handlePan(-1,0)"/>
</g>
<svg viewBox="0 0 15 15" width="100%" height="30px" preserveAspectRatio="xMaxYMin meet">
 <g id="arrow_out" transform="scale(0.3 0.3)">
  <a xlink:href="structGuildmaster_1_1Presentation_1_1DamageDealtEvent__coll__graph_org.svg" target="_base">
   <rect id="button" ry="5" rx="5" y="6" x="6" height="38" width="38"
        fill="#f2f5e9" fill-opacity="0.5" stroke="#606060" stroke-width="1.0"/>
   <path id="arrow"
     d="M 11.500037,31.436501 C 11.940474,20.09759 22.043105,11.32322 32.158766,21.979434 L 37.068811,17.246167 C 37.068811,17.246167 37.088388,32 37.088388,32 L 22.160133,31.978069 C 22.160133,31.978069 26.997745,27.140456 26.997745,27.140456 C 18.528582,18.264221 13.291696,25.230495 11.500037,31.436501 z"
     style="fill:#404040;"/>
  </a>
 </g>
</svg>

<style type='text/css'>
<![CDATA[
[data-mouse-over-selected='false'] { opacity: 0.7; }
[data-mouse-over-selected='true']  { opacity: 1.0; }
]]>
</style>
<script type="application/ecmascript"><![CDATA[
document.addEventListener('DOMContentLoaded', (event) => {
  highlightEdges();
  highlightAdjacentNodes();
});
]]></script>
</svg>
