<?xml version="1.0" encoding="UTF-8" standalone="no"?>
<!DOCTYPE svg PUBLIC "-//W3C//DTD SVG 1.1//EN"
 "http://www.w3.org/Graphics/SVG/1.1/DTD/svg11.dtd">
<!-- Generated by graphviz version 2.43.0 (0)
 -->
<!-- Title: Guildmaster.Data.Stats.StatModifier Pages: 1 -->
<svg width="154pt" height="98pt"
 viewBox="0.00 0.00 154.00 98.00" xmlns="http://www.w3.org/2000/svg" xmlns:xlink="http://www.w3.org/1999/xlink">
<g id="graph0" class="graph" transform="scale(1 1) rotate(0) translate(4 94)">
<title>Guildmaster.Data.Stats.StatModifier</title>
<!-- Node1 -->
<g id="Node000001" class="node">
<title>Node1</title>
<g id="a_Node000001"><a xlink:title="Один стат&#45;модификатор: что меняем, как и на сколько.">
<polygon fill="#999999" stroke="transparent" points="146,-90 0,-90 0,0 146,0 146,-90"/>
<text text-anchor="start" x="5" y="-78" font-family="Helvetica,sans-Serif" font-size="10.00">Guildmaster.Data.Stats.Stat</text>
<text text-anchor="start" x="53" y="-67" font-family="Helvetica,sans-Serif" font-size="10.00">Modifier</text>
<text text-anchor="start" x="18.5" y="-52" font-family="Helvetica,sans-Serif" font-size="10.00">+</text>
<text text-anchor="start" x="46" y="-52" font-family="Helvetica,sans-Serif" font-size="10.00">Stat</text>
<text text-anchor="start" x="18.5" y="-37" font-family="Helvetica,sans-Serif" font-size="10.00">+</text>
<text text-anchor="start" x="46" y="-37" font-family="Helvetica,sans-Serif" font-size="10.00">Op</text>
<text text-anchor="start" x="18.5" y="-22" font-family="Helvetica,sans-Serif" font-size="10.00">+</text>
<text text-anchor="start" x="46" y="-22" font-family="Helvetica,sans-Serif" font-size="10.00">Value</text>
<text text-anchor="start" x="18.5" y="-7" font-family="Helvetica,sans-Serif" font-size="10.00">+</text>
<text text-anchor="start" x="46" y="-7" font-family="Helvetica,sans-Serif" font-size="10.00">StatModifier()</text>
<polygon fill="#666666" stroke="#666666" points="0,-62 0,-62 146,-62 146,-62 0,-62"/>
<polygon fill="#666666" stroke="#666666" points="0,-17 0,-17 44,-17 44,-17 0,-17"/>
<polygon fill="#666666" stroke="#666666" points="44,-17 44,-17 146,-17 146,-17 44,-17"/>
<polygon fill="none" stroke="#666666" points="0,0 0,-90 146,-90 146,0 0,0"/>
</a>
</g>
</g>
</g>
</svg>
