<?xml version="1.0" encoding="UTF-8" standalone="no"?>
<!DOCTYPE svg PUBLIC "-//W3C//DTD SVG 1.1//EN"
 "http://www.w3.org/Graphics/SVG/1.1/DTD/svg11.dtd">
<!-- Generated by graphviz version 2.43.0 (0)
 -->
<!-- Title: Guildmaster.Presentation.DamageDealtEvent Pages: 1 -->
<svg width="600pt" height="578pt"
 viewBox="0.00 0.00 600.00 578.00" xmlns="http://www.w3.org/2000/svg" xmlns:xlink="http://www.w3.org/1999/xlink">
<g id="graph0" class="graph" transform="scale(1 1) rotate(0) translate(4 574)">
<title>Guildmaster.Presentation.DamageDealtEvent</title>
<!-- Node1 -->
<g id="Node000001" class="node">
<title>Node1</title>
<g id="a_Node000001"><a xlink:title=" ">
<polygon fill="#999999" stroke="transparent" points="443,-60 306,-60 306,0 443,0 443,-60"/>
<text text-anchor="start" x="311.5" y="-48" font-family="Helvetica,sans-Serif" font-size="10.00">Guildmaster.Presentation.</text>
<text text-anchor="start" x="327" y="-37" font-family="Helvetica,sans-Serif" font-size="10.00">DamageDealtEvent</text>
<text text-anchor="start" x="373" y="-22" font-family="Helvetica,sans-Serif" font-size="10.00"> </text>
<text text-anchor="start" x="313.5" y="-7" font-family="Helvetica,sans-Serif" font-size="10.00">+</text>
<text text-anchor="start" x="329.5" y="-7" font-family="Helvetica,sans-Serif" font-size="10.00">DamageDealtEvent()</text>
<polygon fill="#666666" stroke="#666666" points="306.5,-32 306.5,-32 443.5,-32 443.5,-32 306.5,-32"/>
<polygon fill="#666666" stroke="#666666" points="306.5,-17 306.5,-17 443.5,-17 443.5,-17 306.5,-17"/>
<polygon fill="none" stroke="#666666" points="306,0 306,-60 443,-60 443,0 306,0"/>
</a>
</g>
</g>
<!-- Node2 -->
<g id="Node000002" class="node">
<title>Node2</title>
<g id="a_Node000002"><a xlink:href="classGuildmaster_1_1Combat_1_1RuntimeUnit.html" target="_top" xlink:title="Рантайм&#45;представление юнита на один бой.">
<polygon fill="white" stroke="transparent" points="322.5,-287 146.5,-287 146.5,-118 322.5,-118 322.5,-287"/>
<text text-anchor="start" x="151.5" y="-274.5" font-family="Helvetica,sans-Serif" font-size="10.00">Guildmaster.Combat.RuntimeUnit</text>
<text text-anchor="start" x="168.5" y="-259.5" font-family="Helvetica,sans-Serif" font-size="10.00">+</text>
<text text-anchor="start" x="199.5" y="-259.5" font-family="Helvetica,sans-Serif" font-size="10.00">Id</text>
<text text-anchor="start" x="168.5" y="-244.5" font-family="Helvetica,sans-Serif" font-size="10.00">+</text>
<text text-anchor="start" x="199.5" y="-244.5" font-family="Helvetica,sans-Serif" font-size="10.00">Team</text>
<text text-anchor="start" x="168.5" y="-229.5" font-family="Helvetica,sans-Serif" font-size="10.00">+</text>
<text text-anchor="start" x="199.5" y="-229.5" font-family="Helvetica,sans-Serif" font-size="10.00">CurrentHP</text>
<text text-anchor="start" x="168.5" y="-214.5" font-family="Helvetica,sans-Serif" font-size="10.00">+</text>
<text text-anchor="start" x="199.5" y="-214.5" font-family="Helvetica,sans-Serif" font-size="10.00">CurrentResource</text>
<text text-anchor="start" x="168.5" y="-199.5" font-family="Helvetica,sans-Serif" font-size="10.00">+</text>
<text text-anchor="start" x="199.5" y="-199.5" font-family="Helvetica,sans-Serif" font-size="10.00">CurrentShield</text>
<text text-anchor="start" x="168.5" y="-184.5" font-family="Helvetica,sans-Serif" font-size="10.00">+</text>
<text text-anchor="start" x="199.5" y="-184.5" font-family="Helvetica,sans-Serif" font-size="10.00">Position</text>
<text text-anchor="start" x="168.5" y="-169.5" font-family="Helvetica,sans-Serif" font-size="10.00">+</text>
<text text-anchor="start" x="199.5" y="-169.5" font-family="Helvetica,sans-Serif" font-size="10.00">PreviousPosition</text>
<text text-anchor="start" x="168.5" y="-154.5" font-family="Helvetica,sans-Serif" font-size="10.00">+</text>
<text text-anchor="start" x="199.5" y="-154.5" font-family="Helvetica,sans-Serif" font-size="10.00">AttackCooldown</text>
<text text-anchor="start" x="168.5" y="-139.5" font-family="Helvetica,sans-Serif" font-size="10.00">+</text>
<text text-anchor="start" x="199.5" y="-139.5" font-family="Helvetica,sans-Serif" font-size="10.00">IsDead</text>
<text text-anchor="start" x="232.5" y="-124.5" font-family="Helvetica,sans-Serif" font-size="10.00"> </text>
<polygon fill="#666666" stroke="#666666" points="146.5,-269.5 146.5,-269.5 322.5,-269.5 322.5,-269.5 146.5,-269.5"/>
<polygon fill="#666666" stroke="#666666" points="146.5,-134.5 146.5,-134.5 197.5,-134.5 197.5,-134.5 146.5,-134.5"/>
<polygon fill="#666666" stroke="#666666" points="197.5,-134.5 197.5,-134.5 322.5,-134.5 322.5,-134.5 197.5,-134.5"/>
<polygon fill="none" stroke="#666666" points="146.5,-118 146.5,-287 322.5,-287 322.5,-118 146.5,-118"/>
</a>
</g>
</g>
<!-- Node2&#45;&gt;Node1 -->
<g id="edge1_Node000001_Node000002" class="edge">
<title>Node2&#45;&gt;Node1</title>
<g id="a_edge1_Node000001_Node000002"><a xlink:title=" ">
<path fill="none" stroke="#63b8ff" d="M303.27,-117.75C317.09,-100.92 330.98,-84.01 342.77,-69.64"/>
<polygon fill="none" stroke="#63b8ff" points="342.96,-69.41 343.67,-62.24 350.57,-60.14 349.86,-67.31 342.96,-69.41"/>
</a>
</g>
<text text-anchor="middle" x="356" y="-92" font-family="Helvetica,sans-Serif" font-size="10.00" fill="grey"> +Source</text>
<text text-anchor="middle" x="356" y="-81" font-family="Helvetica,sans-Serif" font-size="10.00" fill="grey">+Target</text>
</g>
<!-- Node2&#45;&gt;Node2 -->
<g id="edge4_Node000002_Node000002" class="edge">
<title>Node2&#45;&gt;Node2</title>
<g id="a_edge4_Node000002_Node000002"><a xlink:title=" ">
<path fill="none" stroke="#63b8ff" d="M322.63,-220.02C333.43,-216.88 340.5,-211.04 340.5,-202.5 340.5,-197.43 338.01,-193.31 333.72,-190.14"/>
<polygon fill="none" stroke="#63b8ff" points="333.51,-190.04 326.38,-191.14 322.63,-184.98 329.76,-183.89 333.51,-190.04"/>
</a>
</g>
<text text-anchor="middle" x="379.5" y="-200" font-family="Helvetica,sans-Serif" font-size="10.00" fill="grey"> +CurrentTarget</text>
</g>
<!-- Node3 -->
<g id="Node000003" class="node">
<title>Node3</title>
<g id="a_Node000003"><a xlink:href="classGuildmaster_1_1Combat_1_1Stats.html" target="_top" xlink:title="Рантайм стат&#45;объект юнита.">
<polygon fill="white" stroke="transparent" points="139,-456 0,-456 0,-362 139,-362 139,-456"/>
<text text-anchor="start" x="5.5" y="-444" font-family="Helvetica,sans-Serif" font-size="10.00">Guildmaster.Combat.Stats</text>
<text text-anchor="start" x="68" y="-429" font-family="Helvetica,sans-Serif" font-size="10.00"> </text>
<text text-anchor="start" x="4.5" y="-414" font-family="Helvetica,sans-Serif" font-size="10.00">+</text>
<text text-anchor="start" x="17.5" y="-414" font-family="Helvetica,sans-Serif" font-size="10.00">Stats()</text>
<text text-anchor="start" x="4.5" y="-399" font-family="Helvetica,sans-Serif" font-size="10.00">+</text>
<text text-anchor="start" x="17.5" y="-399" font-family="Helvetica,sans-Serif" font-size="10.00">Get()</text>
<text text-anchor="start" x="4.5" y="-384" font-family="Helvetica,sans-Serif" font-size="10.00">+</text>
<text text-anchor="start" x="17.5" y="-384" font-family="Helvetica,sans-Serif" font-size="10.00">AddModifiersFrom()</text>
<text text-anchor="start" x="4.5" y="-369" font-family="Helvetica,sans-Serif" font-size="10.00">+</text>
<text text-anchor="start" x="17.5" y="-369" font-family="Helvetica,sans-Serif" font-size="10.00">RemoveModifiersFrom()</text>
<polygon fill="#666666" stroke="#666666" points="0.5,-439 0.5,-439 139.5,-439 139.5,-439 0.5,-439"/>
<polygon fill="#666666" stroke="#666666" points="0.5,-424 0.5,-424 139.5,-424 139.5,-424 0.5,-424"/>
<polygon fill="none" stroke="#666666" points="0,-362 0,-456 139,-456 139,-362 0,-362"/>
</a>
</g>
</g>
<!-- Node3&#45;&gt;Node2 -->
<g id="edge2_Node000002_Node000003" class="edge">
<title>Node3&#45;&gt;Node2</title>
<g id="a_edge2_Node000002_Node000003"><a xlink:title=" ">
<path fill="none" stroke="#63b8ff" d="M106.73,-361.85C122.29,-342.58 140.95,-319.45 159.14,-296.9"/>
<polygon fill="none" stroke="#63b8ff" points="159.37,-296.62 160.02,-289.44 166.9,-287.28 166.25,-294.46 159.37,-296.62"/>
</a>
</g>
<text text-anchor="middle" x="171" y="-308" font-family="Helvetica,sans-Serif" font-size="10.00" fill="grey"> +Stats</text>
</g>
<!-- Node4 -->
<g id="Node000004" class="node">
<title>Node4</title>
<g id="a_Node000004"><a xlink:href="interfaceGuildmaster_1_1Data_1_1Stats_1_1IStatReader.html" target="_top" xlink:title="Только&#45;чтение собранных статов.">
<polygon fill="white" stroke="transparent" points="103.5,-570 35.5,-570 35.5,-521 103.5,-521 103.5,-570"/>
<text text-anchor="start" x="40.5" y="-557.5" font-family="Helvetica,sans-Serif" font-size="10.00">IStatReader</text>
<text text-anchor="start" x="67.5" y="-542.5" font-family="Helvetica,sans-Serif" font-size="10.00"> </text>
<text text-anchor="start" x="45" y="-527.5" font-family="Helvetica,sans-Serif" font-size="10.00">+</text>
<text text-anchor="start" x="63.5" y="-527.5" font-family="Helvetica,sans-Serif" font-size="10.00">Get()</text>
<polygon fill="#666666" stroke="#666666" points="35.5,-552.5 35.5,-552.5 103.5,-552.5 103.5,-552.5 35.5,-552.5"/>
<polygon fill="#666666" stroke="#666666" points="35.5,-537.5 35.5,-537.5 103.5,-537.5 103.5,-537.5 35.5,-537.5"/>
<polygon fill="none" stroke="#666666" points="35.5,-521 35.5,-570 103.5,-570 103.5,-521 35.5,-521"/>
</a>
</g>
</g>
<!-- Node4&#45;&gt;Node3 -->
<g id="edge3_Node000003_Node000004" class="edge">
<title>Node4&#45;&gt;Node3</title>
<g id="a_edge3_Node000003_Node000004"><a xlink:title=" ">
<path fill="none" stroke="#63b8ff" d="M69.5,-510.49C69.5,-493.99 69.5,-473.92 69.5,-456.07"/>
<polygon fill="none" stroke="#63b8ff" points="66,-510.76 69.5,-520.76 73,-510.76 66,-510.76"/>
</a>
</g>
</g>
<!-- Node5 -->
<g id="Node000005" class="node">
<title>Node5</title>
<g id="a_Node000005"><a xlink:href="classGuildmaster_1_1Data_1_1Definitions_1_1RelicData.html" target="_top" xlink:title="«Чемпион» — стат&#45;блок и боевые категории юнита.">
<polygon fill="white" stroke="transparent" points="312,-484 157,-484 157,-334 312,-334 312,-484"/>
<text text-anchor="start" x="162.5" y="-472" font-family="Helvetica,sans-Serif" font-size="10.00">Guildmaster.Data.Definitions.</text>
<text text-anchor="start" x="211" y="-461" font-family="Helvetica,sans-Serif" font-size="10.00">RelicData</text>
<text text-anchor="start" x="173.5" y="-446" font-family="Helvetica,sans-Serif" font-size="10.00">+</text>
<text text-anchor="start" x="198.5" y="-446" font-family="Helvetica,sans-Serif" font-size="10.00">DisplayNameKey</text>
<text text-anchor="start" x="173.5" y="-431" font-family="Helvetica,sans-Serif" font-size="10.00">+</text>
<text text-anchor="start" x="198.5" y="-431" font-family="Helvetica,sans-Serif" font-size="10.00">Tags</text>
<text text-anchor="start" x="173.5" y="-416" font-family="Helvetica,sans-Serif" font-size="10.00">+</text>
<text text-anchor="start" x="198.5" y="-416" font-family="Helvetica,sans-Serif" font-size="10.00">DamageType</text>
<text text-anchor="start" x="173.5" y="-401" font-family="Helvetica,sans-Serif" font-size="10.00">+</text>
<text text-anchor="start" x="198.5" y="-401" font-family="Helvetica,sans-Serif" font-size="10.00">AttackType</text>
<text text-anchor="start" x="173.5" y="-386" font-family="Helvetica,sans-Serif" font-size="10.00">+</text>
<text text-anchor="start" x="198.5" y="-386" font-family="Helvetica,sans-Serif" font-size="10.00">ResourceType</text>
<text text-anchor="start" x="173.5" y="-371" font-family="Helvetica,sans-Serif" font-size="10.00">+</text>
<text text-anchor="start" x="198.5" y="-371" font-family="Helvetica,sans-Serif" font-size="10.00">Stats</text>
<text text-anchor="start" x="173.5" y="-356" font-family="Helvetica,sans-Serif" font-size="10.00">+</text>
<text text-anchor="start" x="198.5" y="-356" font-family="Helvetica,sans-Serif" font-size="10.00">GrantedEffects</text>
<text text-anchor="start" x="233" y="-341" font-family="Helvetica,sans-Serif" font-size="10.00"> </text>
<polygon fill="#666666" stroke="#666666" points="157.5,-456 157.5,-456 312.5,-456 312.5,-456 157.5,-456"/>
<polygon fill="#666666" stroke="#666666" points="157.5,-351 157.5,-351 196.5,-351 196.5,-351 157.5,-351"/>
<polygon fill="#666666" stroke="#666666" points="196.5,-351 196.5,-351 312.5,-351 312.5,-351 196.5,-351"/>
<polygon fill="none" stroke="#666666" points="157,-334 157,-484 312,-484 312,-334 157,-334"/>
</a>
</g>
</g>
<!-- Node5&#45;&gt;Node2 -->
<g id="edge5_Node000002_Node000005" class="edge">
<title>Node5&#45;&gt;Node2</title>
<g id="a_edge5_Node000002_Node000005"><a xlink:title=" ">
<path fill="none" stroke="#63b8ff" d="M234.5,-333.88C234.5,-322.6 234.5,-310.82 234.5,-299.16"/>
<polygon fill="none" stroke="#63b8ff" points="234.5,-299.07 230.5,-293.07 234.5,-287.07 238.5,-293.07 234.5,-299.07"/>
</a>
</g>
<text text-anchor="middle" x="252.5" y="-308" font-family="Helvetica,sans-Serif" font-size="10.00" fill="grey"> +Relic</text>
</g>
<!-- Node6 -->
<g id="Node000006" class="node">
<title>Node6</title>
<g id="a_Node000006"><a xlink:title=" ">
<polygon fill="white" stroke="transparent" points="367,-570 276,-570 276,-521 367,-521 367,-570"/>
<text text-anchor="start" x="281.5" y="-557.5" font-family="Helvetica,sans-Serif" font-size="10.00">ScriptableObject</text>
<text text-anchor="start" x="320" y="-542.5" font-family="Helvetica,sans-Serif" font-size="10.00"> </text>
<text text-anchor="start" x="320" y="-527.5" font-family="Helvetica,sans-Serif" font-size="10.00"> </text>
<polygon fill="#666666" stroke="#666666" points="276.5,-552.5 276.5,-552.5 367.5,-552.5 367.5,-552.5 276.5,-552.5"/>
<polygon fill="#666666" stroke="#666666" points="276.5,-537.5 276.5,-537.5 367.5,-537.5 367.5,-537.5 276.5,-537.5"/>
<polygon fill="none" stroke="#666666" points="276,-521 276,-570 367,-570 367,-521 276,-521"/>
</a>
</g>
</g>
<!-- Node6&#45;&gt;Node5 -->
<g id="edge6_Node000005_Node000006" class="edge">
<title>Node6&#45;&gt;Node5</title>
<g id="a_edge6_Node000005_Node000006"><a xlink:title=" ">
<path fill="none" stroke="#63b8ff" d="M300.61,-512.2C295.03,-503.58 288.77,-493.89 282.38,-484.01"/>
<polygon fill="none" stroke="#63b8ff" points="297.78,-514.27 306.15,-520.76 303.65,-510.47 297.78,-514.27"/>
</a>
</g>
</g>
<!-- Node7 -->
<g id="Node000007" class="node">
<title>Node7</title>
<g id="a_Node000007"><a xlink:href="classGuildmaster_1_1Data_1_1Definitions_1_1VesselData.html" target="_top" xlink:title="«Пилот» — носитель реликвии.">
<polygon fill="white" stroke="transparent" points="485,-454 330,-454 330,-364 485,-364 485,-454"/>
<text text-anchor="start" x="335.5" y="-442" font-family="Helvetica,sans-Serif" font-size="10.00">Guildmaster.Data.Definitions.</text>
<text text-anchor="start" x="380.5" y="-431" font-family="Helvetica,sans-Serif" font-size="10.00">VesselData</text>
<text text-anchor="start" x="346.5" y="-416" font-family="Helvetica,sans-Serif" font-size="10.00">+</text>
<text text-anchor="start" x="371.5" y="-416" font-family="Helvetica,sans-Serif" font-size="10.00">DisplayNameKey</text>
<text text-anchor="start" x="346.5" y="-401" font-family="Helvetica,sans-Serif" font-size="10.00">+</text>
<text text-anchor="start" x="371.5" y="-401" font-family="Helvetica,sans-Serif" font-size="10.00">Tags</text>
<text text-anchor="start" x="346.5" y="-386" font-family="Helvetica,sans-Serif" font-size="10.00">+</text>
<text text-anchor="start" x="371.5" y="-386" font-family="Helvetica,sans-Serif" font-size="10.00">TalentModifiers</text>
<text text-anchor="start" x="406" y="-371" font-family="Helvetica,sans-Serif" font-size="10.00"> </text>
<polygon fill="#666666" stroke="#666666" points="330.5,-426 330.5,-426 485.5,-426 485.5,-426 330.5,-426"/>
<polygon fill="#666666" stroke="#666666" points="330.5,-381 330.5,-381 369.5,-381 369.5,-381 330.5,-381"/>
<polygon fill="#666666" stroke="#666666" points="369.5,-381 369.5,-381 485.5,-381 485.5,-381 369.5,-381"/>
<polygon fill="none" stroke="#666666" points="330,-364 330,-454 485,-454 485,-364 330,-364"/>
</a>
</g>
</g>
<!-- Node6&#45;&gt;Node7 -->
<g id="edge8_Node000007_Node000006" class="edge">
<title>Node6&#45;&gt;Node7</title>
<g id="a_edge8_Node000007_Node000006"><a xlink:title=" ">
<path fill="none" stroke="#63b8ff" d="M342.21,-512.1C353.33,-494.72 367.19,-473.05 379.27,-454.15"/>
<polygon fill="none" stroke="#63b8ff" points="339.12,-510.45 336.68,-520.76 345.01,-514.22 339.12,-510.45"/>
</a>
</g>
</g>
<!-- Node7&#45;&gt;Node2 -->
<g id="edge7_Node000002_Node000007" class="edge">
<title>Node7&#45;&gt;Node2</title>
<g id="a_edge7_Node000002_Node000007"><a xlink:title=" ">
<path fill="none" stroke="#63b8ff" d="M370.17,-363.88C353.43,-344.08 332.99,-319.93 313.12,-296.44"/>
<polygon fill="none" stroke="#63b8ff" points="313,-296.29 306.07,-294.29 305.25,-287.13 312.18,-289.13 313,-296.29"/>
</a>
</g>
<text text-anchor="middle" x="348" y="-308" font-family="Helvetica,sans-Serif" font-size="10.00" fill="grey"> +Vessel</text>
</g>
<!-- Node8 -->
<g id="Node000008" class="node">
<title>Node8</title>
<g id="a_Node000008"><a xlink:href="structGuildmaster_1_1Combat_1_1DamageResult.html" target="_top" xlink:title="Результат пайплайна урона после применения к цели.">
<polygon fill="white" stroke="transparent" points="592,-255 437,-255 437,-150 592,-150 592,-255"/>
<text text-anchor="start" x="442.5" y="-242.5" font-family="Helvetica,sans-Serif" font-size="10.00">Guildmaster.Combat.Damage</text>
<text text-anchor="start" x="499.5" y="-231.5" font-family="Helvetica,sans-Serif" font-size="10.00">Result</text>
<text text-anchor="start" x="455" y="-216.5" font-family="Helvetica,sans-Serif" font-size="10.00">+</text>
<text text-anchor="start" x="481.5" y="-216.5" font-family="Helvetica,sans-Serif" font-size="10.00">HpDamage</text>
<text text-anchor="start" x="455" y="-201.5" font-family="Helvetica,sans-Serif" font-size="10.00">+</text>
<text text-anchor="start" x="481.5" y="-201.5" font-family="Helvetica,sans-Serif" font-size="10.00">ShieldDamage</text>
<text text-anchor="start" x="455" y="-186.5" font-family="Helvetica,sans-Serif" font-size="10.00">+</text>
<text text-anchor="start" x="481.5" y="-186.5" font-family="Helvetica,sans-Serif" font-size="10.00">KilledTarget</text>
<text text-anchor="start" x="455" y="-171.5" font-family="Helvetica,sans-Serif" font-size="10.00">+</text>
<text text-anchor="start" x="481.5" y="-171.5" font-family="Helvetica,sans-Serif" font-size="10.00">TotalDamage</text>
<text text-anchor="start" x="455" y="-156.5" font-family="Helvetica,sans-Serif" font-size="10.00">+</text>
<text text-anchor="start" x="481.5" y="-156.5" font-family="Helvetica,sans-Serif" font-size="10.00">DamageResult()</text>
<polygon fill="#666666" stroke="#666666" points="437.5,-226.5 437.5,-226.5 592.5,-226.5 592.5,-226.5 437.5,-226.5"/>
<polygon fill="#666666" stroke="#666666" points="437.5,-166.5 437.5,-166.5 479.5,-166.5 479.5,-166.5 437.5,-166.5"/>
<polygon fill="#666666" stroke="#666666" points="479.5,-166.5 479.5,-166.5 592.5,-166.5 592.5,-166.5 479.5,-166.5"/>
<polygon fill="none" stroke="#666666" points="437,-150 437,-255 592,-255 592,-150 437,-150"/>
</a>
</g>
</g>
<!-- Node8&#45;&gt;Node1 -->
<g id="edge9_Node000001_Node000008" class="edge">
<title>Node8&#45;&gt;Node1</title>
<g id="a_edge9_Node000001_Node000008"><a xlink:title=" ">
<path fill="none" stroke="#63b8ff" d="M472.12,-149.88C450.9,-124.04 425.64,-93.28 406.14,-69.53"/>
<polygon fill="none" stroke="#63b8ff" points="406.05,-69.42 399.15,-67.32 398.43,-60.14 405.33,-62.24 406.05,-69.42"/>
</a>
</g>
<text text-anchor="middle" x="450" y="-86.5" font-family="Helvetica,sans-Serif" font-size="10.00" fill="grey"> +Result</text>
</g>
</g>
</svg>
