<?xml version="1.0" encoding="UTF-8" standalone="no"?>
<!DOCTYPE svg PUBLIC "-//W3C//DTD SVG 1.1//EN"
 "http://www.w3.org/Graphics/SVG/1.1/DTD/svg11.dtd">
<!-- Generated by graphviz version 2.43.0 (0)
 -->
<!-- Title: Guildmaster.Presentation.UnitSpawnedEvent Pages: 1 -->
<!--zoomable 672 -->

<svg id="main" version="1.1" xmlns="http://www.w3.org/2000/svg" xmlns:xlink="http://www.w3.org/1999/xlink" xml:space="preserve" onload="init(evt)">
<style type="text/css"><![CDATA[
.node, .edge {opacity: 0.7;}
.node.selected, .edge.selected {opacity: 1;}
.edge:hover path { stroke: red; }
.edge:hover polygon { stroke: red; fill: red; }
]]></style>

<defs>
  <circle id="rim" cx="0" cy="0" r="7"/>
  <circle id="rim2" cx="0" cy="0" r="3.5"/>
  <g id="zoomPlus">
    <use xlink:href="#rim" fill="#404040"><set attributeName="fill" to="#808080" begin="zoomplus.mouseover" end="zoomplus.mouseout"/></use>
    <path d="M-4,0h8M0,-4v8" fill="none" stroke="white" stroke-width="1.5" pointer-events="none"/>
  </g>
  <g id="zoomMin">
    <use xlink:href="#rim" fill="#404040"><set attributeName="fill" to="#808080" begin="zoomminus.mouseover" end="zoomminus.mouseout"/></use>
    <path d="M-4,0h8" fill="none" stroke="white" stroke-width="1.5" pointer-events="none"/>
  </g>
  <g id="arrowUp" transform="translate(30 24)">
    <use xlink:href="#rim"/>
    <path pointer-events="none" fill="none" stroke="white" stroke-width="1.5" d="M0,-3.0v7 M-2.5,-0.5L0,-3.0L2.5,-0.5"/>
  </g>
  <g id="arrowRight" transform="rotate(90) translate(36 -43)">
    <use xlink:href="#rim"/>
    <path pointer-events="none" fill="none" stroke="white" stroke-width="1.5" d="M0,-3.0v7 M-2.5,-0.5L0,-3.0L2.5,-0.5"/>
  </g>
  <g id="arrowDown" transform="rotate(180) translate(-30 -48)">
    <use xlink:href="#rim"/>
    <path pointer-events="none" fill="none" stroke="white" stroke-width="1.5" d="M0,-3.0v7 M-2.5,-0.5L0,-3.0L2.5,-0.5"/>
  </g>
  <g id="arrowLeft" transform="rotate(270) translate(-36 17)">
    <use xlink:href="#rim"/>
    <path pointer-events="none" fill="none" stroke="white" stroke-width="1.5" d="M0,-3.0v7 M-2.5,-0.5L0,-3.0L2.5,-0.5"/>
  </g>
  <g id="resetDef">
    <use xlink:href="#rim2" fill="#404040"><set attributeName="fill" to="#808080" begin="reset.mouseover" end="reset.mouseout"/></use>
  </g>
</defs>
<script type="application/ecmascript">
var viewWidth = 493;
var viewHeight = 672;
var sectionId = 'dynsection-0';
</script>
<script type="application/ecmascript" xlink:href="svg.min.js"/>
<svg id="graph" class="graph">
<g id="viewport">
<title>Guildmaster.Presentation.UnitSpawnedEvent</title>
<!-- Node1 -->
<g id="Node000001" class="node">
<title>Node1</title>
<g id="a_Node000001"><a xlink:title="MessagePipe&#45;сообщения от симуляции к слою презентации.">
<polygon fill="#999999" stroke="transparent" points="303,-60 166,-60 166,0 303,0 303,-60"/>
<text text-anchor="start" x="171.5" y="-48" font-family="Helvetica,sans-Serif" font-size="10.00">Guildmaster.Presentation.</text>
<text text-anchor="start" x="188.5" y="-37" font-family="Helvetica,sans-Serif" font-size="10.00">UnitSpawnedEvent</text>
<text text-anchor="start" x="233" y="-22" font-family="Helvetica,sans-Serif" font-size="10.00"> </text>
<text text-anchor="start" x="174.5" y="-7" font-family="Helvetica,sans-Serif" font-size="10.00">+</text>
<text text-anchor="start" x="191.5" y="-7" font-family="Helvetica,sans-Serif" font-size="10.00">UnitSpawnedEvent()</text>
<polygon fill="#666666" stroke="#666666" points="166.5,-32 166.5,-32 303.5,-32 303.5,-32 166.5,-32"/>
<polygon fill="#666666" stroke="#666666" points="166.5,-17 166.5,-17 303.5,-17 303.5,-17 166.5,-17"/>
<polygon fill="none" stroke="#666666" points="166,0 166,-60 303,-60 303,0 166,0"/>
</a>
</g>
</g>
<!-- Node2 -->
<g id="Node000002" class="node">
<title>Node2</title>
<g id="a_Node000002"><a xlink:href="classGuildmaster_1_1Combat_1_1RuntimeUnit.html" target="_top" xlink:title="Рантайм&#45;представление юнита на один бой.">
<polygon fill="white" stroke="transparent" points="322.5,-366 146.5,-366 146.5,-107 322.5,-107 322.5,-366"/>
<text text-anchor="start" x="151.5" y="-353.5" font-family="Helvetica,sans-Serif" font-size="10.00">Guildmaster.Combat.RuntimeUnit</text>
<text text-anchor="start" x="168.5" y="-338.5" font-family="Helvetica,sans-Serif" font-size="10.00">+</text>
<text text-anchor="start" x="199.5" y="-338.5" font-family="Helvetica,sans-Serif" font-size="10.00">Id</text>
<text text-anchor="start" x="168.5" y="-323.5" font-family="Helvetica,sans-Serif" font-size="10.00">+</text>
<text text-anchor="start" x="199.5" y="-323.5" font-family="Helvetica,sans-Serif" font-size="10.00">Team</text>
<text text-anchor="start" x="168.5" y="-308.5" font-family="Helvetica,sans-Serif" font-size="10.00">+</text>
<text text-anchor="start" x="199.5" y="-308.5" font-family="Helvetica,sans-Serif" font-size="10.00">CurrentHP</text>
<text text-anchor="start" x="168.5" y="-293.5" font-family="Helvetica,sans-Serif" font-size="10.00">+</text>
<text text-anchor="start" x="199.5" y="-293.5" font-family="Helvetica,sans-Serif" font-size="10.00">CurrentResource</text>
<text text-anchor="start" x="168.5" y="-278.5" font-family="Helvetica,sans-Serif" font-size="10.00">+</text>
<text text-anchor="start" x="199.5" y="-278.5" font-family="Helvetica,sans-Serif" font-size="10.00">CurrentShield</text>
<text text-anchor="start" x="168.5" y="-263.5" font-family="Helvetica,sans-Serif" font-size="10.00">+</text>
<text text-anchor="start" x="199.5" y="-263.5" font-family="Helvetica,sans-Serif" font-size="10.00">Position</text>
<text text-anchor="start" x="168.5" y="-248.5" font-family="Helvetica,sans-Serif" font-size="10.00">+</text>
<text text-anchor="start" x="199.5" y="-248.5" font-family="Helvetica,sans-Serif" font-size="10.00">PreviousPosition</text>
<text text-anchor="start" x="168.5" y="-233.5" font-family="Helvetica,sans-Serif" font-size="10.00">+</text>
<text text-anchor="start" x="199.5" y="-233.5" font-family="Helvetica,sans-Serif" font-size="10.00">AttackCooldown</text>
<text text-anchor="start" x="168.5" y="-218.5" font-family="Helvetica,sans-Serif" font-size="10.00">+</text>
<text text-anchor="start" x="199.5" y="-218.5" font-family="Helvetica,sans-Serif" font-size="10.00">IsDead</text>
<text text-anchor="start" x="168.5" y="-203.5" font-family="Helvetica,sans-Serif" font-size="10.00">+</text>
<text text-anchor="start" x="199.5" y="-203.5" font-family="Helvetica,sans-Serif" font-size="10.00">ActiveEffects</text>
<text text-anchor="start" x="168.5" y="-188.5" font-family="Helvetica,sans-Serif" font-size="10.00">+</text>
<text text-anchor="start" x="199.5" y="-188.5" font-family="Helvetica,sans-Serif" font-size="10.00">EffectTagMask</text>
<text text-anchor="start" x="168.5" y="-173.5" font-family="Helvetica,sans-Serif" font-size="10.00">+</text>
<text text-anchor="start" x="199.5" y="-173.5" font-family="Helvetica,sans-Serif" font-size="10.00">Abilities</text>
<text text-anchor="start" x="168.5" y="-158.5" font-family="Helvetica,sans-Serif" font-size="10.00">+</text>
<text text-anchor="start" x="199.5" y="-158.5" font-family="Helvetica,sans-Serif" font-size="10.00">CanAct</text>
<text text-anchor="start" x="168.5" y="-143.5" font-family="Helvetica,sans-Serif" font-size="10.00">+</text>
<text text-anchor="start" x="199.5" y="-143.5" font-family="Helvetica,sans-Serif" font-size="10.00">CanMove</text>
<text text-anchor="start" x="168.5" y="-128.5" font-family="Helvetica,sans-Serif" font-size="10.00">+</text>
<text text-anchor="start" x="199.5" y="-128.5" font-family="Helvetica,sans-Serif" font-size="10.00">CanCast</text>
<text text-anchor="start" x="232.5" y="-113.5" font-family="Helvetica,sans-Serif" font-size="10.00"> </text>
<polygon fill="#666666" stroke="#666666" points="146.5,-348.5 146.5,-348.5 322.5,-348.5 322.5,-348.5 146.5,-348.5"/>
<polygon fill="#666666" stroke="#666666" points="146.5,-123.5 146.5,-123.5 197.5,-123.5 197.5,-123.5 146.5,-123.5"/>
<polygon fill="#666666" stroke="#666666" points="197.5,-123.5 197.5,-123.5 322.5,-123.5 322.5,-123.5 197.5,-123.5"/>
<polygon fill="none" stroke="#666666" points="146.5,-107 146.5,-366 322.5,-366 322.5,-107 146.5,-107"/>
</a>
</g>
</g>
<!-- Node2&#45;&gt;Node1 -->
<g id="edge1_Node000001_Node000002" class="edge">
<title>Node2&#45;&gt;Node1</title>
<g id="a_edge1_Node000001_Node000002"><a xlink:title=" ">
<path fill="none" stroke="#63b8ff" d="M234.5,-106.86C234.5,-94.46 234.5,-82.61 234.5,-72.13"/>
<polygon fill="none" stroke="#63b8ff" points="234.5,-72.06 230.5,-66.06 234.5,-60.06 238.5,-66.06 234.5,-72.06"/>
</a>
</g>
<text text-anchor="middle" x="250.5" y="-81" font-family="Helvetica,sans-Serif" font-size="10.00" fill="grey"> +Unit</text>
</g>
<!-- Node2&#45;&gt;Node2 -->
<g id="edge4_Node000002_Node000002" class="edge">
<title>Node2&#45;&gt;Node2</title>
<g id="a_edge4_Node000002_Node000002"><a xlink:title=" ">
<path fill="none" stroke="#63b8ff" d="M322.63,-261.16C333.43,-256.74 340.5,-248.52 340.5,-236.5 340.5,-228.99 337.74,-222.96 333.03,-218.41"/>
<polygon fill="none" stroke="#63b8ff" points="332.78,-218.25 325.57,-218.43 322.63,-211.84 329.84,-211.67 332.78,-218.25"/>
</a>
</g>
<text text-anchor="middle" x="379.5" y="-234" font-family="Helvetica,sans-Serif" font-size="10.00" fill="grey"> +CurrentTarget</text>
</g>
<!-- Node3 -->
<g id="Node000003" class="node">
<title>Node3</title>
<g id="a_Node000003"><a xlink:href="classGuildmaster_1_1Combat_1_1Stats.html" target="_top" xlink:title="Рантайм стат&#45;объект юнита.">
<polygon fill="white" stroke="transparent" points="139,-542.5 0,-542.5 0,-448.5 139,-448.5 139,-542.5"/>
<text text-anchor="start" x="5.5" y="-530.5" font-family="Helvetica,sans-Serif" font-size="10.00">Guildmaster.Combat.Stats</text>
<text text-anchor="start" x="68" y="-515.5" font-family="Helvetica,sans-Serif" font-size="10.00"> </text>
<text text-anchor="start" x="4.5" y="-500.5" font-family="Helvetica,sans-Serif" font-size="10.00">+</text>
<text text-anchor="start" x="17.5" y="-500.5" font-family="Helvetica,sans-Serif" font-size="10.00">Stats()</text>
<text text-anchor="start" x="4.5" y="-485.5" font-family="Helvetica,sans-Serif" font-size="10.00">+</text>
<text text-anchor="start" x="17.5" y="-485.5" font-family="Helvetica,sans-Serif" font-size="10.00">Get()</text>
<text text-anchor="start" x="4.5" y="-470.5" font-family="Helvetica,sans-Serif" font-size="10.00">+</text>
<text text-anchor="start" x="17.5" y="-470.5" font-family="Helvetica,sans-Serif" font-size="10.00">AddModifiersFrom()</text>
<text text-anchor="start" x="4.5" y="-455.5" font-family="Helvetica,sans-Serif" font-size="10.00">+</text>
<text text-anchor="start" x="17.5" y="-455.5" font-family="Helvetica,sans-Serif" font-size="10.00">RemoveModifiersFrom()</text>
<polygon fill="#666666" stroke="#666666" points="0.5,-525.5 0.5,-525.5 139.5,-525.5 139.5,-525.5 0.5,-525.5"/>
<polygon fill="#666666" stroke="#666666" points="0.5,-510.5 0.5,-510.5 139.5,-510.5 139.5,-510.5 0.5,-510.5"/>
<polygon fill="none" stroke="#666666" points="0,-448.5 0,-542.5 139,-542.5 139,-448.5 0,-448.5"/>
</a>
</g>
</g>
<!-- Node3&#45;&gt;Node2 -->
<g id="edge2_Node000002_Node000003" class="edge">
<title>Node3&#45;&gt;Node2</title>
<g id="a_edge2_Node000002_Node000003"><a xlink:title=" ">
<path fill="none" stroke="#63b8ff" d="M99.19,-448.26C112.38,-427.72 128.67,-402.34 145.33,-376.39"/>
<polygon fill="none" stroke="#63b8ff" points="145.49,-376.14 145.37,-368.93 151.97,-366.04 152.1,-373.25 145.49,-376.14"/>
</a>
</g>
<text text-anchor="middle" x="156" y="-387" font-family="Helvetica,sans-Serif" font-size="10.00" fill="grey"> +Stats</text>
</g>
<!-- Node4 -->
<g id="Node000004" class="node">
<title>Node4</title>
<g id="a_Node000004"><a xlink:href="interfaceGuildmaster_1_1Data_1_1Stats_1_1IStatReader.html" target="_top" xlink:title="Только&#45;чтение собранных статов.">
<polygon fill="white" stroke="transparent" points="103.5,-664 35.5,-664 35.5,-615 103.5,-615 103.5,-664"/>
<text text-anchor="start" x="40.5" y="-651.5" font-family="Helvetica,sans-Serif" font-size="10.00">IStatReader</text>
<text text-anchor="start" x="67.5" y="-636.5" font-family="Helvetica,sans-Serif" font-size="10.00"> </text>
<text text-anchor="start" x="45" y="-621.5" font-family="Helvetica,sans-Serif" font-size="10.00">+</text>
<text text-anchor="start" x="63.5" y="-621.5" font-family="Helvetica,sans-Serif" font-size="10.00">Get()</text>
<polygon fill="#666666" stroke="#666666" points="35.5,-646.5 35.5,-646.5 103.5,-646.5 103.5,-646.5 35.5,-646.5"/>
<polygon fill="#666666" stroke="#666666" points="35.5,-631.5 35.5,-631.5 103.5,-631.5 103.5,-631.5 35.5,-631.5"/>
<polygon fill="none" stroke="#666666" points="35.5,-615 35.5,-664 103.5,-664 103.5,-615 35.5,-615"/>
</a>
</g>
</g>
<!-- Node4&#45;&gt;Node3 -->
<g id="edge3_Node000003_Node000004" class="edge">
<title>Node4&#45;&gt;Node3</title>
<g id="a_edge3_Node000003_Node000004"><a xlink:title=" ">
<path fill="none" stroke="#63b8ff" d="M69.5,-604.7C69.5,-586.18 69.5,-562.95 69.5,-542.77"/>
<polygon fill="none" stroke="#63b8ff" points="66,-604.73 69.5,-614.73 73,-604.73 66,-604.73"/>
</a>
</g>
</g>
<!-- Node5 -->
<g id="Node000005" class="node">
<title>Node5</title>
<g id="a_Node000005"><a xlink:href="classGuildmaster_1_1Data_1_1Definitions_1_1RelicData.html" target="_top" xlink:title="«Чемпион» — стат&#45;блок и боевые категории юнита.">
<polygon fill="white" stroke="transparent" points="312,-578 157,-578 157,-413 312,-413 312,-578"/>
<text text-anchor="start" x="162.5" y="-565.5" font-family="Helvetica,sans-Serif" font-size="10.00">Guildmaster.Data.Definitions.</text>
<text text-anchor="start" x="211" y="-554.5" font-family="Helvetica,sans-Serif" font-size="10.00">RelicData</text>
<text text-anchor="start" x="173.5" y="-539.5" font-family="Helvetica,sans-Serif" font-size="10.00">+</text>
<text text-anchor="start" x="198.5" y="-539.5" font-family="Helvetica,sans-Serif" font-size="10.00">DisplayNameKey</text>
<text text-anchor="start" x="173.5" y="-524.5" font-family="Helvetica,sans-Serif" font-size="10.00">+</text>
<text text-anchor="start" x="198.5" y="-524.5" font-family="Helvetica,sans-Serif" font-size="10.00">Tags</text>
<text text-anchor="start" x="173.5" y="-509.5" font-family="Helvetica,sans-Serif" font-size="10.00">+</text>
<text text-anchor="start" x="198.5" y="-509.5" font-family="Helvetica,sans-Serif" font-size="10.00">DamageType</text>
<text text-anchor="start" x="173.5" y="-494.5" font-family="Helvetica,sans-Serif" font-size="10.00">+</text>
<text text-anchor="start" x="198.5" y="-494.5" font-family="Helvetica,sans-Serif" font-size="10.00">AttackType</text>
<text text-anchor="start" x="173.5" y="-479.5" font-family="Helvetica,sans-Serif" font-size="10.00">+</text>
<text text-anchor="start" x="198.5" y="-479.5" font-family="Helvetica,sans-Serif" font-size="10.00">ResourceType</text>
<text text-anchor="start" x="173.5" y="-464.5" font-family="Helvetica,sans-Serif" font-size="10.00">+</text>
<text text-anchor="start" x="198.5" y="-464.5" font-family="Helvetica,sans-Serif" font-size="10.00">Stats</text>
<text text-anchor="start" x="173.5" y="-449.5" font-family="Helvetica,sans-Serif" font-size="10.00">+</text>
<text text-anchor="start" x="198.5" y="-449.5" font-family="Helvetica,sans-Serif" font-size="10.00">GrantedEffects</text>
<text text-anchor="start" x="173.5" y="-434.5" font-family="Helvetica,sans-Serif" font-size="10.00">+</text>
<text text-anchor="start" x="198.5" y="-434.5" font-family="Helvetica,sans-Serif" font-size="10.00">Abilities</text>
<text text-anchor="start" x="233" y="-419.5" font-family="Helvetica,sans-Serif" font-size="10.00"> </text>
<polygon fill="#666666" stroke="#666666" points="157.5,-549.5 157.5,-549.5 312.5,-549.5 312.5,-549.5 157.5,-549.5"/>
<polygon fill="#666666" stroke="#666666" points="157.5,-429.5 157.5,-429.5 196.5,-429.5 196.5,-429.5 157.5,-429.5"/>
<polygon fill="#666666" stroke="#666666" points="196.5,-429.5 196.5,-429.5 312.5,-429.5 312.5,-429.5 196.5,-429.5"/>
<polygon fill="none" stroke="#666666" points="157,-413 157,-578 312,-578 312,-413 157,-413"/>
</a>
</g>
</g>
<!-- Node5&#45;&gt;Node2 -->
<g id="edge5_Node000002_Node000005" class="edge">
<title>Node5&#45;&gt;Node2</title>
<g id="a_edge5_Node000002_Node000005"><a xlink:title=" ">
<path fill="none" stroke="#63b8ff" d="M234.5,-412.83C234.5,-401.81 234.5,-390.26 234.5,-378.57"/>
<polygon fill="none" stroke="#63b8ff" points="234.5,-378.36 230.5,-372.36 234.5,-366.36 238.5,-372.36 234.5,-378.36"/>
</a>
</g>
<text text-anchor="middle" x="252.5" y="-387" font-family="Helvetica,sans-Serif" font-size="10.00" fill="grey"> +Relic</text>
</g>
<!-- Node6 -->
<g id="Node000006" class="node">
<title>Node6</title>
<g id="a_Node000006"><a xlink:title=" ">
<polygon fill="white" stroke="transparent" points="367,-664 276,-664 276,-615 367,-615 367,-664"/>
<text text-anchor="start" x="281.5" y="-651.5" font-family="Helvetica,sans-Serif" font-size="10.00">ScriptableObject</text>
<text text-anchor="start" x="320" y="-636.5" font-family="Helvetica,sans-Serif" font-size="10.00"> </text>
<text text-anchor="start" x="320" y="-621.5" font-family="Helvetica,sans-Serif" font-size="10.00"> </text>
<polygon fill="#666666" stroke="#666666" points="276.5,-646.5 276.5,-646.5 367.5,-646.5 367.5,-646.5 276.5,-646.5"/>
<polygon fill="#666666" stroke="#666666" points="276.5,-631.5 276.5,-631.5 367.5,-631.5 367.5,-631.5 276.5,-631.5"/>
<polygon fill="none" stroke="#666666" points="276,-615 276,-664 367,-664 367,-615 276,-615"/>
</a>
</g>
</g>
<!-- Node6&#45;&gt;Node5 -->
<g id="edge6_Node000005_Node000006" class="edge">
<title>Node6&#45;&gt;Node5</title>
<g id="a_edge6_Node000005_Node000006"><a xlink:title=" ">
<path fill="none" stroke="#63b8ff" d="M301.59,-606.01C296.42,-597.56 290.6,-588.06 284.61,-578.29"/>
<polygon fill="none" stroke="#63b8ff" points="298.73,-608.03 306.94,-614.73 304.7,-604.38 298.73,-608.03"/>
</a>
</g>
</g>
<!-- Node7 -->
<g id="Node000007" class="node">
<title>Node7</title>
<g id="a_Node000007"><a xlink:href="classGuildmaster_1_1Data_1_1Definitions_1_1VesselData.html" target="_top" xlink:title="«Пилот» — носитель реликвии.">
<polygon fill="white" stroke="transparent" points="485,-540.5 330,-540.5 330,-450.5 485,-450.5 485,-540.5"/>
<text text-anchor="start" x="335.5" y="-528.5" font-family="Helvetica,sans-Serif" font-size="10.00">Guildmaster.Data.Definitions.</text>
<text text-anchor="start" x="380.5" y="-517.5" font-family="Helvetica,sans-Serif" font-size="10.00">VesselData</text>
<text text-anchor="start" x="346.5" y="-502.5" font-family="Helvetica,sans-Serif" font-size="10.00">+</text>
<text text-anchor="start" x="371.5" y="-502.5" font-family="Helvetica,sans-Serif" font-size="10.00">DisplayNameKey</text>
<text text-anchor="start" x="346.5" y="-487.5" font-family="Helvetica,sans-Serif" font-size="10.00">+</text>
<text text-anchor="start" x="371.5" y="-487.5" font-family="Helvetica,sans-Serif" font-size="10.00">Tags</text>
<text text-anchor="start" x="346.5" y="-472.5" font-family="Helvetica,sans-Serif" font-size="10.00">+</text>
<text text-anchor="start" x="371.5" y="-472.5" font-family="Helvetica,sans-Serif" font-size="10.00">TalentModifiers</text>
<text text-anchor="start" x="406" y="-457.5" font-family="Helvetica,sans-Serif" font-size="10.00"> </text>
<polygon fill="#666666" stroke="#666666" points="330.5,-512.5 330.5,-512.5 485.5,-512.5 485.5,-512.5 330.5,-512.5"/>
<polygon fill="#666666" stroke="#666666" points="330.5,-467.5 330.5,-467.5 369.5,-467.5 369.5,-467.5 330.5,-467.5"/>
<polygon fill="#666666" stroke="#666666" points="369.5,-467.5 369.5,-467.5 485.5,-467.5 485.5,-467.5 369.5,-467.5"/>
<polygon fill="none" stroke="#666666" points="330,-450.5 330,-540.5 485,-540.5 485,-450.5 330,-450.5"/>
</a>
</g>
</g>
<!-- Node6&#45;&gt;Node7 -->
<g id="edge8_Node000007_Node000006" class="edge">
<title>Node6&#45;&gt;Node7</title>
<g id="a_edge8_Node000007_Node000006"><a xlink:title=" ">
<path fill="none" stroke="#63b8ff" d="M341.19,-605.99C352.9,-586.65 367.92,-561.85 380.7,-540.74"/>
<polygon fill="none" stroke="#63b8ff" points="338.08,-604.37 335.89,-614.73 344.07,-607.99 338.08,-604.37"/>
</a>
</g>
</g>
<!-- Node7&#45;&gt;Node2 -->
<g id="edge7_Node000002_Node000007" class="edge">
<title>Node7&#45;&gt;Node2</title>
<g id="a_edge7_Node000002_Node000007"><a xlink:title=" ">
<path fill="none" stroke="#63b8ff" d="M377.76,-450.32C363.71,-429.45 346.09,-403.27 328.05,-376.47"/>
<polygon fill="none" stroke="#63b8ff" points="327.82,-376.14 321.16,-373.39 321.12,-366.18 327.79,-368.93 327.82,-376.14"/>
</a>
</g>
<text text-anchor="middle" x="358" y="-387" font-family="Helvetica,sans-Serif" font-size="10.00" fill="grey"> +Vessel</text>
</g>
</g>
</svg>

<g id="navigator" transform="translate(0 0)" fill="#404254">
  <rect fill="#f2f5e9" fill-opacity="0.5" stroke="#606060" stroke-width=".5" x="0" y="0" width="60" height="60"/>
  <use id="zoomplus" xlink:href="#zoomPlus" x="17" y="9" onmousedown="handleZoom(evt,'in')"/>
  <use id="zoomminus" xlink:href="#zoomMin" x="42" y="9" onmousedown="handleZoom(evt,'out')"/>
  <use id="reset" xlink:href="#resetDef" x="30" y="36" onmousedown="handleReset()"/>
   <use id="arrowup" xlink:href="#arrowUp" x="0" y="0" onmousedown="handlePan(0,-1)"/>
  <use id="arrowright" xlink:href="#arrowRight" x="0" y="0" onmousedown="handlePan(1,0)"/>
  <use id="arrowdown" xlink:href="#arrowDown" x="0" y="0" onmousedown="handlePan(0,1)"/>
  <use id="arrowleft" xlink:href="#arrowLeft" x="0" y="0" onmousedown="handlePan(-1,0)"/>
</g>
<svg viewBox="0 0 15 15" width="100%" height="30px" preserveAspectRatio="xMaxYMin meet">
 <g id="arrow_out" transform="scale(0.3 0.3)">
  <a xlink:href="structGuildmaster_1_1Presentation_1_1UnitSpawnedEvent__coll__graph_org.svg" target="_base">
   <rect id="button" ry="5" rx="5" y="6" x="6" height="38" width="38"
        fill="#f2f5e9" fill-opacity="0.5" stroke="#606060" stroke-width="1.0"/>
   <path id="arrow"
     d="M 11.500037,31.436501 C 11.940474,20.09759 22.043105,11.32322 32.158766,21.979434 L 37.068811,17.246167 C 37.068811,17.246167 37.088388,32 37.088388,32 L 22.160133,31.978069 C 22.160133,31.978069 26.997745,27.140456 26.997745,27.140456 C 18.528582,18.264221 13.291696,25.230495 11.500037,31.436501 z"
     style="fill:#404040;"/>
  </a>
 </g>
</svg>

<style type='text/css'>
<![CDATA[
[data-mouse-over-selected='false'] { opacity: 0.7; }
[data-mouse-over-selected='true']  { opacity: 1.0; }
]]>
</style>
<script type="application/ecmascript"><![CDATA[
document.addEventListener('DOMContentLoaded', (event) => {
  highlightEdges();
  highlightAdjacentNodes();
});
]]></script>
</svg>
