<?xml version="1.0" encoding="UTF-8" standalone="no"?>
<!DOCTYPE svg PUBLIC "-//W3C//DTD SVG 1.1//EN"
 "http://www.w3.org/Graphics/SVG/1.1/DTD/svg11.dtd">
<!-- Generated by graphviz version 2.43.0 (0)
 -->
<!-- Title: Guildmaster.Combat.DamageRequest Pages: 1 -->
<svg width="493pt" height="608pt"
 viewBox="0.00 0.00 493.00 608.00" xmlns="http://www.w3.org/2000/svg" xmlns:xlink="http://www.w3.org/1999/xlink">
<g id="graph0" class="graph" transform="scale(1 1) rotate(0) translate(4 604)">
<title>Guildmaster.Combat.DamageRequest</title>
<!-- Node1 -->
<g id="Node000001" class="node">
<title>Node1</title>
<g id="a_Node000001"><a xlink:title="Входные данные пайплайна урона.">
<polygon fill="#999999" stroke="transparent" points="312,-90 157,-90 157,0 312,0 312,-90"/>
<text text-anchor="start" x="162.5" y="-78" font-family="Helvetica,sans-Serif" font-size="10.00">Guildmaster.Combat.Damage</text>
<text text-anchor="start" x="215" y="-67" font-family="Helvetica,sans-Serif" font-size="10.00">Request</text>
<text text-anchor="start" x="172.5" y="-52" font-family="Helvetica,sans-Serif" font-size="10.00">+</text>
<text text-anchor="start" x="196.5" y="-52" font-family="Helvetica,sans-Serif" font-size="10.00">RawDamage</text>
<text text-anchor="start" x="172.5" y="-37" font-family="Helvetica,sans-Serif" font-size="10.00">+</text>
<text text-anchor="start" x="196.5" y="-37" font-family="Helvetica,sans-Serif" font-size="10.00">DamageType</text>
<text text-anchor="start" x="172.5" y="-22" font-family="Helvetica,sans-Serif" font-size="10.00">+</text>
<text text-anchor="start" x="196.5" y="-22" font-family="Helvetica,sans-Serif" font-size="10.00">ArmorK</text>
<text text-anchor="start" x="172.5" y="-7" font-family="Helvetica,sans-Serif" font-size="10.00">+</text>
<text text-anchor="start" x="196.5" y="-7" font-family="Helvetica,sans-Serif" font-size="10.00">DamageRequest()</text>
<polygon fill="#666666" stroke="#666666" points="157.5,-62 157.5,-62 312.5,-62 312.5,-62 157.5,-62"/>
<polygon fill="#666666" stroke="#666666" points="157.5,-17 157.5,-17 194.5,-17 194.5,-17 157.5,-17"/>
<polygon fill="#666666" stroke="#666666" points="194.5,-17 194.5,-17 312.5,-17 312.5,-17 194.5,-17"/>
<polygon fill="none" stroke="#666666" points="157,0 157,-90 312,-90 312,0 157,0"/>
</a>
</g>
</g>
<!-- Node2 -->
<g id="Node000002" class="node">
<title>Node2</title>
<g id="a_Node000002"><a xlink:href="classGuildmaster_1_1Combat_1_1RuntimeUnit.html" target="_top" xlink:title="Рантайм&#45;представление юнита на один бой.">
<polygon fill="white" stroke="transparent" points="322.5,-317 146.5,-317 146.5,-148 322.5,-148 322.5,-317"/>
<text text-anchor="start" x="151.5" y="-304.5" font-family="Helvetica,sans-Serif" font-size="10.00">Guildmaster.Combat.RuntimeUnit</text>
<text text-anchor="start" x="168.5" y="-289.5" font-family="Helvetica,sans-Serif" font-size="10.00">+</text>
<text text-anchor="start" x="199.5" y="-289.5" font-family="Helvetica,sans-Serif" font-size="10.00">Id</text>
<text text-anchor="start" x="168.5" y="-274.5" font-family="Helvetica,sans-Serif" font-size="10.00">+</text>
<text text-anchor="start" x="199.5" y="-274.5" font-family="Helvetica,sans-Serif" font-size="10.00">Team</text>
<text text-anchor="start" x="168.5" y="-259.5" font-family="Helvetica,sans-Serif" font-size="10.00">+</text>
<text text-anchor="start" x="199.5" y="-259.5" font-family="Helvetica,sans-Serif" font-size="10.00">CurrentHP</text>
<text text-anchor="start" x="168.5" y="-244.5" font-family="Helvetica,sans-Serif" font-size="10.00">+</text>
<text text-anchor="start" x="199.5" y="-244.5" font-family="Helvetica,sans-Serif" font-size="10.00">CurrentResource</text>
<text text-anchor="start" x="168.5" y="-229.5" font-family="Helvetica,sans-Serif" font-size="10.00">+</text>
<text text-anchor="start" x="199.5" y="-229.5" font-family="Helvetica,sans-Serif" font-size="10.00">CurrentShield</text>
<text text-anchor="start" x="168.5" y="-214.5" font-family="Helvetica,sans-Serif" font-size="10.00">+</text>
<text text-anchor="start" x="199.5" y="-214.5" font-family="Helvetica,sans-Serif" font-size="10.00">Position</text>
<text text-anchor="start" x="168.5" y="-199.5" font-family="Helvetica,sans-Serif" font-size="10.00">+</text>
<text text-anchor="start" x="199.5" y="-199.5" font-family="Helvetica,sans-Serif" font-size="10.00">PreviousPosition</text>
<text text-anchor="start" x="168.5" y="-184.5" font-family="Helvetica,sans-Serif" font-size="10.00">+</text>
<text text-anchor="start" x="199.5" y="-184.5" font-family="Helvetica,sans-Serif" font-size="10.00">AttackCooldown</text>
<text text-anchor="start" x="168.5" y="-169.5" font-family="Helvetica,sans-Serif" font-size="10.00">+</text>
<text text-anchor="start" x="199.5" y="-169.5" font-family="Helvetica,sans-Serif" font-size="10.00">IsDead</text>
<text text-anchor="start" x="232.5" y="-154.5" font-family="Helvetica,sans-Serif" font-size="10.00"> </text>
<polygon fill="#666666" stroke="#666666" points="146.5,-299.5 146.5,-299.5 322.5,-299.5 322.5,-299.5 146.5,-299.5"/>
<polygon fill="#666666" stroke="#666666" points="146.5,-164.5 146.5,-164.5 197.5,-164.5 197.5,-164.5 146.5,-164.5"/>
<polygon fill="#666666" stroke="#666666" points="197.5,-164.5 197.5,-164.5 322.5,-164.5 322.5,-164.5 197.5,-164.5"/>
<polygon fill="none" stroke="#666666" points="146.5,-148 146.5,-317 322.5,-317 322.5,-148 146.5,-148"/>
</a>
</g>
</g>
<!-- Node2&#45;&gt;Node1 -->
<g id="edge1_Node000001_Node000002" class="edge">
<title>Node2&#45;&gt;Node1</title>
<g id="a_edge1_Node000001_Node000002"><a xlink:title=" ">
<path fill="none" stroke="#63b8ff" d="M234.5,-147.98C234.5,-132.5 234.5,-116.69 234.5,-102.27"/>
<polygon fill="none" stroke="#63b8ff" points="234.5,-102 230.5,-96.01 234.5,-90 238.5,-96 234.5,-102"/>
</a>
</g>
<text text-anchor="middle" x="257" y="-122" font-family="Helvetica,sans-Serif" font-size="10.00" fill="grey"> +Source</text>
<text text-anchor="middle" x="257" y="-111" font-family="Helvetica,sans-Serif" font-size="10.00" fill="grey">+Target</text>
</g>
<!-- Node2&#45;&gt;Node2 -->
<g id="edge4_Node000002_Node000002" class="edge">
<title>Node2&#45;&gt;Node2</title>
<g id="a_edge4_Node000002_Node000002"><a xlink:title=" ">
<path fill="none" stroke="#63b8ff" d="M322.63,-250.02C333.43,-246.88 340.5,-241.04 340.5,-232.5 340.5,-227.43 338.01,-223.31 333.72,-220.14"/>
<polygon fill="none" stroke="#63b8ff" points="333.51,-220.04 326.38,-221.14 322.63,-214.98 329.76,-213.89 333.51,-220.04"/>
</a>
</g>
<text text-anchor="middle" x="379.5" y="-230" font-family="Helvetica,sans-Serif" font-size="10.00" fill="grey"> +CurrentTarget</text>
</g>
<!-- Node3 -->
<g id="Node000003" class="node">
<title>Node3</title>
<g id="a_Node000003"><a xlink:href="classGuildmaster_1_1Combat_1_1Stats.html" target="_top" xlink:title="Рантайм стат&#45;объект юнита.">
<polygon fill="white" stroke="transparent" points="139,-486 0,-486 0,-392 139,-392 139,-486"/>
<text text-anchor="start" x="5.5" y="-474" font-family="Helvetica,sans-Serif" font-size="10.00">Guildmaster.Combat.Stats</text>
<text text-anchor="start" x="68" y="-459" font-family="Helvetica,sans-Serif" font-size="10.00"> </text>
<text text-anchor="start" x="4.5" y="-444" font-family="Helvetica,sans-Serif" font-size="10.00">+</text>
<text text-anchor="start" x="17.5" y="-444" font-family="Helvetica,sans-Serif" font-size="10.00">Stats()</text>
<text text-anchor="start" x="4.5" y="-429" font-family="Helvetica,sans-Serif" font-size="10.00">+</text>
<text text-anchor="start" x="17.5" y="-429" font-family="Helvetica,sans-Serif" font-size="10.00">Get()</text>
<text text-anchor="start" x="4.5" y="-414" font-family="Helvetica,sans-Serif" font-size="10.00">+</text>
<text text-anchor="start" x="17.5" y="-414" font-family="Helvetica,sans-Serif" font-size="10.00">AddModifiersFrom()</text>
<text text-anchor="start" x="4.5" y="-399" font-family="Helvetica,sans-Serif" font-size="10.00">+</text>
<text text-anchor="start" x="17.5" y="-399" font-family="Helvetica,sans-Serif" font-size="10.00">RemoveModifiersFrom()</text>
<polygon fill="#666666" stroke="#666666" points="0.5,-469 0.5,-469 139.5,-469 139.5,-469 0.5,-469"/>
<polygon fill="#666666" stroke="#666666" points="0.5,-454 0.5,-454 139.5,-454 139.5,-454 0.5,-454"/>
<polygon fill="none" stroke="#666666" points="0,-392 0,-486 139,-486 139,-392 0,-392"/>
</a>
</g>
</g>
<!-- Node3&#45;&gt;Node2 -->
<g id="edge2_Node000002_Node000003" class="edge">
<title>Node3&#45;&gt;Node2</title>
<g id="a_edge2_Node000002_Node000003"><a xlink:title=" ">
<path fill="none" stroke="#63b8ff" d="M106.73,-391.85C122.29,-372.58 140.95,-349.45 159.14,-326.9"/>
<polygon fill="none" stroke="#63b8ff" points="159.37,-326.62 160.02,-319.44 166.9,-317.28 166.25,-324.46 159.37,-326.62"/>
</a>
</g>
<text text-anchor="middle" x="171" y="-338" font-family="Helvetica,sans-Serif" font-size="10.00" fill="grey"> +Stats</text>
</g>
<!-- Node4 -->
<g id="Node000004" class="node">
<title>Node4</title>
<g id="a_Node000004"><a xlink:href="interfaceGuildmaster_1_1Data_1_1Stats_1_1IStatReader.html" target="_top" xlink:title="Только&#45;чтение собранных статов.">
<polygon fill="white" stroke="transparent" points="103.5,-600 35.5,-600 35.5,-551 103.5,-551 103.5,-600"/>
<text text-anchor="start" x="40.5" y="-587.5" font-family="Helvetica,sans-Serif" font-size="10.00">IStatReader</text>
<text text-anchor="start" x="67.5" y="-572.5" font-family="Helvetica,sans-Serif" font-size="10.00"> </text>
<text text-anchor="start" x="45" y="-557.5" font-family="Helvetica,sans-Serif" font-size="10.00">+</text>
<text text-anchor="start" x="63.5" y="-557.5" font-family="Helvetica,sans-Serif" font-size="10.00">Get()</text>
<polygon fill="#666666" stroke="#666666" points="35.5,-582.5 35.5,-582.5 103.5,-582.5 103.5,-582.5 35.5,-582.5"/>
<polygon fill="#666666" stroke="#666666" points="35.5,-567.5 35.5,-567.5 103.5,-567.5 103.5,-567.5 35.5,-567.5"/>
<polygon fill="none" stroke="#666666" points="35.5,-551 35.5,-600 103.5,-600 103.5,-551 35.5,-551"/>
</a>
</g>
</g>
<!-- Node4&#45;&gt;Node3 -->
<g id="edge3_Node000003_Node000004" class="edge">
<title>Node4&#45;&gt;Node3</title>
<g id="a_edge3_Node000003_Node000004"><a xlink:title=" ">
<path fill="none" stroke="#63b8ff" d="M69.5,-540.49C69.5,-523.99 69.5,-503.92 69.5,-486.07"/>
<polygon fill="none" stroke="#63b8ff" points="66,-540.76 69.5,-550.76 73,-540.76 66,-540.76"/>
</a>
</g>
</g>
<!-- Node5 -->
<g id="Node000005" class="node">
<title>Node5</title>
<g id="a_Node000005"><a xlink:href="classGuildmaster_1_1Data_1_1Definitions_1_1RelicData.html" target="_top" xlink:title="«Чемпион» — стат&#45;блок и боевые категории юнита.">
<polygon fill="white" stroke="transparent" points="312,-514 157,-514 157,-364 312,-364 312,-514"/>
<text text-anchor="start" x="162.5" y="-502" font-family="Helvetica,sans-Serif" font-size="10.00">Guildmaster.Data.Definitions.</text>
<text text-anchor="start" x="211" y="-491" font-family="Helvetica,sans-Serif" font-size="10.00">RelicData</text>
<text text-anchor="start" x="173.5" y="-476" font-family="Helvetica,sans-Serif" font-size="10.00">+</text>
<text text-anchor="start" x="198.5" y="-476" font-family="Helvetica,sans-Serif" font-size="10.00">DisplayNameKey</text>
<text text-anchor="start" x="173.5" y="-461" font-family="Helvetica,sans-Serif" font-size="10.00">+</text>
<text text-anchor="start" x="198.5" y="-461" font-family="Helvetica,sans-Serif" font-size="10.00">Tags</text>
<text text-anchor="start" x="173.5" y="-446" font-family="Helvetica,sans-Serif" font-size="10.00">+</text>
<text text-anchor="start" x="198.5" y="-446" font-family="Helvetica,sans-Serif" font-size="10.00">DamageType</text>
<text text-anchor="start" x="173.5" y="-431" font-family="Helvetica,sans-Serif" font-size="10.00">+</text>
<text text-anchor="start" x="198.5" y="-431" font-family="Helvetica,sans-Serif" font-size="10.00">AttackType</text>
<text text-anchor="start" x="173.5" y="-416" font-family="Helvetica,sans-Serif" font-size="10.00">+</text>
<text text-anchor="start" x="198.5" y="-416" font-family="Helvetica,sans-Serif" font-size="10.00">ResourceType</text>
<text text-anchor="start" x="173.5" y="-401" font-family="Helvetica,sans-Serif" font-size="10.00">+</text>
<text text-anchor="start" x="198.5" y="-401" font-family="Helvetica,sans-Serif" font-size="10.00">Stats</text>
<text text-anchor="start" x="173.5" y="-386" font-family="Helvetica,sans-Serif" font-size="10.00">+</text>
<text text-anchor="start" x="198.5" y="-386" font-family="Helvetica,sans-Serif" font-size="10.00">GrantedEffects</text>
<text text-anchor="start" x="233" y="-371" font-family="Helvetica,sans-Serif" font-size="10.00"> </text>
<polygon fill="#666666" stroke="#666666" points="157.5,-486 157.5,-486 312.5,-486 312.5,-486 157.5,-486"/>
<polygon fill="#666666" stroke="#666666" points="157.5,-381 157.5,-381 196.5,-381 196.5,-381 157.5,-381"/>
<polygon fill="#666666" stroke="#666666" points="196.5,-381 196.5,-381 312.5,-381 312.5,-381 196.5,-381"/>
<polygon fill="none" stroke="#666666" points="157,-364 157,-514 312,-514 312,-364 157,-364"/>
</a>
</g>
</g>
<!-- Node5&#45;&gt;Node2 -->
<g id="edge5_Node000002_Node000005" class="edge">
<title>Node5&#45;&gt;Node2</title>
<g id="a_edge5_Node000002_Node000005"><a xlink:title=" ">
<path fill="none" stroke="#63b8ff" d="M234.5,-363.88C234.5,-352.6 234.5,-340.82 234.5,-329.16"/>
<polygon fill="none" stroke="#63b8ff" points="234.5,-329.07 230.5,-323.07 234.5,-317.07 238.5,-323.07 234.5,-329.07"/>
</a>
</g>
<text text-anchor="middle" x="252.5" y="-338" font-family="Helvetica,sans-Serif" font-size="10.00" fill="grey"> +Relic</text>
</g>
<!-- Node6 -->
<g id="Node000006" class="node">
<title>Node6</title>
<g id="a_Node000006"><a xlink:title=" ">
<polygon fill="white" stroke="transparent" points="367,-600 276,-600 276,-551 367,-551 367,-600"/>
<text text-anchor="start" x="281.5" y="-587.5" font-family="Helvetica,sans-Serif" font-size="10.00">ScriptableObject</text>
<text text-anchor="start" x="320" y="-572.5" font-family="Helvetica,sans-Serif" font-size="10.00"> </text>
<text text-anchor="start" x="320" y="-557.5" font-family="Helvetica,sans-Serif" font-size="10.00"> </text>
<polygon fill="#666666" stroke="#666666" points="276.5,-582.5 276.5,-582.5 367.5,-582.5 367.5,-582.5 276.5,-582.5"/>
<polygon fill="#666666" stroke="#666666" points="276.5,-567.5 276.5,-567.5 367.5,-567.5 367.5,-567.5 276.5,-567.5"/>
<polygon fill="none" stroke="#666666" points="276,-551 276,-600 367,-600 367,-551 276,-551"/>
</a>
</g>
</g>
<!-- Node6&#45;&gt;Node5 -->
<g id="edge6_Node000005_Node000006" class="edge">
<title>Node6&#45;&gt;Node5</title>
<g id="a_edge6_Node000005_Node000006"><a xlink:title=" ">
<path fill="none" stroke="#63b8ff" d="M300.61,-542.2C295.03,-533.58 288.77,-523.89 282.38,-514.01"/>
<polygon fill="none" stroke="#63b8ff" points="297.78,-544.27 306.15,-550.76 303.65,-540.47 297.78,-544.27"/>
</a>
</g>
</g>
<!-- Node7 -->
<g id="Node000007" class="node">
<title>Node7</title>
<g id="a_Node000007"><a xlink:href="classGuildmaster_1_1Data_1_1Definitions_1_1VesselData.html" target="_top" xlink:title="«Пилот» — носитель реликвии.">
<polygon fill="white" stroke="transparent" points="485,-484 330,-484 330,-394 485,-394 485,-484"/>
<text text-anchor="start" x="335.5" y="-472" font-family="Helvetica,sans-Serif" font-size="10.00">Guildmaster.Data.Definitions.</text>
<text text-anchor="start" x="380.5" y="-461" font-family="Helvetica,sans-Serif" font-size="10.00">VesselData</text>
<text text-anchor="start" x="346.5" y="-446" font-family="Helvetica,sans-Serif" font-size="10.00">+</text>
<text text-anchor="start" x="371.5" y="-446" font-family="Helvetica,sans-Serif" font-size="10.00">DisplayNameKey</text>
<text text-anchor="start" x="346.5" y="-431" font-family="Helvetica,sans-Serif" font-size="10.00">+</text>
<text text-anchor="start" x="371.5" y="-431" font-family="Helvetica,sans-Serif" font-size="10.00">Tags</text>
<text text-anchor="start" x="346.5" y="-416" font-family="Helvetica,sans-Serif" font-size="10.00">+</text>
<text text-anchor="start" x="371.5" y="-416" font-family="Helvetica,sans-Serif" font-size="10.00">TalentModifiers</text>
<text text-anchor="start" x="406" y="-401" font-family="Helvetica,sans-Serif" font-size="10.00"> </text>
<polygon fill="#666666" stroke="#666666" points="330.5,-456 330.5,-456 485.5,-456 485.5,-456 330.5,-456"/>
<polygon fill="#666666" stroke="#666666" points="330.5,-411 330.5,-411 369.5,-411 369.5,-411 330.5,-411"/>
<polygon fill="#666666" stroke="#666666" points="369.5,-411 369.5,-411 485.5,-411 485.5,-411 369.5,-411"/>
<polygon fill="none" stroke="#666666" points="330,-394 330,-484 485,-484 485,-394 330,-394"/>
</a>
</g>
</g>
<!-- Node6&#45;&gt;Node7 -->
<g id="edge8_Node000007_Node000006" class="edge">
<title>Node6&#45;&gt;Node7</title>
<g id="a_edge8_Node000007_Node000006"><a xlink:title=" ">
<path fill="none" stroke="#63b8ff" d="M342.21,-542.1C353.33,-524.72 367.19,-503.05 379.27,-484.15"/>
<polygon fill="none" stroke="#63b8ff" points="339.12,-540.45 336.68,-550.76 345.01,-544.22 339.12,-540.45"/>
</a>
</g>
</g>
<!-- Node7&#45;&gt;Node2 -->
<g id="edge7_Node000002_Node000007" class="edge">
<title>Node7&#45;&gt;Node2</title>
<g id="a_edge7_Node000002_Node000007"><a xlink:title=" ">
<path fill="none" stroke="#63b8ff" d="M370.17,-393.88C353.43,-374.08 332.99,-349.93 313.12,-326.44"/>
<polygon fill="none" stroke="#63b8ff" points="313,-326.29 306.07,-324.29 305.25,-317.13 312.18,-319.13 313,-326.29"/>
</a>
</g>
<text text-anchor="middle" x="348" y="-338" font-family="Helvetica,sans-Serif" font-size="10.00" fill="grey"> +Vessel</text>
</g>
</g>
</svg>
